%TF.GenerationSoftware,KiCad,Pcbnew,8.0.5-8.0.5-0~ubuntu22.04.1*%
%TF.CreationDate,2024-10-01T15:38:50-06:00*%
%TF.ProjectId,z80 RPM,7a383020-5250-44d2-9e6b-696361645f70,1.1*%
%TF.SameCoordinates,Original*%
%TF.FileFunction,Drillmap*%
%TF.FilePolarity,Positive*%
%FSLAX45Y45*%
G04 Gerber Fmt 4.5, Leading zero omitted, Abs format (unit mm)*
G04 Created by KiCad (PCBNEW 8.0.5-8.0.5-0~ubuntu22.04.1) date 2024-10-01 15:38:50*
%MOMM*%
%LPD*%
G01*
G04 APERTURE LIST*
%ADD10C,0.050000*%
%ADD11C,0.200000*%
G04 APERTURE END LIST*
D10*
X4797000Y-8452000D02*
X13697000Y-8452000D01*
X13697000Y-2752000D02*
X4797000Y-2752000D01*
X4797000Y-2752000D02*
X4797000Y-8452000D01*
X13697000Y-8452000D02*
X13697000Y-2752000D01*
D11*
X5055277Y-8765984D02*
X5055277Y-8565984D01*
X5055277Y-8565984D02*
X5102896Y-8565984D01*
X5102896Y-8565984D02*
X5131467Y-8575508D01*
X5131467Y-8575508D02*
X5150515Y-8594555D01*
X5150515Y-8594555D02*
X5160039Y-8613603D01*
X5160039Y-8613603D02*
X5169563Y-8651698D01*
X5169563Y-8651698D02*
X5169563Y-8680270D01*
X5169563Y-8680270D02*
X5160039Y-8718365D01*
X5160039Y-8718365D02*
X5150515Y-8737412D01*
X5150515Y-8737412D02*
X5131467Y-8756460D01*
X5131467Y-8756460D02*
X5102896Y-8765984D01*
X5102896Y-8765984D02*
X5055277Y-8765984D01*
X5255277Y-8765984D02*
X5255277Y-8632650D01*
X5255277Y-8670746D02*
X5264801Y-8651698D01*
X5264801Y-8651698D02*
X5274324Y-8642174D01*
X5274324Y-8642174D02*
X5293372Y-8632650D01*
X5293372Y-8632650D02*
X5312420Y-8632650D01*
X5379086Y-8765984D02*
X5379086Y-8632650D01*
X5379086Y-8565984D02*
X5369563Y-8575508D01*
X5369563Y-8575508D02*
X5379086Y-8585031D01*
X5379086Y-8585031D02*
X5388610Y-8575508D01*
X5388610Y-8575508D02*
X5379086Y-8565984D01*
X5379086Y-8565984D02*
X5379086Y-8585031D01*
X5502896Y-8765984D02*
X5483848Y-8756460D01*
X5483848Y-8756460D02*
X5474324Y-8737412D01*
X5474324Y-8737412D02*
X5474324Y-8565984D01*
X5607658Y-8765984D02*
X5588610Y-8756460D01*
X5588610Y-8756460D02*
X5579086Y-8737412D01*
X5579086Y-8737412D02*
X5579086Y-8565984D01*
X5836229Y-8765984D02*
X5836229Y-8565984D01*
X5836229Y-8565984D02*
X5902896Y-8708841D01*
X5902896Y-8708841D02*
X5969562Y-8565984D01*
X5969562Y-8565984D02*
X5969562Y-8765984D01*
X6150515Y-8765984D02*
X6150515Y-8661222D01*
X6150515Y-8661222D02*
X6140991Y-8642174D01*
X6140991Y-8642174D02*
X6121943Y-8632650D01*
X6121943Y-8632650D02*
X6083848Y-8632650D01*
X6083848Y-8632650D02*
X6064801Y-8642174D01*
X6150515Y-8756460D02*
X6131467Y-8765984D01*
X6131467Y-8765984D02*
X6083848Y-8765984D01*
X6083848Y-8765984D02*
X6064801Y-8756460D01*
X6064801Y-8756460D02*
X6055277Y-8737412D01*
X6055277Y-8737412D02*
X6055277Y-8718365D01*
X6055277Y-8718365D02*
X6064801Y-8699317D01*
X6064801Y-8699317D02*
X6083848Y-8689793D01*
X6083848Y-8689793D02*
X6131467Y-8689793D01*
X6131467Y-8689793D02*
X6150515Y-8680270D01*
X6245753Y-8632650D02*
X6245753Y-8832650D01*
X6245753Y-8642174D02*
X6264801Y-8632650D01*
X6264801Y-8632650D02*
X6302896Y-8632650D01*
X6302896Y-8632650D02*
X6321943Y-8642174D01*
X6321943Y-8642174D02*
X6331467Y-8651698D01*
X6331467Y-8651698D02*
X6340991Y-8670746D01*
X6340991Y-8670746D02*
X6340991Y-8727889D01*
X6340991Y-8727889D02*
X6331467Y-8746936D01*
X6331467Y-8746936D02*
X6321943Y-8756460D01*
X6321943Y-8756460D02*
X6302896Y-8765984D01*
X6302896Y-8765984D02*
X6264801Y-8765984D01*
X6264801Y-8765984D02*
X6245753Y-8756460D01*
X6426705Y-8746936D02*
X6436229Y-8756460D01*
X6436229Y-8756460D02*
X6426705Y-8765984D01*
X6426705Y-8765984D02*
X6417182Y-8756460D01*
X6417182Y-8756460D02*
X6426705Y-8746936D01*
X6426705Y-8746936D02*
X6426705Y-8765984D01*
X6426705Y-8642174D02*
X6436229Y-8651698D01*
X6436229Y-8651698D02*
X6426705Y-8661222D01*
X6426705Y-8661222D02*
X6417182Y-8651698D01*
X6417182Y-8651698D02*
X6426705Y-8642174D01*
X6426705Y-8642174D02*
X6426705Y-8661222D01*
M02*
