M48
; DRILL file {KiCad 8.0.3-8.0.3-0~ubuntu20.04.1} date 2024-07-06T21:01:15-0600
; FORMAT={-:-/ absolute / metric / decimal}
; #@! TF.CreationDate,2024-07-06T21:01:15-06:00
; #@! TF.GenerationSoftware,Kicad,Pcbnew,8.0.3-8.0.3-0~ubuntu20.04.1
; #@! TF.FileFunction,Plated,1,2,PTH
FMAT,2
METRIC
; #@! TA.AperFunction,Plated,PTH,ViaDrill
T1C0.300
; #@! TA.AperFunction,Plated,PTH,ComponentDrill
T2C0.800
; #@! TA.AperFunction,Plated,PTH,ComponentDrill
T3C0.990
; #@! TA.AperFunction,Plated,PTH,ComponentDrill
T4C1.000
; #@! TA.AperFunction,Plated,PTH,ComponentDrill
T5C1.100
; #@! TA.AperFunction,Plated,PTH,ComponentDrill
T6C1.300
; #@! TA.AperFunction,Plated,PTH,ComponentDrill
T7C3.200
%
G90
G05
T1
X130.503Y-102.96
X131.615Y-86.053
X131.708Y-109.325
X132.08Y-110.49
X134.365Y-112.944
X134.62Y-110.49
X135.377Y-112.725
X142.24Y-110.49
X142.311Y-89.373
X142.443Y-90.193
X144.621Y-88.015
X147.32Y-83.185
X147.32Y-109.22
X150.228Y-87.412
X150.495Y-109.22
X151.407Y-103.79
X152.4Y-104.775
X154.395Y-93.933
X155.028Y-109.305
X156.789Y-87.111
X157.013Y-102.018
X157.127Y-78.678
X158.974Y-97.321
X159.243Y-91.53
X160.02Y-89.535
X160.509Y-90.917
X161.29Y-104.775
X162.56Y-79.375
X162.56Y-102.87
X163.195Y-104.775
X163.967Y-118.627
X165.1Y-78.74
X165.1Y-107.95
X165.922Y-101.576
X166.75Y-101.403
X167.352Y-106.93
X168.275Y-88.9
X168.275Y-100.33
X168.275Y-110.49
X168.924Y-95.094
X168.974Y-78.326
X170.035Y-76.961
X170.18Y-99.695
X170.815Y-76.2
X171.45Y-90.17
X171.45Y-94.615
X172.085Y-86.36
X176.641Y-112.246
X177.905Y-84.069
X178.046Y-109.196
X178.054Y-87.376
X178.668Y-111.545
X181.19Y-96.271
X181.229Y-88.138
X181.641Y-85.66
X182.068Y-107.613
X182.324Y-84.437
X183.014Y-106.879
X183.123Y-75.658
X183.643Y-74.014
X183.672Y-95.568
X184.891Y-77.146
X185.359Y-84.096
X185.711Y-76.621
X186.32Y-85.0
X186.601Y-83.549
X186.993Y-94.445
X187.16Y-107.962
X187.325Y-71.755
X187.96Y-74.295
X187.96Y-108.585
X188.04Y-114.857
X188.595Y-80.01
X188.595Y-103.505
X188.781Y-114.465
X188.976Y-98.044
X190.6Y-95.407
X191.135Y-89.535
X191.575Y-100.047
X191.937Y-78.901
X192.908Y-78.2
X194.91Y-85.315
T2
X134.62Y-79.375
X134.62Y-89.535
X134.62Y-92.075
X134.62Y-102.235
X134.62Y-104.795
X134.62Y-107.295
X137.795Y-73.66
X137.795Y-81.28
X137.795Y-85.09
X137.795Y-92.71
X137.795Y-98.425
X137.795Y-113.665
X137.815Y-95.885
X140.315Y-95.885
X140.335Y-73.66
X140.335Y-81.28
X140.335Y-85.09
X140.335Y-92.71
X140.335Y-98.425
X140.335Y-113.665
X142.875Y-73.66
X142.875Y-81.28
X142.875Y-85.09
X142.875Y-92.71
X142.875Y-98.425
X142.875Y-113.665
X145.415Y-73.66
X145.415Y-81.28
X145.415Y-85.09
X145.415Y-92.71
X145.415Y-98.425
X145.415Y-113.665
X147.955Y-73.66
X147.955Y-81.28
X147.955Y-85.09
X147.955Y-92.71
X147.955Y-98.425
X147.955Y-113.665
X150.495Y-73.66
X150.495Y-81.28
X150.495Y-85.09
X150.495Y-92.71
X150.495Y-98.425
X150.495Y-113.665
X153.035Y-73.66
X153.035Y-81.28
X153.035Y-85.09
X153.035Y-92.71
X153.035Y-98.425
X153.035Y-113.665
X155.575Y-76.2
X155.575Y-78.7
X155.575Y-85.09
X155.575Y-92.71
X155.575Y-98.425
X155.575Y-113.665
X158.115Y-73.66
X158.115Y-81.28
X158.115Y-85.09
X158.115Y-92.71
X158.115Y-98.425
X158.115Y-113.665
X160.655Y-73.66
X160.655Y-81.28
X160.655Y-85.09
X160.655Y-92.71
X160.655Y-98.425
X160.655Y-113.665
X163.195Y-73.66
X163.195Y-81.28
X163.195Y-85.09
X163.195Y-92.71
X163.195Y-95.885
X163.195Y-98.425
X163.195Y-113.665
X165.695Y-95.885
X165.735Y-73.66
X165.735Y-81.28
X165.735Y-85.09
X165.735Y-92.71
X165.735Y-98.425
X165.735Y-113.665
X168.275Y-73.66
X168.275Y-81.28
X168.275Y-85.09
X168.275Y-92.71
X168.275Y-98.425
X168.275Y-113.665
X170.815Y-73.66
X170.815Y-81.28
X170.815Y-85.09
X170.815Y-92.71
X170.815Y-98.425
X170.815Y-113.665
X173.355Y-73.66
X173.355Y-81.28
X173.355Y-85.09
X173.355Y-92.71
X173.355Y-98.425
X173.355Y-113.665
X175.895Y-73.66
X175.895Y-81.28
X175.895Y-85.09
X175.895Y-92.71
X175.895Y-98.425
X175.895Y-113.665
X178.435Y-98.425
X178.435Y-113.665
X180.975Y-75.565
X180.975Y-90.805
X180.975Y-98.425
X180.975Y-113.665
X183.515Y-98.425
X183.515Y-113.665
X186.055Y-98.425
X186.055Y-113.665
X188.595Y-75.565
X188.595Y-90.805
X189.865Y-99.695
X189.865Y-102.235
X189.865Y-104.775
X189.865Y-107.315
X189.865Y-109.855
X189.865Y-112.395
X191.135Y-66.715
X191.135Y-69.215
X191.135Y-117.475
X191.135Y-119.975
X193.695Y-93.345
X196.195Y-93.345
T3
X140.325Y-119.965
X144.825Y-119.965
T4
X113.665Y-79.375
X113.665Y-81.915
X113.665Y-84.455
X113.665Y-86.995
X113.665Y-89.535
X113.665Y-92.075
X113.665Y-94.615
X113.665Y-97.155
X113.665Y-99.695
X113.665Y-102.235
X113.665Y-104.775
X113.665Y-107.315
X113.665Y-109.855
X113.665Y-112.395
X128.905Y-79.375
X128.905Y-81.915
X128.905Y-84.455
X128.905Y-86.995
X128.905Y-89.535
X128.905Y-92.075
X128.905Y-94.615
X128.905Y-97.155
X128.905Y-99.695
X128.905Y-102.235
X128.905Y-104.775
X128.905Y-107.315
X128.905Y-109.855
X128.905Y-112.395
X138.43Y-69.215
X140.97Y-69.215
X144.145Y-69.215
X146.685Y-69.215
X150.495Y-66.675
X150.495Y-69.215
X150.495Y-117.475
X150.495Y-120.015
X153.035Y-66.675
X153.035Y-69.215
X153.035Y-117.475
X153.035Y-120.015
X155.575Y-66.675
X155.575Y-69.215
X155.575Y-117.475
X155.575Y-120.015
X158.115Y-66.675
X158.115Y-69.215
X158.115Y-117.475
X158.115Y-120.015
X160.655Y-117.475
X160.655Y-120.015
X163.195Y-66.675
X163.195Y-69.215
X163.195Y-117.475
X163.195Y-120.015
X165.735Y-66.675
X165.735Y-69.215
X165.735Y-117.475
X165.735Y-120.015
X168.275Y-117.475
X168.275Y-120.015
X170.815Y-66.675
X170.815Y-69.215
X170.815Y-117.475
X170.815Y-120.015
X173.355Y-66.675
X173.355Y-69.215
X173.355Y-117.475
X173.355Y-120.015
X175.895Y-66.675
X175.895Y-69.215
X175.895Y-117.475
X175.895Y-120.015
X178.435Y-66.675
X178.435Y-69.215
X178.435Y-117.475
X178.435Y-120.015
X180.975Y-66.675
X180.975Y-69.215
X180.975Y-117.475
X180.975Y-120.015
X183.515Y-66.675
X183.515Y-69.215
X183.515Y-117.475
X183.515Y-120.015
X186.055Y-66.675
X186.055Y-69.215
X186.055Y-117.475
X186.055Y-120.015
X188.595Y-66.675
X188.595Y-69.215
X188.595Y-117.475
X188.595Y-120.015
X193.675Y-66.675
X193.675Y-69.215
X193.675Y-71.755
X193.675Y-74.295
X193.675Y-76.835
X193.675Y-79.375
X193.675Y-81.915
X193.675Y-84.455
X193.675Y-86.995
X193.675Y-89.535
X193.675Y-97.155
X193.675Y-99.695
X193.675Y-102.235
X193.675Y-104.775
X193.675Y-107.315
X193.675Y-109.855
X193.675Y-112.395
X193.675Y-114.935
X193.675Y-117.475
X193.675Y-120.015
X196.215Y-66.675
X196.215Y-69.215
X196.215Y-71.755
X196.215Y-74.295
X196.215Y-76.835
X196.215Y-79.375
X196.215Y-81.915
X196.215Y-84.455
X196.215Y-86.995
X196.215Y-89.535
X196.215Y-97.155
X196.215Y-99.695
X196.215Y-102.235
X196.215Y-104.775
X196.215Y-107.315
X196.215Y-109.855
X196.215Y-112.395
X196.215Y-114.935
X196.215Y-117.475
X196.215Y-120.015
T5
X134.62Y-69.215
X134.62Y-76.835
T6
X139.065Y-117.475
X146.075Y-117.475
T7
X121.92Y-81.045
X121.92Y-106.045
X171.92Y-106.045
M30
