%TF.GenerationSoftware,KiCad,Pcbnew,8.0.5-8.0.5-0~ubuntu22.04.1*%
%TF.CreationDate,2024-10-01T15:38:50-06:00*%
%TF.ProjectId,z80 RPM,7a383020-5250-44d2-9e6b-696361645f70,1.1*%
%TF.SameCoordinates,Original*%
%TF.FileFunction,Drillmap*%
%TF.FilePolarity,Positive*%
%FSLAX45Y45*%
G04 Gerber Fmt 4.5, Leading zero omitted, Abs format (unit mm)*
G04 Created by KiCad (PCBNEW 8.0.5-8.0.5-0~ubuntu22.04.1) date 2024-10-01 15:38:50*
%MOMM*%
%LPD*%
G01*
G04 APERTURE LIST*
%ADD10C,0.050000*%
%ADD11C,0.200000*%
%ADD12C,0.100000*%
%ADD13C,0.110000*%
%ADD14C,0.130000*%
%ADD15C,0.320000*%
G04 APERTURE END LIST*
D10*
X4797000Y-8452000D02*
X13697000Y-8452000D01*
X13697000Y-2752000D02*
X4797000Y-2752000D01*
X4797000Y-2752000D02*
X4797000Y-8452000D01*
X13697000Y-8452000D02*
X13697000Y-2752000D01*
D11*
D12*
X6615000Y-3475000D02*
X6645000Y-3505000D01*
X6645000Y-3475000D02*
X6615000Y-3505000D01*
X6775000Y-3585000D02*
X6805000Y-3615000D01*
X6805000Y-3585000D02*
X6775000Y-3615000D01*
X6910430Y-6543770D02*
X6940430Y-6573770D01*
X6940430Y-6543770D02*
X6910430Y-6573770D01*
X7021550Y-4853080D02*
X7051550Y-4883080D01*
X7051550Y-4853080D02*
X7021550Y-4883080D01*
X7030860Y-7180240D02*
X7060860Y-7210240D01*
X7060860Y-7180240D02*
X7030860Y-7210240D01*
X7068090Y-7296790D02*
X7098090Y-7326790D01*
X7098090Y-7296790D02*
X7068090Y-7326790D01*
X7296590Y-7542150D02*
X7326590Y-7572150D01*
X7326590Y-7542150D02*
X7296590Y-7572150D01*
X7322090Y-7296790D02*
X7352090Y-7326790D01*
X7352090Y-7296790D02*
X7322090Y-7326790D01*
X7397800Y-7520300D02*
X7427800Y-7550300D01*
X7427800Y-7520300D02*
X7397800Y-7550300D01*
X8084090Y-7296790D02*
X8114090Y-7326790D01*
X8114090Y-7296790D02*
X8084090Y-7326790D01*
X8091200Y-5185050D02*
X8121200Y-5215050D01*
X8121200Y-5185050D02*
X8091200Y-5215050D01*
X8104380Y-5267100D02*
X8134380Y-5297100D01*
X8134380Y-5267100D02*
X8104380Y-5297100D01*
X8322180Y-5049300D02*
X8352180Y-5079300D01*
X8352180Y-5049300D02*
X8322180Y-5079300D01*
X8592090Y-4566290D02*
X8622090Y-4596290D01*
X8622090Y-4566290D02*
X8592090Y-4596290D01*
X8592090Y-7169790D02*
X8622090Y-7199790D01*
X8622090Y-7169790D02*
X8592090Y-7199790D01*
X8882880Y-4988990D02*
X8912880Y-5018990D01*
X8912880Y-4988990D02*
X8882880Y-5018990D01*
X8909590Y-7169790D02*
X8939590Y-7199790D01*
X8939590Y-7169790D02*
X8909590Y-7199790D01*
X9000750Y-6626800D02*
X9030750Y-6656800D01*
X9030750Y-6626800D02*
X9000750Y-6656800D01*
X9100090Y-6725290D02*
X9130090Y-6755290D01*
X9130090Y-6725290D02*
X9100090Y-6755290D01*
X9299560Y-5641070D02*
X9329560Y-5671070D01*
X9329560Y-5641070D02*
X9299560Y-5671070D01*
X9362940Y-7178260D02*
X9392940Y-7208260D01*
X9392940Y-7178260D02*
X9362940Y-7208260D01*
X9539000Y-4958870D02*
X9569000Y-4988870D01*
X9569000Y-4958870D02*
X9539000Y-4988870D01*
X9561420Y-6449580D02*
X9591420Y-6479580D01*
X9591420Y-6449580D02*
X9561420Y-6479580D01*
X9572830Y-4115600D02*
X9602830Y-4145600D01*
X9602830Y-4115600D02*
X9572830Y-4145600D01*
X9757490Y-5979880D02*
X9787490Y-6009880D01*
X9787490Y-5979880D02*
X9757490Y-6009880D01*
X9784440Y-5400800D02*
X9814440Y-5430800D01*
X9814440Y-5400800D02*
X9784440Y-5430800D01*
X9862090Y-5201290D02*
X9892090Y-5231290D01*
X9892090Y-5201290D02*
X9862090Y-5231290D01*
X9910970Y-5339490D02*
X9940970Y-5369490D01*
X9940970Y-5339490D02*
X9910970Y-5369490D01*
X9989090Y-6725290D02*
X10019090Y-6755290D01*
X10019090Y-6725290D02*
X9989090Y-6755290D01*
X10116090Y-4185290D02*
X10146090Y-4215290D01*
X10146090Y-4185290D02*
X10116090Y-4215290D01*
X10116090Y-6534790D02*
X10146090Y-6564790D01*
X10146090Y-6534790D02*
X10116090Y-6564790D01*
X10179590Y-6725290D02*
X10209590Y-6755290D01*
X10209590Y-6725290D02*
X10179590Y-6755290D01*
X10256760Y-8110460D02*
X10286760Y-8140460D01*
X10286760Y-8110460D02*
X10256760Y-8140460D01*
X10370090Y-4121790D02*
X10400090Y-4151790D01*
X10400090Y-4121790D02*
X10370090Y-4151790D01*
X10370090Y-7042790D02*
X10400090Y-7072790D01*
X10400090Y-7042790D02*
X10370090Y-7072790D01*
X10452310Y-6405380D02*
X10482310Y-6435380D01*
X10482310Y-6405380D02*
X10452310Y-6435380D01*
X10535140Y-6388050D02*
X10565140Y-6418050D01*
X10565140Y-6388050D02*
X10535140Y-6418050D01*
X10595320Y-6940820D02*
X10625320Y-6970820D01*
X10625320Y-6940820D02*
X10595320Y-6970820D01*
X10687590Y-5137790D02*
X10717590Y-5167790D01*
X10717590Y-5137790D02*
X10687590Y-5167790D01*
X10687590Y-6280790D02*
X10717590Y-6310790D01*
X10717590Y-6280790D02*
X10687590Y-6310790D01*
X10687590Y-7296790D02*
X10717590Y-7326790D01*
X10717590Y-7296790D02*
X10687590Y-7326790D01*
X10752530Y-5757220D02*
X10782530Y-5787220D01*
X10782530Y-5757220D02*
X10752530Y-5787220D01*
X10757490Y-4080360D02*
X10787490Y-4110360D01*
X10787490Y-4080360D02*
X10757490Y-4110360D01*
X10863590Y-3943870D02*
X10893590Y-3973870D01*
X10893590Y-3943870D02*
X10863590Y-3973870D01*
X10878090Y-6217290D02*
X10908090Y-6247290D01*
X10908090Y-6217290D02*
X10878090Y-6247290D01*
X10941590Y-3867790D02*
X10971590Y-3897790D01*
X10971590Y-3867790D02*
X10941590Y-3897790D01*
X11005090Y-5264790D02*
X11035090Y-5294790D01*
X11035090Y-5264790D02*
X11005090Y-5294790D01*
X11005090Y-5709290D02*
X11035090Y-5739290D01*
X11035090Y-5709290D02*
X11005090Y-5739290D01*
X11068590Y-4883790D02*
X11098590Y-4913790D01*
X11098590Y-4883790D02*
X11068590Y-4913790D01*
X11524230Y-7472410D02*
X11554230Y-7502410D01*
X11554230Y-7472410D02*
X11524230Y-7502410D01*
X11650580Y-4654700D02*
X11680580Y-4684700D01*
X11680580Y-4654700D02*
X11650580Y-4684700D01*
X11664700Y-7167380D02*
X11694700Y-7197380D01*
X11694700Y-7167380D02*
X11664700Y-7197380D01*
X11665490Y-4985390D02*
X11695490Y-5015390D01*
X11695490Y-4985390D02*
X11665490Y-5015390D01*
X11726880Y-7402340D02*
X11756880Y-7432340D01*
X11756880Y-7402340D02*
X11726880Y-7432340D01*
X11979060Y-5874900D02*
X12009060Y-5904900D01*
X12009060Y-5874900D02*
X11979060Y-5904900D01*
X11982990Y-5061590D02*
X12012990Y-5091590D01*
X12012990Y-5061590D02*
X11982990Y-5091590D01*
X12024170Y-4813820D02*
X12054170Y-4843820D01*
X12054170Y-4813820D02*
X12024170Y-4843820D01*
X12066870Y-7009090D02*
X12096870Y-7039090D01*
X12096870Y-7009090D02*
X12066870Y-7039090D01*
X12092470Y-4691520D02*
X12122470Y-4721520D01*
X12122470Y-4691520D02*
X12092470Y-4721520D01*
X12161460Y-6935710D02*
X12191460Y-6965710D01*
X12191460Y-6935710D02*
X12161460Y-6965710D01*
X12172350Y-3813570D02*
X12202350Y-3843570D01*
X12202350Y-3813570D02*
X12172350Y-3843570D01*
X12224440Y-3649220D02*
X12254440Y-3679220D01*
X12254440Y-3649220D02*
X12224440Y-3679220D01*
X12227310Y-5804570D02*
X12257310Y-5834570D01*
X12257310Y-5804570D02*
X12227310Y-5834570D01*
X12349200Y-3962390D02*
X12379200Y-3992390D01*
X12379200Y-3962390D02*
X12349200Y-3992390D01*
X12395970Y-4657400D02*
X12425970Y-4687400D01*
X12425970Y-4657400D02*
X12395970Y-4687400D01*
X12431160Y-3909880D02*
X12461160Y-3939880D01*
X12461160Y-3909880D02*
X12431160Y-3939880D01*
X12492050Y-4747820D02*
X12522050Y-4777820D01*
X12522050Y-4747820D02*
X12492050Y-4777820D01*
X12520240Y-4602690D02*
X12550240Y-4632690D01*
X12550240Y-4602690D02*
X12520240Y-4632690D01*
X12559380Y-5692340D02*
X12589380Y-5722340D01*
X12589380Y-5692340D02*
X12559380Y-5722340D01*
X12576140Y-7044010D02*
X12606140Y-7074010D01*
X12606140Y-7044010D02*
X12576140Y-7074010D01*
X12592590Y-3423290D02*
X12622590Y-3453290D01*
X12622590Y-3423290D02*
X12592590Y-3453290D01*
X12656090Y-3677290D02*
X12686090Y-3707290D01*
X12686090Y-3677290D02*
X12656090Y-3707290D01*
X12656090Y-7106290D02*
X12686090Y-7136290D01*
X12686090Y-7106290D02*
X12656090Y-7136290D01*
X12664070Y-7733500D02*
X12694070Y-7763500D01*
X12694070Y-7733500D02*
X12664070Y-7763500D01*
X12719590Y-4248790D02*
X12749590Y-4278790D01*
X12749590Y-4248790D02*
X12719590Y-4278790D01*
X12719590Y-6598290D02*
X12749590Y-6628290D01*
X12749590Y-6598290D02*
X12719590Y-6628290D01*
X12738230Y-7694250D02*
X12768230Y-7724250D01*
X12768230Y-7694250D02*
X12738230Y-7724250D01*
X12757690Y-6052190D02*
X12787690Y-6082190D01*
X12787690Y-6052190D02*
X12757690Y-6082190D01*
X12920100Y-5788450D02*
X12950100Y-5818450D01*
X12950100Y-5788450D02*
X12920100Y-5818450D01*
X12973590Y-5201290D02*
X13003590Y-5231290D01*
X13003590Y-5201290D02*
X12973590Y-5231290D01*
X13017630Y-6252530D02*
X13047630Y-6282530D01*
X13047630Y-6252530D02*
X13017630Y-6282530D01*
X13053810Y-4137850D02*
X13083810Y-4167850D01*
X13083810Y-4137850D02*
X13053810Y-4167850D01*
X13150900Y-4067790D02*
X13180900Y-4097790D01*
X13180900Y-4067790D02*
X13150900Y-4097790D01*
X13351120Y-4779330D02*
X13381120Y-4809330D01*
X13381120Y-4779330D02*
X13351120Y-4809330D01*
X5032000Y-2950000D02*
G75*
G02*
X4952000Y-2950000I-40000J0D01*
G01*
X4952000Y-2950000D02*
G75*
G02*
X5032000Y-2950000I40000J0D01*
G01*
X6048000Y-2950000D02*
G75*
G02*
X5968000Y-2950000I-40000J0D01*
G01*
X5968000Y-2950000D02*
G75*
G02*
X6048000Y-2950000I40000J0D01*
G01*
X6257000Y-2950000D02*
G75*
G02*
X6177000Y-2950000I-40000J0D01*
G01*
X6177000Y-2950000D02*
G75*
G02*
X6257000Y-2950000I40000J0D01*
G01*
X7273000Y-2950000D02*
G75*
G02*
X7193000Y-2950000I-40000J0D01*
G01*
X7193000Y-2950000D02*
G75*
G02*
X7273000Y-2950000I40000J0D01*
G01*
X7377090Y-4200290D02*
G75*
G02*
X7297090Y-4200290I-40000J0D01*
G01*
X7297090Y-4200290D02*
G75*
G02*
X7377090Y-4200290I40000J0D01*
G01*
X7377090Y-5216290D02*
G75*
G02*
X7297090Y-5216290I-40000J0D01*
G01*
X7297090Y-5216290D02*
G75*
G02*
X7377090Y-5216290I40000J0D01*
G01*
X7377090Y-5470290D02*
G75*
G02*
X7297090Y-5470290I-40000J0D01*
G01*
X7297090Y-5470290D02*
G75*
G02*
X7377090Y-5470290I40000J0D01*
G01*
X7377090Y-6486290D02*
G75*
G02*
X7297090Y-6486290I-40000J0D01*
G01*
X7297090Y-6486290D02*
G75*
G02*
X7377090Y-6486290I40000J0D01*
G01*
X7377090Y-6742290D02*
G75*
G02*
X7297090Y-6742290I-40000J0D01*
G01*
X7297090Y-6742290D02*
G75*
G02*
X7377090Y-6742290I40000J0D01*
G01*
X7377090Y-6992290D02*
G75*
G02*
X7297090Y-6992290I-40000J0D01*
G01*
X7297090Y-6992290D02*
G75*
G02*
X7377090Y-6992290I40000J0D01*
G01*
X7694590Y-3628790D02*
G75*
G02*
X7614590Y-3628790I-40000J0D01*
G01*
X7614590Y-3628790D02*
G75*
G02*
X7694590Y-3628790I40000J0D01*
G01*
X7694590Y-4390790D02*
G75*
G02*
X7614590Y-4390790I-40000J0D01*
G01*
X7614590Y-4390790D02*
G75*
G02*
X7694590Y-4390790I40000J0D01*
G01*
X7694590Y-4771790D02*
G75*
G02*
X7614590Y-4771790I-40000J0D01*
G01*
X7614590Y-4771790D02*
G75*
G02*
X7694590Y-4771790I40000J0D01*
G01*
X7694590Y-5533790D02*
G75*
G02*
X7614590Y-5533790I-40000J0D01*
G01*
X7614590Y-5533790D02*
G75*
G02*
X7694590Y-5533790I40000J0D01*
G01*
X7694590Y-6105290D02*
G75*
G02*
X7614590Y-6105290I-40000J0D01*
G01*
X7614590Y-6105290D02*
G75*
G02*
X7694590Y-6105290I40000J0D01*
G01*
X7694590Y-7629290D02*
G75*
G02*
X7614590Y-7629290I-40000J0D01*
G01*
X7614590Y-7629290D02*
G75*
G02*
X7694590Y-7629290I40000J0D01*
G01*
X7696590Y-5851290D02*
G75*
G02*
X7616590Y-5851290I-40000J0D01*
G01*
X7616590Y-5851290D02*
G75*
G02*
X7696590Y-5851290I40000J0D01*
G01*
X7946590Y-5851290D02*
G75*
G02*
X7866590Y-5851290I-40000J0D01*
G01*
X7866590Y-5851290D02*
G75*
G02*
X7946590Y-5851290I40000J0D01*
G01*
X7948590Y-3628790D02*
G75*
G02*
X7868590Y-3628790I-40000J0D01*
G01*
X7868590Y-3628790D02*
G75*
G02*
X7948590Y-3628790I40000J0D01*
G01*
X7948590Y-4390790D02*
G75*
G02*
X7868590Y-4390790I-40000J0D01*
G01*
X7868590Y-4390790D02*
G75*
G02*
X7948590Y-4390790I40000J0D01*
G01*
X7948590Y-4771790D02*
G75*
G02*
X7868590Y-4771790I-40000J0D01*
G01*
X7868590Y-4771790D02*
G75*
G02*
X7948590Y-4771790I40000J0D01*
G01*
X7948590Y-5533790D02*
G75*
G02*
X7868590Y-5533790I-40000J0D01*
G01*
X7868590Y-5533790D02*
G75*
G02*
X7948590Y-5533790I40000J0D01*
G01*
X7948590Y-6105290D02*
G75*
G02*
X7868590Y-6105290I-40000J0D01*
G01*
X7868590Y-6105290D02*
G75*
G02*
X7948590Y-6105290I40000J0D01*
G01*
X7948590Y-7629290D02*
G75*
G02*
X7868590Y-7629290I-40000J0D01*
G01*
X7868590Y-7629290D02*
G75*
G02*
X7948590Y-7629290I40000J0D01*
G01*
X8202590Y-3628790D02*
G75*
G02*
X8122590Y-3628790I-40000J0D01*
G01*
X8122590Y-3628790D02*
G75*
G02*
X8202590Y-3628790I40000J0D01*
G01*
X8202590Y-4390790D02*
G75*
G02*
X8122590Y-4390790I-40000J0D01*
G01*
X8122590Y-4390790D02*
G75*
G02*
X8202590Y-4390790I40000J0D01*
G01*
X8202590Y-4771790D02*
G75*
G02*
X8122590Y-4771790I-40000J0D01*
G01*
X8122590Y-4771790D02*
G75*
G02*
X8202590Y-4771790I40000J0D01*
G01*
X8202590Y-5533790D02*
G75*
G02*
X8122590Y-5533790I-40000J0D01*
G01*
X8122590Y-5533790D02*
G75*
G02*
X8202590Y-5533790I40000J0D01*
G01*
X8202590Y-6105290D02*
G75*
G02*
X8122590Y-6105290I-40000J0D01*
G01*
X8122590Y-6105290D02*
G75*
G02*
X8202590Y-6105290I40000J0D01*
G01*
X8202590Y-7629290D02*
G75*
G02*
X8122590Y-7629290I-40000J0D01*
G01*
X8122590Y-7629290D02*
G75*
G02*
X8202590Y-7629290I40000J0D01*
G01*
X8456590Y-3628790D02*
G75*
G02*
X8376590Y-3628790I-40000J0D01*
G01*
X8376590Y-3628790D02*
G75*
G02*
X8456590Y-3628790I40000J0D01*
G01*
X8456590Y-4390790D02*
G75*
G02*
X8376590Y-4390790I-40000J0D01*
G01*
X8376590Y-4390790D02*
G75*
G02*
X8456590Y-4390790I40000J0D01*
G01*
X8456590Y-4771790D02*
G75*
G02*
X8376590Y-4771790I-40000J0D01*
G01*
X8376590Y-4771790D02*
G75*
G02*
X8456590Y-4771790I40000J0D01*
G01*
X8456590Y-5533790D02*
G75*
G02*
X8376590Y-5533790I-40000J0D01*
G01*
X8376590Y-5533790D02*
G75*
G02*
X8456590Y-5533790I40000J0D01*
G01*
X8456590Y-6105290D02*
G75*
G02*
X8376590Y-6105290I-40000J0D01*
G01*
X8376590Y-6105290D02*
G75*
G02*
X8456590Y-6105290I40000J0D01*
G01*
X8456590Y-7629290D02*
G75*
G02*
X8376590Y-7629290I-40000J0D01*
G01*
X8376590Y-7629290D02*
G75*
G02*
X8456590Y-7629290I40000J0D01*
G01*
X8710590Y-3628790D02*
G75*
G02*
X8630590Y-3628790I-40000J0D01*
G01*
X8630590Y-3628790D02*
G75*
G02*
X8710590Y-3628790I40000J0D01*
G01*
X8710590Y-4390790D02*
G75*
G02*
X8630590Y-4390790I-40000J0D01*
G01*
X8630590Y-4390790D02*
G75*
G02*
X8710590Y-4390790I40000J0D01*
G01*
X8710590Y-4771790D02*
G75*
G02*
X8630590Y-4771790I-40000J0D01*
G01*
X8630590Y-4771790D02*
G75*
G02*
X8710590Y-4771790I40000J0D01*
G01*
X8710590Y-5533790D02*
G75*
G02*
X8630590Y-5533790I-40000J0D01*
G01*
X8630590Y-5533790D02*
G75*
G02*
X8710590Y-5533790I40000J0D01*
G01*
X8710590Y-6105290D02*
G75*
G02*
X8630590Y-6105290I-40000J0D01*
G01*
X8630590Y-6105290D02*
G75*
G02*
X8710590Y-6105290I40000J0D01*
G01*
X8710590Y-7629290D02*
G75*
G02*
X8630590Y-7629290I-40000J0D01*
G01*
X8630590Y-7629290D02*
G75*
G02*
X8710590Y-7629290I40000J0D01*
G01*
X8964590Y-3628790D02*
G75*
G02*
X8884590Y-3628790I-40000J0D01*
G01*
X8884590Y-3628790D02*
G75*
G02*
X8964590Y-3628790I40000J0D01*
G01*
X8964590Y-4390790D02*
G75*
G02*
X8884590Y-4390790I-40000J0D01*
G01*
X8884590Y-4390790D02*
G75*
G02*
X8964590Y-4390790I40000J0D01*
G01*
X8964590Y-4771790D02*
G75*
G02*
X8884590Y-4771790I-40000J0D01*
G01*
X8884590Y-4771790D02*
G75*
G02*
X8964590Y-4771790I40000J0D01*
G01*
X8964590Y-5533790D02*
G75*
G02*
X8884590Y-5533790I-40000J0D01*
G01*
X8884590Y-5533790D02*
G75*
G02*
X8964590Y-5533790I40000J0D01*
G01*
X8964590Y-6105290D02*
G75*
G02*
X8884590Y-6105290I-40000J0D01*
G01*
X8884590Y-6105290D02*
G75*
G02*
X8964590Y-6105290I40000J0D01*
G01*
X8964590Y-7629290D02*
G75*
G02*
X8884590Y-7629290I-40000J0D01*
G01*
X8884590Y-7629290D02*
G75*
G02*
X8964590Y-7629290I40000J0D01*
G01*
X9218590Y-3628790D02*
G75*
G02*
X9138590Y-3628790I-40000J0D01*
G01*
X9138590Y-3628790D02*
G75*
G02*
X9218590Y-3628790I40000J0D01*
G01*
X9218590Y-4390790D02*
G75*
G02*
X9138590Y-4390790I-40000J0D01*
G01*
X9138590Y-4390790D02*
G75*
G02*
X9218590Y-4390790I40000J0D01*
G01*
X9218590Y-4771790D02*
G75*
G02*
X9138590Y-4771790I-40000J0D01*
G01*
X9138590Y-4771790D02*
G75*
G02*
X9218590Y-4771790I40000J0D01*
G01*
X9218590Y-5533790D02*
G75*
G02*
X9138590Y-5533790I-40000J0D01*
G01*
X9138590Y-5533790D02*
G75*
G02*
X9218590Y-5533790I40000J0D01*
G01*
X9218590Y-6105290D02*
G75*
G02*
X9138590Y-6105290I-40000J0D01*
G01*
X9138590Y-6105290D02*
G75*
G02*
X9218590Y-6105290I40000J0D01*
G01*
X9218590Y-7629290D02*
G75*
G02*
X9138590Y-7629290I-40000J0D01*
G01*
X9138590Y-7629290D02*
G75*
G02*
X9218590Y-7629290I40000J0D01*
G01*
X9472590Y-3882790D02*
G75*
G02*
X9392590Y-3882790I-40000J0D01*
G01*
X9392590Y-3882790D02*
G75*
G02*
X9472590Y-3882790I40000J0D01*
G01*
X9472590Y-4132790D02*
G75*
G02*
X9392590Y-4132790I-40000J0D01*
G01*
X9392590Y-4132790D02*
G75*
G02*
X9472590Y-4132790I40000J0D01*
G01*
X9472590Y-4771790D02*
G75*
G02*
X9392590Y-4771790I-40000J0D01*
G01*
X9392590Y-4771790D02*
G75*
G02*
X9472590Y-4771790I40000J0D01*
G01*
X9472590Y-5533790D02*
G75*
G02*
X9392590Y-5533790I-40000J0D01*
G01*
X9392590Y-5533790D02*
G75*
G02*
X9472590Y-5533790I40000J0D01*
G01*
X9472590Y-6105290D02*
G75*
G02*
X9392590Y-6105290I-40000J0D01*
G01*
X9392590Y-6105290D02*
G75*
G02*
X9472590Y-6105290I40000J0D01*
G01*
X9472590Y-7629290D02*
G75*
G02*
X9392590Y-7629290I-40000J0D01*
G01*
X9392590Y-7629290D02*
G75*
G02*
X9472590Y-7629290I40000J0D01*
G01*
X9726590Y-3628790D02*
G75*
G02*
X9646590Y-3628790I-40000J0D01*
G01*
X9646590Y-3628790D02*
G75*
G02*
X9726590Y-3628790I40000J0D01*
G01*
X9726590Y-4390790D02*
G75*
G02*
X9646590Y-4390790I-40000J0D01*
G01*
X9646590Y-4390790D02*
G75*
G02*
X9726590Y-4390790I40000J0D01*
G01*
X9726590Y-4771790D02*
G75*
G02*
X9646590Y-4771790I-40000J0D01*
G01*
X9646590Y-4771790D02*
G75*
G02*
X9726590Y-4771790I40000J0D01*
G01*
X9726590Y-5533790D02*
G75*
G02*
X9646590Y-5533790I-40000J0D01*
G01*
X9646590Y-5533790D02*
G75*
G02*
X9726590Y-5533790I40000J0D01*
G01*
X9726590Y-6105290D02*
G75*
G02*
X9646590Y-6105290I-40000J0D01*
G01*
X9646590Y-6105290D02*
G75*
G02*
X9726590Y-6105290I40000J0D01*
G01*
X9726590Y-7629290D02*
G75*
G02*
X9646590Y-7629290I-40000J0D01*
G01*
X9646590Y-7629290D02*
G75*
G02*
X9726590Y-7629290I40000J0D01*
G01*
X9980590Y-3628790D02*
G75*
G02*
X9900590Y-3628790I-40000J0D01*
G01*
X9900590Y-3628790D02*
G75*
G02*
X9980590Y-3628790I40000J0D01*
G01*
X9980590Y-4390790D02*
G75*
G02*
X9900590Y-4390790I-40000J0D01*
G01*
X9900590Y-4390790D02*
G75*
G02*
X9980590Y-4390790I40000J0D01*
G01*
X9980590Y-4771790D02*
G75*
G02*
X9900590Y-4771790I-40000J0D01*
G01*
X9900590Y-4771790D02*
G75*
G02*
X9980590Y-4771790I40000J0D01*
G01*
X9980590Y-5533790D02*
G75*
G02*
X9900590Y-5533790I-40000J0D01*
G01*
X9900590Y-5533790D02*
G75*
G02*
X9980590Y-5533790I40000J0D01*
G01*
X9980590Y-6105290D02*
G75*
G02*
X9900590Y-6105290I-40000J0D01*
G01*
X9900590Y-6105290D02*
G75*
G02*
X9980590Y-6105290I40000J0D01*
G01*
X9980590Y-7629290D02*
G75*
G02*
X9900590Y-7629290I-40000J0D01*
G01*
X9900590Y-7629290D02*
G75*
G02*
X9980590Y-7629290I40000J0D01*
G01*
X10234590Y-3628790D02*
G75*
G02*
X10154590Y-3628790I-40000J0D01*
G01*
X10154590Y-3628790D02*
G75*
G02*
X10234590Y-3628790I40000J0D01*
G01*
X10234590Y-4390790D02*
G75*
G02*
X10154590Y-4390790I-40000J0D01*
G01*
X10154590Y-4390790D02*
G75*
G02*
X10234590Y-4390790I40000J0D01*
G01*
X10234590Y-4771790D02*
G75*
G02*
X10154590Y-4771790I-40000J0D01*
G01*
X10154590Y-4771790D02*
G75*
G02*
X10234590Y-4771790I40000J0D01*
G01*
X10234590Y-5533790D02*
G75*
G02*
X10154590Y-5533790I-40000J0D01*
G01*
X10154590Y-5533790D02*
G75*
G02*
X10234590Y-5533790I40000J0D01*
G01*
X10234590Y-5851290D02*
G75*
G02*
X10154590Y-5851290I-40000J0D01*
G01*
X10154590Y-5851290D02*
G75*
G02*
X10234590Y-5851290I40000J0D01*
G01*
X10234590Y-6105290D02*
G75*
G02*
X10154590Y-6105290I-40000J0D01*
G01*
X10154590Y-6105290D02*
G75*
G02*
X10234590Y-6105290I40000J0D01*
G01*
X10234590Y-7629290D02*
G75*
G02*
X10154590Y-7629290I-40000J0D01*
G01*
X10154590Y-7629290D02*
G75*
G02*
X10234590Y-7629290I40000J0D01*
G01*
X10484590Y-5851290D02*
G75*
G02*
X10404590Y-5851290I-40000J0D01*
G01*
X10404590Y-5851290D02*
G75*
G02*
X10484590Y-5851290I40000J0D01*
G01*
X10488590Y-3628790D02*
G75*
G02*
X10408590Y-3628790I-40000J0D01*
G01*
X10408590Y-3628790D02*
G75*
G02*
X10488590Y-3628790I40000J0D01*
G01*
X10488590Y-4390790D02*
G75*
G02*
X10408590Y-4390790I-40000J0D01*
G01*
X10408590Y-4390790D02*
G75*
G02*
X10488590Y-4390790I40000J0D01*
G01*
X10488590Y-4771790D02*
G75*
G02*
X10408590Y-4771790I-40000J0D01*
G01*
X10408590Y-4771790D02*
G75*
G02*
X10488590Y-4771790I40000J0D01*
G01*
X10488590Y-5533790D02*
G75*
G02*
X10408590Y-5533790I-40000J0D01*
G01*
X10408590Y-5533790D02*
G75*
G02*
X10488590Y-5533790I40000J0D01*
G01*
X10488590Y-6105290D02*
G75*
G02*
X10408590Y-6105290I-40000J0D01*
G01*
X10408590Y-6105290D02*
G75*
G02*
X10488590Y-6105290I40000J0D01*
G01*
X10488590Y-7629290D02*
G75*
G02*
X10408590Y-7629290I-40000J0D01*
G01*
X10408590Y-7629290D02*
G75*
G02*
X10488590Y-7629290I40000J0D01*
G01*
X10742590Y-3628790D02*
G75*
G02*
X10662590Y-3628790I-40000J0D01*
G01*
X10662590Y-3628790D02*
G75*
G02*
X10742590Y-3628790I40000J0D01*
G01*
X10742590Y-4390790D02*
G75*
G02*
X10662590Y-4390790I-40000J0D01*
G01*
X10662590Y-4390790D02*
G75*
G02*
X10742590Y-4390790I40000J0D01*
G01*
X10742590Y-4771790D02*
G75*
G02*
X10662590Y-4771790I-40000J0D01*
G01*
X10662590Y-4771790D02*
G75*
G02*
X10742590Y-4771790I40000J0D01*
G01*
X10742590Y-5533790D02*
G75*
G02*
X10662590Y-5533790I-40000J0D01*
G01*
X10662590Y-5533790D02*
G75*
G02*
X10742590Y-5533790I40000J0D01*
G01*
X10742590Y-6105290D02*
G75*
G02*
X10662590Y-6105290I-40000J0D01*
G01*
X10662590Y-6105290D02*
G75*
G02*
X10742590Y-6105290I40000J0D01*
G01*
X10742590Y-7629290D02*
G75*
G02*
X10662590Y-7629290I-40000J0D01*
G01*
X10662590Y-7629290D02*
G75*
G02*
X10742590Y-7629290I40000J0D01*
G01*
X10996590Y-3628790D02*
G75*
G02*
X10916590Y-3628790I-40000J0D01*
G01*
X10916590Y-3628790D02*
G75*
G02*
X10996590Y-3628790I40000J0D01*
G01*
X10996590Y-4390790D02*
G75*
G02*
X10916590Y-4390790I-40000J0D01*
G01*
X10916590Y-4390790D02*
G75*
G02*
X10996590Y-4390790I40000J0D01*
G01*
X10996590Y-4771790D02*
G75*
G02*
X10916590Y-4771790I-40000J0D01*
G01*
X10916590Y-4771790D02*
G75*
G02*
X10996590Y-4771790I40000J0D01*
G01*
X10996590Y-5533790D02*
G75*
G02*
X10916590Y-5533790I-40000J0D01*
G01*
X10916590Y-5533790D02*
G75*
G02*
X10996590Y-5533790I40000J0D01*
G01*
X10996590Y-6105290D02*
G75*
G02*
X10916590Y-6105290I-40000J0D01*
G01*
X10916590Y-6105290D02*
G75*
G02*
X10996590Y-6105290I40000J0D01*
G01*
X10996590Y-7629290D02*
G75*
G02*
X10916590Y-7629290I-40000J0D01*
G01*
X10916590Y-7629290D02*
G75*
G02*
X10996590Y-7629290I40000J0D01*
G01*
X11250590Y-3628790D02*
G75*
G02*
X11170590Y-3628790I-40000J0D01*
G01*
X11170590Y-3628790D02*
G75*
G02*
X11250590Y-3628790I40000J0D01*
G01*
X11250590Y-4390790D02*
G75*
G02*
X11170590Y-4390790I-40000J0D01*
G01*
X11170590Y-4390790D02*
G75*
G02*
X11250590Y-4390790I40000J0D01*
G01*
X11250590Y-4771790D02*
G75*
G02*
X11170590Y-4771790I-40000J0D01*
G01*
X11170590Y-4771790D02*
G75*
G02*
X11250590Y-4771790I40000J0D01*
G01*
X11250590Y-5533790D02*
G75*
G02*
X11170590Y-5533790I-40000J0D01*
G01*
X11170590Y-5533790D02*
G75*
G02*
X11250590Y-5533790I40000J0D01*
G01*
X11250590Y-6105290D02*
G75*
G02*
X11170590Y-6105290I-40000J0D01*
G01*
X11170590Y-6105290D02*
G75*
G02*
X11250590Y-6105290I40000J0D01*
G01*
X11250590Y-7629290D02*
G75*
G02*
X11170590Y-7629290I-40000J0D01*
G01*
X11170590Y-7629290D02*
G75*
G02*
X11250590Y-7629290I40000J0D01*
G01*
X11504590Y-3628790D02*
G75*
G02*
X11424590Y-3628790I-40000J0D01*
G01*
X11424590Y-3628790D02*
G75*
G02*
X11504590Y-3628790I40000J0D01*
G01*
X11504590Y-4390790D02*
G75*
G02*
X11424590Y-4390790I-40000J0D01*
G01*
X11424590Y-4390790D02*
G75*
G02*
X11504590Y-4390790I40000J0D01*
G01*
X11504590Y-4771790D02*
G75*
G02*
X11424590Y-4771790I-40000J0D01*
G01*
X11424590Y-4771790D02*
G75*
G02*
X11504590Y-4771790I40000J0D01*
G01*
X11504590Y-5533790D02*
G75*
G02*
X11424590Y-5533790I-40000J0D01*
G01*
X11424590Y-5533790D02*
G75*
G02*
X11504590Y-5533790I40000J0D01*
G01*
X11504590Y-6105290D02*
G75*
G02*
X11424590Y-6105290I-40000J0D01*
G01*
X11424590Y-6105290D02*
G75*
G02*
X11504590Y-6105290I40000J0D01*
G01*
X11504590Y-7629290D02*
G75*
G02*
X11424590Y-7629290I-40000J0D01*
G01*
X11424590Y-7629290D02*
G75*
G02*
X11504590Y-7629290I40000J0D01*
G01*
X11758590Y-6105290D02*
G75*
G02*
X11678590Y-6105290I-40000J0D01*
G01*
X11678590Y-6105290D02*
G75*
G02*
X11758590Y-6105290I40000J0D01*
G01*
X11758590Y-7629290D02*
G75*
G02*
X11678590Y-7629290I-40000J0D01*
G01*
X11678590Y-7629290D02*
G75*
G02*
X11758590Y-7629290I40000J0D01*
G01*
X12012590Y-3819290D02*
G75*
G02*
X11932590Y-3819290I-40000J0D01*
G01*
X11932590Y-3819290D02*
G75*
G02*
X12012590Y-3819290I40000J0D01*
G01*
X12012590Y-5343290D02*
G75*
G02*
X11932590Y-5343290I-40000J0D01*
G01*
X11932590Y-5343290D02*
G75*
G02*
X12012590Y-5343290I40000J0D01*
G01*
X12012590Y-6105290D02*
G75*
G02*
X11932590Y-6105290I-40000J0D01*
G01*
X11932590Y-6105290D02*
G75*
G02*
X12012590Y-6105290I40000J0D01*
G01*
X12012590Y-7629290D02*
G75*
G02*
X11932590Y-7629290I-40000J0D01*
G01*
X11932590Y-7629290D02*
G75*
G02*
X12012590Y-7629290I40000J0D01*
G01*
X12266590Y-6105290D02*
G75*
G02*
X12186590Y-6105290I-40000J0D01*
G01*
X12186590Y-6105290D02*
G75*
G02*
X12266590Y-6105290I40000J0D01*
G01*
X12266590Y-7629290D02*
G75*
G02*
X12186590Y-7629290I-40000J0D01*
G01*
X12186590Y-7629290D02*
G75*
G02*
X12266590Y-7629290I40000J0D01*
G01*
X12520590Y-6105290D02*
G75*
G02*
X12440590Y-6105290I-40000J0D01*
G01*
X12440590Y-6105290D02*
G75*
G02*
X12520590Y-6105290I40000J0D01*
G01*
X12520590Y-7629290D02*
G75*
G02*
X12440590Y-7629290I-40000J0D01*
G01*
X12440590Y-7629290D02*
G75*
G02*
X12520590Y-7629290I40000J0D01*
G01*
X12774590Y-3819290D02*
G75*
G02*
X12694590Y-3819290I-40000J0D01*
G01*
X12694590Y-3819290D02*
G75*
G02*
X12774590Y-3819290I40000J0D01*
G01*
X12774590Y-5343290D02*
G75*
G02*
X12694590Y-5343290I-40000J0D01*
G01*
X12694590Y-5343290D02*
G75*
G02*
X12774590Y-5343290I40000J0D01*
G01*
X12901590Y-6232290D02*
G75*
G02*
X12821590Y-6232290I-40000J0D01*
G01*
X12821590Y-6232290D02*
G75*
G02*
X12901590Y-6232290I40000J0D01*
G01*
X12901590Y-6486290D02*
G75*
G02*
X12821590Y-6486290I-40000J0D01*
G01*
X12821590Y-6486290D02*
G75*
G02*
X12901590Y-6486290I40000J0D01*
G01*
X12901590Y-6740290D02*
G75*
G02*
X12821590Y-6740290I-40000J0D01*
G01*
X12821590Y-6740290D02*
G75*
G02*
X12901590Y-6740290I40000J0D01*
G01*
X12901590Y-6994290D02*
G75*
G02*
X12821590Y-6994290I-40000J0D01*
G01*
X12821590Y-6994290D02*
G75*
G02*
X12901590Y-6994290I40000J0D01*
G01*
X12901590Y-7248290D02*
G75*
G02*
X12821590Y-7248290I-40000J0D01*
G01*
X12821590Y-7248290D02*
G75*
G02*
X12901590Y-7248290I40000J0D01*
G01*
X12901590Y-7502290D02*
G75*
G02*
X12821590Y-7502290I-40000J0D01*
G01*
X12821590Y-7502290D02*
G75*
G02*
X12901590Y-7502290I40000J0D01*
G01*
X13028590Y-2934290D02*
G75*
G02*
X12948590Y-2934290I-40000J0D01*
G01*
X12948590Y-2934290D02*
G75*
G02*
X13028590Y-2934290I40000J0D01*
G01*
X13028590Y-3184290D02*
G75*
G02*
X12948590Y-3184290I-40000J0D01*
G01*
X12948590Y-3184290D02*
G75*
G02*
X13028590Y-3184290I40000J0D01*
G01*
X13028590Y-8010290D02*
G75*
G02*
X12948590Y-8010290I-40000J0D01*
G01*
X12948590Y-8010290D02*
G75*
G02*
X13028590Y-8010290I40000J0D01*
G01*
X13028590Y-8260290D02*
G75*
G02*
X12948590Y-8260290I-40000J0D01*
G01*
X12948590Y-8260290D02*
G75*
G02*
X13028590Y-8260290I40000J0D01*
G01*
X13284590Y-5597290D02*
G75*
G02*
X13204590Y-5597290I-40000J0D01*
G01*
X13204590Y-5597290D02*
G75*
G02*
X13284590Y-5597290I40000J0D01*
G01*
X13534590Y-5597290D02*
G75*
G02*
X13454590Y-5597290I-40000J0D01*
G01*
X13454590Y-5597290D02*
G75*
G02*
X13534590Y-5597290I40000J0D01*
G01*
X7907590Y-8209790D02*
X7907590Y-8308790D01*
X7858090Y-8259290D02*
X7957090Y-8259290D01*
X8357590Y-8209790D02*
X8357590Y-8308790D01*
X8308090Y-8259290D02*
X8407090Y-8259290D01*
X5276946Y-4235646D02*
X5276946Y-4164934D01*
X5206234Y-4164934D01*
X5206234Y-4235646D01*
X5276946Y-4235646D01*
X5276946Y-4489646D02*
X5276946Y-4418934D01*
X5206234Y-4418934D01*
X5206234Y-4489646D01*
X5276946Y-4489646D01*
X5276946Y-4743646D02*
X5276946Y-4672934D01*
X5206234Y-4672934D01*
X5206234Y-4743646D01*
X5276946Y-4743646D01*
X5276946Y-4997646D02*
X5276946Y-4926934D01*
X5206234Y-4926934D01*
X5206234Y-4997646D01*
X5276946Y-4997646D01*
X5276946Y-5251646D02*
X5276946Y-5180934D01*
X5206234Y-5180934D01*
X5206234Y-5251646D01*
X5276946Y-5251646D01*
X5276946Y-5505646D02*
X5276946Y-5434934D01*
X5206234Y-5434934D01*
X5206234Y-5505646D01*
X5276946Y-5505646D01*
X5276946Y-5759646D02*
X5276946Y-5688934D01*
X5206234Y-5688934D01*
X5206234Y-5759646D01*
X5276946Y-5759646D01*
X5276946Y-6013646D02*
X5276946Y-5942934D01*
X5206234Y-5942934D01*
X5206234Y-6013646D01*
X5276946Y-6013646D01*
X5276946Y-6267646D02*
X5276946Y-6196934D01*
X5206234Y-6196934D01*
X5206234Y-6267646D01*
X5276946Y-6267646D01*
X5276946Y-6521646D02*
X5276946Y-6450934D01*
X5206234Y-6450934D01*
X5206234Y-6521646D01*
X5276946Y-6521646D01*
X5276946Y-6775646D02*
X5276946Y-6704934D01*
X5206234Y-6704934D01*
X5206234Y-6775646D01*
X5276946Y-6775646D01*
X5276946Y-7029646D02*
X5276946Y-6958934D01*
X5206234Y-6958934D01*
X5206234Y-7029646D01*
X5276946Y-7029646D01*
X5276946Y-7283646D02*
X5276946Y-7212934D01*
X5206234Y-7212934D01*
X5206234Y-7283646D01*
X5276946Y-7283646D01*
X5276946Y-7537646D02*
X5276946Y-7466934D01*
X5206234Y-7466934D01*
X5206234Y-7537646D01*
X5276946Y-7537646D01*
X6800946Y-4235646D02*
X6800946Y-4164934D01*
X6730234Y-4164934D01*
X6730234Y-4235646D01*
X6800946Y-4235646D01*
X6800946Y-4489646D02*
X6800946Y-4418934D01*
X6730234Y-4418934D01*
X6730234Y-4489646D01*
X6800946Y-4489646D01*
X6800946Y-4743646D02*
X6800946Y-4672934D01*
X6730234Y-4672934D01*
X6730234Y-4743646D01*
X6800946Y-4743646D01*
X6800946Y-4997646D02*
X6800946Y-4926934D01*
X6730234Y-4926934D01*
X6730234Y-4997646D01*
X6800946Y-4997646D01*
X6800946Y-5251646D02*
X6800946Y-5180934D01*
X6730234Y-5180934D01*
X6730234Y-5251646D01*
X6800946Y-5251646D01*
X6800946Y-5505646D02*
X6800946Y-5434934D01*
X6730234Y-5434934D01*
X6730234Y-5505646D01*
X6800946Y-5505646D01*
X6800946Y-5759646D02*
X6800946Y-5688934D01*
X6730234Y-5688934D01*
X6730234Y-5759646D01*
X6800946Y-5759646D01*
X6800946Y-6013646D02*
X6800946Y-5942934D01*
X6730234Y-5942934D01*
X6730234Y-6013646D01*
X6800946Y-6013646D01*
X6800946Y-6267646D02*
X6800946Y-6196934D01*
X6730234Y-6196934D01*
X6730234Y-6267646D01*
X6800946Y-6267646D01*
X6800946Y-6521646D02*
X6800946Y-6450934D01*
X6730234Y-6450934D01*
X6730234Y-6521646D01*
X6800946Y-6521646D01*
X6800946Y-6775646D02*
X6800946Y-6704934D01*
X6730234Y-6704934D01*
X6730234Y-6775646D01*
X6800946Y-6775646D01*
X6800946Y-7029646D02*
X6800946Y-6958934D01*
X6730234Y-6958934D01*
X6730234Y-7029646D01*
X6800946Y-7029646D01*
X6800946Y-7283646D02*
X6800946Y-7212934D01*
X6730234Y-7212934D01*
X6730234Y-7283646D01*
X6800946Y-7283646D01*
X6800946Y-7537646D02*
X6800946Y-7466934D01*
X6730234Y-7466934D01*
X6730234Y-7537646D01*
X6800946Y-7537646D01*
X7753446Y-3219646D02*
X7753446Y-3148934D01*
X7682734Y-3148934D01*
X7682734Y-3219646D01*
X7753446Y-3219646D01*
X8007446Y-3219646D02*
X8007446Y-3148934D01*
X7936734Y-3148934D01*
X7936734Y-3219646D01*
X8007446Y-3219646D01*
X8324946Y-3219646D02*
X8324946Y-3148934D01*
X8254234Y-3148934D01*
X8254234Y-3219646D01*
X8324946Y-3219646D01*
X8578946Y-3219646D02*
X8578946Y-3148934D01*
X8508234Y-3148934D01*
X8508234Y-3219646D01*
X8578946Y-3219646D01*
X8959946Y-2965646D02*
X8959946Y-2894934D01*
X8889234Y-2894934D01*
X8889234Y-2965646D01*
X8959946Y-2965646D01*
X8959946Y-3219646D02*
X8959946Y-3148934D01*
X8889234Y-3148934D01*
X8889234Y-3219646D01*
X8959946Y-3219646D01*
X8959946Y-8045646D02*
X8959946Y-7974934D01*
X8889234Y-7974934D01*
X8889234Y-8045646D01*
X8959946Y-8045646D01*
X8959946Y-8299646D02*
X8959946Y-8228934D01*
X8889234Y-8228934D01*
X8889234Y-8299646D01*
X8959946Y-8299646D01*
X9213946Y-2965646D02*
X9213946Y-2894934D01*
X9143234Y-2894934D01*
X9143234Y-2965646D01*
X9213946Y-2965646D01*
X9213946Y-3219646D02*
X9213946Y-3148934D01*
X9143234Y-3148934D01*
X9143234Y-3219646D01*
X9213946Y-3219646D01*
X9213946Y-8045646D02*
X9213946Y-7974934D01*
X9143234Y-7974934D01*
X9143234Y-8045646D01*
X9213946Y-8045646D01*
X9213946Y-8299646D02*
X9213946Y-8228934D01*
X9143234Y-8228934D01*
X9143234Y-8299646D01*
X9213946Y-8299646D01*
X9467946Y-2965646D02*
X9467946Y-2894934D01*
X9397234Y-2894934D01*
X9397234Y-2965646D01*
X9467946Y-2965646D01*
X9467946Y-3219646D02*
X9467946Y-3148934D01*
X9397234Y-3148934D01*
X9397234Y-3219646D01*
X9467946Y-3219646D01*
X9467946Y-8045646D02*
X9467946Y-7974934D01*
X9397234Y-7974934D01*
X9397234Y-8045646D01*
X9467946Y-8045646D01*
X9467946Y-8299646D02*
X9467946Y-8228934D01*
X9397234Y-8228934D01*
X9397234Y-8299646D01*
X9467946Y-8299646D01*
X9721946Y-2965646D02*
X9721946Y-2894934D01*
X9651234Y-2894934D01*
X9651234Y-2965646D01*
X9721946Y-2965646D01*
X9721946Y-3219646D02*
X9721946Y-3148934D01*
X9651234Y-3148934D01*
X9651234Y-3219646D01*
X9721946Y-3219646D01*
X9721946Y-8045646D02*
X9721946Y-7974934D01*
X9651234Y-7974934D01*
X9651234Y-8045646D01*
X9721946Y-8045646D01*
X9721946Y-8299646D02*
X9721946Y-8228934D01*
X9651234Y-8228934D01*
X9651234Y-8299646D01*
X9721946Y-8299646D01*
X9975946Y-8045646D02*
X9975946Y-7974934D01*
X9905234Y-7974934D01*
X9905234Y-8045646D01*
X9975946Y-8045646D01*
X9975946Y-8299646D02*
X9975946Y-8228934D01*
X9905234Y-8228934D01*
X9905234Y-8299646D01*
X9975946Y-8299646D01*
X10229946Y-2965646D02*
X10229946Y-2894934D01*
X10159234Y-2894934D01*
X10159234Y-2965646D01*
X10229946Y-2965646D01*
X10229946Y-3219646D02*
X10229946Y-3148934D01*
X10159234Y-3148934D01*
X10159234Y-3219646D01*
X10229946Y-3219646D01*
X10229946Y-8045646D02*
X10229946Y-7974934D01*
X10159234Y-7974934D01*
X10159234Y-8045646D01*
X10229946Y-8045646D01*
X10229946Y-8299646D02*
X10229946Y-8228934D01*
X10159234Y-8228934D01*
X10159234Y-8299646D01*
X10229946Y-8299646D01*
X10483946Y-2965646D02*
X10483946Y-2894934D01*
X10413234Y-2894934D01*
X10413234Y-2965646D01*
X10483946Y-2965646D01*
X10483946Y-3219646D02*
X10483946Y-3148934D01*
X10413234Y-3148934D01*
X10413234Y-3219646D01*
X10483946Y-3219646D01*
X10483946Y-8045646D02*
X10483946Y-7974934D01*
X10413234Y-7974934D01*
X10413234Y-8045646D01*
X10483946Y-8045646D01*
X10483946Y-8299646D02*
X10483946Y-8228934D01*
X10413234Y-8228934D01*
X10413234Y-8299646D01*
X10483946Y-8299646D01*
X10737946Y-8045646D02*
X10737946Y-7974934D01*
X10667234Y-7974934D01*
X10667234Y-8045646D01*
X10737946Y-8045646D01*
X10737946Y-8299646D02*
X10737946Y-8228934D01*
X10667234Y-8228934D01*
X10667234Y-8299646D01*
X10737946Y-8299646D01*
X10991946Y-2965646D02*
X10991946Y-2894934D01*
X10921234Y-2894934D01*
X10921234Y-2965646D01*
X10991946Y-2965646D01*
X10991946Y-3219646D02*
X10991946Y-3148934D01*
X10921234Y-3148934D01*
X10921234Y-3219646D01*
X10991946Y-3219646D01*
X10991946Y-8045646D02*
X10991946Y-7974934D01*
X10921234Y-7974934D01*
X10921234Y-8045646D01*
X10991946Y-8045646D01*
X10991946Y-8299646D02*
X10991946Y-8228934D01*
X10921234Y-8228934D01*
X10921234Y-8299646D01*
X10991946Y-8299646D01*
X11245946Y-2965646D02*
X11245946Y-2894934D01*
X11175234Y-2894934D01*
X11175234Y-2965646D01*
X11245946Y-2965646D01*
X11245946Y-3219646D02*
X11245946Y-3148934D01*
X11175234Y-3148934D01*
X11175234Y-3219646D01*
X11245946Y-3219646D01*
X11245946Y-8045646D02*
X11245946Y-7974934D01*
X11175234Y-7974934D01*
X11175234Y-8045646D01*
X11245946Y-8045646D01*
X11245946Y-8299646D02*
X11245946Y-8228934D01*
X11175234Y-8228934D01*
X11175234Y-8299646D01*
X11245946Y-8299646D01*
X11499946Y-2965646D02*
X11499946Y-2894934D01*
X11429234Y-2894934D01*
X11429234Y-2965646D01*
X11499946Y-2965646D01*
X11499946Y-3219646D02*
X11499946Y-3148934D01*
X11429234Y-3148934D01*
X11429234Y-3219646D01*
X11499946Y-3219646D01*
X11499946Y-8045646D02*
X11499946Y-7974934D01*
X11429234Y-7974934D01*
X11429234Y-8045646D01*
X11499946Y-8045646D01*
X11499946Y-8299646D02*
X11499946Y-8228934D01*
X11429234Y-8228934D01*
X11429234Y-8299646D01*
X11499946Y-8299646D01*
X11753946Y-2965646D02*
X11753946Y-2894934D01*
X11683234Y-2894934D01*
X11683234Y-2965646D01*
X11753946Y-2965646D01*
X11753946Y-3219646D02*
X11753946Y-3148934D01*
X11683234Y-3148934D01*
X11683234Y-3219646D01*
X11753946Y-3219646D01*
X11753946Y-8045646D02*
X11753946Y-7974934D01*
X11683234Y-7974934D01*
X11683234Y-8045646D01*
X11753946Y-8045646D01*
X11753946Y-8299646D02*
X11753946Y-8228934D01*
X11683234Y-8228934D01*
X11683234Y-8299646D01*
X11753946Y-8299646D01*
X12007946Y-2965646D02*
X12007946Y-2894934D01*
X11937234Y-2894934D01*
X11937234Y-2965646D01*
X12007946Y-2965646D01*
X12007946Y-3219646D02*
X12007946Y-3148934D01*
X11937234Y-3148934D01*
X11937234Y-3219646D01*
X12007946Y-3219646D01*
X12007946Y-8045646D02*
X12007946Y-7974934D01*
X11937234Y-7974934D01*
X11937234Y-8045646D01*
X12007946Y-8045646D01*
X12007946Y-8299646D02*
X12007946Y-8228934D01*
X11937234Y-8228934D01*
X11937234Y-8299646D01*
X12007946Y-8299646D01*
X12261946Y-2965646D02*
X12261946Y-2894934D01*
X12191234Y-2894934D01*
X12191234Y-2965646D01*
X12261946Y-2965646D01*
X12261946Y-3219646D02*
X12261946Y-3148934D01*
X12191234Y-3148934D01*
X12191234Y-3219646D01*
X12261946Y-3219646D01*
X12261946Y-8045646D02*
X12261946Y-7974934D01*
X12191234Y-7974934D01*
X12191234Y-8045646D01*
X12261946Y-8045646D01*
X12261946Y-8299646D02*
X12261946Y-8228934D01*
X12191234Y-8228934D01*
X12191234Y-8299646D01*
X12261946Y-8299646D01*
X12515946Y-2965646D02*
X12515946Y-2894934D01*
X12445234Y-2894934D01*
X12445234Y-2965646D01*
X12515946Y-2965646D01*
X12515946Y-3219646D02*
X12515946Y-3148934D01*
X12445234Y-3148934D01*
X12445234Y-3219646D01*
X12515946Y-3219646D01*
X12515946Y-8045646D02*
X12515946Y-7974934D01*
X12445234Y-7974934D01*
X12445234Y-8045646D01*
X12515946Y-8045646D01*
X12515946Y-8299646D02*
X12515946Y-8228934D01*
X12445234Y-8228934D01*
X12445234Y-8299646D01*
X12515946Y-8299646D01*
X12769946Y-2965646D02*
X12769946Y-2894934D01*
X12699234Y-2894934D01*
X12699234Y-2965646D01*
X12769946Y-2965646D01*
X12769946Y-3219646D02*
X12769946Y-3148934D01*
X12699234Y-3148934D01*
X12699234Y-3219646D01*
X12769946Y-3219646D01*
X12769946Y-8045646D02*
X12769946Y-7974934D01*
X12699234Y-7974934D01*
X12699234Y-8045646D01*
X12769946Y-8045646D01*
X12769946Y-8299646D02*
X12769946Y-8228934D01*
X12699234Y-8228934D01*
X12699234Y-8299646D01*
X12769946Y-8299646D01*
X13277946Y-2965646D02*
X13277946Y-2894934D01*
X13207234Y-2894934D01*
X13207234Y-2965646D01*
X13277946Y-2965646D01*
X13277946Y-3219646D02*
X13277946Y-3148934D01*
X13207234Y-3148934D01*
X13207234Y-3219646D01*
X13277946Y-3219646D01*
X13277946Y-3473646D02*
X13277946Y-3402934D01*
X13207234Y-3402934D01*
X13207234Y-3473646D01*
X13277946Y-3473646D01*
X13277946Y-3727646D02*
X13277946Y-3656934D01*
X13207234Y-3656934D01*
X13207234Y-3727646D01*
X13277946Y-3727646D01*
X13277946Y-3981646D02*
X13277946Y-3910934D01*
X13207234Y-3910934D01*
X13207234Y-3981646D01*
X13277946Y-3981646D01*
X13277946Y-4235646D02*
X13277946Y-4164934D01*
X13207234Y-4164934D01*
X13207234Y-4235646D01*
X13277946Y-4235646D01*
X13277946Y-4489646D02*
X13277946Y-4418934D01*
X13207234Y-4418934D01*
X13207234Y-4489646D01*
X13277946Y-4489646D01*
X13277946Y-4743646D02*
X13277946Y-4672934D01*
X13207234Y-4672934D01*
X13207234Y-4743646D01*
X13277946Y-4743646D01*
X13277946Y-4997646D02*
X13277946Y-4926934D01*
X13207234Y-4926934D01*
X13207234Y-4997646D01*
X13277946Y-4997646D01*
X13277946Y-5251646D02*
X13277946Y-5180934D01*
X13207234Y-5180934D01*
X13207234Y-5251646D01*
X13277946Y-5251646D01*
X13277946Y-6013646D02*
X13277946Y-5942934D01*
X13207234Y-5942934D01*
X13207234Y-6013646D01*
X13277946Y-6013646D01*
X13277946Y-6267646D02*
X13277946Y-6196934D01*
X13207234Y-6196934D01*
X13207234Y-6267646D01*
X13277946Y-6267646D01*
X13277946Y-6521646D02*
X13277946Y-6450934D01*
X13207234Y-6450934D01*
X13207234Y-6521646D01*
X13277946Y-6521646D01*
X13277946Y-6775646D02*
X13277946Y-6704934D01*
X13207234Y-6704934D01*
X13207234Y-6775646D01*
X13277946Y-6775646D01*
X13277946Y-7029646D02*
X13277946Y-6958934D01*
X13207234Y-6958934D01*
X13207234Y-7029646D01*
X13277946Y-7029646D01*
X13277946Y-7283646D02*
X13277946Y-7212934D01*
X13207234Y-7212934D01*
X13207234Y-7283646D01*
X13277946Y-7283646D01*
X13277946Y-7537646D02*
X13277946Y-7466934D01*
X13207234Y-7466934D01*
X13207234Y-7537646D01*
X13277946Y-7537646D01*
X13277946Y-7791646D02*
X13277946Y-7720934D01*
X13207234Y-7720934D01*
X13207234Y-7791646D01*
X13277946Y-7791646D01*
X13277946Y-8045646D02*
X13277946Y-7974934D01*
X13207234Y-7974934D01*
X13207234Y-8045646D01*
X13277946Y-8045646D01*
X13277946Y-8299646D02*
X13277946Y-8228934D01*
X13207234Y-8228934D01*
X13207234Y-8299646D01*
X13277946Y-8299646D01*
X13531946Y-2965646D02*
X13531946Y-2894934D01*
X13461234Y-2894934D01*
X13461234Y-2965646D01*
X13531946Y-2965646D01*
X13531946Y-3219646D02*
X13531946Y-3148934D01*
X13461234Y-3148934D01*
X13461234Y-3219646D01*
X13531946Y-3219646D01*
X13531946Y-3473646D02*
X13531946Y-3402934D01*
X13461234Y-3402934D01*
X13461234Y-3473646D01*
X13531946Y-3473646D01*
X13531946Y-3727646D02*
X13531946Y-3656934D01*
X13461234Y-3656934D01*
X13461234Y-3727646D01*
X13531946Y-3727646D01*
X13531946Y-3981646D02*
X13531946Y-3910934D01*
X13461234Y-3910934D01*
X13461234Y-3981646D01*
X13531946Y-3981646D01*
X13531946Y-4235646D02*
X13531946Y-4164934D01*
X13461234Y-4164934D01*
X13461234Y-4235646D01*
X13531946Y-4235646D01*
X13531946Y-4489646D02*
X13531946Y-4418934D01*
X13461234Y-4418934D01*
X13461234Y-4489646D01*
X13531946Y-4489646D01*
X13531946Y-4743646D02*
X13531946Y-4672934D01*
X13461234Y-4672934D01*
X13461234Y-4743646D01*
X13531946Y-4743646D01*
X13531946Y-4997646D02*
X13531946Y-4926934D01*
X13461234Y-4926934D01*
X13461234Y-4997646D01*
X13531946Y-4997646D01*
X13531946Y-5251646D02*
X13531946Y-5180934D01*
X13461234Y-5180934D01*
X13461234Y-5251646D01*
X13531946Y-5251646D01*
X13531946Y-6013646D02*
X13531946Y-5942934D01*
X13461234Y-5942934D01*
X13461234Y-6013646D01*
X13531946Y-6013646D01*
X13531946Y-6267646D02*
X13531946Y-6196934D01*
X13461234Y-6196934D01*
X13461234Y-6267646D01*
X13531946Y-6267646D01*
X13531946Y-6521646D02*
X13531946Y-6450934D01*
X13461234Y-6450934D01*
X13461234Y-6521646D01*
X13531946Y-6521646D01*
X13531946Y-6775646D02*
X13531946Y-6704934D01*
X13461234Y-6704934D01*
X13461234Y-6775646D01*
X13531946Y-6775646D01*
X13531946Y-7029646D02*
X13531946Y-6958934D01*
X13461234Y-6958934D01*
X13461234Y-7029646D01*
X13531946Y-7029646D01*
X13531946Y-7283646D02*
X13531946Y-7212934D01*
X13461234Y-7212934D01*
X13461234Y-7283646D01*
X13531946Y-7283646D01*
X13531946Y-7537646D02*
X13531946Y-7466934D01*
X13461234Y-7466934D01*
X13461234Y-7537646D01*
X13531946Y-7537646D01*
X13531946Y-7791646D02*
X13531946Y-7720934D01*
X13461234Y-7720934D01*
X13461234Y-7791646D01*
X13531946Y-7791646D01*
X13531946Y-8045646D02*
X13531946Y-7974934D01*
X13461234Y-7974934D01*
X13461234Y-8045646D01*
X13531946Y-8045646D01*
X13531946Y-8299646D02*
X13531946Y-8228934D01*
X13461234Y-8228934D01*
X13461234Y-8299646D01*
X13531946Y-8299646D01*
D13*
X7337090Y-3239290D02*
X7392090Y-3184290D01*
X7337090Y-3129290D01*
X7282090Y-3184290D01*
X7337090Y-3239290D01*
X7337090Y-4001290D02*
X7392090Y-3946290D01*
X7337090Y-3891290D01*
X7282090Y-3946290D01*
X7337090Y-4001290D01*
D14*
X7716590Y-7945290D02*
X7846590Y-8075290D01*
X7846590Y-7945290D02*
X7716590Y-8075290D01*
X7846590Y-8010290D02*
G75*
G02*
X7716590Y-8010290I-65000J0D01*
G01*
X7716590Y-8010290D02*
G75*
G02*
X7846590Y-8010290I65000J0D01*
G01*
X8417590Y-7945290D02*
X8547590Y-8075290D01*
X8547590Y-7945290D02*
X8417590Y-8075290D01*
X8547590Y-8010290D02*
G75*
G02*
X8417590Y-8010290I-65000J0D01*
G01*
X8417590Y-8010290D02*
G75*
G02*
X8547590Y-8010290I65000J0D01*
G01*
D15*
X5907090Y-3207290D02*
X6227090Y-3527290D01*
X6227090Y-3207290D02*
X5907090Y-3527290D01*
X6067090Y-3207290D02*
X6067090Y-3527290D01*
X5907090Y-3367290D02*
X6227090Y-3367290D01*
X5907090Y-7707290D02*
X6227090Y-8027290D01*
X6227090Y-7707290D02*
X5907090Y-8027290D01*
X6067090Y-7707290D02*
X6067090Y-8027290D01*
X5907090Y-7867290D02*
X6227090Y-7867290D01*
X10907090Y-6707290D02*
X11227090Y-7027290D01*
X11227090Y-6707290D02*
X10907090Y-7027290D01*
X11067090Y-6707290D02*
X11067090Y-7027290D01*
X10907090Y-6867290D02*
X11227090Y-6867290D01*
D11*
X5055277Y-8765984D02*
X5055277Y-8565984D01*
X5055277Y-8565984D02*
X5102896Y-8565984D01*
X5102896Y-8565984D02*
X5131467Y-8575508D01*
X5131467Y-8575508D02*
X5150515Y-8594555D01*
X5150515Y-8594555D02*
X5160039Y-8613603D01*
X5160039Y-8613603D02*
X5169563Y-8651698D01*
X5169563Y-8651698D02*
X5169563Y-8680270D01*
X5169563Y-8680270D02*
X5160039Y-8718365D01*
X5160039Y-8718365D02*
X5150515Y-8737412D01*
X5150515Y-8737412D02*
X5131467Y-8756460D01*
X5131467Y-8756460D02*
X5102896Y-8765984D01*
X5102896Y-8765984D02*
X5055277Y-8765984D01*
X5255277Y-8765984D02*
X5255277Y-8632650D01*
X5255277Y-8670746D02*
X5264801Y-8651698D01*
X5264801Y-8651698D02*
X5274324Y-8642174D01*
X5274324Y-8642174D02*
X5293372Y-8632650D01*
X5293372Y-8632650D02*
X5312420Y-8632650D01*
X5379086Y-8765984D02*
X5379086Y-8632650D01*
X5379086Y-8565984D02*
X5369563Y-8575508D01*
X5369563Y-8575508D02*
X5379086Y-8585031D01*
X5379086Y-8585031D02*
X5388610Y-8575508D01*
X5388610Y-8575508D02*
X5379086Y-8565984D01*
X5379086Y-8565984D02*
X5379086Y-8585031D01*
X5502896Y-8765984D02*
X5483848Y-8756460D01*
X5483848Y-8756460D02*
X5474324Y-8737412D01*
X5474324Y-8737412D02*
X5474324Y-8565984D01*
X5607658Y-8765984D02*
X5588610Y-8756460D01*
X5588610Y-8756460D02*
X5579086Y-8737412D01*
X5579086Y-8737412D02*
X5579086Y-8565984D01*
X5836229Y-8765984D02*
X5836229Y-8565984D01*
X5836229Y-8565984D02*
X5902896Y-8708841D01*
X5902896Y-8708841D02*
X5969562Y-8565984D01*
X5969562Y-8565984D02*
X5969562Y-8765984D01*
X6150515Y-8765984D02*
X6150515Y-8661222D01*
X6150515Y-8661222D02*
X6140991Y-8642174D01*
X6140991Y-8642174D02*
X6121943Y-8632650D01*
X6121943Y-8632650D02*
X6083848Y-8632650D01*
X6083848Y-8632650D02*
X6064801Y-8642174D01*
X6150515Y-8756460D02*
X6131467Y-8765984D01*
X6131467Y-8765984D02*
X6083848Y-8765984D01*
X6083848Y-8765984D02*
X6064801Y-8756460D01*
X6064801Y-8756460D02*
X6055277Y-8737412D01*
X6055277Y-8737412D02*
X6055277Y-8718365D01*
X6055277Y-8718365D02*
X6064801Y-8699317D01*
X6064801Y-8699317D02*
X6083848Y-8689793D01*
X6083848Y-8689793D02*
X6131467Y-8689793D01*
X6131467Y-8689793D02*
X6150515Y-8680270D01*
X6245753Y-8632650D02*
X6245753Y-8832650D01*
X6245753Y-8642174D02*
X6264801Y-8632650D01*
X6264801Y-8632650D02*
X6302896Y-8632650D01*
X6302896Y-8632650D02*
X6321943Y-8642174D01*
X6321943Y-8642174D02*
X6331467Y-8651698D01*
X6331467Y-8651698D02*
X6340991Y-8670746D01*
X6340991Y-8670746D02*
X6340991Y-8727889D01*
X6340991Y-8727889D02*
X6331467Y-8746936D01*
X6331467Y-8746936D02*
X6321943Y-8756460D01*
X6321943Y-8756460D02*
X6302896Y-8765984D01*
X6302896Y-8765984D02*
X6264801Y-8765984D01*
X6264801Y-8765984D02*
X6245753Y-8756460D01*
X6426705Y-8746936D02*
X6436229Y-8756460D01*
X6436229Y-8756460D02*
X6426705Y-8765984D01*
X6426705Y-8765984D02*
X6417182Y-8756460D01*
X6417182Y-8756460D02*
X6426705Y-8746936D01*
X6426705Y-8746936D02*
X6426705Y-8765984D01*
X6426705Y-8642174D02*
X6436229Y-8651698D01*
X6436229Y-8651698D02*
X6426705Y-8661222D01*
X6426705Y-8661222D02*
X6417182Y-8651698D01*
X6417182Y-8651698D02*
X6426705Y-8642174D01*
X6426705Y-8642174D02*
X6426705Y-8661222D01*
D12*
X4764500Y-9079500D02*
X4794500Y-9109500D01*
X4794500Y-9079500D02*
X4764500Y-9109500D01*
D11*
X5093372Y-8985984D02*
X5112420Y-8985984D01*
X5112420Y-8985984D02*
X5131467Y-8995508D01*
X5131467Y-8995508D02*
X5140991Y-9005031D01*
X5140991Y-9005031D02*
X5150515Y-9024079D01*
X5150515Y-9024079D02*
X5160039Y-9062174D01*
X5160039Y-9062174D02*
X5160039Y-9109793D01*
X5160039Y-9109793D02*
X5150515Y-9147889D01*
X5150515Y-9147889D02*
X5140991Y-9166936D01*
X5140991Y-9166936D02*
X5131467Y-9176460D01*
X5131467Y-9176460D02*
X5112420Y-9185984D01*
X5112420Y-9185984D02*
X5093372Y-9185984D01*
X5093372Y-9185984D02*
X5074324Y-9176460D01*
X5074324Y-9176460D02*
X5064801Y-9166936D01*
X5064801Y-9166936D02*
X5055277Y-9147889D01*
X5055277Y-9147889D02*
X5045753Y-9109793D01*
X5045753Y-9109793D02*
X5045753Y-9062174D01*
X5045753Y-9062174D02*
X5055277Y-9024079D01*
X5055277Y-9024079D02*
X5064801Y-9005031D01*
X5064801Y-9005031D02*
X5074324Y-8995508D01*
X5074324Y-8995508D02*
X5093372Y-8985984D01*
X5245753Y-9166936D02*
X5255277Y-9176460D01*
X5255277Y-9176460D02*
X5245753Y-9185984D01*
X5245753Y-9185984D02*
X5236229Y-9176460D01*
X5236229Y-9176460D02*
X5245753Y-9166936D01*
X5245753Y-9166936D02*
X5245753Y-9185984D01*
X5321944Y-8985984D02*
X5445753Y-8985984D01*
X5445753Y-8985984D02*
X5379086Y-9062174D01*
X5379086Y-9062174D02*
X5407658Y-9062174D01*
X5407658Y-9062174D02*
X5426705Y-9071698D01*
X5426705Y-9071698D02*
X5436229Y-9081222D01*
X5436229Y-9081222D02*
X5445753Y-9100270D01*
X5445753Y-9100270D02*
X5445753Y-9147889D01*
X5445753Y-9147889D02*
X5436229Y-9166936D01*
X5436229Y-9166936D02*
X5426705Y-9176460D01*
X5426705Y-9176460D02*
X5407658Y-9185984D01*
X5407658Y-9185984D02*
X5350515Y-9185984D01*
X5350515Y-9185984D02*
X5331467Y-9176460D01*
X5331467Y-9176460D02*
X5321944Y-9166936D01*
X5569563Y-8985984D02*
X5588610Y-8985984D01*
X5588610Y-8985984D02*
X5607658Y-8995508D01*
X5607658Y-8995508D02*
X5617182Y-9005031D01*
X5617182Y-9005031D02*
X5626705Y-9024079D01*
X5626705Y-9024079D02*
X5636229Y-9062174D01*
X5636229Y-9062174D02*
X5636229Y-9109793D01*
X5636229Y-9109793D02*
X5626705Y-9147889D01*
X5626705Y-9147889D02*
X5617182Y-9166936D01*
X5617182Y-9166936D02*
X5607658Y-9176460D01*
X5607658Y-9176460D02*
X5588610Y-9185984D01*
X5588610Y-9185984D02*
X5569563Y-9185984D01*
X5569563Y-9185984D02*
X5550515Y-9176460D01*
X5550515Y-9176460D02*
X5540991Y-9166936D01*
X5540991Y-9166936D02*
X5531467Y-9147889D01*
X5531467Y-9147889D02*
X5521944Y-9109793D01*
X5521944Y-9109793D02*
X5521944Y-9062174D01*
X5521944Y-9062174D02*
X5531467Y-9024079D01*
X5531467Y-9024079D02*
X5540991Y-9005031D01*
X5540991Y-9005031D02*
X5550515Y-8995508D01*
X5550515Y-8995508D02*
X5569563Y-8985984D01*
X5760039Y-8985984D02*
X5779086Y-8985984D01*
X5779086Y-8985984D02*
X5798134Y-8995508D01*
X5798134Y-8995508D02*
X5807658Y-9005031D01*
X5807658Y-9005031D02*
X5817182Y-9024079D01*
X5817182Y-9024079D02*
X5826705Y-9062174D01*
X5826705Y-9062174D02*
X5826705Y-9109793D01*
X5826705Y-9109793D02*
X5817182Y-9147889D01*
X5817182Y-9147889D02*
X5807658Y-9166936D01*
X5807658Y-9166936D02*
X5798134Y-9176460D01*
X5798134Y-9176460D02*
X5779086Y-9185984D01*
X5779086Y-9185984D02*
X5760039Y-9185984D01*
X5760039Y-9185984D02*
X5740991Y-9176460D01*
X5740991Y-9176460D02*
X5731467Y-9166936D01*
X5731467Y-9166936D02*
X5721943Y-9147889D01*
X5721943Y-9147889D02*
X5712420Y-9109793D01*
X5712420Y-9109793D02*
X5712420Y-9062174D01*
X5712420Y-9062174D02*
X5721943Y-9024079D01*
X5721943Y-9024079D02*
X5731467Y-9005031D01*
X5731467Y-9005031D02*
X5740991Y-8995508D01*
X5740991Y-8995508D02*
X5760039Y-8985984D01*
X5912420Y-9185984D02*
X5912420Y-9052650D01*
X5912420Y-9071698D02*
X5921943Y-9062174D01*
X5921943Y-9062174D02*
X5940991Y-9052650D01*
X5940991Y-9052650D02*
X5969563Y-9052650D01*
X5969563Y-9052650D02*
X5988610Y-9062174D01*
X5988610Y-9062174D02*
X5998134Y-9081222D01*
X5998134Y-9081222D02*
X5998134Y-9185984D01*
X5998134Y-9081222D02*
X6007658Y-9062174D01*
X6007658Y-9062174D02*
X6026705Y-9052650D01*
X6026705Y-9052650D02*
X6055277Y-9052650D01*
X6055277Y-9052650D02*
X6074324Y-9062174D01*
X6074324Y-9062174D02*
X6083848Y-9081222D01*
X6083848Y-9081222D02*
X6083848Y-9185984D01*
X6179086Y-9185984D02*
X6179086Y-9052650D01*
X6179086Y-9071698D02*
X6188610Y-9062174D01*
X6188610Y-9062174D02*
X6207658Y-9052650D01*
X6207658Y-9052650D02*
X6236229Y-9052650D01*
X6236229Y-9052650D02*
X6255277Y-9062174D01*
X6255277Y-9062174D02*
X6264801Y-9081222D01*
X6264801Y-9081222D02*
X6264801Y-9185984D01*
X6264801Y-9081222D02*
X6274324Y-9062174D01*
X6274324Y-9062174D02*
X6293372Y-9052650D01*
X6293372Y-9052650D02*
X6321943Y-9052650D01*
X6321943Y-9052650D02*
X6340991Y-9062174D01*
X6340991Y-9062174D02*
X6350515Y-9081222D01*
X6350515Y-9081222D02*
X6350515Y-9185984D01*
X6740991Y-8976460D02*
X6569563Y-9233603D01*
X6998134Y-8985984D02*
X7017182Y-8985984D01*
X7017182Y-8985984D02*
X7036229Y-8995508D01*
X7036229Y-8995508D02*
X7045753Y-9005031D01*
X7045753Y-9005031D02*
X7055277Y-9024079D01*
X7055277Y-9024079D02*
X7064801Y-9062174D01*
X7064801Y-9062174D02*
X7064801Y-9109793D01*
X7064801Y-9109793D02*
X7055277Y-9147889D01*
X7055277Y-9147889D02*
X7045753Y-9166936D01*
X7045753Y-9166936D02*
X7036229Y-9176460D01*
X7036229Y-9176460D02*
X7017182Y-9185984D01*
X7017182Y-9185984D02*
X6998134Y-9185984D01*
X6998134Y-9185984D02*
X6979086Y-9176460D01*
X6979086Y-9176460D02*
X6969563Y-9166936D01*
X6969563Y-9166936D02*
X6960039Y-9147889D01*
X6960039Y-9147889D02*
X6950515Y-9109793D01*
X6950515Y-9109793D02*
X6950515Y-9062174D01*
X6950515Y-9062174D02*
X6960039Y-9024079D01*
X6960039Y-9024079D02*
X6969563Y-9005031D01*
X6969563Y-9005031D02*
X6979086Y-8995508D01*
X6979086Y-8995508D02*
X6998134Y-8985984D01*
X7150515Y-9166936D02*
X7160039Y-9176460D01*
X7160039Y-9176460D02*
X7150515Y-9185984D01*
X7150515Y-9185984D02*
X7140991Y-9176460D01*
X7140991Y-9176460D02*
X7150515Y-9166936D01*
X7150515Y-9166936D02*
X7150515Y-9185984D01*
X7283848Y-8985984D02*
X7302896Y-8985984D01*
X7302896Y-8985984D02*
X7321944Y-8995508D01*
X7321944Y-8995508D02*
X7331467Y-9005031D01*
X7331467Y-9005031D02*
X7340991Y-9024079D01*
X7340991Y-9024079D02*
X7350515Y-9062174D01*
X7350515Y-9062174D02*
X7350515Y-9109793D01*
X7350515Y-9109793D02*
X7340991Y-9147889D01*
X7340991Y-9147889D02*
X7331467Y-9166936D01*
X7331467Y-9166936D02*
X7321944Y-9176460D01*
X7321944Y-9176460D02*
X7302896Y-9185984D01*
X7302896Y-9185984D02*
X7283848Y-9185984D01*
X7283848Y-9185984D02*
X7264801Y-9176460D01*
X7264801Y-9176460D02*
X7255277Y-9166936D01*
X7255277Y-9166936D02*
X7245753Y-9147889D01*
X7245753Y-9147889D02*
X7236229Y-9109793D01*
X7236229Y-9109793D02*
X7236229Y-9062174D01*
X7236229Y-9062174D02*
X7245753Y-9024079D01*
X7245753Y-9024079D02*
X7255277Y-9005031D01*
X7255277Y-9005031D02*
X7264801Y-8995508D01*
X7264801Y-8995508D02*
X7283848Y-8985984D01*
X7540991Y-9185984D02*
X7426706Y-9185984D01*
X7483848Y-9185984D02*
X7483848Y-8985984D01*
X7483848Y-8985984D02*
X7464801Y-9014555D01*
X7464801Y-9014555D02*
X7445753Y-9033603D01*
X7445753Y-9033603D02*
X7426706Y-9043127D01*
X7731467Y-9185984D02*
X7617182Y-9185984D01*
X7674325Y-9185984D02*
X7674325Y-8985984D01*
X7674325Y-8985984D02*
X7655277Y-9014555D01*
X7655277Y-9014555D02*
X7636229Y-9033603D01*
X7636229Y-9033603D02*
X7617182Y-9043127D01*
X7845753Y-9071698D02*
X7826706Y-9062174D01*
X7826706Y-9062174D02*
X7817182Y-9052650D01*
X7817182Y-9052650D02*
X7807658Y-9033603D01*
X7807658Y-9033603D02*
X7807658Y-9024079D01*
X7807658Y-9024079D02*
X7817182Y-9005031D01*
X7817182Y-9005031D02*
X7826706Y-8995508D01*
X7826706Y-8995508D02*
X7845753Y-8985984D01*
X7845753Y-8985984D02*
X7883848Y-8985984D01*
X7883848Y-8985984D02*
X7902896Y-8995508D01*
X7902896Y-8995508D02*
X7912420Y-9005031D01*
X7912420Y-9005031D02*
X7921944Y-9024079D01*
X7921944Y-9024079D02*
X7921944Y-9033603D01*
X7921944Y-9033603D02*
X7912420Y-9052650D01*
X7912420Y-9052650D02*
X7902896Y-9062174D01*
X7902896Y-9062174D02*
X7883848Y-9071698D01*
X7883848Y-9071698D02*
X7845753Y-9071698D01*
X7845753Y-9071698D02*
X7826706Y-9081222D01*
X7826706Y-9081222D02*
X7817182Y-9090746D01*
X7817182Y-9090746D02*
X7807658Y-9109793D01*
X7807658Y-9109793D02*
X7807658Y-9147889D01*
X7807658Y-9147889D02*
X7817182Y-9166936D01*
X7817182Y-9166936D02*
X7826706Y-9176460D01*
X7826706Y-9176460D02*
X7845753Y-9185984D01*
X7845753Y-9185984D02*
X7883848Y-9185984D01*
X7883848Y-9185984D02*
X7902896Y-9176460D01*
X7902896Y-9176460D02*
X7912420Y-9166936D01*
X7912420Y-9166936D02*
X7921944Y-9147889D01*
X7921944Y-9147889D02*
X7921944Y-9109793D01*
X7921944Y-9109793D02*
X7912420Y-9090746D01*
X7912420Y-9090746D02*
X7902896Y-9081222D01*
X7902896Y-9081222D02*
X7883848Y-9071698D01*
X7998134Y-8985984D02*
X7998134Y-9024079D01*
X8074325Y-8985984D02*
X8074325Y-9024079D01*
X8369563Y-9262174D02*
X8360039Y-9252650D01*
X8360039Y-9252650D02*
X8340991Y-9224079D01*
X8340991Y-9224079D02*
X8331468Y-9205031D01*
X8331468Y-9205031D02*
X8321944Y-9176460D01*
X8321944Y-9176460D02*
X8312420Y-9128841D01*
X8312420Y-9128841D02*
X8312420Y-9090746D01*
X8312420Y-9090746D02*
X8321944Y-9043127D01*
X8321944Y-9043127D02*
X8331468Y-9014555D01*
X8331468Y-9014555D02*
X8340991Y-8995508D01*
X8340991Y-8995508D02*
X8360039Y-8966936D01*
X8360039Y-8966936D02*
X8369563Y-8957412D01*
X8474325Y-9071698D02*
X8455277Y-9062174D01*
X8455277Y-9062174D02*
X8445753Y-9052650D01*
X8445753Y-9052650D02*
X8436230Y-9033603D01*
X8436230Y-9033603D02*
X8436230Y-9024079D01*
X8436230Y-9024079D02*
X8445753Y-9005031D01*
X8445753Y-9005031D02*
X8455277Y-8995508D01*
X8455277Y-8995508D02*
X8474325Y-8985984D01*
X8474325Y-8985984D02*
X8512420Y-8985984D01*
X8512420Y-8985984D02*
X8531468Y-8995508D01*
X8531468Y-8995508D02*
X8540991Y-9005031D01*
X8540991Y-9005031D02*
X8550515Y-9024079D01*
X8550515Y-9024079D02*
X8550515Y-9033603D01*
X8550515Y-9033603D02*
X8540991Y-9052650D01*
X8540991Y-9052650D02*
X8531468Y-9062174D01*
X8531468Y-9062174D02*
X8512420Y-9071698D01*
X8512420Y-9071698D02*
X8474325Y-9071698D01*
X8474325Y-9071698D02*
X8455277Y-9081222D01*
X8455277Y-9081222D02*
X8445753Y-9090746D01*
X8445753Y-9090746D02*
X8436230Y-9109793D01*
X8436230Y-9109793D02*
X8436230Y-9147889D01*
X8436230Y-9147889D02*
X8445753Y-9166936D01*
X8445753Y-9166936D02*
X8455277Y-9176460D01*
X8455277Y-9176460D02*
X8474325Y-9185984D01*
X8474325Y-9185984D02*
X8512420Y-9185984D01*
X8512420Y-9185984D02*
X8531468Y-9176460D01*
X8531468Y-9176460D02*
X8540991Y-9166936D01*
X8540991Y-9166936D02*
X8550515Y-9147889D01*
X8550515Y-9147889D02*
X8550515Y-9109793D01*
X8550515Y-9109793D02*
X8540991Y-9090746D01*
X8540991Y-9090746D02*
X8531468Y-9081222D01*
X8531468Y-9081222D02*
X8512420Y-9071698D01*
X8721944Y-9052650D02*
X8721944Y-9185984D01*
X8674325Y-8976460D02*
X8626706Y-9119317D01*
X8626706Y-9119317D02*
X8750515Y-9119317D01*
X8979087Y-9185984D02*
X8979087Y-8985984D01*
X9064801Y-9185984D02*
X9064801Y-9081222D01*
X9064801Y-9081222D02*
X9055277Y-9062174D01*
X9055277Y-9062174D02*
X9036230Y-9052650D01*
X9036230Y-9052650D02*
X9007658Y-9052650D01*
X9007658Y-9052650D02*
X8988611Y-9062174D01*
X8988611Y-9062174D02*
X8979087Y-9071698D01*
X9188611Y-9185984D02*
X9169563Y-9176460D01*
X9169563Y-9176460D02*
X9160039Y-9166936D01*
X9160039Y-9166936D02*
X9150515Y-9147889D01*
X9150515Y-9147889D02*
X9150515Y-9090746D01*
X9150515Y-9090746D02*
X9160039Y-9071698D01*
X9160039Y-9071698D02*
X9169563Y-9062174D01*
X9169563Y-9062174D02*
X9188611Y-9052650D01*
X9188611Y-9052650D02*
X9217182Y-9052650D01*
X9217182Y-9052650D02*
X9236230Y-9062174D01*
X9236230Y-9062174D02*
X9245753Y-9071698D01*
X9245753Y-9071698D02*
X9255277Y-9090746D01*
X9255277Y-9090746D02*
X9255277Y-9147889D01*
X9255277Y-9147889D02*
X9245753Y-9166936D01*
X9245753Y-9166936D02*
X9236230Y-9176460D01*
X9236230Y-9176460D02*
X9217182Y-9185984D01*
X9217182Y-9185984D02*
X9188611Y-9185984D01*
X9369563Y-9185984D02*
X9350515Y-9176460D01*
X9350515Y-9176460D02*
X9340992Y-9157412D01*
X9340992Y-9157412D02*
X9340992Y-8985984D01*
X9521944Y-9176460D02*
X9502896Y-9185984D01*
X9502896Y-9185984D02*
X9464801Y-9185984D01*
X9464801Y-9185984D02*
X9445753Y-9176460D01*
X9445753Y-9176460D02*
X9436230Y-9157412D01*
X9436230Y-9157412D02*
X9436230Y-9081222D01*
X9436230Y-9081222D02*
X9445753Y-9062174D01*
X9445753Y-9062174D02*
X9464801Y-9052650D01*
X9464801Y-9052650D02*
X9502896Y-9052650D01*
X9502896Y-9052650D02*
X9521944Y-9062174D01*
X9521944Y-9062174D02*
X9531468Y-9081222D01*
X9531468Y-9081222D02*
X9531468Y-9100270D01*
X9531468Y-9100270D02*
X9436230Y-9119317D01*
X9607658Y-9176460D02*
X9626706Y-9185984D01*
X9626706Y-9185984D02*
X9664801Y-9185984D01*
X9664801Y-9185984D02*
X9683849Y-9176460D01*
X9683849Y-9176460D02*
X9693373Y-9157412D01*
X9693373Y-9157412D02*
X9693373Y-9147889D01*
X9693373Y-9147889D02*
X9683849Y-9128841D01*
X9683849Y-9128841D02*
X9664801Y-9119317D01*
X9664801Y-9119317D02*
X9636230Y-9119317D01*
X9636230Y-9119317D02*
X9617182Y-9109793D01*
X9617182Y-9109793D02*
X9607658Y-9090746D01*
X9607658Y-9090746D02*
X9607658Y-9081222D01*
X9607658Y-9081222D02*
X9617182Y-9062174D01*
X9617182Y-9062174D02*
X9636230Y-9052650D01*
X9636230Y-9052650D02*
X9664801Y-9052650D01*
X9664801Y-9052650D02*
X9683849Y-9062174D01*
X9760039Y-9262174D02*
X9769563Y-9252650D01*
X9769563Y-9252650D02*
X9788611Y-9224079D01*
X9788611Y-9224079D02*
X9798134Y-9205031D01*
X9798134Y-9205031D02*
X9807658Y-9176460D01*
X9807658Y-9176460D02*
X9817182Y-9128841D01*
X9817182Y-9128841D02*
X9817182Y-9090746D01*
X9817182Y-9090746D02*
X9807658Y-9043127D01*
X9807658Y-9043127D02*
X9798134Y-9014555D01*
X9798134Y-9014555D02*
X9788611Y-8995508D01*
X9788611Y-8995508D02*
X9769563Y-8966936D01*
X9769563Y-8966936D02*
X9760039Y-8957412D01*
D12*
X4794500Y-9358500D02*
G75*
G02*
X4714500Y-9358500I-40000J0D01*
G01*
X4714500Y-9358500D02*
G75*
G02*
X4794500Y-9358500I40000J0D01*
G01*
D11*
X5093372Y-9249984D02*
X5112420Y-9249984D01*
X5112420Y-9249984D02*
X5131467Y-9259508D01*
X5131467Y-9259508D02*
X5140991Y-9269031D01*
X5140991Y-9269031D02*
X5150515Y-9288079D01*
X5150515Y-9288079D02*
X5160039Y-9326174D01*
X5160039Y-9326174D02*
X5160039Y-9373793D01*
X5160039Y-9373793D02*
X5150515Y-9411889D01*
X5150515Y-9411889D02*
X5140991Y-9430936D01*
X5140991Y-9430936D02*
X5131467Y-9440460D01*
X5131467Y-9440460D02*
X5112420Y-9449984D01*
X5112420Y-9449984D02*
X5093372Y-9449984D01*
X5093372Y-9449984D02*
X5074324Y-9440460D01*
X5074324Y-9440460D02*
X5064801Y-9430936D01*
X5064801Y-9430936D02*
X5055277Y-9411889D01*
X5055277Y-9411889D02*
X5045753Y-9373793D01*
X5045753Y-9373793D02*
X5045753Y-9326174D01*
X5045753Y-9326174D02*
X5055277Y-9288079D01*
X5055277Y-9288079D02*
X5064801Y-9269031D01*
X5064801Y-9269031D02*
X5074324Y-9259508D01*
X5074324Y-9259508D02*
X5093372Y-9249984D01*
X5245753Y-9430936D02*
X5255277Y-9440460D01*
X5255277Y-9440460D02*
X5245753Y-9449984D01*
X5245753Y-9449984D02*
X5236229Y-9440460D01*
X5236229Y-9440460D02*
X5245753Y-9430936D01*
X5245753Y-9430936D02*
X5245753Y-9449984D01*
X5369563Y-9335698D02*
X5350515Y-9326174D01*
X5350515Y-9326174D02*
X5340991Y-9316650D01*
X5340991Y-9316650D02*
X5331467Y-9297603D01*
X5331467Y-9297603D02*
X5331467Y-9288079D01*
X5331467Y-9288079D02*
X5340991Y-9269031D01*
X5340991Y-9269031D02*
X5350515Y-9259508D01*
X5350515Y-9259508D02*
X5369563Y-9249984D01*
X5369563Y-9249984D02*
X5407658Y-9249984D01*
X5407658Y-9249984D02*
X5426705Y-9259508D01*
X5426705Y-9259508D02*
X5436229Y-9269031D01*
X5436229Y-9269031D02*
X5445753Y-9288079D01*
X5445753Y-9288079D02*
X5445753Y-9297603D01*
X5445753Y-9297603D02*
X5436229Y-9316650D01*
X5436229Y-9316650D02*
X5426705Y-9326174D01*
X5426705Y-9326174D02*
X5407658Y-9335698D01*
X5407658Y-9335698D02*
X5369563Y-9335698D01*
X5369563Y-9335698D02*
X5350515Y-9345222D01*
X5350515Y-9345222D02*
X5340991Y-9354746D01*
X5340991Y-9354746D02*
X5331467Y-9373793D01*
X5331467Y-9373793D02*
X5331467Y-9411889D01*
X5331467Y-9411889D02*
X5340991Y-9430936D01*
X5340991Y-9430936D02*
X5350515Y-9440460D01*
X5350515Y-9440460D02*
X5369563Y-9449984D01*
X5369563Y-9449984D02*
X5407658Y-9449984D01*
X5407658Y-9449984D02*
X5426705Y-9440460D01*
X5426705Y-9440460D02*
X5436229Y-9430936D01*
X5436229Y-9430936D02*
X5445753Y-9411889D01*
X5445753Y-9411889D02*
X5445753Y-9373793D01*
X5445753Y-9373793D02*
X5436229Y-9354746D01*
X5436229Y-9354746D02*
X5426705Y-9345222D01*
X5426705Y-9345222D02*
X5407658Y-9335698D01*
X5569563Y-9249984D02*
X5588610Y-9249984D01*
X5588610Y-9249984D02*
X5607658Y-9259508D01*
X5607658Y-9259508D02*
X5617182Y-9269031D01*
X5617182Y-9269031D02*
X5626705Y-9288079D01*
X5626705Y-9288079D02*
X5636229Y-9326174D01*
X5636229Y-9326174D02*
X5636229Y-9373793D01*
X5636229Y-9373793D02*
X5626705Y-9411889D01*
X5626705Y-9411889D02*
X5617182Y-9430936D01*
X5617182Y-9430936D02*
X5607658Y-9440460D01*
X5607658Y-9440460D02*
X5588610Y-9449984D01*
X5588610Y-9449984D02*
X5569563Y-9449984D01*
X5569563Y-9449984D02*
X5550515Y-9440460D01*
X5550515Y-9440460D02*
X5540991Y-9430936D01*
X5540991Y-9430936D02*
X5531467Y-9411889D01*
X5531467Y-9411889D02*
X5521944Y-9373793D01*
X5521944Y-9373793D02*
X5521944Y-9326174D01*
X5521944Y-9326174D02*
X5531467Y-9288079D01*
X5531467Y-9288079D02*
X5540991Y-9269031D01*
X5540991Y-9269031D02*
X5550515Y-9259508D01*
X5550515Y-9259508D02*
X5569563Y-9249984D01*
X5760039Y-9249984D02*
X5779086Y-9249984D01*
X5779086Y-9249984D02*
X5798134Y-9259508D01*
X5798134Y-9259508D02*
X5807658Y-9269031D01*
X5807658Y-9269031D02*
X5817182Y-9288079D01*
X5817182Y-9288079D02*
X5826705Y-9326174D01*
X5826705Y-9326174D02*
X5826705Y-9373793D01*
X5826705Y-9373793D02*
X5817182Y-9411889D01*
X5817182Y-9411889D02*
X5807658Y-9430936D01*
X5807658Y-9430936D02*
X5798134Y-9440460D01*
X5798134Y-9440460D02*
X5779086Y-9449984D01*
X5779086Y-9449984D02*
X5760039Y-9449984D01*
X5760039Y-9449984D02*
X5740991Y-9440460D01*
X5740991Y-9440460D02*
X5731467Y-9430936D01*
X5731467Y-9430936D02*
X5721943Y-9411889D01*
X5721943Y-9411889D02*
X5712420Y-9373793D01*
X5712420Y-9373793D02*
X5712420Y-9326174D01*
X5712420Y-9326174D02*
X5721943Y-9288079D01*
X5721943Y-9288079D02*
X5731467Y-9269031D01*
X5731467Y-9269031D02*
X5740991Y-9259508D01*
X5740991Y-9259508D02*
X5760039Y-9249984D01*
X5912420Y-9449984D02*
X5912420Y-9316650D01*
X5912420Y-9335698D02*
X5921943Y-9326174D01*
X5921943Y-9326174D02*
X5940991Y-9316650D01*
X5940991Y-9316650D02*
X5969563Y-9316650D01*
X5969563Y-9316650D02*
X5988610Y-9326174D01*
X5988610Y-9326174D02*
X5998134Y-9345222D01*
X5998134Y-9345222D02*
X5998134Y-9449984D01*
X5998134Y-9345222D02*
X6007658Y-9326174D01*
X6007658Y-9326174D02*
X6026705Y-9316650D01*
X6026705Y-9316650D02*
X6055277Y-9316650D01*
X6055277Y-9316650D02*
X6074324Y-9326174D01*
X6074324Y-9326174D02*
X6083848Y-9345222D01*
X6083848Y-9345222D02*
X6083848Y-9449984D01*
X6179086Y-9449984D02*
X6179086Y-9316650D01*
X6179086Y-9335698D02*
X6188610Y-9326174D01*
X6188610Y-9326174D02*
X6207658Y-9316650D01*
X6207658Y-9316650D02*
X6236229Y-9316650D01*
X6236229Y-9316650D02*
X6255277Y-9326174D01*
X6255277Y-9326174D02*
X6264801Y-9345222D01*
X6264801Y-9345222D02*
X6264801Y-9449984D01*
X6264801Y-9345222D02*
X6274324Y-9326174D01*
X6274324Y-9326174D02*
X6293372Y-9316650D01*
X6293372Y-9316650D02*
X6321943Y-9316650D01*
X6321943Y-9316650D02*
X6340991Y-9326174D01*
X6340991Y-9326174D02*
X6350515Y-9345222D01*
X6350515Y-9345222D02*
X6350515Y-9449984D01*
X6740991Y-9240460D02*
X6569563Y-9497603D01*
X6998134Y-9249984D02*
X7017182Y-9249984D01*
X7017182Y-9249984D02*
X7036229Y-9259508D01*
X7036229Y-9259508D02*
X7045753Y-9269031D01*
X7045753Y-9269031D02*
X7055277Y-9288079D01*
X7055277Y-9288079D02*
X7064801Y-9326174D01*
X7064801Y-9326174D02*
X7064801Y-9373793D01*
X7064801Y-9373793D02*
X7055277Y-9411889D01*
X7055277Y-9411889D02*
X7045753Y-9430936D01*
X7045753Y-9430936D02*
X7036229Y-9440460D01*
X7036229Y-9440460D02*
X7017182Y-9449984D01*
X7017182Y-9449984D02*
X6998134Y-9449984D01*
X6998134Y-9449984D02*
X6979086Y-9440460D01*
X6979086Y-9440460D02*
X6969563Y-9430936D01*
X6969563Y-9430936D02*
X6960039Y-9411889D01*
X6960039Y-9411889D02*
X6950515Y-9373793D01*
X6950515Y-9373793D02*
X6950515Y-9326174D01*
X6950515Y-9326174D02*
X6960039Y-9288079D01*
X6960039Y-9288079D02*
X6969563Y-9269031D01*
X6969563Y-9269031D02*
X6979086Y-9259508D01*
X6979086Y-9259508D02*
X6998134Y-9249984D01*
X7150515Y-9430936D02*
X7160039Y-9440460D01*
X7160039Y-9440460D02*
X7150515Y-9449984D01*
X7150515Y-9449984D02*
X7140991Y-9440460D01*
X7140991Y-9440460D02*
X7150515Y-9430936D01*
X7150515Y-9430936D02*
X7150515Y-9449984D01*
X7283848Y-9249984D02*
X7302896Y-9249984D01*
X7302896Y-9249984D02*
X7321944Y-9259508D01*
X7321944Y-9259508D02*
X7331467Y-9269031D01*
X7331467Y-9269031D02*
X7340991Y-9288079D01*
X7340991Y-9288079D02*
X7350515Y-9326174D01*
X7350515Y-9326174D02*
X7350515Y-9373793D01*
X7350515Y-9373793D02*
X7340991Y-9411889D01*
X7340991Y-9411889D02*
X7331467Y-9430936D01*
X7331467Y-9430936D02*
X7321944Y-9440460D01*
X7321944Y-9440460D02*
X7302896Y-9449984D01*
X7302896Y-9449984D02*
X7283848Y-9449984D01*
X7283848Y-9449984D02*
X7264801Y-9440460D01*
X7264801Y-9440460D02*
X7255277Y-9430936D01*
X7255277Y-9430936D02*
X7245753Y-9411889D01*
X7245753Y-9411889D02*
X7236229Y-9373793D01*
X7236229Y-9373793D02*
X7236229Y-9326174D01*
X7236229Y-9326174D02*
X7245753Y-9288079D01*
X7245753Y-9288079D02*
X7255277Y-9269031D01*
X7255277Y-9269031D02*
X7264801Y-9259508D01*
X7264801Y-9259508D02*
X7283848Y-9249984D01*
X7417182Y-9249984D02*
X7540991Y-9249984D01*
X7540991Y-9249984D02*
X7474325Y-9326174D01*
X7474325Y-9326174D02*
X7502896Y-9326174D01*
X7502896Y-9326174D02*
X7521944Y-9335698D01*
X7521944Y-9335698D02*
X7531467Y-9345222D01*
X7531467Y-9345222D02*
X7540991Y-9364270D01*
X7540991Y-9364270D02*
X7540991Y-9411889D01*
X7540991Y-9411889D02*
X7531467Y-9430936D01*
X7531467Y-9430936D02*
X7521944Y-9440460D01*
X7521944Y-9440460D02*
X7502896Y-9449984D01*
X7502896Y-9449984D02*
X7445753Y-9449984D01*
X7445753Y-9449984D02*
X7426706Y-9440460D01*
X7426706Y-9440460D02*
X7417182Y-9430936D01*
X7731467Y-9449984D02*
X7617182Y-9449984D01*
X7674325Y-9449984D02*
X7674325Y-9249984D01*
X7674325Y-9249984D02*
X7655277Y-9278555D01*
X7655277Y-9278555D02*
X7636229Y-9297603D01*
X7636229Y-9297603D02*
X7617182Y-9307127D01*
X7912420Y-9249984D02*
X7817182Y-9249984D01*
X7817182Y-9249984D02*
X7807658Y-9345222D01*
X7807658Y-9345222D02*
X7817182Y-9335698D01*
X7817182Y-9335698D02*
X7836229Y-9326174D01*
X7836229Y-9326174D02*
X7883848Y-9326174D01*
X7883848Y-9326174D02*
X7902896Y-9335698D01*
X7902896Y-9335698D02*
X7912420Y-9345222D01*
X7912420Y-9345222D02*
X7921944Y-9364270D01*
X7921944Y-9364270D02*
X7921944Y-9411889D01*
X7921944Y-9411889D02*
X7912420Y-9430936D01*
X7912420Y-9430936D02*
X7902896Y-9440460D01*
X7902896Y-9440460D02*
X7883848Y-9449984D01*
X7883848Y-9449984D02*
X7836229Y-9449984D01*
X7836229Y-9449984D02*
X7817182Y-9440460D01*
X7817182Y-9440460D02*
X7807658Y-9430936D01*
X7998134Y-9249984D02*
X7998134Y-9288079D01*
X8074325Y-9249984D02*
X8074325Y-9288079D01*
X8369563Y-9526174D02*
X8360039Y-9516650D01*
X8360039Y-9516650D02*
X8340991Y-9488079D01*
X8340991Y-9488079D02*
X8331468Y-9469031D01*
X8331468Y-9469031D02*
X8321944Y-9440460D01*
X8321944Y-9440460D02*
X8312420Y-9392841D01*
X8312420Y-9392841D02*
X8312420Y-9354746D01*
X8312420Y-9354746D02*
X8321944Y-9307127D01*
X8321944Y-9307127D02*
X8331468Y-9278555D01*
X8331468Y-9278555D02*
X8340991Y-9259508D01*
X8340991Y-9259508D02*
X8360039Y-9230936D01*
X8360039Y-9230936D02*
X8369563Y-9221412D01*
X8550515Y-9449984D02*
X8436230Y-9449984D01*
X8493372Y-9449984D02*
X8493372Y-9249984D01*
X8493372Y-9249984D02*
X8474325Y-9278555D01*
X8474325Y-9278555D02*
X8455277Y-9297603D01*
X8455277Y-9297603D02*
X8436230Y-9307127D01*
X8617182Y-9249984D02*
X8740991Y-9249984D01*
X8740991Y-9249984D02*
X8674325Y-9326174D01*
X8674325Y-9326174D02*
X8702896Y-9326174D01*
X8702896Y-9326174D02*
X8721944Y-9335698D01*
X8721944Y-9335698D02*
X8731468Y-9345222D01*
X8731468Y-9345222D02*
X8740991Y-9364270D01*
X8740991Y-9364270D02*
X8740991Y-9411889D01*
X8740991Y-9411889D02*
X8731468Y-9430936D01*
X8731468Y-9430936D02*
X8721944Y-9440460D01*
X8721944Y-9440460D02*
X8702896Y-9449984D01*
X8702896Y-9449984D02*
X8645753Y-9449984D01*
X8645753Y-9449984D02*
X8626706Y-9440460D01*
X8626706Y-9440460D02*
X8617182Y-9430936D01*
X8912420Y-9316650D02*
X8912420Y-9449984D01*
X8864801Y-9240460D02*
X8817182Y-9383317D01*
X8817182Y-9383317D02*
X8940991Y-9383317D01*
X9169563Y-9449984D02*
X9169563Y-9249984D01*
X9255277Y-9449984D02*
X9255277Y-9345222D01*
X9255277Y-9345222D02*
X9245753Y-9326174D01*
X9245753Y-9326174D02*
X9226706Y-9316650D01*
X9226706Y-9316650D02*
X9198134Y-9316650D01*
X9198134Y-9316650D02*
X9179087Y-9326174D01*
X9179087Y-9326174D02*
X9169563Y-9335698D01*
X9379087Y-9449984D02*
X9360039Y-9440460D01*
X9360039Y-9440460D02*
X9350515Y-9430936D01*
X9350515Y-9430936D02*
X9340992Y-9411889D01*
X9340992Y-9411889D02*
X9340992Y-9354746D01*
X9340992Y-9354746D02*
X9350515Y-9335698D01*
X9350515Y-9335698D02*
X9360039Y-9326174D01*
X9360039Y-9326174D02*
X9379087Y-9316650D01*
X9379087Y-9316650D02*
X9407658Y-9316650D01*
X9407658Y-9316650D02*
X9426706Y-9326174D01*
X9426706Y-9326174D02*
X9436230Y-9335698D01*
X9436230Y-9335698D02*
X9445753Y-9354746D01*
X9445753Y-9354746D02*
X9445753Y-9411889D01*
X9445753Y-9411889D02*
X9436230Y-9430936D01*
X9436230Y-9430936D02*
X9426706Y-9440460D01*
X9426706Y-9440460D02*
X9407658Y-9449984D01*
X9407658Y-9449984D02*
X9379087Y-9449984D01*
X9560039Y-9449984D02*
X9540992Y-9440460D01*
X9540992Y-9440460D02*
X9531468Y-9421412D01*
X9531468Y-9421412D02*
X9531468Y-9249984D01*
X9712420Y-9440460D02*
X9693373Y-9449984D01*
X9693373Y-9449984D02*
X9655277Y-9449984D01*
X9655277Y-9449984D02*
X9636230Y-9440460D01*
X9636230Y-9440460D02*
X9626706Y-9421412D01*
X9626706Y-9421412D02*
X9626706Y-9345222D01*
X9626706Y-9345222D02*
X9636230Y-9326174D01*
X9636230Y-9326174D02*
X9655277Y-9316650D01*
X9655277Y-9316650D02*
X9693373Y-9316650D01*
X9693373Y-9316650D02*
X9712420Y-9326174D01*
X9712420Y-9326174D02*
X9721944Y-9345222D01*
X9721944Y-9345222D02*
X9721944Y-9364270D01*
X9721944Y-9364270D02*
X9626706Y-9383317D01*
X9798134Y-9440460D02*
X9817182Y-9449984D01*
X9817182Y-9449984D02*
X9855277Y-9449984D01*
X9855277Y-9449984D02*
X9874325Y-9440460D01*
X9874325Y-9440460D02*
X9883849Y-9421412D01*
X9883849Y-9421412D02*
X9883849Y-9411889D01*
X9883849Y-9411889D02*
X9874325Y-9392841D01*
X9874325Y-9392841D02*
X9855277Y-9383317D01*
X9855277Y-9383317D02*
X9826706Y-9383317D01*
X9826706Y-9383317D02*
X9807658Y-9373793D01*
X9807658Y-9373793D02*
X9798134Y-9354746D01*
X9798134Y-9354746D02*
X9798134Y-9345222D01*
X9798134Y-9345222D02*
X9807658Y-9326174D01*
X9807658Y-9326174D02*
X9826706Y-9316650D01*
X9826706Y-9316650D02*
X9855277Y-9316650D01*
X9855277Y-9316650D02*
X9874325Y-9326174D01*
X9950515Y-9526174D02*
X9960039Y-9516650D01*
X9960039Y-9516650D02*
X9979087Y-9488079D01*
X9979087Y-9488079D02*
X9988611Y-9469031D01*
X9988611Y-9469031D02*
X9998134Y-9440460D01*
X9998134Y-9440460D02*
X10007658Y-9392841D01*
X10007658Y-9392841D02*
X10007658Y-9354746D01*
X10007658Y-9354746D02*
X9998134Y-9307127D01*
X9998134Y-9307127D02*
X9988611Y-9278555D01*
X9988611Y-9278555D02*
X9979087Y-9259508D01*
X9979087Y-9259508D02*
X9960039Y-9230936D01*
X9960039Y-9230936D02*
X9950515Y-9221412D01*
D12*
X4745000Y-9573000D02*
X4745000Y-9672000D01*
X4695500Y-9622500D02*
X4794500Y-9622500D01*
D11*
X5093372Y-9513984D02*
X5112420Y-9513984D01*
X5112420Y-9513984D02*
X5131467Y-9523508D01*
X5131467Y-9523508D02*
X5140991Y-9533031D01*
X5140991Y-9533031D02*
X5150515Y-9552079D01*
X5150515Y-9552079D02*
X5160039Y-9590174D01*
X5160039Y-9590174D02*
X5160039Y-9637793D01*
X5160039Y-9637793D02*
X5150515Y-9675889D01*
X5150515Y-9675889D02*
X5140991Y-9694936D01*
X5140991Y-9694936D02*
X5131467Y-9704460D01*
X5131467Y-9704460D02*
X5112420Y-9713984D01*
X5112420Y-9713984D02*
X5093372Y-9713984D01*
X5093372Y-9713984D02*
X5074324Y-9704460D01*
X5074324Y-9704460D02*
X5064801Y-9694936D01*
X5064801Y-9694936D02*
X5055277Y-9675889D01*
X5055277Y-9675889D02*
X5045753Y-9637793D01*
X5045753Y-9637793D02*
X5045753Y-9590174D01*
X5045753Y-9590174D02*
X5055277Y-9552079D01*
X5055277Y-9552079D02*
X5064801Y-9533031D01*
X5064801Y-9533031D02*
X5074324Y-9523508D01*
X5074324Y-9523508D02*
X5093372Y-9513984D01*
X5245753Y-9694936D02*
X5255277Y-9704460D01*
X5255277Y-9704460D02*
X5245753Y-9713984D01*
X5245753Y-9713984D02*
X5236229Y-9704460D01*
X5236229Y-9704460D02*
X5245753Y-9694936D01*
X5245753Y-9694936D02*
X5245753Y-9713984D01*
X5350515Y-9713984D02*
X5388610Y-9713984D01*
X5388610Y-9713984D02*
X5407658Y-9704460D01*
X5407658Y-9704460D02*
X5417182Y-9694936D01*
X5417182Y-9694936D02*
X5436229Y-9666365D01*
X5436229Y-9666365D02*
X5445753Y-9628270D01*
X5445753Y-9628270D02*
X5445753Y-9552079D01*
X5445753Y-9552079D02*
X5436229Y-9533031D01*
X5436229Y-9533031D02*
X5426705Y-9523508D01*
X5426705Y-9523508D02*
X5407658Y-9513984D01*
X5407658Y-9513984D02*
X5369563Y-9513984D01*
X5369563Y-9513984D02*
X5350515Y-9523508D01*
X5350515Y-9523508D02*
X5340991Y-9533031D01*
X5340991Y-9533031D02*
X5331467Y-9552079D01*
X5331467Y-9552079D02*
X5331467Y-9599698D01*
X5331467Y-9599698D02*
X5340991Y-9618746D01*
X5340991Y-9618746D02*
X5350515Y-9628270D01*
X5350515Y-9628270D02*
X5369563Y-9637793D01*
X5369563Y-9637793D02*
X5407658Y-9637793D01*
X5407658Y-9637793D02*
X5426705Y-9628270D01*
X5426705Y-9628270D02*
X5436229Y-9618746D01*
X5436229Y-9618746D02*
X5445753Y-9599698D01*
X5540991Y-9713984D02*
X5579086Y-9713984D01*
X5579086Y-9713984D02*
X5598134Y-9704460D01*
X5598134Y-9704460D02*
X5607658Y-9694936D01*
X5607658Y-9694936D02*
X5626705Y-9666365D01*
X5626705Y-9666365D02*
X5636229Y-9628270D01*
X5636229Y-9628270D02*
X5636229Y-9552079D01*
X5636229Y-9552079D02*
X5626705Y-9533031D01*
X5626705Y-9533031D02*
X5617182Y-9523508D01*
X5617182Y-9523508D02*
X5598134Y-9513984D01*
X5598134Y-9513984D02*
X5560039Y-9513984D01*
X5560039Y-9513984D02*
X5540991Y-9523508D01*
X5540991Y-9523508D02*
X5531467Y-9533031D01*
X5531467Y-9533031D02*
X5521944Y-9552079D01*
X5521944Y-9552079D02*
X5521944Y-9599698D01*
X5521944Y-9599698D02*
X5531467Y-9618746D01*
X5531467Y-9618746D02*
X5540991Y-9628270D01*
X5540991Y-9628270D02*
X5560039Y-9637793D01*
X5560039Y-9637793D02*
X5598134Y-9637793D01*
X5598134Y-9637793D02*
X5617182Y-9628270D01*
X5617182Y-9628270D02*
X5626705Y-9618746D01*
X5626705Y-9618746D02*
X5636229Y-9599698D01*
X5760039Y-9513984D02*
X5779086Y-9513984D01*
X5779086Y-9513984D02*
X5798134Y-9523508D01*
X5798134Y-9523508D02*
X5807658Y-9533031D01*
X5807658Y-9533031D02*
X5817182Y-9552079D01*
X5817182Y-9552079D02*
X5826705Y-9590174D01*
X5826705Y-9590174D02*
X5826705Y-9637793D01*
X5826705Y-9637793D02*
X5817182Y-9675889D01*
X5817182Y-9675889D02*
X5807658Y-9694936D01*
X5807658Y-9694936D02*
X5798134Y-9704460D01*
X5798134Y-9704460D02*
X5779086Y-9713984D01*
X5779086Y-9713984D02*
X5760039Y-9713984D01*
X5760039Y-9713984D02*
X5740991Y-9704460D01*
X5740991Y-9704460D02*
X5731467Y-9694936D01*
X5731467Y-9694936D02*
X5721943Y-9675889D01*
X5721943Y-9675889D02*
X5712420Y-9637793D01*
X5712420Y-9637793D02*
X5712420Y-9590174D01*
X5712420Y-9590174D02*
X5721943Y-9552079D01*
X5721943Y-9552079D02*
X5731467Y-9533031D01*
X5731467Y-9533031D02*
X5740991Y-9523508D01*
X5740991Y-9523508D02*
X5760039Y-9513984D01*
X5912420Y-9713984D02*
X5912420Y-9580650D01*
X5912420Y-9599698D02*
X5921943Y-9590174D01*
X5921943Y-9590174D02*
X5940991Y-9580650D01*
X5940991Y-9580650D02*
X5969563Y-9580650D01*
X5969563Y-9580650D02*
X5988610Y-9590174D01*
X5988610Y-9590174D02*
X5998134Y-9609222D01*
X5998134Y-9609222D02*
X5998134Y-9713984D01*
X5998134Y-9609222D02*
X6007658Y-9590174D01*
X6007658Y-9590174D02*
X6026705Y-9580650D01*
X6026705Y-9580650D02*
X6055277Y-9580650D01*
X6055277Y-9580650D02*
X6074324Y-9590174D01*
X6074324Y-9590174D02*
X6083848Y-9609222D01*
X6083848Y-9609222D02*
X6083848Y-9713984D01*
X6179086Y-9713984D02*
X6179086Y-9580650D01*
X6179086Y-9599698D02*
X6188610Y-9590174D01*
X6188610Y-9590174D02*
X6207658Y-9580650D01*
X6207658Y-9580650D02*
X6236229Y-9580650D01*
X6236229Y-9580650D02*
X6255277Y-9590174D01*
X6255277Y-9590174D02*
X6264801Y-9609222D01*
X6264801Y-9609222D02*
X6264801Y-9713984D01*
X6264801Y-9609222D02*
X6274324Y-9590174D01*
X6274324Y-9590174D02*
X6293372Y-9580650D01*
X6293372Y-9580650D02*
X6321943Y-9580650D01*
X6321943Y-9580650D02*
X6340991Y-9590174D01*
X6340991Y-9590174D02*
X6350515Y-9609222D01*
X6350515Y-9609222D02*
X6350515Y-9713984D01*
X6740991Y-9504460D02*
X6569563Y-9761603D01*
X6998134Y-9513984D02*
X7017182Y-9513984D01*
X7017182Y-9513984D02*
X7036229Y-9523508D01*
X7036229Y-9523508D02*
X7045753Y-9533031D01*
X7045753Y-9533031D02*
X7055277Y-9552079D01*
X7055277Y-9552079D02*
X7064801Y-9590174D01*
X7064801Y-9590174D02*
X7064801Y-9637793D01*
X7064801Y-9637793D02*
X7055277Y-9675889D01*
X7055277Y-9675889D02*
X7045753Y-9694936D01*
X7045753Y-9694936D02*
X7036229Y-9704460D01*
X7036229Y-9704460D02*
X7017182Y-9713984D01*
X7017182Y-9713984D02*
X6998134Y-9713984D01*
X6998134Y-9713984D02*
X6979086Y-9704460D01*
X6979086Y-9704460D02*
X6969563Y-9694936D01*
X6969563Y-9694936D02*
X6960039Y-9675889D01*
X6960039Y-9675889D02*
X6950515Y-9637793D01*
X6950515Y-9637793D02*
X6950515Y-9590174D01*
X6950515Y-9590174D02*
X6960039Y-9552079D01*
X6960039Y-9552079D02*
X6969563Y-9533031D01*
X6969563Y-9533031D02*
X6979086Y-9523508D01*
X6979086Y-9523508D02*
X6998134Y-9513984D01*
X7150515Y-9694936D02*
X7160039Y-9704460D01*
X7160039Y-9704460D02*
X7150515Y-9713984D01*
X7150515Y-9713984D02*
X7140991Y-9704460D01*
X7140991Y-9704460D02*
X7150515Y-9694936D01*
X7150515Y-9694936D02*
X7150515Y-9713984D01*
X7283848Y-9513984D02*
X7302896Y-9513984D01*
X7302896Y-9513984D02*
X7321944Y-9523508D01*
X7321944Y-9523508D02*
X7331467Y-9533031D01*
X7331467Y-9533031D02*
X7340991Y-9552079D01*
X7340991Y-9552079D02*
X7350515Y-9590174D01*
X7350515Y-9590174D02*
X7350515Y-9637793D01*
X7350515Y-9637793D02*
X7340991Y-9675889D01*
X7340991Y-9675889D02*
X7331467Y-9694936D01*
X7331467Y-9694936D02*
X7321944Y-9704460D01*
X7321944Y-9704460D02*
X7302896Y-9713984D01*
X7302896Y-9713984D02*
X7283848Y-9713984D01*
X7283848Y-9713984D02*
X7264801Y-9704460D01*
X7264801Y-9704460D02*
X7255277Y-9694936D01*
X7255277Y-9694936D02*
X7245753Y-9675889D01*
X7245753Y-9675889D02*
X7236229Y-9637793D01*
X7236229Y-9637793D02*
X7236229Y-9590174D01*
X7236229Y-9590174D02*
X7245753Y-9552079D01*
X7245753Y-9552079D02*
X7255277Y-9533031D01*
X7255277Y-9533031D02*
X7264801Y-9523508D01*
X7264801Y-9523508D02*
X7283848Y-9513984D01*
X7417182Y-9513984D02*
X7540991Y-9513984D01*
X7540991Y-9513984D02*
X7474325Y-9590174D01*
X7474325Y-9590174D02*
X7502896Y-9590174D01*
X7502896Y-9590174D02*
X7521944Y-9599698D01*
X7521944Y-9599698D02*
X7531467Y-9609222D01*
X7531467Y-9609222D02*
X7540991Y-9628270D01*
X7540991Y-9628270D02*
X7540991Y-9675889D01*
X7540991Y-9675889D02*
X7531467Y-9694936D01*
X7531467Y-9694936D02*
X7521944Y-9704460D01*
X7521944Y-9704460D02*
X7502896Y-9713984D01*
X7502896Y-9713984D02*
X7445753Y-9713984D01*
X7445753Y-9713984D02*
X7426706Y-9704460D01*
X7426706Y-9704460D02*
X7417182Y-9694936D01*
X7636229Y-9713984D02*
X7674325Y-9713984D01*
X7674325Y-9713984D02*
X7693372Y-9704460D01*
X7693372Y-9704460D02*
X7702896Y-9694936D01*
X7702896Y-9694936D02*
X7721944Y-9666365D01*
X7721944Y-9666365D02*
X7731467Y-9628270D01*
X7731467Y-9628270D02*
X7731467Y-9552079D01*
X7731467Y-9552079D02*
X7721944Y-9533031D01*
X7721944Y-9533031D02*
X7712420Y-9523508D01*
X7712420Y-9523508D02*
X7693372Y-9513984D01*
X7693372Y-9513984D02*
X7655277Y-9513984D01*
X7655277Y-9513984D02*
X7636229Y-9523508D01*
X7636229Y-9523508D02*
X7626706Y-9533031D01*
X7626706Y-9533031D02*
X7617182Y-9552079D01*
X7617182Y-9552079D02*
X7617182Y-9599698D01*
X7617182Y-9599698D02*
X7626706Y-9618746D01*
X7626706Y-9618746D02*
X7636229Y-9628270D01*
X7636229Y-9628270D02*
X7655277Y-9637793D01*
X7655277Y-9637793D02*
X7693372Y-9637793D01*
X7693372Y-9637793D02*
X7712420Y-9628270D01*
X7712420Y-9628270D02*
X7721944Y-9618746D01*
X7721944Y-9618746D02*
X7731467Y-9599698D01*
X7855277Y-9513984D02*
X7874325Y-9513984D01*
X7874325Y-9513984D02*
X7893372Y-9523508D01*
X7893372Y-9523508D02*
X7902896Y-9533031D01*
X7902896Y-9533031D02*
X7912420Y-9552079D01*
X7912420Y-9552079D02*
X7921944Y-9590174D01*
X7921944Y-9590174D02*
X7921944Y-9637793D01*
X7921944Y-9637793D02*
X7912420Y-9675889D01*
X7912420Y-9675889D02*
X7902896Y-9694936D01*
X7902896Y-9694936D02*
X7893372Y-9704460D01*
X7893372Y-9704460D02*
X7874325Y-9713984D01*
X7874325Y-9713984D02*
X7855277Y-9713984D01*
X7855277Y-9713984D02*
X7836229Y-9704460D01*
X7836229Y-9704460D02*
X7826706Y-9694936D01*
X7826706Y-9694936D02*
X7817182Y-9675889D01*
X7817182Y-9675889D02*
X7807658Y-9637793D01*
X7807658Y-9637793D02*
X7807658Y-9590174D01*
X7807658Y-9590174D02*
X7817182Y-9552079D01*
X7817182Y-9552079D02*
X7826706Y-9533031D01*
X7826706Y-9533031D02*
X7836229Y-9523508D01*
X7836229Y-9523508D02*
X7855277Y-9513984D01*
X7998134Y-9513984D02*
X7998134Y-9552079D01*
X8074325Y-9513984D02*
X8074325Y-9552079D01*
X8369563Y-9790174D02*
X8360039Y-9780650D01*
X8360039Y-9780650D02*
X8340991Y-9752079D01*
X8340991Y-9752079D02*
X8331468Y-9733031D01*
X8331468Y-9733031D02*
X8321944Y-9704460D01*
X8321944Y-9704460D02*
X8312420Y-9656841D01*
X8312420Y-9656841D02*
X8312420Y-9618746D01*
X8312420Y-9618746D02*
X8321944Y-9571127D01*
X8321944Y-9571127D02*
X8331468Y-9542555D01*
X8331468Y-9542555D02*
X8340991Y-9523508D01*
X8340991Y-9523508D02*
X8360039Y-9494936D01*
X8360039Y-9494936D02*
X8369563Y-9485412D01*
X8436230Y-9533031D02*
X8445753Y-9523508D01*
X8445753Y-9523508D02*
X8464801Y-9513984D01*
X8464801Y-9513984D02*
X8512420Y-9513984D01*
X8512420Y-9513984D02*
X8531468Y-9523508D01*
X8531468Y-9523508D02*
X8540991Y-9533031D01*
X8540991Y-9533031D02*
X8550515Y-9552079D01*
X8550515Y-9552079D02*
X8550515Y-9571127D01*
X8550515Y-9571127D02*
X8540991Y-9599698D01*
X8540991Y-9599698D02*
X8426706Y-9713984D01*
X8426706Y-9713984D02*
X8550515Y-9713984D01*
X8788611Y-9713984D02*
X8788611Y-9513984D01*
X8874325Y-9713984D02*
X8874325Y-9609222D01*
X8874325Y-9609222D02*
X8864801Y-9590174D01*
X8864801Y-9590174D02*
X8845753Y-9580650D01*
X8845753Y-9580650D02*
X8817182Y-9580650D01*
X8817182Y-9580650D02*
X8798134Y-9590174D01*
X8798134Y-9590174D02*
X8788611Y-9599698D01*
X8998134Y-9713984D02*
X8979087Y-9704460D01*
X8979087Y-9704460D02*
X8969563Y-9694936D01*
X8969563Y-9694936D02*
X8960039Y-9675889D01*
X8960039Y-9675889D02*
X8960039Y-9618746D01*
X8960039Y-9618746D02*
X8969563Y-9599698D01*
X8969563Y-9599698D02*
X8979087Y-9590174D01*
X8979087Y-9590174D02*
X8998134Y-9580650D01*
X8998134Y-9580650D02*
X9026706Y-9580650D01*
X9026706Y-9580650D02*
X9045753Y-9590174D01*
X9045753Y-9590174D02*
X9055277Y-9599698D01*
X9055277Y-9599698D02*
X9064801Y-9618746D01*
X9064801Y-9618746D02*
X9064801Y-9675889D01*
X9064801Y-9675889D02*
X9055277Y-9694936D01*
X9055277Y-9694936D02*
X9045753Y-9704460D01*
X9045753Y-9704460D02*
X9026706Y-9713984D01*
X9026706Y-9713984D02*
X8998134Y-9713984D01*
X9179087Y-9713984D02*
X9160039Y-9704460D01*
X9160039Y-9704460D02*
X9150515Y-9685412D01*
X9150515Y-9685412D02*
X9150515Y-9513984D01*
X9331468Y-9704460D02*
X9312420Y-9713984D01*
X9312420Y-9713984D02*
X9274325Y-9713984D01*
X9274325Y-9713984D02*
X9255277Y-9704460D01*
X9255277Y-9704460D02*
X9245753Y-9685412D01*
X9245753Y-9685412D02*
X9245753Y-9609222D01*
X9245753Y-9609222D02*
X9255277Y-9590174D01*
X9255277Y-9590174D02*
X9274325Y-9580650D01*
X9274325Y-9580650D02*
X9312420Y-9580650D01*
X9312420Y-9580650D02*
X9331468Y-9590174D01*
X9331468Y-9590174D02*
X9340992Y-9609222D01*
X9340992Y-9609222D02*
X9340992Y-9628270D01*
X9340992Y-9628270D02*
X9245753Y-9647317D01*
X9417182Y-9704460D02*
X9436230Y-9713984D01*
X9436230Y-9713984D02*
X9474325Y-9713984D01*
X9474325Y-9713984D02*
X9493373Y-9704460D01*
X9493373Y-9704460D02*
X9502896Y-9685412D01*
X9502896Y-9685412D02*
X9502896Y-9675889D01*
X9502896Y-9675889D02*
X9493373Y-9656841D01*
X9493373Y-9656841D02*
X9474325Y-9647317D01*
X9474325Y-9647317D02*
X9445753Y-9647317D01*
X9445753Y-9647317D02*
X9426706Y-9637793D01*
X9426706Y-9637793D02*
X9417182Y-9618746D01*
X9417182Y-9618746D02*
X9417182Y-9609222D01*
X9417182Y-9609222D02*
X9426706Y-9590174D01*
X9426706Y-9590174D02*
X9445753Y-9580650D01*
X9445753Y-9580650D02*
X9474325Y-9580650D01*
X9474325Y-9580650D02*
X9493373Y-9590174D01*
X9569563Y-9790174D02*
X9579087Y-9780650D01*
X9579087Y-9780650D02*
X9598134Y-9752079D01*
X9598134Y-9752079D02*
X9607658Y-9733031D01*
X9607658Y-9733031D02*
X9617182Y-9704460D01*
X9617182Y-9704460D02*
X9626706Y-9656841D01*
X9626706Y-9656841D02*
X9626706Y-9618746D01*
X9626706Y-9618746D02*
X9617182Y-9571127D01*
X9617182Y-9571127D02*
X9607658Y-9542555D01*
X9607658Y-9542555D02*
X9598134Y-9523508D01*
X9598134Y-9523508D02*
X9579087Y-9494936D01*
X9579087Y-9494936D02*
X9569563Y-9485412D01*
D12*
X4779856Y-9921856D02*
X4779856Y-9851144D01*
X4709144Y-9851144D01*
X4709144Y-9921856D01*
X4779856Y-9921856D01*
D11*
X5160039Y-9977984D02*
X5045753Y-9977984D01*
X5102896Y-9977984D02*
X5102896Y-9777984D01*
X5102896Y-9777984D02*
X5083848Y-9806555D01*
X5083848Y-9806555D02*
X5064801Y-9825603D01*
X5064801Y-9825603D02*
X5045753Y-9835127D01*
X5245753Y-9958936D02*
X5255277Y-9968460D01*
X5255277Y-9968460D02*
X5245753Y-9977984D01*
X5245753Y-9977984D02*
X5236229Y-9968460D01*
X5236229Y-9968460D02*
X5245753Y-9958936D01*
X5245753Y-9958936D02*
X5245753Y-9977984D01*
X5379086Y-9777984D02*
X5398134Y-9777984D01*
X5398134Y-9777984D02*
X5417182Y-9787508D01*
X5417182Y-9787508D02*
X5426705Y-9797031D01*
X5426705Y-9797031D02*
X5436229Y-9816079D01*
X5436229Y-9816079D02*
X5445753Y-9854174D01*
X5445753Y-9854174D02*
X5445753Y-9901793D01*
X5445753Y-9901793D02*
X5436229Y-9939889D01*
X5436229Y-9939889D02*
X5426705Y-9958936D01*
X5426705Y-9958936D02*
X5417182Y-9968460D01*
X5417182Y-9968460D02*
X5398134Y-9977984D01*
X5398134Y-9977984D02*
X5379086Y-9977984D01*
X5379086Y-9977984D02*
X5360039Y-9968460D01*
X5360039Y-9968460D02*
X5350515Y-9958936D01*
X5350515Y-9958936D02*
X5340991Y-9939889D01*
X5340991Y-9939889D02*
X5331467Y-9901793D01*
X5331467Y-9901793D02*
X5331467Y-9854174D01*
X5331467Y-9854174D02*
X5340991Y-9816079D01*
X5340991Y-9816079D02*
X5350515Y-9797031D01*
X5350515Y-9797031D02*
X5360039Y-9787508D01*
X5360039Y-9787508D02*
X5379086Y-9777984D01*
X5569563Y-9777984D02*
X5588610Y-9777984D01*
X5588610Y-9777984D02*
X5607658Y-9787508D01*
X5607658Y-9787508D02*
X5617182Y-9797031D01*
X5617182Y-9797031D02*
X5626705Y-9816079D01*
X5626705Y-9816079D02*
X5636229Y-9854174D01*
X5636229Y-9854174D02*
X5636229Y-9901793D01*
X5636229Y-9901793D02*
X5626705Y-9939889D01*
X5626705Y-9939889D02*
X5617182Y-9958936D01*
X5617182Y-9958936D02*
X5607658Y-9968460D01*
X5607658Y-9968460D02*
X5588610Y-9977984D01*
X5588610Y-9977984D02*
X5569563Y-9977984D01*
X5569563Y-9977984D02*
X5550515Y-9968460D01*
X5550515Y-9968460D02*
X5540991Y-9958936D01*
X5540991Y-9958936D02*
X5531467Y-9939889D01*
X5531467Y-9939889D02*
X5521944Y-9901793D01*
X5521944Y-9901793D02*
X5521944Y-9854174D01*
X5521944Y-9854174D02*
X5531467Y-9816079D01*
X5531467Y-9816079D02*
X5540991Y-9797031D01*
X5540991Y-9797031D02*
X5550515Y-9787508D01*
X5550515Y-9787508D02*
X5569563Y-9777984D01*
X5760039Y-9777984D02*
X5779086Y-9777984D01*
X5779086Y-9777984D02*
X5798134Y-9787508D01*
X5798134Y-9787508D02*
X5807658Y-9797031D01*
X5807658Y-9797031D02*
X5817182Y-9816079D01*
X5817182Y-9816079D02*
X5826705Y-9854174D01*
X5826705Y-9854174D02*
X5826705Y-9901793D01*
X5826705Y-9901793D02*
X5817182Y-9939889D01*
X5817182Y-9939889D02*
X5807658Y-9958936D01*
X5807658Y-9958936D02*
X5798134Y-9968460D01*
X5798134Y-9968460D02*
X5779086Y-9977984D01*
X5779086Y-9977984D02*
X5760039Y-9977984D01*
X5760039Y-9977984D02*
X5740991Y-9968460D01*
X5740991Y-9968460D02*
X5731467Y-9958936D01*
X5731467Y-9958936D02*
X5721943Y-9939889D01*
X5721943Y-9939889D02*
X5712420Y-9901793D01*
X5712420Y-9901793D02*
X5712420Y-9854174D01*
X5712420Y-9854174D02*
X5721943Y-9816079D01*
X5721943Y-9816079D02*
X5731467Y-9797031D01*
X5731467Y-9797031D02*
X5740991Y-9787508D01*
X5740991Y-9787508D02*
X5760039Y-9777984D01*
X5912420Y-9977984D02*
X5912420Y-9844650D01*
X5912420Y-9863698D02*
X5921943Y-9854174D01*
X5921943Y-9854174D02*
X5940991Y-9844650D01*
X5940991Y-9844650D02*
X5969563Y-9844650D01*
X5969563Y-9844650D02*
X5988610Y-9854174D01*
X5988610Y-9854174D02*
X5998134Y-9873222D01*
X5998134Y-9873222D02*
X5998134Y-9977984D01*
X5998134Y-9873222D02*
X6007658Y-9854174D01*
X6007658Y-9854174D02*
X6026705Y-9844650D01*
X6026705Y-9844650D02*
X6055277Y-9844650D01*
X6055277Y-9844650D02*
X6074324Y-9854174D01*
X6074324Y-9854174D02*
X6083848Y-9873222D01*
X6083848Y-9873222D02*
X6083848Y-9977984D01*
X6179086Y-9977984D02*
X6179086Y-9844650D01*
X6179086Y-9863698D02*
X6188610Y-9854174D01*
X6188610Y-9854174D02*
X6207658Y-9844650D01*
X6207658Y-9844650D02*
X6236229Y-9844650D01*
X6236229Y-9844650D02*
X6255277Y-9854174D01*
X6255277Y-9854174D02*
X6264801Y-9873222D01*
X6264801Y-9873222D02*
X6264801Y-9977984D01*
X6264801Y-9873222D02*
X6274324Y-9854174D01*
X6274324Y-9854174D02*
X6293372Y-9844650D01*
X6293372Y-9844650D02*
X6321943Y-9844650D01*
X6321943Y-9844650D02*
X6340991Y-9854174D01*
X6340991Y-9854174D02*
X6350515Y-9873222D01*
X6350515Y-9873222D02*
X6350515Y-9977984D01*
X6740991Y-9768460D02*
X6569563Y-10025603D01*
X6998134Y-9777984D02*
X7017182Y-9777984D01*
X7017182Y-9777984D02*
X7036229Y-9787508D01*
X7036229Y-9787508D02*
X7045753Y-9797031D01*
X7045753Y-9797031D02*
X7055277Y-9816079D01*
X7055277Y-9816079D02*
X7064801Y-9854174D01*
X7064801Y-9854174D02*
X7064801Y-9901793D01*
X7064801Y-9901793D02*
X7055277Y-9939889D01*
X7055277Y-9939889D02*
X7045753Y-9958936D01*
X7045753Y-9958936D02*
X7036229Y-9968460D01*
X7036229Y-9968460D02*
X7017182Y-9977984D01*
X7017182Y-9977984D02*
X6998134Y-9977984D01*
X6998134Y-9977984D02*
X6979086Y-9968460D01*
X6979086Y-9968460D02*
X6969563Y-9958936D01*
X6969563Y-9958936D02*
X6960039Y-9939889D01*
X6960039Y-9939889D02*
X6950515Y-9901793D01*
X6950515Y-9901793D02*
X6950515Y-9854174D01*
X6950515Y-9854174D02*
X6960039Y-9816079D01*
X6960039Y-9816079D02*
X6969563Y-9797031D01*
X6969563Y-9797031D02*
X6979086Y-9787508D01*
X6979086Y-9787508D02*
X6998134Y-9777984D01*
X7150515Y-9958936D02*
X7160039Y-9968460D01*
X7160039Y-9968460D02*
X7150515Y-9977984D01*
X7150515Y-9977984D02*
X7140991Y-9968460D01*
X7140991Y-9968460D02*
X7150515Y-9958936D01*
X7150515Y-9958936D02*
X7150515Y-9977984D01*
X7283848Y-9777984D02*
X7302896Y-9777984D01*
X7302896Y-9777984D02*
X7321944Y-9787508D01*
X7321944Y-9787508D02*
X7331467Y-9797031D01*
X7331467Y-9797031D02*
X7340991Y-9816079D01*
X7340991Y-9816079D02*
X7350515Y-9854174D01*
X7350515Y-9854174D02*
X7350515Y-9901793D01*
X7350515Y-9901793D02*
X7340991Y-9939889D01*
X7340991Y-9939889D02*
X7331467Y-9958936D01*
X7331467Y-9958936D02*
X7321944Y-9968460D01*
X7321944Y-9968460D02*
X7302896Y-9977984D01*
X7302896Y-9977984D02*
X7283848Y-9977984D01*
X7283848Y-9977984D02*
X7264801Y-9968460D01*
X7264801Y-9968460D02*
X7255277Y-9958936D01*
X7255277Y-9958936D02*
X7245753Y-9939889D01*
X7245753Y-9939889D02*
X7236229Y-9901793D01*
X7236229Y-9901793D02*
X7236229Y-9854174D01*
X7236229Y-9854174D02*
X7245753Y-9816079D01*
X7245753Y-9816079D02*
X7255277Y-9797031D01*
X7255277Y-9797031D02*
X7264801Y-9787508D01*
X7264801Y-9787508D02*
X7283848Y-9777984D01*
X7417182Y-9777984D02*
X7540991Y-9777984D01*
X7540991Y-9777984D02*
X7474325Y-9854174D01*
X7474325Y-9854174D02*
X7502896Y-9854174D01*
X7502896Y-9854174D02*
X7521944Y-9863698D01*
X7521944Y-9863698D02*
X7531467Y-9873222D01*
X7531467Y-9873222D02*
X7540991Y-9892270D01*
X7540991Y-9892270D02*
X7540991Y-9939889D01*
X7540991Y-9939889D02*
X7531467Y-9958936D01*
X7531467Y-9958936D02*
X7521944Y-9968460D01*
X7521944Y-9968460D02*
X7502896Y-9977984D01*
X7502896Y-9977984D02*
X7445753Y-9977984D01*
X7445753Y-9977984D02*
X7426706Y-9968460D01*
X7426706Y-9968460D02*
X7417182Y-9958936D01*
X7636229Y-9977984D02*
X7674325Y-9977984D01*
X7674325Y-9977984D02*
X7693372Y-9968460D01*
X7693372Y-9968460D02*
X7702896Y-9958936D01*
X7702896Y-9958936D02*
X7721944Y-9930365D01*
X7721944Y-9930365D02*
X7731467Y-9892270D01*
X7731467Y-9892270D02*
X7731467Y-9816079D01*
X7731467Y-9816079D02*
X7721944Y-9797031D01*
X7721944Y-9797031D02*
X7712420Y-9787508D01*
X7712420Y-9787508D02*
X7693372Y-9777984D01*
X7693372Y-9777984D02*
X7655277Y-9777984D01*
X7655277Y-9777984D02*
X7636229Y-9787508D01*
X7636229Y-9787508D02*
X7626706Y-9797031D01*
X7626706Y-9797031D02*
X7617182Y-9816079D01*
X7617182Y-9816079D02*
X7617182Y-9863698D01*
X7617182Y-9863698D02*
X7626706Y-9882746D01*
X7626706Y-9882746D02*
X7636229Y-9892270D01*
X7636229Y-9892270D02*
X7655277Y-9901793D01*
X7655277Y-9901793D02*
X7693372Y-9901793D01*
X7693372Y-9901793D02*
X7712420Y-9892270D01*
X7712420Y-9892270D02*
X7721944Y-9882746D01*
X7721944Y-9882746D02*
X7731467Y-9863698D01*
X7902896Y-9844650D02*
X7902896Y-9977984D01*
X7855277Y-9768460D02*
X7807658Y-9911317D01*
X7807658Y-9911317D02*
X7931467Y-9911317D01*
X7998134Y-9777984D02*
X7998134Y-9816079D01*
X8074325Y-9777984D02*
X8074325Y-9816079D01*
X8369563Y-10054174D02*
X8360039Y-10044650D01*
X8360039Y-10044650D02*
X8340991Y-10016079D01*
X8340991Y-10016079D02*
X8331468Y-9997031D01*
X8331468Y-9997031D02*
X8321944Y-9968460D01*
X8321944Y-9968460D02*
X8312420Y-9920841D01*
X8312420Y-9920841D02*
X8312420Y-9882746D01*
X8312420Y-9882746D02*
X8321944Y-9835127D01*
X8321944Y-9835127D02*
X8331468Y-9806555D01*
X8331468Y-9806555D02*
X8340991Y-9787508D01*
X8340991Y-9787508D02*
X8360039Y-9758936D01*
X8360039Y-9758936D02*
X8369563Y-9749412D01*
X8550515Y-9977984D02*
X8436230Y-9977984D01*
X8493372Y-9977984D02*
X8493372Y-9777984D01*
X8493372Y-9777984D02*
X8474325Y-9806555D01*
X8474325Y-9806555D02*
X8455277Y-9825603D01*
X8455277Y-9825603D02*
X8436230Y-9835127D01*
X8617182Y-9777984D02*
X8740991Y-9777984D01*
X8740991Y-9777984D02*
X8674325Y-9854174D01*
X8674325Y-9854174D02*
X8702896Y-9854174D01*
X8702896Y-9854174D02*
X8721944Y-9863698D01*
X8721944Y-9863698D02*
X8731468Y-9873222D01*
X8731468Y-9873222D02*
X8740991Y-9892270D01*
X8740991Y-9892270D02*
X8740991Y-9939889D01*
X8740991Y-9939889D02*
X8731468Y-9958936D01*
X8731468Y-9958936D02*
X8721944Y-9968460D01*
X8721944Y-9968460D02*
X8702896Y-9977984D01*
X8702896Y-9977984D02*
X8645753Y-9977984D01*
X8645753Y-9977984D02*
X8626706Y-9968460D01*
X8626706Y-9968460D02*
X8617182Y-9958936D01*
X8817182Y-9797031D02*
X8826706Y-9787508D01*
X8826706Y-9787508D02*
X8845753Y-9777984D01*
X8845753Y-9777984D02*
X8893372Y-9777984D01*
X8893372Y-9777984D02*
X8912420Y-9787508D01*
X8912420Y-9787508D02*
X8921944Y-9797031D01*
X8921944Y-9797031D02*
X8931468Y-9816079D01*
X8931468Y-9816079D02*
X8931468Y-9835127D01*
X8931468Y-9835127D02*
X8921944Y-9863698D01*
X8921944Y-9863698D02*
X8807658Y-9977984D01*
X8807658Y-9977984D02*
X8931468Y-9977984D01*
X9169563Y-9977984D02*
X9169563Y-9777984D01*
X9255277Y-9977984D02*
X9255277Y-9873222D01*
X9255277Y-9873222D02*
X9245753Y-9854174D01*
X9245753Y-9854174D02*
X9226706Y-9844650D01*
X9226706Y-9844650D02*
X9198134Y-9844650D01*
X9198134Y-9844650D02*
X9179087Y-9854174D01*
X9179087Y-9854174D02*
X9169563Y-9863698D01*
X9379087Y-9977984D02*
X9360039Y-9968460D01*
X9360039Y-9968460D02*
X9350515Y-9958936D01*
X9350515Y-9958936D02*
X9340992Y-9939889D01*
X9340992Y-9939889D02*
X9340992Y-9882746D01*
X9340992Y-9882746D02*
X9350515Y-9863698D01*
X9350515Y-9863698D02*
X9360039Y-9854174D01*
X9360039Y-9854174D02*
X9379087Y-9844650D01*
X9379087Y-9844650D02*
X9407658Y-9844650D01*
X9407658Y-9844650D02*
X9426706Y-9854174D01*
X9426706Y-9854174D02*
X9436230Y-9863698D01*
X9436230Y-9863698D02*
X9445753Y-9882746D01*
X9445753Y-9882746D02*
X9445753Y-9939889D01*
X9445753Y-9939889D02*
X9436230Y-9958936D01*
X9436230Y-9958936D02*
X9426706Y-9968460D01*
X9426706Y-9968460D02*
X9407658Y-9977984D01*
X9407658Y-9977984D02*
X9379087Y-9977984D01*
X9560039Y-9977984D02*
X9540992Y-9968460D01*
X9540992Y-9968460D02*
X9531468Y-9949412D01*
X9531468Y-9949412D02*
X9531468Y-9777984D01*
X9712420Y-9968460D02*
X9693373Y-9977984D01*
X9693373Y-9977984D02*
X9655277Y-9977984D01*
X9655277Y-9977984D02*
X9636230Y-9968460D01*
X9636230Y-9968460D02*
X9626706Y-9949412D01*
X9626706Y-9949412D02*
X9626706Y-9873222D01*
X9626706Y-9873222D02*
X9636230Y-9854174D01*
X9636230Y-9854174D02*
X9655277Y-9844650D01*
X9655277Y-9844650D02*
X9693373Y-9844650D01*
X9693373Y-9844650D02*
X9712420Y-9854174D01*
X9712420Y-9854174D02*
X9721944Y-9873222D01*
X9721944Y-9873222D02*
X9721944Y-9892270D01*
X9721944Y-9892270D02*
X9626706Y-9911317D01*
X9798134Y-9968460D02*
X9817182Y-9977984D01*
X9817182Y-9977984D02*
X9855277Y-9977984D01*
X9855277Y-9977984D02*
X9874325Y-9968460D01*
X9874325Y-9968460D02*
X9883849Y-9949412D01*
X9883849Y-9949412D02*
X9883849Y-9939889D01*
X9883849Y-9939889D02*
X9874325Y-9920841D01*
X9874325Y-9920841D02*
X9855277Y-9911317D01*
X9855277Y-9911317D02*
X9826706Y-9911317D01*
X9826706Y-9911317D02*
X9807658Y-9901793D01*
X9807658Y-9901793D02*
X9798134Y-9882746D01*
X9798134Y-9882746D02*
X9798134Y-9873222D01*
X9798134Y-9873222D02*
X9807658Y-9854174D01*
X9807658Y-9854174D02*
X9826706Y-9844650D01*
X9826706Y-9844650D02*
X9855277Y-9844650D01*
X9855277Y-9844650D02*
X9874325Y-9854174D01*
X9950515Y-10054174D02*
X9960039Y-10044650D01*
X9960039Y-10044650D02*
X9979087Y-10016079D01*
X9979087Y-10016079D02*
X9988611Y-9997031D01*
X9988611Y-9997031D02*
X9998134Y-9968460D01*
X9998134Y-9968460D02*
X10007658Y-9920841D01*
X10007658Y-9920841D02*
X10007658Y-9882746D01*
X10007658Y-9882746D02*
X9998134Y-9835127D01*
X9998134Y-9835127D02*
X9988611Y-9806555D01*
X9988611Y-9806555D02*
X9979087Y-9787508D01*
X9979087Y-9787508D02*
X9960039Y-9758936D01*
X9960039Y-9758936D02*
X9950515Y-9749412D01*
D13*
X4739500Y-10205500D02*
X4794500Y-10150500D01*
X4739500Y-10095500D01*
X4684500Y-10150500D01*
X4739500Y-10205500D01*
D11*
X5160039Y-10241984D02*
X5045753Y-10241984D01*
X5102896Y-10241984D02*
X5102896Y-10041984D01*
X5102896Y-10041984D02*
X5083848Y-10070555D01*
X5083848Y-10070555D02*
X5064801Y-10089603D01*
X5064801Y-10089603D02*
X5045753Y-10099127D01*
X5245753Y-10222936D02*
X5255277Y-10232460D01*
X5255277Y-10232460D02*
X5245753Y-10241984D01*
X5245753Y-10241984D02*
X5236229Y-10232460D01*
X5236229Y-10232460D02*
X5245753Y-10222936D01*
X5245753Y-10222936D02*
X5245753Y-10241984D01*
X5445753Y-10241984D02*
X5331467Y-10241984D01*
X5388610Y-10241984D02*
X5388610Y-10041984D01*
X5388610Y-10041984D02*
X5369563Y-10070555D01*
X5369563Y-10070555D02*
X5350515Y-10089603D01*
X5350515Y-10089603D02*
X5331467Y-10099127D01*
X5569563Y-10041984D02*
X5588610Y-10041984D01*
X5588610Y-10041984D02*
X5607658Y-10051508D01*
X5607658Y-10051508D02*
X5617182Y-10061031D01*
X5617182Y-10061031D02*
X5626705Y-10080079D01*
X5626705Y-10080079D02*
X5636229Y-10118174D01*
X5636229Y-10118174D02*
X5636229Y-10165793D01*
X5636229Y-10165793D02*
X5626705Y-10203889D01*
X5626705Y-10203889D02*
X5617182Y-10222936D01*
X5617182Y-10222936D02*
X5607658Y-10232460D01*
X5607658Y-10232460D02*
X5588610Y-10241984D01*
X5588610Y-10241984D02*
X5569563Y-10241984D01*
X5569563Y-10241984D02*
X5550515Y-10232460D01*
X5550515Y-10232460D02*
X5540991Y-10222936D01*
X5540991Y-10222936D02*
X5531467Y-10203889D01*
X5531467Y-10203889D02*
X5521944Y-10165793D01*
X5521944Y-10165793D02*
X5521944Y-10118174D01*
X5521944Y-10118174D02*
X5531467Y-10080079D01*
X5531467Y-10080079D02*
X5540991Y-10061031D01*
X5540991Y-10061031D02*
X5550515Y-10051508D01*
X5550515Y-10051508D02*
X5569563Y-10041984D01*
X5760039Y-10041984D02*
X5779086Y-10041984D01*
X5779086Y-10041984D02*
X5798134Y-10051508D01*
X5798134Y-10051508D02*
X5807658Y-10061031D01*
X5807658Y-10061031D02*
X5817182Y-10080079D01*
X5817182Y-10080079D02*
X5826705Y-10118174D01*
X5826705Y-10118174D02*
X5826705Y-10165793D01*
X5826705Y-10165793D02*
X5817182Y-10203889D01*
X5817182Y-10203889D02*
X5807658Y-10222936D01*
X5807658Y-10222936D02*
X5798134Y-10232460D01*
X5798134Y-10232460D02*
X5779086Y-10241984D01*
X5779086Y-10241984D02*
X5760039Y-10241984D01*
X5760039Y-10241984D02*
X5740991Y-10232460D01*
X5740991Y-10232460D02*
X5731467Y-10222936D01*
X5731467Y-10222936D02*
X5721943Y-10203889D01*
X5721943Y-10203889D02*
X5712420Y-10165793D01*
X5712420Y-10165793D02*
X5712420Y-10118174D01*
X5712420Y-10118174D02*
X5721943Y-10080079D01*
X5721943Y-10080079D02*
X5731467Y-10061031D01*
X5731467Y-10061031D02*
X5740991Y-10051508D01*
X5740991Y-10051508D02*
X5760039Y-10041984D01*
X5912420Y-10241984D02*
X5912420Y-10108650D01*
X5912420Y-10127698D02*
X5921943Y-10118174D01*
X5921943Y-10118174D02*
X5940991Y-10108650D01*
X5940991Y-10108650D02*
X5969563Y-10108650D01*
X5969563Y-10108650D02*
X5988610Y-10118174D01*
X5988610Y-10118174D02*
X5998134Y-10137222D01*
X5998134Y-10137222D02*
X5998134Y-10241984D01*
X5998134Y-10137222D02*
X6007658Y-10118174D01*
X6007658Y-10118174D02*
X6026705Y-10108650D01*
X6026705Y-10108650D02*
X6055277Y-10108650D01*
X6055277Y-10108650D02*
X6074324Y-10118174D01*
X6074324Y-10118174D02*
X6083848Y-10137222D01*
X6083848Y-10137222D02*
X6083848Y-10241984D01*
X6179086Y-10241984D02*
X6179086Y-10108650D01*
X6179086Y-10127698D02*
X6188610Y-10118174D01*
X6188610Y-10118174D02*
X6207658Y-10108650D01*
X6207658Y-10108650D02*
X6236229Y-10108650D01*
X6236229Y-10108650D02*
X6255277Y-10118174D01*
X6255277Y-10118174D02*
X6264801Y-10137222D01*
X6264801Y-10137222D02*
X6264801Y-10241984D01*
X6264801Y-10137222D02*
X6274324Y-10118174D01*
X6274324Y-10118174D02*
X6293372Y-10108650D01*
X6293372Y-10108650D02*
X6321943Y-10108650D01*
X6321943Y-10108650D02*
X6340991Y-10118174D01*
X6340991Y-10118174D02*
X6350515Y-10137222D01*
X6350515Y-10137222D02*
X6350515Y-10241984D01*
X6740991Y-10032460D02*
X6569563Y-10289603D01*
X6998134Y-10041984D02*
X7017182Y-10041984D01*
X7017182Y-10041984D02*
X7036229Y-10051508D01*
X7036229Y-10051508D02*
X7045753Y-10061031D01*
X7045753Y-10061031D02*
X7055277Y-10080079D01*
X7055277Y-10080079D02*
X7064801Y-10118174D01*
X7064801Y-10118174D02*
X7064801Y-10165793D01*
X7064801Y-10165793D02*
X7055277Y-10203889D01*
X7055277Y-10203889D02*
X7045753Y-10222936D01*
X7045753Y-10222936D02*
X7036229Y-10232460D01*
X7036229Y-10232460D02*
X7017182Y-10241984D01*
X7017182Y-10241984D02*
X6998134Y-10241984D01*
X6998134Y-10241984D02*
X6979086Y-10232460D01*
X6979086Y-10232460D02*
X6969563Y-10222936D01*
X6969563Y-10222936D02*
X6960039Y-10203889D01*
X6960039Y-10203889D02*
X6950515Y-10165793D01*
X6950515Y-10165793D02*
X6950515Y-10118174D01*
X6950515Y-10118174D02*
X6960039Y-10080079D01*
X6960039Y-10080079D02*
X6969563Y-10061031D01*
X6969563Y-10061031D02*
X6979086Y-10051508D01*
X6979086Y-10051508D02*
X6998134Y-10041984D01*
X7150515Y-10222936D02*
X7160039Y-10232460D01*
X7160039Y-10232460D02*
X7150515Y-10241984D01*
X7150515Y-10241984D02*
X7140991Y-10232460D01*
X7140991Y-10232460D02*
X7150515Y-10222936D01*
X7150515Y-10222936D02*
X7150515Y-10241984D01*
X7283848Y-10041984D02*
X7302896Y-10041984D01*
X7302896Y-10041984D02*
X7321944Y-10051508D01*
X7321944Y-10051508D02*
X7331467Y-10061031D01*
X7331467Y-10061031D02*
X7340991Y-10080079D01*
X7340991Y-10080079D02*
X7350515Y-10118174D01*
X7350515Y-10118174D02*
X7350515Y-10165793D01*
X7350515Y-10165793D02*
X7340991Y-10203889D01*
X7340991Y-10203889D02*
X7331467Y-10222936D01*
X7331467Y-10222936D02*
X7321944Y-10232460D01*
X7321944Y-10232460D02*
X7302896Y-10241984D01*
X7302896Y-10241984D02*
X7283848Y-10241984D01*
X7283848Y-10241984D02*
X7264801Y-10232460D01*
X7264801Y-10232460D02*
X7255277Y-10222936D01*
X7255277Y-10222936D02*
X7245753Y-10203889D01*
X7245753Y-10203889D02*
X7236229Y-10165793D01*
X7236229Y-10165793D02*
X7236229Y-10118174D01*
X7236229Y-10118174D02*
X7245753Y-10080079D01*
X7245753Y-10080079D02*
X7255277Y-10061031D01*
X7255277Y-10061031D02*
X7264801Y-10051508D01*
X7264801Y-10051508D02*
X7283848Y-10041984D01*
X7521944Y-10108650D02*
X7521944Y-10241984D01*
X7474325Y-10032460D02*
X7426706Y-10175317D01*
X7426706Y-10175317D02*
X7550515Y-10175317D01*
X7607658Y-10041984D02*
X7731467Y-10041984D01*
X7731467Y-10041984D02*
X7664801Y-10118174D01*
X7664801Y-10118174D02*
X7693372Y-10118174D01*
X7693372Y-10118174D02*
X7712420Y-10127698D01*
X7712420Y-10127698D02*
X7721944Y-10137222D01*
X7721944Y-10137222D02*
X7731467Y-10156270D01*
X7731467Y-10156270D02*
X7731467Y-10203889D01*
X7731467Y-10203889D02*
X7721944Y-10222936D01*
X7721944Y-10222936D02*
X7712420Y-10232460D01*
X7712420Y-10232460D02*
X7693372Y-10241984D01*
X7693372Y-10241984D02*
X7636229Y-10241984D01*
X7636229Y-10241984D02*
X7617182Y-10232460D01*
X7617182Y-10232460D02*
X7607658Y-10222936D01*
X7798134Y-10041984D02*
X7921944Y-10041984D01*
X7921944Y-10041984D02*
X7855277Y-10118174D01*
X7855277Y-10118174D02*
X7883848Y-10118174D01*
X7883848Y-10118174D02*
X7902896Y-10127698D01*
X7902896Y-10127698D02*
X7912420Y-10137222D01*
X7912420Y-10137222D02*
X7921944Y-10156270D01*
X7921944Y-10156270D02*
X7921944Y-10203889D01*
X7921944Y-10203889D02*
X7912420Y-10222936D01*
X7912420Y-10222936D02*
X7902896Y-10232460D01*
X7902896Y-10232460D02*
X7883848Y-10241984D01*
X7883848Y-10241984D02*
X7826706Y-10241984D01*
X7826706Y-10241984D02*
X7807658Y-10232460D01*
X7807658Y-10232460D02*
X7798134Y-10222936D01*
X7998134Y-10041984D02*
X7998134Y-10080079D01*
X8074325Y-10041984D02*
X8074325Y-10080079D01*
X8369563Y-10318174D02*
X8360039Y-10308650D01*
X8360039Y-10308650D02*
X8340991Y-10280079D01*
X8340991Y-10280079D02*
X8331468Y-10261031D01*
X8331468Y-10261031D02*
X8321944Y-10232460D01*
X8321944Y-10232460D02*
X8312420Y-10184841D01*
X8312420Y-10184841D02*
X8312420Y-10146746D01*
X8312420Y-10146746D02*
X8321944Y-10099127D01*
X8321944Y-10099127D02*
X8331468Y-10070555D01*
X8331468Y-10070555D02*
X8340991Y-10051508D01*
X8340991Y-10051508D02*
X8360039Y-10022936D01*
X8360039Y-10022936D02*
X8369563Y-10013412D01*
X8436230Y-10061031D02*
X8445753Y-10051508D01*
X8445753Y-10051508D02*
X8464801Y-10041984D01*
X8464801Y-10041984D02*
X8512420Y-10041984D01*
X8512420Y-10041984D02*
X8531468Y-10051508D01*
X8531468Y-10051508D02*
X8540991Y-10061031D01*
X8540991Y-10061031D02*
X8550515Y-10080079D01*
X8550515Y-10080079D02*
X8550515Y-10099127D01*
X8550515Y-10099127D02*
X8540991Y-10127698D01*
X8540991Y-10127698D02*
X8426706Y-10241984D01*
X8426706Y-10241984D02*
X8550515Y-10241984D01*
X8788611Y-10241984D02*
X8788611Y-10041984D01*
X8874325Y-10241984D02*
X8874325Y-10137222D01*
X8874325Y-10137222D02*
X8864801Y-10118174D01*
X8864801Y-10118174D02*
X8845753Y-10108650D01*
X8845753Y-10108650D02*
X8817182Y-10108650D01*
X8817182Y-10108650D02*
X8798134Y-10118174D01*
X8798134Y-10118174D02*
X8788611Y-10127698D01*
X8998134Y-10241984D02*
X8979087Y-10232460D01*
X8979087Y-10232460D02*
X8969563Y-10222936D01*
X8969563Y-10222936D02*
X8960039Y-10203889D01*
X8960039Y-10203889D02*
X8960039Y-10146746D01*
X8960039Y-10146746D02*
X8969563Y-10127698D01*
X8969563Y-10127698D02*
X8979087Y-10118174D01*
X8979087Y-10118174D02*
X8998134Y-10108650D01*
X8998134Y-10108650D02*
X9026706Y-10108650D01*
X9026706Y-10108650D02*
X9045753Y-10118174D01*
X9045753Y-10118174D02*
X9055277Y-10127698D01*
X9055277Y-10127698D02*
X9064801Y-10146746D01*
X9064801Y-10146746D02*
X9064801Y-10203889D01*
X9064801Y-10203889D02*
X9055277Y-10222936D01*
X9055277Y-10222936D02*
X9045753Y-10232460D01*
X9045753Y-10232460D02*
X9026706Y-10241984D01*
X9026706Y-10241984D02*
X8998134Y-10241984D01*
X9179087Y-10241984D02*
X9160039Y-10232460D01*
X9160039Y-10232460D02*
X9150515Y-10213412D01*
X9150515Y-10213412D02*
X9150515Y-10041984D01*
X9331468Y-10232460D02*
X9312420Y-10241984D01*
X9312420Y-10241984D02*
X9274325Y-10241984D01*
X9274325Y-10241984D02*
X9255277Y-10232460D01*
X9255277Y-10232460D02*
X9245753Y-10213412D01*
X9245753Y-10213412D02*
X9245753Y-10137222D01*
X9245753Y-10137222D02*
X9255277Y-10118174D01*
X9255277Y-10118174D02*
X9274325Y-10108650D01*
X9274325Y-10108650D02*
X9312420Y-10108650D01*
X9312420Y-10108650D02*
X9331468Y-10118174D01*
X9331468Y-10118174D02*
X9340992Y-10137222D01*
X9340992Y-10137222D02*
X9340992Y-10156270D01*
X9340992Y-10156270D02*
X9245753Y-10175317D01*
X9417182Y-10232460D02*
X9436230Y-10241984D01*
X9436230Y-10241984D02*
X9474325Y-10241984D01*
X9474325Y-10241984D02*
X9493373Y-10232460D01*
X9493373Y-10232460D02*
X9502896Y-10213412D01*
X9502896Y-10213412D02*
X9502896Y-10203889D01*
X9502896Y-10203889D02*
X9493373Y-10184841D01*
X9493373Y-10184841D02*
X9474325Y-10175317D01*
X9474325Y-10175317D02*
X9445753Y-10175317D01*
X9445753Y-10175317D02*
X9426706Y-10165793D01*
X9426706Y-10165793D02*
X9417182Y-10146746D01*
X9417182Y-10146746D02*
X9417182Y-10137222D01*
X9417182Y-10137222D02*
X9426706Y-10118174D01*
X9426706Y-10118174D02*
X9445753Y-10108650D01*
X9445753Y-10108650D02*
X9474325Y-10108650D01*
X9474325Y-10108650D02*
X9493373Y-10118174D01*
X9569563Y-10318174D02*
X9579087Y-10308650D01*
X9579087Y-10308650D02*
X9598134Y-10280079D01*
X9598134Y-10280079D02*
X9607658Y-10261031D01*
X9607658Y-10261031D02*
X9617182Y-10232460D01*
X9617182Y-10232460D02*
X9626706Y-10184841D01*
X9626706Y-10184841D02*
X9626706Y-10146746D01*
X9626706Y-10146746D02*
X9617182Y-10099127D01*
X9617182Y-10099127D02*
X9607658Y-10070555D01*
X9607658Y-10070555D02*
X9598134Y-10051508D01*
X9598134Y-10051508D02*
X9579087Y-10022936D01*
X9579087Y-10022936D02*
X9569563Y-10013412D01*
D14*
X4664500Y-10349500D02*
X4794500Y-10479500D01*
X4794500Y-10349500D02*
X4664500Y-10479500D01*
X4794500Y-10414500D02*
G75*
G02*
X4664500Y-10414500I-65000J0D01*
G01*
X4664500Y-10414500D02*
G75*
G02*
X4794500Y-10414500I65000J0D01*
G01*
D11*
X5160039Y-10505984D02*
X5045753Y-10505984D01*
X5102896Y-10505984D02*
X5102896Y-10305984D01*
X5102896Y-10305984D02*
X5083848Y-10334555D01*
X5083848Y-10334555D02*
X5064801Y-10353603D01*
X5064801Y-10353603D02*
X5045753Y-10363127D01*
X5245753Y-10486936D02*
X5255277Y-10496460D01*
X5255277Y-10496460D02*
X5245753Y-10505984D01*
X5245753Y-10505984D02*
X5236229Y-10496460D01*
X5236229Y-10496460D02*
X5245753Y-10486936D01*
X5245753Y-10486936D02*
X5245753Y-10505984D01*
X5321944Y-10305984D02*
X5445753Y-10305984D01*
X5445753Y-10305984D02*
X5379086Y-10382174D01*
X5379086Y-10382174D02*
X5407658Y-10382174D01*
X5407658Y-10382174D02*
X5426705Y-10391698D01*
X5426705Y-10391698D02*
X5436229Y-10401222D01*
X5436229Y-10401222D02*
X5445753Y-10420270D01*
X5445753Y-10420270D02*
X5445753Y-10467889D01*
X5445753Y-10467889D02*
X5436229Y-10486936D01*
X5436229Y-10486936D02*
X5426705Y-10496460D01*
X5426705Y-10496460D02*
X5407658Y-10505984D01*
X5407658Y-10505984D02*
X5350515Y-10505984D01*
X5350515Y-10505984D02*
X5331467Y-10496460D01*
X5331467Y-10496460D02*
X5321944Y-10486936D01*
X5569563Y-10305984D02*
X5588610Y-10305984D01*
X5588610Y-10305984D02*
X5607658Y-10315508D01*
X5607658Y-10315508D02*
X5617182Y-10325031D01*
X5617182Y-10325031D02*
X5626705Y-10344079D01*
X5626705Y-10344079D02*
X5636229Y-10382174D01*
X5636229Y-10382174D02*
X5636229Y-10429793D01*
X5636229Y-10429793D02*
X5626705Y-10467889D01*
X5626705Y-10467889D02*
X5617182Y-10486936D01*
X5617182Y-10486936D02*
X5607658Y-10496460D01*
X5607658Y-10496460D02*
X5588610Y-10505984D01*
X5588610Y-10505984D02*
X5569563Y-10505984D01*
X5569563Y-10505984D02*
X5550515Y-10496460D01*
X5550515Y-10496460D02*
X5540991Y-10486936D01*
X5540991Y-10486936D02*
X5531467Y-10467889D01*
X5531467Y-10467889D02*
X5521944Y-10429793D01*
X5521944Y-10429793D02*
X5521944Y-10382174D01*
X5521944Y-10382174D02*
X5531467Y-10344079D01*
X5531467Y-10344079D02*
X5540991Y-10325031D01*
X5540991Y-10325031D02*
X5550515Y-10315508D01*
X5550515Y-10315508D02*
X5569563Y-10305984D01*
X5760039Y-10305984D02*
X5779086Y-10305984D01*
X5779086Y-10305984D02*
X5798134Y-10315508D01*
X5798134Y-10315508D02*
X5807658Y-10325031D01*
X5807658Y-10325031D02*
X5817182Y-10344079D01*
X5817182Y-10344079D02*
X5826705Y-10382174D01*
X5826705Y-10382174D02*
X5826705Y-10429793D01*
X5826705Y-10429793D02*
X5817182Y-10467889D01*
X5817182Y-10467889D02*
X5807658Y-10486936D01*
X5807658Y-10486936D02*
X5798134Y-10496460D01*
X5798134Y-10496460D02*
X5779086Y-10505984D01*
X5779086Y-10505984D02*
X5760039Y-10505984D01*
X5760039Y-10505984D02*
X5740991Y-10496460D01*
X5740991Y-10496460D02*
X5731467Y-10486936D01*
X5731467Y-10486936D02*
X5721943Y-10467889D01*
X5721943Y-10467889D02*
X5712420Y-10429793D01*
X5712420Y-10429793D02*
X5712420Y-10382174D01*
X5712420Y-10382174D02*
X5721943Y-10344079D01*
X5721943Y-10344079D02*
X5731467Y-10325031D01*
X5731467Y-10325031D02*
X5740991Y-10315508D01*
X5740991Y-10315508D02*
X5760039Y-10305984D01*
X5912420Y-10505984D02*
X5912420Y-10372650D01*
X5912420Y-10391698D02*
X5921943Y-10382174D01*
X5921943Y-10382174D02*
X5940991Y-10372650D01*
X5940991Y-10372650D02*
X5969563Y-10372650D01*
X5969563Y-10372650D02*
X5988610Y-10382174D01*
X5988610Y-10382174D02*
X5998134Y-10401222D01*
X5998134Y-10401222D02*
X5998134Y-10505984D01*
X5998134Y-10401222D02*
X6007658Y-10382174D01*
X6007658Y-10382174D02*
X6026705Y-10372650D01*
X6026705Y-10372650D02*
X6055277Y-10372650D01*
X6055277Y-10372650D02*
X6074324Y-10382174D01*
X6074324Y-10382174D02*
X6083848Y-10401222D01*
X6083848Y-10401222D02*
X6083848Y-10505984D01*
X6179086Y-10505984D02*
X6179086Y-10372650D01*
X6179086Y-10391698D02*
X6188610Y-10382174D01*
X6188610Y-10382174D02*
X6207658Y-10372650D01*
X6207658Y-10372650D02*
X6236229Y-10372650D01*
X6236229Y-10372650D02*
X6255277Y-10382174D01*
X6255277Y-10382174D02*
X6264801Y-10401222D01*
X6264801Y-10401222D02*
X6264801Y-10505984D01*
X6264801Y-10401222D02*
X6274324Y-10382174D01*
X6274324Y-10382174D02*
X6293372Y-10372650D01*
X6293372Y-10372650D02*
X6321943Y-10372650D01*
X6321943Y-10372650D02*
X6340991Y-10382174D01*
X6340991Y-10382174D02*
X6350515Y-10401222D01*
X6350515Y-10401222D02*
X6350515Y-10505984D01*
X6740991Y-10296460D02*
X6569563Y-10553603D01*
X6998134Y-10305984D02*
X7017182Y-10305984D01*
X7017182Y-10305984D02*
X7036229Y-10315508D01*
X7036229Y-10315508D02*
X7045753Y-10325031D01*
X7045753Y-10325031D02*
X7055277Y-10344079D01*
X7055277Y-10344079D02*
X7064801Y-10382174D01*
X7064801Y-10382174D02*
X7064801Y-10429793D01*
X7064801Y-10429793D02*
X7055277Y-10467889D01*
X7055277Y-10467889D02*
X7045753Y-10486936D01*
X7045753Y-10486936D02*
X7036229Y-10496460D01*
X7036229Y-10496460D02*
X7017182Y-10505984D01*
X7017182Y-10505984D02*
X6998134Y-10505984D01*
X6998134Y-10505984D02*
X6979086Y-10496460D01*
X6979086Y-10496460D02*
X6969563Y-10486936D01*
X6969563Y-10486936D02*
X6960039Y-10467889D01*
X6960039Y-10467889D02*
X6950515Y-10429793D01*
X6950515Y-10429793D02*
X6950515Y-10382174D01*
X6950515Y-10382174D02*
X6960039Y-10344079D01*
X6960039Y-10344079D02*
X6969563Y-10325031D01*
X6969563Y-10325031D02*
X6979086Y-10315508D01*
X6979086Y-10315508D02*
X6998134Y-10305984D01*
X7150515Y-10486936D02*
X7160039Y-10496460D01*
X7160039Y-10496460D02*
X7150515Y-10505984D01*
X7150515Y-10505984D02*
X7140991Y-10496460D01*
X7140991Y-10496460D02*
X7150515Y-10486936D01*
X7150515Y-10486936D02*
X7150515Y-10505984D01*
X7283848Y-10305984D02*
X7302896Y-10305984D01*
X7302896Y-10305984D02*
X7321944Y-10315508D01*
X7321944Y-10315508D02*
X7331467Y-10325031D01*
X7331467Y-10325031D02*
X7340991Y-10344079D01*
X7340991Y-10344079D02*
X7350515Y-10382174D01*
X7350515Y-10382174D02*
X7350515Y-10429793D01*
X7350515Y-10429793D02*
X7340991Y-10467889D01*
X7340991Y-10467889D02*
X7331467Y-10486936D01*
X7331467Y-10486936D02*
X7321944Y-10496460D01*
X7321944Y-10496460D02*
X7302896Y-10505984D01*
X7302896Y-10505984D02*
X7283848Y-10505984D01*
X7283848Y-10505984D02*
X7264801Y-10496460D01*
X7264801Y-10496460D02*
X7255277Y-10486936D01*
X7255277Y-10486936D02*
X7245753Y-10467889D01*
X7245753Y-10467889D02*
X7236229Y-10429793D01*
X7236229Y-10429793D02*
X7236229Y-10382174D01*
X7236229Y-10382174D02*
X7245753Y-10344079D01*
X7245753Y-10344079D02*
X7255277Y-10325031D01*
X7255277Y-10325031D02*
X7264801Y-10315508D01*
X7264801Y-10315508D02*
X7283848Y-10305984D01*
X7531467Y-10305984D02*
X7436229Y-10305984D01*
X7436229Y-10305984D02*
X7426706Y-10401222D01*
X7426706Y-10401222D02*
X7436229Y-10391698D01*
X7436229Y-10391698D02*
X7455277Y-10382174D01*
X7455277Y-10382174D02*
X7502896Y-10382174D01*
X7502896Y-10382174D02*
X7521944Y-10391698D01*
X7521944Y-10391698D02*
X7531467Y-10401222D01*
X7531467Y-10401222D02*
X7540991Y-10420270D01*
X7540991Y-10420270D02*
X7540991Y-10467889D01*
X7540991Y-10467889D02*
X7531467Y-10486936D01*
X7531467Y-10486936D02*
X7521944Y-10496460D01*
X7521944Y-10496460D02*
X7502896Y-10505984D01*
X7502896Y-10505984D02*
X7455277Y-10505984D01*
X7455277Y-10505984D02*
X7436229Y-10496460D01*
X7436229Y-10496460D02*
X7426706Y-10486936D01*
X7731467Y-10505984D02*
X7617182Y-10505984D01*
X7674325Y-10505984D02*
X7674325Y-10305984D01*
X7674325Y-10305984D02*
X7655277Y-10334555D01*
X7655277Y-10334555D02*
X7636229Y-10353603D01*
X7636229Y-10353603D02*
X7617182Y-10363127D01*
X7807658Y-10325031D02*
X7817182Y-10315508D01*
X7817182Y-10315508D02*
X7836229Y-10305984D01*
X7836229Y-10305984D02*
X7883848Y-10305984D01*
X7883848Y-10305984D02*
X7902896Y-10315508D01*
X7902896Y-10315508D02*
X7912420Y-10325031D01*
X7912420Y-10325031D02*
X7921944Y-10344079D01*
X7921944Y-10344079D02*
X7921944Y-10363127D01*
X7921944Y-10363127D02*
X7912420Y-10391698D01*
X7912420Y-10391698D02*
X7798134Y-10505984D01*
X7798134Y-10505984D02*
X7921944Y-10505984D01*
X7998134Y-10305984D02*
X7998134Y-10344079D01*
X8074325Y-10305984D02*
X8074325Y-10344079D01*
X8369563Y-10582174D02*
X8360039Y-10572650D01*
X8360039Y-10572650D02*
X8340991Y-10544079D01*
X8340991Y-10544079D02*
X8331468Y-10525031D01*
X8331468Y-10525031D02*
X8321944Y-10496460D01*
X8321944Y-10496460D02*
X8312420Y-10448841D01*
X8312420Y-10448841D02*
X8312420Y-10410746D01*
X8312420Y-10410746D02*
X8321944Y-10363127D01*
X8321944Y-10363127D02*
X8331468Y-10334555D01*
X8331468Y-10334555D02*
X8340991Y-10315508D01*
X8340991Y-10315508D02*
X8360039Y-10286936D01*
X8360039Y-10286936D02*
X8369563Y-10277412D01*
X8436230Y-10325031D02*
X8445753Y-10315508D01*
X8445753Y-10315508D02*
X8464801Y-10305984D01*
X8464801Y-10305984D02*
X8512420Y-10305984D01*
X8512420Y-10305984D02*
X8531468Y-10315508D01*
X8531468Y-10315508D02*
X8540991Y-10325031D01*
X8540991Y-10325031D02*
X8550515Y-10344079D01*
X8550515Y-10344079D02*
X8550515Y-10363127D01*
X8550515Y-10363127D02*
X8540991Y-10391698D01*
X8540991Y-10391698D02*
X8426706Y-10505984D01*
X8426706Y-10505984D02*
X8550515Y-10505984D01*
X8788611Y-10505984D02*
X8788611Y-10305984D01*
X8874325Y-10505984D02*
X8874325Y-10401222D01*
X8874325Y-10401222D02*
X8864801Y-10382174D01*
X8864801Y-10382174D02*
X8845753Y-10372650D01*
X8845753Y-10372650D02*
X8817182Y-10372650D01*
X8817182Y-10372650D02*
X8798134Y-10382174D01*
X8798134Y-10382174D02*
X8788611Y-10391698D01*
X8998134Y-10505984D02*
X8979087Y-10496460D01*
X8979087Y-10496460D02*
X8969563Y-10486936D01*
X8969563Y-10486936D02*
X8960039Y-10467889D01*
X8960039Y-10467889D02*
X8960039Y-10410746D01*
X8960039Y-10410746D02*
X8969563Y-10391698D01*
X8969563Y-10391698D02*
X8979087Y-10382174D01*
X8979087Y-10382174D02*
X8998134Y-10372650D01*
X8998134Y-10372650D02*
X9026706Y-10372650D01*
X9026706Y-10372650D02*
X9045753Y-10382174D01*
X9045753Y-10382174D02*
X9055277Y-10391698D01*
X9055277Y-10391698D02*
X9064801Y-10410746D01*
X9064801Y-10410746D02*
X9064801Y-10467889D01*
X9064801Y-10467889D02*
X9055277Y-10486936D01*
X9055277Y-10486936D02*
X9045753Y-10496460D01*
X9045753Y-10496460D02*
X9026706Y-10505984D01*
X9026706Y-10505984D02*
X8998134Y-10505984D01*
X9179087Y-10505984D02*
X9160039Y-10496460D01*
X9160039Y-10496460D02*
X9150515Y-10477412D01*
X9150515Y-10477412D02*
X9150515Y-10305984D01*
X9331468Y-10496460D02*
X9312420Y-10505984D01*
X9312420Y-10505984D02*
X9274325Y-10505984D01*
X9274325Y-10505984D02*
X9255277Y-10496460D01*
X9255277Y-10496460D02*
X9245753Y-10477412D01*
X9245753Y-10477412D02*
X9245753Y-10401222D01*
X9245753Y-10401222D02*
X9255277Y-10382174D01*
X9255277Y-10382174D02*
X9274325Y-10372650D01*
X9274325Y-10372650D02*
X9312420Y-10372650D01*
X9312420Y-10372650D02*
X9331468Y-10382174D01*
X9331468Y-10382174D02*
X9340992Y-10401222D01*
X9340992Y-10401222D02*
X9340992Y-10420270D01*
X9340992Y-10420270D02*
X9245753Y-10439317D01*
X9417182Y-10496460D02*
X9436230Y-10505984D01*
X9436230Y-10505984D02*
X9474325Y-10505984D01*
X9474325Y-10505984D02*
X9493373Y-10496460D01*
X9493373Y-10496460D02*
X9502896Y-10477412D01*
X9502896Y-10477412D02*
X9502896Y-10467889D01*
X9502896Y-10467889D02*
X9493373Y-10448841D01*
X9493373Y-10448841D02*
X9474325Y-10439317D01*
X9474325Y-10439317D02*
X9445753Y-10439317D01*
X9445753Y-10439317D02*
X9426706Y-10429793D01*
X9426706Y-10429793D02*
X9417182Y-10410746D01*
X9417182Y-10410746D02*
X9417182Y-10401222D01*
X9417182Y-10401222D02*
X9426706Y-10382174D01*
X9426706Y-10382174D02*
X9445753Y-10372650D01*
X9445753Y-10372650D02*
X9474325Y-10372650D01*
X9474325Y-10372650D02*
X9493373Y-10382174D01*
X9569563Y-10582174D02*
X9579087Y-10572650D01*
X9579087Y-10572650D02*
X9598134Y-10544079D01*
X9598134Y-10544079D02*
X9607658Y-10525031D01*
X9607658Y-10525031D02*
X9617182Y-10496460D01*
X9617182Y-10496460D02*
X9626706Y-10448841D01*
X9626706Y-10448841D02*
X9626706Y-10410746D01*
X9626706Y-10410746D02*
X9617182Y-10363127D01*
X9617182Y-10363127D02*
X9607658Y-10334555D01*
X9607658Y-10334555D02*
X9598134Y-10315508D01*
X9598134Y-10315508D02*
X9579087Y-10286936D01*
X9579087Y-10286936D02*
X9569563Y-10277412D01*
X4594500Y-10578500D02*
X4794500Y-10778500D01*
X4794500Y-10578500D02*
X4594500Y-10778500D01*
X4694500Y-10578500D02*
X4694500Y-10778500D01*
X4594500Y-10678500D02*
X4794500Y-10678500D01*
X5036229Y-10569984D02*
X5160039Y-10569984D01*
X5160039Y-10569984D02*
X5093372Y-10646174D01*
X5093372Y-10646174D02*
X5121944Y-10646174D01*
X5121944Y-10646174D02*
X5140991Y-10655698D01*
X5140991Y-10655698D02*
X5150515Y-10665222D01*
X5150515Y-10665222D02*
X5160039Y-10684270D01*
X5160039Y-10684270D02*
X5160039Y-10731889D01*
X5160039Y-10731889D02*
X5150515Y-10750936D01*
X5150515Y-10750936D02*
X5140991Y-10760460D01*
X5140991Y-10760460D02*
X5121944Y-10769984D01*
X5121944Y-10769984D02*
X5064801Y-10769984D01*
X5064801Y-10769984D02*
X5045753Y-10760460D01*
X5045753Y-10760460D02*
X5036229Y-10750936D01*
X5245753Y-10750936D02*
X5255277Y-10760460D01*
X5255277Y-10760460D02*
X5245753Y-10769984D01*
X5245753Y-10769984D02*
X5236229Y-10760460D01*
X5236229Y-10760460D02*
X5245753Y-10750936D01*
X5245753Y-10750936D02*
X5245753Y-10769984D01*
X5331467Y-10589031D02*
X5340991Y-10579508D01*
X5340991Y-10579508D02*
X5360039Y-10569984D01*
X5360039Y-10569984D02*
X5407658Y-10569984D01*
X5407658Y-10569984D02*
X5426705Y-10579508D01*
X5426705Y-10579508D02*
X5436229Y-10589031D01*
X5436229Y-10589031D02*
X5445753Y-10608079D01*
X5445753Y-10608079D02*
X5445753Y-10627127D01*
X5445753Y-10627127D02*
X5436229Y-10655698D01*
X5436229Y-10655698D02*
X5321944Y-10769984D01*
X5321944Y-10769984D02*
X5445753Y-10769984D01*
X5569563Y-10569984D02*
X5588610Y-10569984D01*
X5588610Y-10569984D02*
X5607658Y-10579508D01*
X5607658Y-10579508D02*
X5617182Y-10589031D01*
X5617182Y-10589031D02*
X5626705Y-10608079D01*
X5626705Y-10608079D02*
X5636229Y-10646174D01*
X5636229Y-10646174D02*
X5636229Y-10693793D01*
X5636229Y-10693793D02*
X5626705Y-10731889D01*
X5626705Y-10731889D02*
X5617182Y-10750936D01*
X5617182Y-10750936D02*
X5607658Y-10760460D01*
X5607658Y-10760460D02*
X5588610Y-10769984D01*
X5588610Y-10769984D02*
X5569563Y-10769984D01*
X5569563Y-10769984D02*
X5550515Y-10760460D01*
X5550515Y-10760460D02*
X5540991Y-10750936D01*
X5540991Y-10750936D02*
X5531467Y-10731889D01*
X5531467Y-10731889D02*
X5521944Y-10693793D01*
X5521944Y-10693793D02*
X5521944Y-10646174D01*
X5521944Y-10646174D02*
X5531467Y-10608079D01*
X5531467Y-10608079D02*
X5540991Y-10589031D01*
X5540991Y-10589031D02*
X5550515Y-10579508D01*
X5550515Y-10579508D02*
X5569563Y-10569984D01*
X5760039Y-10569984D02*
X5779086Y-10569984D01*
X5779086Y-10569984D02*
X5798134Y-10579508D01*
X5798134Y-10579508D02*
X5807658Y-10589031D01*
X5807658Y-10589031D02*
X5817182Y-10608079D01*
X5817182Y-10608079D02*
X5826705Y-10646174D01*
X5826705Y-10646174D02*
X5826705Y-10693793D01*
X5826705Y-10693793D02*
X5817182Y-10731889D01*
X5817182Y-10731889D02*
X5807658Y-10750936D01*
X5807658Y-10750936D02*
X5798134Y-10760460D01*
X5798134Y-10760460D02*
X5779086Y-10769984D01*
X5779086Y-10769984D02*
X5760039Y-10769984D01*
X5760039Y-10769984D02*
X5740991Y-10760460D01*
X5740991Y-10760460D02*
X5731467Y-10750936D01*
X5731467Y-10750936D02*
X5721943Y-10731889D01*
X5721943Y-10731889D02*
X5712420Y-10693793D01*
X5712420Y-10693793D02*
X5712420Y-10646174D01*
X5712420Y-10646174D02*
X5721943Y-10608079D01*
X5721943Y-10608079D02*
X5731467Y-10589031D01*
X5731467Y-10589031D02*
X5740991Y-10579508D01*
X5740991Y-10579508D02*
X5760039Y-10569984D01*
X5912420Y-10769984D02*
X5912420Y-10636650D01*
X5912420Y-10655698D02*
X5921943Y-10646174D01*
X5921943Y-10646174D02*
X5940991Y-10636650D01*
X5940991Y-10636650D02*
X5969563Y-10636650D01*
X5969563Y-10636650D02*
X5988610Y-10646174D01*
X5988610Y-10646174D02*
X5998134Y-10665222D01*
X5998134Y-10665222D02*
X5998134Y-10769984D01*
X5998134Y-10665222D02*
X6007658Y-10646174D01*
X6007658Y-10646174D02*
X6026705Y-10636650D01*
X6026705Y-10636650D02*
X6055277Y-10636650D01*
X6055277Y-10636650D02*
X6074324Y-10646174D01*
X6074324Y-10646174D02*
X6083848Y-10665222D01*
X6083848Y-10665222D02*
X6083848Y-10769984D01*
X6179086Y-10769984D02*
X6179086Y-10636650D01*
X6179086Y-10655698D02*
X6188610Y-10646174D01*
X6188610Y-10646174D02*
X6207658Y-10636650D01*
X6207658Y-10636650D02*
X6236229Y-10636650D01*
X6236229Y-10636650D02*
X6255277Y-10646174D01*
X6255277Y-10646174D02*
X6264801Y-10665222D01*
X6264801Y-10665222D02*
X6264801Y-10769984D01*
X6264801Y-10665222D02*
X6274324Y-10646174D01*
X6274324Y-10646174D02*
X6293372Y-10636650D01*
X6293372Y-10636650D02*
X6321943Y-10636650D01*
X6321943Y-10636650D02*
X6340991Y-10646174D01*
X6340991Y-10646174D02*
X6350515Y-10665222D01*
X6350515Y-10665222D02*
X6350515Y-10769984D01*
X6740991Y-10560460D02*
X6569563Y-10817603D01*
X6998134Y-10569984D02*
X7017182Y-10569984D01*
X7017182Y-10569984D02*
X7036229Y-10579508D01*
X7036229Y-10579508D02*
X7045753Y-10589031D01*
X7045753Y-10589031D02*
X7055277Y-10608079D01*
X7055277Y-10608079D02*
X7064801Y-10646174D01*
X7064801Y-10646174D02*
X7064801Y-10693793D01*
X7064801Y-10693793D02*
X7055277Y-10731889D01*
X7055277Y-10731889D02*
X7045753Y-10750936D01*
X7045753Y-10750936D02*
X7036229Y-10760460D01*
X7036229Y-10760460D02*
X7017182Y-10769984D01*
X7017182Y-10769984D02*
X6998134Y-10769984D01*
X6998134Y-10769984D02*
X6979086Y-10760460D01*
X6979086Y-10760460D02*
X6969563Y-10750936D01*
X6969563Y-10750936D02*
X6960039Y-10731889D01*
X6960039Y-10731889D02*
X6950515Y-10693793D01*
X6950515Y-10693793D02*
X6950515Y-10646174D01*
X6950515Y-10646174D02*
X6960039Y-10608079D01*
X6960039Y-10608079D02*
X6969563Y-10589031D01*
X6969563Y-10589031D02*
X6979086Y-10579508D01*
X6979086Y-10579508D02*
X6998134Y-10569984D01*
X7150515Y-10750936D02*
X7160039Y-10760460D01*
X7160039Y-10760460D02*
X7150515Y-10769984D01*
X7150515Y-10769984D02*
X7140991Y-10760460D01*
X7140991Y-10760460D02*
X7150515Y-10750936D01*
X7150515Y-10750936D02*
X7150515Y-10769984D01*
X7350515Y-10769984D02*
X7236229Y-10769984D01*
X7293372Y-10769984D02*
X7293372Y-10569984D01*
X7293372Y-10569984D02*
X7274325Y-10598555D01*
X7274325Y-10598555D02*
X7255277Y-10617603D01*
X7255277Y-10617603D02*
X7236229Y-10627127D01*
X7426706Y-10589031D02*
X7436229Y-10579508D01*
X7436229Y-10579508D02*
X7455277Y-10569984D01*
X7455277Y-10569984D02*
X7502896Y-10569984D01*
X7502896Y-10569984D02*
X7521944Y-10579508D01*
X7521944Y-10579508D02*
X7531467Y-10589031D01*
X7531467Y-10589031D02*
X7540991Y-10608079D01*
X7540991Y-10608079D02*
X7540991Y-10627127D01*
X7540991Y-10627127D02*
X7531467Y-10655698D01*
X7531467Y-10655698D02*
X7417182Y-10769984D01*
X7417182Y-10769984D02*
X7540991Y-10769984D01*
X7712420Y-10569984D02*
X7674325Y-10569984D01*
X7674325Y-10569984D02*
X7655277Y-10579508D01*
X7655277Y-10579508D02*
X7645753Y-10589031D01*
X7645753Y-10589031D02*
X7626706Y-10617603D01*
X7626706Y-10617603D02*
X7617182Y-10655698D01*
X7617182Y-10655698D02*
X7617182Y-10731889D01*
X7617182Y-10731889D02*
X7626706Y-10750936D01*
X7626706Y-10750936D02*
X7636229Y-10760460D01*
X7636229Y-10760460D02*
X7655277Y-10769984D01*
X7655277Y-10769984D02*
X7693372Y-10769984D01*
X7693372Y-10769984D02*
X7712420Y-10760460D01*
X7712420Y-10760460D02*
X7721944Y-10750936D01*
X7721944Y-10750936D02*
X7731467Y-10731889D01*
X7731467Y-10731889D02*
X7731467Y-10684270D01*
X7731467Y-10684270D02*
X7721944Y-10665222D01*
X7721944Y-10665222D02*
X7712420Y-10655698D01*
X7712420Y-10655698D02*
X7693372Y-10646174D01*
X7693372Y-10646174D02*
X7655277Y-10646174D01*
X7655277Y-10646174D02*
X7636229Y-10655698D01*
X7636229Y-10655698D02*
X7626706Y-10665222D01*
X7626706Y-10665222D02*
X7617182Y-10684270D01*
X7855277Y-10569984D02*
X7874325Y-10569984D01*
X7874325Y-10569984D02*
X7893372Y-10579508D01*
X7893372Y-10579508D02*
X7902896Y-10589031D01*
X7902896Y-10589031D02*
X7912420Y-10608079D01*
X7912420Y-10608079D02*
X7921944Y-10646174D01*
X7921944Y-10646174D02*
X7921944Y-10693793D01*
X7921944Y-10693793D02*
X7912420Y-10731889D01*
X7912420Y-10731889D02*
X7902896Y-10750936D01*
X7902896Y-10750936D02*
X7893372Y-10760460D01*
X7893372Y-10760460D02*
X7874325Y-10769984D01*
X7874325Y-10769984D02*
X7855277Y-10769984D01*
X7855277Y-10769984D02*
X7836229Y-10760460D01*
X7836229Y-10760460D02*
X7826706Y-10750936D01*
X7826706Y-10750936D02*
X7817182Y-10731889D01*
X7817182Y-10731889D02*
X7807658Y-10693793D01*
X7807658Y-10693793D02*
X7807658Y-10646174D01*
X7807658Y-10646174D02*
X7817182Y-10608079D01*
X7817182Y-10608079D02*
X7826706Y-10589031D01*
X7826706Y-10589031D02*
X7836229Y-10579508D01*
X7836229Y-10579508D02*
X7855277Y-10569984D01*
X7998134Y-10569984D02*
X7998134Y-10608079D01*
X8074325Y-10569984D02*
X8074325Y-10608079D01*
X8369563Y-10846174D02*
X8360039Y-10836650D01*
X8360039Y-10836650D02*
X8340991Y-10808079D01*
X8340991Y-10808079D02*
X8331468Y-10789031D01*
X8331468Y-10789031D02*
X8321944Y-10760460D01*
X8321944Y-10760460D02*
X8312420Y-10712841D01*
X8312420Y-10712841D02*
X8312420Y-10674746D01*
X8312420Y-10674746D02*
X8321944Y-10627127D01*
X8321944Y-10627127D02*
X8331468Y-10598555D01*
X8331468Y-10598555D02*
X8340991Y-10579508D01*
X8340991Y-10579508D02*
X8360039Y-10550936D01*
X8360039Y-10550936D02*
X8369563Y-10541412D01*
X8426706Y-10569984D02*
X8550515Y-10569984D01*
X8550515Y-10569984D02*
X8483849Y-10646174D01*
X8483849Y-10646174D02*
X8512420Y-10646174D01*
X8512420Y-10646174D02*
X8531468Y-10655698D01*
X8531468Y-10655698D02*
X8540991Y-10665222D01*
X8540991Y-10665222D02*
X8550515Y-10684270D01*
X8550515Y-10684270D02*
X8550515Y-10731889D01*
X8550515Y-10731889D02*
X8540991Y-10750936D01*
X8540991Y-10750936D02*
X8531468Y-10760460D01*
X8531468Y-10760460D02*
X8512420Y-10769984D01*
X8512420Y-10769984D02*
X8455277Y-10769984D01*
X8455277Y-10769984D02*
X8436230Y-10760460D01*
X8436230Y-10760460D02*
X8426706Y-10750936D01*
X8788611Y-10769984D02*
X8788611Y-10569984D01*
X8874325Y-10769984D02*
X8874325Y-10665222D01*
X8874325Y-10665222D02*
X8864801Y-10646174D01*
X8864801Y-10646174D02*
X8845753Y-10636650D01*
X8845753Y-10636650D02*
X8817182Y-10636650D01*
X8817182Y-10636650D02*
X8798134Y-10646174D01*
X8798134Y-10646174D02*
X8788611Y-10655698D01*
X8998134Y-10769984D02*
X8979087Y-10760460D01*
X8979087Y-10760460D02*
X8969563Y-10750936D01*
X8969563Y-10750936D02*
X8960039Y-10731889D01*
X8960039Y-10731889D02*
X8960039Y-10674746D01*
X8960039Y-10674746D02*
X8969563Y-10655698D01*
X8969563Y-10655698D02*
X8979087Y-10646174D01*
X8979087Y-10646174D02*
X8998134Y-10636650D01*
X8998134Y-10636650D02*
X9026706Y-10636650D01*
X9026706Y-10636650D02*
X9045753Y-10646174D01*
X9045753Y-10646174D02*
X9055277Y-10655698D01*
X9055277Y-10655698D02*
X9064801Y-10674746D01*
X9064801Y-10674746D02*
X9064801Y-10731889D01*
X9064801Y-10731889D02*
X9055277Y-10750936D01*
X9055277Y-10750936D02*
X9045753Y-10760460D01*
X9045753Y-10760460D02*
X9026706Y-10769984D01*
X9026706Y-10769984D02*
X8998134Y-10769984D01*
X9179087Y-10769984D02*
X9160039Y-10760460D01*
X9160039Y-10760460D02*
X9150515Y-10741412D01*
X9150515Y-10741412D02*
X9150515Y-10569984D01*
X9331468Y-10760460D02*
X9312420Y-10769984D01*
X9312420Y-10769984D02*
X9274325Y-10769984D01*
X9274325Y-10769984D02*
X9255277Y-10760460D01*
X9255277Y-10760460D02*
X9245753Y-10741412D01*
X9245753Y-10741412D02*
X9245753Y-10665222D01*
X9245753Y-10665222D02*
X9255277Y-10646174D01*
X9255277Y-10646174D02*
X9274325Y-10636650D01*
X9274325Y-10636650D02*
X9312420Y-10636650D01*
X9312420Y-10636650D02*
X9331468Y-10646174D01*
X9331468Y-10646174D02*
X9340992Y-10665222D01*
X9340992Y-10665222D02*
X9340992Y-10684270D01*
X9340992Y-10684270D02*
X9245753Y-10703317D01*
X9417182Y-10760460D02*
X9436230Y-10769984D01*
X9436230Y-10769984D02*
X9474325Y-10769984D01*
X9474325Y-10769984D02*
X9493373Y-10760460D01*
X9493373Y-10760460D02*
X9502896Y-10741412D01*
X9502896Y-10741412D02*
X9502896Y-10731889D01*
X9502896Y-10731889D02*
X9493373Y-10712841D01*
X9493373Y-10712841D02*
X9474325Y-10703317D01*
X9474325Y-10703317D02*
X9445753Y-10703317D01*
X9445753Y-10703317D02*
X9426706Y-10693793D01*
X9426706Y-10693793D02*
X9417182Y-10674746D01*
X9417182Y-10674746D02*
X9417182Y-10665222D01*
X9417182Y-10665222D02*
X9426706Y-10646174D01*
X9426706Y-10646174D02*
X9445753Y-10636650D01*
X9445753Y-10636650D02*
X9474325Y-10636650D01*
X9474325Y-10636650D02*
X9493373Y-10646174D01*
X9569563Y-10846174D02*
X9579087Y-10836650D01*
X9579087Y-10836650D02*
X9598134Y-10808079D01*
X9598134Y-10808079D02*
X9607658Y-10789031D01*
X9607658Y-10789031D02*
X9617182Y-10760460D01*
X9617182Y-10760460D02*
X9626706Y-10712841D01*
X9626706Y-10712841D02*
X9626706Y-10674746D01*
X9626706Y-10674746D02*
X9617182Y-10627127D01*
X9617182Y-10627127D02*
X9607658Y-10598555D01*
X9607658Y-10598555D02*
X9598134Y-10579508D01*
X9598134Y-10579508D02*
X9579087Y-10550936D01*
X9579087Y-10550936D02*
X9569563Y-10541412D01*
M02*
