%TF.GenerationSoftware,KiCad,Pcbnew,8.0.3-8.0.3-0~ubuntu20.04.1*%
%TF.CreationDate,2024-07-06T21:01:15-06:00*%
%TF.ProjectId,z80 RPM,7a383020-5250-44d2-9e6b-696361645f70,rev?*%
%TF.SameCoordinates,Original*%
%TF.FileFunction,Drillmap*%
%TF.FilePolarity,Positive*%
%FSLAX45Y45*%
G04 Gerber Fmt 4.5, Leading zero omitted, Abs format (unit mm)*
G04 Created by KiCad (PCBNEW 8.0.3-8.0.3-0~ubuntu20.04.1) date 2024-07-06 21:01:15*
%MOMM*%
%LPD*%
G01*
G04 APERTURE LIST*
%ADD10C,0.050000*%
%ADD11C,0.200000*%
G04 APERTURE END LIST*
D10*
X10922000Y-12192000D02*
X19812000Y-12192000D01*
X19812000Y-6477000D02*
X10922000Y-6477000D01*
X10922000Y-6477000D02*
X10922000Y-12192000D01*
X19812000Y-12192000D02*
X19812000Y-6477000D01*
D11*
X11180277Y-12505984D02*
X11180277Y-12305984D01*
X11180277Y-12305984D02*
X11227896Y-12305984D01*
X11227896Y-12305984D02*
X11256467Y-12315508D01*
X11256467Y-12315508D02*
X11275515Y-12334555D01*
X11275515Y-12334555D02*
X11285039Y-12353603D01*
X11285039Y-12353603D02*
X11294562Y-12391698D01*
X11294562Y-12391698D02*
X11294562Y-12420269D01*
X11294562Y-12420269D02*
X11285039Y-12458365D01*
X11285039Y-12458365D02*
X11275515Y-12477412D01*
X11275515Y-12477412D02*
X11256467Y-12496460D01*
X11256467Y-12496460D02*
X11227896Y-12505984D01*
X11227896Y-12505984D02*
X11180277Y-12505984D01*
X11380277Y-12505984D02*
X11380277Y-12372650D01*
X11380277Y-12410746D02*
X11389801Y-12391698D01*
X11389801Y-12391698D02*
X11399324Y-12382174D01*
X11399324Y-12382174D02*
X11418372Y-12372650D01*
X11418372Y-12372650D02*
X11437420Y-12372650D01*
X11504086Y-12505984D02*
X11504086Y-12372650D01*
X11504086Y-12305984D02*
X11494562Y-12315508D01*
X11494562Y-12315508D02*
X11504086Y-12325031D01*
X11504086Y-12325031D02*
X11513610Y-12315508D01*
X11513610Y-12315508D02*
X11504086Y-12305984D01*
X11504086Y-12305984D02*
X11504086Y-12325031D01*
X11627896Y-12505984D02*
X11608848Y-12496460D01*
X11608848Y-12496460D02*
X11599324Y-12477412D01*
X11599324Y-12477412D02*
X11599324Y-12305984D01*
X11732658Y-12505984D02*
X11713610Y-12496460D01*
X11713610Y-12496460D02*
X11704086Y-12477412D01*
X11704086Y-12477412D02*
X11704086Y-12305984D01*
X11961229Y-12505984D02*
X11961229Y-12305984D01*
X11961229Y-12305984D02*
X12027896Y-12448841D01*
X12027896Y-12448841D02*
X12094562Y-12305984D01*
X12094562Y-12305984D02*
X12094562Y-12505984D01*
X12275515Y-12505984D02*
X12275515Y-12401222D01*
X12275515Y-12401222D02*
X12265991Y-12382174D01*
X12265991Y-12382174D02*
X12246943Y-12372650D01*
X12246943Y-12372650D02*
X12208848Y-12372650D01*
X12208848Y-12372650D02*
X12189801Y-12382174D01*
X12275515Y-12496460D02*
X12256467Y-12505984D01*
X12256467Y-12505984D02*
X12208848Y-12505984D01*
X12208848Y-12505984D02*
X12189801Y-12496460D01*
X12189801Y-12496460D02*
X12180277Y-12477412D01*
X12180277Y-12477412D02*
X12180277Y-12458365D01*
X12180277Y-12458365D02*
X12189801Y-12439317D01*
X12189801Y-12439317D02*
X12208848Y-12429793D01*
X12208848Y-12429793D02*
X12256467Y-12429793D01*
X12256467Y-12429793D02*
X12275515Y-12420269D01*
X12370753Y-12372650D02*
X12370753Y-12572650D01*
X12370753Y-12382174D02*
X12389801Y-12372650D01*
X12389801Y-12372650D02*
X12427896Y-12372650D01*
X12427896Y-12372650D02*
X12446943Y-12382174D01*
X12446943Y-12382174D02*
X12456467Y-12391698D01*
X12456467Y-12391698D02*
X12465991Y-12410746D01*
X12465991Y-12410746D02*
X12465991Y-12467888D01*
X12465991Y-12467888D02*
X12456467Y-12486936D01*
X12456467Y-12486936D02*
X12446943Y-12496460D01*
X12446943Y-12496460D02*
X12427896Y-12505984D01*
X12427896Y-12505984D02*
X12389801Y-12505984D01*
X12389801Y-12505984D02*
X12370753Y-12496460D01*
X12551705Y-12486936D02*
X12561229Y-12496460D01*
X12561229Y-12496460D02*
X12551705Y-12505984D01*
X12551705Y-12505984D02*
X12542182Y-12496460D01*
X12542182Y-12496460D02*
X12551705Y-12486936D01*
X12551705Y-12486936D02*
X12551705Y-12505984D01*
X12551705Y-12382174D02*
X12561229Y-12391698D01*
X12561229Y-12391698D02*
X12551705Y-12401222D01*
X12551705Y-12401222D02*
X12542182Y-12391698D01*
X12542182Y-12391698D02*
X12551705Y-12382174D01*
X12551705Y-12382174D02*
X12551705Y-12401222D01*
M02*
