G04 #@! TF.GenerationSoftware,KiCad,Pcbnew,8.0.3-8.0.3-0~ubuntu20.04.1*
G04 #@! TF.CreationDate,2024-07-06T21:00:39-06:00*
G04 #@! TF.ProjectId,z80 RPM,7a383020-5250-44d2-9e6b-696361645f70,rev?*
G04 #@! TF.SameCoordinates,Original*
G04 #@! TF.FileFunction,Legend,Bot*
G04 #@! TF.FilePolarity,Positive*
%FSLAX46Y46*%
G04 Gerber Fmt 4.6, Leading zero omitted, Abs format (unit mm)*
G04 Created by KiCad (PCBNEW 8.0.3-8.0.3-0~ubuntu20.04.1) date 2024-07-06 21:00:39*
%MOMM*%
%LPD*%
G01*
G04 APERTURE LIST*
%ADD10C,0.150000*%
%ADD11R,1.700000X1.700000*%
%ADD12O,1.700000X1.700000*%
%ADD13R,2.000000X1.440000*%
%ADD14O,2.000000X1.440000*%
%ADD15R,1.600000X1.600000*%
%ADD16C,1.600000*%
%ADD17O,1.600000X1.600000*%
%ADD18R,2.200000X2.200000*%
%ADD19O,2.200000X2.200000*%
%ADD20C,3.600000*%
%ADD21C,5.600000*%
%ADD22C,2.100000*%
%ADD23C,1.750000*%
G04 APERTURE END LIST*
D10*
X116852506Y-120154819D02*
X116852506Y-120869104D01*
X116852506Y-120869104D02*
X116900125Y-121011961D01*
X116900125Y-121011961D02*
X116995363Y-121107200D01*
X116995363Y-121107200D02*
X117138220Y-121154819D01*
X117138220Y-121154819D02*
X117233458Y-121154819D01*
X115947744Y-120488152D02*
X115947744Y-121154819D01*
X116376315Y-120488152D02*
X116376315Y-121011961D01*
X116376315Y-121011961D02*
X116328696Y-121107200D01*
X116328696Y-121107200D02*
X116233458Y-121154819D01*
X116233458Y-121154819D02*
X116090601Y-121154819D01*
X116090601Y-121154819D02*
X115995363Y-121107200D01*
X115995363Y-121107200D02*
X115947744Y-121059580D01*
X115471553Y-120488152D02*
X115471553Y-121154819D01*
X115471553Y-120583390D02*
X115423934Y-120535771D01*
X115423934Y-120535771D02*
X115328696Y-120488152D01*
X115328696Y-120488152D02*
X115185839Y-120488152D01*
X115185839Y-120488152D02*
X115090601Y-120535771D01*
X115090601Y-120535771D02*
X115042982Y-120631009D01*
X115042982Y-120631009D02*
X115042982Y-121154819D01*
X113852505Y-120250057D02*
X113804886Y-120202438D01*
X113804886Y-120202438D02*
X113709648Y-120154819D01*
X113709648Y-120154819D02*
X113471553Y-120154819D01*
X113471553Y-120154819D02*
X113376315Y-120202438D01*
X113376315Y-120202438D02*
X113328696Y-120250057D01*
X113328696Y-120250057D02*
X113281077Y-120345295D01*
X113281077Y-120345295D02*
X113281077Y-120440533D01*
X113281077Y-120440533D02*
X113328696Y-120583390D01*
X113328696Y-120583390D02*
X113900124Y-121154819D01*
X113900124Y-121154819D02*
X113281077Y-121154819D01*
X112662029Y-120154819D02*
X112566791Y-120154819D01*
X112566791Y-120154819D02*
X112471553Y-120202438D01*
X112471553Y-120202438D02*
X112423934Y-120250057D01*
X112423934Y-120250057D02*
X112376315Y-120345295D01*
X112376315Y-120345295D02*
X112328696Y-120535771D01*
X112328696Y-120535771D02*
X112328696Y-120773866D01*
X112328696Y-120773866D02*
X112376315Y-120964342D01*
X112376315Y-120964342D02*
X112423934Y-121059580D01*
X112423934Y-121059580D02*
X112471553Y-121107200D01*
X112471553Y-121107200D02*
X112566791Y-121154819D01*
X112566791Y-121154819D02*
X112662029Y-121154819D01*
X112662029Y-121154819D02*
X112757267Y-121107200D01*
X112757267Y-121107200D02*
X112804886Y-121059580D01*
X112804886Y-121059580D02*
X112852505Y-120964342D01*
X112852505Y-120964342D02*
X112900124Y-120773866D01*
X112900124Y-120773866D02*
X112900124Y-120535771D01*
X112900124Y-120535771D02*
X112852505Y-120345295D01*
X112852505Y-120345295D02*
X112804886Y-120250057D01*
X112804886Y-120250057D02*
X112757267Y-120202438D01*
X112757267Y-120202438D02*
X112662029Y-120154819D01*
X111947743Y-120250057D02*
X111900124Y-120202438D01*
X111900124Y-120202438D02*
X111804886Y-120154819D01*
X111804886Y-120154819D02*
X111566791Y-120154819D01*
X111566791Y-120154819D02*
X111471553Y-120202438D01*
X111471553Y-120202438D02*
X111423934Y-120250057D01*
X111423934Y-120250057D02*
X111376315Y-120345295D01*
X111376315Y-120345295D02*
X111376315Y-120440533D01*
X111376315Y-120440533D02*
X111423934Y-120583390D01*
X111423934Y-120583390D02*
X111995362Y-121154819D01*
X111995362Y-121154819D02*
X111376315Y-121154819D01*
X110519172Y-120488152D02*
X110519172Y-121154819D01*
X110757267Y-120107200D02*
X110995362Y-120821485D01*
X110995362Y-120821485D02*
X110376315Y-120821485D01*
X148288333Y-116929819D02*
X148288333Y-117644104D01*
X148288333Y-117644104D02*
X148335952Y-117786961D01*
X148335952Y-117786961D02*
X148431190Y-117882200D01*
X148431190Y-117882200D02*
X148574047Y-117929819D01*
X148574047Y-117929819D02*
X148669285Y-117929819D01*
X147907380Y-116929819D02*
X147288333Y-116929819D01*
X147288333Y-116929819D02*
X147621666Y-117310771D01*
X147621666Y-117310771D02*
X147478809Y-117310771D01*
X147478809Y-117310771D02*
X147383571Y-117358390D01*
X147383571Y-117358390D02*
X147335952Y-117406009D01*
X147335952Y-117406009D02*
X147288333Y-117501247D01*
X147288333Y-117501247D02*
X147288333Y-117739342D01*
X147288333Y-117739342D02*
X147335952Y-117834580D01*
X147335952Y-117834580D02*
X147383571Y-117882200D01*
X147383571Y-117882200D02*
X147478809Y-117929819D01*
X147478809Y-117929819D02*
X147764523Y-117929819D01*
X147764523Y-117929819D02*
X147859761Y-117882200D01*
X147859761Y-117882200D02*
X147907380Y-117834580D01*
X191944523Y-70574819D02*
X191944523Y-71289104D01*
X191944523Y-71289104D02*
X191992142Y-71431961D01*
X191992142Y-71431961D02*
X192087380Y-71527200D01*
X192087380Y-71527200D02*
X192230237Y-71574819D01*
X192230237Y-71574819D02*
X192325475Y-71574819D01*
X190944523Y-71574819D02*
X191515951Y-71574819D01*
X191230237Y-71574819D02*
X191230237Y-70574819D01*
X191230237Y-70574819D02*
X191325475Y-70717676D01*
X191325475Y-70717676D02*
X191420713Y-70812914D01*
X191420713Y-70812914D02*
X191515951Y-70860533D01*
X190611189Y-70574819D02*
X189992142Y-70574819D01*
X189992142Y-70574819D02*
X190325475Y-70955771D01*
X190325475Y-70955771D02*
X190182618Y-70955771D01*
X190182618Y-70955771D02*
X190087380Y-71003390D01*
X190087380Y-71003390D02*
X190039761Y-71051009D01*
X190039761Y-71051009D02*
X189992142Y-71146247D01*
X189992142Y-71146247D02*
X189992142Y-71384342D01*
X189992142Y-71384342D02*
X190039761Y-71479580D01*
X190039761Y-71479580D02*
X190087380Y-71527200D01*
X190087380Y-71527200D02*
X190182618Y-71574819D01*
X190182618Y-71574819D02*
X190468332Y-71574819D01*
X190468332Y-71574819D02*
X190563570Y-71527200D01*
X190563570Y-71527200D02*
X190611189Y-71479580D01*
X194008333Y-90894819D02*
X194008333Y-91609104D01*
X194008333Y-91609104D02*
X194055952Y-91751961D01*
X194055952Y-91751961D02*
X194151190Y-91847200D01*
X194151190Y-91847200D02*
X194294047Y-91894819D01*
X194294047Y-91894819D02*
X194389285Y-91894819D01*
X193008333Y-91894819D02*
X193579761Y-91894819D01*
X193294047Y-91894819D02*
X193294047Y-90894819D01*
X193294047Y-90894819D02*
X193389285Y-91037676D01*
X193389285Y-91037676D02*
X193484523Y-91132914D01*
X193484523Y-91132914D02*
X193579761Y-91180533D01*
X160988333Y-68669819D02*
X160988333Y-69384104D01*
X160988333Y-69384104D02*
X161035952Y-69526961D01*
X161035952Y-69526961D02*
X161131190Y-69622200D01*
X161131190Y-69622200D02*
X161274047Y-69669819D01*
X161274047Y-69669819D02*
X161369285Y-69669819D01*
X160035952Y-68669819D02*
X160512142Y-68669819D01*
X160512142Y-68669819D02*
X160559761Y-69146009D01*
X160559761Y-69146009D02*
X160512142Y-69098390D01*
X160512142Y-69098390D02*
X160416904Y-69050771D01*
X160416904Y-69050771D02*
X160178809Y-69050771D01*
X160178809Y-69050771D02*
X160083571Y-69098390D01*
X160083571Y-69098390D02*
X160035952Y-69146009D01*
X160035952Y-69146009D02*
X159988333Y-69241247D01*
X159988333Y-69241247D02*
X159988333Y-69479342D01*
X159988333Y-69479342D02*
X160035952Y-69574580D01*
X160035952Y-69574580D02*
X160083571Y-69622200D01*
X160083571Y-69622200D02*
X160178809Y-69669819D01*
X160178809Y-69669819D02*
X160416904Y-69669819D01*
X160416904Y-69669819D02*
X160512142Y-69622200D01*
X160512142Y-69622200D02*
X160559761Y-69574580D01*
X194008333Y-94704819D02*
X194008333Y-95419104D01*
X194008333Y-95419104D02*
X194055952Y-95561961D01*
X194055952Y-95561961D02*
X194151190Y-95657200D01*
X194151190Y-95657200D02*
X194294047Y-95704819D01*
X194294047Y-95704819D02*
X194389285Y-95704819D01*
X193579761Y-94800057D02*
X193532142Y-94752438D01*
X193532142Y-94752438D02*
X193436904Y-94704819D01*
X193436904Y-94704819D02*
X193198809Y-94704819D01*
X193198809Y-94704819D02*
X193103571Y-94752438D01*
X193103571Y-94752438D02*
X193055952Y-94800057D01*
X193055952Y-94800057D02*
X193008333Y-94895295D01*
X193008333Y-94895295D02*
X193008333Y-94990533D01*
X193008333Y-94990533D02*
X193055952Y-95133390D01*
X193055952Y-95133390D02*
X193627380Y-95704819D01*
X193627380Y-95704819D02*
X193008333Y-95704819D01*
X148764523Y-66129819D02*
X148764523Y-66844104D01*
X148764523Y-66844104D02*
X148812142Y-66986961D01*
X148812142Y-66986961D02*
X148907380Y-67082200D01*
X148907380Y-67082200D02*
X149050237Y-67129819D01*
X149050237Y-67129819D02*
X149145475Y-67129819D01*
X147764523Y-67129819D02*
X148335951Y-67129819D01*
X148050237Y-67129819D02*
X148050237Y-66129819D01*
X148050237Y-66129819D02*
X148145475Y-66272676D01*
X148145475Y-66272676D02*
X148240713Y-66367914D01*
X148240713Y-66367914D02*
X148335951Y-66415533D01*
X147145475Y-66129819D02*
X147050237Y-66129819D01*
X147050237Y-66129819D02*
X146954999Y-66177438D01*
X146954999Y-66177438D02*
X146907380Y-66225057D01*
X146907380Y-66225057D02*
X146859761Y-66320295D01*
X146859761Y-66320295D02*
X146812142Y-66510771D01*
X146812142Y-66510771D02*
X146812142Y-66748866D01*
X146812142Y-66748866D02*
X146859761Y-66939342D01*
X146859761Y-66939342D02*
X146907380Y-67034580D01*
X146907380Y-67034580D02*
X146954999Y-67082200D01*
X146954999Y-67082200D02*
X147050237Y-67129819D01*
X147050237Y-67129819D02*
X147145475Y-67129819D01*
X147145475Y-67129819D02*
X147240713Y-67082200D01*
X147240713Y-67082200D02*
X147288332Y-67034580D01*
X147288332Y-67034580D02*
X147335951Y-66939342D01*
X147335951Y-66939342D02*
X147383570Y-66748866D01*
X147383570Y-66748866D02*
X147383570Y-66510771D01*
X147383570Y-66510771D02*
X147335951Y-66320295D01*
X147335951Y-66320295D02*
X147288332Y-66225057D01*
X147288332Y-66225057D02*
X147240713Y-66177438D01*
X147240713Y-66177438D02*
X147145475Y-66129819D01*
X196548333Y-90894819D02*
X196548333Y-91609104D01*
X196548333Y-91609104D02*
X196595952Y-91751961D01*
X196595952Y-91751961D02*
X196691190Y-91847200D01*
X196691190Y-91847200D02*
X196834047Y-91894819D01*
X196834047Y-91894819D02*
X196929285Y-91894819D01*
X196167380Y-90894819D02*
X195500714Y-90894819D01*
X195500714Y-90894819D02*
X195929285Y-91894819D01*
X197024523Y-94704819D02*
X197024523Y-95419104D01*
X197024523Y-95419104D02*
X197072142Y-95561961D01*
X197072142Y-95561961D02*
X197167380Y-95657200D01*
X197167380Y-95657200D02*
X197310237Y-95704819D01*
X197310237Y-95704819D02*
X197405475Y-95704819D01*
X196024523Y-95704819D02*
X196595951Y-95704819D01*
X196310237Y-95704819D02*
X196310237Y-94704819D01*
X196310237Y-94704819D02*
X196405475Y-94847676D01*
X196405475Y-94847676D02*
X196500713Y-94942914D01*
X196500713Y-94942914D02*
X196595951Y-94990533D01*
X195643570Y-94800057D02*
X195595951Y-94752438D01*
X195595951Y-94752438D02*
X195500713Y-94704819D01*
X195500713Y-94704819D02*
X195262618Y-94704819D01*
X195262618Y-94704819D02*
X195167380Y-94752438D01*
X195167380Y-94752438D02*
X195119761Y-94800057D01*
X195119761Y-94800057D02*
X195072142Y-94895295D01*
X195072142Y-94895295D02*
X195072142Y-94990533D01*
X195072142Y-94990533D02*
X195119761Y-95133390D01*
X195119761Y-95133390D02*
X195691189Y-95704819D01*
X195691189Y-95704819D02*
X195072142Y-95704819D01*
X161464523Y-66129819D02*
X161464523Y-66844104D01*
X161464523Y-66844104D02*
X161512142Y-66986961D01*
X161512142Y-66986961D02*
X161607380Y-67082200D01*
X161607380Y-67082200D02*
X161750237Y-67129819D01*
X161750237Y-67129819D02*
X161845475Y-67129819D01*
X160464523Y-67129819D02*
X161035951Y-67129819D01*
X160750237Y-67129819D02*
X160750237Y-66129819D01*
X160750237Y-66129819D02*
X160845475Y-66272676D01*
X160845475Y-66272676D02*
X160940713Y-66367914D01*
X160940713Y-66367914D02*
X161035951Y-66415533D01*
X159512142Y-67129819D02*
X160083570Y-67129819D01*
X159797856Y-67129819D02*
X159797856Y-66129819D01*
X159797856Y-66129819D02*
X159893094Y-66272676D01*
X159893094Y-66272676D02*
X159988332Y-66367914D01*
X159988332Y-66367914D02*
X160083570Y-66415533D01*
X168608333Y-68669819D02*
X168608333Y-69384104D01*
X168608333Y-69384104D02*
X168655952Y-69526961D01*
X168655952Y-69526961D02*
X168751190Y-69622200D01*
X168751190Y-69622200D02*
X168894047Y-69669819D01*
X168894047Y-69669819D02*
X168989285Y-69669819D01*
X167703571Y-68669819D02*
X167894047Y-68669819D01*
X167894047Y-68669819D02*
X167989285Y-68717438D01*
X167989285Y-68717438D02*
X168036904Y-68765057D01*
X168036904Y-68765057D02*
X168132142Y-68907914D01*
X168132142Y-68907914D02*
X168179761Y-69098390D01*
X168179761Y-69098390D02*
X168179761Y-69479342D01*
X168179761Y-69479342D02*
X168132142Y-69574580D01*
X168132142Y-69574580D02*
X168084523Y-69622200D01*
X168084523Y-69622200D02*
X167989285Y-69669819D01*
X167989285Y-69669819D02*
X167798809Y-69669819D01*
X167798809Y-69669819D02*
X167703571Y-69622200D01*
X167703571Y-69622200D02*
X167655952Y-69574580D01*
X167655952Y-69574580D02*
X167608333Y-69479342D01*
X167608333Y-69479342D02*
X167608333Y-69241247D01*
X167608333Y-69241247D02*
X167655952Y-69146009D01*
X167655952Y-69146009D02*
X167703571Y-69098390D01*
X167703571Y-69098390D02*
X167798809Y-69050771D01*
X167798809Y-69050771D02*
X167989285Y-69050771D01*
X167989285Y-69050771D02*
X168084523Y-69098390D01*
X168084523Y-69098390D02*
X168132142Y-69146009D01*
X168132142Y-69146009D02*
X168179761Y-69241247D01*
X191944523Y-115024819D02*
X191944523Y-115739104D01*
X191944523Y-115739104D02*
X191992142Y-115881961D01*
X191992142Y-115881961D02*
X192087380Y-115977200D01*
X192087380Y-115977200D02*
X192230237Y-116024819D01*
X192230237Y-116024819D02*
X192325475Y-116024819D01*
X190944523Y-116024819D02*
X191515951Y-116024819D01*
X191230237Y-116024819D02*
X191230237Y-115024819D01*
X191230237Y-115024819D02*
X191325475Y-115167676D01*
X191325475Y-115167676D02*
X191420713Y-115262914D01*
X191420713Y-115262914D02*
X191515951Y-115310533D01*
X190087380Y-115358152D02*
X190087380Y-116024819D01*
X190325475Y-114977200D02*
X190563570Y-115691485D01*
X190563570Y-115691485D02*
X189944523Y-115691485D01*
X146248333Y-70574819D02*
X146248333Y-71289104D01*
X146248333Y-71289104D02*
X146295952Y-71431961D01*
X146295952Y-71431961D02*
X146391190Y-71527200D01*
X146391190Y-71527200D02*
X146534047Y-71574819D01*
X146534047Y-71574819D02*
X146629285Y-71574819D01*
X145772142Y-71574819D02*
X145772142Y-70574819D01*
X145772142Y-70574819D02*
X145391190Y-70574819D01*
X145391190Y-70574819D02*
X145295952Y-70622438D01*
X145295952Y-70622438D02*
X145248333Y-70670057D01*
X145248333Y-70670057D02*
X145200714Y-70765295D01*
X145200714Y-70765295D02*
X145200714Y-70908152D01*
X145200714Y-70908152D02*
X145248333Y-71003390D01*
X145248333Y-71003390D02*
X145295952Y-71051009D01*
X145295952Y-71051009D02*
X145391190Y-71098628D01*
X145391190Y-71098628D02*
X145772142Y-71098628D01*
X144819761Y-70670057D02*
X144772142Y-70622438D01*
X144772142Y-70622438D02*
X144676904Y-70574819D01*
X144676904Y-70574819D02*
X144438809Y-70574819D01*
X144438809Y-70574819D02*
X144343571Y-70622438D01*
X144343571Y-70622438D02*
X144295952Y-70670057D01*
X144295952Y-70670057D02*
X144248333Y-70765295D01*
X144248333Y-70765295D02*
X144248333Y-70860533D01*
X144248333Y-70860533D02*
X144295952Y-71003390D01*
X144295952Y-71003390D02*
X144867380Y-71574819D01*
X144867380Y-71574819D02*
X144248333Y-71574819D01*
X168608333Y-66129819D02*
X168608333Y-66844104D01*
X168608333Y-66844104D02*
X168655952Y-66986961D01*
X168655952Y-66986961D02*
X168751190Y-67082200D01*
X168751190Y-67082200D02*
X168894047Y-67129819D01*
X168894047Y-67129819D02*
X168989285Y-67129819D01*
X168084523Y-67129819D02*
X167894047Y-67129819D01*
X167894047Y-67129819D02*
X167798809Y-67082200D01*
X167798809Y-67082200D02*
X167751190Y-67034580D01*
X167751190Y-67034580D02*
X167655952Y-66891723D01*
X167655952Y-66891723D02*
X167608333Y-66701247D01*
X167608333Y-66701247D02*
X167608333Y-66320295D01*
X167608333Y-66320295D02*
X167655952Y-66225057D01*
X167655952Y-66225057D02*
X167703571Y-66177438D01*
X167703571Y-66177438D02*
X167798809Y-66129819D01*
X167798809Y-66129819D02*
X167989285Y-66129819D01*
X167989285Y-66129819D02*
X168084523Y-66177438D01*
X168084523Y-66177438D02*
X168132142Y-66225057D01*
X168132142Y-66225057D02*
X168179761Y-66320295D01*
X168179761Y-66320295D02*
X168179761Y-66558390D01*
X168179761Y-66558390D02*
X168132142Y-66653628D01*
X168132142Y-66653628D02*
X168084523Y-66701247D01*
X168084523Y-66701247D02*
X167989285Y-66748866D01*
X167989285Y-66748866D02*
X167798809Y-66748866D01*
X167798809Y-66748866D02*
X167703571Y-66701247D01*
X167703571Y-66701247D02*
X167655952Y-66653628D01*
X167655952Y-66653628D02*
X167608333Y-66558390D01*
X148923333Y-68669819D02*
X148923333Y-69384104D01*
X148923333Y-69384104D02*
X148970952Y-69526961D01*
X148970952Y-69526961D02*
X149066190Y-69622200D01*
X149066190Y-69622200D02*
X149209047Y-69669819D01*
X149209047Y-69669819D02*
X149304285Y-69669819D01*
X148018571Y-69003152D02*
X148018571Y-69669819D01*
X148256666Y-68622200D02*
X148494761Y-69336485D01*
X148494761Y-69336485D02*
X147875714Y-69336485D01*
X148288333Y-119469819D02*
X148288333Y-120184104D01*
X148288333Y-120184104D02*
X148335952Y-120326961D01*
X148335952Y-120326961D02*
X148431190Y-120422200D01*
X148431190Y-120422200D02*
X148574047Y-120469819D01*
X148574047Y-120469819D02*
X148669285Y-120469819D01*
X147669285Y-119898390D02*
X147764523Y-119850771D01*
X147764523Y-119850771D02*
X147812142Y-119803152D01*
X147812142Y-119803152D02*
X147859761Y-119707914D01*
X147859761Y-119707914D02*
X147859761Y-119660295D01*
X147859761Y-119660295D02*
X147812142Y-119565057D01*
X147812142Y-119565057D02*
X147764523Y-119517438D01*
X147764523Y-119517438D02*
X147669285Y-119469819D01*
X147669285Y-119469819D02*
X147478809Y-119469819D01*
X147478809Y-119469819D02*
X147383571Y-119517438D01*
X147383571Y-119517438D02*
X147335952Y-119565057D01*
X147335952Y-119565057D02*
X147288333Y-119660295D01*
X147288333Y-119660295D02*
X147288333Y-119707914D01*
X147288333Y-119707914D02*
X147335952Y-119803152D01*
X147335952Y-119803152D02*
X147383571Y-119850771D01*
X147383571Y-119850771D02*
X147478809Y-119898390D01*
X147478809Y-119898390D02*
X147669285Y-119898390D01*
X147669285Y-119898390D02*
X147764523Y-119946009D01*
X147764523Y-119946009D02*
X147812142Y-119993628D01*
X147812142Y-119993628D02*
X147859761Y-120088866D01*
X147859761Y-120088866D02*
X147859761Y-120279342D01*
X147859761Y-120279342D02*
X147812142Y-120374580D01*
X147812142Y-120374580D02*
X147764523Y-120422200D01*
X147764523Y-120422200D02*
X147669285Y-120469819D01*
X147669285Y-120469819D02*
X147478809Y-120469819D01*
X147478809Y-120469819D02*
X147383571Y-120422200D01*
X147383571Y-120422200D02*
X147335952Y-120374580D01*
X147335952Y-120374580D02*
X147288333Y-120279342D01*
X147288333Y-120279342D02*
X147288333Y-120088866D01*
X147288333Y-120088866D02*
X147335952Y-119993628D01*
X147335952Y-119993628D02*
X147383571Y-119946009D01*
X147383571Y-119946009D02*
X147478809Y-119898390D01*
X140533333Y-70574819D02*
X140533333Y-71289104D01*
X140533333Y-71289104D02*
X140580952Y-71431961D01*
X140580952Y-71431961D02*
X140676190Y-71527200D01*
X140676190Y-71527200D02*
X140819047Y-71574819D01*
X140819047Y-71574819D02*
X140914285Y-71574819D01*
X140057142Y-71574819D02*
X140057142Y-70574819D01*
X140057142Y-70574819D02*
X139676190Y-70574819D01*
X139676190Y-70574819D02*
X139580952Y-70622438D01*
X139580952Y-70622438D02*
X139533333Y-70670057D01*
X139533333Y-70670057D02*
X139485714Y-70765295D01*
X139485714Y-70765295D02*
X139485714Y-70908152D01*
X139485714Y-70908152D02*
X139533333Y-71003390D01*
X139533333Y-71003390D02*
X139580952Y-71051009D01*
X139580952Y-71051009D02*
X139676190Y-71098628D01*
X139676190Y-71098628D02*
X140057142Y-71098628D01*
X138533333Y-71574819D02*
X139104761Y-71574819D01*
X138819047Y-71574819D02*
X138819047Y-70574819D01*
X138819047Y-70574819D02*
X138914285Y-70717676D01*
X138914285Y-70717676D02*
X139009523Y-70812914D01*
X139009523Y-70812914D02*
X139104761Y-70860533D01*
%LPC*%
D11*
X188595000Y-117475000D03*
D12*
X186055000Y-117475000D03*
X183515000Y-117475000D03*
X180975000Y-117475000D03*
X178435000Y-117475000D03*
X175895000Y-117475000D03*
X173355000Y-117475000D03*
X170815000Y-117475000D03*
X168275000Y-117475000D03*
X165735000Y-117475000D03*
X163195000Y-117475000D03*
X160655000Y-117475000D03*
X158115000Y-117475000D03*
X155575000Y-117475000D03*
X153035000Y-117475000D03*
X150495000Y-117475000D03*
D11*
X196215000Y-66675000D03*
D12*
X193675000Y-66675000D03*
X196215000Y-69215000D03*
X193675000Y-69215000D03*
D11*
X193675000Y-71755000D03*
D12*
X193675000Y-74295000D03*
X193675000Y-76835000D03*
X193675000Y-79375000D03*
X193675000Y-81915000D03*
X193675000Y-84455000D03*
X193675000Y-86995000D03*
X193675000Y-89535000D03*
D13*
X113665000Y-79375000D03*
D14*
X113665000Y-81915000D03*
X113665000Y-84455000D03*
X113665000Y-86995000D03*
X113665000Y-89535000D03*
X113665000Y-92075000D03*
X113665000Y-94615000D03*
X113665000Y-97155000D03*
X113665000Y-99695000D03*
X113665000Y-102235000D03*
X113665000Y-104775000D03*
X113665000Y-107315000D03*
X113665000Y-109855000D03*
X113665000Y-112395000D03*
X128905000Y-112395000D03*
X128905000Y-109855000D03*
X128905000Y-107315000D03*
X128905000Y-104775000D03*
X128905000Y-102235000D03*
X128905000Y-99695000D03*
X128905000Y-97155000D03*
X128905000Y-94615000D03*
X128905000Y-92075000D03*
X128905000Y-89535000D03*
X128905000Y-86995000D03*
X128905000Y-84455000D03*
X128905000Y-81915000D03*
X128905000Y-79375000D03*
D15*
X180975000Y-75565000D03*
D16*
X180975000Y-90805000D03*
X188595000Y-90805000D03*
X188595000Y-75565000D03*
D15*
X137795000Y-92710000D03*
D17*
X140335000Y-92710000D03*
X142875000Y-92710000D03*
X145415000Y-92710000D03*
X147955000Y-92710000D03*
X150495000Y-92710000D03*
X153035000Y-92710000D03*
X155575000Y-92710000D03*
X158115000Y-92710000D03*
X160655000Y-92710000D03*
X163195000Y-92710000D03*
X165735000Y-92710000D03*
X168275000Y-92710000D03*
X170815000Y-92710000D03*
X173355000Y-92710000D03*
X175895000Y-92710000D03*
X175895000Y-85090000D03*
X173355000Y-85090000D03*
X170815000Y-85090000D03*
X168275000Y-85090000D03*
X165735000Y-85090000D03*
X163195000Y-85090000D03*
X160655000Y-85090000D03*
X158115000Y-85090000D03*
X155575000Y-85090000D03*
X153035000Y-85090000D03*
X150495000Y-85090000D03*
X147955000Y-85090000D03*
X145415000Y-85090000D03*
X142875000Y-85090000D03*
X140335000Y-85090000D03*
X137795000Y-85090000D03*
D11*
X163195000Y-69215000D03*
D12*
X165735000Y-69215000D03*
D16*
X155575000Y-76200000D03*
X155575000Y-78700000D03*
X134620000Y-79375000D03*
D17*
X134620000Y-89535000D03*
D18*
X134620000Y-69215000D03*
D19*
X134620000Y-76835000D03*
D16*
X163195000Y-95885000D03*
X165695000Y-95885000D03*
D11*
X193675000Y-97155000D03*
D12*
X193675000Y-99695000D03*
X193675000Y-102235000D03*
X193675000Y-104775000D03*
X193675000Y-107315000D03*
X193675000Y-109855000D03*
X193675000Y-112395000D03*
X193675000Y-114935000D03*
D20*
X121920000Y-81045000D03*
D21*
X121920000Y-81045000D03*
D11*
X150495000Y-66675000D03*
D12*
X153035000Y-66675000D03*
X155575000Y-66675000D03*
X158115000Y-66675000D03*
D20*
X171920000Y-106045000D03*
D21*
X171920000Y-106045000D03*
D11*
X196215000Y-71755000D03*
D12*
X196215000Y-74295000D03*
X196215000Y-76835000D03*
X196215000Y-79375000D03*
X196215000Y-81915000D03*
X196215000Y-84455000D03*
X196215000Y-86995000D03*
X196215000Y-89535000D03*
D15*
X189865000Y-99695000D03*
D17*
X189865000Y-102235000D03*
X189865000Y-104775000D03*
X189865000Y-107315000D03*
X189865000Y-109855000D03*
X189865000Y-112395000D03*
D20*
X121920000Y-106045000D03*
D21*
X121920000Y-106045000D03*
D11*
X196215000Y-97155000D03*
D12*
X196215000Y-99695000D03*
X196215000Y-102235000D03*
X196215000Y-104775000D03*
X196215000Y-107315000D03*
X196215000Y-109855000D03*
X196215000Y-112395000D03*
X196215000Y-114935000D03*
D22*
X146075000Y-117475000D03*
X139065000Y-117475000D03*
D23*
X144825000Y-119965000D03*
X140325000Y-119965000D03*
D15*
X137795000Y-81280000D03*
D17*
X140335000Y-81280000D03*
X142875000Y-81280000D03*
X145415000Y-81280000D03*
X147955000Y-81280000D03*
X150495000Y-81280000D03*
X153035000Y-81280000D03*
X153035000Y-73660000D03*
X150495000Y-73660000D03*
X147955000Y-73660000D03*
X145415000Y-73660000D03*
X142875000Y-73660000D03*
X140335000Y-73660000D03*
X137795000Y-73660000D03*
D11*
X163195000Y-66675000D03*
D12*
X165735000Y-66675000D03*
D16*
X134620000Y-92075000D03*
D17*
X134620000Y-102235000D03*
D11*
X188595000Y-69215000D03*
D12*
X186055000Y-69215000D03*
X183515000Y-69215000D03*
X180975000Y-69215000D03*
X178435000Y-69215000D03*
X175895000Y-69215000D03*
X173355000Y-69215000D03*
X170815000Y-69215000D03*
D11*
X196215000Y-117475000D03*
D12*
X193675000Y-117475000D03*
X196215000Y-120015000D03*
X193675000Y-120015000D03*
D16*
X191135000Y-117475000D03*
X191135000Y-119975000D03*
D15*
X158115000Y-81280000D03*
D17*
X160655000Y-81280000D03*
X163195000Y-81280000D03*
X165735000Y-81280000D03*
X168275000Y-81280000D03*
X170815000Y-81280000D03*
X173355000Y-81280000D03*
X175895000Y-81280000D03*
X175895000Y-73660000D03*
X173355000Y-73660000D03*
X170815000Y-73660000D03*
X168275000Y-73660000D03*
X165735000Y-73660000D03*
X163195000Y-73660000D03*
X160655000Y-73660000D03*
X158115000Y-73660000D03*
D11*
X144145000Y-69215000D03*
D12*
X146685000Y-69215000D03*
D16*
X140315000Y-95885000D03*
X137815000Y-95885000D03*
D11*
X188595000Y-66675000D03*
D12*
X186055000Y-66675000D03*
X183515000Y-66675000D03*
X180975000Y-66675000D03*
X178435000Y-66675000D03*
X175895000Y-66675000D03*
X173355000Y-66675000D03*
X170815000Y-66675000D03*
D15*
X137795000Y-113665000D03*
D17*
X140335000Y-113665000D03*
X142875000Y-113665000D03*
X145415000Y-113665000D03*
X147955000Y-113665000D03*
X150495000Y-113665000D03*
X153035000Y-113665000D03*
X155575000Y-113665000D03*
X158115000Y-113665000D03*
X160655000Y-113665000D03*
X163195000Y-113665000D03*
X165735000Y-113665000D03*
X168275000Y-113665000D03*
X170815000Y-113665000D03*
X173355000Y-113665000D03*
X175895000Y-113665000D03*
X178435000Y-113665000D03*
X180975000Y-113665000D03*
X183515000Y-113665000D03*
X186055000Y-113665000D03*
X186055000Y-98425000D03*
X183515000Y-98425000D03*
X180975000Y-98425000D03*
X178435000Y-98425000D03*
X175895000Y-98425000D03*
X173355000Y-98425000D03*
X170815000Y-98425000D03*
X168275000Y-98425000D03*
X165735000Y-98425000D03*
X163195000Y-98425000D03*
X160655000Y-98425000D03*
X158115000Y-98425000D03*
X155575000Y-98425000D03*
X153035000Y-98425000D03*
X150495000Y-98425000D03*
X147955000Y-98425000D03*
X145415000Y-98425000D03*
X142875000Y-98425000D03*
X140335000Y-98425000D03*
X137795000Y-98425000D03*
D11*
X150495000Y-69215000D03*
D12*
X153035000Y-69215000D03*
X155575000Y-69215000D03*
X158115000Y-69215000D03*
D16*
X191135000Y-66715000D03*
X191135000Y-69215000D03*
X193695000Y-93345000D03*
X196195000Y-93345000D03*
D11*
X188595000Y-120015000D03*
D12*
X186055000Y-120015000D03*
X183515000Y-120015000D03*
X180975000Y-120015000D03*
X178435000Y-120015000D03*
X175895000Y-120015000D03*
X173355000Y-120015000D03*
X170815000Y-120015000D03*
X168275000Y-120015000D03*
X165735000Y-120015000D03*
X163195000Y-120015000D03*
X160655000Y-120015000D03*
X158115000Y-120015000D03*
X155575000Y-120015000D03*
X153035000Y-120015000D03*
X150495000Y-120015000D03*
D16*
X134620000Y-107295000D03*
X134620000Y-104795000D03*
D11*
X138430000Y-69215000D03*
D12*
X140970000Y-69215000D03*
%LPD*%
M02*
