G04 #@! TF.GenerationSoftware,KiCad,Pcbnew,8.0.5-8.0.5-0~ubuntu22.04.1*
G04 #@! TF.CreationDate,2024-10-01T15:38:48-06:00*
G04 #@! TF.ProjectId,z80 RPM,7a383020-5250-44d2-9e6b-696361645f70,1.1*
G04 #@! TF.SameCoordinates,Original*
G04 #@! TF.FileFunction,Legend,Top*
G04 #@! TF.FilePolarity,Positive*
%FSLAX46Y46*%
G04 Gerber Fmt 4.6, Leading zero omitted, Abs format (unit mm)*
G04 Created by KiCad (PCBNEW 8.0.5-8.0.5-0~ubuntu22.04.1) date 2024-10-01 15:38:48*
%MOMM*%
%LPD*%
G01*
G04 APERTURE LIST*
%ADD10C,0.120000*%
%ADD11C,0.150000*%
%ADD12C,0.100000*%
%ADD13R,1.700000X1.700000*%
%ADD14O,1.700000X1.700000*%
%ADD15R,2.000000X1.440000*%
%ADD16O,2.000000X1.440000*%
%ADD17R,1.600000X1.600000*%
%ADD18C,1.600000*%
%ADD19O,1.600000X1.600000*%
%ADD20R,2.200000X2.200000*%
%ADD21O,2.200000X2.200000*%
%ADD22C,3.600000*%
%ADD23C,5.600000*%
%ADD24C,2.100000*%
%ADD25C,1.750000*%
G04 APERTURE END LIST*
D10*
X129797091Y-37286755D02*
X129797091Y-36486755D01*
X130178043Y-37286755D02*
X130178043Y-36486755D01*
X130178043Y-36486755D02*
X130635186Y-37286755D01*
X130635186Y-37286755D02*
X130635186Y-36486755D01*
X130901852Y-36486755D02*
X131358995Y-36486755D01*
X131130423Y-37286755D02*
X131130423Y-36486755D01*
X129581185Y-52107707D02*
X129695471Y-52145802D01*
X129695471Y-52145802D02*
X129733566Y-52183898D01*
X129733566Y-52183898D02*
X129771662Y-52260088D01*
X129771662Y-52260088D02*
X129771662Y-52374374D01*
X129771662Y-52374374D02*
X129733566Y-52450564D01*
X129733566Y-52450564D02*
X129695471Y-52488660D01*
X129695471Y-52488660D02*
X129619281Y-52526755D01*
X129619281Y-52526755D02*
X129314519Y-52526755D01*
X129314519Y-52526755D02*
X129314519Y-51726755D01*
X129314519Y-51726755D02*
X129581185Y-51726755D01*
X129581185Y-51726755D02*
X129657376Y-51764850D01*
X129657376Y-51764850D02*
X129695471Y-51802945D01*
X129695471Y-51802945D02*
X129733566Y-51879136D01*
X129733566Y-51879136D02*
X129733566Y-51955326D01*
X129733566Y-51955326D02*
X129695471Y-52031517D01*
X129695471Y-52031517D02*
X129657376Y-52069612D01*
X129657376Y-52069612D02*
X129581185Y-52107707D01*
X129581185Y-52107707D02*
X129314519Y-52107707D01*
X130076423Y-52298183D02*
X130457376Y-52298183D01*
X130000233Y-52526755D02*
X130266900Y-51726755D01*
X130266900Y-51726755D02*
X130533566Y-52526755D01*
X130800233Y-52526755D02*
X130800233Y-51726755D01*
X131257376Y-52526755D02*
X130914518Y-52069612D01*
X131257376Y-51726755D02*
X130800233Y-52183898D01*
X96262805Y-34365755D02*
X96262805Y-33565755D01*
X96796138Y-33565755D02*
X96948519Y-33565755D01*
X96948519Y-33565755D02*
X97024709Y-33603850D01*
X97024709Y-33603850D02*
X97100900Y-33680040D01*
X97100900Y-33680040D02*
X97138995Y-33832421D01*
X97138995Y-33832421D02*
X97138995Y-34099088D01*
X97138995Y-34099088D02*
X97100900Y-34251469D01*
X97100900Y-34251469D02*
X97024709Y-34327660D01*
X97024709Y-34327660D02*
X96948519Y-34365755D01*
X96948519Y-34365755D02*
X96796138Y-34365755D01*
X96796138Y-34365755D02*
X96719947Y-34327660D01*
X96719947Y-34327660D02*
X96643757Y-34251469D01*
X96643757Y-34251469D02*
X96605661Y-34099088D01*
X96605661Y-34099088D02*
X96605661Y-33832421D01*
X96605661Y-33832421D02*
X96643757Y-33680040D01*
X96643757Y-33680040D02*
X96719947Y-33603850D01*
X96719947Y-33603850D02*
X96796138Y-33565755D01*
X97938995Y-34365755D02*
X97672328Y-33984802D01*
X97481852Y-34365755D02*
X97481852Y-33565755D01*
X97481852Y-33565755D02*
X97786614Y-33565755D01*
X97786614Y-33565755D02*
X97862804Y-33603850D01*
X97862804Y-33603850D02*
X97900899Y-33641945D01*
X97900899Y-33641945D02*
X97938995Y-33718136D01*
X97938995Y-33718136D02*
X97938995Y-33832421D01*
X97938995Y-33832421D02*
X97900899Y-33908612D01*
X97900899Y-33908612D02*
X97862804Y-33946707D01*
X97862804Y-33946707D02*
X97786614Y-33984802D01*
X97786614Y-33984802D02*
X97481852Y-33984802D01*
X98815185Y-34441945D02*
X98738995Y-34403850D01*
X98738995Y-34403850D02*
X98662804Y-34327660D01*
X98662804Y-34327660D02*
X98548518Y-34213374D01*
X98548518Y-34213374D02*
X98472328Y-34175279D01*
X98472328Y-34175279D02*
X98396137Y-34175279D01*
X98434233Y-34365755D02*
X98358042Y-34327660D01*
X98358042Y-34327660D02*
X98281852Y-34251469D01*
X98281852Y-34251469D02*
X98243756Y-34099088D01*
X98243756Y-34099088D02*
X98243756Y-33832421D01*
X98243756Y-33832421D02*
X98281852Y-33680040D01*
X98281852Y-33680040D02*
X98358042Y-33603850D01*
X98358042Y-33603850D02*
X98434233Y-33565755D01*
X98434233Y-33565755D02*
X98586614Y-33565755D01*
X98586614Y-33565755D02*
X98662804Y-33603850D01*
X98662804Y-33603850D02*
X98738995Y-33680040D01*
X98738995Y-33680040D02*
X98777090Y-33832421D01*
X98777090Y-33832421D02*
X98777090Y-34099088D01*
X98777090Y-34099088D02*
X98738995Y-34251469D01*
X98738995Y-34251469D02*
X98662804Y-34327660D01*
X98662804Y-34327660D02*
X98586614Y-34365755D01*
X98586614Y-34365755D02*
X98434233Y-34365755D01*
X119281471Y-78333183D02*
X119662424Y-78333183D01*
X119205281Y-78561755D02*
X119471948Y-77761755D01*
X119471948Y-77761755D02*
X119738614Y-78561755D01*
X119929090Y-77761755D02*
X120424328Y-77761755D01*
X120424328Y-77761755D02*
X120157662Y-78066517D01*
X120157662Y-78066517D02*
X120271947Y-78066517D01*
X120271947Y-78066517D02*
X120348138Y-78104612D01*
X120348138Y-78104612D02*
X120386233Y-78142707D01*
X120386233Y-78142707D02*
X120424328Y-78218898D01*
X120424328Y-78218898D02*
X120424328Y-78409374D01*
X120424328Y-78409374D02*
X120386233Y-78485564D01*
X120386233Y-78485564D02*
X120348138Y-78523660D01*
X120348138Y-78523660D02*
X120271947Y-78561755D01*
X120271947Y-78561755D02*
X120043376Y-78561755D01*
X120043376Y-78561755D02*
X119967185Y-78523660D01*
X119967185Y-78523660D02*
X119929090Y-78485564D01*
X111515424Y-34365755D02*
X111515424Y-33565755D01*
X111515424Y-33565755D02*
X111705900Y-33565755D01*
X111705900Y-33565755D02*
X111820186Y-33603850D01*
X111820186Y-33603850D02*
X111896376Y-33680040D01*
X111896376Y-33680040D02*
X111934471Y-33756231D01*
X111934471Y-33756231D02*
X111972567Y-33908612D01*
X111972567Y-33908612D02*
X111972567Y-34022898D01*
X111972567Y-34022898D02*
X111934471Y-34175279D01*
X111934471Y-34175279D02*
X111896376Y-34251469D01*
X111896376Y-34251469D02*
X111820186Y-34327660D01*
X111820186Y-34327660D02*
X111705900Y-34365755D01*
X111705900Y-34365755D02*
X111515424Y-34365755D01*
X112658281Y-33565755D02*
X112505900Y-33565755D01*
X112505900Y-33565755D02*
X112429709Y-33603850D01*
X112429709Y-33603850D02*
X112391614Y-33641945D01*
X112391614Y-33641945D02*
X112315424Y-33756231D01*
X112315424Y-33756231D02*
X112277328Y-33908612D01*
X112277328Y-33908612D02*
X112277328Y-34213374D01*
X112277328Y-34213374D02*
X112315424Y-34289564D01*
X112315424Y-34289564D02*
X112353519Y-34327660D01*
X112353519Y-34327660D02*
X112429709Y-34365755D01*
X112429709Y-34365755D02*
X112582090Y-34365755D01*
X112582090Y-34365755D02*
X112658281Y-34327660D01*
X112658281Y-34327660D02*
X112696376Y-34289564D01*
X112696376Y-34289564D02*
X112734471Y-34213374D01*
X112734471Y-34213374D02*
X112734471Y-34022898D01*
X112734471Y-34022898D02*
X112696376Y-33946707D01*
X112696376Y-33946707D02*
X112658281Y-33908612D01*
X112658281Y-33908612D02*
X112582090Y-33870517D01*
X112582090Y-33870517D02*
X112429709Y-33870517D01*
X112429709Y-33870517D02*
X112353519Y-33908612D01*
X112353519Y-33908612D02*
X112315424Y-33946707D01*
X112315424Y-33946707D02*
X112277328Y-34022898D01*
X126755424Y-34365755D02*
X126755424Y-33565755D01*
X126755424Y-33565755D02*
X126945900Y-33565755D01*
X126945900Y-33565755D02*
X127060186Y-33603850D01*
X127060186Y-33603850D02*
X127136376Y-33680040D01*
X127136376Y-33680040D02*
X127174471Y-33756231D01*
X127174471Y-33756231D02*
X127212567Y-33908612D01*
X127212567Y-33908612D02*
X127212567Y-34022898D01*
X127212567Y-34022898D02*
X127174471Y-34175279D01*
X127174471Y-34175279D02*
X127136376Y-34251469D01*
X127136376Y-34251469D02*
X127060186Y-34327660D01*
X127060186Y-34327660D02*
X126945900Y-34365755D01*
X126945900Y-34365755D02*
X126755424Y-34365755D01*
X127707805Y-33565755D02*
X127783995Y-33565755D01*
X127783995Y-33565755D02*
X127860186Y-33603850D01*
X127860186Y-33603850D02*
X127898281Y-33641945D01*
X127898281Y-33641945D02*
X127936376Y-33718136D01*
X127936376Y-33718136D02*
X127974471Y-33870517D01*
X127974471Y-33870517D02*
X127974471Y-34060993D01*
X127974471Y-34060993D02*
X127936376Y-34213374D01*
X127936376Y-34213374D02*
X127898281Y-34289564D01*
X127898281Y-34289564D02*
X127860186Y-34327660D01*
X127860186Y-34327660D02*
X127783995Y-34365755D01*
X127783995Y-34365755D02*
X127707805Y-34365755D01*
X127707805Y-34365755D02*
X127631614Y-34327660D01*
X127631614Y-34327660D02*
X127593519Y-34289564D01*
X127593519Y-34289564D02*
X127555424Y-34213374D01*
X127555424Y-34213374D02*
X127517328Y-34060993D01*
X127517328Y-34060993D02*
X127517328Y-33870517D01*
X127517328Y-33870517D02*
X127555424Y-33718136D01*
X127555424Y-33718136D02*
X127593519Y-33641945D01*
X127593519Y-33641945D02*
X127631614Y-33603850D01*
X127631614Y-33603850D02*
X127707805Y-33565755D01*
X119135424Y-34365755D02*
X119135424Y-33565755D01*
X119135424Y-33565755D02*
X119325900Y-33565755D01*
X119325900Y-33565755D02*
X119440186Y-33603850D01*
X119440186Y-33603850D02*
X119516376Y-33680040D01*
X119516376Y-33680040D02*
X119554471Y-33756231D01*
X119554471Y-33756231D02*
X119592567Y-33908612D01*
X119592567Y-33908612D02*
X119592567Y-34022898D01*
X119592567Y-34022898D02*
X119554471Y-34175279D01*
X119554471Y-34175279D02*
X119516376Y-34251469D01*
X119516376Y-34251469D02*
X119440186Y-34327660D01*
X119440186Y-34327660D02*
X119325900Y-34365755D01*
X119325900Y-34365755D02*
X119135424Y-34365755D01*
X119859233Y-33565755D02*
X120354471Y-33565755D01*
X120354471Y-33565755D02*
X120087805Y-33870517D01*
X120087805Y-33870517D02*
X120202090Y-33870517D01*
X120202090Y-33870517D02*
X120278281Y-33908612D01*
X120278281Y-33908612D02*
X120316376Y-33946707D01*
X120316376Y-33946707D02*
X120354471Y-34022898D01*
X120354471Y-34022898D02*
X120354471Y-34213374D01*
X120354471Y-34213374D02*
X120316376Y-34289564D01*
X120316376Y-34289564D02*
X120278281Y-34327660D01*
X120278281Y-34327660D02*
X120202090Y-34365755D01*
X120202090Y-34365755D02*
X119973519Y-34365755D01*
X119973519Y-34365755D02*
X119897328Y-34327660D01*
X119897328Y-34327660D02*
X119859233Y-34289564D01*
X129873281Y-39826755D02*
X129873281Y-39026755D01*
X129873281Y-39026755D02*
X130139947Y-39598183D01*
X130139947Y-39598183D02*
X130406614Y-39026755D01*
X130406614Y-39026755D02*
X130406614Y-39826755D01*
X131206614Y-39826755D02*
X130749471Y-39826755D01*
X130978043Y-39826755D02*
X130978043Y-39026755D01*
X130978043Y-39026755D02*
X130901852Y-39141040D01*
X130901852Y-39141040D02*
X130825662Y-39217231D01*
X130825662Y-39217231D02*
X130749471Y-39255326D01*
X129504995Y-49567707D02*
X129619281Y-49605802D01*
X129619281Y-49605802D02*
X129657376Y-49643898D01*
X129657376Y-49643898D02*
X129695472Y-49720088D01*
X129695472Y-49720088D02*
X129695472Y-49834374D01*
X129695472Y-49834374D02*
X129657376Y-49910564D01*
X129657376Y-49910564D02*
X129619281Y-49948660D01*
X129619281Y-49948660D02*
X129543091Y-49986755D01*
X129543091Y-49986755D02*
X129238329Y-49986755D01*
X129238329Y-49986755D02*
X129238329Y-49186755D01*
X129238329Y-49186755D02*
X129504995Y-49186755D01*
X129504995Y-49186755D02*
X129581186Y-49224850D01*
X129581186Y-49224850D02*
X129619281Y-49262945D01*
X129619281Y-49262945D02*
X129657376Y-49339136D01*
X129657376Y-49339136D02*
X129657376Y-49415326D01*
X129657376Y-49415326D02*
X129619281Y-49491517D01*
X129619281Y-49491517D02*
X129581186Y-49529612D01*
X129581186Y-49529612D02*
X129504995Y-49567707D01*
X129504995Y-49567707D02*
X129238329Y-49567707D01*
X130495472Y-49986755D02*
X130228805Y-49605802D01*
X130038329Y-49986755D02*
X130038329Y-49186755D01*
X130038329Y-49186755D02*
X130343091Y-49186755D01*
X130343091Y-49186755D02*
X130419281Y-49224850D01*
X130419281Y-49224850D02*
X130457376Y-49262945D01*
X130457376Y-49262945D02*
X130495472Y-49339136D01*
X130495472Y-49339136D02*
X130495472Y-49453421D01*
X130495472Y-49453421D02*
X130457376Y-49529612D01*
X130457376Y-49529612D02*
X130419281Y-49567707D01*
X130419281Y-49567707D02*
X130343091Y-49605802D01*
X130343091Y-49605802D02*
X130038329Y-49605802D01*
X131371662Y-50062945D02*
X131295472Y-50024850D01*
X131295472Y-50024850D02*
X131219281Y-49948660D01*
X131219281Y-49948660D02*
X131104995Y-49834374D01*
X131104995Y-49834374D02*
X131028805Y-49796279D01*
X131028805Y-49796279D02*
X130952614Y-49796279D01*
X130990710Y-49986755D02*
X130914519Y-49948660D01*
X130914519Y-49948660D02*
X130838329Y-49872469D01*
X130838329Y-49872469D02*
X130800233Y-49720088D01*
X130800233Y-49720088D02*
X130800233Y-49453421D01*
X130800233Y-49453421D02*
X130838329Y-49301040D01*
X130838329Y-49301040D02*
X130914519Y-49224850D01*
X130914519Y-49224850D02*
X130990710Y-49186755D01*
X130990710Y-49186755D02*
X131143091Y-49186755D01*
X131143091Y-49186755D02*
X131219281Y-49224850D01*
X131219281Y-49224850D02*
X131295472Y-49301040D01*
X131295472Y-49301040D02*
X131333567Y-49453421D01*
X131333567Y-49453421D02*
X131333567Y-49720088D01*
X131333567Y-49720088D02*
X131295472Y-49872469D01*
X131295472Y-49872469D02*
X131219281Y-49948660D01*
X131219281Y-49948660D02*
X131143091Y-49986755D01*
X131143091Y-49986755D02*
X130990710Y-49986755D01*
X106581471Y-78333183D02*
X106962424Y-78333183D01*
X106505281Y-78561755D02*
X106771948Y-77761755D01*
X106771948Y-77761755D02*
X107038614Y-78561755D01*
X107419566Y-78104612D02*
X107343376Y-78066517D01*
X107343376Y-78066517D02*
X107305281Y-78028421D01*
X107305281Y-78028421D02*
X107267185Y-77952231D01*
X107267185Y-77952231D02*
X107267185Y-77914136D01*
X107267185Y-77914136D02*
X107305281Y-77837945D01*
X107305281Y-77837945D02*
X107343376Y-77799850D01*
X107343376Y-77799850D02*
X107419566Y-77761755D01*
X107419566Y-77761755D02*
X107571947Y-77761755D01*
X107571947Y-77761755D02*
X107648138Y-77799850D01*
X107648138Y-77799850D02*
X107686233Y-77837945D01*
X107686233Y-77837945D02*
X107724328Y-77914136D01*
X107724328Y-77914136D02*
X107724328Y-77952231D01*
X107724328Y-77952231D02*
X107686233Y-78028421D01*
X107686233Y-78028421D02*
X107648138Y-78066517D01*
X107648138Y-78066517D02*
X107571947Y-78104612D01*
X107571947Y-78104612D02*
X107419566Y-78104612D01*
X107419566Y-78104612D02*
X107343376Y-78142707D01*
X107343376Y-78142707D02*
X107305281Y-78180802D01*
X107305281Y-78180802D02*
X107267185Y-78256993D01*
X107267185Y-78256993D02*
X107267185Y-78409374D01*
X107267185Y-78409374D02*
X107305281Y-78485564D01*
X107305281Y-78485564D02*
X107343376Y-78523660D01*
X107343376Y-78523660D02*
X107419566Y-78561755D01*
X107419566Y-78561755D02*
X107571947Y-78561755D01*
X107571947Y-78561755D02*
X107648138Y-78523660D01*
X107648138Y-78523660D02*
X107686233Y-78485564D01*
X107686233Y-78485564D02*
X107724328Y-78409374D01*
X107724328Y-78409374D02*
X107724328Y-78256993D01*
X107724328Y-78256993D02*
X107686233Y-78180802D01*
X107686233Y-78180802D02*
X107648138Y-78142707D01*
X107648138Y-78142707D02*
X107571947Y-78104612D01*
X108975424Y-34365755D02*
X108975424Y-33565755D01*
X108975424Y-33565755D02*
X109165900Y-33565755D01*
X109165900Y-33565755D02*
X109280186Y-33603850D01*
X109280186Y-33603850D02*
X109356376Y-33680040D01*
X109356376Y-33680040D02*
X109394471Y-33756231D01*
X109394471Y-33756231D02*
X109432567Y-33908612D01*
X109432567Y-33908612D02*
X109432567Y-34022898D01*
X109432567Y-34022898D02*
X109394471Y-34175279D01*
X109394471Y-34175279D02*
X109356376Y-34251469D01*
X109356376Y-34251469D02*
X109280186Y-34327660D01*
X109280186Y-34327660D02*
X109165900Y-34365755D01*
X109165900Y-34365755D02*
X108975424Y-34365755D01*
X109699233Y-33565755D02*
X110232567Y-33565755D01*
X110232567Y-33565755D02*
X109889709Y-34365755D01*
X126774471Y-78333183D02*
X127155424Y-78333183D01*
X126698281Y-78561755D02*
X126964948Y-77761755D01*
X126964948Y-77761755D02*
X127231614Y-78561755D01*
X127650662Y-77761755D02*
X127726852Y-77761755D01*
X127726852Y-77761755D02*
X127803043Y-77799850D01*
X127803043Y-77799850D02*
X127841138Y-77837945D01*
X127841138Y-77837945D02*
X127879233Y-77914136D01*
X127879233Y-77914136D02*
X127917328Y-78066517D01*
X127917328Y-78066517D02*
X127917328Y-78256993D01*
X127917328Y-78256993D02*
X127879233Y-78409374D01*
X127879233Y-78409374D02*
X127841138Y-78485564D01*
X127841138Y-78485564D02*
X127803043Y-78523660D01*
X127803043Y-78523660D02*
X127726852Y-78561755D01*
X127726852Y-78561755D02*
X127650662Y-78561755D01*
X127650662Y-78561755D02*
X127574471Y-78523660D01*
X127574471Y-78523660D02*
X127536376Y-78485564D01*
X127536376Y-78485564D02*
X127498281Y-78409374D01*
X127498281Y-78409374D02*
X127460185Y-78256993D01*
X127460185Y-78256993D02*
X127460185Y-78066517D01*
X127460185Y-78066517D02*
X127498281Y-77914136D01*
X127498281Y-77914136D02*
X127536376Y-77837945D01*
X127536376Y-77837945D02*
X127574471Y-77799850D01*
X127574471Y-77799850D02*
X127650662Y-77761755D01*
X129409757Y-47573755D02*
X129409757Y-46773755D01*
X129409757Y-47154707D02*
X129866900Y-47154707D01*
X129866900Y-47573755D02*
X129866900Y-46773755D01*
X130628804Y-47573755D02*
X130247852Y-47573755D01*
X130247852Y-47573755D02*
X130247852Y-46773755D01*
X130781185Y-46773755D02*
X131238328Y-46773755D01*
X131009756Y-47573755D02*
X131009756Y-46773755D01*
X90706518Y-78333183D02*
X91087471Y-78333183D01*
X90630328Y-78561755D02*
X90896995Y-77761755D01*
X90896995Y-77761755D02*
X91163661Y-78561755D01*
X91849375Y-78561755D02*
X91392232Y-78561755D01*
X91620804Y-78561755D02*
X91620804Y-77761755D01*
X91620804Y-77761755D02*
X91544613Y-77876040D01*
X91544613Y-77876040D02*
X91468423Y-77952231D01*
X91468423Y-77952231D02*
X91392232Y-77990326D01*
X92535090Y-78028421D02*
X92535090Y-78561755D01*
X92344614Y-77723660D02*
X92154137Y-78295088D01*
X92154137Y-78295088D02*
X92649376Y-78295088D01*
X116741471Y-78333183D02*
X117122424Y-78333183D01*
X116665281Y-78561755D02*
X116931948Y-77761755D01*
X116931948Y-77761755D02*
X117198614Y-78561755D01*
X117808138Y-78028421D02*
X117808138Y-78561755D01*
X117617662Y-77723660D02*
X117427185Y-78295088D01*
X117427185Y-78295088D02*
X117922424Y-78295088D01*
X114201471Y-78333183D02*
X114582424Y-78333183D01*
X114125281Y-78561755D02*
X114391948Y-77761755D01*
X114391948Y-77761755D02*
X114658614Y-78561755D01*
X115306233Y-77761755D02*
X114925281Y-77761755D01*
X114925281Y-77761755D02*
X114887185Y-78142707D01*
X114887185Y-78142707D02*
X114925281Y-78104612D01*
X114925281Y-78104612D02*
X115001471Y-78066517D01*
X115001471Y-78066517D02*
X115191947Y-78066517D01*
X115191947Y-78066517D02*
X115268138Y-78104612D01*
X115268138Y-78104612D02*
X115306233Y-78142707D01*
X115306233Y-78142707D02*
X115344328Y-78218898D01*
X115344328Y-78218898D02*
X115344328Y-78409374D01*
X115344328Y-78409374D02*
X115306233Y-78485564D01*
X115306233Y-78485564D02*
X115268138Y-78523660D01*
X115268138Y-78523660D02*
X115191947Y-78561755D01*
X115191947Y-78561755D02*
X115001471Y-78561755D01*
X115001471Y-78561755D02*
X114925281Y-78523660D01*
X114925281Y-78523660D02*
X114887185Y-78485564D01*
X132172091Y-58241755D02*
X132172091Y-57441755D01*
X133124471Y-57403660D02*
X132438757Y-58432231D01*
X133543519Y-57441755D02*
X133695900Y-57441755D01*
X133695900Y-57441755D02*
X133772090Y-57479850D01*
X133772090Y-57479850D02*
X133848281Y-57556040D01*
X133848281Y-57556040D02*
X133886376Y-57708421D01*
X133886376Y-57708421D02*
X133886376Y-57975088D01*
X133886376Y-57975088D02*
X133848281Y-58127469D01*
X133848281Y-58127469D02*
X133772090Y-58203660D01*
X133772090Y-58203660D02*
X133695900Y-58241755D01*
X133695900Y-58241755D02*
X133543519Y-58241755D01*
X133543519Y-58241755D02*
X133467328Y-58203660D01*
X133467328Y-58203660D02*
X133391138Y-58127469D01*
X133391138Y-58127469D02*
X133353042Y-57975088D01*
X133353042Y-57975088D02*
X133353042Y-57708421D01*
X133353042Y-57708421D02*
X133391138Y-57556040D01*
X133391138Y-57556040D02*
X133467328Y-57479850D01*
X133467328Y-57479850D02*
X133543519Y-57441755D01*
X134991138Y-57441755D02*
X135067328Y-57441755D01*
X135067328Y-57441755D02*
X135143519Y-57479850D01*
X135143519Y-57479850D02*
X135181614Y-57517945D01*
X135181614Y-57517945D02*
X135219709Y-57594136D01*
X135219709Y-57594136D02*
X135257804Y-57746517D01*
X135257804Y-57746517D02*
X135257804Y-57936993D01*
X135257804Y-57936993D02*
X135219709Y-58089374D01*
X135219709Y-58089374D02*
X135181614Y-58165564D01*
X135181614Y-58165564D02*
X135143519Y-58203660D01*
X135143519Y-58203660D02*
X135067328Y-58241755D01*
X135067328Y-58241755D02*
X134991138Y-58241755D01*
X134991138Y-58241755D02*
X134914947Y-58203660D01*
X134914947Y-58203660D02*
X134876852Y-58165564D01*
X134876852Y-58165564D02*
X134838757Y-58089374D01*
X134838757Y-58089374D02*
X134800661Y-57936993D01*
X134800661Y-57936993D02*
X134800661Y-57746517D01*
X134800661Y-57746517D02*
X134838757Y-57594136D01*
X134838757Y-57594136D02*
X134876852Y-57517945D01*
X134876852Y-57517945D02*
X134914947Y-57479850D01*
X134914947Y-57479850D02*
X134991138Y-57441755D01*
X93246518Y-78333183D02*
X93627471Y-78333183D01*
X93170328Y-78561755D02*
X93436995Y-77761755D01*
X93436995Y-77761755D02*
X93703661Y-78561755D01*
X94389375Y-78561755D02*
X93932232Y-78561755D01*
X94160804Y-78561755D02*
X94160804Y-77761755D01*
X94160804Y-77761755D02*
X94084613Y-77876040D01*
X94084613Y-77876040D02*
X94008423Y-77952231D01*
X94008423Y-77952231D02*
X93932232Y-77990326D01*
X94656042Y-77761755D02*
X95151280Y-77761755D01*
X95151280Y-77761755D02*
X94884614Y-78066517D01*
X94884614Y-78066517D02*
X94998899Y-78066517D01*
X94998899Y-78066517D02*
X95075090Y-78104612D01*
X95075090Y-78104612D02*
X95113185Y-78142707D01*
X95113185Y-78142707D02*
X95151280Y-78218898D01*
X95151280Y-78218898D02*
X95151280Y-78409374D01*
X95151280Y-78409374D02*
X95113185Y-78485564D01*
X95113185Y-78485564D02*
X95075090Y-78523660D01*
X95075090Y-78523660D02*
X94998899Y-78561755D01*
X94998899Y-78561755D02*
X94770328Y-78561755D01*
X94770328Y-78561755D02*
X94694137Y-78523660D01*
X94694137Y-78523660D02*
X94656042Y-78485564D01*
X121675424Y-34365755D02*
X121675424Y-33565755D01*
X121675424Y-33565755D02*
X121865900Y-33565755D01*
X121865900Y-33565755D02*
X121980186Y-33603850D01*
X121980186Y-33603850D02*
X122056376Y-33680040D01*
X122056376Y-33680040D02*
X122094471Y-33756231D01*
X122094471Y-33756231D02*
X122132567Y-33908612D01*
X122132567Y-33908612D02*
X122132567Y-34022898D01*
X122132567Y-34022898D02*
X122094471Y-34175279D01*
X122094471Y-34175279D02*
X122056376Y-34251469D01*
X122056376Y-34251469D02*
X121980186Y-34327660D01*
X121980186Y-34327660D02*
X121865900Y-34365755D01*
X121865900Y-34365755D02*
X121675424Y-34365755D01*
X122437328Y-33641945D02*
X122475424Y-33603850D01*
X122475424Y-33603850D02*
X122551614Y-33565755D01*
X122551614Y-33565755D02*
X122742090Y-33565755D01*
X122742090Y-33565755D02*
X122818281Y-33603850D01*
X122818281Y-33603850D02*
X122856376Y-33641945D01*
X122856376Y-33641945D02*
X122894471Y-33718136D01*
X122894471Y-33718136D02*
X122894471Y-33794326D01*
X122894471Y-33794326D02*
X122856376Y-33908612D01*
X122856376Y-33908612D02*
X122399233Y-34365755D01*
X122399233Y-34365755D02*
X122894471Y-34365755D01*
X124361471Y-78333183D02*
X124742424Y-78333183D01*
X124285281Y-78561755D02*
X124551948Y-77761755D01*
X124551948Y-77761755D02*
X124818614Y-78561755D01*
X125504328Y-78561755D02*
X125047185Y-78561755D01*
X125275757Y-78561755D02*
X125275757Y-77761755D01*
X125275757Y-77761755D02*
X125199566Y-77876040D01*
X125199566Y-77876040D02*
X125123376Y-77952231D01*
X125123376Y-77952231D02*
X125047185Y-77990326D01*
X98580518Y-78333183D02*
X98961471Y-78333183D01*
X98504328Y-78561755D02*
X98770995Y-77761755D01*
X98770995Y-77761755D02*
X99037661Y-78561755D01*
X99723375Y-78561755D02*
X99266232Y-78561755D01*
X99494804Y-78561755D02*
X99494804Y-77761755D01*
X99494804Y-77761755D02*
X99418613Y-77876040D01*
X99418613Y-77876040D02*
X99342423Y-77952231D01*
X99342423Y-77952231D02*
X99266232Y-77990326D01*
X100485280Y-78561755D02*
X100028137Y-78561755D01*
X100256709Y-78561755D02*
X100256709Y-77761755D01*
X100256709Y-77761755D02*
X100180518Y-77876040D01*
X100180518Y-77876040D02*
X100104328Y-77952231D01*
X100104328Y-77952231D02*
X100028137Y-77990326D01*
X95786518Y-78333183D02*
X96167471Y-78333183D01*
X95710328Y-78561755D02*
X95976995Y-77761755D01*
X95976995Y-77761755D02*
X96243661Y-78561755D01*
X96929375Y-78561755D02*
X96472232Y-78561755D01*
X96700804Y-78561755D02*
X96700804Y-77761755D01*
X96700804Y-77761755D02*
X96624613Y-77876040D01*
X96624613Y-77876040D02*
X96548423Y-77952231D01*
X96548423Y-77952231D02*
X96472232Y-77990326D01*
X97234137Y-77837945D02*
X97272233Y-77799850D01*
X97272233Y-77799850D02*
X97348423Y-77761755D01*
X97348423Y-77761755D02*
X97538899Y-77761755D01*
X97538899Y-77761755D02*
X97615090Y-77799850D01*
X97615090Y-77799850D02*
X97653185Y-77837945D01*
X97653185Y-77837945D02*
X97691280Y-77914136D01*
X97691280Y-77914136D02*
X97691280Y-77990326D01*
X97691280Y-77990326D02*
X97653185Y-78104612D01*
X97653185Y-78104612D02*
X97196042Y-78561755D01*
X97196042Y-78561755D02*
X97691280Y-78561755D01*
X91043042Y-33565755D02*
X91233518Y-34365755D01*
X91233518Y-34365755D02*
X91385899Y-33794326D01*
X91385899Y-33794326D02*
X91538280Y-34365755D01*
X91538280Y-34365755D02*
X91728757Y-33565755D01*
X92490662Y-34365755D02*
X92223995Y-33984802D01*
X92033519Y-34365755D02*
X92033519Y-33565755D01*
X92033519Y-33565755D02*
X92338281Y-33565755D01*
X92338281Y-33565755D02*
X92414471Y-33603850D01*
X92414471Y-33603850D02*
X92452566Y-33641945D01*
X92452566Y-33641945D02*
X92490662Y-33718136D01*
X92490662Y-33718136D02*
X92490662Y-33832421D01*
X92490662Y-33832421D02*
X92452566Y-33908612D01*
X92452566Y-33908612D02*
X92414471Y-33946707D01*
X92414471Y-33946707D02*
X92338281Y-33984802D01*
X92338281Y-33984802D02*
X92033519Y-33984802D01*
X104041471Y-78333183D02*
X104422424Y-78333183D01*
X103965281Y-78561755D02*
X104231948Y-77761755D01*
X104231948Y-77761755D02*
X104498614Y-78561755D01*
X104803376Y-78561755D02*
X104955757Y-78561755D01*
X104955757Y-78561755D02*
X105031947Y-78523660D01*
X105031947Y-78523660D02*
X105070043Y-78485564D01*
X105070043Y-78485564D02*
X105146233Y-78371279D01*
X105146233Y-78371279D02*
X105184328Y-78218898D01*
X105184328Y-78218898D02*
X105184328Y-77914136D01*
X105184328Y-77914136D02*
X105146233Y-77837945D01*
X105146233Y-77837945D02*
X105108138Y-77799850D01*
X105108138Y-77799850D02*
X105031947Y-77761755D01*
X105031947Y-77761755D02*
X104879566Y-77761755D01*
X104879566Y-77761755D02*
X104803376Y-77799850D01*
X104803376Y-77799850D02*
X104765281Y-77837945D01*
X104765281Y-77837945D02*
X104727185Y-77914136D01*
X104727185Y-77914136D02*
X104727185Y-78104612D01*
X104727185Y-78104612D02*
X104765281Y-78180802D01*
X104765281Y-78180802D02*
X104803376Y-78218898D01*
X104803376Y-78218898D02*
X104879566Y-78256993D01*
X104879566Y-78256993D02*
X105031947Y-78256993D01*
X105031947Y-78256993D02*
X105108138Y-78218898D01*
X105108138Y-78218898D02*
X105146233Y-78180802D01*
X105146233Y-78180802D02*
X105184328Y-78104612D01*
X109121471Y-78333183D02*
X109502424Y-78333183D01*
X109045281Y-78561755D02*
X109311948Y-77761755D01*
X109311948Y-77761755D02*
X109578614Y-78561755D01*
X109769090Y-77761755D02*
X110302424Y-77761755D01*
X110302424Y-77761755D02*
X109959566Y-78561755D01*
D11*
X73761904Y-82204819D02*
X73428571Y-81728628D01*
X73190476Y-82204819D02*
X73190476Y-81204819D01*
X73190476Y-81204819D02*
X73571428Y-81204819D01*
X73571428Y-81204819D02*
X73666666Y-81252438D01*
X73666666Y-81252438D02*
X73714285Y-81300057D01*
X73714285Y-81300057D02*
X73761904Y-81395295D01*
X73761904Y-81395295D02*
X73761904Y-81538152D01*
X73761904Y-81538152D02*
X73714285Y-81633390D01*
X73714285Y-81633390D02*
X73666666Y-81681009D01*
X73666666Y-81681009D02*
X73571428Y-81728628D01*
X73571428Y-81728628D02*
X73190476Y-81728628D01*
X74571428Y-82157200D02*
X74476190Y-82204819D01*
X74476190Y-82204819D02*
X74285714Y-82204819D01*
X74285714Y-82204819D02*
X74190476Y-82157200D01*
X74190476Y-82157200D02*
X74142857Y-82061961D01*
X74142857Y-82061961D02*
X74142857Y-81681009D01*
X74142857Y-81681009D02*
X74190476Y-81585771D01*
X74190476Y-81585771D02*
X74285714Y-81538152D01*
X74285714Y-81538152D02*
X74476190Y-81538152D01*
X74476190Y-81538152D02*
X74571428Y-81585771D01*
X74571428Y-81585771D02*
X74619047Y-81681009D01*
X74619047Y-81681009D02*
X74619047Y-81776247D01*
X74619047Y-81776247D02*
X74142857Y-81871485D01*
X75000000Y-82157200D02*
X75095238Y-82204819D01*
X75095238Y-82204819D02*
X75285714Y-82204819D01*
X75285714Y-82204819D02*
X75380952Y-82157200D01*
X75380952Y-82157200D02*
X75428571Y-82061961D01*
X75428571Y-82061961D02*
X75428571Y-82014342D01*
X75428571Y-82014342D02*
X75380952Y-81919104D01*
X75380952Y-81919104D02*
X75285714Y-81871485D01*
X75285714Y-81871485D02*
X75142857Y-81871485D01*
X75142857Y-81871485D02*
X75047619Y-81823866D01*
X75047619Y-81823866D02*
X75000000Y-81728628D01*
X75000000Y-81728628D02*
X75000000Y-81681009D01*
X75000000Y-81681009D02*
X75047619Y-81585771D01*
X75047619Y-81585771D02*
X75142857Y-81538152D01*
X75142857Y-81538152D02*
X75285714Y-81538152D01*
X75285714Y-81538152D02*
X75380952Y-81585771D01*
X76238095Y-82157200D02*
X76142857Y-82204819D01*
X76142857Y-82204819D02*
X75952381Y-82204819D01*
X75952381Y-82204819D02*
X75857143Y-82157200D01*
X75857143Y-82157200D02*
X75809524Y-82061961D01*
X75809524Y-82061961D02*
X75809524Y-81681009D01*
X75809524Y-81681009D02*
X75857143Y-81585771D01*
X75857143Y-81585771D02*
X75952381Y-81538152D01*
X75952381Y-81538152D02*
X76142857Y-81538152D01*
X76142857Y-81538152D02*
X76238095Y-81585771D01*
X76238095Y-81585771D02*
X76285714Y-81681009D01*
X76285714Y-81681009D02*
X76285714Y-81776247D01*
X76285714Y-81776247D02*
X75809524Y-81871485D01*
X76571429Y-81538152D02*
X76952381Y-81538152D01*
X76714286Y-81204819D02*
X76714286Y-82061961D01*
X76714286Y-82061961D02*
X76761905Y-82157200D01*
X76761905Y-82157200D02*
X76857143Y-82204819D01*
X76857143Y-82204819D02*
X76952381Y-82204819D01*
D10*
X121821471Y-78333183D02*
X122202424Y-78333183D01*
X121745281Y-78561755D02*
X122011948Y-77761755D01*
X122011948Y-77761755D02*
X122278614Y-78561755D01*
X122507185Y-77837945D02*
X122545281Y-77799850D01*
X122545281Y-77799850D02*
X122621471Y-77761755D01*
X122621471Y-77761755D02*
X122811947Y-77761755D01*
X122811947Y-77761755D02*
X122888138Y-77799850D01*
X122888138Y-77799850D02*
X122926233Y-77837945D01*
X122926233Y-77837945D02*
X122964328Y-77914136D01*
X122964328Y-77914136D02*
X122964328Y-77990326D01*
X122964328Y-77990326D02*
X122926233Y-78104612D01*
X122926233Y-78104612D02*
X122469090Y-78561755D01*
X122469090Y-78561755D02*
X122964328Y-78561755D01*
X113928424Y-34365755D02*
X113928424Y-33565755D01*
X113928424Y-33565755D02*
X114118900Y-33565755D01*
X114118900Y-33565755D02*
X114233186Y-33603850D01*
X114233186Y-33603850D02*
X114309376Y-33680040D01*
X114309376Y-33680040D02*
X114347471Y-33756231D01*
X114347471Y-33756231D02*
X114385567Y-33908612D01*
X114385567Y-33908612D02*
X114385567Y-34022898D01*
X114385567Y-34022898D02*
X114347471Y-34175279D01*
X114347471Y-34175279D02*
X114309376Y-34251469D01*
X114309376Y-34251469D02*
X114233186Y-34327660D01*
X114233186Y-34327660D02*
X114118900Y-34365755D01*
X114118900Y-34365755D02*
X113928424Y-34365755D01*
X115109376Y-33565755D02*
X114728424Y-33565755D01*
X114728424Y-33565755D02*
X114690328Y-33946707D01*
X114690328Y-33946707D02*
X114728424Y-33908612D01*
X114728424Y-33908612D02*
X114804614Y-33870517D01*
X114804614Y-33870517D02*
X114995090Y-33870517D01*
X114995090Y-33870517D02*
X115071281Y-33908612D01*
X115071281Y-33908612D02*
X115109376Y-33946707D01*
X115109376Y-33946707D02*
X115147471Y-34022898D01*
X115147471Y-34022898D02*
X115147471Y-34213374D01*
X115147471Y-34213374D02*
X115109376Y-34289564D01*
X115109376Y-34289564D02*
X115071281Y-34327660D01*
X115071281Y-34327660D02*
X114995090Y-34365755D01*
X114995090Y-34365755D02*
X114804614Y-34365755D01*
X114804614Y-34365755D02*
X114728424Y-34327660D01*
X114728424Y-34327660D02*
X114690328Y-34289564D01*
X93240186Y-34365755D02*
X93240186Y-33565755D01*
X93240186Y-33565755D02*
X93506852Y-34137183D01*
X93506852Y-34137183D02*
X93773519Y-33565755D01*
X93773519Y-33565755D02*
X93773519Y-34365755D01*
X94611615Y-34365755D02*
X94344948Y-33984802D01*
X94154472Y-34365755D02*
X94154472Y-33565755D01*
X94154472Y-33565755D02*
X94459234Y-33565755D01*
X94459234Y-33565755D02*
X94535424Y-33603850D01*
X94535424Y-33603850D02*
X94573519Y-33641945D01*
X94573519Y-33641945D02*
X94611615Y-33718136D01*
X94611615Y-33718136D02*
X94611615Y-33832421D01*
X94611615Y-33832421D02*
X94573519Y-33908612D01*
X94573519Y-33908612D02*
X94535424Y-33946707D01*
X94535424Y-33946707D02*
X94459234Y-33984802D01*
X94459234Y-33984802D02*
X94154472Y-33984802D01*
X95487805Y-34441945D02*
X95411615Y-34403850D01*
X95411615Y-34403850D02*
X95335424Y-34327660D01*
X95335424Y-34327660D02*
X95221138Y-34213374D01*
X95221138Y-34213374D02*
X95144948Y-34175279D01*
X95144948Y-34175279D02*
X95068757Y-34175279D01*
X95106853Y-34365755D02*
X95030662Y-34327660D01*
X95030662Y-34327660D02*
X94954472Y-34251469D01*
X94954472Y-34251469D02*
X94916376Y-34099088D01*
X94916376Y-34099088D02*
X94916376Y-33832421D01*
X94916376Y-33832421D02*
X94954472Y-33680040D01*
X94954472Y-33680040D02*
X95030662Y-33603850D01*
X95030662Y-33603850D02*
X95106853Y-33565755D01*
X95106853Y-33565755D02*
X95259234Y-33565755D01*
X95259234Y-33565755D02*
X95335424Y-33603850D01*
X95335424Y-33603850D02*
X95411615Y-33680040D01*
X95411615Y-33680040D02*
X95449710Y-33832421D01*
X95449710Y-33832421D02*
X95449710Y-34099088D01*
X95449710Y-34099088D02*
X95411615Y-34251469D01*
X95411615Y-34251469D02*
X95335424Y-34327660D01*
X95335424Y-34327660D02*
X95259234Y-34365755D01*
X95259234Y-34365755D02*
X95106853Y-34365755D01*
X101469710Y-34289564D02*
X101431614Y-34327660D01*
X101431614Y-34327660D02*
X101317329Y-34365755D01*
X101317329Y-34365755D02*
X101241138Y-34365755D01*
X101241138Y-34365755D02*
X101126852Y-34327660D01*
X101126852Y-34327660D02*
X101050662Y-34251469D01*
X101050662Y-34251469D02*
X101012567Y-34175279D01*
X101012567Y-34175279D02*
X100974471Y-34022898D01*
X100974471Y-34022898D02*
X100974471Y-33908612D01*
X100974471Y-33908612D02*
X101012567Y-33756231D01*
X101012567Y-33756231D02*
X101050662Y-33680040D01*
X101050662Y-33680040D02*
X101126852Y-33603850D01*
X101126852Y-33603850D02*
X101241138Y-33565755D01*
X101241138Y-33565755D02*
X101317329Y-33565755D01*
X101317329Y-33565755D02*
X101431614Y-33603850D01*
X101431614Y-33603850D02*
X101469710Y-33641945D01*
X102193519Y-34365755D02*
X101812567Y-34365755D01*
X101812567Y-34365755D02*
X101812567Y-33565755D01*
X102460186Y-34365755D02*
X102460186Y-33565755D01*
X102917329Y-34365755D02*
X102574471Y-33908612D01*
X102917329Y-33565755D02*
X102460186Y-34022898D01*
X124215424Y-34365755D02*
X124215424Y-33565755D01*
X124215424Y-33565755D02*
X124405900Y-33565755D01*
X124405900Y-33565755D02*
X124520186Y-33603850D01*
X124520186Y-33603850D02*
X124596376Y-33680040D01*
X124596376Y-33680040D02*
X124634471Y-33756231D01*
X124634471Y-33756231D02*
X124672567Y-33908612D01*
X124672567Y-33908612D02*
X124672567Y-34022898D01*
X124672567Y-34022898D02*
X124634471Y-34175279D01*
X124634471Y-34175279D02*
X124596376Y-34251469D01*
X124596376Y-34251469D02*
X124520186Y-34327660D01*
X124520186Y-34327660D02*
X124405900Y-34365755D01*
X124405900Y-34365755D02*
X124215424Y-34365755D01*
X125434471Y-34365755D02*
X124977328Y-34365755D01*
X125205900Y-34365755D02*
X125205900Y-33565755D01*
X125205900Y-33565755D02*
X125129709Y-33680040D01*
X125129709Y-33680040D02*
X125053519Y-33756231D01*
X125053519Y-33756231D02*
X124977328Y-33794326D01*
X88293518Y-78333183D02*
X88674471Y-78333183D01*
X88217328Y-78561755D02*
X88483995Y-77761755D01*
X88483995Y-77761755D02*
X88750661Y-78561755D01*
X89436375Y-78561755D02*
X88979232Y-78561755D01*
X89207804Y-78561755D02*
X89207804Y-77761755D01*
X89207804Y-77761755D02*
X89131613Y-77876040D01*
X89131613Y-77876040D02*
X89055423Y-77952231D01*
X89055423Y-77952231D02*
X88979232Y-77990326D01*
X90160185Y-77761755D02*
X89779233Y-77761755D01*
X89779233Y-77761755D02*
X89741137Y-78142707D01*
X89741137Y-78142707D02*
X89779233Y-78104612D01*
X89779233Y-78104612D02*
X89855423Y-78066517D01*
X89855423Y-78066517D02*
X90045899Y-78066517D01*
X90045899Y-78066517D02*
X90122090Y-78104612D01*
X90122090Y-78104612D02*
X90160185Y-78142707D01*
X90160185Y-78142707D02*
X90198280Y-78218898D01*
X90198280Y-78218898D02*
X90198280Y-78409374D01*
X90198280Y-78409374D02*
X90160185Y-78485564D01*
X90160185Y-78485564D02*
X90122090Y-78523660D01*
X90122090Y-78523660D02*
X90045899Y-78561755D01*
X90045899Y-78561755D02*
X89855423Y-78561755D01*
X89855423Y-78561755D02*
X89779233Y-78523660D01*
X89779233Y-78523660D02*
X89741137Y-78485564D01*
D11*
X48847441Y-83116052D02*
X49371250Y-83116052D01*
X49371250Y-83116052D02*
X48847441Y-83782719D01*
X48847441Y-83782719D02*
X49371250Y-83782719D01*
X49895060Y-83211290D02*
X49799822Y-83163671D01*
X49799822Y-83163671D02*
X49752203Y-83116052D01*
X49752203Y-83116052D02*
X49704584Y-83020814D01*
X49704584Y-83020814D02*
X49704584Y-82973195D01*
X49704584Y-82973195D02*
X49752203Y-82877957D01*
X49752203Y-82877957D02*
X49799822Y-82830338D01*
X49799822Y-82830338D02*
X49895060Y-82782719D01*
X49895060Y-82782719D02*
X50085536Y-82782719D01*
X50085536Y-82782719D02*
X50180774Y-82830338D01*
X50180774Y-82830338D02*
X50228393Y-82877957D01*
X50228393Y-82877957D02*
X50276012Y-82973195D01*
X50276012Y-82973195D02*
X50276012Y-83020814D01*
X50276012Y-83020814D02*
X50228393Y-83116052D01*
X50228393Y-83116052D02*
X50180774Y-83163671D01*
X50180774Y-83163671D02*
X50085536Y-83211290D01*
X50085536Y-83211290D02*
X49895060Y-83211290D01*
X49895060Y-83211290D02*
X49799822Y-83258909D01*
X49799822Y-83258909D02*
X49752203Y-83306528D01*
X49752203Y-83306528D02*
X49704584Y-83401766D01*
X49704584Y-83401766D02*
X49704584Y-83592242D01*
X49704584Y-83592242D02*
X49752203Y-83687480D01*
X49752203Y-83687480D02*
X49799822Y-83735100D01*
X49799822Y-83735100D02*
X49895060Y-83782719D01*
X49895060Y-83782719D02*
X50085536Y-83782719D01*
X50085536Y-83782719D02*
X50180774Y-83735100D01*
X50180774Y-83735100D02*
X50228393Y-83687480D01*
X50228393Y-83687480D02*
X50276012Y-83592242D01*
X50276012Y-83592242D02*
X50276012Y-83401766D01*
X50276012Y-83401766D02*
X50228393Y-83306528D01*
X50228393Y-83306528D02*
X50180774Y-83258909D01*
X50180774Y-83258909D02*
X50085536Y-83211290D01*
X50895060Y-82782719D02*
X50990298Y-82782719D01*
X50990298Y-82782719D02*
X51085536Y-82830338D01*
X51085536Y-82830338D02*
X51133155Y-82877957D01*
X51133155Y-82877957D02*
X51180774Y-82973195D01*
X51180774Y-82973195D02*
X51228393Y-83163671D01*
X51228393Y-83163671D02*
X51228393Y-83401766D01*
X51228393Y-83401766D02*
X51180774Y-83592242D01*
X51180774Y-83592242D02*
X51133155Y-83687480D01*
X51133155Y-83687480D02*
X51085536Y-83735100D01*
X51085536Y-83735100D02*
X50990298Y-83782719D01*
X50990298Y-83782719D02*
X50895060Y-83782719D01*
X50895060Y-83782719D02*
X50799822Y-83735100D01*
X50799822Y-83735100D02*
X50752203Y-83687480D01*
X50752203Y-83687480D02*
X50704584Y-83592242D01*
X50704584Y-83592242D02*
X50656965Y-83401766D01*
X50656965Y-83401766D02*
X50656965Y-83163671D01*
X50656965Y-83163671D02*
X50704584Y-82973195D01*
X50704584Y-82973195D02*
X50752203Y-82877957D01*
X50752203Y-82877957D02*
X50799822Y-82830338D01*
X50799822Y-82830338D02*
X50895060Y-82782719D01*
X52990298Y-83782719D02*
X52656965Y-83306528D01*
X52418870Y-83782719D02*
X52418870Y-82782719D01*
X52418870Y-82782719D02*
X52799822Y-82782719D01*
X52799822Y-82782719D02*
X52895060Y-82830338D01*
X52895060Y-82830338D02*
X52942679Y-82877957D01*
X52942679Y-82877957D02*
X52990298Y-82973195D01*
X52990298Y-82973195D02*
X52990298Y-83116052D01*
X52990298Y-83116052D02*
X52942679Y-83211290D01*
X52942679Y-83211290D02*
X52895060Y-83258909D01*
X52895060Y-83258909D02*
X52799822Y-83306528D01*
X52799822Y-83306528D02*
X52418870Y-83306528D01*
X53847441Y-83782719D02*
X53847441Y-83258909D01*
X53847441Y-83258909D02*
X53799822Y-83163671D01*
X53799822Y-83163671D02*
X53704584Y-83116052D01*
X53704584Y-83116052D02*
X53514108Y-83116052D01*
X53514108Y-83116052D02*
X53418870Y-83163671D01*
X53847441Y-83735100D02*
X53752203Y-83782719D01*
X53752203Y-83782719D02*
X53514108Y-83782719D01*
X53514108Y-83782719D02*
X53418870Y-83735100D01*
X53418870Y-83735100D02*
X53371251Y-83639861D01*
X53371251Y-83639861D02*
X53371251Y-83544623D01*
X53371251Y-83544623D02*
X53418870Y-83449385D01*
X53418870Y-83449385D02*
X53514108Y-83401766D01*
X53514108Y-83401766D02*
X53752203Y-83401766D01*
X53752203Y-83401766D02*
X53847441Y-83354147D01*
X54323632Y-83116052D02*
X54323632Y-84116052D01*
X54323632Y-83163671D02*
X54418870Y-83116052D01*
X54418870Y-83116052D02*
X54609346Y-83116052D01*
X54609346Y-83116052D02*
X54704584Y-83163671D01*
X54704584Y-83163671D02*
X54752203Y-83211290D01*
X54752203Y-83211290D02*
X54799822Y-83306528D01*
X54799822Y-83306528D02*
X54799822Y-83592242D01*
X54799822Y-83592242D02*
X54752203Y-83687480D01*
X54752203Y-83687480D02*
X54704584Y-83735100D01*
X54704584Y-83735100D02*
X54609346Y-83782719D01*
X54609346Y-83782719D02*
X54418870Y-83782719D01*
X54418870Y-83782719D02*
X54323632Y-83735100D01*
X55228394Y-83782719D02*
X55228394Y-83116052D01*
X55228394Y-82782719D02*
X55180775Y-82830338D01*
X55180775Y-82830338D02*
X55228394Y-82877957D01*
X55228394Y-82877957D02*
X55276013Y-82830338D01*
X55276013Y-82830338D02*
X55228394Y-82782719D01*
X55228394Y-82782719D02*
X55228394Y-82877957D01*
X56133155Y-83782719D02*
X56133155Y-82782719D01*
X56133155Y-83735100D02*
X56037917Y-83782719D01*
X56037917Y-83782719D02*
X55847441Y-83782719D01*
X55847441Y-83782719D02*
X55752203Y-83735100D01*
X55752203Y-83735100D02*
X55704584Y-83687480D01*
X55704584Y-83687480D02*
X55656965Y-83592242D01*
X55656965Y-83592242D02*
X55656965Y-83306528D01*
X55656965Y-83306528D02*
X55704584Y-83211290D01*
X55704584Y-83211290D02*
X55752203Y-83163671D01*
X55752203Y-83163671D02*
X55847441Y-83116052D01*
X55847441Y-83116052D02*
X56037917Y-83116052D01*
X56037917Y-83116052D02*
X56133155Y-83163671D01*
X57371251Y-83782719D02*
X57371251Y-82782719D01*
X57371251Y-82782719D02*
X57752203Y-82782719D01*
X57752203Y-82782719D02*
X57847441Y-82830338D01*
X57847441Y-82830338D02*
X57895060Y-82877957D01*
X57895060Y-82877957D02*
X57942679Y-82973195D01*
X57942679Y-82973195D02*
X57942679Y-83116052D01*
X57942679Y-83116052D02*
X57895060Y-83211290D01*
X57895060Y-83211290D02*
X57847441Y-83258909D01*
X57847441Y-83258909D02*
X57752203Y-83306528D01*
X57752203Y-83306528D02*
X57371251Y-83306528D01*
X58371251Y-83782719D02*
X58371251Y-83116052D01*
X58371251Y-83306528D02*
X58418870Y-83211290D01*
X58418870Y-83211290D02*
X58466489Y-83163671D01*
X58466489Y-83163671D02*
X58561727Y-83116052D01*
X58561727Y-83116052D02*
X58656965Y-83116052D01*
X59133156Y-83782719D02*
X59037918Y-83735100D01*
X59037918Y-83735100D02*
X58990299Y-83687480D01*
X58990299Y-83687480D02*
X58942680Y-83592242D01*
X58942680Y-83592242D02*
X58942680Y-83306528D01*
X58942680Y-83306528D02*
X58990299Y-83211290D01*
X58990299Y-83211290D02*
X59037918Y-83163671D01*
X59037918Y-83163671D02*
X59133156Y-83116052D01*
X59133156Y-83116052D02*
X59276013Y-83116052D01*
X59276013Y-83116052D02*
X59371251Y-83163671D01*
X59371251Y-83163671D02*
X59418870Y-83211290D01*
X59418870Y-83211290D02*
X59466489Y-83306528D01*
X59466489Y-83306528D02*
X59466489Y-83592242D01*
X59466489Y-83592242D02*
X59418870Y-83687480D01*
X59418870Y-83687480D02*
X59371251Y-83735100D01*
X59371251Y-83735100D02*
X59276013Y-83782719D01*
X59276013Y-83782719D02*
X59133156Y-83782719D01*
X59752204Y-83116052D02*
X60133156Y-83116052D01*
X59895061Y-82782719D02*
X59895061Y-83639861D01*
X59895061Y-83639861D02*
X59942680Y-83735100D01*
X59942680Y-83735100D02*
X60037918Y-83782719D01*
X60037918Y-83782719D02*
X60133156Y-83782719D01*
X60609347Y-83782719D02*
X60514109Y-83735100D01*
X60514109Y-83735100D02*
X60466490Y-83687480D01*
X60466490Y-83687480D02*
X60418871Y-83592242D01*
X60418871Y-83592242D02*
X60418871Y-83306528D01*
X60418871Y-83306528D02*
X60466490Y-83211290D01*
X60466490Y-83211290D02*
X60514109Y-83163671D01*
X60514109Y-83163671D02*
X60609347Y-83116052D01*
X60609347Y-83116052D02*
X60752204Y-83116052D01*
X60752204Y-83116052D02*
X60847442Y-83163671D01*
X60847442Y-83163671D02*
X60895061Y-83211290D01*
X60895061Y-83211290D02*
X60942680Y-83306528D01*
X60942680Y-83306528D02*
X60942680Y-83592242D01*
X60942680Y-83592242D02*
X60895061Y-83687480D01*
X60895061Y-83687480D02*
X60847442Y-83735100D01*
X60847442Y-83735100D02*
X60752204Y-83782719D01*
X60752204Y-83782719D02*
X60609347Y-83782719D01*
X61228395Y-83116052D02*
X61609347Y-83116052D01*
X61371252Y-82782719D02*
X61371252Y-83639861D01*
X61371252Y-83639861D02*
X61418871Y-83735100D01*
X61418871Y-83735100D02*
X61514109Y-83782719D01*
X61514109Y-83782719D02*
X61609347Y-83782719D01*
X61847443Y-83116052D02*
X62085538Y-83782719D01*
X62323633Y-83116052D02*
X62085538Y-83782719D01*
X62085538Y-83782719D02*
X61990300Y-84020814D01*
X61990300Y-84020814D02*
X61942681Y-84068433D01*
X61942681Y-84068433D02*
X61847443Y-84116052D01*
X62704586Y-83116052D02*
X62704586Y-84116052D01*
X62704586Y-83163671D02*
X62799824Y-83116052D01*
X62799824Y-83116052D02*
X62990300Y-83116052D01*
X62990300Y-83116052D02*
X63085538Y-83163671D01*
X63085538Y-83163671D02*
X63133157Y-83211290D01*
X63133157Y-83211290D02*
X63180776Y-83306528D01*
X63180776Y-83306528D02*
X63180776Y-83592242D01*
X63180776Y-83592242D02*
X63133157Y-83687480D01*
X63133157Y-83687480D02*
X63085538Y-83735100D01*
X63085538Y-83735100D02*
X62990300Y-83782719D01*
X62990300Y-83782719D02*
X62799824Y-83782719D01*
X62799824Y-83782719D02*
X62704586Y-83735100D01*
X63609348Y-83782719D02*
X63609348Y-83116052D01*
X63609348Y-82782719D02*
X63561729Y-82830338D01*
X63561729Y-82830338D02*
X63609348Y-82877957D01*
X63609348Y-82877957D02*
X63656967Y-82830338D01*
X63656967Y-82830338D02*
X63609348Y-82782719D01*
X63609348Y-82782719D02*
X63609348Y-82877957D01*
X64085538Y-83116052D02*
X64085538Y-83782719D01*
X64085538Y-83211290D02*
X64133157Y-83163671D01*
X64133157Y-83163671D02*
X64228395Y-83116052D01*
X64228395Y-83116052D02*
X64371252Y-83116052D01*
X64371252Y-83116052D02*
X64466490Y-83163671D01*
X64466490Y-83163671D02*
X64514109Y-83258909D01*
X64514109Y-83258909D02*
X64514109Y-83782719D01*
X65418871Y-83116052D02*
X65418871Y-83925576D01*
X65418871Y-83925576D02*
X65371252Y-84020814D01*
X65371252Y-84020814D02*
X65323633Y-84068433D01*
X65323633Y-84068433D02*
X65228395Y-84116052D01*
X65228395Y-84116052D02*
X65085538Y-84116052D01*
X65085538Y-84116052D02*
X64990300Y-84068433D01*
X65418871Y-83735100D02*
X65323633Y-83782719D01*
X65323633Y-83782719D02*
X65133157Y-83782719D01*
X65133157Y-83782719D02*
X65037919Y-83735100D01*
X65037919Y-83735100D02*
X64990300Y-83687480D01*
X64990300Y-83687480D02*
X64942681Y-83592242D01*
X64942681Y-83592242D02*
X64942681Y-83306528D01*
X64942681Y-83306528D02*
X64990300Y-83211290D01*
X64990300Y-83211290D02*
X65037919Y-83163671D01*
X65037919Y-83163671D02*
X65133157Y-83116052D01*
X65133157Y-83116052D02*
X65323633Y-83116052D01*
X65323633Y-83116052D02*
X65418871Y-83163671D01*
X66656967Y-83782719D02*
X66656967Y-82782719D01*
X66656967Y-82782719D02*
X66990300Y-83497004D01*
X66990300Y-83497004D02*
X67323633Y-82782719D01*
X67323633Y-82782719D02*
X67323633Y-83782719D01*
X67942681Y-83782719D02*
X67847443Y-83735100D01*
X67847443Y-83735100D02*
X67799824Y-83687480D01*
X67799824Y-83687480D02*
X67752205Y-83592242D01*
X67752205Y-83592242D02*
X67752205Y-83306528D01*
X67752205Y-83306528D02*
X67799824Y-83211290D01*
X67799824Y-83211290D02*
X67847443Y-83163671D01*
X67847443Y-83163671D02*
X67942681Y-83116052D01*
X67942681Y-83116052D02*
X68085538Y-83116052D01*
X68085538Y-83116052D02*
X68180776Y-83163671D01*
X68180776Y-83163671D02*
X68228395Y-83211290D01*
X68228395Y-83211290D02*
X68276014Y-83306528D01*
X68276014Y-83306528D02*
X68276014Y-83592242D01*
X68276014Y-83592242D02*
X68228395Y-83687480D01*
X68228395Y-83687480D02*
X68180776Y-83735100D01*
X68180776Y-83735100D02*
X68085538Y-83782719D01*
X68085538Y-83782719D02*
X67942681Y-83782719D01*
X69133157Y-83782719D02*
X69133157Y-82782719D01*
X69133157Y-83735100D02*
X69037919Y-83782719D01*
X69037919Y-83782719D02*
X68847443Y-83782719D01*
X68847443Y-83782719D02*
X68752205Y-83735100D01*
X68752205Y-83735100D02*
X68704586Y-83687480D01*
X68704586Y-83687480D02*
X68656967Y-83592242D01*
X68656967Y-83592242D02*
X68656967Y-83306528D01*
X68656967Y-83306528D02*
X68704586Y-83211290D01*
X68704586Y-83211290D02*
X68752205Y-83163671D01*
X68752205Y-83163671D02*
X68847443Y-83116052D01*
X68847443Y-83116052D02*
X69037919Y-83116052D01*
X69037919Y-83116052D02*
X69133157Y-83163671D01*
X70037919Y-83116052D02*
X70037919Y-83782719D01*
X69609348Y-83116052D02*
X69609348Y-83639861D01*
X69609348Y-83639861D02*
X69656967Y-83735100D01*
X69656967Y-83735100D02*
X69752205Y-83782719D01*
X69752205Y-83782719D02*
X69895062Y-83782719D01*
X69895062Y-83782719D02*
X69990300Y-83735100D01*
X69990300Y-83735100D02*
X70037919Y-83687480D01*
X70656967Y-83782719D02*
X70561729Y-83735100D01*
X70561729Y-83735100D02*
X70514110Y-83639861D01*
X70514110Y-83639861D02*
X70514110Y-82782719D01*
X71418872Y-83735100D02*
X71323634Y-83782719D01*
X71323634Y-83782719D02*
X71133158Y-83782719D01*
X71133158Y-83782719D02*
X71037920Y-83735100D01*
X71037920Y-83735100D02*
X70990301Y-83639861D01*
X70990301Y-83639861D02*
X70990301Y-83258909D01*
X70990301Y-83258909D02*
X71037920Y-83163671D01*
X71037920Y-83163671D02*
X71133158Y-83116052D01*
X71133158Y-83116052D02*
X71323634Y-83116052D01*
X71323634Y-83116052D02*
X71418872Y-83163671D01*
X71418872Y-83163671D02*
X71466491Y-83258909D01*
X71466491Y-83258909D02*
X71466491Y-83354147D01*
X71466491Y-83354147D02*
X70990301Y-83449385D01*
X72561730Y-83116052D02*
X72799825Y-83782719D01*
X72799825Y-83782719D02*
X73037920Y-83116052D01*
X73942682Y-83782719D02*
X73371254Y-83782719D01*
X73656968Y-83782719D02*
X73656968Y-82782719D01*
X73656968Y-82782719D02*
X73561730Y-82925576D01*
X73561730Y-82925576D02*
X73466492Y-83020814D01*
X73466492Y-83020814D02*
X73371254Y-83068433D01*
X74371254Y-83687480D02*
X74418873Y-83735100D01*
X74418873Y-83735100D02*
X74371254Y-83782719D01*
X74371254Y-83782719D02*
X74323635Y-83735100D01*
X74323635Y-83735100D02*
X74371254Y-83687480D01*
X74371254Y-83687480D02*
X74371254Y-83782719D01*
X75371253Y-83782719D02*
X74799825Y-83782719D01*
X75085539Y-83782719D02*
X75085539Y-82782719D01*
X75085539Y-82782719D02*
X74990301Y-82925576D01*
X74990301Y-82925576D02*
X74895063Y-83020814D01*
X74895063Y-83020814D02*
X74799825Y-83068433D01*
D10*
X101120518Y-78333183D02*
X101501471Y-78333183D01*
X101044328Y-78561755D02*
X101310995Y-77761755D01*
X101310995Y-77761755D02*
X101577661Y-78561755D01*
X102263375Y-78561755D02*
X101806232Y-78561755D01*
X102034804Y-78561755D02*
X102034804Y-77761755D01*
X102034804Y-77761755D02*
X101958613Y-77876040D01*
X101958613Y-77876040D02*
X101882423Y-77952231D01*
X101882423Y-77952231D02*
X101806232Y-77990326D01*
X102758614Y-77761755D02*
X102834804Y-77761755D01*
X102834804Y-77761755D02*
X102910995Y-77799850D01*
X102910995Y-77799850D02*
X102949090Y-77837945D01*
X102949090Y-77837945D02*
X102987185Y-77914136D01*
X102987185Y-77914136D02*
X103025280Y-78066517D01*
X103025280Y-78066517D02*
X103025280Y-78256993D01*
X103025280Y-78256993D02*
X102987185Y-78409374D01*
X102987185Y-78409374D02*
X102949090Y-78485564D01*
X102949090Y-78485564D02*
X102910995Y-78523660D01*
X102910995Y-78523660D02*
X102834804Y-78561755D01*
X102834804Y-78561755D02*
X102758614Y-78561755D01*
X102758614Y-78561755D02*
X102682423Y-78523660D01*
X102682423Y-78523660D02*
X102644328Y-78485564D01*
X102644328Y-78485564D02*
X102606233Y-78409374D01*
X102606233Y-78409374D02*
X102568137Y-78256993D01*
X102568137Y-78256993D02*
X102568137Y-78066517D01*
X102568137Y-78066517D02*
X102606233Y-77914136D01*
X102606233Y-77914136D02*
X102644328Y-77837945D01*
X102644328Y-77837945D02*
X102682423Y-77799850D01*
X102682423Y-77799850D02*
X102758614Y-77761755D01*
X104047805Y-34365755D02*
X103781138Y-33984802D01*
X103590662Y-34365755D02*
X103590662Y-33565755D01*
X103590662Y-33565755D02*
X103895424Y-33565755D01*
X103895424Y-33565755D02*
X103971614Y-33603850D01*
X103971614Y-33603850D02*
X104009709Y-33641945D01*
X104009709Y-33641945D02*
X104047805Y-33718136D01*
X104047805Y-33718136D02*
X104047805Y-33832421D01*
X104047805Y-33832421D02*
X104009709Y-33908612D01*
X104009709Y-33908612D02*
X103971614Y-33946707D01*
X103971614Y-33946707D02*
X103895424Y-33984802D01*
X103895424Y-33984802D02*
X103590662Y-33984802D01*
X104352566Y-34327660D02*
X104466852Y-34365755D01*
X104466852Y-34365755D02*
X104657328Y-34365755D01*
X104657328Y-34365755D02*
X104733519Y-34327660D01*
X104733519Y-34327660D02*
X104771614Y-34289564D01*
X104771614Y-34289564D02*
X104809709Y-34213374D01*
X104809709Y-34213374D02*
X104809709Y-34137183D01*
X104809709Y-34137183D02*
X104771614Y-34060993D01*
X104771614Y-34060993D02*
X104733519Y-34022898D01*
X104733519Y-34022898D02*
X104657328Y-33984802D01*
X104657328Y-33984802D02*
X104504947Y-33946707D01*
X104504947Y-33946707D02*
X104428757Y-33908612D01*
X104428757Y-33908612D02*
X104390662Y-33870517D01*
X104390662Y-33870517D02*
X104352566Y-33794326D01*
X104352566Y-33794326D02*
X104352566Y-33718136D01*
X104352566Y-33718136D02*
X104390662Y-33641945D01*
X104390662Y-33641945D02*
X104428757Y-33603850D01*
X104428757Y-33603850D02*
X104504947Y-33565755D01*
X104504947Y-33565755D02*
X104695424Y-33565755D01*
X104695424Y-33565755D02*
X104809709Y-33603850D01*
X105038281Y-33565755D02*
X105495424Y-33565755D01*
X105266852Y-34365755D02*
X105266852Y-33565755D01*
X129390710Y-34746755D02*
X129390710Y-33946755D01*
X129390710Y-33946755D02*
X129847853Y-34746755D01*
X129847853Y-34746755D02*
X129847853Y-33946755D01*
X130228805Y-34746755D02*
X130228805Y-33946755D01*
X130228805Y-33946755D02*
X130495471Y-34518183D01*
X130495471Y-34518183D02*
X130762138Y-33946755D01*
X130762138Y-33946755D02*
X130762138Y-34746755D01*
X131143091Y-34746755D02*
X131143091Y-33946755D01*
X129714519Y-42366755D02*
X129447852Y-41985802D01*
X129257376Y-42366755D02*
X129257376Y-41566755D01*
X129257376Y-41566755D02*
X129562138Y-41566755D01*
X129562138Y-41566755D02*
X129638328Y-41604850D01*
X129638328Y-41604850D02*
X129676423Y-41642945D01*
X129676423Y-41642945D02*
X129714519Y-41719136D01*
X129714519Y-41719136D02*
X129714519Y-41833421D01*
X129714519Y-41833421D02*
X129676423Y-41909612D01*
X129676423Y-41909612D02*
X129638328Y-41947707D01*
X129638328Y-41947707D02*
X129562138Y-41985802D01*
X129562138Y-41985802D02*
X129257376Y-41985802D01*
X130019280Y-42328660D02*
X130133566Y-42366755D01*
X130133566Y-42366755D02*
X130324042Y-42366755D01*
X130324042Y-42366755D02*
X130400233Y-42328660D01*
X130400233Y-42328660D02*
X130438328Y-42290564D01*
X130438328Y-42290564D02*
X130476423Y-42214374D01*
X130476423Y-42214374D02*
X130476423Y-42138183D01*
X130476423Y-42138183D02*
X130438328Y-42061993D01*
X130438328Y-42061993D02*
X130400233Y-42023898D01*
X130400233Y-42023898D02*
X130324042Y-41985802D01*
X130324042Y-41985802D02*
X130171661Y-41947707D01*
X130171661Y-41947707D02*
X130095471Y-41909612D01*
X130095471Y-41909612D02*
X130057376Y-41871517D01*
X130057376Y-41871517D02*
X130019280Y-41795326D01*
X130019280Y-41795326D02*
X130019280Y-41719136D01*
X130019280Y-41719136D02*
X130057376Y-41642945D01*
X130057376Y-41642945D02*
X130095471Y-41604850D01*
X130095471Y-41604850D02*
X130171661Y-41566755D01*
X130171661Y-41566755D02*
X130362138Y-41566755D01*
X130362138Y-41566755D02*
X130476423Y-41604850D01*
X130819281Y-42366755D02*
X130819281Y-41566755D01*
X130819281Y-41947707D02*
X131276424Y-41947707D01*
X131276424Y-42366755D02*
X131276424Y-41566755D01*
X111661471Y-78333183D02*
X112042424Y-78333183D01*
X111585281Y-78561755D02*
X111851948Y-77761755D01*
X111851948Y-77761755D02*
X112118614Y-78561755D01*
X112728138Y-77761755D02*
X112575757Y-77761755D01*
X112575757Y-77761755D02*
X112499566Y-77799850D01*
X112499566Y-77799850D02*
X112461471Y-77837945D01*
X112461471Y-77837945D02*
X112385281Y-77952231D01*
X112385281Y-77952231D02*
X112347185Y-78104612D01*
X112347185Y-78104612D02*
X112347185Y-78409374D01*
X112347185Y-78409374D02*
X112385281Y-78485564D01*
X112385281Y-78485564D02*
X112423376Y-78523660D01*
X112423376Y-78523660D02*
X112499566Y-78561755D01*
X112499566Y-78561755D02*
X112651947Y-78561755D01*
X112651947Y-78561755D02*
X112728138Y-78523660D01*
X112728138Y-78523660D02*
X112766233Y-78485564D01*
X112766233Y-78485564D02*
X112804328Y-78409374D01*
X112804328Y-78409374D02*
X112804328Y-78218898D01*
X112804328Y-78218898D02*
X112766233Y-78142707D01*
X112766233Y-78142707D02*
X112728138Y-78104612D01*
X112728138Y-78104612D02*
X112651947Y-78066517D01*
X112651947Y-78066517D02*
X112499566Y-78066517D01*
X112499566Y-78066517D02*
X112423376Y-78104612D01*
X112423376Y-78104612D02*
X112385281Y-78142707D01*
X112385281Y-78142707D02*
X112347185Y-78218898D01*
X89093519Y-34365755D02*
X88826852Y-33984802D01*
X88636376Y-34365755D02*
X88636376Y-33565755D01*
X88636376Y-33565755D02*
X88941138Y-33565755D01*
X88941138Y-33565755D02*
X89017328Y-33603850D01*
X89017328Y-33603850D02*
X89055423Y-33641945D01*
X89055423Y-33641945D02*
X89093519Y-33718136D01*
X89093519Y-33718136D02*
X89093519Y-33832421D01*
X89093519Y-33832421D02*
X89055423Y-33908612D01*
X89055423Y-33908612D02*
X89017328Y-33946707D01*
X89017328Y-33946707D02*
X88941138Y-33984802D01*
X88941138Y-33984802D02*
X88636376Y-33984802D01*
X89436376Y-34365755D02*
X89436376Y-33565755D01*
X89436376Y-33565755D02*
X89626852Y-33565755D01*
X89626852Y-33565755D02*
X89741138Y-33603850D01*
X89741138Y-33603850D02*
X89817328Y-33680040D01*
X89817328Y-33680040D02*
X89855423Y-33756231D01*
X89855423Y-33756231D02*
X89893519Y-33908612D01*
X89893519Y-33908612D02*
X89893519Y-34022898D01*
X89893519Y-34022898D02*
X89855423Y-34175279D01*
X89855423Y-34175279D02*
X89817328Y-34251469D01*
X89817328Y-34251469D02*
X89741138Y-34327660D01*
X89741138Y-34327660D02*
X89626852Y-34365755D01*
X89626852Y-34365755D02*
X89436376Y-34365755D01*
X116595424Y-34365755D02*
X116595424Y-33565755D01*
X116595424Y-33565755D02*
X116785900Y-33565755D01*
X116785900Y-33565755D02*
X116900186Y-33603850D01*
X116900186Y-33603850D02*
X116976376Y-33680040D01*
X116976376Y-33680040D02*
X117014471Y-33756231D01*
X117014471Y-33756231D02*
X117052567Y-33908612D01*
X117052567Y-33908612D02*
X117052567Y-34022898D01*
X117052567Y-34022898D02*
X117014471Y-34175279D01*
X117014471Y-34175279D02*
X116976376Y-34251469D01*
X116976376Y-34251469D02*
X116900186Y-34327660D01*
X116900186Y-34327660D02*
X116785900Y-34365755D01*
X116785900Y-34365755D02*
X116595424Y-34365755D01*
X117738281Y-33832421D02*
X117738281Y-34365755D01*
X117547805Y-33527660D02*
X117357328Y-34099088D01*
X117357328Y-34099088D02*
X117852567Y-34099088D01*
D11*
X78041488Y-34252719D02*
X77470060Y-34252719D01*
X77755774Y-34252719D02*
X77755774Y-33252719D01*
X77755774Y-33252719D02*
X77660536Y-33395576D01*
X77660536Y-33395576D02*
X77565298Y-33490814D01*
X77565298Y-33490814D02*
X77470060Y-33538433D01*
X78898631Y-33252719D02*
X78708155Y-33252719D01*
X78708155Y-33252719D02*
X78612917Y-33300338D01*
X78612917Y-33300338D02*
X78565298Y-33347957D01*
X78565298Y-33347957D02*
X78470060Y-33490814D01*
X78470060Y-33490814D02*
X78422441Y-33681290D01*
X78422441Y-33681290D02*
X78422441Y-34062242D01*
X78422441Y-34062242D02*
X78470060Y-34157480D01*
X78470060Y-34157480D02*
X78517679Y-34205100D01*
X78517679Y-34205100D02*
X78612917Y-34252719D01*
X78612917Y-34252719D02*
X78803393Y-34252719D01*
X78803393Y-34252719D02*
X78898631Y-34205100D01*
X78898631Y-34205100D02*
X78946250Y-34157480D01*
X78946250Y-34157480D02*
X78993869Y-34062242D01*
X78993869Y-34062242D02*
X78993869Y-33824147D01*
X78993869Y-33824147D02*
X78946250Y-33728909D01*
X78946250Y-33728909D02*
X78898631Y-33681290D01*
X78898631Y-33681290D02*
X78803393Y-33633671D01*
X78803393Y-33633671D02*
X78612917Y-33633671D01*
X78612917Y-33633671D02*
X78517679Y-33681290D01*
X78517679Y-33681290D02*
X78470060Y-33728909D01*
X78470060Y-33728909D02*
X78422441Y-33824147D01*
X79422441Y-34252719D02*
X79422441Y-33252719D01*
X79517679Y-33871766D02*
X79803393Y-34252719D01*
X79803393Y-33586052D02*
X79422441Y-33967004D01*
X83375536Y-33681290D02*
X83280298Y-33633671D01*
X83280298Y-33633671D02*
X83232679Y-33586052D01*
X83232679Y-33586052D02*
X83185060Y-33490814D01*
X83185060Y-33490814D02*
X83185060Y-33443195D01*
X83185060Y-33443195D02*
X83232679Y-33347957D01*
X83232679Y-33347957D02*
X83280298Y-33300338D01*
X83280298Y-33300338D02*
X83375536Y-33252719D01*
X83375536Y-33252719D02*
X83566012Y-33252719D01*
X83566012Y-33252719D02*
X83661250Y-33300338D01*
X83661250Y-33300338D02*
X83708869Y-33347957D01*
X83708869Y-33347957D02*
X83756488Y-33443195D01*
X83756488Y-33443195D02*
X83756488Y-33490814D01*
X83756488Y-33490814D02*
X83708869Y-33586052D01*
X83708869Y-33586052D02*
X83661250Y-33633671D01*
X83661250Y-33633671D02*
X83566012Y-33681290D01*
X83566012Y-33681290D02*
X83375536Y-33681290D01*
X83375536Y-33681290D02*
X83280298Y-33728909D01*
X83280298Y-33728909D02*
X83232679Y-33776528D01*
X83232679Y-33776528D02*
X83185060Y-33871766D01*
X83185060Y-33871766D02*
X83185060Y-34062242D01*
X83185060Y-34062242D02*
X83232679Y-34157480D01*
X83232679Y-34157480D02*
X83280298Y-34205100D01*
X83280298Y-34205100D02*
X83375536Y-34252719D01*
X83375536Y-34252719D02*
X83566012Y-34252719D01*
X83566012Y-34252719D02*
X83661250Y-34205100D01*
X83661250Y-34205100D02*
X83708869Y-34157480D01*
X83708869Y-34157480D02*
X83756488Y-34062242D01*
X83756488Y-34062242D02*
X83756488Y-33871766D01*
X83756488Y-33871766D02*
X83708869Y-33776528D01*
X83708869Y-33776528D02*
X83661250Y-33728909D01*
X83661250Y-33728909D02*
X83566012Y-33681290D01*
X84185060Y-34252719D02*
X84185060Y-33252719D01*
X84280298Y-33871766D02*
X84566012Y-34252719D01*
X84566012Y-33586052D02*
X84185060Y-33967004D01*
D10*
X129873280Y-44106755D02*
X130063756Y-44906755D01*
X130063756Y-44906755D02*
X130216137Y-44335326D01*
X130216137Y-44335326D02*
X130368518Y-44906755D01*
X130368518Y-44906755D02*
X130558995Y-44106755D01*
X130749471Y-44106755D02*
X131206614Y-44106755D01*
X130978042Y-44906755D02*
X130978042Y-44106755D01*
D11*
X77454107Y-29172719D02*
X77120774Y-28696528D01*
X76882679Y-29172719D02*
X76882679Y-28172719D01*
X76882679Y-28172719D02*
X77263631Y-28172719D01*
X77263631Y-28172719D02*
X77358869Y-28220338D01*
X77358869Y-28220338D02*
X77406488Y-28267957D01*
X77406488Y-28267957D02*
X77454107Y-28363195D01*
X77454107Y-28363195D02*
X77454107Y-28506052D01*
X77454107Y-28506052D02*
X77406488Y-28601290D01*
X77406488Y-28601290D02*
X77358869Y-28648909D01*
X77358869Y-28648909D02*
X77263631Y-28696528D01*
X77263631Y-28696528D02*
X76882679Y-28696528D01*
X78073155Y-28172719D02*
X78263631Y-28172719D01*
X78263631Y-28172719D02*
X78358869Y-28220338D01*
X78358869Y-28220338D02*
X78454107Y-28315576D01*
X78454107Y-28315576D02*
X78501726Y-28506052D01*
X78501726Y-28506052D02*
X78501726Y-28839385D01*
X78501726Y-28839385D02*
X78454107Y-29029861D01*
X78454107Y-29029861D02*
X78358869Y-29125100D01*
X78358869Y-29125100D02*
X78263631Y-29172719D01*
X78263631Y-29172719D02*
X78073155Y-29172719D01*
X78073155Y-29172719D02*
X77977917Y-29125100D01*
X77977917Y-29125100D02*
X77882679Y-29029861D01*
X77882679Y-29029861D02*
X77835060Y-28839385D01*
X77835060Y-28839385D02*
X77835060Y-28506052D01*
X77835060Y-28506052D02*
X77882679Y-28315576D01*
X77882679Y-28315576D02*
X77977917Y-28220338D01*
X77977917Y-28220338D02*
X78073155Y-28172719D01*
X78930298Y-29172719D02*
X78930298Y-28172719D01*
X78930298Y-28172719D02*
X79263631Y-28887004D01*
X79263631Y-28887004D02*
X79596964Y-28172719D01*
X79596964Y-28172719D02*
X79596964Y-29172719D01*
X80787441Y-29125100D02*
X80930298Y-29172719D01*
X80930298Y-29172719D02*
X81168393Y-29172719D01*
X81168393Y-29172719D02*
X81263631Y-29125100D01*
X81263631Y-29125100D02*
X81311250Y-29077480D01*
X81311250Y-29077480D02*
X81358869Y-28982242D01*
X81358869Y-28982242D02*
X81358869Y-28887004D01*
X81358869Y-28887004D02*
X81311250Y-28791766D01*
X81311250Y-28791766D02*
X81263631Y-28744147D01*
X81263631Y-28744147D02*
X81168393Y-28696528D01*
X81168393Y-28696528D02*
X80977917Y-28648909D01*
X80977917Y-28648909D02*
X80882679Y-28601290D01*
X80882679Y-28601290D02*
X80835060Y-28553671D01*
X80835060Y-28553671D02*
X80787441Y-28458433D01*
X80787441Y-28458433D02*
X80787441Y-28363195D01*
X80787441Y-28363195D02*
X80835060Y-28267957D01*
X80835060Y-28267957D02*
X80882679Y-28220338D01*
X80882679Y-28220338D02*
X80977917Y-28172719D01*
X80977917Y-28172719D02*
X81216012Y-28172719D01*
X81216012Y-28172719D02*
X81358869Y-28220338D01*
X82168393Y-29125100D02*
X82073155Y-29172719D01*
X82073155Y-29172719D02*
X81882679Y-29172719D01*
X81882679Y-29172719D02*
X81787441Y-29125100D01*
X81787441Y-29125100D02*
X81739822Y-29029861D01*
X81739822Y-29029861D02*
X81739822Y-28648909D01*
X81739822Y-28648909D02*
X81787441Y-28553671D01*
X81787441Y-28553671D02*
X81882679Y-28506052D01*
X81882679Y-28506052D02*
X82073155Y-28506052D01*
X82073155Y-28506052D02*
X82168393Y-28553671D01*
X82168393Y-28553671D02*
X82216012Y-28648909D01*
X82216012Y-28648909D02*
X82216012Y-28744147D01*
X82216012Y-28744147D02*
X81739822Y-28839385D01*
X82787441Y-29172719D02*
X82692203Y-29125100D01*
X82692203Y-29125100D02*
X82644584Y-29029861D01*
X82644584Y-29029861D02*
X82644584Y-28172719D01*
X83549346Y-29125100D02*
X83454108Y-29172719D01*
X83454108Y-29172719D02*
X83263632Y-29172719D01*
X83263632Y-29172719D02*
X83168394Y-29125100D01*
X83168394Y-29125100D02*
X83120775Y-29029861D01*
X83120775Y-29029861D02*
X83120775Y-28648909D01*
X83120775Y-28648909D02*
X83168394Y-28553671D01*
X83168394Y-28553671D02*
X83263632Y-28506052D01*
X83263632Y-28506052D02*
X83454108Y-28506052D01*
X83454108Y-28506052D02*
X83549346Y-28553671D01*
X83549346Y-28553671D02*
X83596965Y-28648909D01*
X83596965Y-28648909D02*
X83596965Y-28744147D01*
X83596965Y-28744147D02*
X83120775Y-28839385D01*
X84454108Y-29125100D02*
X84358870Y-29172719D01*
X84358870Y-29172719D02*
X84168394Y-29172719D01*
X84168394Y-29172719D02*
X84073156Y-29125100D01*
X84073156Y-29125100D02*
X84025537Y-29077480D01*
X84025537Y-29077480D02*
X83977918Y-28982242D01*
X83977918Y-28982242D02*
X83977918Y-28696528D01*
X83977918Y-28696528D02*
X84025537Y-28601290D01*
X84025537Y-28601290D02*
X84073156Y-28553671D01*
X84073156Y-28553671D02*
X84168394Y-28506052D01*
X84168394Y-28506052D02*
X84358870Y-28506052D01*
X84358870Y-28506052D02*
X84454108Y-28553671D01*
X84739823Y-28506052D02*
X85120775Y-28506052D01*
X84882680Y-28172719D02*
X84882680Y-29029861D01*
X84882680Y-29029861D02*
X84930299Y-29125100D01*
X84930299Y-29125100D02*
X85025537Y-29172719D01*
X85025537Y-29172719D02*
X85120775Y-29172719D01*
X59198095Y-54454819D02*
X59198095Y-55264342D01*
X59198095Y-55264342D02*
X59245714Y-55359580D01*
X59245714Y-55359580D02*
X59293333Y-55407200D01*
X59293333Y-55407200D02*
X59388571Y-55454819D01*
X59388571Y-55454819D02*
X59579047Y-55454819D01*
X59579047Y-55454819D02*
X59674285Y-55407200D01*
X59674285Y-55407200D02*
X59721904Y-55359580D01*
X59721904Y-55359580D02*
X59769523Y-55264342D01*
X59769523Y-55264342D02*
X59769523Y-54454819D01*
X60769523Y-55454819D02*
X60198095Y-55454819D01*
X60483809Y-55454819D02*
X60483809Y-54454819D01*
X60483809Y-54454819D02*
X60388571Y-54597676D01*
X60388571Y-54597676D02*
X60293333Y-54692914D01*
X60293333Y-54692914D02*
X60198095Y-54740533D01*
X57339524Y-56170057D02*
X57387143Y-56122438D01*
X57387143Y-56122438D02*
X57482381Y-56074819D01*
X57482381Y-56074819D02*
X57720476Y-56074819D01*
X57720476Y-56074819D02*
X57815714Y-56122438D01*
X57815714Y-56122438D02*
X57863333Y-56170057D01*
X57863333Y-56170057D02*
X57910952Y-56265295D01*
X57910952Y-56265295D02*
X57910952Y-56360533D01*
X57910952Y-56360533D02*
X57863333Y-56503390D01*
X57863333Y-56503390D02*
X57291905Y-57074819D01*
X57291905Y-57074819D02*
X57910952Y-57074819D01*
X58244286Y-56074819D02*
X58910952Y-56074819D01*
X58910952Y-56074819D02*
X58482381Y-57074819D01*
X59863333Y-56979580D02*
X59815714Y-57027200D01*
X59815714Y-57027200D02*
X59672857Y-57074819D01*
X59672857Y-57074819D02*
X59577619Y-57074819D01*
X59577619Y-57074819D02*
X59434762Y-57027200D01*
X59434762Y-57027200D02*
X59339524Y-56931961D01*
X59339524Y-56931961D02*
X59291905Y-56836723D01*
X59291905Y-56836723D02*
X59244286Y-56646247D01*
X59244286Y-56646247D02*
X59244286Y-56503390D01*
X59244286Y-56503390D02*
X59291905Y-56312914D01*
X59291905Y-56312914D02*
X59339524Y-56217676D01*
X59339524Y-56217676D02*
X59434762Y-56122438D01*
X59434762Y-56122438D02*
X59577619Y-56074819D01*
X59577619Y-56074819D02*
X59672857Y-56074819D01*
X59672857Y-56074819D02*
X59815714Y-56122438D01*
X59815714Y-56122438D02*
X59863333Y-56170057D01*
X60768095Y-56074819D02*
X60291905Y-56074819D01*
X60291905Y-56074819D02*
X60244286Y-56551009D01*
X60244286Y-56551009D02*
X60291905Y-56503390D01*
X60291905Y-56503390D02*
X60387143Y-56455771D01*
X60387143Y-56455771D02*
X60625238Y-56455771D01*
X60625238Y-56455771D02*
X60720476Y-56503390D01*
X60720476Y-56503390D02*
X60768095Y-56551009D01*
X60768095Y-56551009D02*
X60815714Y-56646247D01*
X60815714Y-56646247D02*
X60815714Y-56884342D01*
X60815714Y-56884342D02*
X60768095Y-56979580D01*
X60768095Y-56979580D02*
X60720476Y-57027200D01*
X60720476Y-57027200D02*
X60625238Y-57074819D01*
X60625238Y-57074819D02*
X60387143Y-57074819D01*
X60387143Y-57074819D02*
X60291905Y-57027200D01*
X60291905Y-57027200D02*
X60244286Y-56979580D01*
X61768095Y-57074819D02*
X61196667Y-57074819D01*
X61482381Y-57074819D02*
X61482381Y-56074819D01*
X61482381Y-56074819D02*
X61387143Y-56217676D01*
X61387143Y-56217676D02*
X61291905Y-56312914D01*
X61291905Y-56312914D02*
X61196667Y-56360533D01*
X62149048Y-56170057D02*
X62196667Y-56122438D01*
X62196667Y-56122438D02*
X62291905Y-56074819D01*
X62291905Y-56074819D02*
X62530000Y-56074819D01*
X62530000Y-56074819D02*
X62625238Y-56122438D01*
X62625238Y-56122438D02*
X62672857Y-56170057D01*
X62672857Y-56170057D02*
X62720476Y-56265295D01*
X62720476Y-56265295D02*
X62720476Y-56360533D01*
X62720476Y-56360533D02*
X62672857Y-56503390D01*
X62672857Y-56503390D02*
X62101429Y-57074819D01*
X62101429Y-57074819D02*
X62720476Y-57074819D01*
X124081080Y-45003376D02*
X123081080Y-45670042D01*
X124081080Y-45670042D02*
X123081080Y-45003376D01*
X123081080Y-46574804D02*
X123081080Y-46003376D01*
X123081080Y-46289090D02*
X124081080Y-46289090D01*
X124081080Y-46289090D02*
X123938223Y-46193852D01*
X123938223Y-46193852D02*
X123842985Y-46098614D01*
X123842985Y-46098614D02*
X123795366Y-46003376D01*
X65333333Y-29954819D02*
X65000000Y-29478628D01*
X64761905Y-29954819D02*
X64761905Y-28954819D01*
X64761905Y-28954819D02*
X65142857Y-28954819D01*
X65142857Y-28954819D02*
X65238095Y-29002438D01*
X65238095Y-29002438D02*
X65285714Y-29050057D01*
X65285714Y-29050057D02*
X65333333Y-29145295D01*
X65333333Y-29145295D02*
X65333333Y-29288152D01*
X65333333Y-29288152D02*
X65285714Y-29383390D01*
X65285714Y-29383390D02*
X65238095Y-29431009D01*
X65238095Y-29431009D02*
X65142857Y-29478628D01*
X65142857Y-29478628D02*
X64761905Y-29478628D01*
X65666667Y-28954819D02*
X66285714Y-28954819D01*
X66285714Y-28954819D02*
X65952381Y-29335771D01*
X65952381Y-29335771D02*
X66095238Y-29335771D01*
X66095238Y-29335771D02*
X66190476Y-29383390D01*
X66190476Y-29383390D02*
X66238095Y-29431009D01*
X66238095Y-29431009D02*
X66285714Y-29526247D01*
X66285714Y-29526247D02*
X66285714Y-29764342D01*
X66285714Y-29764342D02*
X66238095Y-29859580D01*
X66238095Y-29859580D02*
X66190476Y-29907200D01*
X66190476Y-29907200D02*
X66095238Y-29954819D01*
X66095238Y-29954819D02*
X65809524Y-29954819D01*
X65809524Y-29954819D02*
X65714286Y-29907200D01*
X65714286Y-29907200D02*
X65666667Y-29859580D01*
X68059524Y-29050057D02*
X68107143Y-29002438D01*
X68107143Y-29002438D02*
X68202381Y-28954819D01*
X68202381Y-28954819D02*
X68440476Y-28954819D01*
X68440476Y-28954819D02*
X68535714Y-29002438D01*
X68535714Y-29002438D02*
X68583333Y-29050057D01*
X68583333Y-29050057D02*
X68630952Y-29145295D01*
X68630952Y-29145295D02*
X68630952Y-29240533D01*
X68630952Y-29240533D02*
X68583333Y-29383390D01*
X68583333Y-29383390D02*
X68011905Y-29954819D01*
X68011905Y-29954819D02*
X68630952Y-29954819D01*
X69059524Y-29954819D02*
X69059524Y-28954819D01*
X69154762Y-29573866D02*
X69440476Y-29954819D01*
X69440476Y-29288152D02*
X69059524Y-29669104D01*
X78323995Y-50982719D02*
X78323995Y-51792242D01*
X78323995Y-51792242D02*
X78371614Y-51887480D01*
X78371614Y-51887480D02*
X78419233Y-51935100D01*
X78419233Y-51935100D02*
X78514471Y-51982719D01*
X78514471Y-51982719D02*
X78704947Y-51982719D01*
X78704947Y-51982719D02*
X78800185Y-51935100D01*
X78800185Y-51935100D02*
X78847804Y-51887480D01*
X78847804Y-51887480D02*
X78895423Y-51792242D01*
X78895423Y-51792242D02*
X78895423Y-50982719D01*
X79323995Y-51077957D02*
X79371614Y-51030338D01*
X79371614Y-51030338D02*
X79466852Y-50982719D01*
X79466852Y-50982719D02*
X79704947Y-50982719D01*
X79704947Y-50982719D02*
X79800185Y-51030338D01*
X79800185Y-51030338D02*
X79847804Y-51077957D01*
X79847804Y-51077957D02*
X79895423Y-51173195D01*
X79895423Y-51173195D02*
X79895423Y-51268433D01*
X79895423Y-51268433D02*
X79847804Y-51411290D01*
X79847804Y-51411290D02*
X79276376Y-51982719D01*
X79276376Y-51982719D02*
X79895423Y-51982719D01*
X92833995Y-51097957D02*
X92881614Y-51050338D01*
X92881614Y-51050338D02*
X92976852Y-51002719D01*
X92976852Y-51002719D02*
X93214947Y-51002719D01*
X93214947Y-51002719D02*
X93310185Y-51050338D01*
X93310185Y-51050338D02*
X93357804Y-51097957D01*
X93357804Y-51097957D02*
X93405423Y-51193195D01*
X93405423Y-51193195D02*
X93405423Y-51288433D01*
X93405423Y-51288433D02*
X93357804Y-51431290D01*
X93357804Y-51431290D02*
X92786376Y-52002719D01*
X92786376Y-52002719D02*
X93405423Y-52002719D01*
X94262566Y-51336052D02*
X94262566Y-52002719D01*
X94024471Y-50955100D02*
X93786376Y-51669385D01*
X93786376Y-51669385D02*
X94405423Y-51669385D01*
X94786376Y-52002719D02*
X94786376Y-51002719D01*
X94786376Y-51002719D02*
X95119709Y-51717004D01*
X95119709Y-51717004D02*
X95453042Y-51002719D01*
X95453042Y-51002719D02*
X95453042Y-52002719D01*
X96405423Y-51002719D02*
X95929233Y-51002719D01*
X95929233Y-51002719D02*
X95881614Y-51478909D01*
X95881614Y-51478909D02*
X95929233Y-51431290D01*
X95929233Y-51431290D02*
X96024471Y-51383671D01*
X96024471Y-51383671D02*
X96262566Y-51383671D01*
X96262566Y-51383671D02*
X96357804Y-51431290D01*
X96357804Y-51431290D02*
X96405423Y-51478909D01*
X96405423Y-51478909D02*
X96453042Y-51574147D01*
X96453042Y-51574147D02*
X96453042Y-51812242D01*
X96453042Y-51812242D02*
X96405423Y-51907480D01*
X96405423Y-51907480D02*
X96357804Y-51955100D01*
X96357804Y-51955100D02*
X96262566Y-52002719D01*
X96262566Y-52002719D02*
X96024471Y-52002719D01*
X96024471Y-52002719D02*
X95929233Y-51955100D01*
X95929233Y-51955100D02*
X95881614Y-51907480D01*
X97405423Y-52002719D02*
X96833995Y-52002719D01*
X97119709Y-52002719D02*
X97119709Y-51002719D01*
X97119709Y-51002719D02*
X97024471Y-51145576D01*
X97024471Y-51145576D02*
X96929233Y-51240814D01*
X96929233Y-51240814D02*
X96833995Y-51288433D01*
X97786376Y-51097957D02*
X97833995Y-51050338D01*
X97833995Y-51050338D02*
X97929233Y-51002719D01*
X97929233Y-51002719D02*
X98167328Y-51002719D01*
X98167328Y-51002719D02*
X98262566Y-51050338D01*
X98262566Y-51050338D02*
X98310185Y-51097957D01*
X98310185Y-51097957D02*
X98357804Y-51193195D01*
X98357804Y-51193195D02*
X98357804Y-51288433D01*
X98357804Y-51288433D02*
X98310185Y-51431290D01*
X98310185Y-51431290D02*
X97738757Y-52002719D01*
X97738757Y-52002719D02*
X98357804Y-52002719D01*
X94159233Y-37282480D02*
X94111614Y-37330100D01*
X94111614Y-37330100D02*
X93968757Y-37377719D01*
X93968757Y-37377719D02*
X93873519Y-37377719D01*
X93873519Y-37377719D02*
X93730662Y-37330100D01*
X93730662Y-37330100D02*
X93635424Y-37234861D01*
X93635424Y-37234861D02*
X93587805Y-37139623D01*
X93587805Y-37139623D02*
X93540186Y-36949147D01*
X93540186Y-36949147D02*
X93540186Y-36806290D01*
X93540186Y-36806290D02*
X93587805Y-36615814D01*
X93587805Y-36615814D02*
X93635424Y-36520576D01*
X93635424Y-36520576D02*
X93730662Y-36425338D01*
X93730662Y-36425338D02*
X93873519Y-36377719D01*
X93873519Y-36377719D02*
X93968757Y-36377719D01*
X93968757Y-36377719D02*
X94111614Y-36425338D01*
X94111614Y-36425338D02*
X94159233Y-36472957D01*
X95016376Y-36377719D02*
X94825900Y-36377719D01*
X94825900Y-36377719D02*
X94730662Y-36425338D01*
X94730662Y-36425338D02*
X94683043Y-36472957D01*
X94683043Y-36472957D02*
X94587805Y-36615814D01*
X94587805Y-36615814D02*
X94540186Y-36806290D01*
X94540186Y-36806290D02*
X94540186Y-37187242D01*
X94540186Y-37187242D02*
X94587805Y-37282480D01*
X94587805Y-37282480D02*
X94635424Y-37330100D01*
X94635424Y-37330100D02*
X94730662Y-37377719D01*
X94730662Y-37377719D02*
X94921138Y-37377719D01*
X94921138Y-37377719D02*
X95016376Y-37330100D01*
X95016376Y-37330100D02*
X95063995Y-37282480D01*
X95063995Y-37282480D02*
X95111614Y-37187242D01*
X95111614Y-37187242D02*
X95111614Y-36949147D01*
X95111614Y-36949147D02*
X95063995Y-36853909D01*
X95063995Y-36853909D02*
X95016376Y-36806290D01*
X95016376Y-36806290D02*
X94921138Y-36758671D01*
X94921138Y-36758671D02*
X94730662Y-36758671D01*
X94730662Y-36758671D02*
X94635424Y-36806290D01*
X94635424Y-36806290D02*
X94587805Y-36853909D01*
X94587805Y-36853909D02*
X94540186Y-36949147D01*
X73333333Y-45704819D02*
X73000000Y-45228628D01*
X72761905Y-45704819D02*
X72761905Y-44704819D01*
X72761905Y-44704819D02*
X73142857Y-44704819D01*
X73142857Y-44704819D02*
X73238095Y-44752438D01*
X73238095Y-44752438D02*
X73285714Y-44800057D01*
X73285714Y-44800057D02*
X73333333Y-44895295D01*
X73333333Y-44895295D02*
X73333333Y-45038152D01*
X73333333Y-45038152D02*
X73285714Y-45133390D01*
X73285714Y-45133390D02*
X73238095Y-45181009D01*
X73238095Y-45181009D02*
X73142857Y-45228628D01*
X73142857Y-45228628D02*
X72761905Y-45228628D01*
X74285714Y-45704819D02*
X73714286Y-45704819D01*
X74000000Y-45704819D02*
X74000000Y-44704819D01*
X74000000Y-44704819D02*
X73904762Y-44847676D01*
X73904762Y-44847676D02*
X73809524Y-44942914D01*
X73809524Y-44942914D02*
X73714286Y-44990533D01*
X72916080Y-47904761D02*
X72916080Y-47333333D01*
X72916080Y-47619047D02*
X73916080Y-47619047D01*
X73916080Y-47619047D02*
X73773223Y-47523809D01*
X73773223Y-47523809D02*
X73677985Y-47428571D01*
X73677985Y-47428571D02*
X73630366Y-47333333D01*
X73916080Y-48523809D02*
X73916080Y-48619047D01*
X73916080Y-48619047D02*
X73868461Y-48714285D01*
X73868461Y-48714285D02*
X73820842Y-48761904D01*
X73820842Y-48761904D02*
X73725604Y-48809523D01*
X73725604Y-48809523D02*
X73535128Y-48857142D01*
X73535128Y-48857142D02*
X73297033Y-48857142D01*
X73297033Y-48857142D02*
X73106557Y-48809523D01*
X73106557Y-48809523D02*
X73011319Y-48761904D01*
X73011319Y-48761904D02*
X72963700Y-48714285D01*
X72963700Y-48714285D02*
X72916080Y-48619047D01*
X72916080Y-48619047D02*
X72916080Y-48523809D01*
X72916080Y-48523809D02*
X72963700Y-48428571D01*
X72963700Y-48428571D02*
X73011319Y-48380952D01*
X73011319Y-48380952D02*
X73106557Y-48333333D01*
X73106557Y-48333333D02*
X73297033Y-48285714D01*
X73297033Y-48285714D02*
X73535128Y-48285714D01*
X73535128Y-48285714D02*
X73725604Y-48333333D01*
X73725604Y-48333333D02*
X73820842Y-48380952D01*
X73820842Y-48380952D02*
X73868461Y-48428571D01*
X73868461Y-48428571D02*
X73916080Y-48523809D01*
X72916080Y-49285714D02*
X73916080Y-49285714D01*
X73297033Y-49380952D02*
X72916080Y-49666666D01*
X73582747Y-49666666D02*
X73201795Y-49285714D01*
X72761905Y-36454819D02*
X72761905Y-35454819D01*
X72761905Y-35454819D02*
X73000000Y-35454819D01*
X73000000Y-35454819D02*
X73142857Y-35502438D01*
X73142857Y-35502438D02*
X73238095Y-35597676D01*
X73238095Y-35597676D02*
X73285714Y-35692914D01*
X73285714Y-35692914D02*
X73333333Y-35883390D01*
X73333333Y-35883390D02*
X73333333Y-36026247D01*
X73333333Y-36026247D02*
X73285714Y-36216723D01*
X73285714Y-36216723D02*
X73238095Y-36311961D01*
X73238095Y-36311961D02*
X73142857Y-36407200D01*
X73142857Y-36407200D02*
X73000000Y-36454819D01*
X73000000Y-36454819D02*
X72761905Y-36454819D01*
X74285714Y-36454819D02*
X73714286Y-36454819D01*
X74000000Y-36454819D02*
X74000000Y-35454819D01*
X74000000Y-35454819D02*
X73904762Y-35597676D01*
X73904762Y-35597676D02*
X73809524Y-35692914D01*
X73809524Y-35692914D02*
X73714286Y-35740533D01*
X106859233Y-58872480D02*
X106811614Y-58920100D01*
X106811614Y-58920100D02*
X106668757Y-58967719D01*
X106668757Y-58967719D02*
X106573519Y-58967719D01*
X106573519Y-58967719D02*
X106430662Y-58920100D01*
X106430662Y-58920100D02*
X106335424Y-58824861D01*
X106335424Y-58824861D02*
X106287805Y-58729623D01*
X106287805Y-58729623D02*
X106240186Y-58539147D01*
X106240186Y-58539147D02*
X106240186Y-58396290D01*
X106240186Y-58396290D02*
X106287805Y-58205814D01*
X106287805Y-58205814D02*
X106335424Y-58110576D01*
X106335424Y-58110576D02*
X106430662Y-58015338D01*
X106430662Y-58015338D02*
X106573519Y-57967719D01*
X106573519Y-57967719D02*
X106668757Y-57967719D01*
X106668757Y-57967719D02*
X106811614Y-58015338D01*
X106811614Y-58015338D02*
X106859233Y-58062957D01*
X107716376Y-58301052D02*
X107716376Y-58967719D01*
X107478281Y-57920100D02*
X107240186Y-58634385D01*
X107240186Y-58634385D02*
X107859233Y-58634385D01*
X53333333Y-29954819D02*
X53000000Y-29478628D01*
X52761905Y-29954819D02*
X52761905Y-28954819D01*
X52761905Y-28954819D02*
X53142857Y-28954819D01*
X53142857Y-28954819D02*
X53238095Y-29002438D01*
X53238095Y-29002438D02*
X53285714Y-29050057D01*
X53285714Y-29050057D02*
X53333333Y-29145295D01*
X53333333Y-29145295D02*
X53333333Y-29288152D01*
X53333333Y-29288152D02*
X53285714Y-29383390D01*
X53285714Y-29383390D02*
X53238095Y-29431009D01*
X53238095Y-29431009D02*
X53142857Y-29478628D01*
X53142857Y-29478628D02*
X52761905Y-29478628D01*
X54190476Y-29288152D02*
X54190476Y-29954819D01*
X53952381Y-28907200D02*
X53714286Y-29621485D01*
X53714286Y-29621485D02*
X54333333Y-29621485D01*
X55559524Y-29050057D02*
X55607143Y-29002438D01*
X55607143Y-29002438D02*
X55702381Y-28954819D01*
X55702381Y-28954819D02*
X55940476Y-28954819D01*
X55940476Y-28954819D02*
X56035714Y-29002438D01*
X56035714Y-29002438D02*
X56083333Y-29050057D01*
X56083333Y-29050057D02*
X56130952Y-29145295D01*
X56130952Y-29145295D02*
X56130952Y-29240533D01*
X56130952Y-29240533D02*
X56083333Y-29383390D01*
X56083333Y-29383390D02*
X55511905Y-29954819D01*
X55511905Y-29954819D02*
X56130952Y-29954819D01*
X56559524Y-29954819D02*
X56559524Y-28954819D01*
X56654762Y-29573866D02*
X56940476Y-29954819D01*
X56940476Y-29288152D02*
X56559524Y-29669104D01*
X127925423Y-60237719D02*
X127592090Y-59761528D01*
X127353995Y-60237719D02*
X127353995Y-59237719D01*
X127353995Y-59237719D02*
X127734947Y-59237719D01*
X127734947Y-59237719D02*
X127830185Y-59285338D01*
X127830185Y-59285338D02*
X127877804Y-59332957D01*
X127877804Y-59332957D02*
X127925423Y-59428195D01*
X127925423Y-59428195D02*
X127925423Y-59571052D01*
X127925423Y-59571052D02*
X127877804Y-59666290D01*
X127877804Y-59666290D02*
X127830185Y-59713909D01*
X127830185Y-59713909D02*
X127734947Y-59761528D01*
X127734947Y-59761528D02*
X127353995Y-59761528D01*
X128353995Y-60237719D02*
X128353995Y-59237719D01*
X128353995Y-59237719D02*
X128925423Y-60237719D01*
X128925423Y-60237719D02*
X128925423Y-59237719D01*
X129925423Y-60237719D02*
X129353995Y-60237719D01*
X129639709Y-60237719D02*
X129639709Y-59237719D01*
X129639709Y-59237719D02*
X129544471Y-59380576D01*
X129544471Y-59380576D02*
X129449233Y-59475814D01*
X129449233Y-59475814D02*
X129353995Y-59523433D01*
X79992567Y-80407200D02*
X80135424Y-80454819D01*
X80135424Y-80454819D02*
X80373519Y-80454819D01*
X80373519Y-80454819D02*
X80468757Y-80407200D01*
X80468757Y-80407200D02*
X80516376Y-80359580D01*
X80516376Y-80359580D02*
X80563995Y-80264342D01*
X80563995Y-80264342D02*
X80563995Y-80169104D01*
X80563995Y-80169104D02*
X80516376Y-80073866D01*
X80516376Y-80073866D02*
X80468757Y-80026247D01*
X80468757Y-80026247D02*
X80373519Y-79978628D01*
X80373519Y-79978628D02*
X80183043Y-79931009D01*
X80183043Y-79931009D02*
X80087805Y-79883390D01*
X80087805Y-79883390D02*
X80040186Y-79835771D01*
X80040186Y-79835771D02*
X79992567Y-79740533D01*
X79992567Y-79740533D02*
X79992567Y-79645295D01*
X79992567Y-79645295D02*
X80040186Y-79550057D01*
X80040186Y-79550057D02*
X80087805Y-79502438D01*
X80087805Y-79502438D02*
X80183043Y-79454819D01*
X80183043Y-79454819D02*
X80421138Y-79454819D01*
X80421138Y-79454819D02*
X80563995Y-79502438D01*
X80897329Y-79454819D02*
X81135424Y-80454819D01*
X81135424Y-80454819D02*
X81325900Y-79740533D01*
X81325900Y-79740533D02*
X81516376Y-80454819D01*
X81516376Y-80454819D02*
X81754472Y-79454819D01*
X82659233Y-80454819D02*
X82087805Y-80454819D01*
X82373519Y-80454819D02*
X82373519Y-79454819D01*
X82373519Y-79454819D02*
X82278281Y-79597676D01*
X82278281Y-79597676D02*
X82183043Y-79692914D01*
X82183043Y-79692914D02*
X82087805Y-79740533D01*
X78323995Y-39552719D02*
X78323995Y-40362242D01*
X78323995Y-40362242D02*
X78371614Y-40457480D01*
X78371614Y-40457480D02*
X78419233Y-40505100D01*
X78419233Y-40505100D02*
X78514471Y-40552719D01*
X78514471Y-40552719D02*
X78704947Y-40552719D01*
X78704947Y-40552719D02*
X78800185Y-40505100D01*
X78800185Y-40505100D02*
X78847804Y-40457480D01*
X78847804Y-40457480D02*
X78895423Y-40362242D01*
X78895423Y-40362242D02*
X78895423Y-39552719D01*
X79800185Y-39886052D02*
X79800185Y-40552719D01*
X79562090Y-39505100D02*
X79323995Y-40219385D01*
X79323995Y-40219385D02*
X79943042Y-40219385D01*
X81528043Y-39562719D02*
X82194709Y-39562719D01*
X82194709Y-39562719D02*
X81766138Y-40562719D01*
X83004233Y-39896052D02*
X83004233Y-40562719D01*
X82766138Y-39515100D02*
X82528043Y-40229385D01*
X82528043Y-40229385D02*
X83147090Y-40229385D01*
X84004233Y-40562719D02*
X83528043Y-40562719D01*
X83528043Y-40562719D02*
X83528043Y-39562719D01*
X84289948Y-40515100D02*
X84432805Y-40562719D01*
X84432805Y-40562719D02*
X84670900Y-40562719D01*
X84670900Y-40562719D02*
X84766138Y-40515100D01*
X84766138Y-40515100D02*
X84813757Y-40467480D01*
X84813757Y-40467480D02*
X84861376Y-40372242D01*
X84861376Y-40372242D02*
X84861376Y-40277004D01*
X84861376Y-40277004D02*
X84813757Y-40181766D01*
X84813757Y-40181766D02*
X84766138Y-40134147D01*
X84766138Y-40134147D02*
X84670900Y-40086528D01*
X84670900Y-40086528D02*
X84480424Y-40038909D01*
X84480424Y-40038909D02*
X84385186Y-39991290D01*
X84385186Y-39991290D02*
X84337567Y-39943671D01*
X84337567Y-39943671D02*
X84289948Y-39848433D01*
X84289948Y-39848433D02*
X84289948Y-39753195D01*
X84289948Y-39753195D02*
X84337567Y-39657957D01*
X84337567Y-39657957D02*
X84385186Y-39610338D01*
X84385186Y-39610338D02*
X84480424Y-39562719D01*
X84480424Y-39562719D02*
X84718519Y-39562719D01*
X84718519Y-39562719D02*
X84861376Y-39610338D01*
X85194710Y-39562719D02*
X85813757Y-39562719D01*
X85813757Y-39562719D02*
X85480424Y-39943671D01*
X85480424Y-39943671D02*
X85623281Y-39943671D01*
X85623281Y-39943671D02*
X85718519Y-39991290D01*
X85718519Y-39991290D02*
X85766138Y-40038909D01*
X85766138Y-40038909D02*
X85813757Y-40134147D01*
X85813757Y-40134147D02*
X85813757Y-40372242D01*
X85813757Y-40372242D02*
X85766138Y-40467480D01*
X85766138Y-40467480D02*
X85718519Y-40515100D01*
X85718519Y-40515100D02*
X85623281Y-40562719D01*
X85623281Y-40562719D02*
X85337567Y-40562719D01*
X85337567Y-40562719D02*
X85242329Y-40515100D01*
X85242329Y-40515100D02*
X85194710Y-40467480D01*
X86194710Y-39657957D02*
X86242329Y-39610338D01*
X86242329Y-39610338D02*
X86337567Y-39562719D01*
X86337567Y-39562719D02*
X86575662Y-39562719D01*
X86575662Y-39562719D02*
X86670900Y-39610338D01*
X86670900Y-39610338D02*
X86718519Y-39657957D01*
X86718519Y-39657957D02*
X86766138Y-39753195D01*
X86766138Y-39753195D02*
X86766138Y-39848433D01*
X86766138Y-39848433D02*
X86718519Y-39991290D01*
X86718519Y-39991290D02*
X86147091Y-40562719D01*
X86147091Y-40562719D02*
X86766138Y-40562719D01*
X73083333Y-58204819D02*
X72750000Y-57728628D01*
X72511905Y-58204819D02*
X72511905Y-57204819D01*
X72511905Y-57204819D02*
X72892857Y-57204819D01*
X72892857Y-57204819D02*
X72988095Y-57252438D01*
X72988095Y-57252438D02*
X73035714Y-57300057D01*
X73035714Y-57300057D02*
X73083333Y-57395295D01*
X73083333Y-57395295D02*
X73083333Y-57538152D01*
X73083333Y-57538152D02*
X73035714Y-57633390D01*
X73035714Y-57633390D02*
X72988095Y-57681009D01*
X72988095Y-57681009D02*
X72892857Y-57728628D01*
X72892857Y-57728628D02*
X72511905Y-57728628D01*
X73464286Y-57300057D02*
X73511905Y-57252438D01*
X73511905Y-57252438D02*
X73607143Y-57204819D01*
X73607143Y-57204819D02*
X73845238Y-57204819D01*
X73845238Y-57204819D02*
X73940476Y-57252438D01*
X73940476Y-57252438D02*
X73988095Y-57300057D01*
X73988095Y-57300057D02*
X74035714Y-57395295D01*
X74035714Y-57395295D02*
X74035714Y-57490533D01*
X74035714Y-57490533D02*
X73988095Y-57633390D01*
X73988095Y-57633390D02*
X73416667Y-58204819D01*
X73416667Y-58204819D02*
X74035714Y-58204819D01*
X72916080Y-59583333D02*
X72916080Y-59011905D01*
X72916080Y-59297619D02*
X73916080Y-59297619D01*
X73916080Y-59297619D02*
X73773223Y-59202381D01*
X73773223Y-59202381D02*
X73677985Y-59107143D01*
X73677985Y-59107143D02*
X73630366Y-59011905D01*
X73916080Y-60202381D02*
X73916080Y-60297619D01*
X73916080Y-60297619D02*
X73868461Y-60392857D01*
X73868461Y-60392857D02*
X73820842Y-60440476D01*
X73820842Y-60440476D02*
X73725604Y-60488095D01*
X73725604Y-60488095D02*
X73535128Y-60535714D01*
X73535128Y-60535714D02*
X73297033Y-60535714D01*
X73297033Y-60535714D02*
X73106557Y-60488095D01*
X73106557Y-60488095D02*
X73011319Y-60440476D01*
X73011319Y-60440476D02*
X72963700Y-60392857D01*
X72963700Y-60392857D02*
X72916080Y-60297619D01*
X72916080Y-60297619D02*
X72916080Y-60202381D01*
X72916080Y-60202381D02*
X72963700Y-60107143D01*
X72963700Y-60107143D02*
X73011319Y-60059524D01*
X73011319Y-60059524D02*
X73106557Y-60011905D01*
X73106557Y-60011905D02*
X73297033Y-59964286D01*
X73297033Y-59964286D02*
X73535128Y-59964286D01*
X73535128Y-59964286D02*
X73725604Y-60011905D01*
X73725604Y-60011905D02*
X73820842Y-60059524D01*
X73820842Y-60059524D02*
X73868461Y-60107143D01*
X73868461Y-60107143D02*
X73916080Y-60202381D01*
X73916080Y-61154762D02*
X73916080Y-61250000D01*
X73916080Y-61250000D02*
X73868461Y-61345238D01*
X73868461Y-61345238D02*
X73820842Y-61392857D01*
X73820842Y-61392857D02*
X73725604Y-61440476D01*
X73725604Y-61440476D02*
X73535128Y-61488095D01*
X73535128Y-61488095D02*
X73297033Y-61488095D01*
X73297033Y-61488095D02*
X73106557Y-61440476D01*
X73106557Y-61440476D02*
X73011319Y-61392857D01*
X73011319Y-61392857D02*
X72963700Y-61345238D01*
X72963700Y-61345238D02*
X72916080Y-61250000D01*
X72916080Y-61250000D02*
X72916080Y-61154762D01*
X72916080Y-61154762D02*
X72963700Y-61059524D01*
X72963700Y-61059524D02*
X73011319Y-61011905D01*
X73011319Y-61011905D02*
X73106557Y-60964286D01*
X73106557Y-60964286D02*
X73297033Y-60916667D01*
X73297033Y-60916667D02*
X73535128Y-60916667D01*
X73535128Y-60916667D02*
X73725604Y-60964286D01*
X73725604Y-60964286D02*
X73820842Y-61011905D01*
X73820842Y-61011905D02*
X73868461Y-61059524D01*
X73868461Y-61059524D02*
X73916080Y-61154762D01*
X129719233Y-78557480D02*
X129671614Y-78605100D01*
X129671614Y-78605100D02*
X129528757Y-78652719D01*
X129528757Y-78652719D02*
X129433519Y-78652719D01*
X129433519Y-78652719D02*
X129290662Y-78605100D01*
X129290662Y-78605100D02*
X129195424Y-78509861D01*
X129195424Y-78509861D02*
X129147805Y-78414623D01*
X129147805Y-78414623D02*
X129100186Y-78224147D01*
X129100186Y-78224147D02*
X129100186Y-78081290D01*
X129100186Y-78081290D02*
X129147805Y-77890814D01*
X129147805Y-77890814D02*
X129195424Y-77795576D01*
X129195424Y-77795576D02*
X129290662Y-77700338D01*
X129290662Y-77700338D02*
X129433519Y-77652719D01*
X129433519Y-77652719D02*
X129528757Y-77652719D01*
X129528757Y-77652719D02*
X129671614Y-77700338D01*
X129671614Y-77700338D02*
X129719233Y-77747957D01*
X130052567Y-77652719D02*
X130719233Y-77652719D01*
X130719233Y-77652719D02*
X130290662Y-78652719D01*
X98643995Y-39552719D02*
X98643995Y-40362242D01*
X98643995Y-40362242D02*
X98691614Y-40457480D01*
X98691614Y-40457480D02*
X98739233Y-40505100D01*
X98739233Y-40505100D02*
X98834471Y-40552719D01*
X98834471Y-40552719D02*
X99024947Y-40552719D01*
X99024947Y-40552719D02*
X99120185Y-40505100D01*
X99120185Y-40505100D02*
X99167804Y-40457480D01*
X99167804Y-40457480D02*
X99215423Y-40362242D01*
X99215423Y-40362242D02*
X99215423Y-39552719D01*
X100167804Y-39552719D02*
X99691614Y-39552719D01*
X99691614Y-39552719D02*
X99643995Y-40028909D01*
X99643995Y-40028909D02*
X99691614Y-39981290D01*
X99691614Y-39981290D02*
X99786852Y-39933671D01*
X99786852Y-39933671D02*
X100024947Y-39933671D01*
X100024947Y-39933671D02*
X100120185Y-39981290D01*
X100120185Y-39981290D02*
X100167804Y-40028909D01*
X100167804Y-40028909D02*
X100215423Y-40124147D01*
X100215423Y-40124147D02*
X100215423Y-40362242D01*
X100215423Y-40362242D02*
X100167804Y-40457480D01*
X100167804Y-40457480D02*
X100120185Y-40505100D01*
X100120185Y-40505100D02*
X100024947Y-40552719D01*
X100024947Y-40552719D02*
X99786852Y-40552719D01*
X99786852Y-40552719D02*
X99691614Y-40505100D01*
X99691614Y-40505100D02*
X99643995Y-40457480D01*
X102646852Y-39562719D02*
X103313518Y-39562719D01*
X103313518Y-39562719D02*
X102884947Y-40562719D01*
X104123042Y-39896052D02*
X104123042Y-40562719D01*
X103884947Y-39515100D02*
X103646852Y-40229385D01*
X103646852Y-40229385D02*
X104265899Y-40229385D01*
X105123042Y-40562719D02*
X104646852Y-40562719D01*
X104646852Y-40562719D02*
X104646852Y-39562719D01*
X105408757Y-40515100D02*
X105551614Y-40562719D01*
X105551614Y-40562719D02*
X105789709Y-40562719D01*
X105789709Y-40562719D02*
X105884947Y-40515100D01*
X105884947Y-40515100D02*
X105932566Y-40467480D01*
X105932566Y-40467480D02*
X105980185Y-40372242D01*
X105980185Y-40372242D02*
X105980185Y-40277004D01*
X105980185Y-40277004D02*
X105932566Y-40181766D01*
X105932566Y-40181766D02*
X105884947Y-40134147D01*
X105884947Y-40134147D02*
X105789709Y-40086528D01*
X105789709Y-40086528D02*
X105599233Y-40038909D01*
X105599233Y-40038909D02*
X105503995Y-39991290D01*
X105503995Y-39991290D02*
X105456376Y-39943671D01*
X105456376Y-39943671D02*
X105408757Y-39848433D01*
X105408757Y-39848433D02*
X105408757Y-39753195D01*
X105408757Y-39753195D02*
X105456376Y-39657957D01*
X105456376Y-39657957D02*
X105503995Y-39610338D01*
X105503995Y-39610338D02*
X105599233Y-39562719D01*
X105599233Y-39562719D02*
X105837328Y-39562719D01*
X105837328Y-39562719D02*
X105980185Y-39610338D01*
X106932566Y-40562719D02*
X106361138Y-40562719D01*
X106646852Y-40562719D02*
X106646852Y-39562719D01*
X106646852Y-39562719D02*
X106551614Y-39705576D01*
X106551614Y-39705576D02*
X106456376Y-39800814D01*
X106456376Y-39800814D02*
X106361138Y-39848433D01*
X107265900Y-39562719D02*
X107884947Y-39562719D01*
X107884947Y-39562719D02*
X107551614Y-39943671D01*
X107551614Y-39943671D02*
X107694471Y-39943671D01*
X107694471Y-39943671D02*
X107789709Y-39991290D01*
X107789709Y-39991290D02*
X107837328Y-40038909D01*
X107837328Y-40038909D02*
X107884947Y-40134147D01*
X107884947Y-40134147D02*
X107884947Y-40372242D01*
X107884947Y-40372242D02*
X107837328Y-40467480D01*
X107837328Y-40467480D02*
X107789709Y-40515100D01*
X107789709Y-40515100D02*
X107694471Y-40562719D01*
X107694471Y-40562719D02*
X107408757Y-40562719D01*
X107408757Y-40562719D02*
X107313519Y-40515100D01*
X107313519Y-40515100D02*
X107265900Y-40467480D01*
X108456376Y-39991290D02*
X108361138Y-39943671D01*
X108361138Y-39943671D02*
X108313519Y-39896052D01*
X108313519Y-39896052D02*
X108265900Y-39800814D01*
X108265900Y-39800814D02*
X108265900Y-39753195D01*
X108265900Y-39753195D02*
X108313519Y-39657957D01*
X108313519Y-39657957D02*
X108361138Y-39610338D01*
X108361138Y-39610338D02*
X108456376Y-39562719D01*
X108456376Y-39562719D02*
X108646852Y-39562719D01*
X108646852Y-39562719D02*
X108742090Y-39610338D01*
X108742090Y-39610338D02*
X108789709Y-39657957D01*
X108789709Y-39657957D02*
X108837328Y-39753195D01*
X108837328Y-39753195D02*
X108837328Y-39800814D01*
X108837328Y-39800814D02*
X108789709Y-39896052D01*
X108789709Y-39896052D02*
X108742090Y-39943671D01*
X108742090Y-39943671D02*
X108646852Y-39991290D01*
X108646852Y-39991290D02*
X108456376Y-39991290D01*
X108456376Y-39991290D02*
X108361138Y-40038909D01*
X108361138Y-40038909D02*
X108313519Y-40086528D01*
X108313519Y-40086528D02*
X108265900Y-40181766D01*
X108265900Y-40181766D02*
X108265900Y-40372242D01*
X108265900Y-40372242D02*
X108313519Y-40467480D01*
X108313519Y-40467480D02*
X108361138Y-40515100D01*
X108361138Y-40515100D02*
X108456376Y-40562719D01*
X108456376Y-40562719D02*
X108646852Y-40562719D01*
X108646852Y-40562719D02*
X108742090Y-40515100D01*
X108742090Y-40515100D02*
X108789709Y-40467480D01*
X108789709Y-40467480D02*
X108837328Y-40372242D01*
X108837328Y-40372242D02*
X108837328Y-40181766D01*
X108837328Y-40181766D02*
X108789709Y-40086528D01*
X108789709Y-40086528D02*
X108742090Y-40038909D01*
X108742090Y-40038909D02*
X108646852Y-39991290D01*
X81459233Y-58872480D02*
X81411614Y-58920100D01*
X81411614Y-58920100D02*
X81268757Y-58967719D01*
X81268757Y-58967719D02*
X81173519Y-58967719D01*
X81173519Y-58967719D02*
X81030662Y-58920100D01*
X81030662Y-58920100D02*
X80935424Y-58824861D01*
X80935424Y-58824861D02*
X80887805Y-58729623D01*
X80887805Y-58729623D02*
X80840186Y-58539147D01*
X80840186Y-58539147D02*
X80840186Y-58396290D01*
X80840186Y-58396290D02*
X80887805Y-58205814D01*
X80887805Y-58205814D02*
X80935424Y-58110576D01*
X80935424Y-58110576D02*
X81030662Y-58015338D01*
X81030662Y-58015338D02*
X81173519Y-57967719D01*
X81173519Y-57967719D02*
X81268757Y-57967719D01*
X81268757Y-57967719D02*
X81411614Y-58015338D01*
X81411614Y-58015338D02*
X81459233Y-58062957D01*
X82363995Y-57967719D02*
X81887805Y-57967719D01*
X81887805Y-57967719D02*
X81840186Y-58443909D01*
X81840186Y-58443909D02*
X81887805Y-58396290D01*
X81887805Y-58396290D02*
X81983043Y-58348671D01*
X81983043Y-58348671D02*
X82221138Y-58348671D01*
X82221138Y-58348671D02*
X82316376Y-58396290D01*
X82316376Y-58396290D02*
X82363995Y-58443909D01*
X82363995Y-58443909D02*
X82411614Y-58539147D01*
X82411614Y-58539147D02*
X82411614Y-58777242D01*
X82411614Y-58777242D02*
X82363995Y-58872480D01*
X82363995Y-58872480D02*
X82316376Y-58920100D01*
X82316376Y-58920100D02*
X82221138Y-58967719D01*
X82221138Y-58967719D02*
X81983043Y-58967719D01*
X81983043Y-58967719D02*
X81887805Y-58920100D01*
X81887805Y-58920100D02*
X81840186Y-58872480D01*
X78323995Y-68127719D02*
X78323995Y-68937242D01*
X78323995Y-68937242D02*
X78371614Y-69032480D01*
X78371614Y-69032480D02*
X78419233Y-69080100D01*
X78419233Y-69080100D02*
X78514471Y-69127719D01*
X78514471Y-69127719D02*
X78704947Y-69127719D01*
X78704947Y-69127719D02*
X78800185Y-69080100D01*
X78800185Y-69080100D02*
X78847804Y-69032480D01*
X78847804Y-69032480D02*
X78895423Y-68937242D01*
X78895423Y-68937242D02*
X78895423Y-68127719D01*
X79276376Y-68127719D02*
X79895423Y-68127719D01*
X79895423Y-68127719D02*
X79562090Y-68508671D01*
X79562090Y-68508671D02*
X79704947Y-68508671D01*
X79704947Y-68508671D02*
X79800185Y-68556290D01*
X79800185Y-68556290D02*
X79847804Y-68603909D01*
X79847804Y-68603909D02*
X79895423Y-68699147D01*
X79895423Y-68699147D02*
X79895423Y-68937242D01*
X79895423Y-68937242D02*
X79847804Y-69032480D01*
X79847804Y-69032480D02*
X79800185Y-69080100D01*
X79800185Y-69080100D02*
X79704947Y-69127719D01*
X79704947Y-69127719D02*
X79419233Y-69127719D01*
X79419233Y-69127719D02*
X79323995Y-69080100D01*
X79323995Y-69080100D02*
X79276376Y-69032480D01*
X97551852Y-68456052D02*
X98075661Y-68456052D01*
X98075661Y-68456052D02*
X97551852Y-69122719D01*
X97551852Y-69122719D02*
X98075661Y-69122719D01*
X98599471Y-68551290D02*
X98504233Y-68503671D01*
X98504233Y-68503671D02*
X98456614Y-68456052D01*
X98456614Y-68456052D02*
X98408995Y-68360814D01*
X98408995Y-68360814D02*
X98408995Y-68313195D01*
X98408995Y-68313195D02*
X98456614Y-68217957D01*
X98456614Y-68217957D02*
X98504233Y-68170338D01*
X98504233Y-68170338D02*
X98599471Y-68122719D01*
X98599471Y-68122719D02*
X98789947Y-68122719D01*
X98789947Y-68122719D02*
X98885185Y-68170338D01*
X98885185Y-68170338D02*
X98932804Y-68217957D01*
X98932804Y-68217957D02*
X98980423Y-68313195D01*
X98980423Y-68313195D02*
X98980423Y-68360814D01*
X98980423Y-68360814D02*
X98932804Y-68456052D01*
X98932804Y-68456052D02*
X98885185Y-68503671D01*
X98885185Y-68503671D02*
X98789947Y-68551290D01*
X98789947Y-68551290D02*
X98599471Y-68551290D01*
X98599471Y-68551290D02*
X98504233Y-68598909D01*
X98504233Y-68598909D02*
X98456614Y-68646528D01*
X98456614Y-68646528D02*
X98408995Y-68741766D01*
X98408995Y-68741766D02*
X98408995Y-68932242D01*
X98408995Y-68932242D02*
X98456614Y-69027480D01*
X98456614Y-69027480D02*
X98504233Y-69075100D01*
X98504233Y-69075100D02*
X98599471Y-69122719D01*
X98599471Y-69122719D02*
X98789947Y-69122719D01*
X98789947Y-69122719D02*
X98885185Y-69075100D01*
X98885185Y-69075100D02*
X98932804Y-69027480D01*
X98932804Y-69027480D02*
X98980423Y-68932242D01*
X98980423Y-68932242D02*
X98980423Y-68741766D01*
X98980423Y-68741766D02*
X98932804Y-68646528D01*
X98932804Y-68646528D02*
X98885185Y-68598909D01*
X98885185Y-68598909D02*
X98789947Y-68551290D01*
X99599471Y-68122719D02*
X99694709Y-68122719D01*
X99694709Y-68122719D02*
X99789947Y-68170338D01*
X99789947Y-68170338D02*
X99837566Y-68217957D01*
X99837566Y-68217957D02*
X99885185Y-68313195D01*
X99885185Y-68313195D02*
X99932804Y-68503671D01*
X99932804Y-68503671D02*
X99932804Y-68741766D01*
X99932804Y-68741766D02*
X99885185Y-68932242D01*
X99885185Y-68932242D02*
X99837566Y-69027480D01*
X99837566Y-69027480D02*
X99789947Y-69075100D01*
X99789947Y-69075100D02*
X99694709Y-69122719D01*
X99694709Y-69122719D02*
X99599471Y-69122719D01*
X99599471Y-69122719D02*
X99504233Y-69075100D01*
X99504233Y-69075100D02*
X99456614Y-69027480D01*
X99456614Y-69027480D02*
X99408995Y-68932242D01*
X99408995Y-68932242D02*
X99361376Y-68741766D01*
X99361376Y-68741766D02*
X99361376Y-68503671D01*
X99361376Y-68503671D02*
X99408995Y-68313195D01*
X99408995Y-68313195D02*
X99456614Y-68217957D01*
X99456614Y-68217957D02*
X99504233Y-68170338D01*
X99504233Y-68170338D02*
X99599471Y-68122719D01*
X101694709Y-69027480D02*
X101647090Y-69075100D01*
X101647090Y-69075100D02*
X101504233Y-69122719D01*
X101504233Y-69122719D02*
X101408995Y-69122719D01*
X101408995Y-69122719D02*
X101266138Y-69075100D01*
X101266138Y-69075100D02*
X101170900Y-68979861D01*
X101170900Y-68979861D02*
X101123281Y-68884623D01*
X101123281Y-68884623D02*
X101075662Y-68694147D01*
X101075662Y-68694147D02*
X101075662Y-68551290D01*
X101075662Y-68551290D02*
X101123281Y-68360814D01*
X101123281Y-68360814D02*
X101170900Y-68265576D01*
X101170900Y-68265576D02*
X101266138Y-68170338D01*
X101266138Y-68170338D02*
X101408995Y-68122719D01*
X101408995Y-68122719D02*
X101504233Y-68122719D01*
X101504233Y-68122719D02*
X101647090Y-68170338D01*
X101647090Y-68170338D02*
X101694709Y-68217957D01*
X102123281Y-69122719D02*
X102123281Y-68122719D01*
X102123281Y-68122719D02*
X102504233Y-68122719D01*
X102504233Y-68122719D02*
X102599471Y-68170338D01*
X102599471Y-68170338D02*
X102647090Y-68217957D01*
X102647090Y-68217957D02*
X102694709Y-68313195D01*
X102694709Y-68313195D02*
X102694709Y-68456052D01*
X102694709Y-68456052D02*
X102647090Y-68551290D01*
X102647090Y-68551290D02*
X102599471Y-68598909D01*
X102599471Y-68598909D02*
X102504233Y-68646528D01*
X102504233Y-68646528D02*
X102123281Y-68646528D01*
X103123281Y-68122719D02*
X103123281Y-68932242D01*
X103123281Y-68932242D02*
X103170900Y-69027480D01*
X103170900Y-69027480D02*
X103218519Y-69075100D01*
X103218519Y-69075100D02*
X103313757Y-69122719D01*
X103313757Y-69122719D02*
X103504233Y-69122719D01*
X103504233Y-69122719D02*
X103599471Y-69075100D01*
X103599471Y-69075100D02*
X103647090Y-69027480D01*
X103647090Y-69027480D02*
X103694709Y-68932242D01*
X103694709Y-68932242D02*
X103694709Y-68122719D01*
X130933333Y-30984580D02*
X130885714Y-31032200D01*
X130885714Y-31032200D02*
X130742857Y-31079819D01*
X130742857Y-31079819D02*
X130647619Y-31079819D01*
X130647619Y-31079819D02*
X130504762Y-31032200D01*
X130504762Y-31032200D02*
X130409524Y-30936961D01*
X130409524Y-30936961D02*
X130361905Y-30841723D01*
X130361905Y-30841723D02*
X130314286Y-30651247D01*
X130314286Y-30651247D02*
X130314286Y-30508390D01*
X130314286Y-30508390D02*
X130361905Y-30317914D01*
X130361905Y-30317914D02*
X130409524Y-30222676D01*
X130409524Y-30222676D02*
X130504762Y-30127438D01*
X130504762Y-30127438D02*
X130647619Y-30079819D01*
X130647619Y-30079819D02*
X130742857Y-30079819D01*
X130742857Y-30079819D02*
X130885714Y-30127438D01*
X130885714Y-30127438D02*
X130933333Y-30175057D01*
X131266667Y-30079819D02*
X131885714Y-30079819D01*
X131885714Y-30079819D02*
X131552381Y-30460771D01*
X131552381Y-30460771D02*
X131695238Y-30460771D01*
X131695238Y-30460771D02*
X131790476Y-30508390D01*
X131790476Y-30508390D02*
X131838095Y-30556009D01*
X131838095Y-30556009D02*
X131885714Y-30651247D01*
X131885714Y-30651247D02*
X131885714Y-30889342D01*
X131885714Y-30889342D02*
X131838095Y-30984580D01*
X131838095Y-30984580D02*
X131790476Y-31032200D01*
X131790476Y-31032200D02*
X131695238Y-31079819D01*
X131695238Y-31079819D02*
X131409524Y-31079819D01*
X131409524Y-31079819D02*
X131314286Y-31032200D01*
X131314286Y-31032200D02*
X131266667Y-30984580D01*
X133529233Y-54681480D02*
X133481614Y-54729100D01*
X133481614Y-54729100D02*
X133338757Y-54776719D01*
X133338757Y-54776719D02*
X133243519Y-54776719D01*
X133243519Y-54776719D02*
X133100662Y-54729100D01*
X133100662Y-54729100D02*
X133005424Y-54633861D01*
X133005424Y-54633861D02*
X132957805Y-54538623D01*
X132957805Y-54538623D02*
X132910186Y-54348147D01*
X132910186Y-54348147D02*
X132910186Y-54205290D01*
X132910186Y-54205290D02*
X132957805Y-54014814D01*
X132957805Y-54014814D02*
X133005424Y-53919576D01*
X133005424Y-53919576D02*
X133100662Y-53824338D01*
X133100662Y-53824338D02*
X133243519Y-53776719D01*
X133243519Y-53776719D02*
X133338757Y-53776719D01*
X133338757Y-53776719D02*
X133481614Y-53824338D01*
X133481614Y-53824338D02*
X133529233Y-53871957D01*
X133910186Y-53871957D02*
X133957805Y-53824338D01*
X133957805Y-53824338D02*
X134053043Y-53776719D01*
X134053043Y-53776719D02*
X134291138Y-53776719D01*
X134291138Y-53776719D02*
X134386376Y-53824338D01*
X134386376Y-53824338D02*
X134433995Y-53871957D01*
X134433995Y-53871957D02*
X134481614Y-53967195D01*
X134481614Y-53967195D02*
X134481614Y-54062433D01*
X134481614Y-54062433D02*
X134433995Y-54205290D01*
X134433995Y-54205290D02*
X133862567Y-54776719D01*
X133862567Y-54776719D02*
X134481614Y-54776719D01*
X73083333Y-71859580D02*
X73035714Y-71907200D01*
X73035714Y-71907200D02*
X72892857Y-71954819D01*
X72892857Y-71954819D02*
X72797619Y-71954819D01*
X72797619Y-71954819D02*
X72654762Y-71907200D01*
X72654762Y-71907200D02*
X72559524Y-71811961D01*
X72559524Y-71811961D02*
X72511905Y-71716723D01*
X72511905Y-71716723D02*
X72464286Y-71526247D01*
X72464286Y-71526247D02*
X72464286Y-71383390D01*
X72464286Y-71383390D02*
X72511905Y-71192914D01*
X72511905Y-71192914D02*
X72559524Y-71097676D01*
X72559524Y-71097676D02*
X72654762Y-71002438D01*
X72654762Y-71002438D02*
X72797619Y-70954819D01*
X72797619Y-70954819D02*
X72892857Y-70954819D01*
X72892857Y-70954819D02*
X73035714Y-71002438D01*
X73035714Y-71002438D02*
X73083333Y-71050057D01*
X74035714Y-71954819D02*
X73464286Y-71954819D01*
X73750000Y-71954819D02*
X73750000Y-70954819D01*
X73750000Y-70954819D02*
X73654762Y-71097676D01*
X73654762Y-71097676D02*
X73559524Y-71192914D01*
X73559524Y-71192914D02*
X73464286Y-71240533D01*
D10*
X87915900Y-78772900D02*
X87915900Y-81432900D01*
X126075900Y-78772900D02*
X87915900Y-78772900D01*
X126075900Y-78772900D02*
X126075900Y-81432900D01*
X126075900Y-81432900D02*
X87915900Y-81432900D01*
X128675900Y-80102900D02*
X128675900Y-81432900D01*
X128675900Y-81432900D02*
X127345900Y-81432900D01*
X131095900Y-27972900D02*
X131095900Y-33172900D01*
X131095900Y-27972900D02*
X133695900Y-27972900D01*
X131095900Y-33172900D02*
X136295900Y-33172900D01*
X133695900Y-27972900D02*
X133695900Y-30572900D01*
X133695900Y-30572900D02*
X136295900Y-30572900D01*
X134965900Y-27972900D02*
X136295900Y-27972900D01*
X136295900Y-27972900D02*
X136295900Y-29302900D01*
X136295900Y-30572900D02*
X136295900Y-33172900D01*
X131095900Y-35652900D02*
X133755900Y-35652900D01*
X131095900Y-53492900D02*
X133755900Y-53492900D01*
X132425900Y-33052900D02*
X133755900Y-33052900D01*
X133755900Y-33052900D02*
X133755900Y-34382900D01*
X133755900Y-35652900D02*
X133755900Y-53492900D01*
X47465900Y-43272900D02*
X47465900Y-40732900D01*
X49215900Y-38202900D02*
X49240900Y-81942900D01*
X49240900Y-31334900D02*
X49215900Y-33102900D01*
X49240900Y-81942900D02*
X71585900Y-81942900D01*
X57495900Y-31334900D02*
X49240900Y-31334900D01*
X71585900Y-31342900D02*
X64099900Y-31334900D01*
X71585900Y-81942900D02*
X71585900Y-31342900D01*
D12*
X49215900Y-33102900D02*
G75*
G02*
X49243785Y-38202748I0J-2550000D01*
G01*
D10*
X117085900Y-35362900D02*
X117085900Y-55512900D01*
X117835900Y-56262900D02*
X129235900Y-56262900D01*
X129235900Y-35362900D02*
X117085900Y-35362900D01*
D12*
X129985900Y-55512900D02*
X129985900Y-53512900D01*
D10*
X117835900Y-56262900D02*
G75*
G02*
X117085900Y-55512900I0J750000D01*
G01*
X129235900Y-35362900D02*
G75*
G02*
X129985900Y-36112900I0J-750000D01*
G01*
X129985900Y-55512900D02*
G75*
G02*
X129235900Y-56262900I-750000J0D01*
G01*
X63210000Y-29500000D02*
X63980000Y-29500000D01*
X63980000Y-28130000D02*
X63980000Y-30870000D01*
X63980000Y-30870000D02*
X70520000Y-30870000D01*
X70520000Y-28130000D02*
X63980000Y-28130000D01*
X70520000Y-30870000D02*
X70520000Y-28130000D01*
X71290000Y-29500000D02*
X70520000Y-29500000D01*
X75155900Y-48757900D02*
X75155900Y-50527900D01*
X75155900Y-52527900D02*
X75155900Y-54297900D01*
X75155900Y-54297900D02*
X116035900Y-54297900D01*
X116035900Y-48757900D02*
X75155900Y-48757900D01*
X116035900Y-54297900D02*
X116035900Y-48757900D01*
X75155900Y-50527900D02*
G75*
G02*
X75155900Y-52527900I0J-1000000D01*
G01*
X100615900Y-30512900D02*
X101945900Y-30512900D01*
X100615900Y-31842900D02*
X100615900Y-30512900D01*
X103215900Y-30512900D02*
X105815900Y-30512900D01*
X103215900Y-33172900D02*
X103215900Y-30512900D01*
X103215900Y-33172900D02*
X105815900Y-33172900D01*
X105815900Y-33172900D02*
X105815900Y-30512900D01*
X93405900Y-39448900D02*
X93405900Y-40706900D01*
X95245900Y-39448900D02*
X95245900Y-40706900D01*
X72000900Y-43812900D02*
X72000900Y-50352900D01*
X72000900Y-50352900D02*
X74740900Y-50352900D01*
X73370900Y-43042900D02*
X73370900Y-43812900D01*
X73370900Y-51122900D02*
X73370900Y-50352900D01*
X74740900Y-43812900D02*
X72000900Y-43812900D01*
X74740900Y-50352900D02*
X74740900Y-43812900D01*
X71900900Y-32932900D02*
X71900900Y-38372900D01*
X71900900Y-38372900D02*
X72030900Y-38372900D01*
X72030900Y-32932900D02*
X71900900Y-32932900D01*
X74710900Y-32932900D02*
X74840900Y-32932900D01*
X74840900Y-32932900D02*
X74840900Y-38372900D01*
X74840900Y-33712900D02*
X71900900Y-33712900D01*
X74840900Y-33832900D02*
X71900900Y-33832900D01*
X74840900Y-33952900D02*
X71900900Y-33952900D01*
X74840900Y-38372900D02*
X74710900Y-38372900D01*
X102566900Y-57592900D02*
X103824900Y-57592900D01*
X102566900Y-59432900D02*
X103824900Y-59432900D01*
X131095900Y-61052900D02*
X131095900Y-78892900D01*
X131095900Y-61052900D02*
X133755900Y-61052900D01*
X131095900Y-78892900D02*
X133755900Y-78892900D01*
X132425900Y-58452900D02*
X133755900Y-58452900D01*
X133755900Y-58452900D02*
X133755900Y-59782900D01*
X133755900Y-61052900D02*
X133755900Y-78892900D01*
X87915900Y-27972900D02*
X89245900Y-27972900D01*
X87915900Y-29302900D02*
X87915900Y-27972900D01*
X90515900Y-27972900D02*
X98195900Y-27972900D01*
X90515900Y-30632900D02*
X90515900Y-27972900D01*
X90515900Y-30632900D02*
X98195900Y-30632900D01*
X98195900Y-30632900D02*
X98195900Y-27972900D01*
X50960000Y-29500000D02*
X51730000Y-29500000D01*
X51730000Y-28130000D02*
X51730000Y-30870000D01*
X51730000Y-30870000D02*
X58270000Y-30870000D01*
X58270000Y-28130000D02*
X51730000Y-28130000D01*
X58270000Y-30870000D02*
X58270000Y-28130000D01*
X59040000Y-29500000D02*
X58270000Y-29500000D01*
X133635900Y-35652900D02*
X133635900Y-53492900D01*
X133635900Y-35652900D02*
X136295900Y-35652900D01*
X133635900Y-53492900D02*
X136295900Y-53492900D01*
X134965900Y-33052900D02*
X136295900Y-33052900D01*
X136295900Y-33052900D02*
X136295900Y-34382900D01*
X136295900Y-35652900D02*
X136295900Y-53492900D01*
X127215900Y-60882900D02*
X127215900Y-76462900D01*
X127215900Y-76462900D02*
X130015900Y-76462900D01*
X130015900Y-60882900D02*
X127215900Y-60882900D01*
X130015900Y-63592900D02*
X127215900Y-63592900D01*
X130015900Y-76462900D02*
X130015900Y-60882900D01*
X133635900Y-61052900D02*
X133635900Y-78892900D01*
X133635900Y-61052900D02*
X136295900Y-61052900D01*
X133635900Y-78892900D02*
X136295900Y-78892900D01*
X134965900Y-58452900D02*
X136295900Y-58452900D01*
X136295900Y-58452900D02*
X136295900Y-59782900D01*
X136295900Y-61052900D02*
X136295900Y-78892900D01*
X77465900Y-78792900D02*
X77465900Y-78282900D01*
X77465900Y-83492900D02*
X77465900Y-81392900D01*
X77985900Y-78282900D02*
X77465900Y-78282900D01*
X77985900Y-78792900D02*
X77985900Y-78282900D01*
X77985900Y-81622900D02*
X77985900Y-81392900D01*
X78525900Y-81622900D02*
X77985900Y-81622900D01*
X83025900Y-81622900D02*
X79625900Y-81622900D01*
X84665900Y-78792900D02*
X84665900Y-78282900D01*
X84665900Y-81622900D02*
X84125900Y-81622900D01*
X84665900Y-81622900D02*
X84665900Y-81392900D01*
X85185900Y-78282900D02*
X84665900Y-78282900D01*
X85185900Y-78792900D02*
X85185900Y-78282900D01*
X85185900Y-83492900D02*
X85185900Y-81392900D01*
X75155900Y-34957900D02*
X75155900Y-45237900D01*
X75155900Y-45237900D02*
X93175900Y-45237900D01*
X75215900Y-37447900D02*
X75215900Y-39097900D01*
X75215900Y-41097900D02*
X75215900Y-42747900D01*
X75215900Y-42747900D02*
X93115900Y-42747900D01*
X93115900Y-37447900D02*
X75215900Y-37447900D01*
X93115900Y-42747900D02*
X93115900Y-37447900D01*
X93175900Y-34957900D02*
X75155900Y-34957900D01*
X93175900Y-45237900D02*
X93175900Y-34957900D01*
X75215900Y-39097900D02*
G75*
G02*
X75215900Y-41097900I0J-1000000D01*
G01*
X100615900Y-27972900D02*
X101945900Y-27972900D01*
X100615900Y-29302900D02*
X100615900Y-27972900D01*
X103215900Y-27972900D02*
X105815900Y-27972900D01*
X103215900Y-30632900D02*
X103215900Y-27972900D01*
X103215900Y-30632900D02*
X105815900Y-30632900D01*
X105815900Y-30632900D02*
X105815900Y-27972900D01*
X72000900Y-56512900D02*
X72000900Y-63052900D01*
X72000900Y-63052900D02*
X74740900Y-63052900D01*
X73370900Y-55742900D02*
X73370900Y-56512900D01*
X73370900Y-63822900D02*
X73370900Y-63052900D01*
X74740900Y-56512900D02*
X72000900Y-56512900D01*
X74740900Y-63052900D02*
X74740900Y-56512900D01*
X108235900Y-30512900D02*
X108235900Y-33172900D01*
X126075900Y-30512900D02*
X108235900Y-30512900D01*
X126075900Y-30512900D02*
X126075900Y-33172900D01*
X126075900Y-33172900D02*
X108235900Y-33172900D01*
X128675900Y-31842900D02*
X128675900Y-33172900D01*
X128675900Y-33172900D02*
X127345900Y-33172900D01*
X131095900Y-78772900D02*
X131095900Y-83972900D01*
X131095900Y-78772900D02*
X133695900Y-78772900D01*
X131095900Y-83972900D02*
X136295900Y-83972900D01*
X133695900Y-78772900D02*
X133695900Y-81372900D01*
X133695900Y-81372900D02*
X136295900Y-81372900D01*
X134965900Y-78772900D02*
X136295900Y-78772900D01*
X136295900Y-78772900D02*
X136295900Y-80102900D01*
X136295900Y-81372900D02*
X136295900Y-83972900D01*
X128965900Y-80723900D02*
X128965900Y-81981900D01*
X130805900Y-80723900D02*
X130805900Y-81981900D01*
X95475900Y-34957900D02*
X95475900Y-45237900D01*
X95475900Y-45237900D02*
X116035900Y-45237900D01*
X95535900Y-37447900D02*
X95535900Y-39097900D01*
X95535900Y-41097900D02*
X95535900Y-42747900D01*
X95535900Y-42747900D02*
X115975900Y-42747900D01*
X115975900Y-37447900D02*
X95535900Y-37447900D01*
X115975900Y-42747900D02*
X115975900Y-37447900D01*
X116035900Y-34957900D02*
X95475900Y-34957900D01*
X116035900Y-45237900D02*
X116035900Y-34957900D01*
X95535900Y-39097900D02*
G75*
G02*
X95535900Y-41097900I0J-1000000D01*
G01*
X81565900Y-33172900D02*
X81565900Y-31842900D01*
X82895900Y-33172900D02*
X81565900Y-33172900D01*
X84165900Y-30512900D02*
X86765900Y-30512900D01*
X84165900Y-33172900D02*
X84165900Y-30512900D01*
X84165900Y-33172900D02*
X86765900Y-33172900D01*
X86765900Y-33172900D02*
X86765900Y-30512900D01*
X78444900Y-57592900D02*
X77186900Y-57592900D01*
X78444900Y-59432900D02*
X77186900Y-59432900D01*
X108235900Y-27972900D02*
X108235900Y-30632900D01*
X126075900Y-27972900D02*
X108235900Y-27972900D01*
X126075900Y-27972900D02*
X126075900Y-30632900D01*
X126075900Y-30632900D02*
X108235900Y-30632900D01*
X128675900Y-29302900D02*
X128675900Y-30632900D01*
X128675900Y-30632900D02*
X127345900Y-30632900D01*
X75155900Y-59722900D02*
X75155900Y-77622900D01*
X75155900Y-77622900D02*
X126195900Y-77622900D01*
X75215900Y-62212900D02*
X75215900Y-67672900D01*
X75215900Y-69672900D02*
X75215900Y-75132900D01*
X75215900Y-75132900D02*
X126135900Y-75132900D01*
X126135900Y-62212900D02*
X75215900Y-62212900D01*
X126135900Y-75132900D02*
X126135900Y-62212900D01*
X126195900Y-59722900D02*
X75155900Y-59722900D01*
X126195900Y-77622900D02*
X126195900Y-59722900D01*
X75215900Y-67672900D02*
G75*
G02*
X75215900Y-69672900I0J-1000000D01*
G01*
X87915900Y-30512900D02*
X89245900Y-30512900D01*
X87915900Y-31842900D02*
X87915900Y-30512900D01*
X90515900Y-30512900D02*
X98195900Y-30512900D01*
X90515900Y-33172900D02*
X90515900Y-30512900D01*
X90515900Y-33172900D02*
X98195900Y-33172900D01*
X98195900Y-33172900D02*
X98195900Y-30512900D01*
X128965900Y-29963900D02*
X128965900Y-31221900D01*
X130805900Y-29963900D02*
X130805900Y-31221900D01*
X133066900Y-55052900D02*
X134324900Y-55052900D01*
X133066900Y-56892900D02*
X134324900Y-56892900D01*
X87915900Y-81312900D02*
X87915900Y-83972900D01*
X126075900Y-81312900D02*
X87915900Y-81312900D01*
X126075900Y-81312900D02*
X126075900Y-83972900D01*
X126075900Y-83972900D02*
X87915900Y-83972900D01*
X128675900Y-82642900D02*
X128675900Y-83972900D01*
X128675900Y-83972900D02*
X127345900Y-83972900D01*
X72450900Y-69301900D02*
X72450900Y-68043900D01*
X74290900Y-69301900D02*
X74290900Y-68043900D01*
X75850900Y-33172900D02*
X75850900Y-31842900D01*
X77180900Y-33172900D02*
X75850900Y-33172900D01*
X78450900Y-30512900D02*
X81050900Y-30512900D01*
X78450900Y-33172900D02*
X78450900Y-30512900D01*
X78450900Y-33172900D02*
X81050900Y-33172900D01*
X81050900Y-33172900D02*
X81050900Y-30512900D01*
%LPC*%
D13*
X127345900Y-80102900D03*
D14*
X124805900Y-80102900D03*
X122265900Y-80102900D03*
X119725900Y-80102900D03*
X117185900Y-80102900D03*
X114645900Y-80102900D03*
X112105900Y-80102900D03*
X109565900Y-80102900D03*
X107025900Y-80102900D03*
X104485900Y-80102900D03*
X101945900Y-80102900D03*
X99405900Y-80102900D03*
X96865900Y-80102900D03*
X94325900Y-80102900D03*
X91785900Y-80102900D03*
X89245900Y-80102900D03*
D13*
X134965900Y-29302900D03*
D14*
X132425900Y-29302900D03*
X134965900Y-31842900D03*
X132425900Y-31842900D03*
D13*
X132425900Y-34382900D03*
D14*
X132425900Y-36922900D03*
X132425900Y-39462900D03*
X132425900Y-42002900D03*
X132425900Y-44542900D03*
X132425900Y-47082900D03*
X132425900Y-49622900D03*
X132425900Y-52162900D03*
D15*
X52415900Y-42002900D03*
D16*
X52415900Y-44542900D03*
X52415900Y-47082900D03*
X52415900Y-49622900D03*
X52415900Y-52162900D03*
X52415900Y-54702900D03*
X52415900Y-57242900D03*
X52415900Y-59782900D03*
X52415900Y-62322900D03*
X52415900Y-64862900D03*
X52415900Y-67402900D03*
X52415900Y-69942900D03*
X52415900Y-72482900D03*
X52415900Y-75022900D03*
X67655900Y-75022900D03*
X67655900Y-72482900D03*
X67655900Y-69942900D03*
X67655900Y-67402900D03*
X67655900Y-64862900D03*
X67655900Y-62322900D03*
X67655900Y-59782900D03*
X67655900Y-57242900D03*
X67655900Y-54702900D03*
X67655900Y-52162900D03*
X67655900Y-49622900D03*
X67655900Y-47082900D03*
X67655900Y-44542900D03*
X67655900Y-42002900D03*
D17*
X119725900Y-38192900D03*
D18*
X119725900Y-53432900D03*
X127345900Y-53432900D03*
X127345900Y-38192900D03*
X62170000Y-29500000D03*
D19*
X72330000Y-29500000D03*
D17*
X76545900Y-55337900D03*
D19*
X79085900Y-55337900D03*
X81625900Y-55337900D03*
X84165900Y-55337900D03*
X86705900Y-55337900D03*
X89245900Y-55337900D03*
X91785900Y-55337900D03*
X94325900Y-55337900D03*
X96865900Y-55337900D03*
X99405900Y-55337900D03*
X101945900Y-55337900D03*
X104485900Y-55337900D03*
X107025900Y-55337900D03*
X109565900Y-55337900D03*
X112105900Y-55337900D03*
X114645900Y-55337900D03*
X114645900Y-47717900D03*
X112105900Y-47717900D03*
X109565900Y-47717900D03*
X107025900Y-47717900D03*
X104485900Y-47717900D03*
X101945900Y-47717900D03*
X99405900Y-47717900D03*
X96865900Y-47717900D03*
X94325900Y-47717900D03*
X91785900Y-47717900D03*
X89245900Y-47717900D03*
X86705900Y-47717900D03*
X84165900Y-47717900D03*
X81625900Y-47717900D03*
X79085900Y-47717900D03*
X76545900Y-47717900D03*
D13*
X101945900Y-31842900D03*
D14*
X104485900Y-31842900D03*
D18*
X94325900Y-38827900D03*
X94325900Y-41327900D03*
X73370900Y-42002900D03*
D19*
X73370900Y-52162900D03*
D20*
X73370900Y-31842900D03*
D21*
X73370900Y-39462900D03*
D18*
X101945900Y-58512900D03*
X104445900Y-58512900D03*
D13*
X132425900Y-59782900D03*
D14*
X132425900Y-62322900D03*
X132425900Y-64862900D03*
X132425900Y-67402900D03*
X132425900Y-69942900D03*
X132425900Y-72482900D03*
X132425900Y-75022900D03*
X132425900Y-77562900D03*
D22*
X60670900Y-33672900D03*
D23*
X60670900Y-33672900D03*
D13*
X89245900Y-29302900D03*
D14*
X91785900Y-29302900D03*
X94325900Y-29302900D03*
X96865900Y-29302900D03*
D22*
X110670900Y-68672900D03*
D23*
X110670900Y-68672900D03*
D18*
X49920000Y-29500000D03*
D19*
X60080000Y-29500000D03*
D13*
X134965900Y-34382900D03*
D14*
X134965900Y-36922900D03*
X134965900Y-39462900D03*
X134965900Y-42002900D03*
X134965900Y-44542900D03*
X134965900Y-47082900D03*
X134965900Y-49622900D03*
X134965900Y-52162900D03*
D17*
X128615900Y-62322900D03*
D19*
X128615900Y-64862900D03*
X128615900Y-67402900D03*
X128615900Y-69942900D03*
X128615900Y-72482900D03*
X128615900Y-75022900D03*
D22*
X60670900Y-78672900D03*
D23*
X60670900Y-78672900D03*
D13*
X134965900Y-59782900D03*
D14*
X134965900Y-62322900D03*
X134965900Y-64862900D03*
X134965900Y-67402900D03*
X134965900Y-69942900D03*
X134965900Y-72482900D03*
X134965900Y-75022900D03*
X134965900Y-77562900D03*
D24*
X84825900Y-80102900D03*
X77815900Y-80102900D03*
D25*
X83575900Y-82592900D03*
X79075900Y-82592900D03*
D17*
X76545900Y-43907900D03*
D19*
X79085900Y-43907900D03*
X81625900Y-43907900D03*
X84165900Y-43907900D03*
X86705900Y-43907900D03*
X89245900Y-43907900D03*
X91785900Y-43907900D03*
X91785900Y-36287900D03*
X89245900Y-36287900D03*
X86705900Y-36287900D03*
X84165900Y-36287900D03*
X81625900Y-36287900D03*
X79085900Y-36287900D03*
X76545900Y-36287900D03*
D13*
X101945900Y-29302900D03*
D14*
X104485900Y-29302900D03*
D18*
X73370900Y-54702900D03*
D19*
X73370900Y-64862900D03*
D13*
X127345900Y-31842900D03*
D14*
X124805900Y-31842900D03*
X122265900Y-31842900D03*
X119725900Y-31842900D03*
X117185900Y-31842900D03*
X114645900Y-31842900D03*
X112105900Y-31842900D03*
X109565900Y-31842900D03*
D13*
X134965900Y-80102900D03*
D14*
X132425900Y-80102900D03*
X134965900Y-82642900D03*
X132425900Y-82642900D03*
D18*
X129885900Y-80102900D03*
X129885900Y-82602900D03*
D17*
X96865900Y-43907900D03*
D19*
X99405900Y-43907900D03*
X101945900Y-43907900D03*
X104485900Y-43907900D03*
X107025900Y-43907900D03*
X109565900Y-43907900D03*
X112105900Y-43907900D03*
X114645900Y-43907900D03*
X114645900Y-36287900D03*
X112105900Y-36287900D03*
X109565900Y-36287900D03*
X107025900Y-36287900D03*
X104485900Y-36287900D03*
X101945900Y-36287900D03*
X99405900Y-36287900D03*
X96865900Y-36287900D03*
D13*
X82895900Y-31842900D03*
D14*
X85435900Y-31842900D03*
D18*
X79065900Y-58512900D03*
X76565900Y-58512900D03*
D13*
X127345900Y-29302900D03*
D14*
X124805900Y-29302900D03*
X122265900Y-29302900D03*
X119725900Y-29302900D03*
X117185900Y-29302900D03*
X114645900Y-29302900D03*
X112105900Y-29302900D03*
X109565900Y-29302900D03*
D17*
X76545900Y-76292900D03*
D19*
X79085900Y-76292900D03*
X81625900Y-76292900D03*
X84165900Y-76292900D03*
X86705900Y-76292900D03*
X89245900Y-76292900D03*
X91785900Y-76292900D03*
X94325900Y-76292900D03*
X96865900Y-76292900D03*
X99405900Y-76292900D03*
X101945900Y-76292900D03*
X104485900Y-76292900D03*
X107025900Y-76292900D03*
X109565900Y-76292900D03*
X112105900Y-76292900D03*
X114645900Y-76292900D03*
X117185900Y-76292900D03*
X119725900Y-76292900D03*
X122265900Y-76292900D03*
X124805900Y-76292900D03*
X124805900Y-61052900D03*
X122265900Y-61052900D03*
X119725900Y-61052900D03*
X117185900Y-61052900D03*
X114645900Y-61052900D03*
X112105900Y-61052900D03*
X109565900Y-61052900D03*
X107025900Y-61052900D03*
X104485900Y-61052900D03*
X101945900Y-61052900D03*
X99405900Y-61052900D03*
X96865900Y-61052900D03*
X94325900Y-61052900D03*
X91785900Y-61052900D03*
X89245900Y-61052900D03*
X86705900Y-61052900D03*
X84165900Y-61052900D03*
X81625900Y-61052900D03*
X79085900Y-61052900D03*
X76545900Y-61052900D03*
D13*
X89245900Y-31842900D03*
D14*
X91785900Y-31842900D03*
X94325900Y-31842900D03*
X96865900Y-31842900D03*
D18*
X129885900Y-29342900D03*
X129885900Y-31842900D03*
X132445900Y-55972900D03*
X134945900Y-55972900D03*
D13*
X127345900Y-82642900D03*
D14*
X124805900Y-82642900D03*
X122265900Y-82642900D03*
X119725900Y-82642900D03*
X117185900Y-82642900D03*
X114645900Y-82642900D03*
X112105900Y-82642900D03*
X109565900Y-82642900D03*
X107025900Y-82642900D03*
X104485900Y-82642900D03*
X101945900Y-82642900D03*
X99405900Y-82642900D03*
X96865900Y-82642900D03*
X94325900Y-82642900D03*
X91785900Y-82642900D03*
X89245900Y-82642900D03*
D18*
X73370900Y-69922900D03*
X73370900Y-67422900D03*
D13*
X77180900Y-31842900D03*
D14*
X79720900Y-31842900D03*
%LPD*%
M02*
