G04 #@! TF.GenerationSoftware,KiCad,Pcbnew,8.0.5-8.0.5-0~ubuntu22.04.1*
G04 #@! TF.CreationDate,2024-10-01T15:38:48-06:00*
G04 #@! TF.ProjectId,z80 RPM,7a383020-5250-44d2-9e6b-696361645f70,1.1*
G04 #@! TF.SameCoordinates,Original*
G04 #@! TF.FileFunction,Soldermask,Bot*
G04 #@! TF.FilePolarity,Negative*
%FSLAX46Y46*%
G04 Gerber Fmt 4.6, Leading zero omitted, Abs format (unit mm)*
G04 Created by KiCad (PCBNEW 8.0.5-8.0.5-0~ubuntu22.04.1) date 2024-10-01 15:38:48*
%MOMM*%
%LPD*%
G01*
G04 APERTURE LIST*
%ADD10R,1.700000X1.700000*%
%ADD11O,1.700000X1.700000*%
%ADD12R,2.000000X1.440000*%
%ADD13O,2.000000X1.440000*%
%ADD14R,1.600000X1.600000*%
%ADD15C,1.600000*%
%ADD16O,1.600000X1.600000*%
%ADD17R,2.200000X2.200000*%
%ADD18O,2.200000X2.200000*%
%ADD19C,3.600000*%
%ADD20C,5.600000*%
%ADD21C,2.100000*%
%ADD22C,1.750000*%
G04 APERTURE END LIST*
D10*
X127345900Y-80102900D03*
D11*
X124805900Y-80102900D03*
X122265900Y-80102900D03*
X119725900Y-80102900D03*
X117185900Y-80102900D03*
X114645900Y-80102900D03*
X112105900Y-80102900D03*
X109565900Y-80102900D03*
X107025900Y-80102900D03*
X104485900Y-80102900D03*
X101945900Y-80102900D03*
X99405900Y-80102900D03*
X96865900Y-80102900D03*
X94325900Y-80102900D03*
X91785900Y-80102900D03*
X89245900Y-80102900D03*
D10*
X134965900Y-29302900D03*
D11*
X132425900Y-29302900D03*
X134965900Y-31842900D03*
X132425900Y-31842900D03*
D10*
X132425900Y-34382900D03*
D11*
X132425900Y-36922900D03*
X132425900Y-39462900D03*
X132425900Y-42002900D03*
X132425900Y-44542900D03*
X132425900Y-47082900D03*
X132425900Y-49622900D03*
X132425900Y-52162900D03*
D12*
X52415900Y-42002900D03*
D13*
X52415900Y-44542900D03*
X52415900Y-47082900D03*
X52415900Y-49622900D03*
X52415900Y-52162900D03*
X52415900Y-54702900D03*
X52415900Y-57242900D03*
X52415900Y-59782900D03*
X52415900Y-62322900D03*
X52415900Y-64862900D03*
X52415900Y-67402900D03*
X52415900Y-69942900D03*
X52415900Y-72482900D03*
X52415900Y-75022900D03*
X67655900Y-75022900D03*
X67655900Y-72482900D03*
X67655900Y-69942900D03*
X67655900Y-67402900D03*
X67655900Y-64862900D03*
X67655900Y-62322900D03*
X67655900Y-59782900D03*
X67655900Y-57242900D03*
X67655900Y-54702900D03*
X67655900Y-52162900D03*
X67655900Y-49622900D03*
X67655900Y-47082900D03*
X67655900Y-44542900D03*
X67655900Y-42002900D03*
D14*
X119725900Y-38192900D03*
D15*
X119725900Y-53432900D03*
X127345900Y-53432900D03*
X127345900Y-38192900D03*
X62170000Y-29500000D03*
D16*
X72330000Y-29500000D03*
D14*
X76545900Y-55337900D03*
D16*
X79085900Y-55337900D03*
X81625900Y-55337900D03*
X84165900Y-55337900D03*
X86705900Y-55337900D03*
X89245900Y-55337900D03*
X91785900Y-55337900D03*
X94325900Y-55337900D03*
X96865900Y-55337900D03*
X99405900Y-55337900D03*
X101945900Y-55337900D03*
X104485900Y-55337900D03*
X107025900Y-55337900D03*
X109565900Y-55337900D03*
X112105900Y-55337900D03*
X114645900Y-55337900D03*
X114645900Y-47717900D03*
X112105900Y-47717900D03*
X109565900Y-47717900D03*
X107025900Y-47717900D03*
X104485900Y-47717900D03*
X101945900Y-47717900D03*
X99405900Y-47717900D03*
X96865900Y-47717900D03*
X94325900Y-47717900D03*
X91785900Y-47717900D03*
X89245900Y-47717900D03*
X86705900Y-47717900D03*
X84165900Y-47717900D03*
X81625900Y-47717900D03*
X79085900Y-47717900D03*
X76545900Y-47717900D03*
D10*
X101945900Y-31842900D03*
D11*
X104485900Y-31842900D03*
D15*
X94325900Y-38827900D03*
X94325900Y-41327900D03*
X73370900Y-42002900D03*
D16*
X73370900Y-52162900D03*
D17*
X73370900Y-31842900D03*
D18*
X73370900Y-39462900D03*
D15*
X101945900Y-58512900D03*
X104445900Y-58512900D03*
D10*
X132425900Y-59782900D03*
D11*
X132425900Y-62322900D03*
X132425900Y-64862900D03*
X132425900Y-67402900D03*
X132425900Y-69942900D03*
X132425900Y-72482900D03*
X132425900Y-75022900D03*
X132425900Y-77562900D03*
D19*
X60670900Y-33672900D03*
D20*
X60670900Y-33672900D03*
D10*
X89245900Y-29302900D03*
D11*
X91785900Y-29302900D03*
X94325900Y-29302900D03*
X96865900Y-29302900D03*
D19*
X110670900Y-68672900D03*
D20*
X110670900Y-68672900D03*
D15*
X49920000Y-29500000D03*
D16*
X60080000Y-29500000D03*
D10*
X134965900Y-34382900D03*
D11*
X134965900Y-36922900D03*
X134965900Y-39462900D03*
X134965900Y-42002900D03*
X134965900Y-44542900D03*
X134965900Y-47082900D03*
X134965900Y-49622900D03*
X134965900Y-52162900D03*
D14*
X128615900Y-62322900D03*
D16*
X128615900Y-64862900D03*
X128615900Y-67402900D03*
X128615900Y-69942900D03*
X128615900Y-72482900D03*
X128615900Y-75022900D03*
D19*
X60670900Y-78672900D03*
D20*
X60670900Y-78672900D03*
D10*
X134965900Y-59782900D03*
D11*
X134965900Y-62322900D03*
X134965900Y-64862900D03*
X134965900Y-67402900D03*
X134965900Y-69942900D03*
X134965900Y-72482900D03*
X134965900Y-75022900D03*
X134965900Y-77562900D03*
D21*
X84825900Y-80102900D03*
X77815900Y-80102900D03*
D22*
X83575900Y-82592900D03*
X79075900Y-82592900D03*
D14*
X76545900Y-43907900D03*
D16*
X79085900Y-43907900D03*
X81625900Y-43907900D03*
X84165900Y-43907900D03*
X86705900Y-43907900D03*
X89245900Y-43907900D03*
X91785900Y-43907900D03*
X91785900Y-36287900D03*
X89245900Y-36287900D03*
X86705900Y-36287900D03*
X84165900Y-36287900D03*
X81625900Y-36287900D03*
X79085900Y-36287900D03*
X76545900Y-36287900D03*
D10*
X101945900Y-29302900D03*
D11*
X104485900Y-29302900D03*
D15*
X73370900Y-54702900D03*
D16*
X73370900Y-64862900D03*
D10*
X127345900Y-31842900D03*
D11*
X124805900Y-31842900D03*
X122265900Y-31842900D03*
X119725900Y-31842900D03*
X117185900Y-31842900D03*
X114645900Y-31842900D03*
X112105900Y-31842900D03*
X109565900Y-31842900D03*
D10*
X134965900Y-80102900D03*
D11*
X132425900Y-80102900D03*
X134965900Y-82642900D03*
X132425900Y-82642900D03*
D15*
X129885900Y-80102900D03*
X129885900Y-82602900D03*
D14*
X96865900Y-43907900D03*
D16*
X99405900Y-43907900D03*
X101945900Y-43907900D03*
X104485900Y-43907900D03*
X107025900Y-43907900D03*
X109565900Y-43907900D03*
X112105900Y-43907900D03*
X114645900Y-43907900D03*
X114645900Y-36287900D03*
X112105900Y-36287900D03*
X109565900Y-36287900D03*
X107025900Y-36287900D03*
X104485900Y-36287900D03*
X101945900Y-36287900D03*
X99405900Y-36287900D03*
X96865900Y-36287900D03*
D10*
X82895900Y-31842900D03*
D11*
X85435900Y-31842900D03*
D15*
X79065900Y-58512900D03*
X76565900Y-58512900D03*
D10*
X127345900Y-29302900D03*
D11*
X124805900Y-29302900D03*
X122265900Y-29302900D03*
X119725900Y-29302900D03*
X117185900Y-29302900D03*
X114645900Y-29302900D03*
X112105900Y-29302900D03*
X109565900Y-29302900D03*
D14*
X76545900Y-76292900D03*
D16*
X79085900Y-76292900D03*
X81625900Y-76292900D03*
X84165900Y-76292900D03*
X86705900Y-76292900D03*
X89245900Y-76292900D03*
X91785900Y-76292900D03*
X94325900Y-76292900D03*
X96865900Y-76292900D03*
X99405900Y-76292900D03*
X101945900Y-76292900D03*
X104485900Y-76292900D03*
X107025900Y-76292900D03*
X109565900Y-76292900D03*
X112105900Y-76292900D03*
X114645900Y-76292900D03*
X117185900Y-76292900D03*
X119725900Y-76292900D03*
X122265900Y-76292900D03*
X124805900Y-76292900D03*
X124805900Y-61052900D03*
X122265900Y-61052900D03*
X119725900Y-61052900D03*
X117185900Y-61052900D03*
X114645900Y-61052900D03*
X112105900Y-61052900D03*
X109565900Y-61052900D03*
X107025900Y-61052900D03*
X104485900Y-61052900D03*
X101945900Y-61052900D03*
X99405900Y-61052900D03*
X96865900Y-61052900D03*
X94325900Y-61052900D03*
X91785900Y-61052900D03*
X89245900Y-61052900D03*
X86705900Y-61052900D03*
X84165900Y-61052900D03*
X81625900Y-61052900D03*
X79085900Y-61052900D03*
X76545900Y-61052900D03*
D10*
X89245900Y-31842900D03*
D11*
X91785900Y-31842900D03*
X94325900Y-31842900D03*
X96865900Y-31842900D03*
D15*
X129885900Y-29342900D03*
X129885900Y-31842900D03*
X132445900Y-55972900D03*
X134945900Y-55972900D03*
D10*
X127345900Y-82642900D03*
D11*
X124805900Y-82642900D03*
X122265900Y-82642900D03*
X119725900Y-82642900D03*
X117185900Y-82642900D03*
X114645900Y-82642900D03*
X112105900Y-82642900D03*
X109565900Y-82642900D03*
X107025900Y-82642900D03*
X104485900Y-82642900D03*
X101945900Y-82642900D03*
X99405900Y-82642900D03*
X96865900Y-82642900D03*
X94325900Y-82642900D03*
X91785900Y-82642900D03*
X89245900Y-82642900D03*
D15*
X73370900Y-69922900D03*
X73370900Y-67422900D03*
D10*
X77180900Y-31842900D03*
D11*
X79720900Y-31842900D03*
M02*
