G04 #@! TF.GenerationSoftware,KiCad,Pcbnew,8.0.5-8.0.5-0~ubuntu22.04.1*
G04 #@! TF.CreationDate,2024-10-01T15:38:48-06:00*
G04 #@! TF.ProjectId,z80 RPM,7a383020-5250-44d2-9e6b-696361645f70,1.1*
G04 #@! TF.SameCoordinates,Original*
G04 #@! TF.FileFunction,Copper,L1,Top*
G04 #@! TF.FilePolarity,Positive*
%FSLAX46Y46*%
G04 Gerber Fmt 4.6, Leading zero omitted, Abs format (unit mm)*
G04 Created by KiCad (PCBNEW 8.0.5-8.0.5-0~ubuntu22.04.1) date 2024-10-01 15:38:48*
%MOMM*%
%LPD*%
G01*
G04 APERTURE LIST*
G04 #@! TA.AperFunction,ComponentPad*
%ADD10R,1.700000X1.700000*%
G04 #@! TD*
G04 #@! TA.AperFunction,ComponentPad*
%ADD11O,1.700000X1.700000*%
G04 #@! TD*
G04 #@! TA.AperFunction,ComponentPad*
%ADD12R,2.000000X1.440000*%
G04 #@! TD*
G04 #@! TA.AperFunction,ComponentPad*
%ADD13O,2.000000X1.440000*%
G04 #@! TD*
G04 #@! TA.AperFunction,ComponentPad*
%ADD14R,1.600000X1.600000*%
G04 #@! TD*
G04 #@! TA.AperFunction,ComponentPad*
%ADD15C,1.600000*%
G04 #@! TD*
G04 #@! TA.AperFunction,ComponentPad*
%ADD16O,1.600000X1.600000*%
G04 #@! TD*
G04 #@! TA.AperFunction,ComponentPad*
%ADD17R,2.200000X2.200000*%
G04 #@! TD*
G04 #@! TA.AperFunction,ComponentPad*
%ADD18O,2.200000X2.200000*%
G04 #@! TD*
G04 #@! TA.AperFunction,ComponentPad*
%ADD19C,3.600000*%
G04 #@! TD*
G04 #@! TA.AperFunction,ConnectorPad*
%ADD20C,5.600000*%
G04 #@! TD*
G04 #@! TA.AperFunction,ComponentPad*
%ADD21C,2.100000*%
G04 #@! TD*
G04 #@! TA.AperFunction,ComponentPad*
%ADD22C,1.750000*%
G04 #@! TD*
G04 #@! TA.AperFunction,ViaPad*
%ADD23C,0.600000*%
G04 #@! TD*
G04 #@! TA.AperFunction,Conductor*
%ADD24C,0.200000*%
G04 #@! TD*
G04 #@! TA.AperFunction,Conductor*
%ADD25C,0.450000*%
G04 #@! TD*
G04 APERTURE END LIST*
D10*
X127345900Y-80102900D03*
D11*
X124805900Y-80102900D03*
X122265900Y-80102900D03*
X119725900Y-80102900D03*
X117185900Y-80102900D03*
X114645900Y-80102900D03*
X112105900Y-80102900D03*
X109565900Y-80102900D03*
X107025900Y-80102900D03*
X104485900Y-80102900D03*
X101945900Y-80102900D03*
X99405900Y-80102900D03*
X96865900Y-80102900D03*
X94325900Y-80102900D03*
X91785900Y-80102900D03*
X89245900Y-80102900D03*
D10*
X134965900Y-29302900D03*
D11*
X132425900Y-29302900D03*
X134965900Y-31842900D03*
X132425900Y-31842900D03*
D10*
X132425900Y-34382900D03*
D11*
X132425900Y-36922900D03*
X132425900Y-39462900D03*
X132425900Y-42002900D03*
X132425900Y-44542900D03*
X132425900Y-47082900D03*
X132425900Y-49622900D03*
X132425900Y-52162900D03*
D12*
X52415900Y-42002900D03*
D13*
X52415900Y-44542900D03*
X52415900Y-47082900D03*
X52415900Y-49622900D03*
X52415900Y-52162900D03*
X52415900Y-54702900D03*
X52415900Y-57242900D03*
X52415900Y-59782900D03*
X52415900Y-62322900D03*
X52415900Y-64862900D03*
X52415900Y-67402900D03*
X52415900Y-69942900D03*
X52415900Y-72482900D03*
X52415900Y-75022900D03*
X67655900Y-75022900D03*
X67655900Y-72482900D03*
X67655900Y-69942900D03*
X67655900Y-67402900D03*
X67655900Y-64862900D03*
X67655900Y-62322900D03*
X67655900Y-59782900D03*
X67655900Y-57242900D03*
X67655900Y-54702900D03*
X67655900Y-52162900D03*
X67655900Y-49622900D03*
X67655900Y-47082900D03*
X67655900Y-44542900D03*
X67655900Y-42002900D03*
D14*
X119725900Y-38192900D03*
D15*
X119725900Y-53432900D03*
X127345900Y-53432900D03*
X127345900Y-38192900D03*
X62170000Y-29500000D03*
D16*
X72330000Y-29500000D03*
D14*
X76545900Y-55337900D03*
D16*
X79085900Y-55337900D03*
X81625900Y-55337900D03*
X84165900Y-55337900D03*
X86705900Y-55337900D03*
X89245900Y-55337900D03*
X91785900Y-55337900D03*
X94325900Y-55337900D03*
X96865900Y-55337900D03*
X99405900Y-55337900D03*
X101945900Y-55337900D03*
X104485900Y-55337900D03*
X107025900Y-55337900D03*
X109565900Y-55337900D03*
X112105900Y-55337900D03*
X114645900Y-55337900D03*
X114645900Y-47717900D03*
X112105900Y-47717900D03*
X109565900Y-47717900D03*
X107025900Y-47717900D03*
X104485900Y-47717900D03*
X101945900Y-47717900D03*
X99405900Y-47717900D03*
X96865900Y-47717900D03*
X94325900Y-47717900D03*
X91785900Y-47717900D03*
X89245900Y-47717900D03*
X86705900Y-47717900D03*
X84165900Y-47717900D03*
X81625900Y-47717900D03*
X79085900Y-47717900D03*
X76545900Y-47717900D03*
D10*
X101945900Y-31842900D03*
D11*
X104485900Y-31842900D03*
D15*
X94325900Y-38827900D03*
X94325900Y-41327900D03*
X73370900Y-42002900D03*
D16*
X73370900Y-52162900D03*
D17*
X73370900Y-31842900D03*
D18*
X73370900Y-39462900D03*
D15*
X101945900Y-58512900D03*
X104445900Y-58512900D03*
D10*
X132425900Y-59782900D03*
D11*
X132425900Y-62322900D03*
X132425900Y-64862900D03*
X132425900Y-67402900D03*
X132425900Y-69942900D03*
X132425900Y-72482900D03*
X132425900Y-75022900D03*
X132425900Y-77562900D03*
D19*
X60670900Y-33672900D03*
D20*
X60670900Y-33672900D03*
D10*
X89245900Y-29302900D03*
D11*
X91785900Y-29302900D03*
X94325900Y-29302900D03*
X96865900Y-29302900D03*
D19*
X110670900Y-68672900D03*
D20*
X110670900Y-68672900D03*
D15*
X49920000Y-29500000D03*
D16*
X60080000Y-29500000D03*
D10*
X134965900Y-34382900D03*
D11*
X134965900Y-36922900D03*
X134965900Y-39462900D03*
X134965900Y-42002900D03*
X134965900Y-44542900D03*
X134965900Y-47082900D03*
X134965900Y-49622900D03*
X134965900Y-52162900D03*
D14*
X128615900Y-62322900D03*
D16*
X128615900Y-64862900D03*
X128615900Y-67402900D03*
X128615900Y-69942900D03*
X128615900Y-72482900D03*
X128615900Y-75022900D03*
D19*
X60670900Y-78672900D03*
D20*
X60670900Y-78672900D03*
D10*
X134965900Y-59782900D03*
D11*
X134965900Y-62322900D03*
X134965900Y-64862900D03*
X134965900Y-67402900D03*
X134965900Y-69942900D03*
X134965900Y-72482900D03*
X134965900Y-75022900D03*
X134965900Y-77562900D03*
D21*
X84825900Y-80102900D03*
X77815900Y-80102900D03*
D22*
X83575900Y-82592900D03*
X79075900Y-82592900D03*
D14*
X76545900Y-43907900D03*
D16*
X79085900Y-43907900D03*
X81625900Y-43907900D03*
X84165900Y-43907900D03*
X86705900Y-43907900D03*
X89245900Y-43907900D03*
X91785900Y-43907900D03*
X91785900Y-36287900D03*
X89245900Y-36287900D03*
X86705900Y-36287900D03*
X84165900Y-36287900D03*
X81625900Y-36287900D03*
X79085900Y-36287900D03*
X76545900Y-36287900D03*
D10*
X101945900Y-29302900D03*
D11*
X104485900Y-29302900D03*
D15*
X73370900Y-54702900D03*
D16*
X73370900Y-64862900D03*
D10*
X127345900Y-31842900D03*
D11*
X124805900Y-31842900D03*
X122265900Y-31842900D03*
X119725900Y-31842900D03*
X117185900Y-31842900D03*
X114645900Y-31842900D03*
X112105900Y-31842900D03*
X109565900Y-31842900D03*
D10*
X134965900Y-80102900D03*
D11*
X132425900Y-80102900D03*
X134965900Y-82642900D03*
X132425900Y-82642900D03*
D15*
X129885900Y-80102900D03*
X129885900Y-82602900D03*
D14*
X96865900Y-43907900D03*
D16*
X99405900Y-43907900D03*
X101945900Y-43907900D03*
X104485900Y-43907900D03*
X107025900Y-43907900D03*
X109565900Y-43907900D03*
X112105900Y-43907900D03*
X114645900Y-43907900D03*
X114645900Y-36287900D03*
X112105900Y-36287900D03*
X109565900Y-36287900D03*
X107025900Y-36287900D03*
X104485900Y-36287900D03*
X101945900Y-36287900D03*
X99405900Y-36287900D03*
X96865900Y-36287900D03*
D10*
X82895900Y-31842900D03*
D11*
X85435900Y-31842900D03*
D15*
X79065900Y-58512900D03*
X76565900Y-58512900D03*
D10*
X127345900Y-29302900D03*
D11*
X124805900Y-29302900D03*
X122265900Y-29302900D03*
X119725900Y-29302900D03*
X117185900Y-29302900D03*
X114645900Y-29302900D03*
X112105900Y-29302900D03*
X109565900Y-29302900D03*
D14*
X76545900Y-76292900D03*
D16*
X79085900Y-76292900D03*
X81625900Y-76292900D03*
X84165900Y-76292900D03*
X86705900Y-76292900D03*
X89245900Y-76292900D03*
X91785900Y-76292900D03*
X94325900Y-76292900D03*
X96865900Y-76292900D03*
X99405900Y-76292900D03*
X101945900Y-76292900D03*
X104485900Y-76292900D03*
X107025900Y-76292900D03*
X109565900Y-76292900D03*
X112105900Y-76292900D03*
X114645900Y-76292900D03*
X117185900Y-76292900D03*
X119725900Y-76292900D03*
X122265900Y-76292900D03*
X124805900Y-76292900D03*
X124805900Y-61052900D03*
X122265900Y-61052900D03*
X119725900Y-61052900D03*
X117185900Y-61052900D03*
X114645900Y-61052900D03*
X112105900Y-61052900D03*
X109565900Y-61052900D03*
X107025900Y-61052900D03*
X104485900Y-61052900D03*
X101945900Y-61052900D03*
X99405900Y-61052900D03*
X96865900Y-61052900D03*
X94325900Y-61052900D03*
X91785900Y-61052900D03*
X89245900Y-61052900D03*
X86705900Y-61052900D03*
X84165900Y-61052900D03*
X81625900Y-61052900D03*
X79085900Y-61052900D03*
X76545900Y-61052900D03*
D10*
X89245900Y-31842900D03*
D11*
X91785900Y-31842900D03*
X94325900Y-31842900D03*
X96865900Y-31842900D03*
D15*
X129885900Y-29342900D03*
X129885900Y-31842900D03*
X132445900Y-55972900D03*
X134945900Y-55972900D03*
D10*
X127345900Y-82642900D03*
D11*
X124805900Y-82642900D03*
X122265900Y-82642900D03*
X119725900Y-82642900D03*
X117185900Y-82642900D03*
X114645900Y-82642900D03*
X112105900Y-82642900D03*
X109565900Y-82642900D03*
X107025900Y-82642900D03*
X104485900Y-82642900D03*
X101945900Y-82642900D03*
X99405900Y-82642900D03*
X96865900Y-82642900D03*
X94325900Y-82642900D03*
X91785900Y-82642900D03*
X89245900Y-82642900D03*
D15*
X73370900Y-69922900D03*
X73370900Y-67422900D03*
D10*
X77180900Y-31842900D03*
D11*
X79720900Y-31842900D03*
D23*
X67900000Y-36000000D03*
X74128000Y-75353000D03*
X66300000Y-34900000D03*
X109565900Y-38827900D03*
X127345900Y-42637900D03*
X125743800Y-57073400D03*
X104673100Y-64203800D03*
X116797000Y-71823800D03*
X119979900Y-50765900D03*
X110200900Y-57242900D03*
X100040900Y-67402900D03*
X120818700Y-70240900D03*
X95764200Y-64645800D03*
X97994400Y-54158000D03*
X69254300Y-65587700D03*
X119940600Y-58899000D03*
X107675300Y-57722200D03*
X129885900Y-52162900D03*
X127726900Y-60671900D03*
X126710900Y-36922900D03*
X127345900Y-66132900D03*
X121873500Y-38285700D03*
X98770900Y-52162900D03*
X107025900Y-51527900D03*
X86070900Y-71847900D03*
X120391700Y-48288200D03*
X88978800Y-50039900D03*
X80990900Y-73117900D03*
X73370900Y-73117900D03*
X81062000Y-52000500D03*
X70458600Y-71952400D03*
X93779400Y-71932600D03*
X97724900Y-59948800D03*
X126710900Y-71212900D03*
X126075900Y-34382900D03*
X89245900Y-71847900D03*
X102717600Y-81254600D03*
X99259700Y-53544900D03*
X116655800Y-46697000D03*
X125352400Y-46176900D03*
X107025900Y-62957900D03*
X95540000Y-49738700D03*
X108930900Y-62322900D03*
X91150900Y-67402900D03*
X106103200Y-69558200D03*
X121764600Y-69507100D03*
X101945900Y-67402900D03*
X105501400Y-64030500D03*
X107025900Y-73117900D03*
X70830900Y-73117900D03*
X116804900Y-50003900D03*
X103850900Y-70577900D03*
X81193800Y-52821000D03*
X83371800Y-50643000D03*
X73115900Y-75571500D03*
X93145600Y-56560700D03*
X124109700Y-46724000D03*
X70365500Y-48680800D03*
X125070500Y-47628200D03*
X133661200Y-47943300D03*
X131659000Y-40827900D03*
X123642000Y-39773900D03*
X122394400Y-36642200D03*
X129351000Y-58034500D03*
X122423100Y-58195700D03*
X130326300Y-62675300D03*
X101310900Y-42002900D03*
X101310900Y-65497900D03*
X103850900Y-41367900D03*
X127532300Y-77092500D03*
X124461600Y-39248800D03*
X90157500Y-66418000D03*
X126790700Y-77485000D03*
X95878300Y-41306000D03*
X108785900Y-39588700D03*
X125911400Y-70590100D03*
X115392300Y-74874100D03*
X110835900Y-48987900D03*
X110200900Y-52797900D03*
X107724900Y-40953600D03*
X130688100Y-41528500D03*
X121074700Y-47065200D03*
X117418800Y-74173400D03*
X86070900Y-45812900D03*
D24*
X77647600Y-33916200D02*
X77647600Y-34200000D01*
X77647600Y-34200000D02*
X77647600Y-42806200D01*
X67900000Y-37580000D02*
X67900000Y-36000000D01*
X50580000Y-38030000D02*
X67450000Y-38030000D01*
X67450000Y-38030000D02*
X67900000Y-37580000D01*
X77647600Y-42806200D02*
X76545900Y-43907900D01*
X49920000Y-29500000D02*
X49920000Y-37370000D01*
X79720900Y-31842900D02*
X77647600Y-33916200D01*
X49920000Y-37370000D02*
X50580000Y-38030000D01*
X83127800Y-77794800D02*
X81625900Y-76292900D01*
X67655900Y-47082900D02*
X69703800Y-47082900D01*
X83995900Y-45007900D02*
X83488500Y-45007900D01*
X85999600Y-77794800D02*
X83127800Y-77794800D01*
X83488500Y-45007900D02*
X82895900Y-44415300D01*
X94325900Y-82642900D02*
X94325900Y-80102900D01*
X87156000Y-78951200D02*
X85999600Y-77794800D01*
X94325900Y-80102900D02*
X93174200Y-78951200D01*
X86705900Y-47717900D02*
X83995900Y-45007900D01*
X71454300Y-48833400D02*
X71454300Y-69600700D01*
X74128000Y-72274400D02*
X74128000Y-75353000D01*
X71454300Y-69600700D02*
X74128000Y-72274400D01*
X93174200Y-78951200D02*
X87156000Y-78951200D01*
X82895900Y-44415300D02*
X82895900Y-31842900D01*
X69703800Y-47082900D02*
X71454300Y-48833400D01*
X66300000Y-32200000D02*
X66300000Y-34900000D01*
X63600000Y-29500000D02*
X66300000Y-32200000D01*
X62170000Y-29500000D02*
X63600000Y-29500000D01*
X85435900Y-31842900D02*
X85435900Y-40195200D01*
X84165900Y-41465200D02*
X84165900Y-43907900D01*
X85435900Y-40195200D02*
X84165900Y-41465200D01*
X80870900Y-31157214D02*
X80286586Y-30572900D01*
X80286586Y-30572900D02*
X78450900Y-30572900D01*
X80870900Y-32648300D02*
X80870900Y-31157214D01*
X80406300Y-33112900D02*
X80870900Y-32648300D01*
X80522800Y-56441000D02*
X81625900Y-55337900D01*
X84165900Y-76292900D02*
X84165900Y-75191200D01*
X80522800Y-71548100D02*
X80522800Y-56441000D01*
X84165900Y-75191200D02*
X80522800Y-71548100D01*
X78450900Y-30572900D02*
X77180900Y-31842900D01*
X80406300Y-54118300D02*
X80406300Y-33112900D01*
X81625900Y-55337900D02*
X80406300Y-54118300D01*
X91785900Y-80102900D02*
X91785900Y-82642900D01*
D25*
X128620900Y-30607900D02*
X128620900Y-36917900D01*
X109565900Y-43907900D02*
X109565900Y-38827900D01*
X128615900Y-62322900D02*
X129885900Y-63592900D01*
X76545900Y-41367900D02*
X76545900Y-36287900D01*
X73370900Y-42002900D02*
X73370900Y-46447900D01*
X129117295Y-57242900D02*
X131175900Y-57242900D01*
X131190900Y-54717900D02*
X132445900Y-55972900D01*
X129885900Y-63592900D02*
X129885900Y-80102900D01*
X132425900Y-80102900D02*
X134965900Y-80102900D01*
X96865900Y-36287900D02*
X94960900Y-36287900D01*
X103170900Y-59737900D02*
X103170900Y-68037900D01*
X127345900Y-50872900D02*
X127345900Y-42637900D01*
X128615900Y-62322900D02*
X128615900Y-57744295D01*
X127990900Y-51517900D02*
X127345900Y-50872900D01*
X129235900Y-52762900D02*
X129235900Y-53894270D01*
X73370900Y-46447900D02*
X74640900Y-47717900D01*
X101945900Y-58512900D02*
X103170900Y-59737900D01*
X73370900Y-35652900D02*
X74005900Y-36287900D01*
X101945900Y-76292900D02*
X101945900Y-69262900D01*
X134965900Y-29302900D02*
X132425900Y-29302900D01*
X129925900Y-29302900D02*
X129885900Y-29342900D01*
X127345900Y-42637900D02*
X127345900Y-38192900D01*
X94325900Y-36922900D02*
X94325900Y-38827900D01*
X132425900Y-29302900D02*
X129925900Y-29302900D01*
X74005900Y-36287900D02*
X76545900Y-36287900D01*
X73370900Y-42002900D02*
X75910900Y-42002900D01*
X73370900Y-31842900D02*
X73370900Y-35652900D01*
X94960900Y-36287900D02*
X94325900Y-36922900D01*
X127990900Y-51517900D02*
X129235900Y-52762900D01*
X101945900Y-69262900D02*
X103170900Y-68037900D01*
X129885900Y-29342900D02*
X128620900Y-30607900D01*
X128620900Y-36917900D02*
X127345900Y-38192900D01*
X128615900Y-57744295D02*
X129117295Y-57242900D01*
X130059530Y-54717900D02*
X131190900Y-54717900D01*
X75910900Y-42002900D02*
X76545900Y-41367900D01*
X129235900Y-53894270D02*
X130059530Y-54717900D01*
X131175900Y-57242900D02*
X132445900Y-55972900D01*
X74640900Y-47717900D02*
X76545900Y-47717900D01*
D24*
X119725900Y-70482900D02*
X119725900Y-76292900D01*
X125921800Y-57251400D02*
X125921800Y-61687900D01*
X124123400Y-66085400D02*
X119725900Y-70482900D01*
X124123400Y-63486300D02*
X124123400Y-66085400D01*
X125743800Y-57073400D02*
X125921800Y-57251400D01*
X125921800Y-61687900D02*
X124123400Y-63486300D01*
X109565900Y-31842900D02*
X105587600Y-35821200D01*
X107025900Y-75191200D02*
X107025900Y-76292900D01*
X104485900Y-48819600D02*
X104485900Y-47717900D01*
X104673100Y-64203800D02*
X104673100Y-72838400D01*
X104673100Y-64203800D02*
X104673100Y-64008000D01*
X104673100Y-64008000D02*
X105616000Y-63065100D01*
X105616000Y-63065100D02*
X105616000Y-49949700D01*
X105587600Y-35821200D02*
X105587600Y-45514500D01*
X105616000Y-49949700D02*
X104485900Y-48819600D01*
X104485900Y-46616200D02*
X104485900Y-47717900D01*
X104673100Y-72838400D02*
X107025900Y-75191200D01*
X105587600Y-45514500D02*
X104485900Y-46616200D01*
X109565900Y-29302900D02*
X109565900Y-31842900D01*
X120825900Y-53891000D02*
X120825900Y-51611900D01*
X116797000Y-69307900D02*
X116797000Y-71823800D01*
X117185900Y-61052900D02*
X117185900Y-68919000D01*
X117185900Y-68919000D02*
X116797000Y-69307900D01*
X117185900Y-57531000D02*
X120827600Y-53889300D01*
X117185900Y-61052900D02*
X117185900Y-57531000D01*
X120825900Y-51611900D02*
X119979900Y-50765900D01*
X109565900Y-61052900D02*
X109565900Y-57877900D01*
X109565900Y-57877900D02*
X110200900Y-57242900D01*
X96865900Y-60502000D02*
X96865900Y-61052900D01*
X120818700Y-70240900D02*
X120854400Y-70276600D01*
X120854400Y-77539700D02*
X122265900Y-78951200D01*
X122265900Y-80102900D02*
X122265900Y-78951200D01*
X96865900Y-63592900D02*
X96865900Y-64053400D01*
X96865900Y-61052900D02*
X96865900Y-63592900D01*
X96865900Y-60502000D02*
X96865900Y-59951200D01*
X96865900Y-63592900D02*
X96865900Y-64227900D01*
X99405900Y-55337900D02*
X99405900Y-56439600D01*
X96865900Y-58979600D02*
X99405900Y-56439600D01*
X120854400Y-70276600D02*
X120854400Y-77539700D01*
X96865900Y-59951200D02*
X96865900Y-58979600D01*
X96865900Y-64227900D02*
X100040900Y-67402900D01*
X122265900Y-82642900D02*
X122265900Y-80102900D01*
X68925900Y-67402900D02*
X67655900Y-67402900D01*
X99405900Y-75191200D02*
X99405900Y-68287500D01*
X99405900Y-76292900D02*
X99405900Y-75191200D01*
X95764200Y-59511900D02*
X97994400Y-57281700D01*
X69254300Y-65587700D02*
X69254300Y-67074500D01*
X112105900Y-31842900D02*
X108183300Y-35765500D01*
X108326600Y-45315500D02*
X107025900Y-46616200D01*
X95764200Y-64645800D02*
X95764200Y-59511900D01*
X99405900Y-68287500D02*
X95764200Y-64645800D01*
X69254300Y-67074500D02*
X68925900Y-67402900D01*
X97994400Y-57281700D02*
X97994400Y-54158000D01*
X108183300Y-35765500D02*
X108183300Y-39977000D01*
X108183300Y-39977000D02*
X108326600Y-40120300D01*
X108326600Y-40120300D02*
X108326600Y-45315500D01*
X112105900Y-29302900D02*
X112105900Y-31842900D01*
X107025900Y-46616200D02*
X107025900Y-47717900D01*
X119725900Y-59113700D02*
X119940600Y-58899000D01*
X119725900Y-61052900D02*
X119725900Y-59113700D01*
X134965900Y-52162900D02*
X132425900Y-52162900D01*
X107025900Y-58371600D02*
X107675300Y-57722200D01*
X107025900Y-61052900D02*
X107025900Y-58371600D01*
D25*
X132425900Y-31842900D02*
X129885900Y-31842900D01*
X132425900Y-82642900D02*
X134965900Y-82642900D01*
X134945900Y-55972900D02*
X134945900Y-54682900D01*
X131155900Y-82007900D02*
X131155900Y-82602900D01*
X115870900Y-45132900D02*
X114645900Y-43907900D01*
X129885900Y-53432900D02*
X129885900Y-52162900D01*
X134945900Y-57262900D02*
X134330900Y-57877900D01*
X132385900Y-82602900D02*
X132425900Y-82642900D01*
X89245900Y-36287900D02*
X89245900Y-38192900D01*
X114645900Y-55337900D02*
X115870900Y-54112900D01*
X115870900Y-54112900D02*
X115870900Y-45132900D01*
X131790900Y-82642900D02*
X131155900Y-82007900D01*
X93690900Y-43907900D02*
X91785900Y-43907900D01*
X129885900Y-52162900D02*
X129885900Y-31842900D01*
X94325900Y-43272900D02*
X93690900Y-43907900D01*
X91150900Y-38827900D02*
X91785900Y-39462900D01*
X131150900Y-58517900D02*
X131150900Y-81367900D01*
X134945900Y-54682900D02*
X134330900Y-54067900D01*
X134330900Y-57877900D02*
X131790900Y-57877900D01*
X134965900Y-31842900D02*
X132425900Y-31842900D01*
X131155900Y-82602900D02*
X132385900Y-82602900D01*
X131155900Y-81372900D02*
X131155900Y-82007900D01*
X73370900Y-64862900D02*
X73370900Y-67422900D01*
X73370900Y-59782900D02*
X74640900Y-58512900D01*
X134330900Y-54067900D02*
X130520900Y-54067900D01*
X129885900Y-82602900D02*
X131120900Y-81367900D01*
X129885900Y-82602900D02*
X131155900Y-82602900D01*
X91785900Y-39462900D02*
X91785900Y-43907900D01*
X131135900Y-81987900D02*
X131155900Y-82007900D01*
X104445900Y-58512900D02*
X104445900Y-61012900D01*
X89880900Y-38827900D02*
X91150900Y-38827900D01*
X74640900Y-58512900D02*
X76565900Y-58512900D01*
X104445900Y-61012900D02*
X104485900Y-61052900D01*
X131150900Y-81367900D02*
X132425900Y-82642900D01*
X89245900Y-38192900D02*
X89880900Y-38827900D01*
X130520900Y-54067900D02*
X129885900Y-53432900D01*
X130520900Y-82602900D02*
X131135900Y-81987900D01*
X131790900Y-57877900D02*
X131150900Y-58517900D01*
X73370900Y-64862900D02*
X73370900Y-59782900D01*
X131150900Y-81367900D02*
X131155900Y-81372900D01*
X132425900Y-82642900D02*
X131790900Y-82642900D01*
X94325900Y-41327900D02*
X94325900Y-42167900D01*
X129885900Y-82602900D02*
X130520900Y-82602900D01*
X94325900Y-42167900D02*
X94325900Y-43272900D01*
X131120900Y-81367900D02*
X131150900Y-81367900D01*
X134945900Y-55972900D02*
X134945900Y-57262900D01*
D24*
X134965900Y-49622900D02*
X132425900Y-49622900D01*
X126245900Y-37387900D02*
X126710900Y-36922900D01*
X127515900Y-66302900D02*
X127515900Y-71382900D01*
X127345900Y-66132900D02*
X127515900Y-66302900D01*
X128572169Y-52841631D02*
X126710900Y-50980362D01*
X128572169Y-54111631D02*
X128572169Y-52841631D01*
X126710900Y-50980362D02*
X126710900Y-39462900D01*
X127515900Y-71382900D02*
X128615900Y-72482900D01*
X127745900Y-60652900D02*
X127745900Y-54937900D01*
X126710900Y-39462900D02*
X126245900Y-38997900D01*
X126245900Y-38997900D02*
X126245900Y-37387900D01*
X127726900Y-60671900D02*
X127745900Y-60652900D01*
X132425900Y-36922900D02*
X134965900Y-36922900D01*
X127745900Y-54937900D02*
X128572169Y-54111631D01*
X132425900Y-34382900D02*
X134965900Y-34382900D01*
X118022200Y-75456600D02*
X117185900Y-76292900D01*
X118022200Y-70172800D02*
X118022200Y-75456600D01*
X121873500Y-38285700D02*
X121873500Y-57607100D01*
X120830300Y-67364700D02*
X118022200Y-70172800D01*
X120830300Y-58650300D02*
X120830300Y-67364700D01*
X121873500Y-57607100D02*
X120830300Y-58650300D01*
X91785900Y-65683986D02*
X88145900Y-62043986D01*
X112105900Y-46616200D02*
X113520800Y-45201300D01*
X107025900Y-51527900D02*
X111470900Y-51527900D01*
X112105900Y-47717900D02*
X112105900Y-46616200D01*
X91785900Y-52162900D02*
X98770900Y-52162900D01*
X112105900Y-50892900D02*
X112105900Y-47717900D01*
X90515900Y-56706886D02*
X90515900Y-53432900D01*
X88145900Y-62043986D02*
X88145900Y-59076886D01*
X88145900Y-59076886D02*
X90515900Y-56706886D01*
X113520800Y-35508000D02*
X117185900Y-31842900D01*
X113520800Y-45201300D02*
X113520800Y-35508000D01*
X111470900Y-51527900D02*
X112105900Y-50892900D01*
X90515900Y-53432900D02*
X91785900Y-52162900D01*
X117185900Y-29302900D02*
X117185900Y-31842900D01*
X91785900Y-76292900D02*
X91785900Y-65683986D01*
X82727600Y-58849500D02*
X81625900Y-59951200D01*
X107025900Y-82642900D02*
X107025900Y-80102900D01*
X81625900Y-67473800D02*
X86000000Y-71847900D01*
X86000000Y-71847900D02*
X86070900Y-71847900D01*
X89245900Y-47717900D02*
X82727600Y-54236200D01*
X82727600Y-54236200D02*
X82727600Y-58849500D01*
X81625900Y-61052900D02*
X81625900Y-67473800D01*
X81625900Y-59951200D02*
X81625900Y-61052900D01*
X120391700Y-40212900D02*
X121255000Y-39349600D01*
X121255000Y-35393800D02*
X124805900Y-31842900D01*
X110964600Y-56736600D02*
X109565900Y-55337900D01*
X113289000Y-62322900D02*
X111599600Y-62322900D01*
X111599600Y-62322900D02*
X110964600Y-61687900D01*
X120391700Y-48288200D02*
X120391700Y-40212900D01*
X121255000Y-39349600D02*
X121255000Y-35393800D01*
X112105900Y-76292900D02*
X115194000Y-73204800D01*
X110964600Y-61687900D02*
X110964600Y-56736600D01*
X115194000Y-64227900D02*
X113289000Y-62322900D01*
X124805900Y-29302900D02*
X124805900Y-31842900D01*
X115194000Y-73204800D02*
X115194000Y-64227900D01*
X109565900Y-82642900D02*
X109565900Y-80102900D01*
X84165900Y-61006000D02*
X84165900Y-59951200D01*
X84165900Y-62154600D02*
X90515900Y-68504600D01*
X96468100Y-78055300D02*
X98135900Y-79723100D01*
X84165900Y-59951200D02*
X86705900Y-57411200D01*
X107025900Y-83797900D02*
X108410900Y-83797900D01*
X98868800Y-83797900D02*
X107025900Y-83797900D01*
X84165900Y-61052900D02*
X84165900Y-62154600D01*
X84165900Y-61006000D02*
X84165900Y-61052900D01*
X90515900Y-68504600D02*
X90515900Y-76622800D01*
X90515900Y-76622800D02*
X91948400Y-78055300D01*
X91948400Y-78055300D02*
X96468100Y-78055300D01*
X98135900Y-83065000D02*
X98868800Y-83797900D01*
X108410900Y-83797900D02*
X109565900Y-82642900D01*
X86705900Y-57411200D02*
X86705900Y-55337900D01*
X86705900Y-52312800D02*
X88978800Y-50039900D01*
X98135900Y-79723100D02*
X98135900Y-83065000D01*
X86705900Y-55337900D02*
X86705900Y-52312800D01*
X71052600Y-53019600D02*
X70195900Y-52162900D01*
X87975900Y-48006900D02*
X87975900Y-47370300D01*
X87975900Y-47370300D02*
X88761100Y-46585100D01*
X81625900Y-50041300D02*
X85941500Y-50041300D01*
X73396100Y-72153700D02*
X73370900Y-73117900D01*
X71052600Y-69810200D02*
X71052600Y-53019600D01*
X70195900Y-52162900D02*
X67655900Y-52162900D01*
X85941500Y-50041300D02*
X87975900Y-48006900D01*
X90653100Y-46585100D02*
X91785900Y-47717900D01*
X81062000Y-52000500D02*
X81062000Y-50605200D01*
X73370900Y-73117900D02*
X73396100Y-73092700D01*
X81062000Y-50605200D02*
X81625900Y-50041300D01*
X104485900Y-82642900D02*
X104485900Y-80102900D01*
X73396100Y-72153700D02*
X71052600Y-69810200D01*
X73396100Y-73092700D02*
X73396100Y-72153700D01*
X79720900Y-71847900D02*
X80990900Y-73117900D01*
X79115650Y-71242650D02*
X79720900Y-71847900D01*
X88761100Y-46585100D02*
X90653100Y-46585100D01*
X79085900Y-71212900D02*
X79720900Y-71847900D01*
X79085900Y-61052900D02*
X79085900Y-71212900D01*
X53715900Y-71242900D02*
X54320900Y-71847900D01*
X69469100Y-70962900D02*
X70458600Y-71952400D01*
X52415900Y-54702900D02*
X53715900Y-56002900D01*
X117185900Y-80102900D02*
X117185900Y-82642900D01*
X91785900Y-59951200D02*
X94325900Y-57411200D01*
X66635900Y-70962900D02*
X69469100Y-70962900D01*
X65750900Y-71847900D02*
X66635900Y-70962900D01*
X93779400Y-66457900D02*
X91785900Y-64464400D01*
X91785900Y-61052900D02*
X91785900Y-59951200D01*
X54320900Y-71847900D02*
X65750900Y-71847900D01*
X91785900Y-64464400D02*
X91785900Y-61052900D01*
X94325900Y-57411200D02*
X94325900Y-55337900D01*
X53715900Y-56002900D02*
X53715900Y-71242900D01*
X93779400Y-71932600D02*
X93779400Y-66457900D01*
X89245900Y-82642900D02*
X89245900Y-80102900D01*
X80265800Y-73208300D02*
X80265800Y-77472800D01*
X77939100Y-70881600D02*
X80265800Y-73208300D01*
X79085900Y-48819600D02*
X77939100Y-49966400D01*
X80990900Y-78197900D02*
X85837014Y-78197900D01*
X87742014Y-80102900D02*
X89245900Y-80102900D01*
X80265800Y-77472800D02*
X80990900Y-78197900D01*
X85837014Y-78197900D02*
X87742014Y-80102900D01*
X77939100Y-49966400D02*
X77939100Y-70881600D01*
X79085900Y-47717900D02*
X79085900Y-48819600D01*
X79085900Y-43907900D02*
X79085900Y-47717900D01*
X100551900Y-55859286D02*
X100551900Y-49965600D01*
X100551900Y-49965600D02*
X99405900Y-48819600D01*
X100794200Y-66767900D02*
X100794200Y-77799500D01*
X101945900Y-78951200D02*
X101945900Y-80102900D01*
X97724900Y-58686286D02*
X100551900Y-55859286D01*
X97724900Y-59948800D02*
X97724900Y-58686286D01*
X97967600Y-63941300D02*
X100794200Y-66767900D01*
X97967600Y-60191500D02*
X97967600Y-63941300D01*
X100794200Y-77799500D02*
X101945900Y-78951200D01*
X99405900Y-48819600D02*
X99405900Y-47717900D01*
X97724900Y-59948800D02*
X97967600Y-60191500D01*
X125845900Y-36922900D02*
X126075900Y-36692900D01*
X89245900Y-71847900D02*
X89245900Y-76292900D01*
X126710900Y-63368800D02*
X126710900Y-71212900D01*
X127345900Y-53432900D02*
X126075900Y-52162900D01*
X126075900Y-36692900D02*
X126075900Y-34382900D01*
X127345900Y-59558800D02*
X127121800Y-59782900D01*
X127121800Y-62957900D02*
X126710900Y-63368800D01*
X127345900Y-53432900D02*
X127345900Y-59558800D01*
X125845900Y-39462900D02*
X125845900Y-36922900D01*
X126075900Y-39692900D02*
X125845900Y-39462900D01*
X127121800Y-59782900D02*
X127121800Y-62957900D01*
X101945900Y-29302900D02*
X101945900Y-31842900D01*
X126075900Y-52162900D02*
X126075900Y-39692900D01*
X94325900Y-64862900D02*
X98135900Y-68672900D01*
X101458100Y-81254600D02*
X102717600Y-81254600D01*
X98135900Y-76694600D02*
X100735900Y-79294600D01*
X94325900Y-61052900D02*
X94325900Y-64862900D01*
X96865900Y-55337900D02*
X96865900Y-57411200D01*
X119725900Y-80102900D02*
X119725900Y-82642900D01*
X100735900Y-79294600D02*
X100735900Y-80532400D01*
X98135900Y-68672900D02*
X98135900Y-76694600D01*
X94325900Y-61052900D02*
X94325900Y-59951200D01*
X96865900Y-57411200D02*
X94325900Y-59951200D01*
X100735900Y-80532400D02*
X101458100Y-81254600D01*
X94385200Y-76233600D02*
X94385200Y-66192200D01*
X93173600Y-64980600D02*
X93173600Y-59492000D01*
X119725900Y-29302900D02*
X119725900Y-31842900D01*
X116655800Y-34913000D02*
X119725900Y-31842900D01*
X95595900Y-57069700D02*
X95595900Y-55040100D01*
X97091100Y-53544900D02*
X99259700Y-53544900D01*
X94325900Y-76292900D02*
X94385200Y-76233600D01*
X93173600Y-59492000D02*
X95595900Y-57069700D01*
X95595900Y-55040100D02*
X97091100Y-53544900D01*
X94385200Y-66192200D02*
X93173600Y-64980600D01*
X116655800Y-46697000D02*
X116655800Y-34913000D01*
X87975900Y-76621600D02*
X89903800Y-78549500D01*
X83061500Y-60487500D02*
X83061500Y-63362000D01*
X84165900Y-55337900D02*
X84165900Y-59383100D01*
X89903800Y-78549500D02*
X95312500Y-78549500D01*
X84165900Y-59383100D02*
X83061500Y-60487500D01*
X83061500Y-63362000D02*
X87975900Y-68276400D01*
X87975900Y-68276400D02*
X87975900Y-76621600D01*
X95312500Y-78549500D02*
X96865900Y-80102900D01*
X96865900Y-82642900D02*
X96865900Y-80102900D01*
X108277000Y-61687900D02*
X107025900Y-62939000D01*
X107103200Y-71212900D02*
X107103200Y-63035200D01*
X107103200Y-63035200D02*
X107025900Y-62957900D01*
X127345900Y-31842900D02*
X125061600Y-34127200D01*
X108277000Y-56589000D02*
X107025900Y-55337900D01*
X109565900Y-73675600D02*
X107103200Y-71212900D01*
X108277000Y-61687900D02*
X108277000Y-56589000D01*
X125061600Y-45886100D02*
X125352400Y-46176900D01*
X127345900Y-29302900D02*
X127345900Y-31842900D01*
X125061600Y-34127200D02*
X125061600Y-45886100D01*
X107025900Y-62939000D02*
X107025900Y-62957900D01*
X107025900Y-62957900D02*
X107007000Y-62957900D01*
X109565900Y-76292900D02*
X109565900Y-73675600D01*
X110977500Y-77704500D02*
X110977500Y-75865665D01*
X96865900Y-45009600D02*
X95540000Y-46335500D01*
X96865900Y-43907900D02*
X96865900Y-45009600D01*
X114645900Y-66767900D02*
X114645900Y-64862900D01*
X114645900Y-82642900D02*
X114645900Y-80102900D01*
X114645900Y-64862900D02*
X112740900Y-62957900D01*
X112740900Y-78197900D02*
X111470900Y-78197900D01*
X110977500Y-75865665D02*
X114645900Y-72197265D01*
X89245900Y-60785900D02*
X89245900Y-59951200D01*
X89245900Y-60785900D02*
X89245900Y-61052900D01*
X89245900Y-58979600D02*
X91785900Y-56439600D01*
X91785900Y-55337900D02*
X91785900Y-56439600D01*
X109565900Y-62957900D02*
X108930900Y-62322900D01*
X112740900Y-62957900D02*
X109565900Y-62957900D01*
X95540000Y-46335500D02*
X95540000Y-49738700D01*
X111470900Y-78197900D02*
X110977500Y-77704500D01*
X114645900Y-80102900D02*
X112740900Y-78197900D01*
X89245900Y-59951200D02*
X89245900Y-58979600D01*
X114645900Y-72197265D02*
X114645900Y-66767900D01*
X74758700Y-71310700D02*
X73370900Y-69922900D01*
X71860100Y-53673700D02*
X73370900Y-52162900D01*
X75860900Y-82592900D02*
X74758700Y-81490700D01*
X104485900Y-29302900D02*
X104485900Y-31842900D01*
X72266100Y-40567700D02*
X72266100Y-51058100D01*
X73370900Y-69922900D02*
X71860100Y-68412100D01*
X74758700Y-81490700D02*
X74758700Y-71310700D01*
X73370900Y-39462900D02*
X72266100Y-40567700D01*
X72266100Y-51058100D02*
X73370900Y-52162900D01*
X71860100Y-68412100D02*
X71860100Y-53673700D01*
X79075900Y-82592900D02*
X75860900Y-82592900D01*
X89245900Y-53432900D02*
X89245900Y-55337900D01*
X106103200Y-73606700D02*
X108154400Y-75657900D01*
X86705900Y-61169671D02*
X91150900Y-65614671D01*
X86705900Y-61052900D02*
X86705900Y-61169671D01*
X108154400Y-76470200D02*
X111787100Y-80102900D01*
X89245900Y-57411200D02*
X89245900Y-55337900D01*
X99405900Y-43907900D02*
X99405900Y-45606400D01*
X112105900Y-80102900D02*
X112105900Y-81491200D01*
X98135900Y-50892900D02*
X97386157Y-51642643D01*
X86705900Y-61052900D02*
X86705900Y-59951200D01*
X86705900Y-59951200D02*
X89245900Y-57411200D01*
X108154400Y-75657900D02*
X108154400Y-76470200D01*
X91036157Y-51642643D02*
X89245900Y-53432900D01*
X91150900Y-65614671D02*
X91150900Y-67402900D01*
X97386157Y-51642643D02*
X91036157Y-51642643D01*
X99405900Y-45606400D02*
X98135900Y-46876400D01*
X106103200Y-69558200D02*
X106103200Y-73606700D01*
X112105900Y-82642900D02*
X112105900Y-81491200D01*
X111787100Y-80102900D02*
X112105900Y-80102900D01*
X98135900Y-46876400D02*
X98135900Y-50892900D01*
X104485900Y-55337900D02*
X104485900Y-56607900D01*
X103850900Y-57242900D02*
X101637600Y-57242900D01*
X101945900Y-66132900D02*
X101945900Y-67402900D01*
X104485900Y-56607900D02*
X103850900Y-57242900D01*
X127345900Y-80102900D02*
X125440900Y-78197900D01*
X121764600Y-69507100D02*
X123100100Y-69507100D01*
X100842600Y-59949600D02*
X101945900Y-61052900D01*
X124170900Y-78197900D02*
X123535900Y-77562900D01*
X100842600Y-58037900D02*
X100842600Y-59949600D01*
X101637600Y-57242900D02*
X100842600Y-58037900D01*
X101945900Y-66132900D02*
X101945900Y-61052900D01*
X123100100Y-69507100D02*
X123535900Y-69942900D01*
X125440900Y-78197900D02*
X124170900Y-78197900D01*
X127345900Y-82642900D02*
X127345900Y-80102900D01*
X123535900Y-77562900D02*
X123535900Y-69942900D01*
X105501400Y-67177400D02*
X106703200Y-68379200D01*
X106703200Y-72795200D02*
X107025900Y-73117900D01*
X106703200Y-68379200D02*
X106703200Y-71525200D01*
X124805900Y-82642900D02*
X124805900Y-80102900D01*
X101945900Y-55337900D02*
X99405900Y-57877900D01*
X106703200Y-71525200D02*
X106703200Y-72795200D01*
X99405900Y-57877900D02*
X99405900Y-61052900D01*
X105501400Y-64030500D02*
X105501400Y-67177400D01*
X69020571Y-71362900D02*
X70775571Y-73117900D01*
X115994000Y-82941000D02*
X115994000Y-57321000D01*
X109043700Y-77927600D02*
X110835900Y-79719800D01*
X65900900Y-72482900D02*
X67020900Y-71362900D01*
X110835900Y-79719800D02*
X110835900Y-83029100D01*
X119134100Y-50003900D02*
X119769100Y-49368900D01*
X119769100Y-40195000D02*
X120853300Y-39110800D01*
X104485900Y-76292900D02*
X103850900Y-75657900D01*
X119769100Y-49368900D02*
X119769100Y-40195000D01*
X110835900Y-83029100D02*
X111603700Y-83796900D01*
X103850900Y-75657900D02*
X103850900Y-70577900D01*
X70775571Y-73117900D02*
X70830900Y-73117900D01*
X115994000Y-57321000D02*
X115280900Y-56607900D01*
X116804900Y-50003900D02*
X119134100Y-50003900D01*
X115138100Y-83796900D02*
X115994000Y-82941000D01*
X106120600Y-77927600D02*
X109043700Y-77927600D01*
X67020900Y-71362900D02*
X69020571Y-71362900D01*
X111603700Y-83796900D02*
X115138100Y-83796900D01*
X115280900Y-56607900D02*
X113375900Y-56607900D01*
X113375900Y-56607900D02*
X112105900Y-55337900D01*
X104485900Y-76292900D02*
X106120600Y-77927600D01*
X122265900Y-29302900D02*
X122265900Y-31842900D01*
X52415900Y-72482900D02*
X65900900Y-72482900D01*
X120853300Y-39110800D02*
X120853300Y-33255500D01*
X120853300Y-33255500D02*
X122265900Y-31842900D01*
X69947700Y-70557500D02*
X69947700Y-55089700D01*
X83371800Y-52322000D02*
X82895900Y-52797900D01*
X99405900Y-82642900D02*
X99405900Y-80102900D01*
X82895900Y-52797900D02*
X81216900Y-52797900D01*
X73115900Y-75571500D02*
X73115900Y-73725700D01*
X69947700Y-55089700D02*
X69560900Y-54702900D01*
X73115900Y-73725700D02*
X69947700Y-70557500D01*
X81216900Y-52797900D02*
X81193800Y-52821000D01*
X83371800Y-50643000D02*
X83371800Y-52322000D01*
X69560900Y-54702900D02*
X67655900Y-54702900D01*
X90626800Y-59079500D02*
X90626800Y-63959200D01*
X110667600Y-35821200D02*
X110667600Y-45514500D01*
X90626800Y-63959200D02*
X92977600Y-66310000D01*
X93145600Y-56560700D02*
X90626800Y-59079500D01*
X93896200Y-77429300D02*
X95729500Y-77429300D01*
X95729500Y-77429300D02*
X96865900Y-76292900D01*
X92977600Y-66310000D02*
X92977600Y-76510700D01*
X114645900Y-31842900D02*
X110667600Y-35821200D01*
X110667600Y-45514500D02*
X109565900Y-46616200D01*
X92977600Y-76510700D02*
X93896200Y-77429300D01*
X109565900Y-46616200D02*
X109565900Y-47717900D01*
X114645900Y-29302900D02*
X114645900Y-31842900D01*
X97994400Y-45487700D02*
X97994400Y-42571200D01*
X96865900Y-47717900D02*
X96865900Y-46616200D01*
X93985900Y-40077900D02*
X90397600Y-36489600D01*
X95501100Y-40077900D02*
X93985900Y-40077900D01*
X123960850Y-46872850D02*
X123960850Y-60207850D01*
X90397600Y-32994600D02*
X89245900Y-31842900D01*
X97994400Y-42571200D02*
X95501100Y-40077900D01*
X96865900Y-46616200D02*
X97994400Y-45487700D01*
X124109700Y-46724000D02*
X123960850Y-46872850D01*
X90397600Y-36489600D02*
X90397600Y-32994600D01*
X89245900Y-29302900D02*
X89245900Y-31842900D01*
X123960850Y-60207850D02*
X124805900Y-61052900D01*
X67203402Y-48352900D02*
X70037600Y-48352900D01*
X70037600Y-48352900D02*
X70365500Y-48680800D01*
X67655900Y-62322900D02*
X66351300Y-61018300D01*
X66351300Y-61018300D02*
X66351300Y-49205002D01*
X66351300Y-49205002D02*
X67203402Y-48352900D01*
X126352500Y-57242900D02*
X126352500Y-56194600D01*
X124805900Y-76292900D02*
X124805900Y-63592900D01*
X96865900Y-31842900D02*
X96865900Y-29302900D01*
X125070500Y-54912600D02*
X125070500Y-47628200D01*
X126352500Y-56194600D02*
X125070500Y-54912600D01*
X126321800Y-57273600D02*
X126352500Y-57242900D01*
X124805900Y-63592900D02*
X126321800Y-62077000D01*
X100675900Y-40097900D02*
X104485900Y-43907900D01*
X126321800Y-62077000D02*
X126321800Y-57273600D01*
X100675900Y-35652900D02*
X100675900Y-40097900D01*
X96865900Y-31842900D02*
X100675900Y-35652900D01*
X132938800Y-40827900D02*
X131659000Y-40827900D01*
X133661200Y-47943300D02*
X133661200Y-41550300D01*
X133661200Y-41550300D02*
X132938800Y-40827900D01*
X120995900Y-83065000D02*
X120995900Y-79472900D01*
X132425900Y-72482900D02*
X134965900Y-72482900D01*
X118605800Y-70430500D02*
X123474700Y-65561600D01*
X136123300Y-83144200D02*
X135426300Y-83841200D01*
X123474700Y-65561600D02*
X123474700Y-39941200D01*
X121772100Y-83841200D02*
X120995900Y-83065000D01*
X136123300Y-75022900D02*
X136123300Y-73640300D01*
X136123300Y-73640300D02*
X134965900Y-72482900D01*
X136123300Y-75022900D02*
X136123300Y-83144200D01*
X120995900Y-79472900D02*
X118605800Y-77082800D01*
X135426300Y-83841200D02*
X121772100Y-83841200D01*
X118605800Y-77082800D02*
X118605800Y-70430500D01*
X123474700Y-39941200D02*
X123642000Y-39773900D01*
X134965900Y-72482900D02*
X134965900Y-73058700D01*
X122394400Y-36642200D02*
X122487200Y-36735000D01*
X122487200Y-36735000D02*
X122487200Y-58131600D01*
X130326300Y-59009800D02*
X129351000Y-58034500D01*
X132425900Y-62322900D02*
X134965900Y-62322900D01*
X130326300Y-62675300D02*
X130326300Y-59009800D01*
X122487200Y-58131600D02*
X122423100Y-58195700D01*
X102015214Y-42002900D02*
X101310900Y-42002900D01*
X103215900Y-55623535D02*
X103215900Y-43203586D01*
X100675900Y-61678535D02*
X100675900Y-60348586D01*
X101706914Y-56607900D02*
X102231535Y-56607900D01*
X101310900Y-62313535D02*
X100675900Y-61678535D01*
X102231535Y-56607900D02*
X103215900Y-55623535D01*
X100675900Y-60348586D02*
X100442600Y-60115286D01*
X101310900Y-65497900D02*
X101310900Y-62313535D01*
X104485900Y-40732900D02*
X103850900Y-41367900D01*
X100442600Y-57872214D02*
X101706914Y-56607900D01*
X104485900Y-36287900D02*
X104485900Y-40732900D01*
X103215900Y-43203586D02*
X102015214Y-42002900D01*
X100442600Y-60115286D02*
X100442600Y-57872214D01*
X125277400Y-75206300D02*
X125277400Y-63756400D01*
X127532300Y-77092500D02*
X127532300Y-77657000D01*
X126086800Y-62957900D02*
X126721800Y-62322900D01*
X125957700Y-75886600D02*
X125277400Y-75206300D01*
X125277400Y-63756400D02*
X126075900Y-62957900D01*
X126721800Y-62322900D02*
X126721800Y-57877900D01*
X126721800Y-57877900D02*
X126756500Y-57843200D01*
X125957700Y-77503300D02*
X125957700Y-75886600D01*
X124461600Y-46137300D02*
X124461600Y-39248800D01*
X125672200Y-47347900D02*
X124461600Y-46137300D01*
X127532300Y-77657000D02*
X127080900Y-78108400D01*
X127080900Y-78108400D02*
X126562800Y-78108400D01*
X126075900Y-62957900D02*
X126086800Y-62957900D01*
X125672200Y-53317200D02*
X125672200Y-47347900D01*
X126562800Y-78108400D02*
X125957700Y-77503300D01*
X126756500Y-57843200D02*
X126756500Y-54401500D01*
X126756500Y-54401500D02*
X125672200Y-53317200D01*
X85549300Y-61809800D02*
X85549300Y-59693400D01*
X92923100Y-46091600D02*
X95025700Y-43989000D01*
X126790700Y-77485000D02*
X126790700Y-72686100D01*
X109565900Y-37389600D02*
X108785900Y-38169600D01*
X109565900Y-36287900D02*
X109565900Y-37389600D01*
X108785900Y-38169600D02*
X108785900Y-39588700D01*
X125911400Y-71806800D02*
X125911400Y-70590100D01*
X88056700Y-57186000D02*
X88056700Y-53650900D01*
X95878300Y-42463200D02*
X95878300Y-41306000D01*
X95025700Y-43989000D02*
X95025700Y-43315800D01*
X92923100Y-48784500D02*
X92923100Y-46091600D01*
X88056700Y-53650900D02*
X92923100Y-48784500D01*
X85549300Y-59693400D02*
X88056700Y-57186000D01*
X90157500Y-66418000D02*
X85549300Y-61809800D01*
X126790700Y-72686100D02*
X125911400Y-71806800D01*
X95025700Y-43315800D02*
X95878300Y-42463200D01*
X112105900Y-43907900D02*
X112105900Y-45009600D01*
X114503082Y-62465718D02*
X113207600Y-61170235D01*
X111001500Y-46114000D02*
X111001500Y-48822300D01*
X115429700Y-74874100D02*
X115594000Y-74709800D01*
X111001500Y-48822300D02*
X110835900Y-48987900D01*
X111001500Y-55909800D02*
X111001500Y-53598500D01*
X113207600Y-61170235D02*
X113207600Y-58115900D01*
X115594000Y-63556636D02*
X114503082Y-62465718D01*
X112105900Y-45009600D02*
X111001500Y-46114000D01*
X113207600Y-58115900D02*
X111001500Y-55909800D01*
X111001500Y-53598500D02*
X110200900Y-52797900D01*
X115594000Y-74709800D02*
X115594000Y-63556636D01*
X115392300Y-74874100D02*
X115429700Y-74874100D01*
X130688100Y-41528500D02*
X130688100Y-49910100D01*
X107025900Y-37389600D02*
X107724900Y-38088600D01*
X107724900Y-38088600D02*
X107724900Y-40953600D01*
X107025900Y-36287900D02*
X107025900Y-37389600D01*
X136117600Y-51527900D02*
X136117600Y-62322900D01*
X136117600Y-66251200D02*
X134965900Y-67402900D01*
X130688100Y-49910100D02*
X131790900Y-51012900D01*
X131790900Y-51012900D02*
X135602600Y-51012900D01*
X136117600Y-62322900D02*
X136117600Y-66251200D01*
X135602600Y-51012900D02*
X136117600Y-51527900D01*
X132425900Y-67402900D02*
X134965900Y-67402900D01*
X94325900Y-31842900D02*
X94325900Y-29302900D01*
X117418800Y-69734200D02*
X117418800Y-74173400D01*
X121452000Y-54852900D02*
X118395500Y-57909400D01*
X100844200Y-45514500D02*
X101945900Y-46616200D01*
X118395500Y-57909400D02*
X118395500Y-68757500D01*
X118395500Y-68757500D02*
X117418800Y-69734200D01*
X101945900Y-46616200D02*
X101945900Y-47717900D01*
X98135900Y-40564600D02*
X100844200Y-43272900D01*
X94325900Y-31842900D02*
X98135900Y-35652900D01*
X100844200Y-43272900D02*
X100844200Y-45514500D01*
X121452000Y-47442500D02*
X121452000Y-54852900D01*
X121074700Y-47065200D02*
X121452000Y-47442500D01*
X98135900Y-35652900D02*
X98135900Y-40564600D01*
X123040200Y-35430800D02*
X123040200Y-60278600D01*
X88097600Y-28151200D02*
X90634200Y-28151200D01*
X92945000Y-28143800D02*
X125273146Y-28143800D01*
X91785900Y-29302900D02*
X92945000Y-28143800D01*
X125997200Y-28867854D02*
X125997200Y-32473800D01*
X125997200Y-32473800D02*
X123040200Y-35430800D01*
X91785900Y-31842900D02*
X91785900Y-29302900D01*
X86070900Y-45812900D02*
X85351750Y-45093750D01*
X90634200Y-28151200D02*
X91785900Y-29302900D01*
X85351750Y-43357050D02*
X86070900Y-42637900D01*
X87975900Y-28272900D02*
X88097600Y-28151200D01*
X123040200Y-60278600D02*
X122265900Y-61052900D01*
X125273146Y-28143800D02*
X125997200Y-28867854D01*
X86070900Y-42637900D02*
X87340900Y-42637900D01*
X87340900Y-42637900D02*
X87975900Y-42002900D01*
X87975900Y-42002900D02*
X87975900Y-28272900D01*
X85351750Y-45093750D02*
X85351750Y-43357050D01*
X83575900Y-82592900D02*
X81575900Y-82592900D01*
X81575900Y-82592900D02*
X80990900Y-82007900D01*
X72268900Y-55804900D02*
X73370900Y-54702900D01*
X75412500Y-77281400D02*
X75412500Y-69444500D01*
X75412500Y-69444500D02*
X74492600Y-68524600D01*
X72268900Y-67878900D02*
X72268900Y-55804900D01*
X80990900Y-82007900D02*
X80990900Y-79467900D01*
X80275900Y-78752900D02*
X76884000Y-78752900D01*
X76884000Y-78752900D02*
X75412500Y-77281400D01*
X72914600Y-68524600D02*
X72268900Y-67878900D01*
X74492600Y-68524600D02*
X72914600Y-68524600D01*
X80990900Y-79467900D02*
X80275900Y-78752900D01*
G04 #@! TA.AperFunction,Conductor*
G36*
X59703918Y-28040185D02*
G01*
X59749673Y-28092989D01*
X59759617Y-28162147D01*
X59730592Y-28225703D01*
X59671814Y-28263477D01*
X59668972Y-28264275D01*
X59633682Y-28273730D01*
X59633673Y-28273734D01*
X59427517Y-28369865D01*
X59241179Y-28500342D01*
X59080342Y-28661179D01*
X58949865Y-28847517D01*
X58853734Y-29053673D01*
X58853730Y-29053682D01*
X58801127Y-29249999D01*
X58801128Y-29250000D01*
X59764314Y-29250000D01*
X59759920Y-29254394D01*
X59707259Y-29345606D01*
X59680000Y-29447339D01*
X59680000Y-29552661D01*
X59707259Y-29654394D01*
X59759920Y-29745606D01*
X59764314Y-29750000D01*
X58801128Y-29750000D01*
X58853730Y-29946317D01*
X58853734Y-29946326D01*
X58949865Y-30152482D01*
X59080342Y-30338820D01*
X59241177Y-30499655D01*
X59243751Y-30501815D01*
X59244573Y-30503051D01*
X59245012Y-30503490D01*
X59244923Y-30503578D01*
X59282452Y-30559987D01*
X59283560Y-30629848D01*
X59246722Y-30689218D01*
X59216111Y-30709343D01*
X59122650Y-30752583D01*
X59036520Y-30804406D01*
X58815981Y-30937100D01*
X58770733Y-30971497D01*
X58531072Y-31153681D01*
X58531063Y-31153689D01*
X58271231Y-31399814D01*
X58039541Y-31672580D01*
X58039534Y-31672590D01*
X57838690Y-31968813D01*
X57838684Y-31968822D01*
X57671051Y-32285011D01*
X57671042Y-32285029D01*
X57538574Y-32617500D01*
X57538572Y-32617507D01*
X57442832Y-32962334D01*
X57442826Y-32962360D01*
X57384929Y-33315514D01*
X57384928Y-33315527D01*
X57384928Y-33315529D01*
X57380761Y-33392377D01*
X57365552Y-33672897D01*
X57365552Y-33672902D01*
X57384928Y-34030268D01*
X57384929Y-34030285D01*
X57442826Y-34383439D01*
X57442832Y-34383465D01*
X57538572Y-34728292D01*
X57538574Y-34728299D01*
X57671042Y-35060770D01*
X57671051Y-35060788D01*
X57838684Y-35376977D01*
X57838687Y-35376982D01*
X57838689Y-35376985D01*
X58024120Y-35650476D01*
X58039534Y-35673209D01*
X58039541Y-35673219D01*
X58261931Y-35935036D01*
X58271232Y-35945986D01*
X58531063Y-36192111D01*
X58815981Y-36408700D01*
X59122647Y-36593215D01*
X59122649Y-36593216D01*
X59122651Y-36593217D01*
X59122655Y-36593219D01*
X59447452Y-36743485D01*
X59447465Y-36743491D01*
X59786626Y-36857768D01*
X60136154Y-36934705D01*
X60491952Y-36973400D01*
X60491958Y-36973400D01*
X60849842Y-36973400D01*
X60849848Y-36973400D01*
X61205646Y-36934705D01*
X61555174Y-36857768D01*
X61894335Y-36743491D01*
X62219153Y-36593215D01*
X62525819Y-36408700D01*
X62810737Y-36192111D01*
X63070568Y-35945986D01*
X63302265Y-35673211D01*
X63503111Y-35376985D01*
X63670753Y-35060780D01*
X63803224Y-34728303D01*
X63898971Y-34383452D01*
X63934795Y-34164935D01*
X63956870Y-34030285D01*
X63956870Y-34030282D01*
X63956872Y-34030271D01*
X63976248Y-33672900D01*
X63956872Y-33315529D01*
X63954399Y-33300447D01*
X63898973Y-32962360D01*
X63898972Y-32962359D01*
X63898971Y-32962348D01*
X63837451Y-32740772D01*
X63803227Y-32617507D01*
X63803225Y-32617500D01*
X63670757Y-32285029D01*
X63670748Y-32285011D01*
X63503115Y-31968822D01*
X63503113Y-31968819D01*
X63503111Y-31968815D01*
X63302265Y-31672589D01*
X63302261Y-31672584D01*
X63302258Y-31672580D01*
X63070568Y-31399814D01*
X63050410Y-31380719D01*
X62810737Y-31153689D01*
X62810730Y-31153683D01*
X62810727Y-31153681D01*
X62571067Y-30971497D01*
X62546164Y-30952566D01*
X62504707Y-30896325D01*
X62500238Y-30826599D01*
X62534175Y-30765525D01*
X62589115Y-30734076D01*
X62616483Y-30726743D01*
X62616488Y-30726740D01*
X62616496Y-30726739D01*
X62822734Y-30630568D01*
X63009139Y-30500047D01*
X63170047Y-30339139D01*
X63258197Y-30213245D01*
X63312773Y-30169621D01*
X63382271Y-30162427D01*
X63444626Y-30193949D01*
X63447453Y-30196688D01*
X65663181Y-32412416D01*
X65696666Y-32473739D01*
X65699500Y-32500097D01*
X65699500Y-34317587D01*
X65679815Y-34384626D01*
X65672450Y-34394896D01*
X65670186Y-34397734D01*
X65574211Y-34550476D01*
X65514631Y-34720745D01*
X65514630Y-34720750D01*
X65494435Y-34899996D01*
X65494435Y-34900003D01*
X65514630Y-35079249D01*
X65514631Y-35079254D01*
X65574211Y-35249523D01*
X65638441Y-35351743D01*
X65670184Y-35402262D01*
X65797738Y-35529816D01*
X65950478Y-35625789D01*
X66059273Y-35663858D01*
X66120745Y-35685368D01*
X66120750Y-35685369D01*
X66299996Y-35705565D01*
X66300000Y-35705565D01*
X66300004Y-35705565D01*
X66479249Y-35685369D01*
X66479252Y-35685368D01*
X66479255Y-35685368D01*
X66649522Y-35625789D01*
X66802262Y-35529816D01*
X66929816Y-35402262D01*
X67025789Y-35249522D01*
X67085368Y-35079255D01*
X67086319Y-35070816D01*
X67105565Y-34900003D01*
X67105565Y-34899996D01*
X67085369Y-34720750D01*
X67085368Y-34720745D01*
X67029875Y-34562155D01*
X67025789Y-34550478D01*
X66929816Y-34397738D01*
X66929814Y-34397736D01*
X66929813Y-34397734D01*
X66927550Y-34394896D01*
X66926659Y-34392715D01*
X66926111Y-34391842D01*
X66926264Y-34391745D01*
X66901144Y-34330209D01*
X66900500Y-34317587D01*
X66900500Y-32289060D01*
X66900501Y-32289047D01*
X66900501Y-32120944D01*
X66889078Y-32078313D01*
X66859577Y-31968216D01*
X66817630Y-31895561D01*
X66780524Y-31831290D01*
X66780518Y-31831282D01*
X64087590Y-29138355D01*
X64087588Y-29138352D01*
X63968717Y-29019481D01*
X63968716Y-29019480D01*
X63881904Y-28969360D01*
X63881904Y-28969359D01*
X63881900Y-28969358D01*
X63831785Y-28940423D01*
X63679057Y-28899499D01*
X63520943Y-28899499D01*
X63513347Y-28899499D01*
X63513331Y-28899500D01*
X63401692Y-28899500D01*
X63334653Y-28879815D01*
X63300119Y-28846625D01*
X63170047Y-28660861D01*
X63170045Y-28660858D01*
X63009141Y-28499954D01*
X62822734Y-28369432D01*
X62822732Y-28369431D01*
X62616497Y-28273261D01*
X62616488Y-28273258D01*
X62582961Y-28264275D01*
X62523300Y-28227910D01*
X62492771Y-28165063D01*
X62501066Y-28095688D01*
X62545551Y-28041810D01*
X62612103Y-28020535D01*
X62615054Y-28020500D01*
X71886879Y-28020500D01*
X71953918Y-28040185D01*
X71999673Y-28092989D01*
X72009617Y-28162147D01*
X71980592Y-28225703D01*
X71921814Y-28263477D01*
X71918972Y-28264275D01*
X71883682Y-28273730D01*
X71883673Y-28273734D01*
X71677517Y-28369865D01*
X71491179Y-28500342D01*
X71330342Y-28661179D01*
X71199865Y-28847517D01*
X71103734Y-29053673D01*
X71103730Y-29053682D01*
X71051127Y-29249999D01*
X71051128Y-29250000D01*
X72014314Y-29250000D01*
X72009920Y-29254394D01*
X71957259Y-29345606D01*
X71930000Y-29447339D01*
X71930000Y-29552661D01*
X71957259Y-29654394D01*
X72009920Y-29745606D01*
X72014314Y-29750000D01*
X71051128Y-29750000D01*
X71103730Y-29946317D01*
X71103734Y-29946326D01*
X71199865Y-30152482D01*
X71330342Y-30338820D01*
X71491179Y-30499657D01*
X71677516Y-30630133D01*
X71698803Y-30640059D01*
X71751243Y-30686231D01*
X71770400Y-30752442D01*
X71770400Y-32990770D01*
X71770401Y-32990776D01*
X71776808Y-33050383D01*
X71827102Y-33185228D01*
X71827106Y-33185235D01*
X71913352Y-33300444D01*
X71913355Y-33300447D01*
X72028564Y-33386693D01*
X72028571Y-33386697D01*
X72073518Y-33403461D01*
X72163417Y-33436991D01*
X72223027Y-33443400D01*
X72521400Y-33443399D01*
X72588439Y-33463083D01*
X72634194Y-33515887D01*
X72645400Y-33567399D01*
X72645400Y-35724355D01*
X72645400Y-35724357D01*
X72645399Y-35724357D01*
X72665503Y-35825418D01*
X72665503Y-35825419D01*
X72673279Y-35864513D01*
X72673280Y-35864517D01*
X72673281Y-35864520D01*
X72727971Y-35996553D01*
X72764684Y-36051499D01*
X72807369Y-36115382D01*
X73543418Y-36851431D01*
X73650375Y-36922897D01*
X73653392Y-36924912D01*
X73662247Y-36930829D01*
X73794280Y-36985519D01*
X73794284Y-36985519D01*
X73794285Y-36985520D01*
X73934442Y-37013400D01*
X73934445Y-37013400D01*
X75401732Y-37013400D01*
X75468771Y-37033085D01*
X75503307Y-37066277D01*
X75545854Y-37127041D01*
X75706757Y-37287944D01*
X75706760Y-37287946D01*
X75706761Y-37287947D01*
X75767523Y-37330492D01*
X75811148Y-37385067D01*
X75820400Y-37432067D01*
X75820400Y-41016026D01*
X75800715Y-41083065D01*
X75784081Y-41103707D01*
X75646707Y-41241081D01*
X75585384Y-41274566D01*
X75559026Y-41277400D01*
X74515068Y-41277400D01*
X74448029Y-41257715D01*
X74413493Y-41224523D01*
X74370948Y-41163762D01*
X74303670Y-41096484D01*
X74211471Y-41004285D01*
X74177988Y-40942964D01*
X74182972Y-40873273D01*
X74224843Y-40817339D01*
X74234348Y-40810889D01*
X74314559Y-40761736D01*
X74506124Y-40598124D01*
X74669736Y-40406559D01*
X74801366Y-40191759D01*
X74897773Y-39959011D01*
X74956583Y-39714048D01*
X74976349Y-39462900D01*
X74956583Y-39211752D01*
X74897773Y-38966789D01*
X74847589Y-38845634D01*
X74801366Y-38734040D01*
X74669739Y-38519246D01*
X74669738Y-38519243D01*
X74615464Y-38455697D01*
X74506124Y-38327676D01*
X74348322Y-38192900D01*
X74314556Y-38164061D01*
X74314553Y-38164060D01*
X74099759Y-38032433D01*
X73867010Y-37936026D01*
X73622051Y-37877217D01*
X73370900Y-37857451D01*
X73119748Y-37877217D01*
X72874789Y-37936026D01*
X72642040Y-38032433D01*
X72427246Y-38164060D01*
X72427243Y-38164061D01*
X72235676Y-38327676D01*
X72072061Y-38519243D01*
X72072060Y-38519246D01*
X71940433Y-38734040D01*
X71844026Y-38966789D01*
X71785217Y-39211748D01*
X71765451Y-39462900D01*
X71785217Y-39714051D01*
X71844027Y-39959012D01*
X71844027Y-39959014D01*
X71865487Y-40010822D01*
X71872956Y-40080291D01*
X71841681Y-40142770D01*
X71838608Y-40145954D01*
X71785581Y-40198981D01*
X71758103Y-40246576D01*
X71742237Y-40274057D01*
X71706523Y-40335915D01*
X71665599Y-40488643D01*
X71665599Y-40488645D01*
X71665599Y-40656746D01*
X71665600Y-40656759D01*
X71665600Y-47896103D01*
X71645915Y-47963142D01*
X71593111Y-48008897D01*
X71523953Y-48018841D01*
X71460397Y-47989816D01*
X71453919Y-47983784D01*
X70191390Y-46721255D01*
X70191388Y-46721252D01*
X70072517Y-46602381D01*
X70072516Y-46602380D01*
X69974197Y-46545616D01*
X69935585Y-46523323D01*
X69782857Y-46482399D01*
X69624743Y-46482399D01*
X69617147Y-46482399D01*
X69617131Y-46482400D01*
X69071413Y-46482400D01*
X69004374Y-46462715D01*
X68971095Y-46431286D01*
X68967224Y-46425958D01*
X68866845Y-46287798D01*
X68731002Y-46151955D01*
X68575581Y-46039035D01*
X68520444Y-46010941D01*
X68404404Y-45951815D01*
X68339819Y-45930831D01*
X68282143Y-45891394D01*
X68254944Y-45827036D01*
X68266858Y-45758189D01*
X68314102Y-45706713D01*
X68339819Y-45694969D01*
X68404404Y-45673984D01*
X68404406Y-45673982D01*
X68404409Y-45673982D01*
X68575581Y-45586765D01*
X68731002Y-45473845D01*
X68866845Y-45338002D01*
X68979765Y-45182581D01*
X69066982Y-45011409D01*
X69126347Y-44828701D01*
X69156400Y-44638955D01*
X69156400Y-44446845D01*
X69126347Y-44257099D01*
X69076682Y-44104244D01*
X69066983Y-44074393D01*
X68979764Y-43903218D01*
X68968864Y-43888215D01*
X68866845Y-43747798D01*
X68731002Y-43611955D01*
X68575581Y-43499035D01*
X68502058Y-43461573D01*
X68404404Y-43411815D01*
X68339819Y-43390831D01*
X68282143Y-43351394D01*
X68254944Y-43287036D01*
X68266858Y-43218189D01*
X68314102Y-43166713D01*
X68339819Y-43154969D01*
X68404404Y-43133984D01*
X68404406Y-43133982D01*
X68404409Y-43133982D01*
X68575581Y-43046765D01*
X68731002Y-42933845D01*
X68866845Y-42798002D01*
X68979765Y-42642581D01*
X69066982Y-42471409D01*
X69126347Y-42288701D01*
X69156400Y-42098955D01*
X69156400Y-41906845D01*
X69126347Y-41717099D01*
X69073519Y-41554510D01*
X69066983Y-41534393D01*
X69026969Y-41455862D01*
X68979765Y-41363219D01*
X68866845Y-41207798D01*
X68731002Y-41071955D01*
X68575581Y-40959035D01*
X68525091Y-40933309D01*
X68404406Y-40871816D01*
X68221702Y-40812453D01*
X68120252Y-40796385D01*
X68031955Y-40782400D01*
X67279845Y-40782400D01*
X67216596Y-40792417D01*
X67090097Y-40812453D01*
X66907393Y-40871816D01*
X66736218Y-40959035D01*
X66669072Y-41007820D01*
X66580798Y-41071955D01*
X66580796Y-41071957D01*
X66580795Y-41071957D01*
X66444957Y-41207795D01*
X66444957Y-41207796D01*
X66444955Y-41207798D01*
X66404038Y-41264115D01*
X66332035Y-41363218D01*
X66244816Y-41534393D01*
X66185453Y-41717097D01*
X66185453Y-41717099D01*
X66155400Y-41906845D01*
X66155400Y-42098955D01*
X66158379Y-42117764D01*
X66185453Y-42288702D01*
X66244816Y-42471406D01*
X66317156Y-42613379D01*
X66332035Y-42642581D01*
X66444955Y-42798002D01*
X66580798Y-42933845D01*
X66736219Y-43046765D01*
X66878286Y-43119152D01*
X66907393Y-43133983D01*
X66971981Y-43154969D01*
X67029656Y-43194406D01*
X67056855Y-43258765D01*
X67044941Y-43327611D01*
X66997697Y-43379087D01*
X66971981Y-43390831D01*
X66907393Y-43411816D01*
X66736218Y-43499035D01*
X66647545Y-43563460D01*
X66580798Y-43611955D01*
X66580796Y-43611957D01*
X66580795Y-43611957D01*
X66444957Y-43747795D01*
X66444957Y-43747796D01*
X66444955Y-43747798D01*
X66396460Y-43814545D01*
X66332035Y-43903218D01*
X66244816Y-44074393D01*
X66185453Y-44257097D01*
X66169517Y-44357716D01*
X66155400Y-44446845D01*
X66155400Y-44638955D01*
X66162481Y-44683660D01*
X66185453Y-44828702D01*
X66244816Y-45011406D01*
X66303830Y-45127226D01*
X66332035Y-45182581D01*
X66444955Y-45338002D01*
X66580798Y-45473845D01*
X66736219Y-45586765D01*
X66859965Y-45649817D01*
X66907393Y-45673983D01*
X66971981Y-45694969D01*
X67029656Y-45734406D01*
X67056855Y-45798765D01*
X67044941Y-45867611D01*
X66997697Y-45919087D01*
X66971981Y-45930831D01*
X66907393Y-45951816D01*
X66736218Y-46039035D01*
X66647545Y-46103460D01*
X66580798Y-46151955D01*
X66580796Y-46151957D01*
X66580795Y-46151957D01*
X66444957Y-46287795D01*
X66444957Y-46287796D01*
X66444955Y-46287798D01*
X66397053Y-46353730D01*
X66332035Y-46443218D01*
X66244816Y-46614393D01*
X66185453Y-46797097D01*
X66155400Y-46986845D01*
X66155400Y-47178954D01*
X66185453Y-47368702D01*
X66244816Y-47551406D01*
X66312071Y-47683400D01*
X66332035Y-47722581D01*
X66444955Y-47878002D01*
X66444957Y-47878004D01*
X66549328Y-47982375D01*
X66582813Y-48043698D01*
X66577829Y-48113390D01*
X66549328Y-48157737D01*
X65982586Y-48724480D01*
X65870781Y-48836284D01*
X65870777Y-48836289D01*
X65833478Y-48900895D01*
X65791724Y-48973213D01*
X65791723Y-48973214D01*
X65768793Y-49058793D01*
X65750799Y-49125945D01*
X65750799Y-49125947D01*
X65750799Y-49294048D01*
X65750800Y-49294061D01*
X65750800Y-60931630D01*
X65750799Y-60931648D01*
X65750799Y-61097354D01*
X65750798Y-61097354D01*
X65759462Y-61129686D01*
X65791723Y-61250085D01*
X65808437Y-61279035D01*
X65808758Y-61279590D01*
X65808759Y-61279592D01*
X65870777Y-61387012D01*
X65870781Y-61387017D01*
X65989649Y-61505885D01*
X65989655Y-61505890D01*
X66213976Y-61730211D01*
X66247461Y-61791534D01*
X66244226Y-61856209D01*
X66185453Y-62037095D01*
X66155400Y-62226845D01*
X66155400Y-62418954D01*
X66185453Y-62608702D01*
X66244816Y-62791406D01*
X66328240Y-62955133D01*
X66332035Y-62962581D01*
X66444955Y-63118002D01*
X66580798Y-63253845D01*
X66736219Y-63366765D01*
X66883290Y-63441702D01*
X66907393Y-63453983D01*
X66971981Y-63474969D01*
X67029656Y-63514406D01*
X67056855Y-63578765D01*
X67044941Y-63647611D01*
X66997697Y-63699087D01*
X66971981Y-63710831D01*
X66907393Y-63731816D01*
X66736218Y-63819035D01*
X66675907Y-63862854D01*
X66580798Y-63931955D01*
X66580796Y-63931957D01*
X66580795Y-63931957D01*
X66444957Y-64067795D01*
X66444957Y-64067796D01*
X66444955Y-64067798D01*
X66411226Y-64114222D01*
X66332035Y-64223218D01*
X66244816Y-64394393D01*
X66185453Y-64577097D01*
X66165027Y-64706062D01*
X66155400Y-64766845D01*
X66155400Y-64958955D01*
X66161210Y-64995638D01*
X66185453Y-65148702D01*
X66244816Y-65331406D01*
X66313742Y-65466680D01*
X66332035Y-65502581D01*
X66444955Y-65658002D01*
X66580798Y-65793845D01*
X66736219Y-65906765D01*
X66905527Y-65993032D01*
X66907393Y-65993983D01*
X66971981Y-66014969D01*
X67029656Y-66054406D01*
X67056855Y-66118765D01*
X67044941Y-66187611D01*
X66997697Y-66239087D01*
X66971981Y-66250831D01*
X66907393Y-66271816D01*
X66736218Y-66359035D01*
X66647545Y-66423460D01*
X66580798Y-66471955D01*
X66580796Y-66471957D01*
X66580795Y-66471957D01*
X66444957Y-66607795D01*
X66444957Y-66607796D01*
X66444955Y-66607798D01*
X66398820Y-66671297D01*
X66332035Y-66763218D01*
X66244816Y-66934393D01*
X66185453Y-67117097D01*
X66161472Y-67268506D01*
X66155400Y-67306845D01*
X66155400Y-67498955D01*
X66167808Y-67577294D01*
X66185453Y-67688702D01*
X66244816Y-67871406D01*
X66329662Y-68037923D01*
X66332035Y-68042581D01*
X66444955Y-68198002D01*
X66580798Y-68333845D01*
X66736219Y-68446765D01*
X66890028Y-68525135D01*
X66907393Y-68533983D01*
X66971981Y-68554969D01*
X67029656Y-68594406D01*
X67056855Y-68658765D01*
X67044941Y-68727611D01*
X66997697Y-68779087D01*
X66971981Y-68790831D01*
X66907393Y-68811816D01*
X66736218Y-68899035D01*
X66669481Y-68947523D01*
X66580798Y-69011955D01*
X66580796Y-69011957D01*
X66580795Y-69011957D01*
X66444957Y-69147795D01*
X66444957Y-69147796D01*
X66444955Y-69147798D01*
X66400723Y-69208678D01*
X66332035Y-69303218D01*
X66244816Y-69474393D01*
X66185453Y-69657097D01*
X66164002Y-69792532D01*
X66155400Y-69846845D01*
X66155400Y-70038955D01*
X66158855Y-70060770D01*
X66185453Y-70228702D01*
X66244226Y-70409588D01*
X66246221Y-70479429D01*
X66213977Y-70535586D01*
X66171668Y-70577896D01*
X66155380Y-70594184D01*
X66155378Y-70594186D01*
X65836763Y-70912802D01*
X65538484Y-71211081D01*
X65477161Y-71244566D01*
X65450803Y-71247400D01*
X54620997Y-71247400D01*
X54553958Y-71227715D01*
X54533316Y-71211081D01*
X54352719Y-71030484D01*
X54319234Y-70969161D01*
X54316400Y-70942803D01*
X54316400Y-56091960D01*
X54316401Y-56091947D01*
X54316401Y-55923844D01*
X54304957Y-55881135D01*
X54275477Y-55771116D01*
X54261418Y-55746765D01*
X54196424Y-55634190D01*
X54196418Y-55634182D01*
X53857823Y-55295587D01*
X53824338Y-55234264D01*
X53827572Y-55169590D01*
X53886347Y-54988701D01*
X53916400Y-54798955D01*
X53916400Y-54606845D01*
X53886347Y-54417099D01*
X53850215Y-54305896D01*
X53826983Y-54234393D01*
X53820862Y-54222380D01*
X53739765Y-54063219D01*
X53626845Y-53907798D01*
X53491002Y-53771955D01*
X53335581Y-53659035D01*
X53302666Y-53642264D01*
X53164404Y-53571815D01*
X53099819Y-53550831D01*
X53042143Y-53511394D01*
X53014944Y-53447036D01*
X53026858Y-53378189D01*
X53074102Y-53326713D01*
X53099819Y-53314969D01*
X53164404Y-53293984D01*
X53164406Y-53293982D01*
X53164409Y-53293982D01*
X53335581Y-53206765D01*
X53491002Y-53093845D01*
X53626845Y-52958002D01*
X53739765Y-52802581D01*
X53826982Y-52631409D01*
X53886347Y-52448701D01*
X53916400Y-52258955D01*
X53916400Y-52066845D01*
X53886347Y-51877099D01*
X53850221Y-51765915D01*
X53826983Y-51694393D01*
X53820862Y-51682380D01*
X53739765Y-51523219D01*
X53626845Y-51367798D01*
X53491002Y-51231955D01*
X53335581Y-51119035D01*
X53328490Y-51115422D01*
X53164404Y-51031815D01*
X53099819Y-51010831D01*
X53042143Y-50971394D01*
X53014944Y-50907036D01*
X53026858Y-50838189D01*
X53074102Y-50786713D01*
X53099819Y-50774969D01*
X53164404Y-50753984D01*
X53164406Y-50753982D01*
X53164409Y-50753982D01*
X53335581Y-50666765D01*
X53491002Y-50553845D01*
X53626845Y-50418002D01*
X53739765Y-50262581D01*
X53826982Y-50091409D01*
X53886347Y-49908701D01*
X53916400Y-49718955D01*
X53916400Y-49526845D01*
X53886347Y-49337099D01*
X53853651Y-49236470D01*
X53826983Y-49154393D01*
X53805908Y-49113031D01*
X53739765Y-48983219D01*
X53626845Y-48827798D01*
X53491002Y-48691955D01*
X53335581Y-48579035D01*
X53280444Y-48550941D01*
X53164404Y-48491815D01*
X53099819Y-48470831D01*
X53042143Y-48431394D01*
X53014944Y-48367036D01*
X53026858Y-48298189D01*
X53074102Y-48246713D01*
X53099819Y-48234969D01*
X53164404Y-48213984D01*
X53164406Y-48213982D01*
X53164409Y-48213982D01*
X53335581Y-48126765D01*
X53491002Y-48013845D01*
X53626845Y-47878002D01*
X53739765Y-47722581D01*
X53826982Y-47551409D01*
X53886347Y-47368701D01*
X53916400Y-47178955D01*
X53916400Y-46986845D01*
X53886347Y-46797099D01*
X53833471Y-46634361D01*
X53826983Y-46614393D01*
X53820862Y-46602380D01*
X53739765Y-46443219D01*
X53626845Y-46287798D01*
X53491002Y-46151955D01*
X53335581Y-46039035D01*
X53280444Y-46010941D01*
X53164404Y-45951815D01*
X53099819Y-45930831D01*
X53042143Y-45891394D01*
X53014944Y-45827036D01*
X53026858Y-45758189D01*
X53074102Y-45706713D01*
X53099819Y-45694969D01*
X53164404Y-45673984D01*
X53164406Y-45673982D01*
X53164409Y-45673982D01*
X53335581Y-45586765D01*
X53491002Y-45473845D01*
X53626845Y-45338002D01*
X53739765Y-45182581D01*
X53826982Y-45011409D01*
X53886347Y-44828701D01*
X53916400Y-44638955D01*
X53916400Y-44446845D01*
X53886347Y-44257099D01*
X53836682Y-44104244D01*
X53826983Y-44074393D01*
X53739764Y-43903218D01*
X53728864Y-43888215D01*
X53626845Y-43747798D01*
X53491002Y-43611955D01*
X53335581Y-43499035D01*
X53254817Y-43457883D01*
X53204022Y-43409909D01*
X53187227Y-43342088D01*
X53209765Y-43275953D01*
X53264480Y-43232502D01*
X53311112Y-43223399D01*
X53463772Y-43223399D01*
X53523383Y-43216991D01*
X53658231Y-43166696D01*
X53773446Y-43080446D01*
X53859696Y-42965231D01*
X53909991Y-42830383D01*
X53916400Y-42770773D01*
X53916399Y-41235028D01*
X53909991Y-41175417D01*
X53909278Y-41173506D01*
X53859697Y-41040571D01*
X53859693Y-41040564D01*
X53773447Y-40925355D01*
X53773444Y-40925352D01*
X53658235Y-40839106D01*
X53658228Y-40839102D01*
X53523382Y-40788808D01*
X53523383Y-40788808D01*
X53463783Y-40782401D01*
X53463781Y-40782400D01*
X53463773Y-40782400D01*
X53463764Y-40782400D01*
X51368029Y-40782400D01*
X51368023Y-40782401D01*
X51308416Y-40788808D01*
X51173571Y-40839102D01*
X51173564Y-40839106D01*
X51058355Y-40925352D01*
X51058352Y-40925355D01*
X50972106Y-41040564D01*
X50972102Y-41040571D01*
X50921808Y-41175417D01*
X50916529Y-41224523D01*
X50915401Y-41235023D01*
X50915400Y-41235035D01*
X50915400Y-42770770D01*
X50915401Y-42770776D01*
X50921808Y-42830383D01*
X50972102Y-42965228D01*
X50972106Y-42965235D01*
X51058352Y-43080444D01*
X51058355Y-43080447D01*
X51173564Y-43166693D01*
X51173571Y-43166697D01*
X51308417Y-43216991D01*
X51308416Y-43216991D01*
X51315344Y-43217735D01*
X51368027Y-43223400D01*
X51520687Y-43223399D01*
X51587724Y-43243083D01*
X51633479Y-43295887D01*
X51643423Y-43365045D01*
X51614398Y-43428601D01*
X51576981Y-43457883D01*
X51496221Y-43499033D01*
X51432608Y-43545251D01*
X51340798Y-43611955D01*
X51340796Y-43611957D01*
X51340795Y-43611957D01*
X51204957Y-43747795D01*
X51204957Y-43747796D01*
X51204955Y-43747798D01*
X51156460Y-43814545D01*
X51092035Y-43903218D01*
X51004816Y-44074393D01*
X50945453Y-44257097D01*
X50929517Y-44357716D01*
X50915400Y-44446845D01*
X50915400Y-44638955D01*
X50922481Y-44683660D01*
X50945453Y-44828702D01*
X51004816Y-45011406D01*
X51063830Y-45127226D01*
X51092035Y-45182581D01*
X51204955Y-45338002D01*
X51340798Y-45473845D01*
X51496219Y-45586765D01*
X51619965Y-45649817D01*
X51667393Y-45673983D01*
X51731981Y-45694969D01*
X51789656Y-45734406D01*
X51816855Y-45798765D01*
X51804941Y-45867611D01*
X51757697Y-45919087D01*
X51731981Y-45930831D01*
X51667393Y-45951816D01*
X51496218Y-46039035D01*
X51407545Y-46103460D01*
X51340798Y-46151955D01*
X51340796Y-46151957D01*
X51340795Y-46151957D01*
X51204957Y-46287795D01*
X51204957Y-46287796D01*
X51204955Y-46287798D01*
X51157053Y-46353730D01*
X51092035Y-46443218D01*
X51004816Y-46614393D01*
X50945453Y-46797097D01*
X50915400Y-46986845D01*
X50915400Y-47178954D01*
X50945453Y-47368702D01*
X51004816Y-47551406D01*
X51072071Y-47683400D01*
X51092035Y-47722581D01*
X51204955Y-47878002D01*
X51340798Y-48013845D01*
X51496219Y-48126765D01*
X51557005Y-48157737D01*
X51667393Y-48213983D01*
X51731981Y-48234969D01*
X51789656Y-48274406D01*
X51816855Y-48338765D01*
X51804941Y-48407611D01*
X51757697Y-48459087D01*
X51731981Y-48470831D01*
X51667393Y-48491816D01*
X51496218Y-48579035D01*
X51407545Y-48643460D01*
X51340798Y-48691955D01*
X51340796Y-48691957D01*
X51340795Y-48691957D01*
X51204957Y-48827795D01*
X51204957Y-48827796D01*
X51204955Y-48827798D01*
X51157193Y-48893537D01*
X51092035Y-48983218D01*
X51004816Y-49154393D01*
X50945453Y-49337097D01*
X50921889Y-49485878D01*
X50915400Y-49526845D01*
X50915400Y-49718955D01*
X50917754Y-49733816D01*
X50945453Y-49908702D01*
X51004816Y-50091406D01*
X51085521Y-50249797D01*
X51092035Y-50262581D01*
X51204955Y-50418002D01*
X51340798Y-50553845D01*
X51496219Y-50666765D01*
X51644915Y-50742530D01*
X51667393Y-50753983D01*
X51731981Y-50774969D01*
X51789656Y-50814406D01*
X51816855Y-50878765D01*
X51804941Y-50947611D01*
X51757697Y-50999087D01*
X51731981Y-51010831D01*
X51667393Y-51031816D01*
X51496218Y-51119035D01*
X51435907Y-51162854D01*
X51340798Y-51231955D01*
X51340796Y-51231957D01*
X51340795Y-51231957D01*
X51204957Y-51367795D01*
X51204957Y-51367796D01*
X51204955Y-51367798D01*
X51156460Y-51434545D01*
X51092035Y-51523218D01*
X51004816Y-51694393D01*
X50945453Y-51877097D01*
X50924654Y-52008419D01*
X50915400Y-52066845D01*
X50915400Y-52258955D01*
X50922339Y-52302766D01*
X50945453Y-52448702D01*
X51004816Y-52631406D01*
X51089648Y-52797896D01*
X51092035Y-52802581D01*
X51204955Y-52958002D01*
X51340798Y-53093845D01*
X51496219Y-53206765D01*
X51637018Y-53278506D01*
X51667393Y-53293983D01*
X51731981Y-53314969D01*
X51789656Y-53354406D01*
X51816855Y-53418765D01*
X51804941Y-53487611D01*
X51757697Y-53539087D01*
X51731981Y-53550831D01*
X51667393Y-53571816D01*
X51496218Y-53659035D01*
X51435907Y-53702854D01*
X51340798Y-53771955D01*
X51340796Y-53771957D01*
X51340795Y-53771957D01*
X51204957Y-53907795D01*
X51204957Y-53907796D01*
X51204955Y-53907798D01*
X51158434Y-53971828D01*
X51092035Y-54063218D01*
X51004816Y-54234393D01*
X50945453Y-54417097D01*
X50915400Y-54606845D01*
X50915400Y-54798954D01*
X50945453Y-54988702D01*
X51004816Y-55171406D01*
X51068090Y-55295587D01*
X51092035Y-55342581D01*
X51204955Y-55498002D01*
X51340798Y-55633845D01*
X51496219Y-55746765D01*
X51569750Y-55784231D01*
X51667393Y-55833983D01*
X51731981Y-55854969D01*
X51789656Y-55894406D01*
X51816855Y-55958765D01*
X51804941Y-56027611D01*
X51757697Y-56079087D01*
X51731981Y-56090831D01*
X51667393Y-56111816D01*
X51496218Y-56199035D01*
X51440956Y-56239186D01*
X51340798Y-56311955D01*
X51340796Y-56311957D01*
X51340795Y-56311957D01*
X51204957Y-56447795D01*
X51204957Y-56447796D01*
X51204955Y-56447798D01*
X51178450Y-56484279D01*
X51092035Y-56603218D01*
X51004816Y-56774393D01*
X50945453Y-56957097D01*
X50924114Y-57091828D01*
X50915400Y-57146845D01*
X50915400Y-57338955D01*
X50920741Y-57372678D01*
X50945453Y-57528702D01*
X51004816Y-57711406D01*
X51039632Y-57779735D01*
X51092035Y-57882581D01*
X51204955Y-58038002D01*
X51340798Y-58173845D01*
X51496219Y-58286765D01*
X51567862Y-58323269D01*
X51667393Y-58373983D01*
X51731981Y-58394969D01*
X51789656Y-58434406D01*
X51816855Y-58498765D01*
X51804941Y-58567611D01*
X51757697Y-58619087D01*
X51731981Y-58630831D01*
X51667393Y-58651816D01*
X51496218Y-58739035D01*
X51446906Y-58774863D01*
X51340798Y-58851955D01*
X51340796Y-58851957D01*
X51340795Y-58851957D01*
X51204957Y-58987795D01*
X51204957Y-58987796D01*
X51204955Y-58987798D01*
X51196530Y-58999394D01*
X51092035Y-59143218D01*
X51004816Y-59314393D01*
X50945453Y-59497097D01*
X50945453Y-59497099D01*
X50915400Y-59686845D01*
X50915400Y-59878955D01*
X50922304Y-59922543D01*
X50945453Y-60068702D01*
X51004816Y-60251406D01*
X51004818Y-60251409D01*
X51092035Y-60422581D01*
X51204955Y-60578002D01*
X51340798Y-60713845D01*
X51496219Y-60826765D01*
X51667391Y-60913982D01*
X51667393Y-60913983D01*
X51731981Y-60934969D01*
X51789656Y-60974406D01*
X51816855Y-61038765D01*
X51804941Y-61107611D01*
X51757697Y-61159087D01*
X51731981Y-61170831D01*
X51667393Y-61191816D01*
X51496218Y-61279035D01*
X51426659Y-61329573D01*
X51340798Y-61391955D01*
X51340796Y-61391957D01*
X51340795Y-61391957D01*
X51204957Y-61527795D01*
X51204957Y-61527796D01*
X51204955Y-61527798D01*
X51156460Y-61594545D01*
X51092035Y-61683218D01*
X51004816Y-61854393D01*
X50945453Y-62037097D01*
X50915400Y-62226845D01*
X50915400Y-62418954D01*
X50945453Y-62608702D01*
X51004816Y-62791406D01*
X51088240Y-62955133D01*
X51092035Y-62962581D01*
X51204955Y-63118002D01*
X51340798Y-63253845D01*
X51496219Y-63366765D01*
X51643290Y-63441702D01*
X51667393Y-63453983D01*
X51731981Y-63474969D01*
X51789656Y-63514406D01*
X51816855Y-63578765D01*
X51804941Y-63647611D01*
X51757697Y-63699087D01*
X51731981Y-63710831D01*
X51667393Y-63731816D01*
X51496218Y-63819035D01*
X51435907Y-63862854D01*
X51340798Y-63931955D01*
X51340796Y-63931957D01*
X51340795Y-63931957D01*
X51204957Y-64067795D01*
X51204957Y-64067796D01*
X51204955Y-64067798D01*
X51171226Y-64114222D01*
X51092035Y-64223218D01*
X51004816Y-64394393D01*
X50945453Y-64577097D01*
X50925027Y-64706062D01*
X50915400Y-64766845D01*
X50915400Y-64958955D01*
X50921210Y-64995638D01*
X50945453Y-65148702D01*
X51004816Y-65331406D01*
X51073742Y-65466680D01*
X51092035Y-65502581D01*
X51204955Y-65658002D01*
X51340798Y-65793845D01*
X51496219Y-65906765D01*
X51665527Y-65993032D01*
X51667393Y-65993983D01*
X51731981Y-66014969D01*
X51789656Y-66054406D01*
X51816855Y-66118765D01*
X51804941Y-66187611D01*
X51757697Y-66239087D01*
X51731981Y-66250831D01*
X51667393Y-66271816D01*
X51496218Y-66359035D01*
X51407545Y-66423460D01*
X51340798Y-66471955D01*
X51340796Y-66471957D01*
X51340795Y-66471957D01*
X51204957Y-66607795D01*
X51204957Y-66607796D01*
X51204955Y-66607798D01*
X51158820Y-66671297D01*
X51092035Y-66763218D01*
X51004816Y-66934393D01*
X50945453Y-67117097D01*
X50921472Y-67268506D01*
X50915400Y-67306845D01*
X50915400Y-67498955D01*
X50927808Y-67577294D01*
X50945453Y-67688702D01*
X51004816Y-67871406D01*
X51089662Y-68037923D01*
X51092035Y-68042581D01*
X51204955Y-68198002D01*
X51340798Y-68333845D01*
X51496219Y-68446765D01*
X51650028Y-68525135D01*
X51667393Y-68533983D01*
X51731981Y-68554969D01*
X51789656Y-68594406D01*
X51816855Y-68658765D01*
X51804941Y-68727611D01*
X51757697Y-68779087D01*
X51731981Y-68790831D01*
X51667393Y-68811816D01*
X51496218Y-68899035D01*
X51429481Y-68947523D01*
X51340798Y-69011955D01*
X51340796Y-69011957D01*
X51340795Y-69011957D01*
X51204957Y-69147795D01*
X51204957Y-69147796D01*
X51204955Y-69147798D01*
X51160723Y-69208678D01*
X51092035Y-69303218D01*
X51004816Y-69474393D01*
X50945453Y-69657097D01*
X50924002Y-69792532D01*
X50915400Y-69846845D01*
X50915400Y-70038955D01*
X50918855Y-70060770D01*
X50945453Y-70228702D01*
X51004816Y-70411406D01*
X51057480Y-70514764D01*
X51092035Y-70582581D01*
X51204955Y-70738002D01*
X51340798Y-70873845D01*
X51496219Y-70986765D01*
X51610692Y-71045092D01*
X51667393Y-71073983D01*
X51731981Y-71094969D01*
X51789656Y-71134406D01*
X51816855Y-71198765D01*
X51804941Y-71267611D01*
X51757697Y-71319087D01*
X51731981Y-71330831D01*
X51667393Y-71351816D01*
X51496218Y-71439035D01*
X51488826Y-71444406D01*
X51340798Y-71551955D01*
X51340796Y-71551957D01*
X51340795Y-71551957D01*
X51204957Y-71687795D01*
X51204957Y-71687796D01*
X51204955Y-71687798D01*
X51164496Y-71743485D01*
X51092035Y-71843218D01*
X51004816Y-72014393D01*
X50945453Y-72197097D01*
X50922717Y-72340647D01*
X50915400Y-72386845D01*
X50915400Y-72578955D01*
X50923004Y-72626965D01*
X50945453Y-72768702D01*
X51004816Y-72951406D01*
X51051220Y-73042477D01*
X51092035Y-73122581D01*
X51204955Y-73278002D01*
X51340798Y-73413845D01*
X51496219Y-73526765D01*
X51633165Y-73596543D01*
X51667395Y-73613984D01*
X51732790Y-73635232D01*
X51790466Y-73674669D01*
X51817665Y-73739027D01*
X51805751Y-73807874D01*
X51758507Y-73859350D01*
X51732793Y-73871094D01*
X51667577Y-73892284D01*
X51496477Y-73979465D01*
X51341130Y-74092330D01*
X51341125Y-74092334D01*
X51205334Y-74228125D01*
X51205330Y-74228130D01*
X51092465Y-74383477D01*
X51005283Y-74554580D01*
X50945940Y-74737218D01*
X50940289Y-74772900D01*
X51982888Y-74772900D01*
X51949975Y-74829907D01*
X51915900Y-74957074D01*
X51915900Y-75088726D01*
X51949975Y-75215893D01*
X51982888Y-75272900D01*
X50940289Y-75272900D01*
X50945940Y-75308581D01*
X51005283Y-75491219D01*
X51092465Y-75662322D01*
X51205330Y-75817669D01*
X51205334Y-75817674D01*
X51341125Y-75953465D01*
X51341130Y-75953469D01*
X51496477Y-76066334D01*
X51667578Y-76153516D01*
X51850215Y-76212859D01*
X52039885Y-76242900D01*
X52165900Y-76242900D01*
X52165900Y-75455912D01*
X52222907Y-75488825D01*
X52350074Y-75522900D01*
X52481726Y-75522900D01*
X52608893Y-75488825D01*
X52665900Y-75455912D01*
X52665900Y-76242900D01*
X52791915Y-76242900D01*
X52981584Y-76212859D01*
X53164221Y-76153516D01*
X53335322Y-76066334D01*
X53490669Y-75953469D01*
X53490674Y-75953465D01*
X53626465Y-75817674D01*
X53626469Y-75817669D01*
X53739334Y-75662322D01*
X53826516Y-75491219D01*
X53885859Y-75308581D01*
X53891511Y-75272900D01*
X52848912Y-75272900D01*
X52881825Y-75215893D01*
X52915900Y-75088726D01*
X52915900Y-74957074D01*
X52881825Y-74829907D01*
X52848912Y-74772900D01*
X53891511Y-74772900D01*
X53885859Y-74737218D01*
X53826516Y-74554580D01*
X53739334Y-74383477D01*
X53626469Y-74228130D01*
X53626465Y-74228125D01*
X53490674Y-74092334D01*
X53490669Y-74092330D01*
X53335322Y-73979465D01*
X53164221Y-73892283D01*
X53099007Y-73871094D01*
X53041332Y-73831656D01*
X53014134Y-73767297D01*
X53026049Y-73698451D01*
X53073294Y-73646975D01*
X53099009Y-73635232D01*
X53164404Y-73613984D01*
X53164406Y-73613982D01*
X53164409Y-73613982D01*
X53335581Y-73526765D01*
X53491002Y-73413845D01*
X53626845Y-73278002D01*
X53731095Y-73134513D01*
X53786425Y-73091849D01*
X53831413Y-73083400D01*
X65814231Y-73083400D01*
X65814247Y-73083401D01*
X65821843Y-73083401D01*
X65979954Y-73083401D01*
X65979957Y-73083401D01*
X66132685Y-73042477D01*
X66142019Y-73037088D01*
X66209919Y-73020614D01*
X66275946Y-73043465D01*
X66314505Y-73088178D01*
X66332033Y-73122578D01*
X66332035Y-73122581D01*
X66444955Y-73278002D01*
X66580798Y-73413845D01*
X66736219Y-73526765D01*
X66873165Y-73596543D01*
X66907393Y-73613983D01*
X66971981Y-73634969D01*
X67029656Y-73674406D01*
X67056855Y-73738765D01*
X67044941Y-73807611D01*
X66997697Y-73859087D01*
X66971981Y-73870831D01*
X66907393Y-73891816D01*
X66736218Y-73979035D01*
X66647545Y-74043460D01*
X66580798Y-74091955D01*
X66580796Y-74091957D01*
X66580795Y-74091957D01*
X66444957Y-74227795D01*
X66444957Y-74227796D01*
X66444955Y-74227798D01*
X66396460Y-74294545D01*
X66332035Y-74383218D01*
X66244816Y-74554393D01*
X66185453Y-74737097D01*
X66164657Y-74868400D01*
X66155400Y-74926845D01*
X66155400Y-75118955D01*
X66164130Y-75174071D01*
X66185453Y-75308702D01*
X66244816Y-75491406D01*
X66285628Y-75571503D01*
X66332035Y-75662581D01*
X66444955Y-75818002D01*
X66580798Y-75953845D01*
X66736219Y-76066765D01*
X66843108Y-76121228D01*
X66907393Y-76153983D01*
X66998745Y-76183664D01*
X67090099Y-76213347D01*
X67279845Y-76243400D01*
X67279846Y-76243400D01*
X68031954Y-76243400D01*
X68031955Y-76243400D01*
X68221701Y-76213347D01*
X68404409Y-76153982D01*
X68575581Y-76066765D01*
X68731002Y-75953845D01*
X68866845Y-75818002D01*
X68979765Y-75662581D01*
X69066982Y-75491409D01*
X69126347Y-75308701D01*
X69156400Y-75118955D01*
X69156400Y-74926845D01*
X69126347Y-74737099D01*
X69067822Y-74556975D01*
X69066983Y-74554393D01*
X68979764Y-74383218D01*
X68960246Y-74356354D01*
X68866845Y-74227798D01*
X68731002Y-74091955D01*
X68575581Y-73979035D01*
X68517300Y-73949339D01*
X68404404Y-73891815D01*
X68339819Y-73870831D01*
X68282143Y-73831394D01*
X68254944Y-73767036D01*
X68266858Y-73698189D01*
X68314102Y-73646713D01*
X68339819Y-73634969D01*
X68404404Y-73613984D01*
X68404406Y-73613982D01*
X68404409Y-73613982D01*
X68575581Y-73526765D01*
X68731002Y-73413845D01*
X68866845Y-73278002D01*
X68979765Y-73122581D01*
X69066982Y-72951409D01*
X69126347Y-72768701D01*
X69149912Y-72619913D01*
X69179841Y-72556780D01*
X69239152Y-72519848D01*
X69309015Y-72520846D01*
X69360066Y-72551631D01*
X70007224Y-73198789D01*
X70040709Y-73260112D01*
X70042763Y-73272582D01*
X70045532Y-73297155D01*
X70053204Y-73319080D01*
X70105110Y-73467421D01*
X70152883Y-73543451D01*
X70201084Y-73620162D01*
X70328638Y-73747716D01*
X70356618Y-73765297D01*
X70478468Y-73841861D01*
X70481378Y-73843689D01*
X70651645Y-73903268D01*
X70651650Y-73903269D01*
X70830896Y-73923465D01*
X70830900Y-73923465D01*
X70830904Y-73923465D01*
X71010149Y-73903269D01*
X71010152Y-73903268D01*
X71010155Y-73903268D01*
X71180422Y-73843689D01*
X71333162Y-73747716D01*
X71460716Y-73620162D01*
X71556689Y-73467422D01*
X71608596Y-73319079D01*
X71649318Y-73262304D01*
X71714271Y-73236557D01*
X71782832Y-73250013D01*
X71813319Y-73272354D01*
X72479081Y-73938116D01*
X72512566Y-73999439D01*
X72515400Y-74025797D01*
X72515400Y-74989087D01*
X72495715Y-75056126D01*
X72488350Y-75066396D01*
X72486086Y-75069234D01*
X72390111Y-75221976D01*
X72330531Y-75392245D01*
X72330530Y-75392250D01*
X72310335Y-75571496D01*
X72310335Y-75571503D01*
X72330530Y-75750749D01*
X72330531Y-75750754D01*
X72390111Y-75921023D01*
X72454155Y-76022947D01*
X72486084Y-76073762D01*
X72613638Y-76201316D01*
X72680614Y-76243400D01*
X72749899Y-76286935D01*
X72766378Y-76297289D01*
X72855048Y-76328316D01*
X72936645Y-76356868D01*
X72936650Y-76356869D01*
X73115896Y-76377065D01*
X73115900Y-76377065D01*
X73115904Y-76377065D01*
X73295149Y-76356869D01*
X73295152Y-76356868D01*
X73295155Y-76356868D01*
X73465422Y-76297289D01*
X73618162Y-76201316D01*
X73695393Y-76124084D01*
X73756712Y-76090602D01*
X73824026Y-76094727D01*
X73948737Y-76138366D01*
X73948743Y-76138367D01*
X73948745Y-76138368D01*
X73948746Y-76138368D01*
X73948750Y-76138369D01*
X74048083Y-76149561D01*
X74112497Y-76176627D01*
X74152052Y-76234222D01*
X74158200Y-76272781D01*
X74158200Y-81404030D01*
X74158199Y-81404048D01*
X74158199Y-81569754D01*
X74158198Y-81569754D01*
X74158199Y-81569757D01*
X74199123Y-81722485D01*
X74199124Y-81722487D01*
X74199123Y-81722487D01*
X74212212Y-81745156D01*
X74212213Y-81745158D01*
X74278175Y-81859409D01*
X74278181Y-81859417D01*
X74397049Y-81978285D01*
X74397055Y-81978290D01*
X75376039Y-82957274D01*
X75376049Y-82957285D01*
X75380379Y-82961615D01*
X75380380Y-82961616D01*
X75492184Y-83073420D01*
X75492186Y-83073421D01*
X75492190Y-83073424D01*
X75578786Y-83123420D01*
X75578787Y-83123420D01*
X75629115Y-83152477D01*
X75781843Y-83193400D01*
X77758078Y-83193400D01*
X77825117Y-83213085D01*
X77861887Y-83249578D01*
X77862038Y-83249809D01*
X77986717Y-83440645D01*
X78110920Y-83575565D01*
X78141108Y-83608358D01*
X78141112Y-83608361D01*
X78234946Y-83681395D01*
X78320994Y-83748369D01*
X78320996Y-83748370D01*
X78320999Y-83748372D01*
X78391352Y-83786445D01*
X78440943Y-83835664D01*
X78456051Y-83903881D01*
X78431881Y-83969437D01*
X78376105Y-84011518D01*
X78332335Y-84019500D01*
X48594500Y-84019500D01*
X48527461Y-83999815D01*
X48481706Y-83947011D01*
X48470500Y-83895500D01*
X48470500Y-78672897D01*
X57365552Y-78672897D01*
X57365552Y-78672902D01*
X57372474Y-78800564D01*
X57374863Y-78844641D01*
X57384928Y-79030268D01*
X57384929Y-79030285D01*
X57442826Y-79383439D01*
X57442832Y-79383465D01*
X57538572Y-79728292D01*
X57538574Y-79728299D01*
X57671042Y-80060770D01*
X57671051Y-80060788D01*
X57838684Y-80376977D01*
X57838687Y-80376982D01*
X57838689Y-80376985D01*
X58032257Y-80662477D01*
X58039534Y-80673209D01*
X58039541Y-80673219D01*
X58267879Y-80942039D01*
X58271232Y-80945986D01*
X58531063Y-81192111D01*
X58531070Y-81192116D01*
X58531072Y-81192118D01*
X58538435Y-81197715D01*
X58815981Y-81408700D01*
X59122647Y-81593215D01*
X59122649Y-81593216D01*
X59122651Y-81593217D01*
X59122655Y-81593219D01*
X59296222Y-81673519D01*
X59447465Y-81743491D01*
X59786626Y-81857768D01*
X60136154Y-81934705D01*
X60491952Y-81973400D01*
X60491958Y-81973400D01*
X60849842Y-81973400D01*
X60849848Y-81973400D01*
X61205646Y-81934705D01*
X61555174Y-81857768D01*
X61894335Y-81743491D01*
X62219153Y-81593215D01*
X62525819Y-81408700D01*
X62810737Y-81192111D01*
X63070568Y-80945986D01*
X63302265Y-80673211D01*
X63503111Y-80376985D01*
X63670753Y-80060780D01*
X63803224Y-79728303D01*
X63898971Y-79383452D01*
X63922521Y-79239802D01*
X63956870Y-79030285D01*
X63956870Y-79030282D01*
X63956872Y-79030271D01*
X63975396Y-78688607D01*
X63976248Y-78672902D01*
X63976248Y-78672897D01*
X63973247Y-78617549D01*
X63956872Y-78315529D01*
X63955909Y-78309658D01*
X63898973Y-77962360D01*
X63898972Y-77962359D01*
X63898971Y-77962348D01*
X63851393Y-77790986D01*
X63803227Y-77617507D01*
X63803225Y-77617500D01*
X63799577Y-77608345D01*
X63737311Y-77452068D01*
X63670757Y-77285029D01*
X63670748Y-77285011D01*
X63654700Y-77254742D01*
X63576604Y-77107436D01*
X63503115Y-76968822D01*
X63503113Y-76968819D01*
X63503111Y-76968815D01*
X63302265Y-76672589D01*
X63302261Y-76672584D01*
X63302258Y-76672580D01*
X63070568Y-76399814D01*
X63039366Y-76370258D01*
X62810737Y-76153689D01*
X62810730Y-76153683D01*
X62810727Y-76153681D01*
X62727747Y-76090602D01*
X62525819Y-75937100D01*
X62219153Y-75752585D01*
X62219152Y-75752584D01*
X62219148Y-75752582D01*
X62219144Y-75752580D01*
X61894347Y-75602314D01*
X61894341Y-75602311D01*
X61894335Y-75602309D01*
X61677297Y-75529180D01*
X61555173Y-75488031D01*
X61205644Y-75411094D01*
X60849849Y-75372400D01*
X60849848Y-75372400D01*
X60491952Y-75372400D01*
X60491950Y-75372400D01*
X60136155Y-75411094D01*
X59786626Y-75488031D01*
X59538894Y-75571503D01*
X59447465Y-75602309D01*
X59447463Y-75602310D01*
X59447452Y-75602314D01*
X59122655Y-75752580D01*
X59122651Y-75752582D01*
X58947622Y-75857894D01*
X58815981Y-75937100D01*
X58727668Y-76004233D01*
X58531072Y-76153681D01*
X58531063Y-76153689D01*
X58271231Y-76399814D01*
X58039541Y-76672580D01*
X58039534Y-76672590D01*
X57838690Y-76968813D01*
X57838684Y-76968822D01*
X57671051Y-77285011D01*
X57671042Y-77285029D01*
X57538574Y-77617500D01*
X57538572Y-77617507D01*
X57442832Y-77962334D01*
X57442826Y-77962360D01*
X57384929Y-78315514D01*
X57384928Y-78315531D01*
X57365552Y-78672897D01*
X48470500Y-78672897D01*
X48470500Y-30028110D01*
X48490185Y-29961071D01*
X48542989Y-29915316D01*
X48612147Y-29905372D01*
X48675703Y-29934397D01*
X48706880Y-29975703D01*
X48740633Y-30048085D01*
X48789431Y-30152732D01*
X48789432Y-30152734D01*
X48919954Y-30339141D01*
X49080858Y-30500045D01*
X49081609Y-30500571D01*
X49266624Y-30630118D01*
X49310248Y-30684693D01*
X49319500Y-30731692D01*
X49319500Y-37283330D01*
X49319499Y-37283348D01*
X49319499Y-37449054D01*
X49319498Y-37449054D01*
X49360422Y-37601783D01*
X49384450Y-37643401D01*
X49439477Y-37738712D01*
X49439481Y-37738717D01*
X49558349Y-37857585D01*
X49558355Y-37857590D01*
X50095139Y-38394374D01*
X50095149Y-38394385D01*
X50099479Y-38398715D01*
X50099480Y-38398716D01*
X50211284Y-38510520D01*
X50259429Y-38538316D01*
X50259428Y-38538316D01*
X50259431Y-38538317D01*
X50348209Y-38589574D01*
X50348210Y-38589575D01*
X50348212Y-38589575D01*
X50348215Y-38589577D01*
X50500943Y-38630501D01*
X50500946Y-38630501D01*
X50666653Y-38630501D01*
X50666669Y-38630500D01*
X67363331Y-38630500D01*
X67363347Y-38630501D01*
X67370943Y-38630501D01*
X67529054Y-38630501D01*
X67529057Y-38630501D01*
X67681785Y-38589577D01*
X67770571Y-38538316D01*
X67818716Y-38510520D01*
X67930520Y-38398716D01*
X67930520Y-38398714D01*
X67940724Y-38388511D01*
X67940728Y-38388506D01*
X68258506Y-38070728D01*
X68258511Y-38070724D01*
X68268714Y-38060520D01*
X68268716Y-38060520D01*
X68380520Y-37948716D01*
X68450300Y-37827853D01*
X68459577Y-37811785D01*
X68500500Y-37659057D01*
X68500500Y-37500943D01*
X68500500Y-36582412D01*
X68520185Y-36515373D01*
X68527555Y-36505097D01*
X68529810Y-36502267D01*
X68529816Y-36502262D01*
X68625789Y-36349522D01*
X68685368Y-36179255D01*
X68687098Y-36163900D01*
X68705565Y-36000003D01*
X68705565Y-35999996D01*
X68685369Y-35820750D01*
X68685368Y-35820745D01*
X68666765Y-35767581D01*
X68625789Y-35650478D01*
X68616168Y-35635167D01*
X68547625Y-35526081D01*
X68529816Y-35497738D01*
X68402262Y-35370184D01*
X68373940Y-35352388D01*
X68249523Y-35274211D01*
X68079254Y-35214631D01*
X68079249Y-35214630D01*
X67900004Y-35194435D01*
X67899996Y-35194435D01*
X67720750Y-35214630D01*
X67720745Y-35214631D01*
X67550476Y-35274211D01*
X67397737Y-35370184D01*
X67270184Y-35497737D01*
X67174211Y-35650476D01*
X67114631Y-35820745D01*
X67114630Y-35820750D01*
X67094435Y-35999996D01*
X67094435Y-36000003D01*
X67114630Y-36179249D01*
X67114631Y-36179254D01*
X67174211Y-36349523D01*
X67270185Y-36502263D01*
X67272445Y-36505097D01*
X67273334Y-36507275D01*
X67273889Y-36508158D01*
X67273734Y-36508255D01*
X67298855Y-36569783D01*
X67299500Y-36582412D01*
X67299500Y-37279903D01*
X67279815Y-37346942D01*
X67263181Y-37367584D01*
X67237584Y-37393181D01*
X67176261Y-37426666D01*
X67149903Y-37429500D01*
X50880097Y-37429500D01*
X50813058Y-37409815D01*
X50792416Y-37393181D01*
X50556819Y-37157584D01*
X50523334Y-37096261D01*
X50520500Y-37069903D01*
X50520500Y-30731692D01*
X50540185Y-30664653D01*
X50573374Y-30630119D01*
X50759139Y-30500047D01*
X50920047Y-30339139D01*
X51050568Y-30152734D01*
X51146739Y-29946496D01*
X51205635Y-29726692D01*
X51225468Y-29500000D01*
X51205635Y-29273308D01*
X51150487Y-29067492D01*
X51146741Y-29053511D01*
X51146738Y-29053502D01*
X51094008Y-28940423D01*
X51050568Y-28847266D01*
X50920047Y-28660861D01*
X50920045Y-28660858D01*
X50759141Y-28499954D01*
X50572734Y-28369432D01*
X50572732Y-28369431D01*
X50366497Y-28273261D01*
X50366488Y-28273258D01*
X50332961Y-28264275D01*
X50273300Y-28227910D01*
X50242771Y-28165063D01*
X50251066Y-28095688D01*
X50295551Y-28041810D01*
X50362103Y-28020535D01*
X50365054Y-28020500D01*
X59636879Y-28020500D01*
X59703918Y-28040185D01*
G37*
G04 #@! TD.AperFunction*
G04 #@! TA.AperFunction,Conductor*
G36*
X134499975Y-82449907D02*
G01*
X134465900Y-82577074D01*
X134465900Y-82708726D01*
X134499975Y-82835893D01*
X134532888Y-82892900D01*
X132858912Y-82892900D01*
X132891825Y-82835893D01*
X132925900Y-82708726D01*
X132925900Y-82577074D01*
X132891825Y-82449907D01*
X132858912Y-82392900D01*
X134532888Y-82392900D01*
X134499975Y-82449907D01*
G37*
G04 #@! TD.AperFunction*
G04 #@! TA.AperFunction,Conductor*
G36*
X128903757Y-80959944D02*
G01*
X129046758Y-81102945D01*
X129046761Y-81102947D01*
X129233166Y-81233468D01*
X129248875Y-81240793D01*
X129301314Y-81286964D01*
X129320467Y-81354157D01*
X129300252Y-81421038D01*
X129248879Y-81465556D01*
X129233414Y-81472767D01*
X129233412Y-81472768D01*
X129160426Y-81523873D01*
X129160426Y-81523874D01*
X129839453Y-82202900D01*
X129833239Y-82202900D01*
X129731506Y-82230159D01*
X129640294Y-82282820D01*
X129565820Y-82357294D01*
X129513159Y-82448506D01*
X129485900Y-82550239D01*
X129485900Y-82556452D01*
X128798089Y-81868641D01*
X128762704Y-81861529D01*
X128712522Y-81812913D01*
X128696399Y-81751769D01*
X128696399Y-81745029D01*
X128696398Y-81745023D01*
X128696233Y-81743491D01*
X128689991Y-81685417D01*
X128688710Y-81681983D01*
X128639697Y-81550571D01*
X128639695Y-81550568D01*
X128619711Y-81523873D01*
X128562321Y-81447209D01*
X128537904Y-81381748D01*
X128552755Y-81313475D01*
X128562316Y-81298596D01*
X128639696Y-81195231D01*
X128689991Y-81060383D01*
X128692787Y-81034368D01*
X128719522Y-80969821D01*
X128776914Y-80929972D01*
X128846739Y-80927476D01*
X128903757Y-80959944D01*
G37*
G04 #@! TD.AperFunction*
G04 #@! TA.AperFunction,Conductor*
G36*
X131196173Y-80705400D02*
G01*
X131240697Y-80756780D01*
X131251865Y-80780729D01*
X131251867Y-80780734D01*
X131354618Y-80927476D01*
X131387405Y-80974301D01*
X131554499Y-81141395D01*
X131716629Y-81254920D01*
X131740494Y-81271630D01*
X131784119Y-81326207D01*
X131791313Y-81395705D01*
X131759790Y-81458060D01*
X131740495Y-81474780D01*
X131554822Y-81604790D01*
X131554820Y-81604791D01*
X131387791Y-81771820D01*
X131387786Y-81771826D01*
X131252300Y-81965320D01*
X131252298Y-81965324D01*
X131250023Y-81970204D01*
X131203850Y-82022642D01*
X131136656Y-82041793D01*
X131069775Y-82021576D01*
X131025260Y-81970201D01*
X131016036Y-81950421D01*
X131016032Y-81950413D01*
X130964925Y-81877426D01*
X130285900Y-82556451D01*
X130285900Y-82550239D01*
X130258641Y-82448506D01*
X130205980Y-82357294D01*
X130131506Y-82282820D01*
X130040294Y-82230159D01*
X129938561Y-82202900D01*
X129932348Y-82202900D01*
X130611372Y-81523874D01*
X130538380Y-81472764D01*
X130522924Y-81465557D01*
X130470485Y-81419384D01*
X130451333Y-81352190D01*
X130471549Y-81285309D01*
X130522923Y-81240793D01*
X130538634Y-81233468D01*
X130725039Y-81102947D01*
X130885947Y-80942039D01*
X131016468Y-80755634D01*
X131016472Y-80755625D01*
X131019176Y-80750943D01*
X131020434Y-80751669D01*
X131062098Y-80704346D01*
X131129290Y-80685189D01*
X131196173Y-80705400D01*
G37*
G04 #@! TD.AperFunction*
G04 #@! TA.AperFunction,Conductor*
G36*
X131240384Y-62991387D02*
G01*
X131261716Y-63014799D01*
X131387405Y-63194301D01*
X131387406Y-63194302D01*
X131554497Y-63361393D01*
X131554503Y-63361398D01*
X131740058Y-63491325D01*
X131783683Y-63545902D01*
X131790877Y-63615400D01*
X131759354Y-63677755D01*
X131740058Y-63694475D01*
X131554497Y-63824405D01*
X131387405Y-63991497D01*
X131251865Y-64185069D01*
X131251864Y-64185071D01*
X131151998Y-64399235D01*
X131151994Y-64399244D01*
X131090838Y-64627486D01*
X131090836Y-64627496D01*
X131070241Y-64862899D01*
X131070241Y-64862900D01*
X131090836Y-65098303D01*
X131090838Y-65098313D01*
X131151994Y-65326555D01*
X131151996Y-65326559D01*
X131151997Y-65326563D01*
X131231893Y-65497900D01*
X131251865Y-65540730D01*
X131251867Y-65540734D01*
X131333981Y-65658004D01*
X131387401Y-65734296D01*
X131387406Y-65734302D01*
X131554497Y-65901393D01*
X131554503Y-65901398D01*
X131740058Y-66031325D01*
X131783683Y-66085902D01*
X131790877Y-66155400D01*
X131759354Y-66217755D01*
X131740058Y-66234475D01*
X131554497Y-66364405D01*
X131387405Y-66531497D01*
X131251865Y-66725069D01*
X131251864Y-66725071D01*
X131151998Y-66939235D01*
X131151994Y-66939244D01*
X131090838Y-67167486D01*
X131090836Y-67167496D01*
X131070241Y-67402899D01*
X131070241Y-67402900D01*
X131090836Y-67638303D01*
X131090838Y-67638313D01*
X131151994Y-67866555D01*
X131151996Y-67866559D01*
X131151997Y-67866563D01*
X131219124Y-68010516D01*
X131251865Y-68080730D01*
X131251867Y-68080734D01*
X131338584Y-68204577D01*
X131387401Y-68274296D01*
X131387406Y-68274302D01*
X131554497Y-68441393D01*
X131554503Y-68441398D01*
X131740058Y-68571325D01*
X131783683Y-68625902D01*
X131790877Y-68695400D01*
X131759354Y-68757755D01*
X131740058Y-68774475D01*
X131554497Y-68904405D01*
X131387405Y-69071497D01*
X131251865Y-69265069D01*
X131251864Y-69265071D01*
X131151998Y-69479235D01*
X131151994Y-69479244D01*
X131090838Y-69707486D01*
X131090836Y-69707496D01*
X131070241Y-69942899D01*
X131070241Y-69942900D01*
X131090836Y-70178303D01*
X131090838Y-70178313D01*
X131151994Y-70406555D01*
X131151996Y-70406559D01*
X131151997Y-70406563D01*
X131202452Y-70514764D01*
X131251865Y-70620730D01*
X131251867Y-70620734D01*
X131333981Y-70738004D01*
X131387401Y-70814296D01*
X131387406Y-70814302D01*
X131554497Y-70981393D01*
X131554503Y-70981398D01*
X131740058Y-71111325D01*
X131783683Y-71165902D01*
X131790877Y-71235400D01*
X131759354Y-71297755D01*
X131740058Y-71314475D01*
X131554497Y-71444405D01*
X131387405Y-71611497D01*
X131251865Y-71805069D01*
X131251864Y-71805071D01*
X131151998Y-72019235D01*
X131151994Y-72019244D01*
X131090838Y-72247486D01*
X131090836Y-72247496D01*
X131070241Y-72482899D01*
X131070241Y-72482900D01*
X131090836Y-72718303D01*
X131090838Y-72718313D01*
X131151994Y-72946555D01*
X131151996Y-72946559D01*
X131151997Y-72946563D01*
X131219745Y-73091849D01*
X131251865Y-73160730D01*
X131251867Y-73160734D01*
X131333981Y-73278004D01*
X131387401Y-73354296D01*
X131387406Y-73354302D01*
X131554497Y-73521393D01*
X131554503Y-73521398D01*
X131740058Y-73651325D01*
X131783683Y-73705902D01*
X131790877Y-73775400D01*
X131759354Y-73837755D01*
X131740058Y-73854475D01*
X131554497Y-73984405D01*
X131387405Y-74151497D01*
X131251865Y-74345069D01*
X131251864Y-74345071D01*
X131151998Y-74559235D01*
X131151994Y-74559244D01*
X131090838Y-74787486D01*
X131090836Y-74787496D01*
X131070241Y-75022899D01*
X131070241Y-75022900D01*
X131090836Y-75258303D01*
X131090838Y-75258313D01*
X131151994Y-75486555D01*
X131151996Y-75486559D01*
X131151997Y-75486563D01*
X131223624Y-75640167D01*
X131251865Y-75700730D01*
X131251867Y-75700734D01*
X131333981Y-75818004D01*
X131387401Y-75894296D01*
X131387406Y-75894302D01*
X131554497Y-76061393D01*
X131554503Y-76061398D01*
X131740058Y-76191325D01*
X131783683Y-76245902D01*
X131790877Y-76315400D01*
X131759354Y-76377755D01*
X131740058Y-76394475D01*
X131554497Y-76524405D01*
X131387405Y-76691497D01*
X131251865Y-76885069D01*
X131251864Y-76885071D01*
X131151998Y-77099235D01*
X131151994Y-77099244D01*
X131090838Y-77327486D01*
X131090836Y-77327496D01*
X131070241Y-77562899D01*
X131070241Y-77562900D01*
X131090836Y-77798303D01*
X131090838Y-77798313D01*
X131151994Y-78026555D01*
X131151996Y-78026559D01*
X131151997Y-78026563D01*
X131208499Y-78147732D01*
X131251865Y-78240730D01*
X131251867Y-78240734D01*
X131328867Y-78350700D01*
X131387401Y-78434296D01*
X131387406Y-78434302D01*
X131554497Y-78601393D01*
X131554503Y-78601398D01*
X131740058Y-78731325D01*
X131783683Y-78785902D01*
X131790877Y-78855400D01*
X131759354Y-78917755D01*
X131740058Y-78934475D01*
X131554497Y-79064405D01*
X131387405Y-79231497D01*
X131251865Y-79425069D01*
X131251863Y-79425073D01*
X131240696Y-79449021D01*
X131194523Y-79501459D01*
X131127329Y-79520610D01*
X131060448Y-79500393D01*
X131020385Y-79454158D01*
X131019176Y-79454857D01*
X131016467Y-79450165D01*
X130973529Y-79388843D01*
X130885947Y-79263761D01*
X130725039Y-79102853D01*
X130690378Y-79078583D01*
X130664275Y-79060305D01*
X130620651Y-79005727D01*
X130611400Y-78958731D01*
X130611400Y-63515353D01*
X130612837Y-63515353D01*
X130624513Y-63453780D01*
X130670330Y-63405437D01*
X130669926Y-63404794D01*
X130672433Y-63403218D01*
X130672576Y-63403068D01*
X130673194Y-63402740D01*
X130683795Y-63396079D01*
X130828562Y-63305116D01*
X130956116Y-63177562D01*
X131052089Y-63024822D01*
X131052090Y-63024818D01*
X131055148Y-63019952D01*
X131107482Y-62973661D01*
X131176536Y-62963012D01*
X131240384Y-62991387D01*
G37*
G04 #@! TD.AperFunction*
G04 #@! TA.AperFunction,Conductor*
G36*
X73071803Y-47175261D02*
G01*
X73078281Y-47181293D01*
X74178414Y-48281427D01*
X74178417Y-48281430D01*
X74262184Y-48337401D01*
X74285380Y-48352900D01*
X74297247Y-48360829D01*
X74429280Y-48415519D01*
X74429284Y-48415519D01*
X74429285Y-48415520D01*
X74569442Y-48443400D01*
X74569445Y-48443400D01*
X75401732Y-48443400D01*
X75468771Y-48463085D01*
X75503307Y-48496277D01*
X75545854Y-48557041D01*
X75706758Y-48717945D01*
X75706761Y-48717947D01*
X75893166Y-48848468D01*
X76099404Y-48944639D01*
X76099409Y-48944640D01*
X76099411Y-48944641D01*
X76152315Y-48958816D01*
X76319208Y-49003535D01*
X76481130Y-49017701D01*
X76545898Y-49023368D01*
X76545900Y-49023368D01*
X76545902Y-49023368D01*
X76602573Y-49018409D01*
X76772592Y-49003535D01*
X76992396Y-48944639D01*
X77198634Y-48848468D01*
X77385039Y-48717947D01*
X77545947Y-48557039D01*
X77676468Y-48370634D01*
X77703518Y-48312624D01*
X77749690Y-48260185D01*
X77816883Y-48241033D01*
X77883765Y-48261248D01*
X77928281Y-48312624D01*
X77939835Y-48337400D01*
X77955329Y-48370628D01*
X77955332Y-48370634D01*
X78085854Y-48557041D01*
X78204857Y-48676044D01*
X78238342Y-48737367D01*
X78233358Y-48807059D01*
X78204857Y-48851406D01*
X77570386Y-49485878D01*
X77458581Y-49597682D01*
X77458580Y-49597684D01*
X77454143Y-49605370D01*
X77379523Y-49734615D01*
X77338599Y-49887343D01*
X77338599Y-49887345D01*
X77338599Y-50055446D01*
X77338600Y-50055459D01*
X77338600Y-53913400D01*
X77318915Y-53980439D01*
X77266111Y-54026194D01*
X77214600Y-54037400D01*
X75698029Y-54037400D01*
X75698023Y-54037401D01*
X75638416Y-54043808D01*
X75503571Y-54094102D01*
X75503564Y-54094106D01*
X75388355Y-54180352D01*
X75388352Y-54180355D01*
X75302106Y-54295564D01*
X75302102Y-54295571D01*
X75251808Y-54430417D01*
X75245401Y-54490016D01*
X75245400Y-54490035D01*
X75245400Y-56185770D01*
X75245401Y-56185776D01*
X75251808Y-56245383D01*
X75302102Y-56380228D01*
X75302106Y-56380235D01*
X75388352Y-56495444D01*
X75388355Y-56495447D01*
X75503564Y-56581693D01*
X75503571Y-56581697D01*
X75638417Y-56631991D01*
X75638416Y-56631991D01*
X75642751Y-56632457D01*
X75698027Y-56638400D01*
X77214600Y-56638399D01*
X77281639Y-56658084D01*
X77327394Y-56710887D01*
X77338600Y-56762399D01*
X77338600Y-57244183D01*
X77318915Y-57311222D01*
X77266111Y-57356977D01*
X77196953Y-57366921D01*
X77162196Y-57356565D01*
X77012231Y-57286635D01*
X77012217Y-57286630D01*
X76792510Y-57227760D01*
X76792499Y-57227758D01*
X76565902Y-57207934D01*
X76565898Y-57207934D01*
X76339300Y-57227758D01*
X76339289Y-57227760D01*
X76119582Y-57286630D01*
X76119573Y-57286634D01*
X75913416Y-57382766D01*
X75913412Y-57382768D01*
X75840426Y-57433873D01*
X75840426Y-57433874D01*
X76519453Y-58112900D01*
X76513239Y-58112900D01*
X76411506Y-58140159D01*
X76320294Y-58192820D01*
X76245820Y-58267294D01*
X76193159Y-58358506D01*
X76165900Y-58460239D01*
X76165900Y-58466452D01*
X75486874Y-57787426D01*
X75486873Y-57787426D01*
X75435768Y-57860412D01*
X75435766Y-57860416D01*
X75339634Y-58066573D01*
X75339630Y-58066582D01*
X75280760Y-58286289D01*
X75280758Y-58286300D01*
X75260934Y-58512897D01*
X75260934Y-58512902D01*
X75280758Y-58739499D01*
X75280760Y-58739510D01*
X75339630Y-58959217D01*
X75339635Y-58959231D01*
X75435763Y-59165378D01*
X75486874Y-59238372D01*
X76165900Y-58559346D01*
X76165900Y-58565561D01*
X76193159Y-58667294D01*
X76245820Y-58758506D01*
X76320294Y-58832980D01*
X76411506Y-58885641D01*
X76513239Y-58912900D01*
X76519451Y-58912900D01*
X75840426Y-59591925D01*
X75913413Y-59643032D01*
X75913421Y-59643036D01*
X75961764Y-59665579D01*
X76014204Y-59711751D01*
X76033356Y-59778944D01*
X76013141Y-59845826D01*
X75961766Y-59890343D01*
X75893164Y-59922333D01*
X75706758Y-60052854D01*
X75545854Y-60213758D01*
X75415332Y-60400165D01*
X75415331Y-60400167D01*
X75319161Y-60606402D01*
X75319158Y-60606411D01*
X75260266Y-60826202D01*
X75260264Y-60826213D01*
X75240432Y-61052898D01*
X75240432Y-61052901D01*
X75260264Y-61279586D01*
X75260266Y-61279597D01*
X75319158Y-61499388D01*
X75319161Y-61499397D01*
X75415331Y-61705632D01*
X75415332Y-61705634D01*
X75545854Y-61892041D01*
X75706758Y-62052945D01*
X75706761Y-62052947D01*
X75893166Y-62183468D01*
X76099404Y-62279639D01*
X76319208Y-62338535D01*
X76481130Y-62352701D01*
X76545898Y-62358368D01*
X76545900Y-62358368D01*
X76545902Y-62358368D01*
X76604410Y-62353249D01*
X76772592Y-62338535D01*
X76992396Y-62279639D01*
X77162195Y-62200460D01*
X77231273Y-62189968D01*
X77295057Y-62218488D01*
X77333296Y-62276964D01*
X77338600Y-62312842D01*
X77338600Y-70794930D01*
X77338599Y-70794948D01*
X77338599Y-70960654D01*
X77338598Y-70960654D01*
X77372226Y-71086155D01*
X77379523Y-71113385D01*
X77405282Y-71158000D01*
X77457245Y-71248003D01*
X77458579Y-71250314D01*
X77458581Y-71250317D01*
X77577449Y-71369185D01*
X77577455Y-71369190D01*
X79628981Y-73420716D01*
X79662466Y-73482039D01*
X79665300Y-73508397D01*
X79665300Y-74940172D01*
X79645615Y-75007211D01*
X79592811Y-75052966D01*
X79523653Y-75062910D01*
X79509207Y-75059947D01*
X79312597Y-75007266D01*
X79312593Y-75007265D01*
X79312592Y-75007265D01*
X79312591Y-75007264D01*
X79312586Y-75007264D01*
X79085902Y-74987432D01*
X79085898Y-74987432D01*
X78859213Y-75007264D01*
X78859202Y-75007266D01*
X78639411Y-75066158D01*
X78639402Y-75066161D01*
X78433167Y-75162331D01*
X78433165Y-75162332D01*
X78246758Y-75292854D01*
X78085854Y-75453758D01*
X78068625Y-75478364D01*
X78014047Y-75521988D01*
X77944548Y-75529180D01*
X77882194Y-75497657D01*
X77846782Y-75437426D01*
X77843761Y-75420491D01*
X77839991Y-75385416D01*
X77789697Y-75250571D01*
X77789693Y-75250564D01*
X77703447Y-75135355D01*
X77703444Y-75135352D01*
X77588235Y-75049106D01*
X77588228Y-75049102D01*
X77453382Y-74998808D01*
X77453383Y-74998808D01*
X77393783Y-74992401D01*
X77393781Y-74992400D01*
X77393773Y-74992400D01*
X77393765Y-74992400D01*
X76137000Y-74992400D01*
X76069961Y-74972715D01*
X76024206Y-74919911D01*
X76013000Y-74868400D01*
X76013000Y-69365445D01*
X76013000Y-69365443D01*
X75988850Y-69275315D01*
X75972077Y-69212715D01*
X75929162Y-69138384D01*
X75929162Y-69138383D01*
X75893024Y-69075790D01*
X75893021Y-69075786D01*
X75893020Y-69075784D01*
X75781216Y-68963980D01*
X75781215Y-68963979D01*
X75776885Y-68959649D01*
X75776874Y-68959639D01*
X74980190Y-68162955D01*
X74980188Y-68162952D01*
X74861317Y-68044081D01*
X74861316Y-68044080D01*
X74774504Y-67993960D01*
X74774504Y-67993959D01*
X74774500Y-67993958D01*
X74724385Y-67965023D01*
X74701512Y-67958894D01*
X74641854Y-67922530D01*
X74611325Y-67859683D01*
X74613833Y-67807026D01*
X74656040Y-67649507D01*
X74656041Y-67649499D01*
X74675866Y-67422902D01*
X74675866Y-67422897D01*
X74656041Y-67196300D01*
X74656039Y-67196289D01*
X74597169Y-66976582D01*
X74597164Y-66976568D01*
X74501036Y-66770421D01*
X74501032Y-66770413D01*
X74449925Y-66697426D01*
X73770900Y-67376451D01*
X73770900Y-67370239D01*
X73743641Y-67268506D01*
X73690980Y-67177294D01*
X73616506Y-67102820D01*
X73525294Y-67050159D01*
X73423561Y-67022900D01*
X73417347Y-67022900D01*
X74096372Y-66343874D01*
X74023380Y-66292764D01*
X73942998Y-66255281D01*
X73890559Y-66209108D01*
X73871407Y-66141914D01*
X73891623Y-66075033D01*
X73942999Y-66030516D01*
X74023384Y-65993032D01*
X74209720Y-65862557D01*
X74370557Y-65701720D01*
X74501034Y-65515382D01*
X74597165Y-65309226D01*
X74597169Y-65309217D01*
X74649772Y-65112900D01*
X73686586Y-65112900D01*
X73690980Y-65108506D01*
X73743641Y-65017294D01*
X73770900Y-64915561D01*
X73770900Y-64810239D01*
X73743641Y-64708506D01*
X73690980Y-64617294D01*
X73686586Y-64612900D01*
X74649772Y-64612900D01*
X74649772Y-64612899D01*
X74597169Y-64416582D01*
X74597165Y-64416573D01*
X74501034Y-64210417D01*
X74370557Y-64024079D01*
X74209720Y-63863242D01*
X74023382Y-63732765D01*
X73817228Y-63636634D01*
X73620900Y-63584027D01*
X73620900Y-64547214D01*
X73616506Y-64542820D01*
X73525294Y-64490159D01*
X73423561Y-64462900D01*
X73318239Y-64462900D01*
X73216506Y-64490159D01*
X73125294Y-64542820D01*
X73120900Y-64547214D01*
X73120900Y-63584027D01*
X73120899Y-63584026D01*
X73025494Y-63609591D01*
X72955644Y-63607928D01*
X72897781Y-63568766D01*
X72870277Y-63504537D01*
X72869400Y-63489816D01*
X72869400Y-56104997D01*
X72889085Y-56037958D01*
X72905717Y-56017318D01*
X72928191Y-55994843D01*
X72989513Y-55961356D01*
X73047966Y-55962746D01*
X73144208Y-55988535D01*
X73306130Y-56002701D01*
X73370898Y-56008368D01*
X73370900Y-56008368D01*
X73370902Y-56008368D01*
X73427573Y-56003409D01*
X73597592Y-55988535D01*
X73817396Y-55929639D01*
X74023634Y-55833468D01*
X74210039Y-55702947D01*
X74370947Y-55542039D01*
X74501468Y-55355634D01*
X74597639Y-55149396D01*
X74656535Y-54929592D01*
X74676368Y-54702900D01*
X74675798Y-54696389D01*
X74664587Y-54568240D01*
X74656535Y-54476208D01*
X74597639Y-54256404D01*
X74501468Y-54050166D01*
X74373554Y-53867484D01*
X74370945Y-53863758D01*
X74210041Y-53702854D01*
X74023634Y-53572332D01*
X74023628Y-53572329D01*
X73965625Y-53545282D01*
X73913185Y-53499110D01*
X73894033Y-53431917D01*
X73914248Y-53365035D01*
X73965625Y-53320518D01*
X73977525Y-53314969D01*
X74023634Y-53293468D01*
X74210039Y-53162947D01*
X74370947Y-53002039D01*
X74501468Y-52815634D01*
X74597639Y-52609396D01*
X74656535Y-52389592D01*
X74675565Y-52172074D01*
X74676368Y-52162901D01*
X74676368Y-52162898D01*
X74670701Y-52098130D01*
X74656535Y-51936208D01*
X74597639Y-51716404D01*
X74501468Y-51510166D01*
X74393909Y-51356555D01*
X74370945Y-51323758D01*
X74210041Y-51162854D01*
X74023634Y-51032332D01*
X74023632Y-51032331D01*
X73817397Y-50936161D01*
X73817388Y-50936158D01*
X73597597Y-50877266D01*
X73597593Y-50877265D01*
X73597592Y-50877265D01*
X73597591Y-50877264D01*
X73597586Y-50877264D01*
X73370902Y-50857432D01*
X73370898Y-50857432D01*
X73144213Y-50877264D01*
X73144202Y-50877266D01*
X73047967Y-50903052D01*
X72978117Y-50901389D01*
X72928193Y-50870958D01*
X72902919Y-50845684D01*
X72869434Y-50784361D01*
X72866600Y-50758003D01*
X72866600Y-47268974D01*
X72886285Y-47201935D01*
X72939089Y-47156180D01*
X73008247Y-47146236D01*
X73071803Y-47175261D01*
G37*
G04 #@! TD.AperFunction*
G04 #@! TA.AperFunction,Conductor*
G36*
X131132003Y-60879824D02*
G01*
X131150066Y-60899226D01*
X131218352Y-60990444D01*
X131218355Y-60990447D01*
X131333564Y-61076693D01*
X131333571Y-61076697D01*
X131464981Y-61125710D01*
X131520915Y-61167581D01*
X131545332Y-61233045D01*
X131530480Y-61301318D01*
X131509330Y-61329573D01*
X131387403Y-61451500D01*
X131251865Y-61645069D01*
X131251864Y-61645071D01*
X131163182Y-61835251D01*
X131117010Y-61887690D01*
X131049816Y-61906842D01*
X130982935Y-61886626D01*
X130937600Y-61833461D01*
X130926800Y-61782846D01*
X130926800Y-60973537D01*
X130946485Y-60906498D01*
X130999289Y-60860743D01*
X131068447Y-60850799D01*
X131132003Y-60879824D01*
G37*
G04 #@! TD.AperFunction*
G04 #@! TA.AperFunction,Conductor*
G36*
X134545900Y-56025561D02*
G01*
X134573159Y-56127294D01*
X134625820Y-56218506D01*
X134700294Y-56292980D01*
X134791506Y-56345641D01*
X134893239Y-56372900D01*
X134899451Y-56372900D01*
X134220426Y-57051925D01*
X134293413Y-57103032D01*
X134293421Y-57103036D01*
X134499568Y-57199164D01*
X134499582Y-57199169D01*
X134719289Y-57258039D01*
X134719300Y-57258041D01*
X134945898Y-57277866D01*
X134945902Y-57277866D01*
X135172499Y-57258041D01*
X135172506Y-57258040D01*
X135361006Y-57207531D01*
X135430856Y-57209194D01*
X135488718Y-57248356D01*
X135516223Y-57312584D01*
X135517100Y-57327306D01*
X135517100Y-58308400D01*
X135497415Y-58375439D01*
X135444611Y-58421194D01*
X135393100Y-58432400D01*
X134068029Y-58432400D01*
X134068023Y-58432401D01*
X134008416Y-58438808D01*
X133873571Y-58489102D01*
X133873569Y-58489103D01*
X133770211Y-58566478D01*
X133704747Y-58590895D01*
X133636474Y-58576044D01*
X133621589Y-58566478D01*
X133518230Y-58489103D01*
X133518228Y-58489102D01*
X133383382Y-58438808D01*
X133383383Y-58438808D01*
X133323783Y-58432401D01*
X133323781Y-58432400D01*
X133323773Y-58432400D01*
X133323764Y-58432400D01*
X131528029Y-58432400D01*
X131528023Y-58432401D01*
X131468416Y-58438808D01*
X131333571Y-58489102D01*
X131333564Y-58489106D01*
X131218355Y-58575352D01*
X131218352Y-58575355D01*
X131132106Y-58690564D01*
X131132102Y-58690571D01*
X131107626Y-58756196D01*
X131065755Y-58812130D01*
X131000290Y-58836547D01*
X130932017Y-58821695D01*
X130884057Y-58774863D01*
X130806822Y-58641087D01*
X130806821Y-58641086D01*
X130806820Y-58641084D01*
X130695016Y-58529280D01*
X130695015Y-58529279D01*
X130690685Y-58524949D01*
X130690674Y-58524939D01*
X130345816Y-58180081D01*
X130312331Y-58118758D01*
X130317315Y-58049066D01*
X130359187Y-57993133D01*
X130424651Y-57968716D01*
X130433497Y-57968400D01*
X131247357Y-57968400D01*
X131341651Y-57949642D01*
X131387520Y-57940519D01*
X131519553Y-57885829D01*
X131543286Y-57869971D01*
X131557587Y-57860416D01*
X131602594Y-57830343D01*
X131638380Y-57806432D01*
X132148039Y-57296771D01*
X132209362Y-57263287D01*
X132246526Y-57260925D01*
X132321384Y-57267474D01*
X132445898Y-57278368D01*
X132445900Y-57278368D01*
X132445902Y-57278368D01*
X132502573Y-57273409D01*
X132672592Y-57258535D01*
X132892396Y-57199639D01*
X133098634Y-57103468D01*
X133285039Y-56972947D01*
X133445947Y-56812039D01*
X133576468Y-56625634D01*
X133583793Y-56609924D01*
X133629964Y-56557486D01*
X133697157Y-56538333D01*
X133764038Y-56558548D01*
X133808557Y-56609924D01*
X133815764Y-56625380D01*
X133866874Y-56698372D01*
X134545900Y-56019346D01*
X134545900Y-56025561D01*
G37*
G04 #@! TD.AperFunction*
G04 #@! TA.AperFunction,Conductor*
G36*
X120166555Y-33143346D02*
G01*
X120224418Y-33182508D01*
X120251922Y-33246737D01*
X120252799Y-33261458D01*
X120252799Y-33344546D01*
X120252800Y-33344559D01*
X120252800Y-36768400D01*
X120233115Y-36835439D01*
X120180311Y-36881194D01*
X120128800Y-36892400D01*
X118878029Y-36892400D01*
X118878023Y-36892401D01*
X118818416Y-36898808D01*
X118683571Y-36949102D01*
X118683564Y-36949106D01*
X118568355Y-37035352D01*
X118568352Y-37035355D01*
X118482106Y-37150564D01*
X118482102Y-37150571D01*
X118431808Y-37285417D01*
X118425401Y-37345016D01*
X118425400Y-37345035D01*
X118425400Y-39040770D01*
X118425401Y-39040776D01*
X118431808Y-39100383D01*
X118482102Y-39235228D01*
X118482106Y-39235235D01*
X118568352Y-39350444D01*
X118568355Y-39350447D01*
X118683564Y-39436693D01*
X118683571Y-39436697D01*
X118728518Y-39453461D01*
X118818417Y-39486991D01*
X118878027Y-39493400D01*
X119322103Y-39493399D01*
X119389141Y-39513083D01*
X119434896Y-39565887D01*
X119444840Y-39635046D01*
X119415815Y-39698602D01*
X119409788Y-39705076D01*
X119400386Y-39714478D01*
X119288581Y-39826282D01*
X119288575Y-39826290D01*
X119252651Y-39888514D01*
X119252651Y-39888516D01*
X119209523Y-39963214D01*
X119209523Y-39963215D01*
X119168599Y-40115943D01*
X119168599Y-40115945D01*
X119168599Y-40284046D01*
X119168600Y-40284059D01*
X119168600Y-49068802D01*
X119148915Y-49135841D01*
X119132281Y-49156483D01*
X118921684Y-49367081D01*
X118860361Y-49400566D01*
X118834003Y-49403400D01*
X117387312Y-49403400D01*
X117320273Y-49383715D01*
X117309997Y-49376345D01*
X117307163Y-49374085D01*
X117307162Y-49374084D01*
X117211716Y-49314111D01*
X117154423Y-49278111D01*
X116984154Y-49218531D01*
X116984149Y-49218530D01*
X116804904Y-49198335D01*
X116804896Y-49198335D01*
X116625650Y-49218530D01*
X116625645Y-49218531D01*
X116455376Y-49278111D01*
X116302637Y-49374084D01*
X116175084Y-49501637D01*
X116079111Y-49654376D01*
X116019531Y-49824645D01*
X116019530Y-49824650D01*
X115999335Y-50003896D01*
X115999335Y-50003903D01*
X116019530Y-50183149D01*
X116019531Y-50183154D01*
X116079111Y-50353423D01*
X116140374Y-50450921D01*
X116175084Y-50506162D01*
X116302638Y-50633716D01*
X116344216Y-50659841D01*
X116434680Y-50716684D01*
X116455378Y-50729689D01*
X116536295Y-50758003D01*
X116625645Y-50789268D01*
X116625650Y-50789269D01*
X116804896Y-50809465D01*
X116804900Y-50809465D01*
X116804904Y-50809465D01*
X116984149Y-50789269D01*
X116984152Y-50789268D01*
X116984155Y-50789268D01*
X117154422Y-50729689D01*
X117307162Y-50633716D01*
X117307167Y-50633710D01*
X117309997Y-50631455D01*
X117312175Y-50630565D01*
X117313058Y-50630011D01*
X117313155Y-50630165D01*
X117374683Y-50605045D01*
X117387312Y-50604400D01*
X119047431Y-50604400D01*
X119047447Y-50604401D01*
X119053776Y-50604401D01*
X119055480Y-50604901D01*
X119062811Y-50605358D01*
X119062819Y-50605359D01*
X119062614Y-50606996D01*
X119120815Y-50624086D01*
X119166570Y-50676890D01*
X119176995Y-50742284D01*
X119176968Y-50742531D01*
X119174335Y-50765900D01*
X119174335Y-50765903D01*
X119194530Y-50945149D01*
X119194531Y-50945154D01*
X119254111Y-51115423D01*
X119327335Y-51231957D01*
X119350084Y-51268162D01*
X119477638Y-51395716D01*
X119630378Y-51491689D01*
X119800645Y-51551268D01*
X119887569Y-51561061D01*
X119951980Y-51588126D01*
X119961365Y-51596600D01*
X120189081Y-51824316D01*
X120222566Y-51885639D01*
X120225400Y-51911997D01*
X120225400Y-52059280D01*
X120205715Y-52126319D01*
X120152911Y-52172074D01*
X120083753Y-52182018D01*
X120069307Y-52179055D01*
X119952510Y-52147760D01*
X119952499Y-52147758D01*
X119725902Y-52127934D01*
X119725898Y-52127934D01*
X119499300Y-52147758D01*
X119499289Y-52147760D01*
X119279582Y-52206630D01*
X119279573Y-52206634D01*
X119073416Y-52302766D01*
X119073412Y-52302768D01*
X119000426Y-52353873D01*
X119000426Y-52353874D01*
X119679453Y-53032900D01*
X119673239Y-53032900D01*
X119571506Y-53060159D01*
X119480294Y-53112820D01*
X119405820Y-53187294D01*
X119353159Y-53278506D01*
X119325900Y-53380239D01*
X119325900Y-53386452D01*
X118646874Y-52707426D01*
X118646873Y-52707426D01*
X118595768Y-52780412D01*
X118595766Y-52780416D01*
X118499634Y-52986573D01*
X118499630Y-52986582D01*
X118440760Y-53206289D01*
X118440758Y-53206300D01*
X118420934Y-53432897D01*
X118420934Y-53432902D01*
X118440758Y-53659499D01*
X118440760Y-53659510D01*
X118499630Y-53879217D01*
X118499635Y-53879231D01*
X118595763Y-54085378D01*
X118646874Y-54158372D01*
X119325900Y-53479346D01*
X119325900Y-53485561D01*
X119353159Y-53587294D01*
X119405820Y-53678506D01*
X119480294Y-53752980D01*
X119571506Y-53805641D01*
X119673239Y-53832900D01*
X119679451Y-53832900D01*
X119000426Y-54511925D01*
X119073413Y-54563032D01*
X119078107Y-54565742D01*
X119077114Y-54567461D01*
X119123028Y-54607872D01*
X119142193Y-54675062D01*
X119121991Y-54741947D01*
X119105878Y-54761784D01*
X117386583Y-56481081D01*
X116817186Y-57050478D01*
X116817184Y-57050480D01*
X116780599Y-57087065D01*
X116750153Y-57117511D01*
X116688829Y-57150995D01*
X116619138Y-57146010D01*
X116563204Y-57104139D01*
X116555084Y-57091828D01*
X116553577Y-57089219D01*
X116553577Y-57089216D01*
X116474520Y-56952284D01*
X115768489Y-56246254D01*
X115768488Y-56246252D01*
X115741122Y-56218886D01*
X115707637Y-56157563D01*
X115712621Y-56087871D01*
X115727230Y-56060079D01*
X115776034Y-55990382D01*
X115776036Y-55990378D01*
X115872164Y-55784231D01*
X115872169Y-55784217D01*
X115924772Y-55587900D01*
X114961586Y-55587900D01*
X114965980Y-55583506D01*
X115018641Y-55492294D01*
X115045900Y-55390561D01*
X115045900Y-55285239D01*
X115018641Y-55183506D01*
X114965980Y-55092294D01*
X114961586Y-55087900D01*
X115924772Y-55087900D01*
X115924772Y-55087899D01*
X115872169Y-54891582D01*
X115872165Y-54891573D01*
X115776034Y-54685417D01*
X115645557Y-54499079D01*
X115484720Y-54338242D01*
X115298382Y-54207765D01*
X115092228Y-54111634D01*
X114895900Y-54059027D01*
X114895900Y-55022214D01*
X114891506Y-55017820D01*
X114800294Y-54965159D01*
X114698561Y-54937900D01*
X114593239Y-54937900D01*
X114491506Y-54965159D01*
X114400294Y-55017820D01*
X114395900Y-55022214D01*
X114395900Y-54059027D01*
X114199571Y-54111634D01*
X113993417Y-54207765D01*
X113807079Y-54338242D01*
X113646242Y-54499079D01*
X113515767Y-54685415D01*
X113488557Y-54743767D01*
X113442384Y-54796206D01*
X113375190Y-54815357D01*
X113308309Y-54795141D01*
X113263793Y-54743765D01*
X113262945Y-54741947D01*
X113236468Y-54685166D01*
X113115596Y-54512541D01*
X113105945Y-54498758D01*
X112945041Y-54337854D01*
X112758634Y-54207332D01*
X112758632Y-54207331D01*
X112552397Y-54111161D01*
X112552388Y-54111158D01*
X112332597Y-54052266D01*
X112332593Y-54052265D01*
X112332592Y-54052265D01*
X112332591Y-54052264D01*
X112332586Y-54052264D01*
X112105902Y-54032432D01*
X112105898Y-54032432D01*
X111879213Y-54052264D01*
X111879202Y-54052266D01*
X111758093Y-54084717D01*
X111688243Y-54083054D01*
X111630381Y-54043891D01*
X111602877Y-53979662D01*
X111602000Y-53964942D01*
X111602000Y-53519443D01*
X111601559Y-53517800D01*
X111601550Y-53517764D01*
X111589154Y-53471500D01*
X111561077Y-53366716D01*
X111561073Y-53366709D01*
X111482024Y-53229790D01*
X111482021Y-53229786D01*
X111482020Y-53229784D01*
X111370216Y-53117980D01*
X111370215Y-53117979D01*
X111365885Y-53113649D01*
X111365874Y-53113639D01*
X111031600Y-52779365D01*
X110998115Y-52718042D01*
X110996063Y-52705586D01*
X110986268Y-52618645D01*
X110926689Y-52448378D01*
X110891176Y-52391860D01*
X110845001Y-52318372D01*
X110826001Y-52251135D01*
X110846369Y-52184300D01*
X110899637Y-52139086D01*
X110949995Y-52128400D01*
X111384231Y-52128400D01*
X111384247Y-52128401D01*
X111391843Y-52128401D01*
X111549954Y-52128401D01*
X111549957Y-52128401D01*
X111702685Y-52087477D01*
X111752804Y-52058539D01*
X111839616Y-52008420D01*
X111951420Y-51896616D01*
X111951420Y-51896614D01*
X111961628Y-51886407D01*
X111961629Y-51886404D01*
X112586420Y-51261616D01*
X112665477Y-51124684D01*
X112706401Y-50971957D01*
X112706401Y-50813842D01*
X112706401Y-50806247D01*
X112706400Y-50806229D01*
X112706400Y-48949592D01*
X112726085Y-48882553D01*
X112759274Y-48848019D01*
X112945039Y-48717947D01*
X113105947Y-48557039D01*
X113236468Y-48370634D01*
X113263518Y-48312624D01*
X113309690Y-48260185D01*
X113376883Y-48241033D01*
X113443765Y-48261248D01*
X113488281Y-48312624D01*
X113499835Y-48337400D01*
X113515329Y-48370628D01*
X113515332Y-48370634D01*
X113645854Y-48557041D01*
X113806758Y-48717945D01*
X113806761Y-48717947D01*
X113993166Y-48848468D01*
X114199404Y-48944639D01*
X114199409Y-48944640D01*
X114199411Y-48944641D01*
X114252315Y-48958816D01*
X114419208Y-49003535D01*
X114581130Y-49017701D01*
X114645898Y-49023368D01*
X114645900Y-49023368D01*
X114645902Y-49023368D01*
X114702573Y-49018409D01*
X114872592Y-49003535D01*
X115092396Y-48944639D01*
X115298634Y-48848468D01*
X115485039Y-48717947D01*
X115645947Y-48557039D01*
X115776468Y-48370634D01*
X115872639Y-48164396D01*
X115931535Y-47944592D01*
X115948534Y-47750284D01*
X115951368Y-47717901D01*
X115951368Y-47717898D01*
X115942217Y-47613303D01*
X115931535Y-47491208D01*
X115909879Y-47410386D01*
X115911542Y-47340538D01*
X115950704Y-47282675D01*
X116014933Y-47255171D01*
X116083835Y-47266757D01*
X116117335Y-47290613D01*
X116153538Y-47326816D01*
X116306278Y-47422789D01*
X116335051Y-47432857D01*
X116476545Y-47482368D01*
X116476550Y-47482369D01*
X116655796Y-47502565D01*
X116655800Y-47502565D01*
X116655804Y-47502565D01*
X116835049Y-47482369D01*
X116835052Y-47482368D01*
X116835055Y-47482368D01*
X117005322Y-47422789D01*
X117158062Y-47326816D01*
X117285616Y-47199262D01*
X117381589Y-47046522D01*
X117441168Y-46876255D01*
X117441169Y-46876249D01*
X117461365Y-46697003D01*
X117461365Y-46696996D01*
X117441169Y-46517750D01*
X117441168Y-46517745D01*
X117431866Y-46491161D01*
X117381589Y-46347478D01*
X117376567Y-46339486D01*
X117348445Y-46294730D01*
X117285616Y-46194738D01*
X117285614Y-46194736D01*
X117285613Y-46194734D01*
X117283350Y-46191896D01*
X117282459Y-46189715D01*
X117281911Y-46188842D01*
X117282064Y-46188745D01*
X117256944Y-46127209D01*
X117256300Y-46114587D01*
X117256300Y-35213096D01*
X117275985Y-35146057D01*
X117292614Y-35125420D01*
X119242370Y-33175663D01*
X119303691Y-33142180D01*
X119362138Y-33143570D01*
X119490492Y-33177963D01*
X119666934Y-33193400D01*
X119725899Y-33198559D01*
X119725900Y-33198559D01*
X119725901Y-33198559D01*
X119784866Y-33193400D01*
X119961308Y-33177963D01*
X120096708Y-33141683D01*
X120166555Y-33143346D01*
G37*
G04 #@! TD.AperFunction*
G04 #@! TA.AperFunction,Conductor*
G36*
X129502494Y-33086025D02*
G01*
X129659293Y-33128040D01*
X129659300Y-33128041D01*
X129885898Y-33147866D01*
X129885902Y-33147866D01*
X130112499Y-33128041D01*
X130112510Y-33128039D01*
X130153245Y-33117125D01*
X130185338Y-33112900D01*
X131020127Y-33112900D01*
X131087166Y-33132585D01*
X131132921Y-33185389D01*
X131142865Y-33254547D01*
X131133815Y-33281741D01*
X131135203Y-33282259D01*
X131081808Y-33425417D01*
X131075401Y-33485016D01*
X131075400Y-33485035D01*
X131075400Y-35280770D01*
X131075401Y-35280776D01*
X131081808Y-35340383D01*
X131132102Y-35475228D01*
X131132106Y-35475235D01*
X131218352Y-35590444D01*
X131218355Y-35590447D01*
X131333564Y-35676693D01*
X131333571Y-35676697D01*
X131464981Y-35725710D01*
X131520915Y-35767581D01*
X131545332Y-35833045D01*
X131530480Y-35901318D01*
X131509330Y-35929573D01*
X131387403Y-36051500D01*
X131251865Y-36245069D01*
X131251864Y-36245071D01*
X131151998Y-36459235D01*
X131151994Y-36459244D01*
X131090838Y-36687486D01*
X131090836Y-36687496D01*
X131071609Y-36907265D01*
X131070241Y-36922900D01*
X131075720Y-36985519D01*
X131090836Y-37158303D01*
X131090838Y-37158313D01*
X131151994Y-37386555D01*
X131151996Y-37386559D01*
X131151997Y-37386563D01*
X131222474Y-37537700D01*
X131251865Y-37600730D01*
X131251867Y-37600734D01*
X131342890Y-37730727D01*
X131387401Y-37794296D01*
X131387406Y-37794302D01*
X131554497Y-37961393D01*
X131554503Y-37961398D01*
X131740058Y-38091325D01*
X131783683Y-38145902D01*
X131790877Y-38215400D01*
X131759354Y-38277755D01*
X131740058Y-38294475D01*
X131554497Y-38424405D01*
X131387405Y-38591497D01*
X131251865Y-38785069D01*
X131251864Y-38785071D01*
X131151998Y-38999235D01*
X131151994Y-38999244D01*
X131090838Y-39227486D01*
X131090836Y-39227496D01*
X131070241Y-39462899D01*
X131070241Y-39462900D01*
X131090836Y-39698303D01*
X131090838Y-39698313D01*
X131151994Y-39926555D01*
X131151996Y-39926559D01*
X131151997Y-39926563D01*
X131195026Y-40018839D01*
X131204745Y-40039681D01*
X131215237Y-40108759D01*
X131186717Y-40172543D01*
X131158347Y-40197072D01*
X131156745Y-40198078D01*
X131156735Y-40198086D01*
X131029184Y-40325637D01*
X130933210Y-40478378D01*
X130874246Y-40646890D01*
X130833524Y-40703667D01*
X130768571Y-40729414D01*
X130743322Y-40729156D01*
X130688104Y-40722935D01*
X130688096Y-40722935D01*
X130508850Y-40743130D01*
X130508845Y-40743131D01*
X130338576Y-40802711D01*
X130185837Y-40898684D01*
X130058284Y-41026237D01*
X129962311Y-41178976D01*
X129902731Y-41349245D01*
X129902730Y-41349250D01*
X129882535Y-41528496D01*
X129882535Y-41528503D01*
X129902730Y-41707749D01*
X129902731Y-41707754D01*
X129962311Y-41878023D01*
X130058285Y-42030763D01*
X130060545Y-42033597D01*
X130061434Y-42035775D01*
X130061989Y-42036658D01*
X130061834Y-42036755D01*
X130086955Y-42098283D01*
X130087600Y-42110912D01*
X130087600Y-49823430D01*
X130087599Y-49823448D01*
X130087599Y-49989154D01*
X130087598Y-49989154D01*
X130128523Y-50141886D01*
X130128524Y-50141887D01*
X130151386Y-50181485D01*
X130198818Y-50263640D01*
X130207581Y-50278817D01*
X130326449Y-50397685D01*
X130326455Y-50397690D01*
X131244997Y-51316232D01*
X131278482Y-51377555D01*
X131273498Y-51447247D01*
X131258894Y-51475032D01*
X131251866Y-51485069D01*
X131251864Y-51485072D01*
X131151997Y-51699235D01*
X131151994Y-51699244D01*
X131090838Y-51927486D01*
X131090836Y-51927496D01*
X131070241Y-52162899D01*
X131070241Y-52162900D01*
X131090836Y-52398303D01*
X131090838Y-52398313D01*
X131151994Y-52626555D01*
X131151996Y-52626559D01*
X131151997Y-52626563D01*
X131217127Y-52766234D01*
X131251865Y-52840730D01*
X131251867Y-52840734D01*
X131333981Y-52958004D01*
X131387405Y-53034301D01*
X131554499Y-53201395D01*
X131650099Y-53268335D01*
X131748065Y-53336932D01*
X131748067Y-53336933D01*
X131748070Y-53336935D01*
X131962237Y-53436803D01*
X131962243Y-53436804D01*
X131962244Y-53436805D01*
X132014531Y-53450815D01*
X132190492Y-53497963D01*
X132344006Y-53511394D01*
X132425899Y-53518559D01*
X132425900Y-53518559D01*
X132425901Y-53518559D01*
X132495690Y-53512453D01*
X132661308Y-53497963D01*
X132889563Y-53436803D01*
X133103730Y-53336935D01*
X133297301Y-53201395D01*
X133464395Y-53034301D01*
X133594325Y-52848742D01*
X133648902Y-52805117D01*
X133718400Y-52797923D01*
X133780755Y-52829446D01*
X133797475Y-52848742D01*
X133927400Y-53034295D01*
X133927405Y-53034301D01*
X134094499Y-53201395D01*
X134190099Y-53268335D01*
X134288065Y-53336932D01*
X134288067Y-53336933D01*
X134288070Y-53336935D01*
X134502237Y-53436803D01*
X134502243Y-53436804D01*
X134502244Y-53436805D01*
X134554531Y-53450815D01*
X134730492Y-53497963D01*
X134884006Y-53511394D01*
X134965899Y-53518559D01*
X134965900Y-53518559D01*
X134965901Y-53518559D01*
X135035690Y-53512453D01*
X135201308Y-53497963D01*
X135361008Y-53455172D01*
X135430857Y-53456835D01*
X135488719Y-53495998D01*
X135516223Y-53560226D01*
X135517100Y-53574947D01*
X135517100Y-54618492D01*
X135497415Y-54685531D01*
X135444611Y-54731286D01*
X135375453Y-54741230D01*
X135361007Y-54738267D01*
X135172510Y-54687760D01*
X135172499Y-54687758D01*
X134945902Y-54667934D01*
X134945898Y-54667934D01*
X134719300Y-54687758D01*
X134719289Y-54687760D01*
X134499582Y-54746630D01*
X134499573Y-54746634D01*
X134293416Y-54842766D01*
X134293412Y-54842768D01*
X134220426Y-54893873D01*
X134220426Y-54893874D01*
X134899453Y-55572900D01*
X134893239Y-55572900D01*
X134791506Y-55600159D01*
X134700294Y-55652820D01*
X134625820Y-55727294D01*
X134573159Y-55818506D01*
X134545900Y-55920239D01*
X134545900Y-55926452D01*
X133866874Y-55247426D01*
X133866873Y-55247426D01*
X133815768Y-55320412D01*
X133815767Y-55320414D01*
X133808556Y-55335879D01*
X133762382Y-55388317D01*
X133695188Y-55407467D01*
X133628307Y-55387250D01*
X133583793Y-55335876D01*
X133576468Y-55320166D01*
X133445947Y-55133761D01*
X133445945Y-55133758D01*
X133285041Y-54972854D01*
X133098634Y-54842332D01*
X133098632Y-54842331D01*
X132892397Y-54746161D01*
X132892388Y-54746158D01*
X132672597Y-54687266D01*
X132672593Y-54687265D01*
X132672592Y-54687265D01*
X132672591Y-54687264D01*
X132672586Y-54687264D01*
X132445902Y-54667432D01*
X132445898Y-54667432D01*
X132246528Y-54684874D01*
X132178028Y-54671107D01*
X132148040Y-54649027D01*
X131653382Y-54154369D01*
X131593277Y-54114209D01*
X131534553Y-54074971D01*
X131517258Y-54067807D01*
X131402521Y-54020281D01*
X131401697Y-54020117D01*
X131399177Y-54019616D01*
X131262357Y-53992400D01*
X131262355Y-53992400D01*
X130411403Y-53992400D01*
X130344364Y-53972715D01*
X130323722Y-53956081D01*
X129997719Y-53630077D01*
X129964234Y-53568754D01*
X129961400Y-53542396D01*
X129961400Y-52691442D01*
X129933520Y-52551285D01*
X129933519Y-52551284D01*
X129933519Y-52551280D01*
X129878829Y-52419247D01*
X129878795Y-52419196D01*
X129878766Y-52419152D01*
X129878766Y-52419153D01*
X129878731Y-52419100D01*
X129799432Y-52300420D01*
X129799430Y-52300417D01*
X128449061Y-50950048D01*
X128449038Y-50950027D01*
X128107719Y-50608707D01*
X128074234Y-50547384D01*
X128071400Y-50521026D01*
X128071400Y-43009316D01*
X128078359Y-42968361D01*
X128131266Y-42817162D01*
X128131269Y-42817149D01*
X128151465Y-42637903D01*
X128151465Y-42637896D01*
X128131269Y-42458650D01*
X128131266Y-42458637D01*
X128078359Y-42307438D01*
X128071400Y-42266483D01*
X128071400Y-39337067D01*
X128091085Y-39270028D01*
X128124275Y-39235493D01*
X128185039Y-39192947D01*
X128345947Y-39032039D01*
X128476468Y-38845634D01*
X128572639Y-38639396D01*
X128631535Y-38419592D01*
X128651368Y-38192900D01*
X128649816Y-38175166D01*
X128633925Y-37993527D01*
X128647692Y-37925027D01*
X128669772Y-37895039D01*
X128905755Y-37659057D01*
X129184432Y-37380380D01*
X129263829Y-37261553D01*
X129318519Y-37129520D01*
X129337250Y-37035354D01*
X129346400Y-36989357D01*
X129346400Y-33205800D01*
X129366085Y-33138761D01*
X129418889Y-33093006D01*
X129488047Y-33083062D01*
X129502494Y-33086025D01*
G37*
G04 #@! TD.AperFunction*
G04 #@! TA.AperFunction,Conductor*
G36*
X114895900Y-45186772D02*
G01*
X115092217Y-45134169D01*
X115092226Y-45134165D01*
X115298382Y-45038034D01*
X115484720Y-44907557D01*
X115645557Y-44746720D01*
X115776033Y-44560382D01*
X115818918Y-44468417D01*
X115865090Y-44415978D01*
X115932284Y-44396826D01*
X115999165Y-44417042D01*
X116044499Y-44470207D01*
X116055300Y-44520822D01*
X116055300Y-46114587D01*
X116035615Y-46181626D01*
X116028250Y-46191896D01*
X116025986Y-46194734D01*
X115930011Y-46347476D01*
X115870431Y-46517745D01*
X115870430Y-46517750D01*
X115850235Y-46696996D01*
X115850235Y-46697005D01*
X115859577Y-46779926D01*
X115847522Y-46848748D01*
X115800172Y-46900126D01*
X115732562Y-46917750D01*
X115666156Y-46896023D01*
X115648676Y-46881489D01*
X115485041Y-46717854D01*
X115298634Y-46587332D01*
X115298632Y-46587331D01*
X115092397Y-46491161D01*
X115092388Y-46491158D01*
X114872597Y-46432266D01*
X114872593Y-46432265D01*
X114872592Y-46432265D01*
X114872591Y-46432264D01*
X114872586Y-46432264D01*
X114645902Y-46412432D01*
X114645898Y-46412432D01*
X114419213Y-46432264D01*
X114419202Y-46432266D01*
X114199411Y-46491158D01*
X114199402Y-46491161D01*
X113993167Y-46587331D01*
X113993165Y-46587332D01*
X113806758Y-46717854D01*
X113645854Y-46878758D01*
X113515332Y-47065165D01*
X113515331Y-47065167D01*
X113488282Y-47123175D01*
X113442109Y-47175614D01*
X113374916Y-47194766D01*
X113308035Y-47174550D01*
X113263518Y-47123175D01*
X113236468Y-47065166D01*
X113105947Y-46878761D01*
X113105945Y-46878758D01*
X112986941Y-46759754D01*
X112953456Y-46698431D01*
X112958440Y-46628739D01*
X112986938Y-46584395D01*
X114001320Y-45570016D01*
X114080377Y-45433084D01*
X114121301Y-45280357D01*
X114121301Y-45274793D01*
X114140986Y-45207754D01*
X114193790Y-45161999D01*
X114262948Y-45152055D01*
X114277395Y-45155018D01*
X114395899Y-45186771D01*
X114395900Y-45186771D01*
X114395900Y-44223586D01*
X114400294Y-44227980D01*
X114491506Y-44280641D01*
X114593239Y-44307900D01*
X114698561Y-44307900D01*
X114800294Y-44280641D01*
X114891506Y-44227980D01*
X114895900Y-44223586D01*
X114895900Y-45186772D01*
G37*
G04 #@! TD.AperFunction*
G04 #@! TA.AperFunction,Conductor*
G36*
X89495900Y-37566772D02*
G01*
X89692217Y-37514169D01*
X89692226Y-37514165D01*
X89898382Y-37418034D01*
X90084719Y-37287558D01*
X90127839Y-37244438D01*
X90189162Y-37210952D01*
X90258853Y-37215936D01*
X90303201Y-37244436D01*
X93617184Y-40558420D01*
X93617186Y-40558421D01*
X93617190Y-40558424D01*
X93743460Y-40631325D01*
X93754116Y-40637477D01*
X93906843Y-40678401D01*
X93906845Y-40678401D01*
X93978592Y-40678401D01*
X94045631Y-40698086D01*
X94066273Y-40714720D01*
X94279453Y-40927900D01*
X94273239Y-40927900D01*
X94171506Y-40955159D01*
X94080294Y-41007820D01*
X94005820Y-41082294D01*
X93953159Y-41173506D01*
X93925900Y-41275239D01*
X93925900Y-41281452D01*
X93246874Y-40602426D01*
X93246873Y-40602426D01*
X93195768Y-40675412D01*
X93195766Y-40675416D01*
X93099634Y-40881573D01*
X93099630Y-40881582D01*
X93040760Y-41101289D01*
X93040758Y-41101300D01*
X93020934Y-41327897D01*
X93020934Y-41327902D01*
X93040758Y-41554499D01*
X93040760Y-41554510D01*
X93099630Y-41774217D01*
X93099635Y-41774231D01*
X93195763Y-41980378D01*
X93246874Y-42053372D01*
X93925900Y-41374346D01*
X93925900Y-41380561D01*
X93953159Y-41482294D01*
X94005820Y-41573506D01*
X94080294Y-41647980D01*
X94171506Y-41700641D01*
X94273239Y-41727900D01*
X94279451Y-41727900D01*
X93600426Y-42406925D01*
X93673413Y-42458032D01*
X93673421Y-42458036D01*
X93879568Y-42554164D01*
X93879582Y-42554169D01*
X94099289Y-42613039D01*
X94099300Y-42613041D01*
X94325898Y-42632866D01*
X94325902Y-42632866D01*
X94552499Y-42613041D01*
X94557839Y-42612100D01*
X94558064Y-42613379D01*
X94621643Y-42614887D01*
X94679509Y-42654044D01*
X94707020Y-42718270D01*
X94695440Y-42787174D01*
X94671582Y-42820681D01*
X94656989Y-42835275D01*
X94656986Y-42835278D01*
X94545181Y-42947082D01*
X94545179Y-42947084D01*
X94525515Y-42981145D01*
X94510357Y-43007400D01*
X94484962Y-43051385D01*
X94468184Y-43080446D01*
X94466123Y-43084015D01*
X94425199Y-43236743D01*
X94425199Y-43236745D01*
X94425199Y-43404846D01*
X94425200Y-43404859D01*
X94425200Y-43688903D01*
X94405515Y-43755942D01*
X94388881Y-43776584D01*
X93267581Y-44897884D01*
X93206258Y-44931369D01*
X93136566Y-44926385D01*
X93080633Y-44884513D01*
X93056216Y-44819049D01*
X93055900Y-44810203D01*
X93055900Y-44207336D01*
X93060125Y-44175242D01*
X93068174Y-44145200D01*
X93056330Y-44114560D01*
X93055900Y-44104244D01*
X93055900Y-43907900D01*
X92185900Y-43907900D01*
X92185900Y-43855239D01*
X92158641Y-43753506D01*
X92105980Y-43662294D01*
X92101586Y-43657900D01*
X93064772Y-43657900D01*
X93064772Y-43657899D01*
X93012169Y-43461582D01*
X93012165Y-43461573D01*
X92916034Y-43255417D01*
X92785557Y-43069079D01*
X92624720Y-42908242D01*
X92438382Y-42777765D01*
X92232228Y-42681634D01*
X92035900Y-42629027D01*
X92035900Y-43592214D01*
X92031506Y-43587820D01*
X91940294Y-43535159D01*
X91838561Y-43507900D01*
X91733239Y-43507900D01*
X91631506Y-43535159D01*
X91540294Y-43587820D01*
X91535900Y-43592214D01*
X91535900Y-42629027D01*
X91339571Y-42681634D01*
X91133417Y-42777765D01*
X90947079Y-42908242D01*
X90786242Y-43069079D01*
X90655767Y-43255415D01*
X90628557Y-43313767D01*
X90582384Y-43366206D01*
X90515190Y-43385357D01*
X90448309Y-43365141D01*
X90403793Y-43313765D01*
X90395456Y-43295887D01*
X90376468Y-43255166D01*
X90256628Y-43084015D01*
X90245945Y-43068758D01*
X90085041Y-42907854D01*
X89898634Y-42777332D01*
X89898632Y-42777331D01*
X89692397Y-42681161D01*
X89692388Y-42681158D01*
X89472597Y-42622266D01*
X89472593Y-42622265D01*
X89472592Y-42622265D01*
X89472591Y-42622264D01*
X89472586Y-42622264D01*
X89245902Y-42602432D01*
X89245898Y-42602432D01*
X89019213Y-42622264D01*
X89019202Y-42622266D01*
X88799411Y-42681158D01*
X88799402Y-42681161D01*
X88593167Y-42777331D01*
X88593165Y-42777332D01*
X88406758Y-42907854D01*
X88245854Y-43068758D01*
X88115332Y-43255165D01*
X88115331Y-43255167D01*
X88088282Y-43313175D01*
X88042109Y-43365614D01*
X87974916Y-43384766D01*
X87908035Y-43364550D01*
X87863518Y-43313175D01*
X87836468Y-43255166D01*
X87787587Y-43185356D01*
X87765261Y-43119152D01*
X87782271Y-43051385D01*
X87801480Y-43026555D01*
X87821420Y-43006616D01*
X87821420Y-43006614D01*
X87831625Y-42996410D01*
X87831628Y-42996405D01*
X88456420Y-42371616D01*
X88535477Y-42234684D01*
X88576401Y-42081957D01*
X88576401Y-41923842D01*
X88576401Y-41916247D01*
X88576400Y-41916229D01*
X88576400Y-37604739D01*
X88596085Y-37537700D01*
X88648889Y-37491945D01*
X88718047Y-37482001D01*
X88752806Y-37492357D01*
X88799578Y-37514167D01*
X88799582Y-37514169D01*
X88995899Y-37566772D01*
X88995900Y-37566771D01*
X88995900Y-36603586D01*
X89000294Y-36607980D01*
X89091506Y-36660641D01*
X89193239Y-36687900D01*
X89298561Y-36687900D01*
X89400294Y-36660641D01*
X89491506Y-36607980D01*
X89495900Y-36603586D01*
X89495900Y-37566772D01*
G37*
G04 #@! TD.AperFunction*
G04 #@! TA.AperFunction,Conductor*
G36*
X115999165Y-36798224D02*
G01*
X116044499Y-36851389D01*
X116055300Y-36902004D01*
X116055300Y-43294977D01*
X116035615Y-43362016D01*
X115982811Y-43407771D01*
X115913653Y-43417715D01*
X115850097Y-43388690D01*
X115818918Y-43347382D01*
X115776034Y-43255417D01*
X115645557Y-43069079D01*
X115484720Y-42908242D01*
X115298382Y-42777765D01*
X115092228Y-42681634D01*
X114895900Y-42629027D01*
X114895900Y-43592214D01*
X114891506Y-43587820D01*
X114800294Y-43535159D01*
X114698561Y-43507900D01*
X114593239Y-43507900D01*
X114491506Y-43535159D01*
X114400294Y-43587820D01*
X114395900Y-43592214D01*
X114395900Y-42629027D01*
X114395899Y-42629026D01*
X114277394Y-42660781D01*
X114207544Y-42659118D01*
X114149681Y-42619956D01*
X114122177Y-42555728D01*
X114121300Y-42541006D01*
X114121300Y-37655311D01*
X114140985Y-37588272D01*
X114193789Y-37542517D01*
X114262947Y-37532573D01*
X114277393Y-37535536D01*
X114419208Y-37573535D01*
X114581130Y-37587701D01*
X114645898Y-37593368D01*
X114645900Y-37593368D01*
X114645902Y-37593368D01*
X114704147Y-37588272D01*
X114872592Y-37573535D01*
X115092396Y-37514639D01*
X115298634Y-37418468D01*
X115485039Y-37287947D01*
X115645947Y-37127039D01*
X115776468Y-36940634D01*
X115818919Y-36849597D01*
X115865090Y-36797160D01*
X115932284Y-36778008D01*
X115999165Y-36798224D01*
G37*
G04 #@! TD.AperFunction*
G04 #@! TA.AperFunction,Conductor*
G36*
X88925820Y-36042294D02*
G01*
X88873159Y-36133506D01*
X88845900Y-36235239D01*
X88845900Y-36340561D01*
X88873159Y-36442294D01*
X88925820Y-36533506D01*
X88930214Y-36537900D01*
X88700400Y-36537900D01*
X88633361Y-36518215D01*
X88587606Y-36465411D01*
X88576400Y-36413900D01*
X88576400Y-36161900D01*
X88596085Y-36094861D01*
X88648889Y-36049106D01*
X88700400Y-36037900D01*
X88930214Y-36037900D01*
X88925820Y-36042294D01*
G37*
G04 #@! TD.AperFunction*
G04 #@! TA.AperFunction,Conductor*
G36*
X87318439Y-36057585D02*
G01*
X87364194Y-36110389D01*
X87375400Y-36161900D01*
X87375400Y-36163900D01*
X87355715Y-36230939D01*
X87302911Y-36276694D01*
X87251400Y-36287900D01*
X87105900Y-36287900D01*
X87105900Y-36235239D01*
X87078641Y-36133506D01*
X87025980Y-36042294D01*
X87021586Y-36037900D01*
X87251400Y-36037900D01*
X87318439Y-36057585D01*
G37*
G04 #@! TD.AperFunction*
G04 #@! TA.AperFunction,Conductor*
G36*
X87327286Y-28040185D02*
G01*
X87373041Y-28092989D01*
X87382985Y-28162147D01*
X87380022Y-28176586D01*
X87376027Y-28191499D01*
X87375399Y-28193843D01*
X87375399Y-28361946D01*
X87375400Y-28361959D01*
X87375400Y-34971060D01*
X87355715Y-35038099D01*
X87302911Y-35083854D01*
X87233753Y-35093798D01*
X87198996Y-35083442D01*
X87152230Y-35061635D01*
X86955900Y-35009027D01*
X86955900Y-35972214D01*
X86951506Y-35967820D01*
X86860294Y-35915159D01*
X86758561Y-35887900D01*
X86653239Y-35887900D01*
X86551506Y-35915159D01*
X86460294Y-35967820D01*
X86455900Y-35972214D01*
X86455900Y-35009027D01*
X86259569Y-35061635D01*
X86212804Y-35083442D01*
X86143726Y-35093934D01*
X86079943Y-35065414D01*
X86041704Y-35006937D01*
X86036400Y-34971060D01*
X86036400Y-33131990D01*
X86056085Y-33064951D01*
X86108001Y-33019606D01*
X86113730Y-33016935D01*
X86307301Y-32881395D01*
X86474395Y-32714301D01*
X86609935Y-32520730D01*
X86709803Y-32306563D01*
X86770963Y-32078308D01*
X86791559Y-31842900D01*
X86770963Y-31607492D01*
X86709803Y-31379237D01*
X86609935Y-31165071D01*
X86604325Y-31157058D01*
X86474394Y-30971497D01*
X86307302Y-30804406D01*
X86307295Y-30804401D01*
X86113734Y-30668867D01*
X86113730Y-30668865D01*
X86100760Y-30662817D01*
X85899563Y-30568997D01*
X85899559Y-30568996D01*
X85899555Y-30568994D01*
X85671313Y-30507838D01*
X85671303Y-30507836D01*
X85435901Y-30487241D01*
X85435899Y-30487241D01*
X85200496Y-30507836D01*
X85200486Y-30507838D01*
X84972244Y-30568994D01*
X84972235Y-30568998D01*
X84758071Y-30668864D01*
X84758069Y-30668865D01*
X84564500Y-30804403D01*
X84442573Y-30926330D01*
X84381250Y-30959814D01*
X84311558Y-30954830D01*
X84255625Y-30912958D01*
X84238710Y-30881981D01*
X84189697Y-30750571D01*
X84189693Y-30750564D01*
X84103447Y-30635355D01*
X84103444Y-30635352D01*
X83988235Y-30549106D01*
X83988228Y-30549102D01*
X83853382Y-30498808D01*
X83853383Y-30498808D01*
X83793783Y-30492401D01*
X83793781Y-30492400D01*
X83793773Y-30492400D01*
X83793764Y-30492400D01*
X81998029Y-30492400D01*
X81998023Y-30492401D01*
X81938416Y-30498808D01*
X81803571Y-30549102D01*
X81803564Y-30549106D01*
X81688355Y-30635352D01*
X81688352Y-30635355D01*
X81602106Y-30750564D01*
X81602103Y-30750569D01*
X81587097Y-30790804D01*
X81545225Y-30846737D01*
X81479761Y-30871154D01*
X81411488Y-30856302D01*
X81363529Y-30809471D01*
X81351419Y-30788497D01*
X80655303Y-30092381D01*
X80655302Y-30092380D01*
X80565475Y-30040519D01*
X80565474Y-30040518D01*
X80518369Y-30013322D01*
X80462467Y-29998343D01*
X80365643Y-29972399D01*
X80207529Y-29972399D01*
X80199933Y-29972399D01*
X80199917Y-29972400D01*
X78371842Y-29972400D01*
X78219114Y-30013323D01*
X78172011Y-30040519D01*
X78172010Y-30040519D01*
X78082187Y-30092377D01*
X78082182Y-30092381D01*
X77970378Y-30204186D01*
X77718482Y-30456081D01*
X77657159Y-30489566D01*
X77630801Y-30492400D01*
X76283029Y-30492400D01*
X76283023Y-30492401D01*
X76223416Y-30498808D01*
X76088571Y-30549102D01*
X76088564Y-30549106D01*
X75973355Y-30635352D01*
X75973352Y-30635355D01*
X75887106Y-30750564D01*
X75887102Y-30750571D01*
X75836808Y-30885417D01*
X75830401Y-30945016D01*
X75830400Y-30945035D01*
X75830400Y-32740770D01*
X75830401Y-32740776D01*
X75836808Y-32800383D01*
X75887102Y-32935228D01*
X75887106Y-32935235D01*
X75973352Y-33050444D01*
X75973355Y-33050447D01*
X76088564Y-33136693D01*
X76088571Y-33136697D01*
X76223417Y-33186991D01*
X76223416Y-33186991D01*
X76230344Y-33187735D01*
X76283027Y-33193400D01*
X77221802Y-33193399D01*
X77288841Y-33213083D01*
X77334596Y-33265887D01*
X77344540Y-33335046D01*
X77315515Y-33398602D01*
X77309485Y-33405079D01*
X77278886Y-33435678D01*
X77167081Y-33547482D01*
X77167077Y-33547487D01*
X77155582Y-33567399D01*
X77149846Y-33577335D01*
X77088023Y-33684415D01*
X77047099Y-33837143D01*
X77047099Y-33837145D01*
X77047099Y-34005246D01*
X77047100Y-34005259D01*
X77047100Y-34893900D01*
X77027415Y-34960939D01*
X76974611Y-35006694D01*
X76923100Y-35017900D01*
X76847268Y-35017900D01*
X76815175Y-35013675D01*
X76772597Y-35002266D01*
X76772593Y-35002265D01*
X76772592Y-35002265D01*
X76772591Y-35002264D01*
X76772586Y-35002264D01*
X76545902Y-34982432D01*
X76545898Y-34982432D01*
X76319213Y-35002264D01*
X76319202Y-35002266D01*
X76099411Y-35061158D01*
X76099402Y-35061161D01*
X75893167Y-35157331D01*
X75893165Y-35157332D01*
X75706758Y-35287854D01*
X75545854Y-35448758D01*
X75503307Y-35509523D01*
X75448730Y-35553148D01*
X75401732Y-35562400D01*
X74357774Y-35562400D01*
X74290735Y-35542715D01*
X74270093Y-35526081D01*
X74132719Y-35388707D01*
X74099234Y-35327384D01*
X74096400Y-35301026D01*
X74096400Y-33567399D01*
X74116085Y-33500360D01*
X74168889Y-33454605D01*
X74220400Y-33443399D01*
X74518771Y-33443399D01*
X74518772Y-33443399D01*
X74578383Y-33436991D01*
X74713231Y-33386696D01*
X74828446Y-33300446D01*
X74914696Y-33185231D01*
X74964991Y-33050383D01*
X74971400Y-32990773D01*
X74971399Y-30695028D01*
X74964991Y-30635417D01*
X74963838Y-30632326D01*
X74914697Y-30500571D01*
X74914693Y-30500564D01*
X74828447Y-30385355D01*
X74828444Y-30385352D01*
X74713235Y-30299106D01*
X74713228Y-30299102D01*
X74578382Y-30248808D01*
X74578383Y-30248808D01*
X74518783Y-30242401D01*
X74518781Y-30242400D01*
X74518773Y-30242400D01*
X74518765Y-30242400D01*
X73612846Y-30242400D01*
X73545807Y-30222715D01*
X73500052Y-30169911D01*
X73490108Y-30100753D01*
X73500464Y-30065995D01*
X73556265Y-29946326D01*
X73556269Y-29946317D01*
X73608872Y-29750000D01*
X72645686Y-29750000D01*
X72650080Y-29745606D01*
X72702741Y-29654394D01*
X72730000Y-29552661D01*
X72730000Y-29447339D01*
X72702741Y-29345606D01*
X72650080Y-29254394D01*
X72645686Y-29250000D01*
X73608872Y-29250000D01*
X73608872Y-29249999D01*
X73556269Y-29053682D01*
X73556265Y-29053673D01*
X73460134Y-28847517D01*
X73329657Y-28661179D01*
X73168820Y-28500342D01*
X72982482Y-28369865D01*
X72776326Y-28273734D01*
X72776317Y-28273730D01*
X72741028Y-28264275D01*
X72681367Y-28227910D01*
X72650838Y-28165063D01*
X72659133Y-28095688D01*
X72703618Y-28041810D01*
X72770170Y-28020535D01*
X72773121Y-28020500D01*
X87260247Y-28020500D01*
X87327286Y-28040185D01*
G37*
G04 #@! TD.AperFunction*
G04 #@! TA.AperFunction,Conductor*
G36*
X89740139Y-33213084D02*
G01*
X89785894Y-33265888D01*
X89797100Y-33317399D01*
X89797100Y-34928133D01*
X89777415Y-34995172D01*
X89724611Y-35040927D01*
X89655453Y-35050871D01*
X89641006Y-35047908D01*
X89495900Y-35009026D01*
X89495900Y-35972214D01*
X89491506Y-35967820D01*
X89400294Y-35915159D01*
X89298561Y-35887900D01*
X89193239Y-35887900D01*
X89091506Y-35915159D01*
X89000294Y-35967820D01*
X88995900Y-35972214D01*
X88995900Y-35009027D01*
X88799569Y-35061635D01*
X88752804Y-35083442D01*
X88683726Y-35093934D01*
X88619943Y-35065414D01*
X88581704Y-35006937D01*
X88576400Y-34971060D01*
X88576400Y-33317399D01*
X88596085Y-33250360D01*
X88648889Y-33204605D01*
X88700400Y-33193399D01*
X89673100Y-33193399D01*
X89740139Y-33213084D01*
G37*
G04 #@! TD.AperFunction*
M02*
