M48
; DRILL file {KiCad 8.0.5-8.0.5-0~ubuntu22.04.1} date 2024-10-01T15:38:50-0600
; FORMAT={-:-/ absolute / metric / decimal}
; #@! TF.CreationDate,2024-10-01T15:38:50-06:00
; #@! TF.GenerationSoftware,Kicad,Pcbnew,8.0.5-8.0.5-0~ubuntu22.04.1
; #@! TF.FileFunction,Plated,1,2,PTH
FMAT,2
METRIC
; #@! TA.AperFunction,Plated,PTH,ViaDrill
T1C0.300
; #@! TA.AperFunction,Plated,PTH,ComponentDrill
T2C0.800
; #@! TA.AperFunction,Plated,PTH,ComponentDrill
T3C0.990
; #@! TA.AperFunction,Plated,PTH,ComponentDrill
T4C1.000
; #@! TA.AperFunction,Plated,PTH,ComponentDrill
T5C1.100
; #@! TA.AperFunction,Plated,PTH,ComponentDrill
T6C1.300
; #@! TA.AperFunction,Plated,PTH,ComponentDrill
T7C3.200
%
G90
G05
T1
X66.3Y-34.9
X67.9Y-36.0
X69.254Y-65.588
X70.365Y-48.681
X70.459Y-71.952
X70.831Y-73.118
X73.116Y-75.572
X73.371Y-73.118
X74.128Y-75.353
X80.991Y-73.118
X81.062Y-52.0
X81.194Y-52.821
X83.372Y-50.643
X86.071Y-45.813
X86.071Y-71.848
X88.979Y-50.04
X89.246Y-71.848
X90.157Y-66.418
X91.151Y-67.403
X93.146Y-56.561
X93.779Y-71.933
X95.54Y-49.739
X95.764Y-64.646
X95.878Y-41.306
X97.725Y-59.949
X97.994Y-54.158
X98.771Y-52.163
X99.26Y-53.545
X100.041Y-67.403
X101.311Y-42.003
X101.311Y-65.498
X101.946Y-67.403
X102.718Y-81.255
X103.851Y-41.368
X103.851Y-70.578
X104.673Y-64.204
X105.501Y-64.031
X106.103Y-69.558
X107.026Y-51.528
X107.026Y-62.958
X107.026Y-73.118
X107.675Y-57.722
X107.725Y-40.954
X108.786Y-39.589
X108.931Y-62.323
X109.566Y-38.828
X110.201Y-52.798
X110.201Y-57.243
X110.836Y-48.988
X115.392Y-74.874
X116.656Y-46.697
X116.797Y-71.824
X116.805Y-50.004
X117.419Y-74.173
X119.941Y-58.899
X119.98Y-50.766
X120.392Y-48.288
X120.819Y-70.241
X121.075Y-47.065
X121.765Y-69.507
X121.873Y-38.286
X122.394Y-36.642
X122.423Y-58.196
X123.642Y-39.774
X124.11Y-46.724
X124.462Y-39.249
X125.07Y-47.628
X125.352Y-46.177
X125.744Y-57.073
X125.911Y-70.59
X126.076Y-34.383
X126.711Y-36.923
X126.711Y-71.213
X126.791Y-77.485
X127.346Y-42.638
X127.346Y-66.133
X127.532Y-77.093
X127.727Y-60.672
X129.351Y-58.034
X129.886Y-52.163
X130.326Y-62.675
X130.688Y-41.529
X131.659Y-40.828
X133.661Y-47.943
T2
X49.92Y-29.5
X60.08Y-29.5
X62.17Y-29.5
X72.33Y-29.5
X73.371Y-42.003
X73.371Y-52.163
X73.371Y-54.703
X73.371Y-64.863
X73.371Y-67.423
X73.371Y-69.923
X76.546Y-36.288
X76.546Y-43.908
X76.546Y-47.718
X76.546Y-55.338
X76.546Y-61.053
X76.546Y-76.293
X76.566Y-58.513
X79.066Y-58.513
X79.086Y-36.288
X79.086Y-43.908
X79.086Y-47.718
X79.086Y-55.338
X79.086Y-61.053
X79.086Y-76.293
X81.626Y-36.288
X81.626Y-43.908
X81.626Y-47.718
X81.626Y-55.338
X81.626Y-61.053
X81.626Y-76.293
X84.166Y-36.288
X84.166Y-43.908
X84.166Y-47.718
X84.166Y-55.338
X84.166Y-61.053
X84.166Y-76.293
X86.706Y-36.288
X86.706Y-43.908
X86.706Y-47.718
X86.706Y-55.338
X86.706Y-61.053
X86.706Y-76.293
X89.246Y-36.288
X89.246Y-43.908
X89.246Y-47.718
X89.246Y-55.338
X89.246Y-61.053
X89.246Y-76.293
X91.786Y-36.288
X91.786Y-43.908
X91.786Y-47.718
X91.786Y-55.338
X91.786Y-61.053
X91.786Y-76.293
X94.326Y-38.828
X94.326Y-41.328
X94.326Y-47.718
X94.326Y-55.338
X94.326Y-61.053
X94.326Y-76.293
X96.866Y-36.288
X96.866Y-43.908
X96.866Y-47.718
X96.866Y-55.338
X96.866Y-61.053
X96.866Y-76.293
X99.406Y-36.288
X99.406Y-43.908
X99.406Y-47.718
X99.406Y-55.338
X99.406Y-61.053
X99.406Y-76.293
X101.946Y-36.288
X101.946Y-43.908
X101.946Y-47.718
X101.946Y-55.338
X101.946Y-58.513
X101.946Y-61.053
X101.946Y-76.293
X104.446Y-58.513
X104.486Y-36.288
X104.486Y-43.908
X104.486Y-47.718
X104.486Y-55.338
X104.486Y-61.053
X104.486Y-76.293
X107.026Y-36.288
X107.026Y-43.908
X107.026Y-47.718
X107.026Y-55.338
X107.026Y-61.053
X107.026Y-76.293
X109.566Y-36.288
X109.566Y-43.908
X109.566Y-47.718
X109.566Y-55.338
X109.566Y-61.053
X109.566Y-76.293
X112.106Y-36.288
X112.106Y-43.908
X112.106Y-47.718
X112.106Y-55.338
X112.106Y-61.053
X112.106Y-76.293
X114.646Y-36.288
X114.646Y-43.908
X114.646Y-47.718
X114.646Y-55.338
X114.646Y-61.053
X114.646Y-76.293
X117.186Y-61.053
X117.186Y-76.293
X119.726Y-38.193
X119.726Y-53.433
X119.726Y-61.053
X119.726Y-76.293
X122.266Y-61.053
X122.266Y-76.293
X124.806Y-61.053
X124.806Y-76.293
X127.346Y-38.193
X127.346Y-53.433
X128.616Y-62.323
X128.616Y-64.863
X128.616Y-67.403
X128.616Y-69.943
X128.616Y-72.483
X128.616Y-75.023
X129.886Y-29.343
X129.886Y-31.843
X129.886Y-80.103
X129.886Y-82.603
X132.446Y-55.973
X134.946Y-55.973
T3
X79.076Y-82.593
X83.576Y-82.593
T4
X52.416Y-42.003
X52.416Y-44.543
X52.416Y-47.083
X52.416Y-49.623
X52.416Y-52.163
X52.416Y-54.703
X52.416Y-57.243
X52.416Y-59.783
X52.416Y-62.323
X52.416Y-64.863
X52.416Y-67.403
X52.416Y-69.943
X52.416Y-72.483
X52.416Y-75.023
X67.656Y-42.003
X67.656Y-44.543
X67.656Y-47.083
X67.656Y-49.623
X67.656Y-52.163
X67.656Y-54.703
X67.656Y-57.243
X67.656Y-59.783
X67.656Y-62.323
X67.656Y-64.863
X67.656Y-67.403
X67.656Y-69.943
X67.656Y-72.483
X67.656Y-75.023
X77.181Y-31.843
X79.721Y-31.843
X82.896Y-31.843
X85.436Y-31.843
X89.246Y-29.303
X89.246Y-31.843
X89.246Y-80.103
X89.246Y-82.643
X91.786Y-29.303
X91.786Y-31.843
X91.786Y-80.103
X91.786Y-82.643
X94.326Y-29.303
X94.326Y-31.843
X94.326Y-80.103
X94.326Y-82.643
X96.866Y-29.303
X96.866Y-31.843
X96.866Y-80.103
X96.866Y-82.643
X99.406Y-80.103
X99.406Y-82.643
X101.946Y-29.303
X101.946Y-31.843
X101.946Y-80.103
X101.946Y-82.643
X104.486Y-29.303
X104.486Y-31.843
X104.486Y-80.103
X104.486Y-82.643
X107.026Y-80.103
X107.026Y-82.643
X109.566Y-29.303
X109.566Y-31.843
X109.566Y-80.103
X109.566Y-82.643
X112.106Y-29.303
X112.106Y-31.843
X112.106Y-80.103
X112.106Y-82.643
X114.646Y-29.303
X114.646Y-31.843
X114.646Y-80.103
X114.646Y-82.643
X117.186Y-29.303
X117.186Y-31.843
X117.186Y-80.103
X117.186Y-82.643
X119.726Y-29.303
X119.726Y-31.843
X119.726Y-80.103
X119.726Y-82.643
X122.266Y-29.303
X122.266Y-31.843
X122.266Y-80.103
X122.266Y-82.643
X124.806Y-29.303
X124.806Y-31.843
X124.806Y-80.103
X124.806Y-82.643
X127.346Y-29.303
X127.346Y-31.843
X127.346Y-80.103
X127.346Y-82.643
X132.426Y-29.303
X132.426Y-31.843
X132.426Y-34.383
X132.426Y-36.923
X132.426Y-39.463
X132.426Y-42.003
X132.426Y-44.543
X132.426Y-47.083
X132.426Y-49.623
X132.426Y-52.163
X132.426Y-59.783
X132.426Y-62.323
X132.426Y-64.863
X132.426Y-67.403
X132.426Y-69.943
X132.426Y-72.483
X132.426Y-75.023
X132.426Y-77.563
X132.426Y-80.103
X132.426Y-82.643
X134.966Y-29.303
X134.966Y-31.843
X134.966Y-34.383
X134.966Y-36.923
X134.966Y-39.463
X134.966Y-42.003
X134.966Y-44.543
X134.966Y-47.083
X134.966Y-49.623
X134.966Y-52.163
X134.966Y-59.783
X134.966Y-62.323
X134.966Y-64.863
X134.966Y-67.403
X134.966Y-69.943
X134.966Y-72.483
X134.966Y-75.023
X134.966Y-77.563
X134.966Y-80.103
X134.966Y-82.643
T5
X73.371Y-31.843
X73.371Y-39.463
T6
X77.816Y-80.103
X84.826Y-80.103
T7
X60.671Y-33.673
X60.671Y-78.673
X110.671Y-68.673
M30
