G04 #@! TF.GenerationSoftware,KiCad,Pcbnew,8.0.5-8.0.5-0~ubuntu22.04.1*
G04 #@! TF.CreationDate,2024-10-01T15:38:48-06:00*
G04 #@! TF.ProjectId,z80 RPM,7a383020-5250-44d2-9e6b-696361645f70,1.1*
G04 #@! TF.SameCoordinates,Original*
G04 #@! TF.FileFunction,Copper,L2,Bot*
G04 #@! TF.FilePolarity,Positive*
%FSLAX46Y46*%
G04 Gerber Fmt 4.6, Leading zero omitted, Abs format (unit mm)*
G04 Created by KiCad (PCBNEW 8.0.5-8.0.5-0~ubuntu22.04.1) date 2024-10-01 15:38:48*
%MOMM*%
%LPD*%
G01*
G04 APERTURE LIST*
G04 #@! TA.AperFunction,ComponentPad*
%ADD10R,1.700000X1.700000*%
G04 #@! TD*
G04 #@! TA.AperFunction,ComponentPad*
%ADD11O,1.700000X1.700000*%
G04 #@! TD*
G04 #@! TA.AperFunction,ComponentPad*
%ADD12R,2.000000X1.440000*%
G04 #@! TD*
G04 #@! TA.AperFunction,ComponentPad*
%ADD13O,2.000000X1.440000*%
G04 #@! TD*
G04 #@! TA.AperFunction,ComponentPad*
%ADD14R,1.600000X1.600000*%
G04 #@! TD*
G04 #@! TA.AperFunction,ComponentPad*
%ADD15C,1.600000*%
G04 #@! TD*
G04 #@! TA.AperFunction,ComponentPad*
%ADD16O,1.600000X1.600000*%
G04 #@! TD*
G04 #@! TA.AperFunction,ComponentPad*
%ADD17R,2.200000X2.200000*%
G04 #@! TD*
G04 #@! TA.AperFunction,ComponentPad*
%ADD18O,2.200000X2.200000*%
G04 #@! TD*
G04 #@! TA.AperFunction,ComponentPad*
%ADD19C,3.600000*%
G04 #@! TD*
G04 #@! TA.AperFunction,ConnectorPad*
%ADD20C,5.600000*%
G04 #@! TD*
G04 #@! TA.AperFunction,ComponentPad*
%ADD21C,2.100000*%
G04 #@! TD*
G04 #@! TA.AperFunction,ComponentPad*
%ADD22C,1.750000*%
G04 #@! TD*
G04 #@! TA.AperFunction,ViaPad*
%ADD23C,0.600000*%
G04 #@! TD*
G04 #@! TA.AperFunction,Conductor*
%ADD24C,0.200000*%
G04 #@! TD*
G04 #@! TA.AperFunction,Conductor*
%ADD25C,0.450000*%
G04 #@! TD*
G04 APERTURE END LIST*
D10*
X127345900Y-80102900D03*
D11*
X124805900Y-80102900D03*
X122265900Y-80102900D03*
X119725900Y-80102900D03*
X117185900Y-80102900D03*
X114645900Y-80102900D03*
X112105900Y-80102900D03*
X109565900Y-80102900D03*
X107025900Y-80102900D03*
X104485900Y-80102900D03*
X101945900Y-80102900D03*
X99405900Y-80102900D03*
X96865900Y-80102900D03*
X94325900Y-80102900D03*
X91785900Y-80102900D03*
X89245900Y-80102900D03*
D10*
X134965900Y-29302900D03*
D11*
X132425900Y-29302900D03*
X134965900Y-31842900D03*
X132425900Y-31842900D03*
D10*
X132425900Y-34382900D03*
D11*
X132425900Y-36922900D03*
X132425900Y-39462900D03*
X132425900Y-42002900D03*
X132425900Y-44542900D03*
X132425900Y-47082900D03*
X132425900Y-49622900D03*
X132425900Y-52162900D03*
D12*
X52415900Y-42002900D03*
D13*
X52415900Y-44542900D03*
X52415900Y-47082900D03*
X52415900Y-49622900D03*
X52415900Y-52162900D03*
X52415900Y-54702900D03*
X52415900Y-57242900D03*
X52415900Y-59782900D03*
X52415900Y-62322900D03*
X52415900Y-64862900D03*
X52415900Y-67402900D03*
X52415900Y-69942900D03*
X52415900Y-72482900D03*
X52415900Y-75022900D03*
X67655900Y-75022900D03*
X67655900Y-72482900D03*
X67655900Y-69942900D03*
X67655900Y-67402900D03*
X67655900Y-64862900D03*
X67655900Y-62322900D03*
X67655900Y-59782900D03*
X67655900Y-57242900D03*
X67655900Y-54702900D03*
X67655900Y-52162900D03*
X67655900Y-49622900D03*
X67655900Y-47082900D03*
X67655900Y-44542900D03*
X67655900Y-42002900D03*
D14*
X119725900Y-38192900D03*
D15*
X119725900Y-53432900D03*
X127345900Y-53432900D03*
X127345900Y-38192900D03*
X62170000Y-29500000D03*
D16*
X72330000Y-29500000D03*
D14*
X76545900Y-55337900D03*
D16*
X79085900Y-55337900D03*
X81625900Y-55337900D03*
X84165900Y-55337900D03*
X86705900Y-55337900D03*
X89245900Y-55337900D03*
X91785900Y-55337900D03*
X94325900Y-55337900D03*
X96865900Y-55337900D03*
X99405900Y-55337900D03*
X101945900Y-55337900D03*
X104485900Y-55337900D03*
X107025900Y-55337900D03*
X109565900Y-55337900D03*
X112105900Y-55337900D03*
X114645900Y-55337900D03*
X114645900Y-47717900D03*
X112105900Y-47717900D03*
X109565900Y-47717900D03*
X107025900Y-47717900D03*
X104485900Y-47717900D03*
X101945900Y-47717900D03*
X99405900Y-47717900D03*
X96865900Y-47717900D03*
X94325900Y-47717900D03*
X91785900Y-47717900D03*
X89245900Y-47717900D03*
X86705900Y-47717900D03*
X84165900Y-47717900D03*
X81625900Y-47717900D03*
X79085900Y-47717900D03*
X76545900Y-47717900D03*
D10*
X101945900Y-31842900D03*
D11*
X104485900Y-31842900D03*
D15*
X94325900Y-38827900D03*
X94325900Y-41327900D03*
X73370900Y-42002900D03*
D16*
X73370900Y-52162900D03*
D17*
X73370900Y-31842900D03*
D18*
X73370900Y-39462900D03*
D15*
X101945900Y-58512900D03*
X104445900Y-58512900D03*
D10*
X132425900Y-59782900D03*
D11*
X132425900Y-62322900D03*
X132425900Y-64862900D03*
X132425900Y-67402900D03*
X132425900Y-69942900D03*
X132425900Y-72482900D03*
X132425900Y-75022900D03*
X132425900Y-77562900D03*
D19*
X60670900Y-33672900D03*
D20*
X60670900Y-33672900D03*
D10*
X89245900Y-29302900D03*
D11*
X91785900Y-29302900D03*
X94325900Y-29302900D03*
X96865900Y-29302900D03*
D19*
X110670900Y-68672900D03*
D20*
X110670900Y-68672900D03*
D15*
X49920000Y-29500000D03*
D16*
X60080000Y-29500000D03*
D10*
X134965900Y-34382900D03*
D11*
X134965900Y-36922900D03*
X134965900Y-39462900D03*
X134965900Y-42002900D03*
X134965900Y-44542900D03*
X134965900Y-47082900D03*
X134965900Y-49622900D03*
X134965900Y-52162900D03*
D14*
X128615900Y-62322900D03*
D16*
X128615900Y-64862900D03*
X128615900Y-67402900D03*
X128615900Y-69942900D03*
X128615900Y-72482900D03*
X128615900Y-75022900D03*
D19*
X60670900Y-78672900D03*
D20*
X60670900Y-78672900D03*
D10*
X134965900Y-59782900D03*
D11*
X134965900Y-62322900D03*
X134965900Y-64862900D03*
X134965900Y-67402900D03*
X134965900Y-69942900D03*
X134965900Y-72482900D03*
X134965900Y-75022900D03*
X134965900Y-77562900D03*
D21*
X84825900Y-80102900D03*
X77815900Y-80102900D03*
D22*
X83575900Y-82592900D03*
X79075900Y-82592900D03*
D14*
X76545900Y-43907900D03*
D16*
X79085900Y-43907900D03*
X81625900Y-43907900D03*
X84165900Y-43907900D03*
X86705900Y-43907900D03*
X89245900Y-43907900D03*
X91785900Y-43907900D03*
X91785900Y-36287900D03*
X89245900Y-36287900D03*
X86705900Y-36287900D03*
X84165900Y-36287900D03*
X81625900Y-36287900D03*
X79085900Y-36287900D03*
X76545900Y-36287900D03*
D10*
X101945900Y-29302900D03*
D11*
X104485900Y-29302900D03*
D15*
X73370900Y-54702900D03*
D16*
X73370900Y-64862900D03*
D10*
X127345900Y-31842900D03*
D11*
X124805900Y-31842900D03*
X122265900Y-31842900D03*
X119725900Y-31842900D03*
X117185900Y-31842900D03*
X114645900Y-31842900D03*
X112105900Y-31842900D03*
X109565900Y-31842900D03*
D10*
X134965900Y-80102900D03*
D11*
X132425900Y-80102900D03*
X134965900Y-82642900D03*
X132425900Y-82642900D03*
D15*
X129885900Y-80102900D03*
X129885900Y-82602900D03*
D14*
X96865900Y-43907900D03*
D16*
X99405900Y-43907900D03*
X101945900Y-43907900D03*
X104485900Y-43907900D03*
X107025900Y-43907900D03*
X109565900Y-43907900D03*
X112105900Y-43907900D03*
X114645900Y-43907900D03*
X114645900Y-36287900D03*
X112105900Y-36287900D03*
X109565900Y-36287900D03*
X107025900Y-36287900D03*
X104485900Y-36287900D03*
X101945900Y-36287900D03*
X99405900Y-36287900D03*
X96865900Y-36287900D03*
D10*
X82895900Y-31842900D03*
D11*
X85435900Y-31842900D03*
D15*
X79065900Y-58512900D03*
X76565900Y-58512900D03*
D10*
X127345900Y-29302900D03*
D11*
X124805900Y-29302900D03*
X122265900Y-29302900D03*
X119725900Y-29302900D03*
X117185900Y-29302900D03*
X114645900Y-29302900D03*
X112105900Y-29302900D03*
X109565900Y-29302900D03*
D14*
X76545900Y-76292900D03*
D16*
X79085900Y-76292900D03*
X81625900Y-76292900D03*
X84165900Y-76292900D03*
X86705900Y-76292900D03*
X89245900Y-76292900D03*
X91785900Y-76292900D03*
X94325900Y-76292900D03*
X96865900Y-76292900D03*
X99405900Y-76292900D03*
X101945900Y-76292900D03*
X104485900Y-76292900D03*
X107025900Y-76292900D03*
X109565900Y-76292900D03*
X112105900Y-76292900D03*
X114645900Y-76292900D03*
X117185900Y-76292900D03*
X119725900Y-76292900D03*
X122265900Y-76292900D03*
X124805900Y-76292900D03*
X124805900Y-61052900D03*
X122265900Y-61052900D03*
X119725900Y-61052900D03*
X117185900Y-61052900D03*
X114645900Y-61052900D03*
X112105900Y-61052900D03*
X109565900Y-61052900D03*
X107025900Y-61052900D03*
X104485900Y-61052900D03*
X101945900Y-61052900D03*
X99405900Y-61052900D03*
X96865900Y-61052900D03*
X94325900Y-61052900D03*
X91785900Y-61052900D03*
X89245900Y-61052900D03*
X86705900Y-61052900D03*
X84165900Y-61052900D03*
X81625900Y-61052900D03*
X79085900Y-61052900D03*
X76545900Y-61052900D03*
D10*
X89245900Y-31842900D03*
D11*
X91785900Y-31842900D03*
X94325900Y-31842900D03*
X96865900Y-31842900D03*
D15*
X129885900Y-29342900D03*
X129885900Y-31842900D03*
X132445900Y-55972900D03*
X134945900Y-55972900D03*
D10*
X127345900Y-82642900D03*
D11*
X124805900Y-82642900D03*
X122265900Y-82642900D03*
X119725900Y-82642900D03*
X117185900Y-82642900D03*
X114645900Y-82642900D03*
X112105900Y-82642900D03*
X109565900Y-82642900D03*
X107025900Y-82642900D03*
X104485900Y-82642900D03*
X101945900Y-82642900D03*
X99405900Y-82642900D03*
X96865900Y-82642900D03*
X94325900Y-82642900D03*
X91785900Y-82642900D03*
X89245900Y-82642900D03*
D15*
X73370900Y-69922900D03*
X73370900Y-67422900D03*
D10*
X77180900Y-31842900D03*
D11*
X79720900Y-31842900D03*
D23*
X67900000Y-36000000D03*
X74128000Y-75353000D03*
X66300000Y-34900000D03*
X109565900Y-38827900D03*
X127345900Y-42637900D03*
X125743800Y-57073400D03*
X104673100Y-64203800D03*
X116797000Y-71823800D03*
X119979900Y-50765900D03*
X110200900Y-57242900D03*
X100040900Y-67402900D03*
X120818700Y-70240900D03*
X95764200Y-64645800D03*
X97994400Y-54158000D03*
X69254300Y-65587700D03*
X119940600Y-58899000D03*
X107675300Y-57722200D03*
X129885900Y-52162900D03*
X127726900Y-60671900D03*
X126710900Y-36922900D03*
X127345900Y-66132900D03*
X121873500Y-38285700D03*
X98770900Y-52162900D03*
X107025900Y-51527900D03*
X86070900Y-71847900D03*
X120391700Y-48288200D03*
X88978800Y-50039900D03*
X80990900Y-73117900D03*
X73370900Y-73117900D03*
X81062000Y-52000500D03*
X70458600Y-71952400D03*
X93779400Y-71932600D03*
X97724900Y-59948800D03*
X126710900Y-71212900D03*
X126075900Y-34382900D03*
X89245900Y-71847900D03*
X102717600Y-81254600D03*
X99259700Y-53544900D03*
X116655800Y-46697000D03*
X125352400Y-46176900D03*
X107025900Y-62957900D03*
X95540000Y-49738700D03*
X108930900Y-62322900D03*
X91150900Y-67402900D03*
X106103200Y-69558200D03*
X121764600Y-69507100D03*
X101945900Y-67402900D03*
X105501400Y-64030500D03*
X107025900Y-73117900D03*
X70830900Y-73117900D03*
X116804900Y-50003900D03*
X103850900Y-70577900D03*
X81193800Y-52821000D03*
X83371800Y-50643000D03*
X73115900Y-75571500D03*
X93145600Y-56560700D03*
X124109700Y-46724000D03*
X70365500Y-48680800D03*
X125070500Y-47628200D03*
X133661200Y-47943300D03*
X131659000Y-40827900D03*
X123642000Y-39773900D03*
X122394400Y-36642200D03*
X129351000Y-58034500D03*
X122423100Y-58195700D03*
X130326300Y-62675300D03*
X101310900Y-42002900D03*
X101310900Y-65497900D03*
X103850900Y-41367900D03*
X127532300Y-77092500D03*
X124461600Y-39248800D03*
X90157500Y-66418000D03*
X126790700Y-77485000D03*
X95878300Y-41306000D03*
X108785900Y-39588700D03*
X125911400Y-70590100D03*
X115392300Y-74874100D03*
X110835900Y-48987900D03*
X110200900Y-52797900D03*
X107724900Y-40953600D03*
X130688100Y-41528500D03*
X121074700Y-47065200D03*
X117418800Y-74173400D03*
X86070900Y-45812900D03*
D24*
X79720900Y-31842900D02*
X77533800Y-34030000D01*
X74665686Y-35200000D02*
X68700000Y-35200000D01*
X77533800Y-34030000D02*
X75835686Y-34030000D01*
X68700000Y-35200000D02*
X67900000Y-36000000D01*
X75835686Y-34030000D02*
X74665686Y-35200000D01*
X86484200Y-29937900D02*
X88270900Y-28151200D01*
X66258900Y-33674000D02*
X74339800Y-33674000D01*
X50623200Y-40747600D02*
X51717400Y-39653400D01*
X74800000Y-30600000D02*
X75462100Y-29937900D01*
X107902100Y-30691200D02*
X123654200Y-30691200D01*
X74800000Y-33213800D02*
X74800000Y-30600000D01*
X65496900Y-34436000D02*
X66258900Y-33674000D01*
X51717400Y-39653400D02*
X64480900Y-39653400D01*
X65496900Y-38637400D02*
X65496900Y-34436000D01*
X75462100Y-29937900D02*
X86484200Y-29937900D01*
X64480900Y-39653400D02*
X65496900Y-38637400D01*
X50623200Y-68150200D02*
X50623200Y-40747600D01*
X74339800Y-33674000D02*
X74800000Y-33213800D01*
X52415900Y-69942900D02*
X50623200Y-68150200D01*
X88270900Y-28151200D02*
X105362100Y-28151200D01*
X105362100Y-28151200D02*
X107902100Y-30691200D01*
X123654200Y-30691200D02*
X124805900Y-31842900D01*
X69857300Y-49284300D02*
X85139500Y-49284300D01*
X85139500Y-49284300D02*
X85141200Y-49286000D01*
X86705900Y-47717900D02*
X86705900Y-48651000D01*
X74289800Y-75191200D02*
X74128000Y-75353000D01*
X78587300Y-77405200D02*
X77674400Y-76492300D01*
X80513600Y-77405200D02*
X78587300Y-77405200D01*
X77510400Y-75191200D02*
X74289800Y-75191200D01*
X86705900Y-48651000D02*
X86070900Y-49286000D01*
X77674400Y-76492300D02*
X77674400Y-75355200D01*
X85141200Y-49286000D02*
X86070900Y-49286000D01*
X81625900Y-76292900D02*
X80513600Y-77405200D01*
X67655900Y-47082900D02*
X69857300Y-49284300D01*
X77674400Y-75355200D02*
X77510400Y-75191200D01*
X75291450Y-33391450D02*
X74482900Y-34200000D01*
X67000000Y-34200000D02*
X66300000Y-34900000D01*
X74482900Y-34200000D02*
X67000000Y-34200000D01*
X75707100Y-30692900D02*
X75291450Y-31108550D01*
X75291450Y-31108550D02*
X75291450Y-33391450D01*
X85435900Y-31842900D02*
X84285900Y-30692900D01*
X84285900Y-30692900D02*
X75707100Y-30692900D01*
X87852500Y-80360800D02*
X87852500Y-79753400D01*
X66326100Y-43213100D02*
X67655900Y-44542900D01*
X91785900Y-82642900D02*
X90399600Y-81256600D01*
X68000000Y-34617900D02*
X66326100Y-36291800D01*
X88748300Y-81256600D02*
X87852500Y-80360800D01*
X77157100Y-31842900D02*
X75700000Y-33300000D01*
X87852500Y-79753400D02*
X84392000Y-76292900D01*
X84392000Y-76292900D02*
X84165900Y-76292900D01*
X74682100Y-34617900D02*
X68000000Y-34617900D01*
X75700000Y-33300000D02*
X75700000Y-33600000D01*
X66326100Y-36291800D02*
X66326100Y-43213100D01*
X90399600Y-81256600D02*
X88748300Y-81256600D01*
X75700000Y-33600000D02*
X74682100Y-34617900D01*
X77180900Y-31842900D02*
X77157100Y-31842900D01*
D25*
X103170900Y-59737900D02*
X128680900Y-59737900D01*
X128680900Y-59737900D02*
X132445900Y-55972900D01*
X101945900Y-58512900D02*
X79065900Y-58512900D01*
X101945900Y-58512900D02*
X103170900Y-59737900D01*
X109565900Y-43907900D02*
X110790900Y-42682900D01*
X127345900Y-42637900D02*
X127300900Y-42682900D01*
X76545900Y-37557900D02*
X76545900Y-36287900D01*
X73370900Y-42002900D02*
X67655900Y-42002900D01*
X132425900Y-80102900D02*
X129885900Y-80102900D01*
X77815900Y-38827900D02*
X76545900Y-37557900D01*
X94325900Y-38827900D02*
X77815900Y-38827900D01*
X110790900Y-42682900D02*
X127300900Y-42682900D01*
X94325900Y-38827900D02*
X109565900Y-38827900D01*
D24*
X131155900Y-47082900D02*
X132425900Y-47082900D01*
X130503700Y-47735100D02*
X131155900Y-47082900D01*
X130503700Y-49622900D02*
X130503700Y-52450900D01*
X132425900Y-47082900D02*
X132425900Y-47658700D01*
X134965900Y-47082900D02*
X133814200Y-47082900D01*
X125881200Y-57073400D02*
X125743800Y-57073400D01*
X130503700Y-49622900D02*
X130503700Y-47735100D01*
X130503700Y-52450900D02*
X125881200Y-57073400D01*
X133001700Y-47082900D02*
X132425900Y-47658700D01*
X133814200Y-47082900D02*
X133001700Y-47082900D01*
X74560400Y-63348500D02*
X75414200Y-64202300D01*
X68957600Y-64862900D02*
X70472000Y-63348500D01*
X95354500Y-64202300D02*
X95963900Y-63592900D01*
X67655900Y-64862900D02*
X68957600Y-64862900D01*
X104062200Y-63592900D02*
X104673100Y-64203800D01*
X75414200Y-64202300D02*
X95354500Y-64202300D01*
X70472000Y-63348500D02*
X74560400Y-63348500D01*
X95963900Y-63592900D02*
X104062200Y-63592900D01*
X119979900Y-50638900D02*
X119979900Y-50638900D01*
X134965900Y-44542900D02*
X132425900Y-44542900D01*
X119979900Y-50765900D02*
X128929050Y-50765900D01*
X128929050Y-50765900D02*
X129945050Y-49749900D01*
X125416800Y-71823800D02*
X116797000Y-71823800D01*
X129945050Y-45872050D02*
X131274200Y-44542900D01*
X128615900Y-75022900D02*
X125416800Y-71823800D01*
X131274200Y-44542900D02*
X132425900Y-44542900D01*
X129945050Y-49749900D02*
X129945050Y-45872050D01*
X119979900Y-50765900D02*
X119979900Y-50638900D01*
X113375900Y-54571000D02*
X118272500Y-49674400D01*
X136117600Y-40614600D02*
X134965900Y-39462900D01*
X111789200Y-57242900D02*
X113375900Y-55656200D01*
X110200900Y-57242900D02*
X111789200Y-57242900D01*
X118272500Y-49674400D02*
X128858550Y-49674400D01*
X113375900Y-55656200D02*
X113375900Y-54571000D01*
X130854600Y-43369600D02*
X135228000Y-43369600D01*
X132425900Y-39462900D02*
X134965900Y-39462900D01*
X129545050Y-48987900D02*
X129545050Y-44679150D01*
X128858550Y-49674400D02*
X129545050Y-48987900D01*
X135228000Y-43369600D02*
X136117600Y-42480000D01*
X129545050Y-44679150D02*
X130854600Y-43369600D01*
X136117600Y-42480000D02*
X136117600Y-40614600D01*
X134965900Y-39462900D02*
X134965900Y-39918900D01*
X100040900Y-67228400D02*
X100040900Y-67402900D01*
X112270900Y-72317900D02*
X114347900Y-70240900D01*
X108061586Y-72317900D02*
X112270900Y-72317900D01*
X114347900Y-70240900D02*
X120818700Y-70240900D01*
X53717600Y-59782900D02*
X55235900Y-61301200D01*
X76117000Y-62961500D02*
X94840100Y-62961500D01*
X105739629Y-68346100D02*
X106546164Y-69152636D01*
X52415900Y-59782900D02*
X53717600Y-59782900D01*
X96748700Y-61052900D02*
X94840100Y-62961500D01*
X100984100Y-68346100D02*
X105739629Y-68346100D01*
X106703200Y-69309671D02*
X106703200Y-70959514D01*
X100040900Y-67402900D02*
X100984100Y-68346100D01*
X106546164Y-69152636D02*
X106703200Y-69309671D01*
X106703200Y-70959514D02*
X108061586Y-72317900D01*
X74456700Y-61301200D02*
X76117000Y-62961500D01*
X55235900Y-61301200D02*
X74456700Y-61301200D01*
X96865900Y-61052900D02*
X96748700Y-61052900D01*
X105755900Y-48987900D02*
X107025900Y-47717900D01*
X98770900Y-48987900D02*
X105755900Y-48987900D01*
X69254300Y-65587700D02*
X71085600Y-63756400D01*
X97994400Y-54158000D02*
X97994400Y-49764400D01*
X97994400Y-49764400D02*
X98770900Y-48987900D01*
X71085600Y-63756400D02*
X74064400Y-63756400D01*
X74064400Y-63756400D02*
X74953800Y-64645800D01*
X74953800Y-64645800D02*
X95764200Y-64645800D01*
X126886000Y-57702800D02*
X125390700Y-57702800D01*
X125266600Y-57578700D02*
X121260900Y-57578700D01*
X121260900Y-57578700D02*
X119940600Y-58899000D01*
X132425900Y-52162900D02*
X126886000Y-57702800D01*
X125390700Y-57702800D02*
X125266600Y-57578700D01*
X111004200Y-55521600D02*
X108803600Y-57722200D01*
X128382200Y-49221600D02*
X116649700Y-49221600D01*
X116649700Y-49221600D02*
X111004200Y-54867100D01*
X132425900Y-42002900D02*
X132206950Y-42221850D01*
X111004200Y-54867100D02*
X111004200Y-55521600D01*
X108803600Y-57722200D02*
X107675300Y-57722200D01*
X129145050Y-42743750D02*
X129145050Y-48458750D01*
X134965900Y-42002900D02*
X132425900Y-42002900D01*
X129666950Y-42221850D02*
X129145050Y-42743750D01*
X132206950Y-42221850D02*
X129666950Y-42221850D01*
X129145050Y-48458750D02*
X128382200Y-49221600D01*
D25*
X104445900Y-58512900D02*
X103220900Y-57287900D01*
X120995900Y-52162900D02*
X129885900Y-52162900D01*
X114010900Y-58512900D02*
X114645900Y-57877900D01*
X81625900Y-36287900D02*
X82850900Y-37512900D01*
X85480900Y-37512900D02*
X86705900Y-36287900D01*
X119725900Y-53432900D02*
X120995900Y-52162900D01*
X114645900Y-57877900D02*
X114645900Y-55337900D01*
X59477100Y-75022900D02*
X60800000Y-73700000D01*
X115280900Y-53432900D02*
X114645900Y-54067900D01*
X61902100Y-68797900D02*
X71995900Y-68797900D01*
X104445900Y-58512900D02*
X114010900Y-58512900D01*
X77790900Y-57287900D02*
X76565900Y-58512900D01*
X82850900Y-37512900D02*
X85480900Y-37512900D01*
X79085900Y-36287900D02*
X81625900Y-36287900D01*
X60800000Y-69900000D02*
X61902100Y-68797900D01*
X114645900Y-43907900D02*
X113420900Y-45132900D01*
X113420900Y-45132900D02*
X93010900Y-45132900D01*
X114645900Y-54067900D02*
X114645900Y-55337900D01*
X103220900Y-57287900D02*
X77790900Y-57287900D01*
X52415900Y-75022900D02*
X59477100Y-75022900D01*
X119725900Y-53432900D02*
X115280900Y-53432900D01*
X89245900Y-36287900D02*
X86705900Y-36287900D01*
X93010900Y-45132900D02*
X91785900Y-43907900D01*
X71995900Y-68797900D02*
X73370900Y-67422900D01*
X60800000Y-73700000D02*
X60800000Y-69900000D01*
D24*
X123535900Y-67402900D02*
X128615900Y-67402900D01*
X133616500Y-56360400D02*
X129717600Y-60259300D01*
X129717600Y-60259300D02*
X129717600Y-66301200D01*
X133616500Y-50813500D02*
X133616500Y-56360400D01*
X115915900Y-64227900D02*
X120360900Y-64227900D01*
X114645900Y-62957900D02*
X115915900Y-64227900D01*
X120360900Y-64227900D02*
X123535900Y-67402900D01*
X132425900Y-49622900D02*
X133616500Y-50813500D01*
X129717600Y-66301200D02*
X128615900Y-67402900D01*
X114645900Y-61052900D02*
X114645900Y-62957900D01*
X126710900Y-36922900D02*
X132425900Y-36922900D01*
X115903200Y-73512400D02*
X125371100Y-73512400D01*
X125371100Y-73512400D02*
X127988900Y-76130200D01*
X129761100Y-73628100D02*
X128615900Y-72482900D01*
X127345900Y-61052900D02*
X127726900Y-60671900D01*
X127988900Y-76130200D02*
X129066700Y-76130200D01*
X127345900Y-66132900D02*
X127345900Y-61052900D01*
X129066700Y-76130200D02*
X129761100Y-75435800D01*
X114645900Y-76292900D02*
X114645900Y-74769700D01*
X114645900Y-74769700D02*
X115903200Y-73512400D01*
X129761100Y-75435800D02*
X129761100Y-73628100D01*
X130169300Y-75604500D02*
X130169300Y-71496300D01*
X125550600Y-77441700D02*
X126537700Y-76454600D01*
X129241900Y-76531900D02*
X130169300Y-75604500D01*
X124624600Y-35534600D02*
X121873500Y-38285700D01*
X132425900Y-34382900D02*
X131274200Y-34382900D01*
X117185900Y-76292900D02*
X118334700Y-77441700D01*
X118334700Y-77441700D02*
X125550600Y-77441700D01*
X127822600Y-76531900D02*
X129241900Y-76531900D01*
X130169300Y-71496300D02*
X128615900Y-69942900D01*
X130122500Y-35534600D02*
X124624600Y-35534600D01*
X127745300Y-76454600D02*
X127822600Y-76531900D01*
X126537700Y-76454600D02*
X127745300Y-76454600D01*
X131274200Y-34382900D02*
X130122500Y-35534600D01*
X66338500Y-73800300D02*
X66338500Y-75440400D01*
X106390900Y-52162900D02*
X107025900Y-51527900D01*
X67655900Y-72482900D02*
X66338500Y-73800300D01*
X90243800Y-74750800D02*
X91785900Y-76292900D01*
X98770900Y-52162900D02*
X106390900Y-52162900D01*
X66945800Y-76047700D02*
X68551100Y-76047700D01*
X69848000Y-74750800D02*
X90243800Y-74750800D01*
X66338500Y-75440400D02*
X66945800Y-76047700D01*
X68551100Y-76047700D02*
X69848000Y-74750800D01*
X89245900Y-48924271D02*
X89245900Y-47717900D01*
X108137000Y-75844000D02*
X108137000Y-77840100D01*
X108137000Y-77840100D02*
X107025900Y-78951200D01*
X107025900Y-78951200D02*
X107025900Y-80102900D01*
X88484171Y-49686000D02*
X89245900Y-48924271D01*
X67719000Y-49686000D02*
X88484171Y-49686000D01*
X87104200Y-72881200D02*
X105174200Y-72881200D01*
X105174200Y-72881200D02*
X108137000Y-75844000D01*
X86070900Y-71847900D02*
X87104200Y-72881200D01*
X67655900Y-49622900D02*
X67719000Y-49686000D01*
X116615600Y-48288200D02*
X120391700Y-48288200D01*
X109565900Y-55337900D02*
X116615600Y-48288200D01*
X91346700Y-42780800D02*
X100818800Y-42780800D01*
X89294000Y-42389700D02*
X90515900Y-43611600D01*
X90515900Y-43611600D02*
X90515900Y-48502800D01*
X80355900Y-44283900D02*
X80355900Y-43559700D01*
X81525900Y-42389700D02*
X89294000Y-42389700D01*
X65933402Y-47082900D02*
X66955102Y-46061200D01*
X66955102Y-46061200D02*
X78578600Y-46061200D01*
X90515900Y-48502800D02*
X88978800Y-50039900D01*
X80355900Y-43559700D02*
X81525900Y-42389700D01*
X100818800Y-42780800D02*
X101945900Y-43907900D01*
X90515900Y-43611600D02*
X91346700Y-42780800D01*
X52415900Y-47082900D02*
X65933402Y-47082900D01*
X78578600Y-46061200D02*
X80355900Y-44283900D01*
X104485900Y-78951200D02*
X104485900Y-80102900D01*
X68925900Y-53267300D02*
X79795200Y-53267300D01*
X67655900Y-52162900D02*
X67821500Y-52162900D01*
X79795200Y-53267300D02*
X81062000Y-52000500D01*
X103090000Y-73330900D02*
X105597000Y-75837900D01*
X80990900Y-73117900D02*
X81203900Y-73330900D01*
X80990900Y-73117900D02*
X73370900Y-73117900D01*
X81203900Y-73330900D02*
X103090000Y-73330900D01*
X105597000Y-75837900D02*
X105597000Y-77840100D01*
X105597000Y-77840100D02*
X104485900Y-78951200D01*
X67821500Y-52162900D02*
X68925900Y-53267300D01*
X111004200Y-76100800D02*
X109111100Y-74207700D01*
X87582300Y-72464500D02*
X86200800Y-71083000D01*
X74875300Y-71083000D02*
X74005900Y-71952400D01*
X117185900Y-80102900D02*
X115924500Y-78841500D01*
X93779400Y-71932600D02*
X93247500Y-72464500D01*
X93247500Y-72464500D02*
X87582300Y-72464500D01*
X111004200Y-76788400D02*
X111004200Y-76100800D01*
X104791286Y-71932600D02*
X93779400Y-71932600D01*
X74005900Y-71952400D02*
X70458600Y-71952400D01*
X107066386Y-74207700D02*
X104791286Y-71932600D01*
X113057300Y-78841500D02*
X111004200Y-76788400D01*
X109111100Y-74207700D02*
X107066386Y-74207700D01*
X86200800Y-71083000D02*
X74875300Y-71083000D01*
X115924500Y-78841500D02*
X113057300Y-78841500D01*
X77394000Y-45599800D02*
X79085900Y-43907900D01*
X52415900Y-42002900D02*
X53802900Y-42002900D01*
X54699800Y-45599800D02*
X77394000Y-45599800D01*
X54200000Y-45100000D02*
X54699800Y-45599800D01*
X53802900Y-42002900D02*
X54200000Y-42400000D01*
X89245900Y-78832900D02*
X86705900Y-76292900D01*
X54200000Y-42400000D02*
X54200000Y-45100000D01*
X89245900Y-80102900D02*
X89245900Y-78832900D01*
X92903000Y-61533800D02*
X92280200Y-62156600D01*
X93795500Y-59948800D02*
X92903000Y-60841300D01*
X75444200Y-61052900D02*
X74174300Y-59783000D01*
X74174300Y-59783000D02*
X68957600Y-59783000D01*
X76545900Y-61052900D02*
X76214800Y-61052900D01*
X97724900Y-59948800D02*
X93795500Y-59948800D01*
X67655900Y-59782900D02*
X68957600Y-59782900D01*
X92903000Y-60841300D02*
X92903000Y-61533800D01*
X75995100Y-61052900D02*
X76214800Y-61052900D01*
X68957600Y-59783000D02*
X68957600Y-59782900D01*
X101945900Y-82642900D02*
X101945900Y-80102900D01*
X75995100Y-61052900D02*
X75444200Y-61052900D01*
X92280200Y-62156600D02*
X77649600Y-62156600D01*
X77649600Y-62156600D02*
X76545900Y-61052900D01*
X102580900Y-34382900D02*
X101945900Y-33747900D01*
X106390900Y-71212900D02*
X107895900Y-72717900D01*
X126075900Y-34382900D02*
X102580900Y-34382900D01*
X89880900Y-71212900D02*
X106390900Y-71212900D01*
X112505900Y-72717900D02*
X114010900Y-71212900D01*
X114010900Y-71212900D02*
X126710900Y-71212900D01*
X89245900Y-71847900D02*
X89880900Y-71212900D01*
X101945900Y-33747900D02*
X101945900Y-31842900D01*
X107895900Y-72717900D02*
X112505900Y-72717900D01*
X55977600Y-60804600D02*
X54955900Y-59782900D01*
X102717600Y-81254600D02*
X118337600Y-81254600D01*
X94325900Y-61052900D02*
X92820500Y-62558300D01*
X54955900Y-59782900D02*
X54955900Y-57877900D01*
X92820500Y-62558300D02*
X76370900Y-62558300D01*
X76370900Y-62558300D02*
X74617200Y-60804600D01*
X54955900Y-57877900D02*
X54320900Y-57242900D01*
X118337600Y-81254600D02*
X119725900Y-82642900D01*
X54320900Y-57242900D02*
X52415900Y-57242900D01*
X74617200Y-60804600D02*
X55977600Y-60804600D01*
X99259700Y-53544900D02*
X106913900Y-53544900D01*
X108295900Y-47402400D02*
X109090800Y-46607500D01*
X106913900Y-53544900D02*
X108295900Y-52162900D01*
X113535500Y-46607500D02*
X114645900Y-47717900D01*
X67655900Y-75022900D02*
X68877900Y-75022900D01*
X115666800Y-46697000D02*
X114645900Y-47717900D01*
X116655800Y-46697000D02*
X115666800Y-46697000D01*
X92372900Y-74339900D02*
X94325900Y-76292900D01*
X69560900Y-74339900D02*
X92372900Y-74339900D01*
X68877900Y-75022900D02*
X69560900Y-74339900D01*
X108295900Y-52162900D02*
X108295900Y-47402400D01*
X109090800Y-46607500D02*
X113535500Y-46607500D01*
X88061100Y-76678900D02*
X88061100Y-76089900D01*
X82286814Y-51053800D02*
X82877714Y-51644700D01*
X51073300Y-50064600D02*
X52062500Y-51053800D01*
X89544700Y-78162500D02*
X88061100Y-76678900D01*
X52062500Y-51053800D02*
X82286814Y-51053800D01*
X96865900Y-80102900D02*
X96865900Y-78832900D01*
X80206200Y-75172600D02*
X79085900Y-76292900D01*
X51073300Y-45885500D02*
X51073300Y-50064600D01*
X96865900Y-78832900D02*
X96195500Y-78162500D01*
X84165900Y-52162900D02*
X84165900Y-55337900D01*
X88061100Y-76089900D02*
X87143800Y-75172600D01*
X87143800Y-75172600D02*
X80206200Y-75172600D01*
X52415900Y-44542900D02*
X51073300Y-45885500D01*
X96195500Y-78162500D02*
X89544700Y-78162500D01*
X83647700Y-51644700D02*
X84165900Y-52162900D01*
X82877714Y-51644700D02*
X83647700Y-51644700D01*
X110007000Y-54236200D02*
X108127600Y-54236200D01*
X125352400Y-46176900D02*
X125352400Y-46419900D01*
X99711100Y-65408900D02*
X75000600Y-65408900D01*
X103880800Y-64803800D02*
X103521100Y-64444100D01*
X116575700Y-47667500D02*
X110007000Y-54236200D01*
X53697100Y-67402900D02*
X52415900Y-67402900D01*
X108127600Y-54236200D02*
X107025900Y-55337900D01*
X75000600Y-65408900D02*
X74121800Y-66287700D01*
X54812300Y-66287700D02*
X53697100Y-67402900D01*
X107025900Y-62957900D02*
X107025900Y-63354529D01*
X124104800Y-47667500D02*
X116575700Y-47667500D01*
X125352400Y-46419900D02*
X124104800Y-47667500D01*
X74121800Y-66287700D02*
X54812300Y-66287700D01*
X107025900Y-63354529D02*
X105576629Y-64803800D01*
X103521100Y-64444100D02*
X100675900Y-64444100D01*
X105576629Y-64803800D02*
X103880800Y-64803800D01*
X100675900Y-64444100D02*
X99711100Y-65408900D01*
X100903500Y-59782900D02*
X102250100Y-59782900D01*
X88144200Y-59951200D02*
X89245900Y-61052900D01*
X65750900Y-52797900D02*
X65750900Y-57707100D01*
X103074400Y-61212300D02*
X104163600Y-62301500D01*
X52415900Y-52162900D02*
X65115900Y-52162900D01*
X103074400Y-60607200D02*
X103074400Y-61212300D01*
X91785900Y-54236200D02*
X95540000Y-50482100D01*
X102250100Y-59782900D02*
X103074400Y-60607200D01*
X100441200Y-59320600D02*
X100903500Y-59782900D01*
X74936100Y-59951200D02*
X88144200Y-59951200D01*
X90978200Y-59320600D02*
X100441200Y-59320600D01*
X66385900Y-58342100D02*
X73327000Y-58342100D01*
X73327000Y-58342100D02*
X74936100Y-59951200D01*
X104163600Y-62301500D02*
X108909500Y-62301500D01*
X65115900Y-52162900D02*
X65750900Y-52797900D01*
X95540000Y-50482100D02*
X95540000Y-49738700D01*
X91785900Y-55337900D02*
X91785900Y-54236200D01*
X65750900Y-57707100D02*
X66385900Y-58342100D01*
X89245900Y-61052900D02*
X90978200Y-59320600D01*
X108909500Y-62301500D02*
X108930900Y-62322900D01*
X100149671Y-65810600D02*
X101097371Y-64862900D01*
X88097600Y-30691200D02*
X87340900Y-31447900D01*
X103715114Y-65203800D02*
X106050000Y-65203800D01*
X73370900Y-69922900D02*
X77483200Y-65810600D01*
X87340900Y-31447900D02*
X87340900Y-34382900D01*
X87340900Y-34382900D02*
X86705900Y-35017900D01*
X103374214Y-64862900D02*
X103715114Y-65203800D01*
X86705900Y-35017900D02*
X75982100Y-35017900D01*
X75200000Y-35800000D02*
X74100000Y-35800000D01*
X75982100Y-35017900D02*
X75200000Y-35800000D01*
X73370900Y-36529100D02*
X73370900Y-39462900D01*
X101097371Y-64862900D02*
X103374214Y-64862900D01*
X108295900Y-62957900D02*
X110200900Y-62957900D01*
X104485900Y-31842900D02*
X103334200Y-30691200D01*
X77483200Y-65810600D02*
X100149671Y-65810600D01*
X103334200Y-30691200D02*
X88097600Y-30691200D01*
X110200900Y-62957900D02*
X112105900Y-61052900D01*
X106050000Y-65203800D02*
X108295900Y-62957900D01*
X74100000Y-35800000D02*
X73370900Y-36529100D01*
X88327700Y-51244700D02*
X89245900Y-52162900D01*
X89245900Y-52162900D02*
X89245900Y-55337900D01*
X91196500Y-67448500D02*
X91150900Y-67402900D01*
X53437600Y-50644600D02*
X82443300Y-50644600D01*
X106103200Y-69558200D02*
X92036200Y-69558200D01*
X52415900Y-49622900D02*
X53437600Y-50644600D01*
X92036200Y-69558200D02*
X91196500Y-68718500D01*
X83043400Y-51244700D02*
X88327700Y-51244700D01*
X82443300Y-50644600D02*
X83043400Y-51244700D01*
X91196500Y-68718500D02*
X91196500Y-67448500D01*
X108862700Y-65262900D02*
X112505900Y-65262900D01*
X51115900Y-63562900D02*
X52415900Y-64862900D01*
X68849500Y-63344600D02*
X55342600Y-63344600D01*
X96044386Y-62322900D02*
X94981586Y-63385700D01*
X106722700Y-67402900D02*
X108862700Y-65262900D01*
X119357200Y-67099700D02*
X121764600Y-69507100D01*
X98958065Y-59945100D02*
X98135900Y-60767265D01*
X101607814Y-61052900D02*
X100500014Y-59945100D01*
X97500900Y-62322900D02*
X96044386Y-62322900D01*
X69649000Y-62545100D02*
X68849500Y-63344600D01*
X51115900Y-61876700D02*
X51115900Y-63562900D01*
X94981586Y-63385700D02*
X75882900Y-63385700D01*
X114342700Y-67099700D02*
X119357200Y-67099700D01*
X51739800Y-61252800D02*
X51115900Y-61876700D01*
X101945900Y-61052900D02*
X101607814Y-61052900D01*
X75042300Y-62545100D02*
X69649000Y-62545100D01*
X53250800Y-61252800D02*
X51739800Y-61252800D01*
X101945900Y-67402900D02*
X106722700Y-67402900D01*
X112505900Y-65262900D02*
X114342700Y-67099700D01*
X98135900Y-61687900D02*
X97500900Y-62322900D01*
X55342600Y-63344600D02*
X53250800Y-61252800D01*
X100500014Y-59945100D02*
X98958065Y-59945100D01*
X98135900Y-60767265D02*
X98135900Y-61687900D01*
X75882900Y-63385700D02*
X75042300Y-62545100D01*
X97500900Y-62957900D02*
X99405900Y-61052900D01*
X74801300Y-62946800D02*
X75641900Y-63787400D01*
X123142800Y-78439800D02*
X114252800Y-78439800D01*
X95201400Y-63787400D02*
X96030900Y-62957900D01*
X52415900Y-62322900D02*
X53717600Y-62322900D01*
X107025900Y-73117900D02*
X110835900Y-73117900D01*
X69168600Y-63793700D02*
X70015500Y-62946800D01*
X96030900Y-62957900D02*
X97500900Y-62957900D01*
X110835900Y-73117900D02*
X113375900Y-75657900D01*
X114252800Y-78439800D02*
X113375900Y-77562900D01*
X70015500Y-62946800D02*
X74801300Y-62946800D01*
X113375900Y-77562900D02*
X113375900Y-75657900D01*
X53717600Y-62322900D02*
X55188400Y-63793700D01*
X101480000Y-63127000D02*
X104597900Y-63127000D01*
X55188400Y-63793700D02*
X69168600Y-63793700D01*
X75641900Y-63787400D02*
X95201400Y-63787400D01*
X99405900Y-61052900D02*
X101480000Y-63127000D01*
X124805900Y-80102900D02*
X123142800Y-78439800D01*
X104597900Y-63127000D02*
X105501400Y-64030500D01*
X74138718Y-70710718D02*
X73497035Y-71352400D01*
X74271536Y-70577900D02*
X74138718Y-70710718D01*
X70210071Y-71352400D02*
X69858600Y-71703871D01*
X112105900Y-55337900D02*
X112105900Y-55275315D01*
X103850900Y-70577900D02*
X74271536Y-70577900D01*
X73497035Y-71352400D02*
X70210071Y-71352400D01*
X70195900Y-73117900D02*
X70830900Y-73117900D01*
X112975900Y-54405314D02*
X116804900Y-50576314D01*
X116804900Y-50576314D02*
X116804900Y-50003900D01*
X112975900Y-54405315D02*
X112975900Y-54405314D01*
X69858600Y-72780600D02*
X70195900Y-73117900D01*
X69858600Y-71703871D02*
X69858600Y-72780600D01*
X112105900Y-55275315D02*
X112975900Y-54405315D01*
X73996300Y-55804600D02*
X75685600Y-54115300D01*
X69094200Y-54702900D02*
X70195900Y-55804600D01*
X86930900Y-81964400D02*
X88767700Y-83801200D01*
X94325900Y-49622900D02*
X94325900Y-47717900D01*
X79899500Y-54115300D02*
X81193800Y-52821000D01*
X98247600Y-83801200D02*
X99405900Y-82642900D01*
X73837300Y-76292900D02*
X73115900Y-75571500D01*
X76545900Y-76292900D02*
X78059900Y-77806900D01*
X78059900Y-77806900D02*
X85254500Y-77806900D01*
X67655900Y-54702900D02*
X69094200Y-54702900D01*
X70195900Y-55804600D02*
X73996300Y-55804600D01*
X76545900Y-76292900D02*
X73837300Y-76292900D01*
X88767700Y-83801200D02*
X98247600Y-83801200D01*
X86930900Y-79483300D02*
X86930900Y-81964400D01*
X83371800Y-50643000D02*
X93305800Y-50643000D01*
X75685600Y-54115300D02*
X79899500Y-54115300D01*
X85254500Y-77806900D02*
X86930900Y-79483300D01*
X93305800Y-50643000D02*
X94325900Y-49622900D01*
X94460400Y-73887400D02*
X69695400Y-73887400D01*
X99780500Y-56560700D02*
X100675900Y-55665300D01*
X100675900Y-55665300D02*
X100675900Y-55040700D01*
X68925900Y-73117900D02*
X68955900Y-73087900D01*
X68955900Y-73087900D02*
X68955900Y-71242900D01*
X107561914Y-54236200D02*
X109565900Y-52232214D01*
X68955900Y-71242900D02*
X67655900Y-69942900D01*
X69695400Y-73887400D02*
X68925900Y-73117900D01*
X93145600Y-56560700D02*
X99780500Y-56560700D01*
X96865900Y-76292900D02*
X94460400Y-73887400D01*
X109565900Y-52232214D02*
X109565900Y-47717900D01*
X100675900Y-55040700D02*
X101480400Y-54236200D01*
X101480400Y-54236200D02*
X107561914Y-54236200D01*
X124109700Y-46724000D02*
X123064600Y-45678900D01*
X70195900Y-56513700D02*
X92179700Y-56513700D01*
X93055900Y-54941300D02*
X96865900Y-51131300D01*
X67655900Y-57242900D02*
X69466700Y-57242900D01*
X93055900Y-55637500D02*
X93055900Y-54941300D01*
X92179700Y-56513700D02*
X93055900Y-55637500D01*
X69466700Y-57242900D02*
X70195900Y-56513700D01*
X97634900Y-45678900D02*
X96865900Y-46447900D01*
X96865900Y-46447900D02*
X96865900Y-47717900D01*
X123064600Y-45678900D02*
X97634900Y-45678900D01*
X96865900Y-51131300D02*
X96865900Y-47717900D01*
X87975900Y-45177900D02*
X89245900Y-43907900D01*
X81625900Y-47717900D02*
X81625900Y-45812900D01*
X70365500Y-48680800D02*
X70517300Y-48832600D01*
X81625900Y-45812900D02*
X82260900Y-45177900D01*
X80511200Y-48832600D02*
X81625900Y-47717900D01*
X70517300Y-48832600D02*
X80511200Y-48832600D01*
X82260900Y-45177900D02*
X87975900Y-45177900D01*
X125160200Y-47717900D02*
X127345900Y-47717900D01*
X107672300Y-41991500D02*
X107025900Y-42637900D01*
X127345900Y-47717900D02*
X127982900Y-47080900D01*
X127580300Y-41991500D02*
X107672300Y-41991500D01*
X125070500Y-47628200D02*
X125160200Y-47717900D01*
X107025900Y-42637900D02*
X107025900Y-43907900D01*
X104485900Y-43907900D02*
X107025900Y-43907900D01*
X127982900Y-42394100D02*
X127580300Y-41991500D01*
X127982900Y-47080900D02*
X127982900Y-42394100D01*
X136117600Y-57479500D02*
X136117600Y-49092100D01*
X134965900Y-59782900D02*
X134965900Y-59207000D01*
X134965900Y-59207000D02*
X134965900Y-58631200D01*
X131659000Y-40827900D02*
X115269100Y-40827900D01*
X99405900Y-37557900D02*
X99405900Y-36287900D01*
X100035800Y-38187800D02*
X99405900Y-37557900D01*
X135496700Y-48471200D02*
X134189100Y-48471200D01*
X115269100Y-40827900D02*
X112629000Y-38187800D01*
X136117600Y-49092100D02*
X135496700Y-48471200D01*
X134189100Y-48471200D02*
X133661200Y-47943300D01*
X134965900Y-58631200D02*
X136117600Y-57479500D01*
X112629000Y-38187800D02*
X100035800Y-38187800D01*
X132425900Y-59782900D02*
X134965900Y-59782900D01*
X116555800Y-39773900D02*
X123642000Y-39773900D01*
X113069800Y-36287900D02*
X116555800Y-39773900D01*
X112105900Y-36287900D02*
X113069800Y-36287900D01*
X129351000Y-58034500D02*
X129189800Y-58195700D01*
X103082800Y-35151000D02*
X101945900Y-36287900D01*
X129189800Y-58195700D02*
X122423100Y-58195700D01*
X122394400Y-36642200D02*
X120903200Y-35151000D01*
X130921800Y-62675300D02*
X130326300Y-62675300D01*
X120903200Y-35151000D02*
X103082800Y-35151000D01*
X131274200Y-62322900D02*
X130921800Y-62675300D01*
X132425900Y-62322900D02*
X131274200Y-62322900D01*
X115915900Y-65497900D02*
X120360900Y-65497900D01*
X103215900Y-42002900D02*
X103850900Y-41367900D01*
X132425900Y-64862900D02*
X134965900Y-64862900D01*
X108295900Y-63592900D02*
X114010900Y-63592900D01*
X101310900Y-42002900D02*
X103215900Y-42002900D01*
X131275900Y-66012900D02*
X132425900Y-64862900D01*
X106285000Y-65603800D02*
X108295900Y-63592900D01*
X101310900Y-65497900D02*
X101416800Y-65603800D01*
X101416800Y-65603800D02*
X106285000Y-65603800D01*
X114010900Y-63592900D02*
X115915900Y-65497900D01*
X120360900Y-65497900D02*
X123535900Y-68672900D01*
X129885900Y-68672900D02*
X131275900Y-67282900D01*
X123535900Y-68672900D02*
X129885900Y-68672900D01*
X131275900Y-67282900D02*
X131275900Y-66012900D01*
X127532300Y-77092500D02*
X127532300Y-77092400D01*
X129287200Y-77092400D02*
X131356700Y-75022900D01*
X122510500Y-39348200D02*
X118807900Y-39348200D01*
X124372900Y-39160100D02*
X122698600Y-39160100D01*
X124461600Y-39248800D02*
X124372900Y-39160100D01*
X114645900Y-36287900D02*
X115747600Y-36287900D01*
X122698600Y-39160100D02*
X122510500Y-39348200D01*
X118807900Y-39348200D02*
X115747600Y-36287900D01*
X131356700Y-75022900D02*
X132425900Y-75022900D01*
X134965900Y-75022900D02*
X132425900Y-75022900D01*
X127532300Y-77092400D02*
X129287200Y-77092400D01*
X90363200Y-66212300D02*
X106946500Y-66212300D01*
X131723900Y-76292900D02*
X130281700Y-77735100D01*
X90157500Y-66418000D02*
X90363200Y-66212300D01*
X97595600Y-39588700D02*
X108785900Y-39588700D01*
X134965900Y-69942900D02*
X136174300Y-71151300D01*
X136174300Y-75506600D02*
X135388000Y-76292900D01*
X108295900Y-64862900D02*
X113375900Y-64862900D01*
X127040800Y-77735100D02*
X126790700Y-77485000D01*
X124116700Y-70590100D02*
X125911400Y-70590100D01*
X135388000Y-76292900D02*
X131723900Y-76292900D01*
X120226300Y-66699700D02*
X124116700Y-70590100D01*
X115212700Y-66699700D02*
X120226300Y-66699700D01*
X95878300Y-41306000D02*
X97595600Y-39588700D01*
X106946500Y-66212300D02*
X108295900Y-64862900D01*
X113375900Y-64862900D02*
X115212700Y-66699700D01*
X132425900Y-69942900D02*
X134965900Y-69942900D01*
X130281700Y-77735100D02*
X127040800Y-77735100D01*
X136174300Y-71151300D02*
X136174300Y-75506600D01*
X132425900Y-77562900D02*
X131274200Y-77562900D01*
X126085000Y-78176200D02*
X130660900Y-78176200D01*
X115392300Y-74874100D02*
X115915900Y-75397700D01*
X130660900Y-78176200D02*
X131274200Y-77562900D01*
X110835900Y-48987900D02*
X110835900Y-52162900D01*
X115915900Y-75397700D02*
X115915900Y-76590900D01*
X134965900Y-77562900D02*
X132425900Y-77562900D01*
X117326200Y-78001200D02*
X125910000Y-78001200D01*
X115915900Y-76590900D02*
X117326200Y-78001200D01*
X125910000Y-78001200D02*
X126085000Y-78176200D01*
X110835900Y-52162900D02*
X110200900Y-52797900D01*
X107724900Y-40953600D02*
X108299800Y-41528500D01*
X108299800Y-41528500D02*
X130688100Y-41528500D01*
X120099200Y-46089700D02*
X103574100Y-46089700D01*
X121074700Y-47065200D02*
X120099200Y-46089700D01*
X122265900Y-76292900D02*
X122265900Y-74808400D01*
X121630900Y-74173400D02*
X117418800Y-74173400D01*
X122265900Y-74808400D02*
X121630900Y-74173400D01*
X103574100Y-46089700D02*
X101945900Y-47717900D01*
X86053000Y-45830800D02*
X86070900Y-45812900D01*
X84783000Y-45830800D02*
X86053000Y-45830800D01*
X84783000Y-45830800D02*
X84165900Y-46447900D01*
X84165900Y-46447900D02*
X84165900Y-47717900D01*
X81625900Y-43907900D02*
X82725900Y-42807900D01*
X85605900Y-42807900D02*
X86705900Y-43907900D01*
X82725900Y-42807900D02*
X85605900Y-42807900D01*
G04 #@! TA.AperFunction,Conductor*
G36*
X59703918Y-28040185D02*
G01*
X59749673Y-28092989D01*
X59759617Y-28162147D01*
X59730592Y-28225703D01*
X59671814Y-28263477D01*
X59668972Y-28264275D01*
X59633682Y-28273730D01*
X59633673Y-28273734D01*
X59427517Y-28369865D01*
X59241179Y-28500342D01*
X59080342Y-28661179D01*
X58949865Y-28847517D01*
X58853734Y-29053673D01*
X58853730Y-29053682D01*
X58801127Y-29249999D01*
X58801128Y-29250000D01*
X59764314Y-29250000D01*
X59759920Y-29254394D01*
X59707259Y-29345606D01*
X59680000Y-29447339D01*
X59680000Y-29552661D01*
X59707259Y-29654394D01*
X59759920Y-29745606D01*
X59764314Y-29750000D01*
X58801128Y-29750000D01*
X58853730Y-29946317D01*
X58853734Y-29946326D01*
X58949865Y-30152482D01*
X59080342Y-30338820D01*
X59241177Y-30499655D01*
X59243751Y-30501815D01*
X59244573Y-30503051D01*
X59245012Y-30503490D01*
X59244923Y-30503578D01*
X59282452Y-30559987D01*
X59283560Y-30629848D01*
X59246722Y-30689218D01*
X59216111Y-30709343D01*
X59122650Y-30752583D01*
X59036520Y-30804406D01*
X58815981Y-30937100D01*
X58770733Y-30971497D01*
X58531072Y-31153681D01*
X58531063Y-31153689D01*
X58271231Y-31399814D01*
X58039541Y-31672580D01*
X58039534Y-31672590D01*
X57838690Y-31968813D01*
X57838684Y-31968822D01*
X57671051Y-32285011D01*
X57671042Y-32285029D01*
X57538574Y-32617500D01*
X57538572Y-32617507D01*
X57442832Y-32962334D01*
X57442826Y-32962360D01*
X57384929Y-33315514D01*
X57384928Y-33315531D01*
X57365552Y-33672897D01*
X57365552Y-33672902D01*
X57384928Y-34030268D01*
X57384929Y-34030285D01*
X57442826Y-34383439D01*
X57442832Y-34383465D01*
X57538572Y-34728292D01*
X57538574Y-34728299D01*
X57671042Y-35060770D01*
X57671051Y-35060788D01*
X57838684Y-35376977D01*
X57838687Y-35376982D01*
X57838689Y-35376985D01*
X58013739Y-35635165D01*
X58039534Y-35673209D01*
X58039541Y-35673219D01*
X58267971Y-35942147D01*
X58271232Y-35945986D01*
X58531063Y-36192111D01*
X58815981Y-36408700D01*
X59122647Y-36593215D01*
X59122649Y-36593216D01*
X59122651Y-36593217D01*
X59122655Y-36593219D01*
X59428096Y-36734530D01*
X59447465Y-36743491D01*
X59786626Y-36857768D01*
X60136154Y-36934705D01*
X60491952Y-36973400D01*
X60491958Y-36973400D01*
X60849842Y-36973400D01*
X60849848Y-36973400D01*
X61205646Y-36934705D01*
X61555174Y-36857768D01*
X61894335Y-36743491D01*
X62219153Y-36593215D01*
X62525819Y-36408700D01*
X62810737Y-36192111D01*
X63070568Y-35945986D01*
X63302265Y-35673211D01*
X63503111Y-35376985D01*
X63670753Y-35060780D01*
X63803224Y-34728303D01*
X63898971Y-34383452D01*
X63928449Y-34203645D01*
X63956870Y-34030285D01*
X63956870Y-34030282D01*
X63956872Y-34030271D01*
X63976248Y-33672900D01*
X63956872Y-33315529D01*
X63953012Y-33291987D01*
X63898973Y-32962360D01*
X63898972Y-32962359D01*
X63898971Y-32962348D01*
X63837451Y-32740772D01*
X63803227Y-32617507D01*
X63803225Y-32617500D01*
X63670757Y-32285029D01*
X63670748Y-32285011D01*
X63503115Y-31968822D01*
X63503113Y-31968819D01*
X63503111Y-31968815D01*
X63302265Y-31672589D01*
X63302261Y-31672584D01*
X63302258Y-31672580D01*
X63070568Y-31399814D01*
X63049274Y-31379643D01*
X62810737Y-31153689D01*
X62810730Y-31153683D01*
X62810727Y-31153681D01*
X62571067Y-30971497D01*
X62546164Y-30952566D01*
X62504707Y-30896325D01*
X62500238Y-30826599D01*
X62534175Y-30765525D01*
X62589115Y-30734076D01*
X62616483Y-30726743D01*
X62616488Y-30726740D01*
X62616496Y-30726739D01*
X62822734Y-30630568D01*
X63009139Y-30500047D01*
X63170047Y-30339139D01*
X63300568Y-30152734D01*
X63396739Y-29946496D01*
X63455635Y-29726692D01*
X63475468Y-29500000D01*
X63455635Y-29273308D01*
X63400487Y-29067492D01*
X63396741Y-29053511D01*
X63396738Y-29053502D01*
X63328792Y-28907793D01*
X63300568Y-28847266D01*
X63170047Y-28660861D01*
X63170045Y-28660858D01*
X63009141Y-28499954D01*
X62822734Y-28369432D01*
X62822732Y-28369431D01*
X62616497Y-28273261D01*
X62616488Y-28273258D01*
X62582961Y-28264275D01*
X62523300Y-28227910D01*
X62492771Y-28165063D01*
X62501066Y-28095688D01*
X62545551Y-28041810D01*
X62612103Y-28020535D01*
X62615054Y-28020500D01*
X71886879Y-28020500D01*
X71953918Y-28040185D01*
X71999673Y-28092989D01*
X72009617Y-28162147D01*
X71980592Y-28225703D01*
X71921814Y-28263477D01*
X71918972Y-28264275D01*
X71883682Y-28273730D01*
X71883673Y-28273734D01*
X71677517Y-28369865D01*
X71491179Y-28500342D01*
X71330342Y-28661179D01*
X71199865Y-28847517D01*
X71103734Y-29053673D01*
X71103730Y-29053682D01*
X71051127Y-29249999D01*
X71051128Y-29250000D01*
X72014314Y-29250000D01*
X72009920Y-29254394D01*
X71957259Y-29345606D01*
X71930000Y-29447339D01*
X71930000Y-29552661D01*
X71957259Y-29654394D01*
X72009920Y-29745606D01*
X72014314Y-29750000D01*
X71051128Y-29750000D01*
X71103730Y-29946317D01*
X71103734Y-29946326D01*
X71199865Y-30152482D01*
X71330342Y-30338820D01*
X71491179Y-30499657D01*
X71677516Y-30630133D01*
X71698803Y-30640059D01*
X71751243Y-30686231D01*
X71770400Y-30752442D01*
X71770401Y-32949500D01*
X71750716Y-33016539D01*
X71697913Y-33062294D01*
X71646401Y-33073500D01*
X66345570Y-33073500D01*
X66345554Y-33073499D01*
X66337958Y-33073499D01*
X66179843Y-33073499D01*
X66103479Y-33093961D01*
X66027114Y-33114423D01*
X66027109Y-33114426D01*
X65890190Y-33193475D01*
X65890182Y-33193481D01*
X65016379Y-34067284D01*
X64987933Y-34116555D01*
X64975910Y-34137381D01*
X64937323Y-34204215D01*
X64896399Y-34356943D01*
X64896399Y-34356945D01*
X64896399Y-34525046D01*
X64896400Y-34525059D01*
X64896400Y-38337303D01*
X64876715Y-38404342D01*
X64860081Y-38424984D01*
X64268484Y-39016581D01*
X64207161Y-39050066D01*
X64180803Y-39052900D01*
X51796457Y-39052900D01*
X51638342Y-39052900D01*
X51632028Y-39054592D01*
X51485614Y-39093823D01*
X51485609Y-39093826D01*
X51348690Y-39172875D01*
X51348682Y-39172881D01*
X50142681Y-40378882D01*
X50142680Y-40378884D01*
X50100849Y-40451338D01*
X50063623Y-40515815D01*
X50022699Y-40668543D01*
X50022699Y-40668545D01*
X50022699Y-40836646D01*
X50022700Y-40836659D01*
X50022700Y-68063530D01*
X50022699Y-68063548D01*
X50022699Y-68229254D01*
X50022698Y-68229254D01*
X50045812Y-68315514D01*
X50063623Y-68381985D01*
X50075726Y-68402947D01*
X50101024Y-68446765D01*
X50142679Y-68518915D01*
X50261549Y-68637785D01*
X50261555Y-68637790D01*
X50973976Y-69350211D01*
X51007461Y-69411534D01*
X51004226Y-69476209D01*
X50945453Y-69657095D01*
X50915400Y-69846845D01*
X50915400Y-70038954D01*
X50945453Y-70228702D01*
X51004816Y-70411406D01*
X51030617Y-70462042D01*
X51092035Y-70582581D01*
X51204955Y-70738002D01*
X51340798Y-70873845D01*
X51496219Y-70986765D01*
X51607907Y-71043673D01*
X51667393Y-71073983D01*
X51731981Y-71094969D01*
X51789656Y-71134406D01*
X51816855Y-71198765D01*
X51804941Y-71267611D01*
X51757697Y-71319087D01*
X51731981Y-71330831D01*
X51667393Y-71351816D01*
X51496218Y-71439035D01*
X51429994Y-71487150D01*
X51340798Y-71551955D01*
X51340796Y-71551957D01*
X51340795Y-71551957D01*
X51204957Y-71687795D01*
X51204957Y-71687796D01*
X51204955Y-71687798D01*
X51156941Y-71753883D01*
X51092035Y-71843218D01*
X51004816Y-72014393D01*
X50945453Y-72197097D01*
X50924002Y-72332532D01*
X50915400Y-72386845D01*
X50915400Y-72578955D01*
X50926323Y-72647919D01*
X50945453Y-72768702D01*
X51004816Y-72951406D01*
X51045820Y-73031880D01*
X51092035Y-73122581D01*
X51204955Y-73278002D01*
X51340798Y-73413845D01*
X51496219Y-73526765D01*
X51662396Y-73611437D01*
X51667395Y-73613984D01*
X51732790Y-73635232D01*
X51790466Y-73674669D01*
X51817665Y-73739027D01*
X51805751Y-73807874D01*
X51758507Y-73859350D01*
X51732793Y-73871094D01*
X51667577Y-73892284D01*
X51496477Y-73979465D01*
X51341130Y-74092330D01*
X51341125Y-74092334D01*
X51205334Y-74228125D01*
X51205330Y-74228130D01*
X51092465Y-74383477D01*
X51005283Y-74554580D01*
X50945940Y-74737218D01*
X50940289Y-74772900D01*
X51982888Y-74772900D01*
X51949975Y-74829907D01*
X51915900Y-74957074D01*
X51915900Y-75088726D01*
X51949975Y-75215893D01*
X51982888Y-75272900D01*
X50940289Y-75272900D01*
X50945940Y-75308581D01*
X51005283Y-75491219D01*
X51092465Y-75662322D01*
X51205330Y-75817669D01*
X51205334Y-75817674D01*
X51341125Y-75953465D01*
X51341130Y-75953469D01*
X51496477Y-76066334D01*
X51667578Y-76153516D01*
X51850215Y-76212859D01*
X52039885Y-76242900D01*
X52165900Y-76242900D01*
X52165900Y-75455912D01*
X52222907Y-75488825D01*
X52350074Y-75522900D01*
X52481726Y-75522900D01*
X52608893Y-75488825D01*
X52665900Y-75455912D01*
X52665900Y-76242900D01*
X52791915Y-76242900D01*
X52981584Y-76212859D01*
X53164221Y-76153516D01*
X53335322Y-76066334D01*
X53490669Y-75953469D01*
X53490674Y-75953465D01*
X53626465Y-75817674D01*
X53626469Y-75817669D01*
X53739334Y-75662322D01*
X53826516Y-75491219D01*
X53885859Y-75308581D01*
X53891511Y-75272900D01*
X52848912Y-75272900D01*
X52881825Y-75215893D01*
X52915900Y-75088726D01*
X52915900Y-74957074D01*
X52881825Y-74829907D01*
X52848912Y-74772900D01*
X53891511Y-74772900D01*
X53885859Y-74737218D01*
X53826516Y-74554580D01*
X53739334Y-74383477D01*
X53626469Y-74228130D01*
X53626465Y-74228125D01*
X53490674Y-74092334D01*
X53490669Y-74092330D01*
X53335322Y-73979465D01*
X53164221Y-73892283D01*
X53099007Y-73871094D01*
X53041332Y-73831656D01*
X53014134Y-73767297D01*
X53026049Y-73698451D01*
X53073294Y-73646975D01*
X53099009Y-73635232D01*
X53164404Y-73613984D01*
X53164406Y-73613982D01*
X53164409Y-73613982D01*
X53335581Y-73526765D01*
X53491002Y-73413845D01*
X53626845Y-73278002D01*
X53739765Y-73122581D01*
X53826982Y-72951409D01*
X53886347Y-72768701D01*
X53916400Y-72578955D01*
X53916400Y-72386845D01*
X53886347Y-72197099D01*
X53834137Y-72036411D01*
X53826983Y-72014393D01*
X53793770Y-71949209D01*
X53739765Y-71843219D01*
X53626845Y-71687798D01*
X53491002Y-71551955D01*
X53335581Y-71439035D01*
X53292812Y-71417243D01*
X53164404Y-71351815D01*
X53099819Y-71330831D01*
X53042143Y-71291394D01*
X53014944Y-71227036D01*
X53026858Y-71158189D01*
X53074102Y-71106713D01*
X53099819Y-71094969D01*
X53164404Y-71073984D01*
X53164406Y-71073982D01*
X53164409Y-71073982D01*
X53335581Y-70986765D01*
X53491002Y-70873845D01*
X53626845Y-70738002D01*
X53739765Y-70582581D01*
X53826982Y-70411409D01*
X53886347Y-70228701D01*
X53916400Y-70038955D01*
X53916400Y-69846845D01*
X53886347Y-69657099D01*
X53846751Y-69535234D01*
X53826983Y-69474393D01*
X53801183Y-69423758D01*
X53739765Y-69303219D01*
X53626845Y-69147798D01*
X53491002Y-69011955D01*
X53335581Y-68899035D01*
X53198427Y-68829151D01*
X53164404Y-68811815D01*
X53099819Y-68790831D01*
X53042143Y-68751394D01*
X53014944Y-68687036D01*
X53026858Y-68618189D01*
X53074102Y-68566713D01*
X53099819Y-68554969D01*
X53164404Y-68533984D01*
X53164406Y-68533982D01*
X53164409Y-68533982D01*
X53335581Y-68446765D01*
X53491002Y-68333845D01*
X53626845Y-68198002D01*
X53739765Y-68042581D01*
X53739765Y-68042579D01*
X53740505Y-68041562D01*
X53795835Y-67998896D01*
X53808714Y-67994677D01*
X53928885Y-67962477D01*
X54005202Y-67918415D01*
X54065816Y-67883420D01*
X54177620Y-67771616D01*
X54177620Y-67771614D01*
X54187824Y-67761411D01*
X54187827Y-67761406D01*
X55024716Y-66924519D01*
X55086039Y-66891034D01*
X55112397Y-66888200D01*
X66089155Y-66888200D01*
X66156194Y-66907885D01*
X66201949Y-66960689D01*
X66211893Y-67029847D01*
X66207086Y-67050518D01*
X66185453Y-67117097D01*
X66158857Y-67285020D01*
X66155400Y-67306845D01*
X66155400Y-67498955D01*
X66179244Y-67649499D01*
X66185453Y-67688701D01*
X66244816Y-67871406D01*
X66329662Y-68037923D01*
X66332035Y-68042581D01*
X66444955Y-68198002D01*
X66580798Y-68333845D01*
X66736219Y-68446765D01*
X66907391Y-68533982D01*
X66907393Y-68533983D01*
X66971981Y-68554969D01*
X67029656Y-68594406D01*
X67056855Y-68658765D01*
X67044941Y-68727611D01*
X66997697Y-68779087D01*
X66971981Y-68790831D01*
X66907393Y-68811816D01*
X66736218Y-68899035D01*
X66647545Y-68963460D01*
X66580798Y-69011955D01*
X66580796Y-69011957D01*
X66580795Y-69011957D01*
X66444957Y-69147795D01*
X66444957Y-69147796D01*
X66444955Y-69147798D01*
X66407741Y-69199019D01*
X66332035Y-69303218D01*
X66244816Y-69474393D01*
X66185453Y-69657097D01*
X66155400Y-69846845D01*
X66155400Y-70038954D01*
X66185453Y-70228702D01*
X66244816Y-70411406D01*
X66270617Y-70462042D01*
X66332035Y-70582581D01*
X66444955Y-70738002D01*
X66580798Y-70873845D01*
X66736219Y-70986765D01*
X66847907Y-71043673D01*
X66907393Y-71073983D01*
X66971981Y-71094969D01*
X67029656Y-71134406D01*
X67056855Y-71198765D01*
X67044941Y-71267611D01*
X66997697Y-71319087D01*
X66971981Y-71330831D01*
X66907393Y-71351816D01*
X66736218Y-71439035D01*
X66669994Y-71487150D01*
X66580798Y-71551955D01*
X66580796Y-71551957D01*
X66580795Y-71551957D01*
X66444957Y-71687795D01*
X66444957Y-71687796D01*
X66444955Y-71687798D01*
X66396941Y-71753883D01*
X66332035Y-71843218D01*
X66244816Y-72014393D01*
X66185453Y-72197097D01*
X66164002Y-72332532D01*
X66155400Y-72386845D01*
X66155400Y-72578955D01*
X66166323Y-72647919D01*
X66185453Y-72768702D01*
X66244226Y-72949588D01*
X66246221Y-73019429D01*
X66213976Y-73075587D01*
X65969786Y-73319778D01*
X65857981Y-73431582D01*
X65857979Y-73431585D01*
X65826209Y-73486614D01*
X65826208Y-73486616D01*
X65778923Y-73568514D01*
X65767422Y-73611437D01*
X65737999Y-73721243D01*
X65737999Y-73721245D01*
X65737999Y-73889346D01*
X65738000Y-73889359D01*
X65738000Y-75353730D01*
X65737999Y-75353748D01*
X65737999Y-75519454D01*
X65737998Y-75519454D01*
X65750156Y-75564827D01*
X65778923Y-75672185D01*
X65778924Y-75672187D01*
X65778923Y-75672187D01*
X65795401Y-75700726D01*
X65795403Y-75700728D01*
X65795404Y-75700730D01*
X65825342Y-75752585D01*
X65857979Y-75809115D01*
X65976849Y-75927985D01*
X65976855Y-75927990D01*
X66460939Y-76412074D01*
X66460949Y-76412085D01*
X66465279Y-76416415D01*
X66465280Y-76416416D01*
X66577084Y-76528220D01*
X66651800Y-76571357D01*
X66714015Y-76607277D01*
X66866743Y-76648201D01*
X66866746Y-76648201D01*
X67032453Y-76648201D01*
X67032469Y-76648200D01*
X68464431Y-76648200D01*
X68464447Y-76648201D01*
X68472043Y-76648201D01*
X68630154Y-76648201D01*
X68630157Y-76648201D01*
X68782885Y-76607277D01*
X68845100Y-76571357D01*
X68919816Y-76528220D01*
X69031620Y-76416416D01*
X69031620Y-76416414D01*
X69041824Y-76406211D01*
X69041827Y-76406206D01*
X70060417Y-75387619D01*
X70121740Y-75354134D01*
X70148098Y-75351300D01*
X72196389Y-75351300D01*
X72263428Y-75370985D01*
X72309183Y-75423789D01*
X72319609Y-75489183D01*
X72310335Y-75571495D01*
X72310335Y-75571503D01*
X72330530Y-75750749D01*
X72330531Y-75750754D01*
X72390111Y-75921023D01*
X72444673Y-76007857D01*
X72486084Y-76073762D01*
X72613638Y-76201316D01*
X72766378Y-76297289D01*
X72936645Y-76356868D01*
X73023569Y-76366661D01*
X73087980Y-76393726D01*
X73097364Y-76402199D01*
X73468584Y-76773420D01*
X73468586Y-76773421D01*
X73468590Y-76773424D01*
X73575565Y-76835185D01*
X73605516Y-76852477D01*
X73758243Y-76893401D01*
X73758245Y-76893401D01*
X73923954Y-76893401D01*
X73923970Y-76893400D01*
X75121401Y-76893400D01*
X75188440Y-76913085D01*
X75234195Y-76965889D01*
X75245401Y-77017400D01*
X75245401Y-77140776D01*
X75251808Y-77200383D01*
X75302102Y-77335228D01*
X75302106Y-77335235D01*
X75388352Y-77450444D01*
X75388355Y-77450447D01*
X75503564Y-77536693D01*
X75503571Y-77536697D01*
X75638417Y-77586991D01*
X75638416Y-77586991D01*
X75645344Y-77587735D01*
X75698027Y-77593400D01*
X76945802Y-77593399D01*
X77012841Y-77613084D01*
X77033483Y-77629718D01*
X77575039Y-78171274D01*
X77575049Y-78171285D01*
X77579379Y-78175615D01*
X77579380Y-78175616D01*
X77691184Y-78287420D01*
X77756894Y-78325357D01*
X77805110Y-78375924D01*
X77818334Y-78444531D01*
X77792366Y-78509396D01*
X77735452Y-78549925D01*
X77704624Y-78556363D01*
X77572602Y-78566753D01*
X77572598Y-78566754D01*
X77425291Y-78602120D01*
X77335280Y-78623730D01*
X77109810Y-78717122D01*
X76901726Y-78844637D01*
X76901723Y-78844638D01*
X76716141Y-79003141D01*
X76557638Y-79188723D01*
X76557637Y-79188726D01*
X76430122Y-79396810D01*
X76336730Y-79622280D01*
X76279753Y-79859602D01*
X76260606Y-80102900D01*
X76279753Y-80346197D01*
X76279753Y-80346200D01*
X76279754Y-80346202D01*
X76287144Y-80376985D01*
X76336730Y-80583519D01*
X76430122Y-80808989D01*
X76557637Y-81017073D01*
X76557638Y-81017076D01*
X76597559Y-81063817D01*
X76716141Y-81202659D01*
X76828460Y-81298588D01*
X76901723Y-81361161D01*
X76901726Y-81361162D01*
X77109810Y-81488677D01*
X77259237Y-81550571D01*
X77324100Y-81577438D01*
X77335281Y-81582069D01*
X77335278Y-81582069D01*
X77335284Y-81582070D01*
X77335288Y-81582072D01*
X77572598Y-81639046D01*
X77815900Y-81658194D01*
X77815901Y-81658193D01*
X77820757Y-81658576D01*
X77820642Y-81660027D01*
X77881438Y-81677879D01*
X77927193Y-81730683D01*
X77937137Y-81799841D01*
X77918208Y-81850015D01*
X77862037Y-81935991D01*
X77770469Y-82144744D01*
X77714510Y-82365720D01*
X77714508Y-82365731D01*
X77695686Y-82592893D01*
X77695686Y-82592906D01*
X77714508Y-82820068D01*
X77714510Y-82820079D01*
X77770469Y-83041055D01*
X77862037Y-83249808D01*
X77986714Y-83440642D01*
X78141108Y-83608358D01*
X78141112Y-83608361D01*
X78304114Y-83735231D01*
X78320994Y-83748369D01*
X78320996Y-83748370D01*
X78320999Y-83748372D01*
X78391352Y-83786445D01*
X78440943Y-83835664D01*
X78456051Y-83903881D01*
X78431881Y-83969437D01*
X78376105Y-84011518D01*
X78332335Y-84019500D01*
X48594500Y-84019500D01*
X48527461Y-83999815D01*
X48481706Y-83947011D01*
X48470500Y-83895500D01*
X48470500Y-78672897D01*
X57365552Y-78672897D01*
X57365552Y-78672902D01*
X57372247Y-78796385D01*
X57382490Y-78985313D01*
X57384928Y-79030268D01*
X57384929Y-79030285D01*
X57442826Y-79383439D01*
X57442832Y-79383465D01*
X57538572Y-79728292D01*
X57538574Y-79728299D01*
X57671042Y-80060770D01*
X57671051Y-80060788D01*
X57838684Y-80376977D01*
X57838687Y-80376982D01*
X57838689Y-80376985D01*
X58026952Y-80654653D01*
X58039534Y-80673209D01*
X58039541Y-80673219D01*
X58259210Y-80931833D01*
X58271232Y-80945986D01*
X58531063Y-81192111D01*
X58531070Y-81192116D01*
X58531072Y-81192118D01*
X58544937Y-81202658D01*
X58815981Y-81408700D01*
X59122647Y-81593215D01*
X59122649Y-81593216D01*
X59122651Y-81593217D01*
X59122655Y-81593219D01*
X59386840Y-81715443D01*
X59447465Y-81743491D01*
X59786626Y-81857768D01*
X60136154Y-81934705D01*
X60491952Y-81973400D01*
X60491958Y-81973400D01*
X60849842Y-81973400D01*
X60849848Y-81973400D01*
X61205646Y-81934705D01*
X61555174Y-81857768D01*
X61894335Y-81743491D01*
X62219153Y-81593215D01*
X62525819Y-81408700D01*
X62810737Y-81192111D01*
X63070568Y-80945986D01*
X63302265Y-80673211D01*
X63503111Y-80376985D01*
X63670753Y-80060780D01*
X63803224Y-79728303D01*
X63898971Y-79383452D01*
X63929388Y-79197916D01*
X63956870Y-79030285D01*
X63956870Y-79030282D01*
X63956872Y-79030271D01*
X63975255Y-78691213D01*
X63976248Y-78672902D01*
X63976248Y-78672897D01*
X63970493Y-78566753D01*
X63956872Y-78315529D01*
X63944609Y-78240730D01*
X63898973Y-77962360D01*
X63898972Y-77962359D01*
X63898971Y-77962348D01*
X63837516Y-77741005D01*
X63803227Y-77617507D01*
X63803225Y-77617500D01*
X63802380Y-77615380D01*
X63725916Y-77423468D01*
X63670757Y-77285029D01*
X63670748Y-77285011D01*
X63665965Y-77275990D01*
X63503111Y-76968815D01*
X63302265Y-76672589D01*
X63302261Y-76672584D01*
X63302258Y-76672580D01*
X63070568Y-76399814D01*
X63035568Y-76366660D01*
X62810737Y-76153689D01*
X62810730Y-76153683D01*
X62810727Y-76153681D01*
X62695823Y-76066334D01*
X62525819Y-75937100D01*
X62219153Y-75752585D01*
X62219152Y-75752584D01*
X62219148Y-75752582D01*
X62219144Y-75752580D01*
X61894347Y-75602314D01*
X61894341Y-75602311D01*
X61894335Y-75602309D01*
X61724754Y-75545170D01*
X61555173Y-75488031D01*
X61205644Y-75411094D01*
X60849849Y-75372400D01*
X60849848Y-75372400D01*
X60491952Y-75372400D01*
X60491950Y-75372400D01*
X60136155Y-75411094D01*
X59786626Y-75488031D01*
X59538894Y-75571503D01*
X59447465Y-75602309D01*
X59447463Y-75602310D01*
X59447452Y-75602314D01*
X59122655Y-75752580D01*
X59122651Y-75752582D01*
X58905821Y-75883045D01*
X58815981Y-75937100D01*
X58794448Y-75953469D01*
X58531072Y-76153681D01*
X58531063Y-76153689D01*
X58271231Y-76399814D01*
X58039541Y-76672580D01*
X58039534Y-76672590D01*
X57838690Y-76968813D01*
X57838684Y-76968822D01*
X57671051Y-77285011D01*
X57671042Y-77285029D01*
X57538574Y-77617500D01*
X57538572Y-77617507D01*
X57442832Y-77962334D01*
X57442826Y-77962360D01*
X57384929Y-78315514D01*
X57384928Y-78315527D01*
X57384928Y-78315529D01*
X57380658Y-78394285D01*
X57365552Y-78672897D01*
X48470500Y-78672897D01*
X48470500Y-30028110D01*
X48490185Y-29961071D01*
X48542989Y-29915316D01*
X48612147Y-29905372D01*
X48675703Y-29934397D01*
X48706880Y-29975703D01*
X48760505Y-30090700D01*
X48789431Y-30152732D01*
X48789432Y-30152734D01*
X48919954Y-30339141D01*
X49080858Y-30500045D01*
X49083386Y-30501815D01*
X49267266Y-30630568D01*
X49473504Y-30726739D01*
X49473509Y-30726740D01*
X49473511Y-30726741D01*
X49500886Y-30734076D01*
X49693308Y-30785635D01*
X49855230Y-30799801D01*
X49919998Y-30805468D01*
X49920000Y-30805468D01*
X49920002Y-30805468D01*
X49976673Y-30800509D01*
X50146692Y-30785635D01*
X50366496Y-30726739D01*
X50572734Y-30630568D01*
X50759139Y-30500047D01*
X50920047Y-30339139D01*
X51050568Y-30152734D01*
X51146739Y-29946496D01*
X51205635Y-29726692D01*
X51225468Y-29500000D01*
X51205635Y-29273308D01*
X51150487Y-29067492D01*
X51146741Y-29053511D01*
X51146738Y-29053502D01*
X51078792Y-28907793D01*
X51050568Y-28847266D01*
X50920047Y-28660861D01*
X50920045Y-28660858D01*
X50759141Y-28499954D01*
X50572734Y-28369432D01*
X50572732Y-28369431D01*
X50366497Y-28273261D01*
X50366488Y-28273258D01*
X50332961Y-28264275D01*
X50273300Y-28227910D01*
X50242771Y-28165063D01*
X50251066Y-28095688D01*
X50295551Y-28041810D01*
X50362103Y-28020535D01*
X50365054Y-28020500D01*
X59636879Y-28020500D01*
X59703918Y-28040185D01*
G37*
G04 #@! TD.AperFunction*
G04 #@! TA.AperFunction,Conductor*
G36*
X129485900Y-82655561D02*
G01*
X129513159Y-82757294D01*
X129565820Y-82848506D01*
X129640294Y-82922980D01*
X129731506Y-82975641D01*
X129833239Y-83002900D01*
X129839453Y-83002900D01*
X129160426Y-83681925D01*
X129233413Y-83733032D01*
X129233421Y-83733036D01*
X129340822Y-83783118D01*
X129393262Y-83829290D01*
X129412414Y-83896483D01*
X129392199Y-83963365D01*
X129339033Y-84008699D01*
X129288418Y-84019500D01*
X128674614Y-84019500D01*
X128607575Y-83999815D01*
X128561820Y-83947011D01*
X128551876Y-83877853D01*
X128575347Y-83821189D01*
X128639696Y-83735231D01*
X128689991Y-83600383D01*
X128696400Y-83540773D01*
X128696399Y-83454026D01*
X128716083Y-83386991D01*
X128768886Y-83341235D01*
X128799240Y-83336006D01*
X129485900Y-82649346D01*
X129485900Y-82655561D01*
G37*
G04 #@! TD.AperFunction*
G04 #@! TA.AperFunction,Conductor*
G36*
X130964924Y-83328371D02*
G01*
X131016444Y-83254796D01*
X131071021Y-83211171D01*
X131140519Y-83203979D01*
X131202874Y-83235502D01*
X131230400Y-83273514D01*
X131252301Y-83320480D01*
X131387794Y-83513982D01*
X131554817Y-83681005D01*
X131716082Y-83793925D01*
X131759707Y-83848502D01*
X131766899Y-83918001D01*
X131735377Y-83980355D01*
X131675147Y-84015769D01*
X131644958Y-84019500D01*
X130483382Y-84019500D01*
X130416343Y-83999815D01*
X130370588Y-83947011D01*
X130360644Y-83877853D01*
X130389669Y-83814297D01*
X130430978Y-83783118D01*
X130538378Y-83733036D01*
X130611371Y-83681924D01*
X129932347Y-83002900D01*
X129938561Y-83002900D01*
X130040294Y-82975641D01*
X130131506Y-82922980D01*
X130205980Y-82848506D01*
X130258641Y-82757294D01*
X130285900Y-82655561D01*
X130285900Y-82649347D01*
X130964924Y-83328371D01*
G37*
G04 #@! TD.AperFunction*
G04 #@! TA.AperFunction,Conductor*
G36*
X134499975Y-82449907D02*
G01*
X134465900Y-82577074D01*
X134465900Y-82708726D01*
X134499975Y-82835893D01*
X134532888Y-82892900D01*
X132858912Y-82892900D01*
X132891825Y-82835893D01*
X132925900Y-82708726D01*
X132925900Y-82577074D01*
X132891825Y-82449907D01*
X132858912Y-82392900D01*
X134532888Y-82392900D01*
X134499975Y-82449907D01*
G37*
G04 #@! TD.AperFunction*
G04 #@! TA.AperFunction,Conductor*
G36*
X128903757Y-80959944D02*
G01*
X129046758Y-81102945D01*
X129046761Y-81102947D01*
X129233166Y-81233468D01*
X129248875Y-81240793D01*
X129301314Y-81286964D01*
X129320467Y-81354157D01*
X129300252Y-81421038D01*
X129248879Y-81465556D01*
X129233414Y-81472767D01*
X129233412Y-81472768D01*
X129160426Y-81523873D01*
X129160426Y-81523874D01*
X129839453Y-82202900D01*
X129833239Y-82202900D01*
X129731506Y-82230159D01*
X129640294Y-82282820D01*
X129565820Y-82357294D01*
X129513159Y-82448506D01*
X129485900Y-82550239D01*
X129485900Y-82556452D01*
X128798089Y-81868641D01*
X128762704Y-81861529D01*
X128712522Y-81812913D01*
X128696399Y-81751769D01*
X128696399Y-81745029D01*
X128696398Y-81745023D01*
X128696233Y-81743491D01*
X128689991Y-81685417D01*
X128688710Y-81681983D01*
X128639697Y-81550571D01*
X128639695Y-81550568D01*
X128615876Y-81518750D01*
X128562321Y-81447209D01*
X128537904Y-81381748D01*
X128552755Y-81313475D01*
X128562316Y-81298596D01*
X128639696Y-81195231D01*
X128689991Y-81060383D01*
X128692787Y-81034368D01*
X128719522Y-80969821D01*
X128776914Y-80929972D01*
X128846739Y-80927476D01*
X128903757Y-80959944D01*
G37*
G04 #@! TD.AperFunction*
G04 #@! TA.AperFunction,Conductor*
G36*
X131287733Y-80848085D02*
G01*
X131322269Y-80881277D01*
X131367578Y-80945986D01*
X131387405Y-80974301D01*
X131554499Y-81141395D01*
X131716629Y-81254920D01*
X131740494Y-81271630D01*
X131784119Y-81326207D01*
X131791313Y-81395705D01*
X131759790Y-81458060D01*
X131740495Y-81474780D01*
X131554822Y-81604790D01*
X131554820Y-81604791D01*
X131387791Y-81771820D01*
X131387786Y-81771826D01*
X131252300Y-81965320D01*
X131252298Y-81965324D01*
X131250023Y-81970204D01*
X131203850Y-82022642D01*
X131136656Y-82041793D01*
X131069775Y-82021576D01*
X131025260Y-81970201D01*
X131016036Y-81950421D01*
X131016032Y-81950413D01*
X130964925Y-81877426D01*
X130285900Y-82556451D01*
X130285900Y-82550239D01*
X130258641Y-82448506D01*
X130205980Y-82357294D01*
X130131506Y-82282820D01*
X130040294Y-82230159D01*
X129938561Y-82202900D01*
X129932348Y-82202900D01*
X130611372Y-81523874D01*
X130538380Y-81472764D01*
X130522924Y-81465557D01*
X130470485Y-81419384D01*
X130451333Y-81352190D01*
X130471549Y-81285309D01*
X130522923Y-81240793D01*
X130538634Y-81233468D01*
X130725039Y-81102947D01*
X130885947Y-80942039D01*
X130909965Y-80907736D01*
X130928493Y-80881277D01*
X130983070Y-80837652D01*
X131030068Y-80828400D01*
X131220694Y-80828400D01*
X131287733Y-80848085D01*
G37*
G04 #@! TD.AperFunction*
G04 #@! TA.AperFunction,Conductor*
G36*
X72073752Y-66907885D02*
G01*
X72119507Y-66960689D01*
X72129451Y-67029847D01*
X72126488Y-67044294D01*
X72085759Y-67196293D01*
X72085758Y-67196300D01*
X72065934Y-67422897D01*
X72065934Y-67422902D01*
X72085758Y-67649499D01*
X72085760Y-67649510D01*
X72144630Y-67869217D01*
X72144635Y-67869231D01*
X72240763Y-68075378D01*
X72291874Y-68148372D01*
X72970900Y-67469346D01*
X72970900Y-67475561D01*
X72998159Y-67577294D01*
X73050820Y-67668506D01*
X73125294Y-67742980D01*
X73216506Y-67795641D01*
X73318239Y-67822900D01*
X73324451Y-67822900D01*
X72645426Y-68501925D01*
X72718413Y-68553032D01*
X72718415Y-68553033D01*
X72733873Y-68560241D01*
X72786313Y-68606413D01*
X72805466Y-68673606D01*
X72785251Y-68740487D01*
X72733879Y-68785004D01*
X72718170Y-68792329D01*
X72718165Y-68792332D01*
X72531758Y-68922854D01*
X72370854Y-69083758D01*
X72240332Y-69270165D01*
X72240331Y-69270167D01*
X72144161Y-69476402D01*
X72144158Y-69476411D01*
X72085266Y-69696202D01*
X72085264Y-69696213D01*
X72065432Y-69922898D01*
X72065432Y-69922901D01*
X72085264Y-70149586D01*
X72085266Y-70149597D01*
X72144158Y-70369388D01*
X72144160Y-70369392D01*
X72144161Y-70369396D01*
X72175201Y-70435960D01*
X72240267Y-70575495D01*
X72250759Y-70644573D01*
X72222239Y-70708357D01*
X72163763Y-70746596D01*
X72127885Y-70751900D01*
X70289128Y-70751900D01*
X70131014Y-70751900D01*
X69978286Y-70792823D01*
X69978285Y-70792823D01*
X69978283Y-70792824D01*
X69978280Y-70792825D01*
X69928167Y-70821759D01*
X69928166Y-70821760D01*
X69887837Y-70845044D01*
X69841356Y-70871879D01*
X69841353Y-70871881D01*
X69770290Y-70942945D01*
X69729551Y-70983684D01*
X69729549Y-70983686D01*
X69711434Y-71001801D01*
X69698060Y-71015175D01*
X69636736Y-71048659D01*
X69567045Y-71043673D01*
X69511112Y-71001801D01*
X69502993Y-70989492D01*
X69436422Y-70874187D01*
X69436418Y-70874182D01*
X69097823Y-70535587D01*
X69064338Y-70474264D01*
X69067572Y-70409590D01*
X69126347Y-70228701D01*
X69156400Y-70038955D01*
X69156400Y-69846845D01*
X69126347Y-69657099D01*
X69086751Y-69535234D01*
X69066983Y-69474393D01*
X69041183Y-69423758D01*
X68979765Y-69303219D01*
X68866845Y-69147798D01*
X68731002Y-69011955D01*
X68575581Y-68899035D01*
X68438427Y-68829151D01*
X68404404Y-68811815D01*
X68339819Y-68790831D01*
X68282143Y-68751394D01*
X68254944Y-68687036D01*
X68266858Y-68618189D01*
X68314102Y-68566713D01*
X68339819Y-68554969D01*
X68404404Y-68533984D01*
X68404406Y-68533982D01*
X68404409Y-68533982D01*
X68575581Y-68446765D01*
X68731002Y-68333845D01*
X68866845Y-68198002D01*
X68979765Y-68042581D01*
X69066982Y-67871409D01*
X69080592Y-67829523D01*
X69126347Y-67688701D01*
X69132556Y-67649499D01*
X69156400Y-67498955D01*
X69156400Y-67306845D01*
X69126347Y-67117099D01*
X69105643Y-67053378D01*
X69104714Y-67050518D01*
X69102719Y-66980677D01*
X69138799Y-66920844D01*
X69201500Y-66890016D01*
X69222645Y-66888200D01*
X72006713Y-66888200D01*
X72073752Y-66907885D01*
G37*
G04 #@! TD.AperFunction*
G04 #@! TA.AperFunction,Conductor*
G36*
X75997070Y-57133885D02*
G01*
X76042825Y-57186689D01*
X76052769Y-57255847D01*
X76023744Y-57319403D01*
X75982436Y-57350582D01*
X75913416Y-57382766D01*
X75913412Y-57382768D01*
X75840426Y-57433873D01*
X75840426Y-57433874D01*
X76519453Y-58112900D01*
X76513239Y-58112900D01*
X76411506Y-58140159D01*
X76320294Y-58192820D01*
X76245820Y-58267294D01*
X76193159Y-58358506D01*
X76165900Y-58460239D01*
X76165900Y-58466452D01*
X75486874Y-57787426D01*
X75486873Y-57787426D01*
X75435768Y-57860412D01*
X75435766Y-57860416D01*
X75339634Y-58066573D01*
X75339630Y-58066582D01*
X75280760Y-58286289D01*
X75280758Y-58286300D01*
X75260934Y-58512897D01*
X75260934Y-58512902D01*
X75280758Y-58739499D01*
X75280760Y-58739510D01*
X75339630Y-58959217D01*
X75339634Y-58959226D01*
X75438054Y-59170289D01*
X75436862Y-59170844D01*
X75451845Y-59232597D01*
X75428994Y-59298625D01*
X75374074Y-59341816D01*
X75327985Y-59350700D01*
X75236197Y-59350700D01*
X75169158Y-59331015D01*
X75148516Y-59314381D01*
X73814590Y-57980455D01*
X73814588Y-57980452D01*
X73695717Y-57861581D01*
X73695709Y-57861575D01*
X73587652Y-57799189D01*
X73587651Y-57799188D01*
X73587651Y-57799189D01*
X73558785Y-57782523D01*
X73406057Y-57741599D01*
X73247943Y-57741599D01*
X73240347Y-57741599D01*
X73240331Y-57741600D01*
X70116596Y-57741600D01*
X70049557Y-57721915D01*
X70003802Y-57669111D01*
X69993858Y-57599953D01*
X70022883Y-57536397D01*
X70028915Y-57529919D01*
X70086730Y-57472105D01*
X70408317Y-57150519D01*
X70469640Y-57117034D01*
X70495998Y-57114200D01*
X75930031Y-57114200D01*
X75997070Y-57133885D01*
G37*
G04 #@! TD.AperFunction*
G04 #@! TA.AperFunction,Conductor*
G36*
X119195893Y-50294585D02*
G01*
X119241648Y-50347389D01*
X119251592Y-50416547D01*
X119245896Y-50439855D01*
X119194531Y-50586645D01*
X119194530Y-50586650D01*
X119174335Y-50765896D01*
X119174335Y-50765903D01*
X119194530Y-50945149D01*
X119194531Y-50945154D01*
X119254111Y-51115423D01*
X119350084Y-51268162D01*
X119477638Y-51395716D01*
X119543518Y-51437111D01*
X119619845Y-51485071D01*
X119630378Y-51491689D01*
X119748678Y-51533084D01*
X119800645Y-51551268D01*
X119800650Y-51551269D01*
X119979896Y-51571465D01*
X119979900Y-51571465D01*
X119979904Y-51571465D01*
X120159149Y-51551269D01*
X120159152Y-51551268D01*
X120159155Y-51551268D01*
X120329422Y-51491689D01*
X120482162Y-51395716D01*
X120482167Y-51395710D01*
X120484997Y-51393455D01*
X120487175Y-51392565D01*
X120488058Y-51392011D01*
X120488155Y-51392165D01*
X120549683Y-51367045D01*
X120562312Y-51366400D01*
X128842381Y-51366400D01*
X128842397Y-51366401D01*
X128849993Y-51366401D01*
X129008104Y-51366401D01*
X129008107Y-51366401D01*
X129160835Y-51325477D01*
X129219686Y-51291499D01*
X129297766Y-51246420D01*
X129409570Y-51134616D01*
X129409570Y-51134614D01*
X129419774Y-51124411D01*
X129419779Y-51124405D01*
X129691520Y-50852664D01*
X129752842Y-50819180D01*
X129822534Y-50824164D01*
X129878467Y-50866036D01*
X129902884Y-50931500D01*
X129903200Y-50940346D01*
X129903200Y-52150802D01*
X129883515Y-52217841D01*
X129866881Y-52238483D01*
X128839958Y-53265405D01*
X128778635Y-53298890D01*
X128708943Y-53293906D01*
X128653010Y-53252034D01*
X128632502Y-53209817D01*
X128572641Y-52986411D01*
X128572638Y-52986402D01*
X128539382Y-52915084D01*
X128476468Y-52780166D01*
X128345947Y-52593761D01*
X128345945Y-52593758D01*
X128185041Y-52432854D01*
X127998634Y-52302332D01*
X127998632Y-52302331D01*
X127792397Y-52206161D01*
X127792388Y-52206158D01*
X127572597Y-52147266D01*
X127572593Y-52147265D01*
X127572592Y-52147265D01*
X127572591Y-52147264D01*
X127572586Y-52147264D01*
X127345902Y-52127432D01*
X127345898Y-52127432D01*
X127119213Y-52147264D01*
X127119202Y-52147266D01*
X126899411Y-52206158D01*
X126899402Y-52206161D01*
X126693167Y-52302331D01*
X126693165Y-52302332D01*
X126506758Y-52432854D01*
X126345854Y-52593758D01*
X126215332Y-52780165D01*
X126215331Y-52780167D01*
X126119161Y-52986402D01*
X126119158Y-52986411D01*
X126060266Y-53206202D01*
X126060264Y-53206213D01*
X126040432Y-53432898D01*
X126040432Y-53432901D01*
X126060264Y-53659586D01*
X126060266Y-53659597D01*
X126119158Y-53879388D01*
X126119161Y-53879397D01*
X126215331Y-54085632D01*
X126215332Y-54085634D01*
X126345854Y-54272041D01*
X126506758Y-54432945D01*
X126506761Y-54432947D01*
X126693166Y-54563468D01*
X126899404Y-54659639D01*
X126899409Y-54659640D01*
X126899411Y-54659641D01*
X127122817Y-54719502D01*
X127182478Y-54755867D01*
X127213007Y-54818714D01*
X127204712Y-54888089D01*
X127178405Y-54926958D01*
X125870262Y-56235101D01*
X125808939Y-56268586D01*
X125768698Y-56270640D01*
X125743803Y-56267835D01*
X125743796Y-56267835D01*
X125564550Y-56288030D01*
X125564545Y-56288031D01*
X125394276Y-56347611D01*
X125241537Y-56443584D01*
X125113984Y-56571137D01*
X125018010Y-56723878D01*
X125004538Y-56762381D01*
X124958432Y-56894145D01*
X124958431Y-56894149D01*
X124958080Y-56895154D01*
X124917359Y-56951930D01*
X124852406Y-56977678D01*
X124841038Y-56978200D01*
X121339957Y-56978200D01*
X121181843Y-56978200D01*
X121029115Y-57019123D01*
X121029114Y-57019123D01*
X121029112Y-57019124D01*
X121029109Y-57019125D01*
X120978996Y-57048059D01*
X120978995Y-57048060D01*
X120972301Y-57051925D01*
X120892185Y-57098179D01*
X120892182Y-57098181D01*
X120780378Y-57209986D01*
X119922065Y-58068298D01*
X119860742Y-58101783D01*
X119848268Y-58103837D01*
X119761350Y-58113630D01*
X119591078Y-58173210D01*
X119438337Y-58269184D01*
X119310784Y-58396737D01*
X119214811Y-58549476D01*
X119155231Y-58719745D01*
X119155230Y-58719750D01*
X119134665Y-58902283D01*
X119107599Y-58966697D01*
X119050004Y-59006252D01*
X119011445Y-59012400D01*
X105819519Y-59012400D01*
X105752480Y-58992715D01*
X105706725Y-58939911D01*
X105696781Y-58870753D01*
X105699744Y-58856307D01*
X105731039Y-58739509D01*
X105731041Y-58739499D01*
X105750866Y-58512902D01*
X105750866Y-58512897D01*
X105731041Y-58286300D01*
X105731039Y-58286289D01*
X105672169Y-58066582D01*
X105672164Y-58066568D01*
X105576036Y-57860421D01*
X105576032Y-57860413D01*
X105524925Y-57787426D01*
X104845900Y-58466451D01*
X104845900Y-58460239D01*
X104818641Y-58358506D01*
X104765980Y-58267294D01*
X104691506Y-58192820D01*
X104600294Y-58140159D01*
X104498561Y-58112900D01*
X104492348Y-58112900D01*
X105171372Y-57433874D01*
X105098378Y-57382763D01*
X104892231Y-57286635D01*
X104892217Y-57286630D01*
X104672510Y-57227760D01*
X104672499Y-57227758D01*
X104445902Y-57207934D01*
X104445898Y-57207934D01*
X104219300Y-57227758D01*
X104219289Y-57227760D01*
X103999582Y-57286630D01*
X103999573Y-57286634D01*
X103793416Y-57382766D01*
X103793412Y-57382768D01*
X103720426Y-57433873D01*
X103720426Y-57433874D01*
X104399453Y-58112900D01*
X104393239Y-58112900D01*
X104291506Y-58140159D01*
X104200294Y-58192820D01*
X104125820Y-58267294D01*
X104073159Y-58358506D01*
X104045900Y-58460239D01*
X104045900Y-58466452D01*
X103366874Y-57787426D01*
X103366873Y-57787426D01*
X103315768Y-57860412D01*
X103315767Y-57860414D01*
X103308556Y-57875879D01*
X103262382Y-57928317D01*
X103195188Y-57947467D01*
X103128307Y-57927250D01*
X103083793Y-57875876D01*
X103076468Y-57860166D01*
X102945947Y-57673761D01*
X102945945Y-57673758D01*
X102785041Y-57512854D01*
X102598634Y-57382332D01*
X102598632Y-57382331D01*
X102392397Y-57286161D01*
X102392388Y-57286158D01*
X102172597Y-57227266D01*
X102172593Y-57227265D01*
X102172592Y-57227265D01*
X102172591Y-57227264D01*
X102172586Y-57227264D01*
X101945902Y-57207432D01*
X101945898Y-57207432D01*
X101719213Y-57227264D01*
X101719202Y-57227266D01*
X101499411Y-57286158D01*
X101499402Y-57286161D01*
X101293167Y-57382331D01*
X101293165Y-57382332D01*
X101106758Y-57512854D01*
X100945854Y-57673758D01*
X100903307Y-57734523D01*
X100848730Y-57778148D01*
X100801732Y-57787400D01*
X80210068Y-57787400D01*
X80143029Y-57767715D01*
X80108493Y-57734523D01*
X80065945Y-57673758D01*
X79905041Y-57512854D01*
X79718634Y-57382332D01*
X79718632Y-57382331D01*
X79650546Y-57350582D01*
X79598107Y-57304409D01*
X79578955Y-57237216D01*
X79599171Y-57170335D01*
X79652336Y-57125000D01*
X79702951Y-57114200D01*
X92093031Y-57114200D01*
X92093047Y-57114201D01*
X92100643Y-57114201D01*
X92258754Y-57114201D01*
X92258757Y-57114201D01*
X92411485Y-57073277D01*
X92411487Y-57073275D01*
X92411489Y-57073275D01*
X92415983Y-57071414D01*
X92485452Y-57063945D01*
X92547931Y-57095220D01*
X92551116Y-57098294D01*
X92643338Y-57190516D01*
X92707392Y-57230764D01*
X92782354Y-57277866D01*
X92796078Y-57286489D01*
X92890141Y-57319403D01*
X92966345Y-57346068D01*
X92966350Y-57346069D01*
X93145596Y-57366265D01*
X93145600Y-57366265D01*
X93145604Y-57366265D01*
X93324849Y-57346069D01*
X93324852Y-57346068D01*
X93324855Y-57346068D01*
X93495122Y-57286489D01*
X93647862Y-57190516D01*
X93647867Y-57190510D01*
X93650697Y-57188255D01*
X93652875Y-57187365D01*
X93653758Y-57186811D01*
X93653855Y-57186965D01*
X93715383Y-57161845D01*
X93728012Y-57161200D01*
X99693831Y-57161200D01*
X99693847Y-57161201D01*
X99701443Y-57161201D01*
X99859554Y-57161201D01*
X99859557Y-57161201D01*
X100012285Y-57120277D01*
X100071512Y-57086082D01*
X100149216Y-57041220D01*
X100261020Y-56929416D01*
X100261020Y-56929414D01*
X100271224Y-56919211D01*
X100271228Y-56919206D01*
X100891944Y-56298489D01*
X100953265Y-56265006D01*
X101022957Y-56269990D01*
X101067304Y-56298491D01*
X101106758Y-56337945D01*
X101106761Y-56337947D01*
X101293166Y-56468468D01*
X101499404Y-56564639D01*
X101499409Y-56564640D01*
X101499411Y-56564641D01*
X101543913Y-56576565D01*
X101719208Y-56623535D01*
X101881130Y-56637701D01*
X101945898Y-56643368D01*
X101945900Y-56643368D01*
X101945902Y-56643368D01*
X102002573Y-56638409D01*
X102172592Y-56623535D01*
X102392396Y-56564639D01*
X102598634Y-56468468D01*
X102785039Y-56337947D01*
X102945947Y-56177039D01*
X103076468Y-55990634D01*
X103103518Y-55932624D01*
X103149690Y-55880185D01*
X103216883Y-55861033D01*
X103283765Y-55881248D01*
X103328282Y-55932625D01*
X103355329Y-55990628D01*
X103355332Y-55990634D01*
X103485854Y-56177041D01*
X103646758Y-56337945D01*
X103646761Y-56337947D01*
X103833166Y-56468468D01*
X104039404Y-56564639D01*
X104039409Y-56564640D01*
X104039411Y-56564641D01*
X104083913Y-56576565D01*
X104259208Y-56623535D01*
X104421130Y-56637701D01*
X104485898Y-56643368D01*
X104485900Y-56643368D01*
X104485902Y-56643368D01*
X104542573Y-56638409D01*
X104712592Y-56623535D01*
X104932396Y-56564639D01*
X105138634Y-56468468D01*
X105325039Y-56337947D01*
X105485947Y-56177039D01*
X105616468Y-55990634D01*
X105643518Y-55932624D01*
X105689690Y-55880185D01*
X105756883Y-55861033D01*
X105823765Y-55881248D01*
X105868282Y-55932625D01*
X105895329Y-55990628D01*
X105895332Y-55990634D01*
X106025854Y-56177041D01*
X106186758Y-56337945D01*
X106186761Y-56337947D01*
X106373166Y-56468468D01*
X106579404Y-56564639D01*
X106579409Y-56564640D01*
X106579411Y-56564641D01*
X106623913Y-56576565D01*
X106799208Y-56623535D01*
X106961130Y-56637701D01*
X107025898Y-56643368D01*
X107025900Y-56643368D01*
X107025902Y-56643368D01*
X107082573Y-56638409D01*
X107252592Y-56623535D01*
X107472396Y-56564639D01*
X107678634Y-56468468D01*
X107865039Y-56337947D01*
X108025947Y-56177039D01*
X108156468Y-55990634D01*
X108183518Y-55932624D01*
X108229690Y-55880185D01*
X108296883Y-55861033D01*
X108363765Y-55881248D01*
X108408282Y-55932625D01*
X108435329Y-55990628D01*
X108435332Y-55990634D01*
X108565854Y-56177041D01*
X108726758Y-56337945D01*
X108883642Y-56447795D01*
X108913166Y-56468468D01*
X108953807Y-56487419D01*
X109006244Y-56533589D01*
X109025397Y-56600783D01*
X109005182Y-56667664D01*
X108989082Y-56687481D01*
X108591184Y-57085381D01*
X108529861Y-57118866D01*
X108503503Y-57121700D01*
X108257712Y-57121700D01*
X108190673Y-57102015D01*
X108180397Y-57094645D01*
X108177563Y-57092385D01*
X108177562Y-57092384D01*
X108113172Y-57051925D01*
X108024823Y-56996411D01*
X107854554Y-56936831D01*
X107854549Y-56936830D01*
X107675304Y-56916635D01*
X107675296Y-56916635D01*
X107496050Y-56936830D01*
X107496045Y-56936831D01*
X107325776Y-56996411D01*
X107173037Y-57092384D01*
X107045484Y-57219937D01*
X106949511Y-57372676D01*
X106889931Y-57542945D01*
X106889930Y-57542950D01*
X106869735Y-57722196D01*
X106869735Y-57722203D01*
X106889930Y-57901449D01*
X106889931Y-57901454D01*
X106949511Y-58071723D01*
X107036016Y-58209394D01*
X107045484Y-58224462D01*
X107173038Y-58352016D01*
X107241397Y-58394969D01*
X107311166Y-58438808D01*
X107325778Y-58447989D01*
X107496045Y-58507568D01*
X107496050Y-58507569D01*
X107675296Y-58527765D01*
X107675300Y-58527765D01*
X107675304Y-58527765D01*
X107854549Y-58507569D01*
X107854552Y-58507568D01*
X107854555Y-58507568D01*
X108024822Y-58447989D01*
X108177562Y-58352016D01*
X108177567Y-58352010D01*
X108180397Y-58349755D01*
X108182575Y-58348865D01*
X108183458Y-58348311D01*
X108183555Y-58348465D01*
X108245083Y-58323345D01*
X108257712Y-58322700D01*
X108716931Y-58322700D01*
X108716947Y-58322701D01*
X108724543Y-58322701D01*
X108882654Y-58322701D01*
X108882657Y-58322701D01*
X109035385Y-58281777D01*
X109085504Y-58252839D01*
X109172316Y-58202720D01*
X109284120Y-58090916D01*
X109284120Y-58090914D01*
X109294328Y-58080707D01*
X109294330Y-58080704D01*
X109512797Y-57862237D01*
X109574120Y-57828752D01*
X109643812Y-57833736D01*
X109688159Y-57862237D01*
X109698638Y-57872716D01*
X109744376Y-57901455D01*
X109848605Y-57966947D01*
X109851378Y-57968689D01*
X110021645Y-58028268D01*
X110021650Y-58028269D01*
X110200896Y-58048465D01*
X110200900Y-58048465D01*
X110200904Y-58048465D01*
X110380149Y-58028269D01*
X110380152Y-58028268D01*
X110380155Y-58028268D01*
X110550422Y-57968689D01*
X110703162Y-57872716D01*
X110703167Y-57872710D01*
X110705997Y-57870455D01*
X110708175Y-57869565D01*
X110709058Y-57869011D01*
X110709155Y-57869165D01*
X110770683Y-57844045D01*
X110783312Y-57843400D01*
X111702531Y-57843400D01*
X111702547Y-57843401D01*
X111710143Y-57843401D01*
X111868254Y-57843401D01*
X111868257Y-57843401D01*
X112020985Y-57802477D01*
X112092530Y-57761170D01*
X112157916Y-57723420D01*
X112269720Y-57611616D01*
X112269720Y-57611614D01*
X112279924Y-57601411D01*
X112279927Y-57601406D01*
X113587750Y-56293585D01*
X113649070Y-56260102D01*
X113718762Y-56265086D01*
X113763109Y-56293587D01*
X113807079Y-56337557D01*
X113993417Y-56468034D01*
X114199573Y-56564165D01*
X114199582Y-56564169D01*
X114395899Y-56616772D01*
X114395900Y-56616771D01*
X114395900Y-55653586D01*
X114400294Y-55657980D01*
X114491506Y-55710641D01*
X114593239Y-55737900D01*
X114698561Y-55737900D01*
X114800294Y-55710641D01*
X114891506Y-55657980D01*
X114895900Y-55653586D01*
X114895900Y-56616772D01*
X115092217Y-56564169D01*
X115092226Y-56564165D01*
X115298382Y-56468034D01*
X115484720Y-56337557D01*
X115645557Y-56176720D01*
X115776034Y-55990382D01*
X115872165Y-55784226D01*
X115872169Y-55784217D01*
X115924772Y-55587900D01*
X114961586Y-55587900D01*
X114965980Y-55583506D01*
X115018641Y-55492294D01*
X115045900Y-55390561D01*
X115045900Y-55285239D01*
X115018641Y-55183506D01*
X114965980Y-55092294D01*
X114961586Y-55087900D01*
X115924772Y-55087900D01*
X115924772Y-55087899D01*
X115872169Y-54891582D01*
X115872165Y-54891573D01*
X115776034Y-54685417D01*
X115645557Y-54499079D01*
X115484720Y-54338242D01*
X115298382Y-54207765D01*
X115092226Y-54111634D01*
X115092220Y-54111631D01*
X114978118Y-54081058D01*
X114918458Y-54044693D01*
X114887929Y-53981846D01*
X114896224Y-53912470D01*
X114922526Y-53873608D01*
X115363237Y-53432897D01*
X118420934Y-53432897D01*
X118420934Y-53432902D01*
X118440758Y-53659499D01*
X118440760Y-53659510D01*
X118499630Y-53879217D01*
X118499635Y-53879231D01*
X118595763Y-54085378D01*
X118646874Y-54158372D01*
X119325900Y-53479346D01*
X119325900Y-53485561D01*
X119353159Y-53587294D01*
X119405820Y-53678506D01*
X119480294Y-53752980D01*
X119571506Y-53805641D01*
X119673239Y-53832900D01*
X119679453Y-53832900D01*
X119000426Y-54511925D01*
X119073413Y-54563032D01*
X119073421Y-54563036D01*
X119279568Y-54659164D01*
X119279582Y-54659169D01*
X119499289Y-54718039D01*
X119499300Y-54718041D01*
X119725898Y-54737866D01*
X119725902Y-54737866D01*
X119952499Y-54718041D01*
X119952510Y-54718039D01*
X120172217Y-54659169D01*
X120172231Y-54659164D01*
X120378378Y-54563036D01*
X120451371Y-54511924D01*
X119772347Y-53832900D01*
X119778561Y-53832900D01*
X119880294Y-53805641D01*
X119971506Y-53752980D01*
X120045980Y-53678506D01*
X120098641Y-53587294D01*
X120125900Y-53485561D01*
X120125900Y-53479347D01*
X120804924Y-54158371D01*
X120856036Y-54085378D01*
X120952164Y-53879231D01*
X120952169Y-53879217D01*
X121011039Y-53659510D01*
X121011041Y-53659499D01*
X121030866Y-53432902D01*
X121030866Y-53432897D01*
X121011041Y-53206300D01*
X121011039Y-53206289D01*
X120952169Y-52986582D01*
X120952164Y-52986568D01*
X120856036Y-52780421D01*
X120856032Y-52780413D01*
X120804925Y-52707426D01*
X120125900Y-53386451D01*
X120125900Y-53380239D01*
X120098641Y-53278506D01*
X120045980Y-53187294D01*
X119971506Y-53112820D01*
X119880294Y-53060159D01*
X119778561Y-53032900D01*
X119772348Y-53032900D01*
X120451372Y-52353874D01*
X120378378Y-52302763D01*
X120172231Y-52206635D01*
X120172217Y-52206630D01*
X119952510Y-52147760D01*
X119952499Y-52147758D01*
X119725902Y-52127934D01*
X119725898Y-52127934D01*
X119499300Y-52147758D01*
X119499289Y-52147760D01*
X119279582Y-52206630D01*
X119279573Y-52206634D01*
X119073416Y-52302766D01*
X119073412Y-52302768D01*
X119000426Y-52353873D01*
X119000426Y-52353874D01*
X119679453Y-53032900D01*
X119673239Y-53032900D01*
X119571506Y-53060159D01*
X119480294Y-53112820D01*
X119405820Y-53187294D01*
X119353159Y-53278506D01*
X119325900Y-53380239D01*
X119325900Y-53386452D01*
X118646874Y-52707426D01*
X118646873Y-52707426D01*
X118595768Y-52780412D01*
X118595766Y-52780416D01*
X118499634Y-52986573D01*
X118499630Y-52986582D01*
X118440760Y-53206289D01*
X118440758Y-53206300D01*
X118420934Y-53432897D01*
X115363237Y-53432897D01*
X118484916Y-50311219D01*
X118546239Y-50277734D01*
X118572597Y-50274900D01*
X119128854Y-50274900D01*
X119195893Y-50294585D01*
G37*
G04 #@! TD.AperFunction*
G04 #@! TA.AperFunction,Conductor*
G36*
X134545900Y-56025561D02*
G01*
X134573159Y-56127294D01*
X134625820Y-56218506D01*
X134700294Y-56292980D01*
X134791506Y-56345641D01*
X134893239Y-56372900D01*
X134899451Y-56372900D01*
X134220426Y-57051925D01*
X134293413Y-57103032D01*
X134293421Y-57103036D01*
X134499568Y-57199164D01*
X134499582Y-57199169D01*
X134719289Y-57258039D01*
X134719300Y-57258041D01*
X134945898Y-57277866D01*
X134945902Y-57277866D01*
X135177899Y-57257569D01*
X135178046Y-57259252D01*
X135239877Y-57266142D01*
X135294111Y-57310193D01*
X135315919Y-57376572D01*
X135298379Y-57444204D01*
X135279663Y-57468200D01*
X134597186Y-58150678D01*
X134485381Y-58262482D01*
X134485377Y-58262487D01*
X134461816Y-58303299D01*
X134461815Y-58303301D01*
X134423075Y-58370400D01*
X134372508Y-58418616D01*
X134315688Y-58432400D01*
X134068030Y-58432400D01*
X134068023Y-58432401D01*
X134008416Y-58438808D01*
X133873571Y-58489102D01*
X133873569Y-58489103D01*
X133770211Y-58566478D01*
X133704747Y-58590895D01*
X133636474Y-58576044D01*
X133621589Y-58566478D01*
X133518230Y-58489103D01*
X133518228Y-58489102D01*
X133383382Y-58438808D01*
X133383383Y-58438808D01*
X133323783Y-58432401D01*
X133323781Y-58432400D01*
X133323773Y-58432400D01*
X133323765Y-58432400D01*
X132693096Y-58432400D01*
X132626057Y-58412715D01*
X132580302Y-58359911D01*
X132570358Y-58290753D01*
X132599383Y-58227197D01*
X132605415Y-58220719D01*
X133289737Y-57536397D01*
X133975006Y-56851128D01*
X133975011Y-56851124D01*
X133985214Y-56840920D01*
X133985216Y-56840920D01*
X134097020Y-56729116D01*
X134157977Y-56623535D01*
X134157979Y-56623533D01*
X134176074Y-56592190D01*
X134176073Y-56592190D01*
X134176077Y-56592185D01*
X134217000Y-56439458D01*
X134217000Y-56399609D01*
X134236685Y-56332570D01*
X134253319Y-56311928D01*
X134545900Y-56019347D01*
X134545900Y-56025561D01*
G37*
G04 #@! TD.AperFunction*
G04 #@! TA.AperFunction,Conductor*
G36*
X78495888Y-57133885D02*
G01*
X78541643Y-57186689D01*
X78551587Y-57255847D01*
X78522562Y-57319403D01*
X78481254Y-57350582D01*
X78413167Y-57382331D01*
X78413165Y-57382332D01*
X78226758Y-57512854D01*
X78065854Y-57673758D01*
X77935332Y-57860165D01*
X77935329Y-57860170D01*
X77928004Y-57875879D01*
X77881829Y-57928317D01*
X77814635Y-57947466D01*
X77747755Y-57927247D01*
X77703241Y-57875873D01*
X77696033Y-57860415D01*
X77696032Y-57860413D01*
X77644925Y-57787426D01*
X76965900Y-58466451D01*
X76965900Y-58460239D01*
X76938641Y-58358506D01*
X76885980Y-58267294D01*
X76811506Y-58192820D01*
X76720294Y-58140159D01*
X76618561Y-58112900D01*
X76612348Y-58112900D01*
X77291372Y-57433874D01*
X77218378Y-57382763D01*
X77149365Y-57350582D01*
X77096925Y-57304410D01*
X77077773Y-57237217D01*
X77097988Y-57170335D01*
X77151154Y-57125001D01*
X77201769Y-57114200D01*
X78428849Y-57114200D01*
X78495888Y-57133885D01*
G37*
G04 #@! TD.AperFunction*
G04 #@! TA.AperFunction,Conductor*
G36*
X95508439Y-43400985D02*
G01*
X95554194Y-43453789D01*
X95565400Y-43505300D01*
X95565400Y-44755770D01*
X95565401Y-44755776D01*
X95571808Y-44815383D01*
X95622102Y-44950228D01*
X95622106Y-44950235D01*
X95708352Y-45065444D01*
X95708355Y-45065447D01*
X95823564Y-45151693D01*
X95823571Y-45151697D01*
X95958417Y-45201991D01*
X95958416Y-45201991D01*
X95965344Y-45202735D01*
X96018027Y-45208400D01*
X96956802Y-45208399D01*
X97023841Y-45228083D01*
X97069596Y-45280887D01*
X97079540Y-45350046D01*
X97050515Y-45413602D01*
X97044483Y-45420080D01*
X96497186Y-45967378D01*
X96385381Y-46079182D01*
X96385379Y-46079184D01*
X96365983Y-46112780D01*
X96357785Y-46126981D01*
X96306323Y-46216115D01*
X96265399Y-46368843D01*
X96265399Y-46368845D01*
X96265399Y-46486207D01*
X96245714Y-46553246D01*
X96212522Y-46587782D01*
X96026759Y-46717853D01*
X95865854Y-46878758D01*
X95735332Y-47065165D01*
X95735331Y-47065167D01*
X95708282Y-47123175D01*
X95662109Y-47175614D01*
X95594916Y-47194766D01*
X95528035Y-47174550D01*
X95483518Y-47123175D01*
X95480825Y-47117400D01*
X95456468Y-47065166D01*
X95348094Y-46910390D01*
X95325945Y-46878758D01*
X95165041Y-46717854D01*
X94978634Y-46587332D01*
X94978632Y-46587331D01*
X94772397Y-46491161D01*
X94772388Y-46491158D01*
X94552597Y-46432266D01*
X94552593Y-46432265D01*
X94552592Y-46432265D01*
X94552591Y-46432264D01*
X94552586Y-46432264D01*
X94325902Y-46412432D01*
X94325898Y-46412432D01*
X94099213Y-46432264D01*
X94099202Y-46432266D01*
X93879411Y-46491158D01*
X93879402Y-46491161D01*
X93673167Y-46587331D01*
X93673165Y-46587332D01*
X93486758Y-46717854D01*
X93325854Y-46878758D01*
X93195332Y-47065165D01*
X93195331Y-47065167D01*
X93168282Y-47123175D01*
X93122109Y-47175614D01*
X93054916Y-47194766D01*
X92988035Y-47174550D01*
X92943518Y-47123175D01*
X92940825Y-47117400D01*
X92916468Y-47065166D01*
X92808094Y-46910390D01*
X92785945Y-46878758D01*
X92625041Y-46717854D01*
X92438634Y-46587332D01*
X92438632Y-46587331D01*
X92232397Y-46491161D01*
X92232388Y-46491158D01*
X92012597Y-46432266D01*
X92012593Y-46432265D01*
X92012592Y-46432265D01*
X92012591Y-46432264D01*
X92012586Y-46432264D01*
X91785902Y-46412432D01*
X91785898Y-46412432D01*
X91559213Y-46432264D01*
X91559202Y-46432266D01*
X91339411Y-46491158D01*
X91339406Y-46491160D01*
X91292804Y-46512891D01*
X91223726Y-46523382D01*
X91159942Y-46494861D01*
X91121703Y-46436384D01*
X91116400Y-46400508D01*
X91116400Y-45224739D01*
X91136085Y-45157700D01*
X91188889Y-45111945D01*
X91258047Y-45102001D01*
X91292806Y-45112357D01*
X91339578Y-45134167D01*
X91339582Y-45134169D01*
X91535899Y-45186772D01*
X91535900Y-45186771D01*
X91535900Y-44223586D01*
X91540294Y-44227980D01*
X91631506Y-44280641D01*
X91733239Y-44307900D01*
X91838561Y-44307900D01*
X91940294Y-44280641D01*
X92031506Y-44227980D01*
X92035900Y-44223586D01*
X92035900Y-45186772D01*
X92232217Y-45134169D01*
X92232226Y-45134165D01*
X92438382Y-45038034D01*
X92624720Y-44907557D01*
X92785557Y-44746720D01*
X92916034Y-44560382D01*
X93012165Y-44354226D01*
X93012169Y-44354217D01*
X93064772Y-44157900D01*
X92101586Y-44157900D01*
X92105980Y-44153506D01*
X92158641Y-44062294D01*
X92185900Y-43960561D01*
X92185900Y-43855239D01*
X92158641Y-43753506D01*
X92105980Y-43662294D01*
X92101586Y-43657900D01*
X93064772Y-43657900D01*
X93064772Y-43657899D01*
X93032483Y-43537393D01*
X93034146Y-43467543D01*
X93073309Y-43409681D01*
X93137537Y-43382177D01*
X93152258Y-43381300D01*
X95441400Y-43381300D01*
X95508439Y-43400985D01*
G37*
G04 #@! TD.AperFunction*
G04 #@! TA.AperFunction,Conductor*
G36*
X127144042Y-43415358D02*
G01*
X127166645Y-43423268D01*
X127166651Y-43423268D01*
X127166653Y-43423269D01*
X127191499Y-43426068D01*
X127272283Y-43435170D01*
X127336697Y-43462236D01*
X127376252Y-43519830D01*
X127382400Y-43558390D01*
X127382400Y-46780803D01*
X127362715Y-46847842D01*
X127346081Y-46868484D01*
X127133484Y-47081081D01*
X127072161Y-47114566D01*
X127045803Y-47117400D01*
X125803499Y-47117400D01*
X125736460Y-47097715D01*
X125690705Y-47044911D01*
X125680761Y-46975753D01*
X125709786Y-46912197D01*
X125715814Y-46905723D01*
X125737580Y-46883955D01*
X125759287Y-46866643D01*
X125854662Y-46806716D01*
X125982216Y-46679162D01*
X126078189Y-46526422D01*
X126137768Y-46356155D01*
X126138249Y-46351889D01*
X126157965Y-46176903D01*
X126157965Y-46176896D01*
X126137769Y-45997650D01*
X126137768Y-45997645D01*
X126113691Y-45928837D01*
X126078189Y-45827378D01*
X126051276Y-45784547D01*
X125982215Y-45674637D01*
X125854662Y-45547084D01*
X125701923Y-45451111D01*
X125531654Y-45391531D01*
X125531649Y-45391530D01*
X125352404Y-45371335D01*
X125352396Y-45371335D01*
X125173150Y-45391530D01*
X125173145Y-45391531D01*
X125002876Y-45451111D01*
X124850137Y-45547084D01*
X124722584Y-45674637D01*
X124626609Y-45827380D01*
X124596049Y-45914716D01*
X124555328Y-45971492D01*
X124490375Y-45997239D01*
X124438054Y-45990803D01*
X124288949Y-45938630D01*
X124202030Y-45928837D01*
X124137616Y-45901770D01*
X124128233Y-45893298D01*
X123552190Y-45317255D01*
X123552188Y-45317252D01*
X123433317Y-45198381D01*
X123433316Y-45198380D01*
X123338087Y-45143400D01*
X123296385Y-45119323D01*
X123143657Y-45078399D01*
X122985543Y-45078399D01*
X122977947Y-45078399D01*
X122977931Y-45078400D01*
X115613240Y-45078400D01*
X115546201Y-45058715D01*
X115500446Y-45005911D01*
X115490502Y-44936753D01*
X115519527Y-44873197D01*
X115525559Y-44866719D01*
X115645557Y-44746720D01*
X115776034Y-44560382D01*
X115872165Y-44354226D01*
X115872169Y-44354217D01*
X115924772Y-44157900D01*
X114961586Y-44157900D01*
X114965980Y-44153506D01*
X115018641Y-44062294D01*
X115045900Y-43960561D01*
X115045900Y-43855239D01*
X115018641Y-43753506D01*
X114965980Y-43662294D01*
X114961586Y-43657900D01*
X115924772Y-43657900D01*
X115924771Y-43657899D01*
X115899744Y-43564494D01*
X115901407Y-43494644D01*
X115940569Y-43436781D01*
X116004798Y-43409277D01*
X116019519Y-43408400D01*
X127103088Y-43408400D01*
X127144042Y-43415358D01*
G37*
G04 #@! TD.AperFunction*
G04 #@! TA.AperFunction,Conductor*
G36*
X100743765Y-44451248D02*
G01*
X100788282Y-44502625D01*
X100815329Y-44560628D01*
X100815332Y-44560634D01*
X100945854Y-44747041D01*
X101065532Y-44866719D01*
X101099017Y-44928042D01*
X101094033Y-44997734D01*
X101052161Y-45053667D01*
X100986697Y-45078084D01*
X100977851Y-45078400D01*
X100373949Y-45078400D01*
X100306910Y-45058715D01*
X100261155Y-45005911D01*
X100251211Y-44936753D01*
X100280236Y-44873197D01*
X100286268Y-44866719D01*
X100405945Y-44747041D01*
X100405947Y-44747039D01*
X100536468Y-44560634D01*
X100563518Y-44502624D01*
X100609690Y-44450185D01*
X100676883Y-44431033D01*
X100743765Y-44451248D01*
G37*
G04 #@! TD.AperFunction*
G04 #@! TA.AperFunction,Conductor*
G36*
X103283765Y-44451248D02*
G01*
X103328282Y-44502625D01*
X103355329Y-44560628D01*
X103355332Y-44560634D01*
X103485854Y-44747041D01*
X103605532Y-44866719D01*
X103639017Y-44928042D01*
X103634033Y-44997734D01*
X103592161Y-45053667D01*
X103526697Y-45078084D01*
X103517851Y-45078400D01*
X102913949Y-45078400D01*
X102846910Y-45058715D01*
X102801155Y-45005911D01*
X102791211Y-44936753D01*
X102820236Y-44873197D01*
X102826268Y-44866719D01*
X102945945Y-44747041D01*
X102945947Y-44747039D01*
X103076468Y-44560634D01*
X103103518Y-44502624D01*
X103149690Y-44450185D01*
X103216883Y-44431033D01*
X103283765Y-44451248D01*
G37*
G04 #@! TD.AperFunction*
G04 #@! TA.AperFunction,Conductor*
G36*
X105861247Y-44528085D02*
G01*
X105895780Y-44561274D01*
X105981380Y-44683524D01*
X106025854Y-44747041D01*
X106145532Y-44866719D01*
X106179017Y-44928042D01*
X106174033Y-44997734D01*
X106132161Y-45053667D01*
X106066697Y-45078084D01*
X106057851Y-45078400D01*
X105453949Y-45078400D01*
X105386910Y-45058715D01*
X105341155Y-45005911D01*
X105331211Y-44936753D01*
X105360236Y-44873197D01*
X105366268Y-44866719D01*
X105485945Y-44747041D01*
X105485947Y-44747039D01*
X105616018Y-44561275D01*
X105670593Y-44517652D01*
X105717592Y-44508400D01*
X105794208Y-44508400D01*
X105861247Y-44528085D01*
G37*
G04 #@! TD.AperFunction*
G04 #@! TA.AperFunction,Conductor*
G36*
X108363765Y-44451248D02*
G01*
X108408282Y-44502625D01*
X108435329Y-44560628D01*
X108435332Y-44560634D01*
X108565854Y-44747041D01*
X108685532Y-44866719D01*
X108719017Y-44928042D01*
X108714033Y-44997734D01*
X108672161Y-45053667D01*
X108606697Y-45078084D01*
X108597851Y-45078400D01*
X107993949Y-45078400D01*
X107926910Y-45058715D01*
X107881155Y-45005911D01*
X107871211Y-44936753D01*
X107900236Y-44873197D01*
X107906268Y-44866719D01*
X108025945Y-44747041D01*
X108025947Y-44747039D01*
X108156468Y-44560634D01*
X108183518Y-44502624D01*
X108229690Y-44450185D01*
X108296883Y-44431033D01*
X108363765Y-44451248D01*
G37*
G04 #@! TD.AperFunction*
G04 #@! TA.AperFunction,Conductor*
G36*
X110903765Y-44451248D02*
G01*
X110948282Y-44502625D01*
X110975329Y-44560628D01*
X110975332Y-44560634D01*
X111105854Y-44747041D01*
X111225532Y-44866719D01*
X111259017Y-44928042D01*
X111254033Y-44997734D01*
X111212161Y-45053667D01*
X111146697Y-45078084D01*
X111137851Y-45078400D01*
X110533949Y-45078400D01*
X110466910Y-45058715D01*
X110421155Y-45005911D01*
X110411211Y-44936753D01*
X110440236Y-44873197D01*
X110446268Y-44866719D01*
X110565945Y-44747041D01*
X110565947Y-44747039D01*
X110696468Y-44560634D01*
X110723518Y-44502624D01*
X110769690Y-44450185D01*
X110836883Y-44431033D01*
X110903765Y-44451248D01*
G37*
G04 #@! TD.AperFunction*
G04 #@! TA.AperFunction,Conductor*
G36*
X113444039Y-44450657D02*
G01*
X113488557Y-44502033D01*
X113515765Y-44560382D01*
X113646242Y-44746720D01*
X113766241Y-44866719D01*
X113799726Y-44928042D01*
X113794742Y-44997734D01*
X113752870Y-45053667D01*
X113687406Y-45078084D01*
X113678560Y-45078400D01*
X113073949Y-45078400D01*
X113006910Y-45058715D01*
X112961155Y-45005911D01*
X112951211Y-44936753D01*
X112980236Y-44873197D01*
X112986268Y-44866719D01*
X113105945Y-44747041D01*
X113105947Y-44747039D01*
X113236468Y-44560634D01*
X113263795Y-44502029D01*
X113309964Y-44449595D01*
X113377157Y-44430442D01*
X113444039Y-44450657D01*
G37*
G04 #@! TD.AperFunction*
G04 #@! TA.AperFunction,Conductor*
G36*
X75113347Y-36400501D02*
G01*
X75120943Y-36400501D01*
X75136658Y-36400501D01*
X75203697Y-36420186D01*
X75249452Y-36472990D01*
X75259032Y-36509314D01*
X75259326Y-36509263D01*
X75259945Y-36512774D01*
X75260185Y-36513684D01*
X75260263Y-36514580D01*
X75260266Y-36514597D01*
X75319158Y-36734388D01*
X75319161Y-36734397D01*
X75415331Y-36940632D01*
X75415332Y-36940634D01*
X75545854Y-37127041D01*
X75706757Y-37287944D01*
X75706760Y-37287946D01*
X75706761Y-37287947D01*
X75767523Y-37330492D01*
X75811148Y-37385067D01*
X75820400Y-37432067D01*
X75820400Y-37629355D01*
X75820400Y-37629357D01*
X75820399Y-37629357D01*
X75843681Y-37746397D01*
X75847651Y-37766353D01*
X75848126Y-37768741D01*
X75848281Y-37769521D01*
X75900841Y-37896411D01*
X75902971Y-37901553D01*
X75928553Y-37939840D01*
X75982369Y-38020382D01*
X77353417Y-39391430D01*
X77353420Y-39391432D01*
X77421163Y-39436696D01*
X77472247Y-39470829D01*
X77604280Y-39525519D01*
X77604284Y-39525519D01*
X77604285Y-39525520D01*
X77744442Y-39553400D01*
X77744445Y-39553400D01*
X93181732Y-39553400D01*
X93248771Y-39573085D01*
X93283307Y-39606277D01*
X93325854Y-39667041D01*
X93486758Y-39827945D01*
X93486761Y-39827947D01*
X93673166Y-39958468D01*
X93688875Y-39965793D01*
X93741314Y-40011964D01*
X93760467Y-40079157D01*
X93740252Y-40146038D01*
X93688879Y-40190556D01*
X93673414Y-40197767D01*
X93673412Y-40197768D01*
X93600426Y-40248873D01*
X93600426Y-40248874D01*
X94279453Y-40927900D01*
X94273239Y-40927900D01*
X94171506Y-40955159D01*
X94080294Y-41007820D01*
X94005820Y-41082294D01*
X93953159Y-41173506D01*
X93925900Y-41275239D01*
X93925900Y-41281452D01*
X93246874Y-40602426D01*
X93246873Y-40602426D01*
X93195768Y-40675412D01*
X93195766Y-40675416D01*
X93099634Y-40881573D01*
X93099630Y-40881582D01*
X93040760Y-41101289D01*
X93040758Y-41101300D01*
X93020934Y-41327897D01*
X93020934Y-41327902D01*
X93040758Y-41554499D01*
X93040760Y-41554510D01*
X93099630Y-41774217D01*
X93099634Y-41774226D01*
X93195766Y-41980383D01*
X93195768Y-41980387D01*
X93199120Y-41985173D01*
X93221450Y-42051378D01*
X93204442Y-42119146D01*
X93153496Y-42166961D01*
X93097548Y-42180300D01*
X91433370Y-42180300D01*
X91433354Y-42180299D01*
X91425758Y-42180299D01*
X91267643Y-42180299D01*
X91199344Y-42198600D01*
X91114914Y-42221223D01*
X91114909Y-42221226D01*
X90977990Y-42300275D01*
X90977982Y-42300281D01*
X90603580Y-42674683D01*
X90542257Y-42708168D01*
X90472565Y-42703184D01*
X90428220Y-42674684D01*
X89781589Y-42028054D01*
X89781588Y-42028052D01*
X89662717Y-41909181D01*
X89662716Y-41909180D01*
X89564598Y-41852532D01*
X89525785Y-41830123D01*
X89373057Y-41789199D01*
X89214943Y-41789199D01*
X89207347Y-41789199D01*
X89207331Y-41789200D01*
X81612569Y-41789200D01*
X81612553Y-41789199D01*
X81604957Y-41789199D01*
X81446843Y-41789199D01*
X81332297Y-41819892D01*
X81294114Y-41830123D01*
X81255302Y-41852532D01*
X81255301Y-41852532D01*
X81157187Y-41909177D01*
X81157182Y-41909181D01*
X81045378Y-42020986D01*
X80129456Y-42936907D01*
X80068133Y-42970392D01*
X79998441Y-42965408D01*
X79954094Y-42936907D01*
X79925041Y-42907854D01*
X79738634Y-42777332D01*
X79738632Y-42777331D01*
X79532397Y-42681161D01*
X79532388Y-42681158D01*
X79312597Y-42622266D01*
X79312593Y-42622265D01*
X79312592Y-42622265D01*
X79312591Y-42622264D01*
X79312586Y-42622264D01*
X79085902Y-42602432D01*
X79085898Y-42602432D01*
X78859213Y-42622264D01*
X78859202Y-42622266D01*
X78639411Y-42681158D01*
X78639402Y-42681161D01*
X78433167Y-42777331D01*
X78433165Y-42777332D01*
X78246758Y-42907854D01*
X78085854Y-43068758D01*
X78068625Y-43093364D01*
X78014047Y-43136988D01*
X77944548Y-43144180D01*
X77882194Y-43112657D01*
X77846782Y-43052426D01*
X77843761Y-43035491D01*
X77839991Y-43000416D01*
X77789697Y-42865571D01*
X77789693Y-42865564D01*
X77703447Y-42750355D01*
X77703444Y-42750352D01*
X77588235Y-42664106D01*
X77588228Y-42664102D01*
X77453382Y-42613808D01*
X77453383Y-42613808D01*
X77393783Y-42607401D01*
X77393781Y-42607400D01*
X77393773Y-42607400D01*
X77393764Y-42607400D01*
X75698029Y-42607400D01*
X75698023Y-42607401D01*
X75638416Y-42613808D01*
X75503571Y-42664102D01*
X75503564Y-42664106D01*
X75388355Y-42750352D01*
X75388352Y-42750355D01*
X75302106Y-42865564D01*
X75302102Y-42865571D01*
X75251808Y-43000417D01*
X75245401Y-43060016D01*
X75245400Y-43060035D01*
X75245400Y-44755770D01*
X75245401Y-44755776D01*
X75251809Y-44815384D01*
X75257994Y-44831968D01*
X75262978Y-44901660D01*
X75229492Y-44962982D01*
X75168169Y-44996467D01*
X75141812Y-44999300D01*
X69241588Y-44999300D01*
X69174549Y-44979615D01*
X69128794Y-44926811D01*
X69118850Y-44857653D01*
X69123657Y-44836982D01*
X69126346Y-44828705D01*
X69126346Y-44828704D01*
X69126347Y-44828701D01*
X69156400Y-44638955D01*
X69156400Y-44446845D01*
X69126347Y-44257099D01*
X69070563Y-44085411D01*
X69066983Y-44074393D01*
X69035445Y-44012496D01*
X68979765Y-43903219D01*
X68866845Y-43747798D01*
X68731002Y-43611955D01*
X68575581Y-43499035D01*
X68513775Y-43467543D01*
X68404404Y-43411815D01*
X68339819Y-43390831D01*
X68282143Y-43351394D01*
X68254944Y-43287036D01*
X68266858Y-43218189D01*
X68314102Y-43166713D01*
X68339819Y-43154969D01*
X68404404Y-43133984D01*
X68404406Y-43133982D01*
X68404409Y-43133982D01*
X68575581Y-43046765D01*
X68731002Y-42933845D01*
X68866845Y-42798002D01*
X68875336Y-42786313D01*
X68880278Y-42779514D01*
X68935608Y-42736848D01*
X68980595Y-42728400D01*
X72226732Y-42728400D01*
X72293771Y-42748085D01*
X72328307Y-42781277D01*
X72370854Y-42842041D01*
X72531758Y-43002945D01*
X72531761Y-43002947D01*
X72718166Y-43133468D01*
X72924404Y-43229639D01*
X73144208Y-43288535D01*
X73306130Y-43302701D01*
X73370898Y-43308368D01*
X73370900Y-43308368D01*
X73370902Y-43308368D01*
X73427573Y-43303409D01*
X73597592Y-43288535D01*
X73817396Y-43229639D01*
X74023634Y-43133468D01*
X74210039Y-43002947D01*
X74370947Y-42842039D01*
X74501468Y-42655634D01*
X74597639Y-42449396D01*
X74656535Y-42229592D01*
X74674167Y-42028055D01*
X74676368Y-42002901D01*
X74676368Y-42002898D01*
X74669070Y-41919480D01*
X74656535Y-41776208D01*
X74607651Y-41593771D01*
X74597641Y-41556411D01*
X74597638Y-41556402D01*
X74564461Y-41485255D01*
X74501468Y-41350166D01*
X74394456Y-41197335D01*
X74370948Y-41163762D01*
X74308475Y-41101289D01*
X74211471Y-41004285D01*
X74177988Y-40942964D01*
X74182972Y-40873273D01*
X74224843Y-40817339D01*
X74234348Y-40810889D01*
X74314559Y-40761736D01*
X74506124Y-40598124D01*
X74669736Y-40406559D01*
X74801366Y-40191759D01*
X74897773Y-39959011D01*
X74956583Y-39714048D01*
X74976349Y-39462900D01*
X74956583Y-39211752D01*
X74897773Y-38966789D01*
X74847589Y-38845634D01*
X74801366Y-38734040D01*
X74669739Y-38519246D01*
X74669738Y-38519243D01*
X74584632Y-38419597D01*
X74506124Y-38327676D01*
X74348322Y-38192900D01*
X74314556Y-38164061D01*
X74314553Y-38164060D01*
X74099758Y-38032433D01*
X74099759Y-38032433D01*
X74047947Y-38010972D01*
X73993543Y-37967130D01*
X73971479Y-37900836D01*
X73971400Y-37896411D01*
X73971400Y-36829197D01*
X73991085Y-36762158D01*
X74007719Y-36741516D01*
X74312416Y-36436819D01*
X74373739Y-36403334D01*
X74400097Y-36400500D01*
X75113331Y-36400500D01*
X75113347Y-36400501D01*
G37*
G04 #@! TD.AperFunction*
G04 #@! TA.AperFunction,Conductor*
G36*
X96549342Y-39573085D02*
G01*
X96595097Y-39625889D01*
X96605041Y-39695047D01*
X96576016Y-39758603D01*
X96569984Y-39765081D01*
X95859765Y-40475298D01*
X95798442Y-40508783D01*
X95785968Y-40510837D01*
X95699050Y-40520630D01*
X95528778Y-40580210D01*
X95517875Y-40587061D01*
X95450637Y-40606056D01*
X95441104Y-40605591D01*
X95404925Y-40602426D01*
X94725900Y-41281451D01*
X94725900Y-41275239D01*
X94698641Y-41173506D01*
X94645980Y-41082294D01*
X94571506Y-41007820D01*
X94480294Y-40955159D01*
X94378561Y-40927900D01*
X94372348Y-40927900D01*
X95051372Y-40248874D01*
X94978380Y-40197764D01*
X94962924Y-40190557D01*
X94910485Y-40144384D01*
X94891333Y-40077190D01*
X94911549Y-40010309D01*
X94962923Y-39965793D01*
X94978634Y-39958468D01*
X95165039Y-39827947D01*
X95325947Y-39667039D01*
X95358849Y-39620050D01*
X95368493Y-39606277D01*
X95423070Y-39562652D01*
X95470068Y-39553400D01*
X96482303Y-39553400D01*
X96549342Y-39573085D01*
G37*
G04 #@! TD.AperFunction*
G04 #@! TA.AperFunction,Conductor*
G36*
X100538439Y-31311385D02*
G01*
X100584194Y-31364189D01*
X100595400Y-31415700D01*
X100595400Y-32740770D01*
X100595401Y-32740776D01*
X100601808Y-32800383D01*
X100652102Y-32935228D01*
X100652106Y-32935235D01*
X100738352Y-33050444D01*
X100738355Y-33050447D01*
X100853564Y-33136693D01*
X100853571Y-33136697D01*
X100883517Y-33147866D01*
X100988417Y-33186991D01*
X101048027Y-33193400D01*
X101221400Y-33193399D01*
X101288439Y-33213083D01*
X101334194Y-33265887D01*
X101345400Y-33317399D01*
X101345400Y-33661230D01*
X101345399Y-33661248D01*
X101345399Y-33826954D01*
X101345398Y-33826954D01*
X101386324Y-33979689D01*
X101386325Y-33979690D01*
X101406240Y-34014183D01*
X101406241Y-34014184D01*
X101465377Y-34116612D01*
X101465381Y-34116617D01*
X101584249Y-34235485D01*
X101584255Y-34235490D01*
X102127235Y-34778471D01*
X102160720Y-34839794D01*
X102155736Y-34909486D01*
X102113864Y-34965419D01*
X102048400Y-34989836D01*
X102028747Y-34989680D01*
X101945902Y-34982432D01*
X101945898Y-34982432D01*
X101719213Y-35002264D01*
X101719202Y-35002266D01*
X101499411Y-35061158D01*
X101499402Y-35061161D01*
X101293167Y-35157331D01*
X101293165Y-35157332D01*
X101106758Y-35287854D01*
X100945854Y-35448758D01*
X100815332Y-35635165D01*
X100815331Y-35635167D01*
X100788282Y-35693175D01*
X100742109Y-35745614D01*
X100674916Y-35764766D01*
X100608035Y-35744550D01*
X100563518Y-35693175D01*
X100555832Y-35676693D01*
X100536468Y-35635166D01*
X100405947Y-35448761D01*
X100405945Y-35448758D01*
X100245041Y-35287854D01*
X100058634Y-35157332D01*
X100058632Y-35157331D01*
X99852397Y-35061161D01*
X99852388Y-35061158D01*
X99632597Y-35002266D01*
X99632593Y-35002265D01*
X99632592Y-35002265D01*
X99632591Y-35002264D01*
X99632586Y-35002264D01*
X99405902Y-34982432D01*
X99405898Y-34982432D01*
X99179213Y-35002264D01*
X99179202Y-35002266D01*
X98959411Y-35061158D01*
X98959402Y-35061161D01*
X98753167Y-35157331D01*
X98753165Y-35157332D01*
X98566758Y-35287854D01*
X98405854Y-35448758D01*
X98275332Y-35635165D01*
X98275331Y-35635167D01*
X98248282Y-35693175D01*
X98202109Y-35745614D01*
X98134916Y-35764766D01*
X98068035Y-35744550D01*
X98023518Y-35693175D01*
X98015832Y-35676693D01*
X97996468Y-35635166D01*
X97865947Y-35448761D01*
X97865945Y-35448758D01*
X97705041Y-35287854D01*
X97518634Y-35157332D01*
X97518632Y-35157331D01*
X97312397Y-35061161D01*
X97312388Y-35061158D01*
X97092597Y-35002266D01*
X97092593Y-35002265D01*
X97092592Y-35002265D01*
X97092591Y-35002264D01*
X97092586Y-35002264D01*
X96865902Y-34982432D01*
X96865898Y-34982432D01*
X96639213Y-35002264D01*
X96639202Y-35002266D01*
X96419411Y-35061158D01*
X96419402Y-35061161D01*
X96213167Y-35157331D01*
X96213165Y-35157332D01*
X96026758Y-35287854D01*
X95865854Y-35448758D01*
X95735332Y-35635165D01*
X95735331Y-35635167D01*
X95639161Y-35841402D01*
X95639158Y-35841411D01*
X95580266Y-36061202D01*
X95580264Y-36061213D01*
X95560432Y-36287898D01*
X95560432Y-36287901D01*
X95580264Y-36514586D01*
X95580266Y-36514597D01*
X95639158Y-36734388D01*
X95639161Y-36734397D01*
X95735331Y-36940632D01*
X95735332Y-36940634D01*
X95865854Y-37127041D01*
X96026758Y-37287945D01*
X96026761Y-37287947D01*
X96213166Y-37418468D01*
X96419404Y-37514639D01*
X96419409Y-37514640D01*
X96419411Y-37514641D01*
X96471896Y-37528704D01*
X96639208Y-37573535D01*
X96796531Y-37587299D01*
X96865898Y-37593368D01*
X96865900Y-37593368D01*
X96865902Y-37593368D01*
X96935257Y-37587300D01*
X97092592Y-37573535D01*
X97312396Y-37514639D01*
X97518634Y-37418468D01*
X97705039Y-37287947D01*
X97865947Y-37127039D01*
X97996468Y-36940634D01*
X98023518Y-36882624D01*
X98069690Y-36830185D01*
X98136883Y-36811033D01*
X98203765Y-36831248D01*
X98248281Y-36882624D01*
X98255828Y-36898808D01*
X98275329Y-36940628D01*
X98275332Y-36940634D01*
X98405854Y-37127041D01*
X98566755Y-37287942D01*
X98566758Y-37287944D01*
X98566761Y-37287947D01*
X98752525Y-37418019D01*
X98796147Y-37472592D01*
X98805399Y-37519591D01*
X98805399Y-37636954D01*
X98805398Y-37636954D01*
X98846323Y-37789686D01*
X98857780Y-37809528D01*
X98857781Y-37809532D01*
X98857782Y-37809532D01*
X98916257Y-37910815D01*
X98919482Y-37916400D01*
X98935955Y-37984300D01*
X98913102Y-38050327D01*
X98858181Y-38093518D01*
X98812095Y-38102400D01*
X95470068Y-38102400D01*
X95403029Y-38082715D01*
X95368493Y-38049523D01*
X95325945Y-37988758D01*
X95165041Y-37827854D01*
X94978634Y-37697332D01*
X94978632Y-37697331D01*
X94772397Y-37601161D01*
X94772388Y-37601158D01*
X94552597Y-37542266D01*
X94552593Y-37542265D01*
X94552592Y-37542265D01*
X94552591Y-37542264D01*
X94552586Y-37542264D01*
X94325902Y-37522432D01*
X94325898Y-37522432D01*
X94099213Y-37542264D01*
X94099202Y-37542266D01*
X93879411Y-37601158D01*
X93879402Y-37601161D01*
X93673167Y-37697331D01*
X93673165Y-37697332D01*
X93486758Y-37827854D01*
X93325854Y-37988758D01*
X93283307Y-38049523D01*
X93228730Y-38093148D01*
X93181732Y-38102400D01*
X78167774Y-38102400D01*
X78100735Y-38082715D01*
X78080093Y-38066081D01*
X77431180Y-37417168D01*
X77397695Y-37355845D01*
X77402679Y-37286153D01*
X77431178Y-37241807D01*
X77545947Y-37127039D01*
X77676468Y-36940634D01*
X77703795Y-36882029D01*
X77749964Y-36829595D01*
X77817157Y-36810442D01*
X77884039Y-36830657D01*
X77928557Y-36882033D01*
X77955765Y-36940382D01*
X78086242Y-37126720D01*
X78247079Y-37287557D01*
X78433417Y-37418034D01*
X78639573Y-37514165D01*
X78639582Y-37514169D01*
X78835899Y-37566772D01*
X78835900Y-37566771D01*
X78835900Y-36603586D01*
X78840294Y-36607980D01*
X78931506Y-36660641D01*
X79033239Y-36687900D01*
X79138561Y-36687900D01*
X79240294Y-36660641D01*
X79331506Y-36607980D01*
X79335900Y-36603586D01*
X79335900Y-37566772D01*
X79532217Y-37514169D01*
X79532226Y-37514165D01*
X79738382Y-37418034D01*
X79924720Y-37287557D01*
X80085557Y-37126720D01*
X80216034Y-36940381D01*
X80216035Y-36940379D01*
X80243518Y-36881443D01*
X80289690Y-36829003D01*
X80356883Y-36809851D01*
X80423764Y-36830066D01*
X80468282Y-36881443D01*
X80495764Y-36940379D01*
X80495765Y-36940381D01*
X80626242Y-37126720D01*
X80787079Y-37287557D01*
X80973417Y-37418034D01*
X81179573Y-37514165D01*
X81179582Y-37514169D01*
X81375899Y-37566772D01*
X81375900Y-37566771D01*
X81375900Y-36603586D01*
X81380294Y-36607980D01*
X81471506Y-36660641D01*
X81573239Y-36687900D01*
X81678561Y-36687900D01*
X81780294Y-36660641D01*
X81871506Y-36607980D01*
X81875900Y-36603586D01*
X81875900Y-37566772D01*
X82072217Y-37514169D01*
X82072226Y-37514165D01*
X82278382Y-37418034D01*
X82464720Y-37287557D01*
X82625557Y-37126720D01*
X82756032Y-36940384D01*
X82783241Y-36882034D01*
X82829413Y-36829595D01*
X82896607Y-36810442D01*
X82963488Y-36830657D01*
X83008005Y-36882032D01*
X83015828Y-36898808D01*
X83035331Y-36940632D01*
X83035332Y-36940634D01*
X83165854Y-37127041D01*
X83326758Y-37287945D01*
X83326761Y-37287947D01*
X83513166Y-37418468D01*
X83719404Y-37514639D01*
X83719409Y-37514640D01*
X83719411Y-37514641D01*
X83771896Y-37528704D01*
X83939208Y-37573535D01*
X84096531Y-37587299D01*
X84165898Y-37593368D01*
X84165900Y-37593368D01*
X84165902Y-37593368D01*
X84235257Y-37587300D01*
X84392592Y-37573535D01*
X84612396Y-37514639D01*
X84818634Y-37418468D01*
X85005039Y-37287947D01*
X85165947Y-37127039D01*
X85296468Y-36940634D01*
X85323795Y-36882029D01*
X85369964Y-36829595D01*
X85437157Y-36810442D01*
X85504039Y-36830657D01*
X85548557Y-36882033D01*
X85575765Y-36940382D01*
X85706242Y-37126720D01*
X85867079Y-37287557D01*
X86053417Y-37418034D01*
X86259573Y-37514165D01*
X86259582Y-37514169D01*
X86455899Y-37566772D01*
X86455900Y-37566771D01*
X86455900Y-36603586D01*
X86460294Y-36607980D01*
X86551506Y-36660641D01*
X86653239Y-36687900D01*
X86758561Y-36687900D01*
X86860294Y-36660641D01*
X86951506Y-36607980D01*
X86955900Y-36603586D01*
X86955900Y-37566772D01*
X87152217Y-37514169D01*
X87152226Y-37514165D01*
X87358382Y-37418034D01*
X87544720Y-37287557D01*
X87705557Y-37126720D01*
X87836034Y-36940381D01*
X87836035Y-36940379D01*
X87863518Y-36881443D01*
X87909690Y-36829003D01*
X87976883Y-36809851D01*
X88043764Y-36830066D01*
X88088282Y-36881443D01*
X88115764Y-36940379D01*
X88115765Y-36940381D01*
X88246242Y-37126720D01*
X88407079Y-37287557D01*
X88593417Y-37418034D01*
X88799573Y-37514165D01*
X88799582Y-37514169D01*
X88995899Y-37566772D01*
X88995900Y-37566771D01*
X88995900Y-36603586D01*
X89000294Y-36607980D01*
X89091506Y-36660641D01*
X89193239Y-36687900D01*
X89298561Y-36687900D01*
X89400294Y-36660641D01*
X89491506Y-36607980D01*
X89495900Y-36603586D01*
X89495900Y-37566772D01*
X89692217Y-37514169D01*
X89692226Y-37514165D01*
X89898382Y-37418034D01*
X90084720Y-37287557D01*
X90245557Y-37126720D01*
X90376032Y-36940384D01*
X90403241Y-36882034D01*
X90449413Y-36829595D01*
X90516607Y-36810442D01*
X90583488Y-36830657D01*
X90628005Y-36882032D01*
X90635828Y-36898808D01*
X90655331Y-36940632D01*
X90655332Y-36940634D01*
X90785854Y-37127041D01*
X90946758Y-37287945D01*
X90946761Y-37287947D01*
X91133166Y-37418468D01*
X91339404Y-37514639D01*
X91339409Y-37514640D01*
X91339411Y-37514641D01*
X91391896Y-37528704D01*
X91559208Y-37573535D01*
X91716531Y-37587299D01*
X91785898Y-37593368D01*
X91785900Y-37593368D01*
X91785902Y-37593368D01*
X91855257Y-37587300D01*
X92012592Y-37573535D01*
X92232396Y-37514639D01*
X92438634Y-37418468D01*
X92625039Y-37287947D01*
X92785947Y-37127039D01*
X92916468Y-36940634D01*
X93012639Y-36734396D01*
X93071535Y-36514592D01*
X93090544Y-36297315D01*
X93091368Y-36287901D01*
X93091368Y-36287898D01*
X93082988Y-36192118D01*
X93071535Y-36061208D01*
X93012639Y-35841404D01*
X92916468Y-35635166D01*
X92785947Y-35448761D01*
X92785945Y-35448758D01*
X92625041Y-35287854D01*
X92438634Y-35157332D01*
X92438632Y-35157331D01*
X92232397Y-35061161D01*
X92232388Y-35061158D01*
X92012597Y-35002266D01*
X92012593Y-35002265D01*
X92012592Y-35002265D01*
X92012591Y-35002264D01*
X92012586Y-35002264D01*
X91785902Y-34982432D01*
X91785898Y-34982432D01*
X91559213Y-35002264D01*
X91559202Y-35002266D01*
X91339411Y-35061158D01*
X91339402Y-35061161D01*
X91133167Y-35157331D01*
X91133165Y-35157332D01*
X90946758Y-35287854D01*
X90785854Y-35448758D01*
X90655333Y-35635164D01*
X90655332Y-35635166D01*
X90637588Y-35673219D01*
X90628006Y-35693767D01*
X90581833Y-35746206D01*
X90514639Y-35765357D01*
X90447758Y-35745141D01*
X90403242Y-35693765D01*
X90376035Y-35635420D01*
X90376034Y-35635418D01*
X90245557Y-35449079D01*
X90084720Y-35288242D01*
X89898382Y-35157765D01*
X89692228Y-35061634D01*
X89495900Y-35009027D01*
X89495900Y-35972214D01*
X89491506Y-35967820D01*
X89400294Y-35915159D01*
X89298561Y-35887900D01*
X89193239Y-35887900D01*
X89091506Y-35915159D01*
X89000294Y-35967820D01*
X88995900Y-35972214D01*
X88995900Y-35009027D01*
X88799571Y-35061634D01*
X88593417Y-35157765D01*
X88407079Y-35288242D01*
X88246242Y-35449079D01*
X88115765Y-35635417D01*
X88088282Y-35694357D01*
X88042110Y-35746796D01*
X87974916Y-35765948D01*
X87908035Y-35745732D01*
X87863518Y-35694357D01*
X87836034Y-35635417D01*
X87705557Y-35449079D01*
X87544716Y-35288238D01*
X87512892Y-35265955D01*
X87469267Y-35211378D01*
X87462075Y-35141879D01*
X87493597Y-35079525D01*
X87496274Y-35076760D01*
X87821420Y-34751616D01*
X87900477Y-34614684D01*
X87941401Y-34461957D01*
X87941401Y-34303842D01*
X87941401Y-34296247D01*
X87941400Y-34296229D01*
X87941400Y-33225588D01*
X87961085Y-33158549D01*
X88013889Y-33112794D01*
X88083047Y-33102850D01*
X88139710Y-33126321D01*
X88153569Y-33136696D01*
X88153570Y-33136696D01*
X88153571Y-33136697D01*
X88288417Y-33186991D01*
X88288416Y-33186991D01*
X88295344Y-33187735D01*
X88348027Y-33193400D01*
X90143772Y-33193399D01*
X90203383Y-33186991D01*
X90338231Y-33136696D01*
X90453446Y-33050446D01*
X90539696Y-32935231D01*
X90588710Y-32803816D01*
X90630581Y-32747884D01*
X90696045Y-32723466D01*
X90764318Y-32738317D01*
X90792573Y-32759469D01*
X90914499Y-32881395D01*
X91011284Y-32949165D01*
X91108065Y-33016932D01*
X91108067Y-33016933D01*
X91108070Y-33016935D01*
X91322237Y-33116803D01*
X91322243Y-33116804D01*
X91322244Y-33116805D01*
X91364171Y-33128039D01*
X91550492Y-33177963D01*
X91726934Y-33193400D01*
X91785899Y-33198559D01*
X91785900Y-33198559D01*
X91785901Y-33198559D01*
X91843940Y-33193481D01*
X92021308Y-33177963D01*
X92249563Y-33116803D01*
X92463730Y-33016935D01*
X92657301Y-32881395D01*
X92824395Y-32714301D01*
X92954325Y-32528742D01*
X93008902Y-32485117D01*
X93078400Y-32477923D01*
X93140755Y-32509446D01*
X93157475Y-32528742D01*
X93287400Y-32714295D01*
X93287405Y-32714301D01*
X93454499Y-32881395D01*
X93551284Y-32949165D01*
X93648065Y-33016932D01*
X93648067Y-33016933D01*
X93648070Y-33016935D01*
X93862237Y-33116803D01*
X93862243Y-33116804D01*
X93862244Y-33116805D01*
X93904171Y-33128039D01*
X94090492Y-33177963D01*
X94266934Y-33193400D01*
X94325899Y-33198559D01*
X94325900Y-33198559D01*
X94325901Y-33198559D01*
X94383940Y-33193481D01*
X94561308Y-33177963D01*
X94789563Y-33116803D01*
X95003730Y-33016935D01*
X95197301Y-32881395D01*
X95364395Y-32714301D01*
X95494325Y-32528742D01*
X95548902Y-32485117D01*
X95618400Y-32477923D01*
X95680755Y-32509446D01*
X95697475Y-32528742D01*
X95827400Y-32714295D01*
X95827405Y-32714301D01*
X95994499Y-32881395D01*
X96091284Y-32949165D01*
X96188065Y-33016932D01*
X96188067Y-33016933D01*
X96188070Y-33016935D01*
X96402237Y-33116803D01*
X96402243Y-33116804D01*
X96402244Y-33116805D01*
X96444171Y-33128039D01*
X96630492Y-33177963D01*
X96806934Y-33193400D01*
X96865899Y-33198559D01*
X96865900Y-33198559D01*
X96865901Y-33198559D01*
X96923940Y-33193481D01*
X97101308Y-33177963D01*
X97329563Y-33116803D01*
X97543730Y-33016935D01*
X97737301Y-32881395D01*
X97904395Y-32714301D01*
X98039935Y-32520730D01*
X98139803Y-32306563D01*
X98200963Y-32078308D01*
X98221559Y-31842900D01*
X98200963Y-31607492D01*
X98181778Y-31535893D01*
X98158173Y-31447793D01*
X98159836Y-31377943D01*
X98198999Y-31320081D01*
X98263228Y-31292577D01*
X98277948Y-31291700D01*
X100471400Y-31291700D01*
X100538439Y-31311385D01*
G37*
G04 #@! TD.AperFunction*
G04 #@! TA.AperFunction,Conductor*
G36*
X81305820Y-36042294D02*
G01*
X81253159Y-36133506D01*
X81225900Y-36235239D01*
X81225900Y-36340561D01*
X81253159Y-36442294D01*
X81305820Y-36533506D01*
X81310214Y-36537900D01*
X79401586Y-36537900D01*
X79405980Y-36533506D01*
X79458641Y-36442294D01*
X79485900Y-36340561D01*
X79485900Y-36235239D01*
X79458641Y-36133506D01*
X79405980Y-36042294D01*
X79401586Y-36037900D01*
X81310214Y-36037900D01*
X81305820Y-36042294D01*
G37*
G04 #@! TD.AperFunction*
G04 #@! TA.AperFunction,Conductor*
G36*
X88925820Y-36042294D02*
G01*
X88873159Y-36133506D01*
X88845900Y-36235239D01*
X88845900Y-36340561D01*
X88873159Y-36442294D01*
X88925820Y-36533506D01*
X88930214Y-36537900D01*
X87021586Y-36537900D01*
X87025980Y-36533506D01*
X87078641Y-36442294D01*
X87105900Y-36340561D01*
X87105900Y-36235239D01*
X87078641Y-36133506D01*
X87025980Y-36042294D01*
X87021586Y-36037900D01*
X88930214Y-36037900D01*
X88925820Y-36042294D01*
G37*
G04 #@! TD.AperFunction*
G04 #@! TA.AperFunction,Conductor*
G36*
X105950658Y-29601555D02*
G01*
X105989528Y-29627863D01*
X107417239Y-31055574D01*
X107417249Y-31055585D01*
X107421579Y-31059915D01*
X107421580Y-31059916D01*
X107533384Y-31171720D01*
X107533386Y-31171721D01*
X107533390Y-31171724D01*
X107608166Y-31214895D01*
X107670316Y-31250777D01*
X107782119Y-31280734D01*
X107823042Y-31291700D01*
X107823043Y-31291700D01*
X108153852Y-31291700D01*
X108220891Y-31311385D01*
X108266646Y-31364189D01*
X108276590Y-31433347D01*
X108273627Y-31447793D01*
X108230838Y-31607486D01*
X108230836Y-31607496D01*
X108210241Y-31842899D01*
X108210241Y-31842900D01*
X108230836Y-32078303D01*
X108230838Y-32078313D01*
X108291994Y-32306555D01*
X108291996Y-32306559D01*
X108291997Y-32306563D01*
X108371904Y-32477923D01*
X108391865Y-32520730D01*
X108391867Y-32520734D01*
X108473464Y-32637265D01*
X108527405Y-32714301D01*
X108694499Y-32881395D01*
X108791284Y-32949165D01*
X108888065Y-33016932D01*
X108888067Y-33016933D01*
X108888070Y-33016935D01*
X109102237Y-33116803D01*
X109102243Y-33116804D01*
X109102244Y-33116805D01*
X109144171Y-33128039D01*
X109330492Y-33177963D01*
X109506934Y-33193400D01*
X109565899Y-33198559D01*
X109565900Y-33198559D01*
X109565901Y-33198559D01*
X109623940Y-33193481D01*
X109801308Y-33177963D01*
X110029563Y-33116803D01*
X110243730Y-33016935D01*
X110437301Y-32881395D01*
X110604395Y-32714301D01*
X110734325Y-32528742D01*
X110788902Y-32485117D01*
X110858400Y-32477923D01*
X110920755Y-32509446D01*
X110937475Y-32528742D01*
X111067400Y-32714295D01*
X111067405Y-32714301D01*
X111234499Y-32881395D01*
X111331284Y-32949165D01*
X111428065Y-33016932D01*
X111428067Y-33016933D01*
X111428070Y-33016935D01*
X111642237Y-33116803D01*
X111642243Y-33116804D01*
X111642244Y-33116805D01*
X111684171Y-33128039D01*
X111870492Y-33177963D01*
X112046934Y-33193400D01*
X112105899Y-33198559D01*
X112105900Y-33198559D01*
X112105901Y-33198559D01*
X112163940Y-33193481D01*
X112341308Y-33177963D01*
X112569563Y-33116803D01*
X112783730Y-33016935D01*
X112977301Y-32881395D01*
X113144395Y-32714301D01*
X113274325Y-32528742D01*
X113328902Y-32485117D01*
X113398400Y-32477923D01*
X113460755Y-32509446D01*
X113477475Y-32528742D01*
X113607400Y-32714295D01*
X113607405Y-32714301D01*
X113774499Y-32881395D01*
X113871284Y-32949165D01*
X113968065Y-33016932D01*
X113968067Y-33016933D01*
X113968070Y-33016935D01*
X114182237Y-33116803D01*
X114182243Y-33116804D01*
X114182244Y-33116805D01*
X114224171Y-33128039D01*
X114410492Y-33177963D01*
X114586934Y-33193400D01*
X114645899Y-33198559D01*
X114645900Y-33198559D01*
X114645901Y-33198559D01*
X114703940Y-33193481D01*
X114881308Y-33177963D01*
X115109563Y-33116803D01*
X115323730Y-33016935D01*
X115517301Y-32881395D01*
X115684395Y-32714301D01*
X115814325Y-32528742D01*
X115868902Y-32485117D01*
X115938400Y-32477923D01*
X116000755Y-32509446D01*
X116017475Y-32528742D01*
X116147400Y-32714295D01*
X116147405Y-32714301D01*
X116314499Y-32881395D01*
X116411284Y-32949165D01*
X116508065Y-33016932D01*
X116508067Y-33016933D01*
X116508070Y-33016935D01*
X116722237Y-33116803D01*
X116722243Y-33116804D01*
X116722244Y-33116805D01*
X116764171Y-33128039D01*
X116950492Y-33177963D01*
X117126934Y-33193400D01*
X117185899Y-33198559D01*
X117185900Y-33198559D01*
X117185901Y-33198559D01*
X117243940Y-33193481D01*
X117421308Y-33177963D01*
X117649563Y-33116803D01*
X117863730Y-33016935D01*
X118057301Y-32881395D01*
X118224395Y-32714301D01*
X118354325Y-32528742D01*
X118408902Y-32485117D01*
X118478400Y-32477923D01*
X118540755Y-32509446D01*
X118557475Y-32528742D01*
X118687400Y-32714295D01*
X118687405Y-32714301D01*
X118854499Y-32881395D01*
X118951284Y-32949165D01*
X119048065Y-33016932D01*
X119048067Y-33016933D01*
X119048070Y-33016935D01*
X119262237Y-33116803D01*
X119262243Y-33116804D01*
X119262244Y-33116805D01*
X119304171Y-33128039D01*
X119490492Y-33177963D01*
X119666934Y-33193400D01*
X119725899Y-33198559D01*
X119725900Y-33198559D01*
X119725901Y-33198559D01*
X119783940Y-33193481D01*
X119961308Y-33177963D01*
X120189563Y-33116803D01*
X120403730Y-33016935D01*
X120597301Y-32881395D01*
X120764395Y-32714301D01*
X120894325Y-32528742D01*
X120948902Y-32485117D01*
X121018400Y-32477923D01*
X121080755Y-32509446D01*
X121097475Y-32528742D01*
X121227400Y-32714295D01*
X121227405Y-32714301D01*
X121394499Y-32881395D01*
X121491284Y-32949165D01*
X121588065Y-33016932D01*
X121588067Y-33016933D01*
X121588070Y-33016935D01*
X121802237Y-33116803D01*
X121802243Y-33116804D01*
X121802244Y-33116805D01*
X121844171Y-33128039D01*
X122030492Y-33177963D01*
X122206934Y-33193400D01*
X122265899Y-33198559D01*
X122265900Y-33198559D01*
X122265901Y-33198559D01*
X122323940Y-33193481D01*
X122501308Y-33177963D01*
X122729563Y-33116803D01*
X122943730Y-33016935D01*
X123137301Y-32881395D01*
X123304395Y-32714301D01*
X123434325Y-32528742D01*
X123488902Y-32485117D01*
X123558400Y-32477923D01*
X123620755Y-32509446D01*
X123637475Y-32528742D01*
X123767400Y-32714295D01*
X123767405Y-32714301D01*
X123934499Y-32881395D01*
X124031284Y-32949165D01*
X124128065Y-33016932D01*
X124128067Y-33016933D01*
X124128070Y-33016935D01*
X124342237Y-33116803D01*
X124342243Y-33116804D01*
X124342244Y-33116805D01*
X124384171Y-33128039D01*
X124570492Y-33177963D01*
X124746934Y-33193400D01*
X124805899Y-33198559D01*
X124805900Y-33198559D01*
X124805901Y-33198559D01*
X124863940Y-33193481D01*
X125041308Y-33177963D01*
X125269563Y-33116803D01*
X125483730Y-33016935D01*
X125677301Y-32881395D01*
X125799229Y-32759466D01*
X125860548Y-32725984D01*
X125930240Y-32730968D01*
X125986174Y-32772839D01*
X126003089Y-32803817D01*
X126052102Y-32935228D01*
X126052106Y-32935235D01*
X126138352Y-33050444D01*
X126138355Y-33050447D01*
X126253564Y-33136693D01*
X126253571Y-33136697D01*
X126388417Y-33186991D01*
X126388416Y-33186991D01*
X126395344Y-33187735D01*
X126448027Y-33193400D01*
X128243772Y-33193399D01*
X128303383Y-33186991D01*
X128438231Y-33136696D01*
X128553446Y-33050446D01*
X128639696Y-32935231D01*
X128689991Y-32800383D01*
X128696400Y-32740773D01*
X128696399Y-32694027D01*
X128716082Y-32626992D01*
X128768885Y-32581236D01*
X128799239Y-32576007D01*
X129485900Y-31889346D01*
X129485900Y-31895561D01*
X129513159Y-31997294D01*
X129565820Y-32088506D01*
X129640294Y-32162980D01*
X129731506Y-32215641D01*
X129833239Y-32242900D01*
X129839452Y-32242900D01*
X129160426Y-32921925D01*
X129233413Y-32973032D01*
X129233421Y-32973036D01*
X129439568Y-33069164D01*
X129439582Y-33069169D01*
X129659289Y-33128039D01*
X129659300Y-33128041D01*
X129885898Y-33147866D01*
X129885902Y-33147866D01*
X130112499Y-33128041D01*
X130112510Y-33128039D01*
X130153245Y-33117125D01*
X130185338Y-33112900D01*
X131020127Y-33112900D01*
X131087166Y-33132585D01*
X131132921Y-33185389D01*
X131142865Y-33254547D01*
X131133815Y-33281741D01*
X131135203Y-33282259D01*
X131081808Y-33425417D01*
X131075401Y-33485016D01*
X131075400Y-33485035D01*
X131075400Y-33732687D01*
X131055715Y-33799726D01*
X131013400Y-33840074D01*
X130905487Y-33902377D01*
X130905482Y-33902381D01*
X129910084Y-34897781D01*
X129848761Y-34931266D01*
X129822403Y-34934100D01*
X126899328Y-34934100D01*
X126832289Y-34914415D01*
X126786534Y-34861611D01*
X126776590Y-34792453D01*
X126794334Y-34744128D01*
X126801688Y-34732423D01*
X126801689Y-34732422D01*
X126861268Y-34562155D01*
X126865449Y-34525046D01*
X126881465Y-34382903D01*
X126881465Y-34382896D01*
X126861269Y-34203650D01*
X126861268Y-34203645D01*
X126842441Y-34149841D01*
X126801689Y-34033378D01*
X126705716Y-33880638D01*
X126578162Y-33753084D01*
X126567017Y-33746081D01*
X126425423Y-33657111D01*
X126255154Y-33597531D01*
X126255149Y-33597530D01*
X126075904Y-33577335D01*
X126075896Y-33577335D01*
X125896650Y-33597530D01*
X125896645Y-33597531D01*
X125726376Y-33657111D01*
X125573636Y-33753085D01*
X125570803Y-33755345D01*
X125568624Y-33756234D01*
X125567742Y-33756789D01*
X125567644Y-33756634D01*
X125506117Y-33781755D01*
X125493488Y-33782400D01*
X102880998Y-33782400D01*
X102813959Y-33762715D01*
X102793317Y-33746081D01*
X102582719Y-33535483D01*
X102549234Y-33474160D01*
X102546400Y-33447802D01*
X102546400Y-33317399D01*
X102566085Y-33250360D01*
X102618889Y-33204605D01*
X102670400Y-33193399D01*
X102843771Y-33193399D01*
X102843772Y-33193399D01*
X102903383Y-33186991D01*
X103038231Y-33136696D01*
X103153446Y-33050446D01*
X103239696Y-32935231D01*
X103288710Y-32803816D01*
X103330581Y-32747884D01*
X103396045Y-32723466D01*
X103464318Y-32738317D01*
X103492573Y-32759469D01*
X103614499Y-32881395D01*
X103711284Y-32949165D01*
X103808065Y-33016932D01*
X103808067Y-33016933D01*
X103808070Y-33016935D01*
X104022237Y-33116803D01*
X104022243Y-33116804D01*
X104022244Y-33116805D01*
X104064171Y-33128039D01*
X104250492Y-33177963D01*
X104426934Y-33193400D01*
X104485899Y-33198559D01*
X104485900Y-33198559D01*
X104485901Y-33198559D01*
X104543940Y-33193481D01*
X104721308Y-33177963D01*
X104949563Y-33116803D01*
X105163730Y-33016935D01*
X105357301Y-32881395D01*
X105524395Y-32714301D01*
X105659935Y-32520730D01*
X105759803Y-32306563D01*
X105820963Y-32078308D01*
X105841559Y-31842900D01*
X105820963Y-31607492D01*
X105759803Y-31379237D01*
X105659935Y-31165071D01*
X105653512Y-31155897D01*
X105524394Y-30971497D01*
X105357302Y-30804406D01*
X105357296Y-30804401D01*
X105171742Y-30674475D01*
X105128117Y-30619898D01*
X105120923Y-30550400D01*
X105152446Y-30488045D01*
X105171742Y-30471325D01*
X105204194Y-30448602D01*
X105357301Y-30341395D01*
X105524395Y-30174301D01*
X105659935Y-29980730D01*
X105759803Y-29766563D01*
X105765419Y-29745606D01*
X105782072Y-29683452D01*
X105818436Y-29623791D01*
X105881283Y-29593261D01*
X105950658Y-29601555D01*
G37*
G04 #@! TD.AperFunction*
G04 #@! TA.AperFunction,Conductor*
G36*
X128857333Y-30168099D02*
G01*
X128899625Y-30195812D01*
X129046758Y-30342945D01*
X129046761Y-30342947D01*
X129233166Y-30473468D01*
X129248875Y-30480793D01*
X129301314Y-30526964D01*
X129320467Y-30594157D01*
X129300252Y-30661038D01*
X129248879Y-30705556D01*
X129233414Y-30712767D01*
X129233412Y-30712768D01*
X129160426Y-30763873D01*
X129160426Y-30763874D01*
X129839453Y-31442900D01*
X129833239Y-31442900D01*
X129731506Y-31470159D01*
X129640294Y-31522820D01*
X129565820Y-31597294D01*
X129513159Y-31688506D01*
X129485900Y-31790239D01*
X129485900Y-31796452D01*
X128798089Y-31108641D01*
X128762704Y-31101529D01*
X128712522Y-31052913D01*
X128696399Y-30991769D01*
X128696399Y-30945029D01*
X128696398Y-30945023D01*
X128695546Y-30937100D01*
X128689991Y-30885417D01*
X128688710Y-30881983D01*
X128639697Y-30750571D01*
X128639695Y-30750568D01*
X128627349Y-30734076D01*
X128562321Y-30647209D01*
X128537904Y-30581748D01*
X128552755Y-30513475D01*
X128562316Y-30498596D01*
X128639696Y-30395231D01*
X128689991Y-30260383D01*
X128689992Y-30260372D01*
X128691265Y-30254988D01*
X128725833Y-30194269D01*
X128787741Y-30161878D01*
X128857333Y-30168099D01*
G37*
G04 #@! TD.AperFunction*
G04 #@! TA.AperFunction,Conductor*
G36*
X87320042Y-28040185D02*
G01*
X87365797Y-28092989D01*
X87375741Y-28162147D01*
X87346716Y-28225703D01*
X87340684Y-28232181D01*
X86271784Y-29301081D01*
X86210461Y-29334566D01*
X86184103Y-29337400D01*
X75548770Y-29337400D01*
X75548754Y-29337399D01*
X75541158Y-29337399D01*
X75383043Y-29337399D01*
X75230315Y-29378323D01*
X75230313Y-29378323D01*
X75230313Y-29378324D01*
X75093381Y-29457382D01*
X74761368Y-29789396D01*
X74431286Y-30119478D01*
X74431284Y-30119480D01*
X74382665Y-30168099D01*
X74344682Y-30206082D01*
X74283358Y-30239566D01*
X74257001Y-30242400D01*
X73612846Y-30242400D01*
X73545807Y-30222715D01*
X73500052Y-30169911D01*
X73490108Y-30100753D01*
X73500464Y-30065995D01*
X73556265Y-29946326D01*
X73556269Y-29946317D01*
X73608872Y-29750000D01*
X72645686Y-29750000D01*
X72650080Y-29745606D01*
X72702741Y-29654394D01*
X72730000Y-29552661D01*
X72730000Y-29447339D01*
X72702741Y-29345606D01*
X72650080Y-29254394D01*
X72645686Y-29250000D01*
X73608872Y-29250000D01*
X73608872Y-29249999D01*
X73556269Y-29053682D01*
X73556265Y-29053673D01*
X73460134Y-28847517D01*
X73329657Y-28661179D01*
X73168820Y-28500342D01*
X72982482Y-28369865D01*
X72776326Y-28273734D01*
X72776317Y-28273730D01*
X72741028Y-28264275D01*
X72681367Y-28227910D01*
X72650838Y-28165063D01*
X72659133Y-28095688D01*
X72703618Y-28041810D01*
X72770170Y-28020535D01*
X72773121Y-28020500D01*
X87253003Y-28020500D01*
X87320042Y-28040185D01*
G37*
G04 #@! TD.AperFunction*
M02*
